<svg width="276" height="280" viewBox="0 0 276 280" fill="none" xmlns="http://www.w3.org/2000/svg">
<path d="M24.6294 52.3353C24.3562 51.8128 24.6852 51.3671 24.9908 51.1005C26.9137 49.4119 28.5417 47.4403 30.4055 45.6877C31.3849 44.7686 32.3478 43.751 33.1864 42.6535C33.8514 41.7884 34.8103 41.2206 35.5038 40.3573C36.2507 39.4288 37.2412 38.7312 38.0624 37.8533C38.7507 37.113 39.6951 36.6331 40.4263 35.8956C41.4878 34.8242 42.6471 33.8396 43.8078 32.878C44.5569 32.262 45.2308 31.5207 46.1791 31.1988C46.4293 31.1149 46.5065 30.9078 46.668 30.7722C47.3745 30.1907 48.0565 29.5876 48.841 29.0886C50.4766 28.0406 52.0047 26.8336 53.6528 25.8151C54.8477 25.0736 55.9924 24.2658 57.1638 23.4883C58.2927 22.7453 59.4349 22.0176 60.5895 21.3193C63.3005 19.6825 66.0844 18.1623 68.9607 16.8517C71.2167 15.8244 73.5439 14.9794 75.9095 14.2087C77.8249 13.5833 79.7298 12.8999 81.6998 12.5361C83.2795 12.2413 84.8282 11.7208 86.4063 11.5807C87.8919 11.446 89.3831 11.2256 90.8595 11.0559C94.271 10.6577 97.6906 10.3977 101.121 10.2703C103.139 10.1934 105.167 10.1602 107.177 10.0571C109.534 9.93372 111.885 10.0737 114.239 9.95584C115.62 9.88591 117.057 9.99746 118.461 10.015C119.818 10.0353 121.168 10.2444 122.526 10.1758C123.883 10.1072 125.255 10.2546 126.597 10.3255C127.859 10.394 129.224 10.1739 130.449 10.7475C131.432 10.2156 132.409 10.793 133.386 10.8141C134.349 10.8343 135.348 10.92 136.304 10.8766C137.288 10.8351 138.294 10.8209 139.267 10.8102C141.246 10.7853 143.218 10.5707 145.186 10.5393C146.387 10.5207 147.495 10.1433 148.666 10.0252C150.886 9.7925 153.091 9.30655 155.249 8.63682C156.113 8.36958 156.998 8.16684 157.899 8.16578C158.585 8.16487 158.952 7.57832 159.589 7.46824C160.62 7.29791 161.624 6.95671 162.642 6.70533C162.982 6.62154 163.29 6.52712 163.423 6.17462C163.753 6.32241 164.008 6.43373 164.242 6.54087C164.608 6.45021 164.215 6.25809 164.347 6.08331C164.757 5.9439 165.163 5.68388 165.678 5.80661C166.163 5.9187 166.38 5.38533 166.856 5.32198C167.887 5.18895 168.702 4.18175 169.877 4.56276C170.656 3.89713 171.683 3.7696 172.582 3.36704C173.03 3.16138 173.545 3.04604 174.063 3.21481C174.514 3.35908 174.683 2.46426 175.222 2.88952C176.636 1.87575 178.375 2.04433 179.948 1.76056C182.465 1.3151 184.968 0.676694 187.581 0.650353C188.888 0.641559 190.244 0.246085 191.573 0.212917C194.57 0.128628 197.559 -0.159645 200.566 0.11798C201.808 0.233872 203.074 0.0675466 204.314 0.197711C206.942 0.461923 209.578 0.723843 212.181 1.19568C212.667 1.27922 213.174 1.27807 213.596 1.63548C214.054 2.02103 214.576 1.53924 215.118 1.65509C215.759 1.7918 216.277 2.22715 216.998 2.25439C217.397 2.27197 217.953 2.55219 218.413 2.56801C219.912 2.62624 221.189 3.54151 222.687 3.56244C223.254 3.57381 223.739 3.97553 224.21 4.21284C225.815 5.01481 227.701 5.04685 229.193 6.06508C230.011 6.62332 230.908 6.89437 231.845 6.99603C232.145 7.03006 232.466 7.05399 232.611 7.24987C233.126 7.94307 233.976 8.03033 234.66 8.38488C235.392 8.75976 236.254 8.8765 236.97 9.35358C237.698 9.83711 238.428 10.4555 239.242 10.6408C240.697 10.9628 241.822 11.8337 243.048 12.5334C243.661 12.8833 244.482 13.0059 244.743 13.8774C244.882 14.3367 245.686 13.5523 245.854 14.3173C245.953 14.7682 246.307 14.8631 246.763 14.8844C247.182 14.9062 247.238 15.6581 247.694 15.5906C248.142 15.5254 248.752 15.6141 248.756 15.8609C248.764 16.4807 249.555 16.0968 249.524 16.6051C249.521 16.6479 249.574 16.7088 249.622 16.7291C251.057 17.3508 251.974 18.6781 253.381 19.3726C254.2 19.7761 254.938 20.4581 255.548 21.1547C256.14 21.8185 256.844 22.355 257.507 22.8973C258.668 23.8336 259.489 25.0829 260.648 25.9962C260.963 26.2462 260.556 27.1283 261.435 26.885C261.456 27.4826 262.069 27.4913 262.346 27.8163C262.555 28.0565 262.607 28.4355 262.756 28.8409C263.504 29.1882 263.972 29.8983 264.529 30.6086C265.596 31.9716 266.599 33.3791 267.477 34.8473C268.684 36.8702 270.007 38.8722 270.547 41.2183C270.659 41.6987 271.174 41.658 271.314 42.0657C272.148 44.4569 273.221 46.7578 273.624 49.3128C273.792 50.3817 274.358 51.4309 274.536 52.5205C274.896 54.7173 275.554 56.8504 275.598 59.1296C275.624 60.4787 275.868 61.8737 275.925 63.2565C276.054 66.1261 276.073 68.9914 275.511 71.8213C275.094 73.9355 274.716 76.0581 274.123 78.1435C273.917 78.861 273.476 79.4714 273.353 80.1485C273.226 80.8454 272.971 81.4308 272.606 81.9888C272.318 82.4286 272.61 82.9695 272.217 83.4225C271.915 83.7725 271.565 84.1767 271.71 84.8169C271.777 85.108 271.358 85.5163 271.154 85.8641C270.858 86.3665 270.631 86.9306 270.249 87.3528C269.935 87.6963 270.374 88.4046 269.644 88.4828C269.893 89.1471 269.34 89.5437 269.098 90.0323C268.868 90.4989 268.571 90.941 268.308 91.3881C268.012 91.8905 267.717 92.3929 267.422 92.8953C267.156 93.348 266.75 93.7715 266.657 94.2585C266.48 95.1929 265.802 95.8651 265.507 96.746C265.181 97.7194 264.521 98.5878 263.954 99.465C263.456 100.235 263.525 101.194 262.942 101.944C262.378 102.676 261.76 103.487 261.565 104.351C261.338 105.331 260.558 106.062 260.464 106.957C260.35 108.024 259.494 108.645 259.266 109.564C258.782 111.565 257.667 113.347 257.152 115.3C256.498 117.765 255.537 120.133 254.999 122.644C254.649 124.278 254.349 125.927 253.998 127.561C253.649 129.181 253.628 130.874 253.563 132.541C253.476 134.625 253.635 136.697 253.888 138.772C254.144 140.855 254.706 142.873 254.991 144.945C255.122 145.888 255.424 146.791 255.528 147.741C255.638 148.769 256.151 149.757 256.266 150.788C256.553 153.364 257.535 155.82 257.527 158.439C258.444 161.576 258.249 164.857 258.73 168.051C258.969 169.643 258.755 171.298 258.774 172.925C258.801 175.624 258.553 178.311 258.334 181C258.132 183.47 257.711 185.908 257.182 188.327C256.807 190.066 256.344 191.79 255.995 193.536C255.856 194.24 255.162 194.762 255.367 195.564C254.484 196.94 254.489 198.677 253.55 200.035C253.535 201.123 252.87 201.951 252.314 202.783C251.889 203.418 252.112 204.215 251.582 204.825C251.095 205.387 250.563 206.077 250.459 206.773C250.266 208.039 249.494 208.946 248.914 209.971C247.566 212.351 246.177 214.714 244.747 217.046C244.276 217.809 244.063 218.767 243.202 219.281C242.447 219.73 242.489 220.822 241.639 221.231C241.33 221.377 241.707 221.811 241.418 222.088C240.858 222.636 240.825 223.551 239.995 223.964C239.352 224.286 239.435 225.32 238.597 225.595C238.088 225.765 238.818 226.851 237.823 226.797C237.457 227.711 236.699 228.329 236.087 229.054C235.578 229.654 235.486 230.52 234.685 230.957C234.004 231.331 234.068 232.451 233.149 232.671C232.787 233.794 231.678 234.364 231.119 235.365C230.697 236.12 230.05 236.765 229.43 237.39C228.473 238.359 227.538 239.356 226.635 240.371C226.302 240.748 225.941 241.071 225.582 241.403C225.377 241.588 225.071 241.55 224.896 241.848C223.809 243.735 222.085 245.073 220.503 246.485C219.548 247.337 218.659 248.294 217.53 248.985C217.224 249.177 216.94 249.686 216.557 249.819C215.42 250.208 214.669 251.105 213.818 251.832C213.351 252.234 212.882 252.576 212.336 252.821C212.232 252.872 212.052 252.849 212.004 252.917C211.193 254.246 209.721 254.737 208.543 255.577C207.401 256.393 206.103 256.993 204.982 257.837C202.724 259.538 200.152 260.723 197.841 262.325C197.087 262.849 196.219 263.211 195.61 263.538C195.148 263.943 195.58 264.247 195.281 264.591C195.008 264.892 194.574 264.832 194.04 264.676C193.6 265.894 192.341 266.124 191.364 266.659C189.058 267.924 186.689 269.093 184.286 270.168C182.705 270.87 181.144 271.613 179.463 272.131C174.135 273.777 168.752 275.212 163.335 276.502C161.268 276.994 159.193 277.497 157.107 277.882C155.333 278.204 153.545 278.549 151.755 278.758C147.584 279.247 143.403 279.738 139.197 279.918C135.979 280.05 132.768 279.994 129.553 279.944C127.494 279.915 125.447 279.789 123.394 279.586C120.117 279.262 116.859 278.867 113.595 278.395C110.53 277.95 107.618 276.853 104.537 276.576C102.888 275.622 100.86 275.804 99.2295 274.794C98.2488 274.868 97.433 274.281 96.5839 273.979C95.7038 273.666 94.7081 273.574 93.9183 272.943C93.5605 272.653 92.9472 272.874 92.5105 272.516C92.1504 272.217 91.7168 271.942 91.1845 272.024C91.0979 271.336 90.4432 271.918 90.1253 271.548C89.8019 271.174 89.2718 270.835 88.7875 270.76C87.6048 270.582 86.7628 269.61 85.7054 269.409C84.5543 269.19 83.8125 268.312 82.7834 268.076C81.5278 267.781 80.8767 266.623 79.7226 266.232C79.6242 266.197 79.6016 265.932 79.5436 265.765C79.27 265.724 79.238 266.031 78.9696 266.171C78.7419 265.786 78.5773 265.32 78.2602 265.024C77.8831 264.678 77.3699 264.475 76.8434 264.168C76.4155 264.326 75.9316 264.504 75.5037 264.662C74.9841 264.167 74.3929 264.096 74.0412 263.543C73.8877 263.298 73.2092 263.199 72.7736 263.041C72.1975 262.831 72.0815 261.978 71.5697 262.013C70.8785 262.062 70.4877 261.664 70.0166 261.389C65.6233 258.85 61.2398 256.295 56.866 253.723C56.395 253.448 55.7308 253.35 55.6253 252.644C54.7082 253.103 54.7985 251.962 54.2469 251.774C53.7405 251.597 53.3766 251.14 52.9802 250.739C52.3 250.06 51.3071 249.711 50.4644 249.183C49.9033 248.834 49.282 248.612 48.9101 247.929C48.6124 247.384 47.8439 247.211 47.3418 246.71C46.7341 246.111 46.1154 245.417 45.333 244.976C44.8001 244.68 44.2837 244.394 43.9371 243.806C43.6758 243.365 42.8357 243.402 42.7631 242.677C41.6966 242.137 41.0275 241.161 40.181 240.386C38.1355 238.512 36.2581 236.491 34.4579 234.389C32.9489 232.627 31.4148 230.895 29.9243 229.114C29.4446 228.538 28.9723 227.936 28.5374 227.334C26.9611 225.155 25.3146 222.995 23.9989 220.663C22.8246 218.585 21.5495 216.552 20.4628 214.414C19.8878 213.278 19.0617 212.24 18.423 211.112C16.9132 208.453 15.478 205.755 14.1852 202.993C13.0458 200.564 11.8439 198.166 11.1926 195.54C11.02 194.847 10.6476 194.214 10.4311 193.532C10.1861 192.759 10.1219 191.907 9.77278 191.184C9.31677 190.251 9.16277 189.235 8.75529 188.308C8.44035 187.59 9.00444 186.77 8.24933 186.093C7.69777 185.601 8.28163 184.57 7.64844 183.963C7.94436 182.891 7.0138 182.081 7.05503 180.986C7.09666 179.928 6.5609 178.852 6.28404 177.779C6.00393 176.711 5.5995 175.653 5.46783 174.56C5.22405 172.558 4.48679 170.66 4.20367 168.686C3.93472 166.802 3.25332 164.974 3.37831 163.053C3.4087 162.596 3.0052 162.561 2.93877 162.219C2.86451 161.864 3.08278 161.569 2.97566 161.232C2.54165 159.882 2.35598 158.476 2.1495 157.081C1.84975 155.097 1.60827 153.103 1.29095 151.125C0.804508 148.054 0.620866 144.974 0.463607 141.888C0.358531 139.877 0.326029 137.856 0.267187 135.843C0.207074 133.502 0.123849 131.163 0.106724 128.825C0.0987883 127.042 0.208762 125.26 0.223944 123.475C0.2343 122.065 0.190592 120.646 0.138089 119.229C0.0722009 117.278 0.0733485 115.315 0.0217899 113.365C-0.052815 110.593 0.0699269 107.84 0.30178 105.092C0.417033 103.706 0.52677 102.317 0.820467 100.932C1.00508 100.061 1.15145 99.1157 1.2048 98.2276C1.31989 96.4118 1.90346 94.7357 2.28376 93.0004C2.41937 92.39 2.6968 91.8549 2.86146 91.2838C3.01219 90.749 3.20954 90.2487 3.38798 89.7301C3.92005 88.1796 4.73949 86.7225 5.0073 85.0773C5.02598 84.9696 5.06226 84.8573 5.12853 84.7699C6.24295 83.2921 6.50381 81.4056 7.56052 79.8867C8.50228 78.538 8.72171 76.7979 9.77066 75.482C9.73241 74.37 10.6633 73.6599 10.9682 72.7109C11.7859 70.1557 13.4202 68.0469 14.6988 65.7456C15.9709 63.4553 17.3483 61.2264 18.6647 58.9619C19.6005 57.3577 20.9139 56.0477 22.0851 54.6252C22.3385 54.3208 22.7822 54.0976 22.9794 53.6862C23.362 52.9975 23.9138 52.5779 24.6294 52.3353ZM154.762 12.0967C154.437 11.3214 153.931 11.3598 153.4 11.4139C153.228 11.7065 153.053 12.0046 152.796 12.4408C151.856 11.9519 151.389 13.2142 150.338 13.0908C149.47 12.9851 148.54 13.4285 147.649 13.6281C147.595 14.0488 148.224 14.0672 148.082 14.5624C148.849 14.4092 149.596 13.948 150.32 14.5775C150.486 14.2959 150.599 14.1027 150.739 13.8653C151.423 14.0564 152.06 13.7828 152.701 13.6157C153.316 13.4554 154.073 13.8519 154.534 13.1425C155.216 13.6288 155.673 12.7758 156.339 12.8453C156.936 12.9046 157.575 12.6025 158.19 12.4422C158.841 12.2727 159.463 11.9236 160.08 11.7721C160.698 11.6205 161.261 11.282 161.901 11.2322C162.563 11.1811 163.293 11.3322 163.843 10.8895C164.431 10.4092 165.059 10.4045 165.764 10.4824C166.1 9.38058 166.91 9.78643 167.667 10.0568C167.602 9.81179 167.572 9.69801 167.54 9.57549C167.771 9.22081 168.007 9.74371 168.257 9.57093C168.942 9.10269 169.647 8.53549 170.472 8.51222C171.401 8.49001 172.138 8.00804 172.978 7.79371C176.276 6.94368 179.581 6.15721 182.916 5.48449C183.143 5.43922 183.401 5.27841 183.59 5.33668C184.706 5.70518 185.698 5.15678 186.746 5.01917C187.876 4.8697 188.999 4.46468 190.095 4.43626C191.75 4.39295 193.386 4.33122 194.93 3.88212C195.087 4.07019 194.971 4.30622 195.109 4.31239C196 4.11287 196.892 3.63249 197.555 3.84796C198.451 4.13327 199.036 3.68145 200.009 3.64779C198.486 2.96012 198.486 2.96012 197.283 3.25959C197.017 2.62291 196.102 3.05307 195.772 2.34908C195.323 2.82133 194.977 3.61281 194.133 2.97257C193.968 2.84711 193.78 2.86342 193.648 2.94934C192.681 3.63129 191.533 3.33229 190.484 3.4699C189.654 3.5788 188.711 3.77777 188.047 3.10923C187.29 3.67591 186.563 3.87473 185.763 3.83081C185.69 3.58806 185.641 3.41857 185.581 3.22833C185.177 3.5114 184.784 3.78668 184.377 4.07527C183.846 3.78815 183.244 3.78592 182.641 3.77496C182.524 3.97371 182.407 4.17246 182.29 4.37121C181.766 4.16191 181.278 4.35921 180.801 4.51142C180.36 4.65447 179.893 4.36009 179.434 4.8116C179.108 5.12563 178.453 5.11417 177.946 5.24148C177.566 5.11618 177.267 4.72669 176.721 4.75679C176.933 5.02874 177.066 5.19513 177.36 5.5671C176.535 5.12304 176.159 5.76345 175.605 5.87043C174.689 6.04828 173.795 6.32791 172.89 6.56379C172.783 7.31645 172.081 6.44757 171.806 6.97715C171.489 7.59277 171.082 6.52538 170.696 6.93003C170.717 7.08339 170.742 7.23124 170.719 7.09216C169.582 7.3931 168.528 7.66788 167.468 7.93946C167.189 8.05879 167.495 7.45097 167.085 7.59038C166.409 7.76672 167.425 8.58169 166.62 8.698C166.385 8.64242 166.607 8.25276 166.249 8.26654C165.959 8.41671 166.009 8.92739 165.569 8.9673C165.527 8.68362 165.487 8.38568 165.316 8.36013C164.899 8.30983 164.843 8.49253 164.759 8.63607C164.394 9.28294 163.935 9.77176 163.1 9.61084C162.725 10.2227 162.089 9.78531 161.598 9.98815C161.063 10.2024 160.416 10.1887 159.92 10.4629C158.343 11.3599 156.529 11.4587 154.762 12.0967ZM68.6999 34.6093C70.2116 34.6454 71.3382 33.8937 72.5638 33.5556C73.6193 33.2665 74.6616 32.7845 75.697 32.3651C76.8179 31.914 77.9986 31.6905 79.0964 31.2408C80.7206 30.5791 82.3283 29.9077 84.0266 29.4744C84.4747 29.3576 85.0133 29.3528 85.3531 29.0913C86.2831 28.3955 87.4101 28.415 88.4365 28.0867C89.4629 27.7585 90.3817 27.1451 91.4794 26.9993C91.7698 26.961 92.0006 27.1252 92.3874 26.9356C93.9675 26.1592 95.8173 26.0885 97.3887 25.2255C98.0526 25.5013 98.4744 24.8724 99.0505 24.7784C99.6355 24.682 100.201 24.4927 100.825 24.3301C100.284 23.5922 99.7663 24.143 99.3114 24.1447C97.3134 24.1512 95.3109 24.3552 93.3524 24.7628C89.5255 25.5637 85.8144 26.788 82.1824 28.2066C81.2808 28.5632 80.3346 28.7677 79.4597 29.1546C76.4853 30.4673 73.5413 31.8423 70.6098 33.2467C69.9588 33.5566 69.2864 33.9282 68.6999 34.6093ZM51.5854 33.0903C51.8699 33.0115 52.0873 32.9455 52.3014 32.8851C52.1205 32.446 52.3321 32.0356 52.3079 31.6212C52.8338 31.1569 53.2515 32.3195 53.775 31.7203C53.8079 31.3985 53.2661 31.4088 53.3976 31.0333C53.614 30.4627 54.212 30.3442 54.6115 30.0064C54.8943 30.0823 55.0587 30.4227 55.4089 30.3081C55.3468 29.8568 55.3333 29.4115 55.8297 29.1746C56.8161 28.7119 57.5663 27.7778 58.7315 27.6564C59.1518 27.6124 59.2992 27.0831 59.7513 27.1242C59.9649 26.2925 60.7562 26.1237 61.3661 25.7824C63.3555 24.6516 65.3237 23.4935 67.3771 22.4815C70.0945 21.1376 72.8207 19.7913 75.6477 18.704C77.5971 17.9576 79.4993 17.0131 81.5678 16.5955C81.8943 16.5338 82.0398 16.3369 81.9335 16.0748C73.6512 17.6068 66.3865 21.4074 59.4404 25.9571C59.3688 25.6485 59.349 25.3404 58.9575 25.2975C58.4271 25.6554 57.9206 26.0866 57.3441 26.3584C56.6284 26.6899 56.3395 27.1812 56.5218 27.8583C55.8794 28.2548 55.3389 28.592 54.8377 28.9003C54.5809 28.7802 54.2909 28.5519 54.1803 28.6134C53.3779 29.0797 52.366 29.32 52.1753 30.4542C51.5252 30.0159 51.2374 30.7081 50.7741 30.7493C50.7249 31.4026 49.5959 31.1966 49.7542 32.1043C49.8691 32.7569 49.3998 33.0615 48.72 32.9395C48.6901 32.8257 48.6602 32.712 48.6189 32.5545C48.4026 33.0362 47.6195 32.8243 47.5675 33.4315C47.6644 33.8364 48.149 33.2145 48.1609 33.8145C47.385 34.4 46.6293 35.1159 45.7367 35.5963C45.1453 35.9187 44.9954 36.3131 44.795 36.945C45.5012 36.5412 45.9585 35.9405 46.7357 36.1119C46.6485 35.7794 46.502 35.4716 47.0123 35.2872C47.4753 35.1198 47.7773 35.3403 48.1371 35.513C48.2655 35.573 48.3591 35.4645 48.3292 35.3507C48.1876 35.1866 48.0515 35.0258 47.8462 34.7801C49.062 34.0285 50.1297 33.1238 51.4458 32.5938C51.5005 32.7665 51.5248 32.877 51.5854 33.0903ZM108.171 276.152C108.348 276.522 108.639 276.648 108.997 276.685C110.501 276.836 111.983 277.188 113.461 277.457C116.126 277.95 118.797 278.255 121.485 278.517C126.066 278.964 130.667 279.214 135.277 279.182C137.244 279.165 139.219 279.122 141.179 278.99C143.278 278.85 145.368 278.548 147.473 278.397C149.492 278.254 151.463 277.824 153.462 277.589C155.142 277.389 156.763 276.822 158.47 276.779C158.81 276.77 159.151 276.62 159.483 276.525C159.814 276.429 160.193 276.405 160.448 276.212C160.218 275.819 159.996 275.867 159.766 275.941C158.729 276.263 157.622 276.374 156.58 276.463C154.067 276.674 151.604 277.18 149.104 277.457C147.773 277.608 146.421 277.895 145.11 277.923C142.155 277.987 139.213 278.259 136.256 278.314C132.279 278.383 128.322 278.152 124.353 278.106C123.413 278.099 122.538 277.752 121.625 277.747C119.617 277.732 117.613 277.609 115.656 277.217C114.171 276.922 112.653 276.934 111.165 276.541C110.248 276.303 109.209 276.083 108.171 276.152ZM142.758 245.929C143.678 245.68 144.591 245.886 145.516 245.921C146.607 245.964 147.698 245.829 148.791 245.844C149.205 245.848 149.464 245.191 149.934 245.621C151.588 244.643 153.435 244.474 155.315 244.302C155.426 244.53 155.514 244.723 155.598 244.897C155.823 244.843 156.054 244.792 156.27 244.741C156.235 244.572 156.203 244.412 156.167 244.258C156.574 244.021 156.801 244.761 157.238 244.423C157.098 244.244 156.965 244.078 156.823 243.914C157.412 243.027 157.415 243.021 158.364 243.33C158.55 243.394 158.689 243.386 158.796 243.203C158.981 242.978 158.799 242.768 158.776 242.554C159.143 242.309 159.893 242.59 159.891 241.885C158.745 241.632 157.75 242.134 156.702 242.272C155.491 242.433 154.266 242.505 153.058 242.749C151.888 242.979 150.708 243.203 149.539 243.381C148.216 243.581 146.865 243.601 145.563 243.955C145.112 244.077 144.633 244.347 144.218 244.268C143.67 244.163 143.212 244.334 142.724 244.442C142.201 244.56 141.69 244.707 141.204 244.838C141.489 245.708 142.697 244.893 142.758 245.929ZM146.277 98.2919C146.976 98.5585 147.175 97.852 147.714 97.7584C148.25 97.6702 148.774 97.4495 149.293 97.2112C151.271 96.3032 153.326 95.5666 155.359 94.7797C156.824 94.2108 158.324 93.6843 159.737 93.0402C161.15 92.3962 162.648 91.9498 164.02 91.2371C165.32 90.557 166.891 90.4279 167.987 89.3244C167.567 88.4052 167.027 88.0831 166.051 88.4405C164.646 88.9561 163.278 89.5744 161.908 90.1839C160.953 90.6058 160.044 91.151 159.066 91.4996C157.137 92.1987 155.35 93.188 153.541 94.1128C151.356 95.2337 149.172 96.3547 146.975 97.4461C146.555 97.6536 146.353 97.884 146.277 98.2919ZM13.3285 133.865C13.3566 133.399 13.4851 132.94 13.3665 132.56C13.3026 132.352 13.0527 132.258 13.1523 131.886C13.5548 130.379 13.9638 128.861 14.1986 127.322C14.3202 126.533 14.6646 125.77 14.4936 124.922C14.0289 122.649 13.628 120.37 13.2039 118.091C13.1664 117.877 12.998 117.682 13.1441 117.434C13.3486 117.086 13.0907 116.765 13.0081 116.45C12.9346 116.17 12.9935 115.804 12.5465 115.514C12.2155 118.153 12.2114 120.678 12.2426 123.194C12.2735 125.585 12.3386 127.98 12.4587 130.37C12.5132 131.455 12.4443 132.534 12.4128 133.612C12.4065 133.75 12.5061 133.897 12.5323 133.979C12.8139 133.943 13.0437 133.906 13.3285 133.865ZM101.147 207.098C101.818 206.059 103.025 205.65 103.857 204.793C104.876 203.742 105.982 202.786 107.026 201.756C107.914 200.88 108.847 200.052 109.667 199.1C110.515 198.126 111.572 197.341 112.48 196.403C113.423 195.433 114.334 194.415 115.368 193.542C115.947 193.05 116.542 192.596 117.055 192.028C117.633 191.386 118.229 190.726 118.932 190.239C119.647 189.744 119.891 188.685 120.968 188.623C121.228 188.612 121.337 188.223 121.402 187.949C121.431 187.811 121.369 187.537 121.401 187.534C122.388 187.309 122.675 186.29 123.5 185.748C123.179 185.635 123.045 185.483 122.721 185.768C121.232 187.087 119.653 188.316 118.177 189.65C117.657 190.118 116.98 190.472 116.719 191.194C115.306 191.964 114.349 193.275 113.298 194.404C112.222 195.563 111.053 196.654 109.944 197.756C107.485 200.192 105.144 202.756 102.506 205.014C102.246 205.849 101.087 206.011 101.147 207.098ZM69.1422 239.627C68.9868 240.144 68.8919 240.445 68.8026 240.748C67.9764 240.318 67.8691 241.627 66.9722 241.394C66.1229 240.965 65.2319 240.253 64.069 240.079C63.5274 240.001 63.4786 240.172 63.5116 240.584C64.2473 240.991 64.899 241.579 65.7415 241.462C66.0095 241.803 65.5495 242.054 65.8102 242.332C66.7468 242.878 67.6445 243.705 68.6723 243.919C69.8049 244.157 70.6183 244.824 71.5651 245.302C72.5508 245.802 73.4779 246.402 74.4367 246.961C74.686 247.106 74.9345 247.266 75.1936 247.395C75.28 247.438 75.4053 247.414 75.5144 247.419C75.6595 247.184 75.891 246.993 75.8689 246.676C74.7754 246.499 74.8259 246.476 74.5367 245.588C74.3808 245.119 74.8315 245.138 74.8777 244.92C75.0327 244.276 74.2553 244.194 74.1206 243.752C73.9506 243.408 74.6752 243.29 74.2609 242.855C73.7711 243.207 73.7644 244.13 72.866 243.962C72.2832 243.118 72.2832 243.118 71.2676 243.631C71.0192 243.99 71.8221 243.991 71.5537 244.435C71.2116 244.169 70.5749 244.265 70.8883 243.491C70.9817 243.256 70.4776 242.785 70.3444 242.581C70.0115 242.35 69.7885 242.717 69.6378 242.429C69.3904 241.951 69.6136 241.495 69.5991 241.064C69.9235 240.905 70.2899 240.978 70.4956 240.742C70.1809 240.151 69.6542 240.755 69.3558 240.352C69.3136 240.208 69.2667 240.048 69.1422 239.627ZM92.2071 44.1767C91.3899 44.3896 90.6236 44.5286 89.9006 44.7965C89.1896 45.0566 88.4384 45.056 87.7062 45.2889C86.7325 45.6034 85.8481 46.133 84.8482 46.3656C82.8604 46.8228 80.9831 47.6113 79.0809 48.3408C76.1003 49.4868 73.3727 51.1139 70.5921 52.6286C69.947 52.9791 69.3614 53.4309 68.7533 53.8324C76.6054 50.8932 84.0772 47.0948 92.0885 44.619C92.1389 44.5965 92.1392 44.4188 92.2071 44.1767ZM156.159 186.937C159.303 185.678 162.171 184.014 164.99 182.27C168.382 180.171 171.715 177.97 175.086 175.843C175.465 175.604 175.625 175.357 175.588 174.875C169.034 178.467 162.81 182.497 156.502 186.38C156.334 186.475 156.27 186.749 156.159 186.937ZM169.032 253.359C167.277 253.04 165.718 253.858 164.05 253.909C162.325 253.971 160.629 254.235 158.93 254.505C157.182 254.783 155.448 255.151 153.716 255.476C153.883 255.736 154.163 255.981 154.515 255.889C155.814 255.527 157.193 256.383 158.458 255.638C159.307 256.118 160.096 255.636 160.921 255.524C161.501 255.448 162.115 255.531 162.486 255.785C163.204 255.387 163.767 255.227 164.499 255.298C165.106 255.355 165.722 254.913 166.379 255.126C166.471 254.082 166.578 254.041 167.977 254.419C168.054 254.212 167.783 254.002 168.096 253.673C168.329 253.594 168.682 253.474 169.032 253.359ZM159.848 240.021C156.884 239.798 149.518 240.797 147.614 242.467C148.453 242.444 149.185 242.768 149.867 242.09C150.116 241.842 150.663 241.924 151.015 241.744C151.524 241.485 151.787 242.164 152.31 241.958C152.851 241.747 153.571 241.877 154.011 241.571C154.609 241.148 155.209 241.52 155.785 241.3C156.326 241.089 156.938 240.808 157.459 240.897C158.073 241.003 158.544 240.329 159.081 240.694C159.648 241.083 160.012 240.11 160.541 240.551C161.407 240.256 162.353 240.495 163.209 240.127C163.517 239.996 163.701 239.873 163.603 239.482C162.874 239.191 162.107 239.433 161.436 239.472C161.111 239.216 161.256 238.678 160.732 238.721C160.694 238.735 160.613 238.733 160.591 238.771C160.348 239.171 160.114 239.569 159.848 240.021ZM200.952 91.3219C201.378 91.5476 201.282 92.0401 201.867 92.1588C202.452 92.2775 202.949 92.1152 203.478 92.1269C204.222 92.1386 204.765 91.7212 205.115 91.1765C205.42 90.7092 205.713 91.1097 206.051 91.0029C206.658 90.0594 207.176 89.0641 206.611 87.6452C204.739 88.9558 202.48 89.3809 200.952 91.3219ZM246.849 190.043C247.438 189.066 247.755 188.287 248.059 187.441C248.563 186.053 248.843 184.615 249.286 183.227C249.96 181.107 250.138 178.906 250.518 176.74C250.643 176.035 250.809 175.271 250.782 174.507C250.756 173.766 250.764 173.007 250.92 172.26C250.937 172.181 250.981 171.903 250.596 171.938C250.503 172.247 250.331 172.502 250.3 172.959C250.181 174.668 249.756 176.34 249.491 178.032C249.206 179.845 248.78 181.62 248.306 183.375C248.054 184.311 247.825 185.282 247.594 186.207C247.313 187.355 246.77 188.507 246.849 190.043Z" fill="white" fill-opacity="0.2"/>
</svg>
