<svg width="98" height="91" viewBox="0 0 98 91" fill="none" xmlns="http://www.w3.org/2000/svg">
<path d="M13.2834 88.588C10.2655 89.2491 7.26187 90.0408 4.2069 90.5256C2.81529 90.7525 0.906117 91.1381 0.449722 89.0163C-0.095559 86.5253 1.30762 84.6825 3.50911 84.1877C11.8911 82.2908 19.806 79.0815 27.6411 75.6143C36.3209 71.7768 44.6124 67.1123 51.9308 61.2602C57.8748 56.5092 63.289 50.9071 68.1023 44.8451C78.0384 32.3282 85.8502 18.5484 92.9862 4.339C93.5459 3.21765 93.9033 1.9229 95.1027 1.25112C95.6252 0.95649 96.1314 0.407765 96.8279 0.914521C97.4824 1.3808 97.3818 2.04871 97.1779 2.64082C96.6774 4.09792 96.1918 5.5716 95.5395 6.96583C87.8071 23.4333 79.1637 39.3687 67.2927 53.3328C52.7972 70.3861 34.8687 82.2351 13.2834 88.588Z" fill="#F6D06D"/>
<path d="M13.3806 60.935C11.3376 61.1704 9.38507 62.0122 7.25111 61.7548C6.47887 61.6612 5.80215 61.6144 5.4629 60.8158C4.23473 57.9075 6.18277 54.3475 9.23061 53.2959C31.1482 45.7479 48.9353 33.2957 58.7239 11.4713C59.5416 9.65036 60.2514 7.7755 60.8173 5.86671C61.3072 4.21598 62.0834 2.2407 63.7869 2.63368C65.9444 3.1329 64.942 5.38564 64.6067 6.83996C62.9894 13.7133 59.8322 19.9536 56.2216 25.9737C47.5011 40.5027 35.1391 51.0204 19.9644 58.3706C17.8617 59.387 15.5881 60.0768 13.3806 60.935Z" fill="#F6D06D"/>
</svg>
