<svg width="184" height="180" viewBox="0 0 184 180" fill="none" xmlns="http://www.w3.org/2000/svg">
<g opacity="0.1">
<mask id="path-1-outside-1" maskUnits="userSpaceOnUse" x="-6.10352e-05" y="0" width="184" height="180" fill="black">
<rect fill="white" x="-6.10352e-05" width="184" height="180"/>
<path d="M92.6769 167.397C85.0355 163.645 77.8757 158.993 70.4256 154.883C65.0933 151.942 60.2768 148.318 55.3374 144.834C53.1444 143.285 50.8523 141.869 48.7549 140.202C44.6387 136.933 40.7548 133.356 36.5447 130.222C29.5608 125.026 23.9058 118.482 18.0987 112.096C14.085 107.681 10.845 102.643 7.87313 97.4637C5.69548 93.6707 3.3573 89.9047 2.25566 85.5594C1.40168 82.1848 2.74241 81.8189 5.44442 81.3411C5.86456 81.2666 6.32231 81.5275 6.76979 81.5597C10.5837 81.8206 14.4078 81.9798 18.2131 82.3271C28.2269 83.2436 38.075 84.8292 47.3237 88.9577C51.9232 91.0093 56.5825 92.9456 61.3016 94.7075C67.4213 96.9911 73.1293 100.044 78.6716 103.439C82.6563 105.88 86.6136 108.369 90.6683 110.893C91.0099 109.358 90.0142 108.553 89.4318 107.688C86.0158 102.605 83.4249 97.069 80.9927 91.4836C78.5145 85.7864 76.3026 79.952 74.1318 74.104C70.8133 65.1643 67.9097 56.1196 65.7355 46.8021C63.9268 39.0551 62.5826 31.1827 60.2256 23.5813C60.0726 23.027 59.9714 22.4599 59.9233 21.8872C59.7781 20.6489 60.5108 20.205 61.5612 20.244C62.1027 20.2643 62.6458 20.4811 63.1599 20.6811C66.8132 22.1075 70.4734 23.5186 74.1062 24.9976C78.3761 26.7391 82.2122 29.331 86.2874 31.4537C93.034 34.9898 99.4599 39.0974 105.493 43.7308C112.798 49.3077 119.83 55.22 126.436 61.6457C130.457 65.5556 134.765 69.1827 138.157 73.7059C140.645 77.0246 142.952 80.4822 145.342 83.8839C145.919 76.8908 146.563 70.1619 147.354 63.4177C148.213 55.9714 149.873 48.6376 152.307 41.542C154.222 35.9888 156.416 30.5305 158.719 25.1094C161.702 18.0806 165.52 11.533 169.609 5.13274C172.311 0.897525 173.858 0.939873 175.795 5.36143C177.926 10.2235 180.143 15.0533 181.998 20.0407V29.7885C180.29 24.1302 178.265 18.5008 175.663 13.2457C175.066 13.1847 174.958 13.5015 174.98 13.8285C175.291 18.97 175.465 24.1285 175.971 29.2446C177.006 39.748 176.654 50.2513 176.024 60.7919C175.552 68.688 175.265 76.5909 174.867 84.4904C174.435 93.0642 173.885 101.628 173.148 110.195C172.282 120.236 170.982 130.238 170.112 140.277C169.6 146.192 168.521 152.078 167.581 157.961C166.574 164.28 165.431 170.582 164.346 176.891L164.915 177.255C167.136 174.057 169.54 170.968 171.539 167.636C175.476 161.109 178.971 154.329 182 147.341V153.308C179.49 158.751 176.625 164.026 173.421 169.098C171.498 172.114 169.414 175.027 167.411 177.992H151.023C149.315 176.266 147.607 174.529 145.849 172.864C139.238 166.623 132.556 160.472 126.293 153.845C121.743 149.028 117.299 144.153 113.085 139.03C108.235 133.131 103.333 127.278 98.9588 120.996C97.2402 118.51 94.9681 116.45 92.3182 114.974C88.4223 112.771 84.7229 110.215 80.8612 107.943C76.1199 105.153 71.0251 103.075 66.0293 100.794C60.1265 98.099 54.3451 95.1445 48.4372 92.456C44.4713 90.6484 40.2595 89.4287 36.0169 88.4597C31.2107 87.3602 26.4182 86.132 21.4788 85.6339C18.0253 85.2951 14.5854 84.7141 10.6896 85.0698C12.6691 87.8176 15.2396 89.5659 17.5692 91.4904C25.0843 97.6924 32.5583 103.971 40.3961 109.741C45.2416 113.309 49.8924 117.166 55.1017 120.275C59.1223 122.673 62.7278 125.78 66.4665 128.64C71.1924 132.253 76.2651 135.345 81.2301 138.593C87.5137 142.699 93.8861 146.674 100.269 150.621C104.262 153.091 108.163 155.717 112.436 157.726C117.731 160.211 122.343 163.845 127.431 166.684C134.358 170.553 140.99 174.977 148.519 177.989H141.994C135.926 174.741 130.182 171.228 124.392 167.802C117.261 163.584 110.026 159.549 102.826 155.452C96.0177 151.58 89.5035 147.18 82.8305 143.085C74.9072 138.22 67.247 132.958 59.773 127.437C54.0188 123.188 47.8173 119.595 42.222 115.118C34.6215 109.044 26.8025 103.259 19.1525 97.2418C15.214 94.1484 11.4393 90.8416 7.0533 87.1823C8.60242 92.5085 11.2242 96.4219 13.7724 100.301C18.5359 107.552 24.15 114.098 30.2953 120.2C38.1963 128.045 47.1084 134.618 55.8139 141.459C63.8413 147.77 72.622 152.965 81.4112 158.044C91.6009 163.931 102.117 169.291 113.307 173.176C117.668 174.689 121.943 176.444 126.288 177.997H118.602C115.95 176.981 113.294 175.964 110.592 175.082C104.371 173.059 98.5028 170.257 92.6769 167.397ZM160.312 171.734C160.293 172.596 160.152 173.557 161.182 174.382C161.981 170.294 162.833 166.382 163.499 162.442C164.685 155.425 165.878 148.407 166.838 141.363C167.674 135.247 168.189 129.094 168.845 122.958C169.59 115.989 170.446 109.028 171.043 102.05C171.525 96.449 171.686 90.8297 172.005 85.2189C172.497 76.5198 173.018 67.8206 173.501 59.13C174.157 47.3121 174.232 35.5195 173.182 23.7524C172.726 18.6414 172.686 13.4795 171.645 7.88562C170.862 8.76147 170.22 9.30188 169.798 9.97951C165.847 16.3666 162.427 23.063 159.574 30.0019C156.258 38.0065 153.038 46.0466 151.404 54.5882C149.759 63.1738 148.891 71.8305 148.264 80.5314C147.641 89.2017 150.143 97.2808 151.537 105.58C151.971 108.17 152.597 110.733 152.86 113.344C153.726 121.899 155.764 130.219 157.05 138.686C157.825 143.768 158.387 148.881 159.115 153.968C159.962 159.845 160.442 165.757 160.319 171.734H160.312ZM157.895 175.707C157.564 165.324 156.69 154.965 155.277 144.671C154.206 136.751 152.286 129.009 151.369 121.086C150.476 113.359 148.869 105.785 147.704 98.1193C146.891 92.7779 145.526 87.6736 141.924 83.4198C139.829 80.9447 138.285 77.9987 136.297 75.3881C132.648 70.6006 128.015 66.8347 123.753 62.6825C118.687 57.7476 113.109 53.4294 107.681 48.9265C102.665 44.7642 97.3977 40.9829 91.6999 37.8218C86.4241 34.8978 81.1686 31.9382 75.8722 29.0515C73.1936 27.5565 70.2695 26.5431 67.2351 26.0581C68.9567 29.0295 70.7484 31.9603 72.3863 34.9808C75.8757 41.4183 79.8928 47.5408 83.1072 54.1562C84.9723 57.995 87.5479 61.4407 89.4522 65.2965C90.8972 68.234 92.6461 71.0123 94.2038 73.8939C97.8486 80.633 101.206 87.55 105.148 94.101C109.972 102.122 114.57 110.29 119.719 118.106C122.623 122.528 125.239 127.163 127.917 131.74C133.461 141.2 139.429 150.375 145.275 159.645C149.128 165.744 152.693 172.049 157.257 177.841C158.001 177.216 157.924 176.427 157.902 175.707H157.895ZM103.176 122.147C109.731 130.878 116.433 139.508 123.811 147.526C132.027 156.45 140.806 164.817 149.584 173.174C149.803 173.381 150.165 173.432 150.79 173.694C149.465 170.555 147.629 168.119 146.039 165.563C139.186 154.551 132.133 143.658 125.333 132.608C122.611 128.186 120.004 123.688 117.22 119.304C114.377 114.826 111.343 110.461 108.751 105.833C104.675 98.548 99.9699 91.6751 96.2824 84.1482C93.5069 78.4781 90.1782 73.096 87.0902 67.5886C82.8442 60.0143 78.7348 52.352 74.2941 44.8997C71.3752 40.0038 68.2735 35.2214 65.7048 30.0849C64.6561 30.7168 65.2129 31.4588 65.3529 31.9925C68.0139 42.1265 69.809 52.5332 73.3974 62.3708C76.2685 70.2432 78.991 78.1749 82.342 85.8677C85.2831 92.617 88.2874 99.2984 92.1201 105.553C95.5924 111.225 99.1808 116.836 103.176 122.147Z"/>
</mask>
<path d="M92.6769 167.397C85.0355 163.645 77.8757 158.993 70.4256 154.883C65.0933 151.942 60.2768 148.318 55.3374 144.834C53.1444 143.285 50.8523 141.869 48.7549 140.202C44.6387 136.933 40.7548 133.356 36.5447 130.222C29.5608 125.026 23.9058 118.482 18.0987 112.096C14.085 107.681 10.845 102.643 7.87313 97.4637C5.69548 93.6707 3.3573 89.9047 2.25566 85.5594C1.40168 82.1848 2.74241 81.8189 5.44442 81.3411C5.86456 81.2666 6.32231 81.5275 6.76979 81.5597C10.5837 81.8206 14.4078 81.9798 18.2131 82.3271C28.2269 83.2436 38.075 84.8292 47.3237 88.9577C51.9232 91.0093 56.5825 92.9456 61.3016 94.7075C67.4213 96.9911 73.1293 100.044 78.6716 103.439C82.6563 105.88 86.6136 108.369 90.6683 110.893C91.0099 109.358 90.0142 108.553 89.4318 107.688C86.0158 102.605 83.4249 97.069 80.9927 91.4836C78.5145 85.7864 76.3026 79.952 74.1318 74.104C70.8133 65.1643 67.9097 56.1196 65.7355 46.8021C63.9268 39.0551 62.5826 31.1827 60.2256 23.5813C60.0726 23.027 59.9714 22.4599 59.9233 21.8872C59.7781 20.6489 60.5108 20.205 61.5612 20.244C62.1027 20.2643 62.6458 20.4811 63.1599 20.6811C66.8132 22.1075 70.4734 23.5186 74.1062 24.9976C78.3761 26.7391 82.2122 29.331 86.2874 31.4537C93.034 34.9898 99.4599 39.0974 105.493 43.7308C112.798 49.3077 119.83 55.22 126.436 61.6457C130.457 65.5556 134.765 69.1827 138.157 73.7059C140.645 77.0246 142.952 80.4822 145.342 83.8839C145.919 76.8908 146.563 70.1619 147.354 63.4177C148.213 55.9714 149.873 48.6376 152.307 41.542C154.222 35.9888 156.416 30.5305 158.719 25.1094C161.702 18.0806 165.52 11.533 169.609 5.13274C172.311 0.897525 173.858 0.939873 175.795 5.36143C177.926 10.2235 180.143 15.0533 181.998 20.0407V29.7885C180.29 24.1302 178.265 18.5008 175.663 13.2457C175.066 13.1847 174.958 13.5015 174.98 13.8285C175.291 18.97 175.465 24.1285 175.971 29.2446C177.006 39.748 176.654 50.2513 176.024 60.7919C175.552 68.688 175.265 76.5909 174.867 84.4904C174.435 93.0642 173.885 101.628 173.148 110.195C172.282 120.236 170.982 130.238 170.112 140.277C169.6 146.192 168.521 152.078 167.581 157.961C166.574 164.28 165.431 170.582 164.346 176.891L164.915 177.255C167.136 174.057 169.54 170.968 171.539 167.636C175.476 161.109 178.971 154.329 182 147.341V153.308C179.49 158.751 176.625 164.026 173.421 169.098C171.498 172.114 169.414 175.027 167.411 177.992H151.023C149.315 176.266 147.607 174.529 145.849 172.864C139.238 166.623 132.556 160.472 126.293 153.845C121.743 149.028 117.299 144.153 113.085 139.03C108.235 133.131 103.333 127.278 98.9588 120.996C97.2402 118.51 94.9681 116.45 92.3182 114.974C88.4223 112.771 84.7229 110.215 80.8612 107.943C76.1199 105.153 71.0251 103.075 66.0293 100.794C60.1265 98.099 54.3451 95.1445 48.4372 92.456C44.4713 90.6484 40.2595 89.4287 36.0169 88.4597C31.2107 87.3602 26.4182 86.132 21.4788 85.6339C18.0253 85.2951 14.5854 84.7141 10.6896 85.0698C12.6691 87.8176 15.2396 89.5659 17.5692 91.4904C25.0843 97.6924 32.5583 103.971 40.3961 109.741C45.2416 113.309 49.8924 117.166 55.1017 120.275C59.1223 122.673 62.7278 125.78 66.4665 128.64C71.1924 132.253 76.2651 135.345 81.2301 138.593C87.5137 142.699 93.8861 146.674 100.269 150.621C104.262 153.091 108.163 155.717 112.436 157.726C117.731 160.211 122.343 163.845 127.431 166.684C134.358 170.553 140.99 174.977 148.519 177.989H141.994C135.926 174.741 130.182 171.228 124.392 167.802C117.261 163.584 110.026 159.549 102.826 155.452C96.0177 151.58 89.5035 147.18 82.8305 143.085C74.9072 138.22 67.247 132.958 59.773 127.437C54.0188 123.188 47.8173 119.595 42.222 115.118C34.6215 109.044 26.8025 103.259 19.1525 97.2418C15.214 94.1484 11.4393 90.8416 7.0533 87.1823C8.60242 92.5085 11.2242 96.4219 13.7724 100.301C18.5359 107.552 24.15 114.098 30.2953 120.2C38.1963 128.045 47.1084 134.618 55.8139 141.459C63.8413 147.77 72.622 152.965 81.4112 158.044C91.6009 163.931 102.117 169.291 113.307 173.176C117.668 174.689 121.943 176.444 126.288 177.997H118.602C115.95 176.981 113.294 175.964 110.592 175.082C104.371 173.059 98.5028 170.257 92.6769 167.397ZM160.312 171.734C160.293 172.596 160.152 173.557 161.182 174.382C161.981 170.294 162.833 166.382 163.499 162.442C164.685 155.425 165.878 148.407 166.838 141.363C167.674 135.247 168.189 129.094 168.845 122.958C169.59 115.989 170.446 109.028 171.043 102.05C171.525 96.449 171.686 90.8297 172.005 85.2189C172.497 76.5198 173.018 67.8206 173.501 59.13C174.157 47.3121 174.232 35.5195 173.182 23.7524C172.726 18.6414 172.686 13.4795 171.645 7.88562C170.862 8.76147 170.22 9.30188 169.798 9.97951C165.847 16.3666 162.427 23.063 159.574 30.0019C156.258 38.0065 153.038 46.0466 151.404 54.5882C149.759 63.1738 148.891 71.8305 148.264 80.5314C147.641 89.2017 150.143 97.2808 151.537 105.58C151.971 108.17 152.597 110.733 152.86 113.344C153.726 121.899 155.764 130.219 157.05 138.686C157.825 143.768 158.387 148.881 159.115 153.968C159.962 159.845 160.442 165.757 160.319 171.734H160.312ZM157.895 175.707C157.564 165.324 156.69 154.965 155.277 144.671C154.206 136.751 152.286 129.009 151.369 121.086C150.476 113.359 148.869 105.785 147.704 98.1193C146.891 92.7779 145.526 87.6736 141.924 83.4198C139.829 80.9447 138.285 77.9987 136.297 75.3881C132.648 70.6006 128.015 66.8347 123.753 62.6825C118.687 57.7476 113.109 53.4294 107.681 48.9265C102.665 44.7642 97.3977 40.9829 91.6999 37.8218C86.4241 34.8978 81.1686 31.9382 75.8722 29.0515C73.1936 27.5565 70.2695 26.5431 67.2351 26.0581C68.9567 29.0295 70.7484 31.9603 72.3863 34.9808C75.8757 41.4183 79.8928 47.5408 83.1072 54.1562C84.9723 57.995 87.5479 61.4407 89.4522 65.2965C90.8972 68.234 92.6461 71.0123 94.2038 73.8939C97.8486 80.633 101.206 87.55 105.148 94.101C109.972 102.122 114.57 110.29 119.719 118.106C122.623 122.528 125.239 127.163 127.917 131.74C133.461 141.2 139.429 150.375 145.275 159.645C149.128 165.744 152.693 172.049 157.257 177.841C158.001 177.216 157.924 176.427 157.902 175.707H157.895ZM103.176 122.147C109.731 130.878 116.433 139.508 123.811 147.526C132.027 156.45 140.806 164.817 149.584 173.174C149.803 173.381 150.165 173.432 150.79 173.694C149.465 170.555 147.629 168.119 146.039 165.563C139.186 154.551 132.133 143.658 125.333 132.608C122.611 128.186 120.004 123.688 117.22 119.304C114.377 114.826 111.343 110.461 108.751 105.833C104.675 98.548 99.9699 91.6751 96.2824 84.1482C93.5069 78.4781 90.1782 73.096 87.0902 67.5886C82.8442 60.0143 78.7348 52.352 74.2941 44.8997C71.3752 40.0038 68.2735 35.2214 65.7048 30.0849C64.6561 30.7168 65.2129 31.4588 65.3529 31.9925C68.0139 42.1265 69.809 52.5332 73.3974 62.3708C76.2685 70.2432 78.991 78.1749 82.342 85.8677C85.2831 92.617 88.2874 99.2984 92.1201 105.553C95.5924 111.225 99.1808 116.836 103.176 122.147Z" fill="#185951"/>
<path d="M92.6769 167.397C85.0355 163.645 77.8757 158.993 70.4256 154.883C65.0933 151.942 60.2768 148.318 55.3374 144.834C53.1444 143.285 50.8523 141.869 48.7549 140.202C44.6387 136.933 40.7548 133.356 36.5447 130.222C29.5608 125.026 23.9058 118.482 18.0987 112.096C14.085 107.681 10.845 102.643 7.87313 97.4637C5.69548 93.6707 3.3573 89.9047 2.25566 85.5594C1.40168 82.1848 2.74241 81.8189 5.44442 81.3411C5.86456 81.2666 6.32231 81.5275 6.76979 81.5597C10.5837 81.8206 14.4078 81.9798 18.2131 82.3271C28.2269 83.2436 38.075 84.8292 47.3237 88.9577C51.9232 91.0093 56.5825 92.9456 61.3016 94.7075C67.4213 96.9911 73.1293 100.044 78.6716 103.439C82.6563 105.88 86.6136 108.369 90.6683 110.893C91.0099 109.358 90.0142 108.553 89.4318 107.688C86.0158 102.605 83.4249 97.069 80.9927 91.4836C78.5145 85.7864 76.3026 79.952 74.1318 74.104C70.8133 65.1643 67.9097 56.1196 65.7355 46.8021C63.9268 39.0551 62.5826 31.1827 60.2256 23.5813C60.0726 23.027 59.9714 22.4599 59.9233 21.8872C59.7781 20.6489 60.5108 20.205 61.5612 20.244C62.1027 20.2643 62.6458 20.4811 63.1599 20.6811C66.8132 22.1075 70.4734 23.5186 74.1062 24.9976C78.3761 26.7391 82.2122 29.331 86.2874 31.4537C93.034 34.9898 99.4599 39.0974 105.493 43.7308C112.798 49.3077 119.83 55.22 126.436 61.6457C130.457 65.5556 134.765 69.1827 138.157 73.7059C140.645 77.0246 142.952 80.4822 145.342 83.8839C145.919 76.8908 146.563 70.1619 147.354 63.4177C148.213 55.9714 149.873 48.6376 152.307 41.542C154.222 35.9888 156.416 30.5305 158.719 25.1094C161.702 18.0806 165.52 11.533 169.609 5.13274C172.311 0.897525 173.858 0.939873 175.795 5.36143C177.926 10.2235 180.143 15.0533 181.998 20.0407V29.7885C180.29 24.1302 178.265 18.5008 175.663 13.2457C175.066 13.1847 174.958 13.5015 174.98 13.8285C175.291 18.97 175.465 24.1285 175.971 29.2446C177.006 39.748 176.654 50.2513 176.024 60.7919C175.552 68.688 175.265 76.5909 174.867 84.4904C174.435 93.0642 173.885 101.628 173.148 110.195C172.282 120.236 170.982 130.238 170.112 140.277C169.6 146.192 168.521 152.078 167.581 157.961C166.574 164.28 165.431 170.582 164.346 176.891L164.915 177.255C167.136 174.057 169.54 170.968 171.539 167.636C175.476 161.109 178.971 154.329 182 147.341V153.308C179.49 158.751 176.625 164.026 173.421 169.098C171.498 172.114 169.414 175.027 167.411 177.992H151.023C149.315 176.266 147.607 174.529 145.849 172.864C139.238 166.623 132.556 160.472 126.293 153.845C121.743 149.028 117.299 144.153 113.085 139.03C108.235 133.131 103.333 127.278 98.9588 120.996C97.2402 118.51 94.9681 116.45 92.3182 114.974C88.4223 112.771 84.7229 110.215 80.8612 107.943C76.1199 105.153 71.0251 103.075 66.0293 100.794C60.1265 98.099 54.3451 95.1445 48.4372 92.456C44.4713 90.6484 40.2595 89.4287 36.0169 88.4597C31.2107 87.3602 26.4182 86.132 21.4788 85.6339C18.0253 85.2951 14.5854 84.7141 10.6896 85.0698C12.6691 87.8176 15.2396 89.5659 17.5692 91.4904C25.0843 97.6924 32.5583 103.971 40.3961 109.741C45.2416 113.309 49.8924 117.166 55.1017 120.275C59.1223 122.673 62.7278 125.78 66.4665 128.64C71.1924 132.253 76.2651 135.345 81.2301 138.593C87.5137 142.699 93.8861 146.674 100.269 150.621C104.262 153.091 108.163 155.717 112.436 157.726C117.731 160.211 122.343 163.845 127.431 166.684C134.358 170.553 140.99 174.977 148.519 177.989H141.994C135.926 174.741 130.182 171.228 124.392 167.802C117.261 163.584 110.026 159.549 102.826 155.452C96.0177 151.58 89.5035 147.18 82.8305 143.085C74.9072 138.22 67.247 132.958 59.773 127.437C54.0188 123.188 47.8173 119.595 42.222 115.118C34.6215 109.044 26.8025 103.259 19.1525 97.2418C15.214 94.1484 11.4393 90.8416 7.0533 87.1823C8.60242 92.5085 11.2242 96.4219 13.7724 100.301C18.5359 107.552 24.15 114.098 30.2953 120.2C38.1963 128.045 47.1084 134.618 55.8139 141.459C63.8413 147.77 72.622 152.965 81.4112 158.044C91.6009 163.931 102.117 169.291 113.307 173.176C117.668 174.689 121.943 176.444 126.288 177.997H118.602C115.95 176.981 113.294 175.964 110.592 175.082C104.371 173.059 98.5028 170.257 92.6769 167.397ZM160.312 171.734C160.293 172.596 160.152 173.557 161.182 174.382C161.981 170.294 162.833 166.382 163.499 162.442C164.685 155.425 165.878 148.407 166.838 141.363C167.674 135.247 168.189 129.094 168.845 122.958C169.59 115.989 170.446 109.028 171.043 102.05C171.525 96.449 171.686 90.8297 172.005 85.2189C172.497 76.5198 173.018 67.8206 173.501 59.13C174.157 47.3121 174.232 35.5195 173.182 23.7524C172.726 18.6414 172.686 13.4795 171.645 7.88562C170.862 8.76147 170.22 9.30188 169.798 9.97951C165.847 16.3666 162.427 23.063 159.574 30.0019C156.258 38.0065 153.038 46.0466 151.404 54.5882C149.759 63.1738 148.891 71.8305 148.264 80.5314C147.641 89.2017 150.143 97.2808 151.537 105.58C151.971 108.17 152.597 110.733 152.86 113.344C153.726 121.899 155.764 130.219 157.05 138.686C157.825 143.768 158.387 148.881 159.115 153.968C159.962 159.845 160.442 165.757 160.319 171.734H160.312ZM157.895 175.707C157.564 165.324 156.69 154.965 155.277 144.671C154.206 136.751 152.286 129.009 151.369 121.086C150.476 113.359 148.869 105.785 147.704 98.1193C146.891 92.7779 145.526 87.6736 141.924 83.4198C139.829 80.9447 138.285 77.9987 136.297 75.3881C132.648 70.6006 128.015 66.8347 123.753 62.6825C118.687 57.7476 113.109 53.4294 107.681 48.9265C102.665 44.7642 97.3977 40.9829 91.6999 37.8218C86.4241 34.8978 81.1686 31.9382 75.8722 29.0515C73.1936 27.5565 70.2695 26.5431 67.2351 26.0581C68.9567 29.0295 70.7484 31.9603 72.3863 34.9808C75.8757 41.4183 79.8928 47.5408 83.1072 54.1562C84.9723 57.995 87.5479 61.4407 89.4522 65.2965C90.8972 68.234 92.6461 71.0123 94.2038 73.8939C97.8486 80.633 101.206 87.55 105.148 94.101C109.972 102.122 114.57 110.29 119.719 118.106C122.623 122.528 125.239 127.163 127.917 131.74C133.461 141.2 139.429 150.375 145.275 159.645C149.128 165.744 152.693 172.049 157.257 177.841C158.001 177.216 157.924 176.427 157.902 175.707H157.895ZM103.176 122.147C109.731 130.878 116.433 139.508 123.811 147.526C132.027 156.45 140.806 164.817 149.584 173.174C149.803 173.381 150.165 173.432 150.79 173.694C149.465 170.555 147.629 168.119 146.039 165.563C139.186 154.551 132.133 143.658 125.333 132.608C122.611 128.186 120.004 123.688 117.22 119.304C114.377 114.826 111.343 110.461 108.751 105.833C104.675 98.548 99.9699 91.6751 96.2824 84.1482C93.5069 78.4781 90.1782 73.096 87.0902 67.5886C82.8442 60.0143 78.7348 52.352 74.2941 44.8997C71.3752 40.0038 68.2735 35.2214 65.7048 30.0849C64.6561 30.7168 65.2129 31.4588 65.3529 31.9925C68.0139 42.1265 69.809 52.5332 73.3974 62.3708C76.2685 70.2432 78.991 78.1749 82.342 85.8677C85.2831 92.617 88.2874 99.2984 92.1201 105.553C95.5924 111.225 99.1808 116.836 103.176 122.147Z" stroke="#185951" stroke-width="3" mask="url(#path-1-outside-1)"/>
</g>
</svg>
