<svg width="146" height="201" viewBox="0 0 146 201" fill="none" xmlns="http://www.w3.org/2000/svg">
<path d="M135.418 27.123C136.212 26.7437 136.673 26.207 136.901 25.4887C137.053 24.9985 136.966 24.3476 137.262 24.0088C137.647 23.5651 137.43 23.0803 137.635 22.7028C137.928 22.1654 137.722 21.8544 137.443 21.4253C137.237 21.1142 137.315 20.6834 137.918 20.6444C137.735 20.3683 137.568 20.1185 137.381 19.838C137.533 19.8294 137.657 19.7812 137.693 19.8212C138.286 20.4405 138.775 21.1048 138.343 22.0317C138.305 22.1225 138.219 22.2235 138.231 22.3086C138.589 24.3428 138.366 24.5841 137.727 26.8513C137.561 27.4421 137.77 28.0785 137.345 28.6383C136.704 29.4736 136.62 30.6475 135.761 31.3738C135.665 31.453 135.723 31.6885 135.649 31.8112C135.242 32.5072 135.21 33.4262 134.412 33.8813C134.305 34.6991 133.673 35.2054 133.298 35.8482C132.766 36.7611 131.807 37.4102 131.612 38.5316C131.582 38.7031 131.315 38.8238 131.18 38.9854C130.821 39.4136 130.255 39.6194 130.113 40.3171C130.01 40.8268 129.221 40.9529 129.116 41.6737C129.05 42.1178 128.435 42.3759 128.137 42.8454C127.595 43.6945 126.944 44.4743 126.487 45.3914C126.228 45.9137 125.879 45.4429 125.5 45.3843C125.544 45.7372 125.585 46.0774 125.649 46.6046C125.512 46.7281 125.157 46.9284 124.998 47.2323C124.862 47.4911 124.963 47.8725 124.912 48.1907C124.838 48.6428 124.746 49.1025 124.601 49.5381C124.565 49.6502 124.319 49.6875 124.298 49.699C124.292 50.4252 124.292 51.139 124.284 51.9073C124.036 51.9149 123.887 51.9533 123.762 51.9212C123.622 51.8798 123.51 51.7639 123.283 51.6164C123.231 51.8797 123.184 52.0587 123.166 52.2352C123.148 52.4116 123.168 52.5858 123.167 52.7632C122.942 52.7172 122.718 52.6797 122.427 52.6216C122.425 53.1283 121.739 53.6022 122.352 54.2521C122.512 53.9947 122.605 53.6788 122.809 53.5589C123.052 53.4116 123.391 53.4342 123.832 53.3568C123.778 53.6706 123.801 54.0183 123.661 54.281C123.259 55.0447 123.144 55.8453 123.179 56.6877C123.202 57.3563 123.104 58.0056 122.804 58.5004C122.961 58.6314 123.081 58.7309 123.206 58.8348C122.75 59.2704 122.915 59.8031 122.992 60.3184C123.013 60.4674 123.122 60.6254 123.095 60.7548C122.859 61.705 122.964 62.6441 123.196 63.5648C123.341 64.1471 123.327 64.6321 122.729 65.0516C122.93 65.0625 122.985 65.0612 123.039 65.0684C123.548 65.1467 123.256 65.8025 123.673 65.9476C123.698 67.0303 124.413 68.0363 124.017 69.0834C124.444 69.4191 124.819 69.7225 125.391 70.1759C125.019 70.2148 124.896 70.2293 124.706 70.2486C124.981 70.538 124.524 71.1425 125.312 71.2571C125.633 71.3041 126.091 71.8527 126.106 72.1915C126.141 72.7847 126.535 73.0384 126.832 73.3797C127.932 74.6475 128.942 76.0285 130.199 77.1063C132.111 78.7475 133.682 80.6955 135.422 82.4922C135.872 82.9601 136.61 83.1438 136.954 83.7707C137.1 84.032 137.11 84.3832 137.297 84.5918C137.483 84.8004 137.828 84.8572 138.076 85.0185C138.579 85.3583 138.591 86.0602 138.962 86.4393C139.715 87.2025 140.138 88.1673 140.77 88.9999C140.837 89.0838 140.967 89.1585 140.979 89.2436C141.064 90.5618 141.973 91.5446 142.41 92.7214C143.185 94.7951 143.917 96.8834 144.386 99.0249C144.889 101.32 145.503 103.66 144.756 106.056C144.665 106.356 144.904 106.757 144.836 107.074C144.768 107.4 144.405 107.672 144.354 107.999C144.245 108.69 144.253 109.404 144.206 110.271C143.529 110.594 143.185 111.377 143.103 112.197C142.997 113.302 142.102 114.094 142.103 115.238C142.105 116.151 141.756 117.01 141.358 117.842C140.947 118.702 140.625 119.601 140.206 120.453C139.918 121.033 139.868 121.727 139.325 122.217C139.197 122.333 139.662 122.915 139.11 123.245C138.845 123.403 138.638 123.815 138.592 124.137C138.5 124.74 138.037 124.998 137.681 125.376C137.146 125.938 136.38 126.285 136.165 127.152C136.111 127.369 135.813 127.598 135.578 127.682C135.261 127.8 134.825 127.616 134.8 128.231C134.798 128.362 134.322 128.446 134.108 128.607C132.886 129.534 131.542 130.073 129.985 129.963C129.558 129.932 129.207 129.967 128.813 130.267C128.349 130.614 127.729 130.901 127.164 130.921C126.546 130.942 126.186 131.468 125.601 131.482C125.314 131.492 125.009 131.784 124.755 131.732C123.524 131.496 122.455 132.156 121.293 132.292C120.996 132.808 120.488 132.024 120.456 132.293C120.387 132.876 120.038 132.646 119.804 132.625C119.462 132.589 119.124 132.461 118.722 132.359C118.615 132.632 118.503 132.909 118.303 133.426C117.954 133.356 117.488 133.12 117.125 133.223C116.557 133.39 115.814 132.843 115.375 133.655C115.314 133.775 114.815 133.672 114.519 133.643C114.38 133.631 114.139 133.512 114.134 133.533C113.727 134.373 112.734 133.858 112.193 134.378C112.127 134.446 112.005 134.524 111.926 134.507C111.004 134.305 110.243 134.792 109.414 135.042C108.731 135.25 107.973 135.205 107.31 135.266C107.181 134.925 107.085 134.675 106.963 134.36C106.933 134.933 106.908 135.388 106.89 135.725C105.718 136.109 104.796 136.692 103.59 136.306C103.726 136.584 103.805 136.753 103.938 137.017C103.58 137.036 103.198 136.948 102.939 137.086C102.541 137.301 102.284 137.772 101.723 137.733C101.665 137.73 101.611 138.099 101.51 138.271C101.44 138.39 101.189 138.537 101.189 138.537C100.688 137.931 100.388 138.666 99.9906 138.704C99.733 138.728 99.4725 138.65 99.151 138.612C99.4745 139.081 99.4083 139.454 99.1459 139.803C98.9652 140.038 98.7802 140.429 98.5734 140.447C97.9784 140.495 97.8122 140.773 97.6488 141.314C97.546 141.663 97.0499 141.902 96.6834 142.233C96.4248 142.354 96.0722 141.566 95.8332 142.182C95.6526 142.65 96.1593 142.681 96.4963 142.666C96.2506 143.641 95.5503 142.365 95.2039 143.103C95.0522 143.424 94.4743 143.545 94.0934 143.752C94.2926 144.502 94.9628 143.993 95.3042 144.286C95.542 144.553 95.5033 145.036 95.1884 145.112C94.899 145.181 94.6435 145.243 94.7613 145.554C94.7947 145.636 95.2728 145.573 95.1343 145.963C95.0462 146.194 94.888 146.401 94.759 146.614C94.225 147.48 93.9393 148.419 94.053 149.431C94.1388 150.179 94.3429 150.916 94.4963 151.659C94.6496 152.403 94.8537 153.14 94.9267 153.892C94.9702 154.333 94.7857 154.797 94.7114 155.24C95.2239 155.243 95.44 155.521 95.5433 156.101C95.7569 157.286 96.2453 158.441 96.3371 159.624C96.4078 160.498 96.5738 161.318 96.7764 162.161C96.979 163.004 97.0113 163.889 97.112 164.752C97.1238 164.845 97.0848 164.944 97.071 165.045C96.5273 164.686 95.9836 164.327 95.4399 163.968C95.3957 164.008 95.3471 164.052 95.303 164.092C95.4192 164.275 95.5088 164.483 95.6564 164.63C95.8039 164.778 96.0093 164.865 96.1922 164.98C95.7198 165.326 96.4411 166.134 95.5548 166.365C95.9352 166.791 96.276 167.173 96.7754 167.732C96.7166 166.871 96.6734 166.189 96.6223 165.498C97.4681 165.552 97.1155 166.407 97.4647 166.79C97.1086 168.177 97.9832 169.415 97.9447 170.837C97.6267 171.124 97.2779 171.438 96.8849 171.793C97.091 172.024 97.2614 172.215 97.523 172.508C97.1801 172.633 96.9401 172.721 96.5756 172.857C96.7697 173.155 96.929 173.396 97.131 173.703C96.9144 174.058 96.6299 174.427 96.4609 174.836C96.3494 175.113 96.4842 175.496 96.3485 175.755C96.2079 176.026 95.8874 176.203 95.649 176.418C95.6137 176.45 95.5647 176.502 95.5624 176.545C95.5458 177.714 94.9196 178.655 94.3449 179.655C94.2946 179.652 94.1165 179.604 93.9674 179.643C93.7415 179.702 93.5336 179.818 93.3104 179.907C93.5024 180.086 93.7028 180.266 93.9067 180.459C92.9429 181.897 92.9429 181.897 92.2723 182.102C92.4488 182.648 92.5558 183.08 92.0549 183.644C91.0267 184.796 90.2067 186.137 89.0296 187.167C88.7695 187.394 88.9115 188.035 88.3022 187.88C88.4729 188.535 87.7254 188.136 87.6456 188.448C87.5392 188.865 87.5183 189.332 86.8769 189.15C86.6804 189.599 86.48 190.045 86.2792 190.498C85.884 190.502 85.4147 190.244 85.266 190.98C85.2029 191.293 84.7611 191.539 84.4027 191.093C84.4027 191.093 84.2297 191.185 84.2319 191.223C84.31 191.802 83.3533 191.311 83.505 191.927C83.5397 192.064 83.6551 192.185 83.6942 192.237C83.2669 192.214 82.8061 192.189 82.1442 192.153C82.4372 192.642 82.5917 192.896 82.8544 193.324C82.48 193.253 82.1677 193.278 81.9734 193.141C81.654 192.908 81.4417 193.028 81.3809 193.299C81.3028 193.658 81.6106 193.717 81.8964 193.715C81.9383 193.718 81.9832 193.741 82.0617 193.767C81.823 194.455 81.2463 194.005 80.9291 194.123C80.4269 195.338 79.5064 196.048 78.3975 196.512C77.5679 196.859 76.7846 197.518 75.7611 197.095C75.6461 197.046 75.6787 197.69 75.2309 197.501C75.2734 197.727 75.3203 197.949 75.3798 198.248C74.9782 198.138 74.5973 198.033 74.1666 197.916C74.0516 198.18 73.9797 198.502 73.792 198.711C73.7204 198.792 73.1889 198.518 73.166 198.555C72.7609 199.369 72.0436 199.191 71.3958 199.126C70.7062 199.059 70.0819 199.262 69.4601 199.494C68.6673 198.767 68.145 199.494 67.378 200.162C67.5757 199.455 67.6754 199.084 67.7796 198.71C67.5785 198.699 67.3646 198.692 67.0714 198.676C67.1081 198.931 67.1487 199.191 67.1798 199.395C67.0103 199.5 66.9475 199.573 66.88 199.578C65.8868 199.608 64.8805 199.57 63.8955 199.682C63.473 199.726 63.2538 199.115 62.7337 199.488C62.5761 199.606 61.9066 199.32 61.7403 199.054C61.4657 198.612 61.2708 198.563 60.7741 198.659C60.2606 198.754 59.692 198.545 59.1453 198.478C57.464 198.255 55.729 198.562 54.0799 197.974C52.7171 198.395 51.4913 197.593 50.1807 197.509C49.1673 197.446 48.3371 196.632 47.2685 196.658C47.1675 196.661 47.032 196.447 46.947 196.307C46.6298 195.8 46.1832 195.666 45.5963 195.643C44.5017 195.604 43.5901 194.976 42.7031 194.438C41.8892 193.946 40.8535 193.751 40.3101 192.838C39.3268 192.684 38.6466 191.895 37.7636 191.593C37.2602 191.422 37.4023 191.046 37.2063 190.862C36.8984 190.571 36.3935 190.505 35.9973 190.294C35.5029 190.035 34.9699 189.866 34.6112 189.348C34.3616 188.988 34.133 188.473 33.5124 188.528C33.4577 188.53 33.3974 188.167 33.2927 188.005C33.1959 187.852 33.0242 187.606 32.9183 187.622C32.329 187.721 32.2648 187.274 31.9975 186.93C31.6678 186.498 31.0961 186.268 30.6967 185.883C30.2289 185.44 29.8552 184.887 29.3831 184.448C28.8189 183.923 28.5382 183.046 27.6242 182.933C27.8182 181.981 26.8261 181.834 26.4259 181.305C26.0967 180.865 25.8787 180.308 25.4117 179.928C25.1421 179.707 25.2474 179.155 24.8641 178.859C24.5293 178.601 24.3032 178.195 23.9821 177.916C23.7174 177.682 23.9012 177.075 23.3027 177.111C23.2648 177.113 23.1265 176.636 23.1643 176.402C23.2164 176.058 23.3853 175.73 23.523 175.357C23.0483 175.433 22.6628 175.492 22.3747 175.535C22.0099 174.975 21.7469 174.475 21.396 174.046C20.7809 173.295 19.9615 172.672 19.4934 171.844C18.8071 170.62 17.7291 169.725 17.022 168.575C16.3496 167.483 15.4945 166.507 14.9396 165.341C14.8982 165.25 14.8317 165.158 14.8283 165.065C14.8099 164.705 15.0513 164.278 14.3806 164.17C14.1932 164.139 14.1655 163.483 13.9289 163.271C13.5083 162.89 13.4393 162.375 13.1947 161.922C12.7275 161.077 12.4231 160.174 11.854 159.349C11.3197 158.581 11.0181 157.627 10.4348 156.831C10.0276 156.276 9.86055 155.553 9.55845 154.92C9.01447 153.784 8.29795 152.732 7.85372 151.537C6.94726 149.093 5.80825 146.755 5.12111 144.217C4.7986 143.025 4.47392 141.796 3.99833 140.638C3.6858 139.886 3.62565 139.051 3.49485 138.279C3.03755 135.686 1.86957 133.262 1.76915 130.595C0.768029 128.036 1.13655 125.243 0.385547 122.643C0.841474 121.743 0.286964 120.88 0.292591 119.994C0.298673 119.099 0.321965 118.196 0.20101 117.319C-0.0649174 115.387 0.302449 113.477 0.275545 111.554C0.265552 110.801 0.14969 110.064 0.739797 109.404C0.497719 109.374 0.351778 109.353 0.185108 109.327C0.355735 106.152 0.426731 102.954 0.744209 99.7822C0.91229 98.1399 0.984689 96.4797 1.22331 94.8538C1.59199 92.2931 2.0647 89.7508 2.62518 87.2174C3.61744 82.7477 5.1995 78.4831 6.9292 74.2857C8.18544 71.2368 9.71718 68.3 11.2894 65.3907C12.7684 62.6538 14.2958 59.9533 15.8316 57.2533C16.3793 56.2862 17.0329 55.384 17.6538 54.4632C18.1925 53.6646 18.7756 52.898 19.298 52.0901C19.793 51.3229 20.4409 50.6823 20.8804 49.8529C21.2032 49.2411 21.8913 48.8687 22.2437 48.1741C22.5825 47.4998 23.2931 47.0189 23.6773 46.3597C24.0252 45.7492 24.6706 45.3112 24.7576 44.5515C25.6734 43.7733 26.1697 42.6683 26.9237 41.7716C27.6866 40.8669 28.2755 39.8387 28.9647 38.8963C29.5997 38.0269 30.47 37.2336 30.7327 36.099C31.9225 35.1457 32.545 33.7265 33.5587 32.6116C34.6306 31.428 35.4383 30.002 36.6953 28.9721C37.032 27.8668 38.1827 27.4859 38.7704 26.635C40.0648 24.7539 41.9192 23.4735 43.5394 21.9395C45.1464 20.4175 46.845 18.9892 48.4563 17.4632C49.0759 16.8802 49.8023 16.4973 50.5063 16.0625C51.2103 15.6277 51.6027 14.7367 52.5519 14.6657C53.1131 13.8388 54.1422 13.6877 54.8483 13.0586C55.2987 12.6523 55.8373 12.2465 56.4037 12.1041C57.5706 11.8126 58.4494 11.0198 59.5001 10.5447C60.5508 10.0695 61.6921 9.78519 62.6298 9.0674C62.9955 9.29844 63.3749 8.57142 63.7636 9.07827C63.7989 9.12664 64.0745 9.07827 64.1549 8.98971C65.2091 7.90232 66.6783 7.77091 67.984 7.24204C69.6547 6.56826 71.3552 5.96368 73.056 5.43092C75.0988 4.79003 76.9936 3.69759 79.195 3.46656C80.4543 3.3322 81.66 2.70924 82.8985 2.33723C83.9745 2.01552 85.1146 1.98871 86.1792 1.72551C86.8559 1.56374 87.7178 2.10051 88.2287 1.27084C88.8996 1.21857 89.5691 1.19154 90.2374 1.10957C90.9396 1.02098 91.6427 0.915554 92.3358 0.763115C94.8407 0.202215 97.3739 0.128608 99.9264 0.246091C100.865 0.288618 101.826 0.0789365 102.748 0.200808C105.684 0.605219 108.652 0.821268 111.531 1.58162C112.355 1.79956 113.163 2.08842 113.957 2.40606C115.121 2.87053 116.349 3.08501 117.479 3.70814C119.328 4.73351 121.197 5.68397 122.863 7.04157C123.934 7.91911 125.016 8.80157 126.105 9.64632C127.348 10.6092 128.301 11.7845 129.329 12.9089C130.075 13.7266 130.928 14.3515 131.865 14.9008C132.215 15.1057 132.468 15.4869 132.781 15.7657C133.017 15.9771 133.281 16.1561 133.518 16.3591C134.1 16.8595 134.824 17.2325 134.938 18.1468C134.959 18.3127 135.582 18.3592 135.676 18.5713C135.943 19.1644 136.475 19.7255 136.061 20.4843C135.893 20.7878 135.81 21.1592 135.77 21.5076C135.63 22.7164 135.523 23.9271 135.411 25.1417C135.4 25.2804 135.364 25.4812 135.436 25.5443C135.974 26.0128 135.681 26.5248 135.418 27.123ZM24.9504 131.512C24.8766 132.26 24.6828 132.739 24.8372 132.992C25.4529 133.968 25.6348 135.038 25.9125 136.126C26.1797 137.175 26.6546 138.189 27.0015 139.239C27.3445 140.284 27.6967 141.392 28.3394 142.255C29.3347 143.593 29.8062 145.139 30.4794 146.608C31.1033 147.976 31.9342 149.246 32.3763 150.715C32.533 151.239 32.8896 151.718 33.2228 152.163C33.7251 152.824 34.2773 153.416 34.6551 154.205C35.0254 154.977 35.7107 155.593 36.1776 156.366C36.567 157.016 36.8849 157.747 37.4036 158.337C37.9183 158.923 38.2971 159.615 38.743 160.23C39.6814 161.532 40.3167 163.002 41.23 164.302C41.3432 164.464 41.6267 164.505 41.7274 164.663C41.8595 164.864 41.8785 165.135 41.9496 165.376C42.0097 165.586 42.0827 165.793 42.1587 166.021C42.3026 165.923 42.3816 165.86 42.4725 165.81C42.5158 165.787 42.6053 165.762 42.6088 165.775C43.0101 166.439 43.7166 166.739 44.2875 167.218C43.925 166.615 43.2221 166.167 43.0774 165.577C42.8919 164.806 42.0849 164.5 41.9957 163.892C41.8716 163.074 41.2065 162.784 40.8717 162.213C40.6446 161.825 40.5246 161.244 40.1932 161.078C39.8331 160.898 39.7306 160.774 39.5401 160.409C39.2208 159.783 38.9055 159.082 38.4409 158.579C37.3017 157.339 36.3974 155.951 35.6841 154.447C35.1406 153.302 34.4889 152.215 33.8672 151.117C33.2421 150.006 32.8398 148.814 32.2481 147.705C31.4471 146.192 30.8143 144.599 30.0265 143.073C29.5088 142.074 29.1672 140.923 28.68 139.904C28.2002 138.902 27.7067 137.921 27.3218 136.874C26.9488 135.84 26.5463 134.809 26.1089 133.801C25.8188 133.101 25.4417 132.455 24.9504 131.512ZM18.632 136.579C18.6396 136.829 18.6088 137.089 18.6715 137.329C19.0286 138.738 19.5908 140.082 19.8367 141.527C19.9517 142.201 20.3809 142.816 20.653 143.46C20.9066 144.056 20.9942 144.851 21.4325 145.217C22.0078 145.692 21.3743 146.768 22.3938 146.874C22.6629 148.122 23.3967 149.167 23.8639 150.324C24.1685 151.068 24.4642 151.819 24.8425 152.519C25.2288 153.229 25.5258 154.034 25.9766 154.638C26.4234 155.236 26.4728 156.194 27.4113 156.477C27.6388 156.544 27.9116 157.332 27.783 157.536C27.3667 158.168 27.6479 158.251 28.1749 158.296C28.0596 159.114 29.1494 159.317 29.0993 160.171C29.0785 160.559 29.4545 160.989 29.6944 161.374C29.9263 161.749 30.1804 161.713 30.3785 161.309C30.0946 160.884 29.6458 160.48 29.5657 160.015C29.4717 159.419 28.6539 159.235 28.8878 158.479C29.0043 158.109 28.2368 157.848 28.5061 157.292C28.5437 157.218 28.3601 157.039 28.3003 156.901C27.4217 155.033 26.3013 153.287 25.5392 151.362C25.2619 150.658 24.7674 150.086 24.5263 149.334C24.3173 148.689 23.9345 148.073 23.7144 147.398C23.4755 146.684 23.0433 146.048 22.7183 145.371C21.3269 142.491 20.2285 139.475 18.632 136.579ZM74.6389 97.172C74.8291 97.3851 74.9956 97.5715 75.162 97.758C75.3075 97.4744 75.4252 97.24 75.717 96.6561C75.8228 97.6587 75.8903 98.279 75.9621 98.9756C75.651 98.8235 75.3721 98.6183 75.3147 98.6701C75.1513 98.8175 75.0668 99.0621 74.9668 99.2806C74.8244 99.5854 75.503 99.9348 74.9284 100.229C75.1416 100.718 75.0009 101.382 75.6285 101.665C75.918 101.516 76.1992 101.366 76.5708 101.175C76.4157 102.341 76.4201 102.337 76.9338 103.725C76.9707 103.82 76.9948 103.919 77.0022 104.016C77.0507 104.678 77.0506 104.678 77.6525 104.736C77.5121 102.971 77.5121 102.971 76.8846 101.982C77.0809 101.925 77.2867 102.084 77.4054 101.673C77.5605 101.132 76.6287 101.035 77.0988 100.419C77.4832 99.9114 76.5419 99.7589 76.5685 99.3422C76.8298 99.1706 77.121 99.0681 77.2619 98.8688C77.4162 98.6575 77.4329 98.3459 77.4586 98.2586C77.123 97.9363 76.8552 97.681 76.531 97.3804C76.8313 97.1094 77.0212 96.9381 76.9814 96.974C77.0714 96.0032 76.2702 95.588 76.33 94.7887C76.3389 94.7005 76.1133 94.5996 75.9203 94.437C75.7695 94.7414 75.6558 94.9802 75.5337 95.2186C75.3332 95.119 75.153 95.0331 74.9727 94.9473C74.9006 95.1166 74.7292 95.3354 74.7819 95.4481C75.088 96.0856 74.8769 96.6528 74.6389 97.172ZM71.846 111.85C71.9099 111.6 72.0319 111.362 72.0279 111.125C72.0163 110.558 71.846 109.975 71.9217 109.425C72.0994 108.151 71.6222 106.947 71.6261 105.701C71.6257 105.316 70.8777 105.006 71.4795 104.519C71.2565 104.367 70.9304 104.261 70.8407 104.053C70.7106 103.738 71.0066 103.31 70.6445 103.012C70.5278 102.917 70.4075 102.809 70.2669 102.768C70.2008 102.747 70.0485 102.844 70.0277 102.919C70.0024 102.998 70.0671 103.124 70.1261 103.199C70.1925 103.292 70.3786 103.348 70.3789 103.42C70.3752 104.505 70.8624 105.524 70.7255 106.666C70.651 107.27 70.7748 108.016 70.9491 108.604C71.1014 109.132 71.2143 109.455 70.9992 110.017C70.7222 110.716 70.8436 111.504 71.846 111.85Z" fill="#185951"/>
</svg>
