<svg width="170" height="167" viewBox="0 0 170 167" fill="none" xmlns="http://www.w3.org/2000/svg">
<path d="M154.678 65.5732C153.763 65.2929 152.939 65.8335 152.396 65.1027C151.833 64.3418 151.36 63.561 151.37 62.5198C151.411 59.2462 151.421 55.9725 151.36 52.7088C151.34 51.948 151.632 51.3774 151.934 50.7467C152.738 49.0448 153.602 47.3828 154.829 45.9412C155.402 45.2705 156.065 44.7099 156.92 44.3796C157.372 44.2094 157.764 44.77 158.358 44.2294C158.83 43.7989 159.393 45.0102 160.107 44.9602C160.539 46.0414 159.644 46.5419 159.061 47.2127C159.805 47.5531 160.59 47.523 161.293 47.9435C161.977 48.3539 162.52 48.7244 162.359 49.5454C162.158 50.5565 162.992 50.9369 163.455 51.5476C163.254 51.8179 162.781 51.9981 162.932 52.4085C164.179 55.8124 163.274 58.135 162.178 60.9281C161.876 61.6989 161.424 62.62 161.384 63.2907C161.273 64.9225 160.157 66.1038 159.886 67.6255C159.685 68.7468 158.951 69.4375 157.654 69.3674C157.413 69.3574 157.201 69.9081 156.558 69.788C156.377 69.5977 155.824 69.2773 155.834 68.967C155.874 67.9558 155.744 67.175 154.708 66.6944C154.568 66.6544 154.678 66.0437 154.678 65.5732Z" fill="#185951"/>
<path d="M100.158 147.345C101.284 147.625 102.681 146.784 103.596 148.106C103.214 148.856 102.842 149.597 102.49 150.298C102.973 150.789 103.275 150.558 103.727 150.388C105.416 149.727 105.808 149.948 106.401 151.619C106.492 151.86 106.441 152.23 106.723 152.28C108.643 152.661 108.201 154.583 109.005 155.684C108.181 156.655 109.558 157.626 109.105 158.407C108.593 159.288 108.754 160.529 107.708 161.11C107.396 161.28 107.557 161.591 107.517 161.851C107.155 164.063 106.2 165.805 103.908 166.556C103.606 166.656 103.465 167.147 102.822 166.957C102.53 166.366 102.168 165.625 101.807 164.894C101.233 164.714 100.208 165.235 100.359 163.863C99.3535 163.863 98.3682 163.863 97.2221 163.863C97.021 162.371 97.2423 160.8 96.0459 159.688C95.9554 159.598 95.9453 159.308 96.0157 159.178C96.7295 157.906 96.257 156.395 96.7999 155.133C97.0713 154.493 97.2624 154.032 96.8804 153.441C95.9454 152.03 96.8904 150.939 97.6244 149.928C98.308 148.986 99.2631 148.236 100.158 147.345Z" fill="#185951"/>
<path d="M127.131 77.3164C126.739 78.1974 125.915 77.9671 125.05 78.1674C125.231 79.3086 124.658 80.54 125.573 81.6312C124.709 81.6612 124.708 81.6613 124.256 81.3209C123.643 81.6813 123.432 82.332 122.979 82.9827C123.12 81.0005 122.306 79.5689 120.888 78.6178C120.245 78.4877 120.144 78.9782 119.833 79.0983C118.757 77.1161 118.727 76.1351 119.581 70.9393C120.024 68.2463 121.421 66.0238 123.401 63.7913C123.995 63.6612 124.97 65.373 125.875 63.7412C126.749 65.2829 125.141 66.1339 125.05 67.6256C125.925 67.2351 126.769 66.9147 127.654 67.2251C128.117 67.6255 127.513 68.2762 128.026 68.7067C128.83 69.3875 129.534 70.1184 128.438 71.1395C129.625 72.0105 128.147 72.7814 128.328 73.6623C128.499 74.5133 128.368 75.4342 128.368 76.3453C127.503 76.1751 127.342 75.164 126.417 75.3242C125.603 76.3654 127.011 76.5356 127.131 77.3164Z" fill="#185951"/>
<path d="M26.5359 134.13C26.1941 133.479 25.2993 133.86 24.7263 133.609C24.7263 133.109 24.7263 132.738 24.7263 132.388C24.6559 132.318 24.5755 132.178 24.5454 132.188C23.0373 132.688 22.243 131.117 20.926 130.956C19.6593 130.796 18.9354 129.855 18.6941 128.594C18.5936 128.093 18.8149 127.723 19.2673 127.483C17.1058 125.681 18.4629 123.878 19.1566 122.046C20.0513 119.694 21.9012 119.423 23.9924 119.534C24.4146 120.705 24.1732 121.676 23.379 122.407C25.0278 123.478 25.5105 121.876 26.5561 121.586C26.8979 122.227 27.1994 122.807 27.4709 123.318C27.4608 123.918 26.5761 124.129 26.9984 124.809C27.7323 125.69 27.9937 124.269 28.7577 124.499C29.7933 125.43 29.6725 126.842 29.6423 128.123C30.0646 128.233 30.316 128.293 30.698 128.393C30.5573 129.074 29.6021 129.275 29.6323 130.005C29.6323 130.796 30.4768 130.195 30.7181 130.786C29.4212 131.847 28.5366 133.459 26.5359 134.13Z" fill="#185951"/>
<path d="M90.2148 96.0674C91.0291 96.0674 91.753 96.0674 92.4668 96.0674C92.9292 96.5279 92.8088 97.7592 92.1855 99.0407C93.4824 100.092 93.9851 98.5601 94.6989 98.2397C95.5333 98.1997 95.5836 98.9205 95.9556 99.0106C96.1968 99.8015 95.2315 99.9717 95.5432 100.793C96.1163 101.133 97.3529 100.813 97.6042 101.794C97.7852 102.495 97.9561 103.406 97.0714 104.026C97.4333 104.156 97.7449 104.266 98.0667 104.377C97.9963 105.147 96.9507 105.728 97.574 106.739C96.3978 108.301 94.3972 108.942 92.859 110.183C92.5775 110.413 91.9943 111.194 91.2201 110.674C90.9085 110.253 91.6324 110.253 91.562 109.883C90.7879 109.402 89.8328 109.983 88.9983 109.552C88.737 108.942 89.1393 108.051 88.1641 107.68C87.0079 108.231 85.8316 108.461 84.8162 106.859C86.1533 105.988 87.9528 105.688 88.2544 103.696C87.1385 103.666 86.455 104.647 85.3893 104.797C85.1681 104.597 84.9066 104.367 84.5548 104.046C84.4743 103.996 84.615 103.926 84.7155 103.726C85.3388 102.555 87.2693 102.715 87.4101 101.073C88.6366 100.592 88.5359 99.2309 88.7571 98.3899C88.9984 97.4088 89.5211 96.8583 90.2148 96.0674Z" fill="#185951"/>
<path d="M43.7976 158.417C44.1093 157.696 44.7426 157.526 44.2299 156.685C43.8881 156.325 43.0739 156.915 42.3601 156.525C42.3198 156.335 42.2694 156.084 42.199 155.754C42.1186 155.624 41.9579 155.564 41.8674 155.704C41.5658 156.144 41.1333 156.135 40.6709 156.125C39.3338 156.094 39.0422 155.714 38.9316 154.353C38.8814 153.752 39.374 153.482 39.4243 152.901C38.9718 152.871 38.5496 152.841 37.9565 152.801C37.5242 150.778 38.7106 149.007 39.0826 147.134C39.2736 146.193 40.7415 145.733 41.9178 145.743C42.3501 145.933 42.2092 146.354 42.2695 146.514C42.4706 146.894 42.5409 146.824 42.742 146.654C43.3452 146.133 44.0792 146.003 44.5718 146.724C45.0745 147.455 45.7881 147.345 46.4517 147.465C46.8337 147.855 46.5524 148.336 46.6429 148.756C46.9746 149.217 47.4771 148.936 47.9798 149.087C49.0153 149.777 48.5128 151.289 49.3875 152.15C46.5122 156.695 45.8184 157.496 43.7976 158.417Z" fill="#185951"/>
<path d="M75.3756 41.4363C75.1042 39.9846 74.1291 39.4942 72.6612 39.8746C71.3442 37.3918 71.8167 34.8089 72.1082 32.2961C72.1686 31.7655 72.4803 31.1148 72.3898 30.5441C72.2088 29.4329 72.8926 28.5319 73.0635 27.5207C73.2043 26.7299 74.4005 26.5597 75.1444 26.1492C76.1397 27.0302 76.1397 27.0302 76.4112 28.2916C76.7329 28.3116 77.0849 28.3316 76.8336 28.3216C78.231 28.3717 77.6478 29.3027 78.241 29.563C78.5828 29.7132 79.1056 30.0536 78.9749 30.5842C78.7537 31.4551 80.0506 32.0458 79.4977 32.7866C78.9447 33.5274 79.2664 34.3885 78.9447 35.0192C78.1203 36.641 77.8589 38.4029 77.3864 40.0948C77.0948 41.206 76.5217 41.5163 75.3756 41.4363Z" fill="#185951"/>
<path d="M133.244 120.845C132.842 120.505 132.57 120.104 131.917 120.044C130.258 119.914 130.258 119.844 129.856 118.012C128.64 117.611 127.493 118.002 126.478 118.482C125.955 117.962 126.317 117.481 126.106 117.031C126.488 116.901 126.8 116.791 127.192 116.66C127.192 115.719 127.192 114.748 127.192 113.527C126.649 113.697 126.136 113.857 125.372 114.108C125.08 114.128 125 113.507 124.578 113.377C125.191 111.795 126.458 110.824 127.564 109.713C128.911 110.003 130.379 108.511 131.585 110.083C131.535 110.173 131.454 111.985 131.565 112.346C131.304 112.376 131.042 112.416 130.791 112.436C130.61 112.456 130.439 112.456 130.258 112.466C129.816 112.876 130.158 113.597 129.544 114.007C130.922 113.527 132.118 112.946 133.023 111.875C133.405 112.325 133.777 112.686 134.48 112.506C133.284 113.477 134.893 114.698 133.465 115.589C134.541 115.629 134.651 114.928 135.084 114.788C135.486 114.648 135.928 114.648 136.33 114.598C136.823 115.609 137.497 116.48 136.964 117.782C136.27 118.382 134.611 118.252 134.34 119.964C135.576 119.724 136.401 119.023 137.014 118.412C137.788 118.552 137.718 118.933 137.698 119.283C136.31 119.183 136.441 120.905 135.275 121.246C134.34 121.516 133.556 122.327 132.379 123.108C132.47 122.046 132.872 121.446 133.244 120.845Z" fill="#185951"/>
<path d="M108.07 38.9936C107.748 39.3139 107.426 39.6342 107.105 39.9546C108.06 40.5753 106.13 41.6765 107.487 42.2272C105.386 44.7099 105.356 44.77 105.245 47.3529C104.471 47.3529 103.667 47.3529 102.691 47.3529C102.48 47.2528 102.681 46.8023 102.48 46.522C99.9267 46.2217 99.3736 45.6309 99.2931 43.0781C99.273 42.3973 99.4942 41.6365 98.7703 41.136C99.3032 40.3951 99.0016 39.4541 99.5646 38.6332C100.63 37.0714 101.977 35.8 103.264 34.4685C103.797 34.2082 104.28 34.3683 104.722 34.4184C104.963 35.4295 103.576 36.0603 104.541 37.1515C104.853 36.701 105.144 36.2705 105.456 35.82C106.421 36.9913 108.06 37.3217 108.07 38.9936Z" fill="#185951"/>
<path d="M149.199 1.31146C148.817 1.95218 147.942 1.20133 147.56 1.92213C148.334 2.32258 149.159 2.03223 150.053 2.15237C150.385 3.29364 151.049 4.33486 151.491 5.5262C152.416 8.04901 151.813 10.2314 150.878 12.504C150.506 13.405 149.953 13.7554 148.887 13.5251C148.626 12.9645 148.314 12.2937 147.952 11.5229C147.349 11.3026 146.394 11.5429 145.922 10.4517C145.982 8.63966 146.062 6.61736 144.735 4.90545C145.137 4.18464 145.489 3.53392 145.871 2.84314C145.57 2.73302 145.248 2.62293 144.775 2.44273C145.037 1.56175 145.348 0.720806 146.133 0C146.846 0 147.641 0 148.455 0C148.767 0.390436 149.33 0.650725 149.199 1.31146Z" fill="#185951"/>
<path d="M69.8262 68.3263C69.4441 68.927 68.8611 68.7168 68.3886 68.7468C67.0816 67.5755 67.9161 65.7234 66.9409 64.452C68.5696 61.2884 68.5695 61.2885 71.3443 60.0071C71.9072 60.1472 72.229 60.5277 72.4301 61.0382C72.591 61.6389 71.5353 61.769 71.8872 62.4598C72.41 63.0604 72.8021 62.67 73.1841 62.2596C74.7625 62.8803 74.3705 64.9125 75.7478 65.7435C75.597 66.8647 75.9389 68.0361 75.5669 69.1773L73.2848 71.9904C72.9228 72.0104 72.5709 72.0205 72.219 72.0405C71.8973 71.4899 71.2437 69.7279 71.3342 69.5377C70.8617 69.1573 70.3791 68.7668 69.8262 68.3263Z" fill="#185951"/>
<path d="M39.8466 69.3075C39.3037 69.5378 39.8165 70.2986 39.3942 70.3386C38.6 70.5088 38.2983 70.0883 38.0772 69.738C37.6147 69.0171 38.1978 68.0361 37.8158 67.4154C37.3332 66.6345 37.1421 66.124 37.7252 65.3131C38.2078 64.6323 37.9465 63.7112 38.3486 62.8503C39.3138 60.788 39.2634 60.6178 41.5154 60.6378C41.5757 60.6979 41.6963 60.7679 41.6963 60.828C41.7164 61.1884 41.7063 61.5488 41.7063 61.9893C42.4403 62.4098 43.5562 62.0894 43.9684 63.3408C44.27 64.2818 45.2553 64.9427 45.0341 66.174C44.8632 67.1151 45.0944 68.0461 44.1895 68.857C43.7371 69.2674 43.2849 70.0484 43.3251 70.9293C43.3552 71.5701 42.8123 71.9605 42.0784 72.0406C41.3948 72.1207 41.0228 71.7202 40.7614 71.2897C40.3592 70.6791 40.1381 69.9683 39.8466 69.3075Z" fill="#185951"/>
<path d="M57.2894 88.4088C58.0636 88.4088 58.7974 88.4088 59.5213 88.4088C60.1044 88.7792 59.6018 89.4299 59.9034 89.8704C60.2855 90.2308 60.7681 89.9505 61.2004 90.0607C61.8338 91.3321 62.6379 92.5534 63.0501 93.8949C63.4924 95.3465 62.829 96.7882 62.3464 98.1597C61.2304 98.6102 60.7177 97.7692 60.0944 97.1586C59.3706 97.1586 58.6468 97.1586 57.9028 97.1586C57.5308 96.1174 57.0081 95.2464 55.6709 95.5267C55.0476 94.7959 55.9022 93.6447 54.8968 93.0841C55.3894 92.4033 55.862 91.7226 55.9827 90.8416C56.1134 89.9706 56.5555 89.2397 57.2894 88.4088Z" fill="#185951"/>
<path d="M0.104992 96.8383C1.10029 95.5068 2.55807 95.0763 4.14653 94.9361C5.21221 96.2376 3.39238 96.4879 3.25163 97.3288C4.42789 98.43 5.39301 96.5779 6.4989 97.2787C7.15238 97.8794 6.2678 98.1197 6.12705 98.5501C6.51914 99.0707 7.18261 98.53 7.5747 98.8604C8.02711 99.9917 7.27323 101.253 8.21826 102.334C7.3235 103.135 7.49441 104.687 6.20756 105.328C5.01119 105.117 4.28728 104.226 3.39252 103.536C2.60834 102.925 1.33159 103.045 0.678112 101.533C1.09031 100.192 -0.397685 98.6603 0.104992 96.8383Z" fill="#185951"/>
<path d="M165.244 92.3432C164.319 91.8026 163.415 91.6524 162.812 90.6212C163.194 90.391 163.646 90.1207 164.088 89.8503C162.851 89.4699 161.846 90.6313 160.75 89.8004C161.344 88.7492 162.64 88.7592 163.445 88.0584C163.535 87.4277 163.153 87.4277 162.671 87.2675C161.876 87.0172 161.726 88.2587 160.962 87.8282C160.67 87.5579 160.529 87.1174 160.861 86.9272C162.63 85.916 164.068 84.5044 165.616 83.2229C166.531 82.4621 166.833 82.2619 168.291 81.9916C168.18 82.5522 167.637 82.7525 167.326 83.183C168.049 83.9739 168.663 83.3031 169.316 83.0228C169.417 84.144 170.321 85.075 169.879 86.6168C168.17 88.0383 167.245 90.5312 165.244 92.3432Z" fill="#185951"/>
</svg>
