<svg width="139" height="121" viewBox="0 0 139 121" fill="none" xmlns="http://www.w3.org/2000/svg">
<path d="M52.2798 83.3421C46.9891 81.3476 43.2404 77.8097 40.8621 73.0032C36.307 63.8069 35.9309 54.3908 40.4628 45.0725C42.59 40.6957 46.0958 37.5121 50.7021 35.8233C54.5915 34.3997 58.3695 35.0189 61.8899 37.1306C65.3934 39.2311 67.9867 42.2174 69.1177 46.1402C70.0901 49.5006 70.4971 53.0364 69.8578 56.5543C69.3462 59.3678 68.8075 62.1917 68.0403 64.9408C67.5785 66.5975 66.7081 68.1532 65.9346 69.7083C64.111 73.3638 62.2379 76.9904 60.4743 80.892C61.3365 80.4357 62.2605 80.069 63.0588 79.5137C65.6271 77.7241 67.4709 75.2598 69.0248 72.587C72.7613 66.1408 74.6852 59.0349 76.4094 51.8533C77.9073 45.6063 79.4565 39.3732 82.0472 33.4663C87.1225 21.8939 95.3465 13.4857 106.845 8.28897C113.886 5.10643 121.411 3.84356 128.891 2.33163C131.703 1.76004 134.471 0.948712 137.259 0.255424C137.411 0.219002 137.578 0.228467 137.913 0.207947C137.64 0.601153 137.456 0.863588 137.418 0.915334C137.885 1.16029 138.357 1.40897 138.835 1.65668C138.571 2.14543 138.419 2.77697 138.018 3.094C137.425 3.56293 136.692 3.91452 135.962 4.13863C133.961 4.74247 131.928 5.23588 129.922 5.81164C127.626 6.46671 125.345 7.1723 123.05 7.82738C122.491 7.98685 121.878 7.9573 121.326 8.12518C118.685 8.94421 116.011 9.6922 113.44 10.6871C111.131 11.584 108.971 12.8794 106.665 13.7951C104.907 14.4951 103.369 15.4864 101.852 16.561C98.2044 19.1445 94.7907 21.9236 92.0991 25.6267C88.3253 30.822 85.6489 36.5466 83.5179 42.5195C82.2472 46.0801 81.7437 49.9066 80.7727 53.5809C79.7677 57.3745 78.635 61.1359 77.5013 64.8927C76.9281 66.787 76.3968 68.7214 75.536 70.4898C74.4392 72.7412 73.092 74.8833 71.7383 76.9926C70.8595 78.3647 69.9138 79.7408 68.758 80.8725C66.0775 83.4902 62.8041 84.7962 59.0307 84.5322C57.8798 84.453 57.1238 84.7167 56.4032 85.6755C51.0594 92.776 44.7219 98.8817 37.5356 104.06C33.2487 107.147 28.9489 110.265 24.4037 112.942C18.5424 116.392 12.2554 118.946 5.48849 120.052C4.3948 120.229 3.24906 120.247 2.14274 120.148C1.68325 120.107 1.26686 119.564 0.834839 119.253C1.17215 118.91 1.45072 118.399 1.85897 118.26C2.55175 118.02 3.32403 118.002 4.06231 117.912C4.56318 117.848 5.0879 117.9 5.56321 117.758C10.6772 116.252 15.5326 114.097 20.1431 111.432C32.1458 104.477 42.6597 95.7417 51.2652 84.7617C51.5611 84.3347 51.858 83.9123 52.2798 83.3421ZM102.361 11.9772C105.977 10.3076 109.594 8.64276 113.21 6.97319C110.323 8.03346 107.48 9.21155 104.675 10.4841C103.854 10.8587 103.144 11.4885 102.384 11.9967C100.609 12.3248 99.4799 13.6363 98.2816 14.8451C99.6423 13.8857 100.999 12.9319 102.361 11.9772ZM65.2384 46.664C65.1428 46.1959 65.0845 45.7201 64.9479 45.2653C62.726 37.9481 56.2601 37.2747 51.1454 39.9175C49.4787 40.7792 48.1866 42.0513 46.9743 43.4045C45.8962 44.608 44.8474 45.9078 44.1162 47.3372C42.294 50.9045 41.6297 54.7984 41.6607 58.7729C41.7045 64.306 42.5765 69.6679 45.6393 74.4305C47.4314 77.2215 49.6846 79.4682 52.8851 80.6313C53.8073 80.9675 54.3034 80.7138 54.811 79.9697C58.5294 74.5273 61.8135 68.8576 63.8056 62.5133C65.4257 57.3388 66.2971 52.0849 65.2384 46.664ZM58.4551 76.3478C60.374 73.4679 62.5536 70.7244 63.1593 67.1841C61.5916 70.2402 60.0238 73.2964 58.4551 76.3478ZM116.826 5.77688C116.85 5.82081 116.868 5.86573 116.892 5.90966C119.279 5.41624 121.666 4.92281 124.053 4.42939C124.039 4.38354 124.029 4.33671 124.015 4.29086C121.619 4.7862 119.222 5.28154 116.826 5.77688Z" fill="#F6D06D"/>
</svg>
