<svg width="161" height="101" viewBox="0 0 161 101" fill="none" xmlns="http://www.w3.org/2000/svg">
<path d="M160.246 91.5431C160.393 95.9376 159.444 99.4075 154.577 100.286C152.455 100.674 149.096 99.0929 147.893 97.1125C147.731 99.1965 146.994 100.174 144.606 99.8549C142.64 99.5953 140.545 100.421 138.54 100.265C130.472 99.6345 122.409 98.6771 115.325 94.4429C113.511 93.3602 112.66 90.5887 109.737 91.7316C104.709 88.993 99.6669 86.271 95.6185 82.1664C94.6546 81.1837 93.89 80.0068 93.053 78.9034C89.4991 74.2506 85.9453 69.5977 82.4337 64.9047C82.1971 64.5857 82.4409 63.9615 82.3612 63.4886C82.2853 63.0782 82.0645 62.7017 81.9099 62.3118C79.4639 63.3129 79.4714 60.8389 79.0813 59.935C77.909 57.1922 77.2671 54.2292 76.4227 51.3567C76.3259 51.0231 76.3807 50.5547 76.164 50.354C73.807 48.1628 72.5737 45.6813 72.9302 42.3128C73.0568 41.1235 71.7907 39.7942 71.6825 38.3172C71.1113 37.9617 70.2953 37.7369 70.0182 37.2223C67.1033 31.8744 64.2724 26.4872 61.3766 21.0313C58.9483 20.6297 54.8809 16.3657 54.7913 13.7121C54.2815 14.1638 53.9207 14.4902 53.9083 14.4972C52.6188 13.7886 51.5482 12.8909 50.3177 12.5779C44.0652 10.9969 37.8522 9.5392 31.2042 10.361C24.3845 11.1994 17.4524 11.0734 10.5949 11.7066C8.16274 11.9306 5.80031 13.0461 3.4715 13.924C2.09633 14.4462 1.26805 14.4956 0.792942 12.8708C-0.480759 8.55002 0.392453 5.85149 4.89845 4.49774C10.9869 2.66593 17.2845 0.909732 23.5748 0.517893C31.3428 0.031412 39.2254 0.653641 47.0084 1.37315C55.3608 2.14976 61.0447 7.45474 65.9072 13.6636C71.217 20.4523 75.0843 27.9714 77.7672 36.1555C81.0166 46.05 86.2845 54.9031 92.5232 63.2611C99.0582 72.0258 106.978 79.2022 116.749 84.2658C124.213 88.1378 132.057 90.9279 140.7 90.9486C146.975 90.9536 153.246 91.1321 159.512 91.2477C159.749 91.2586 159.991 91.4452 160.246 91.5431ZM118.332 87.9488C112.436 83.9956 106.536 80.0519 100.65 76.1012C105.581 81.4857 111.483 85.4198 118.332 87.9488ZM41.5666 3.59063C46.6632 4.92964 51.7696 6.27123 57.2365 7.70753C52.3339 4.28258 47.1845 3.02214 41.5666 3.59063Z" fill="#F6D06D"/>
<path d="M128.697 65.0804C127.618 60.8108 127.969 59.8343 131.589 57.7446C135.448 55.5118 139.416 53.4519 143.334 51.3067C143.971 50.9605 144.539 50.452 145.2 50.1736C146.359 49.6768 147.58 49.299 148.772 48.8726C148.616 50.3214 148.851 51.9855 148.201 53.181C147.423 54.6104 146.084 55.9947 144.643 56.7975C139.496 59.6573 134.204 62.2431 128.697 65.0804Z" fill="#F6D06D"/>
<path d="M109.559 29.5498C111.236 26.6208 112.895 23.5327 114.796 20.5904C115.199 19.9566 116.466 19.8683 117.334 19.521C117.639 20.3513 118.126 21.1676 118.204 22.0304C118.284 22.8836 118.125 23.8485 117.79 24.6543C116.304 28.3323 114.734 31.9779 113.163 35.6233C112.88 36.2783 112.53 36.9465 112.07 37.4832C111.75 37.8512 111.042 38.3021 110.733 38.1697C110.245 37.9694 109.666 37.3346 109.641 36.8552C109.521 34.5429 109.572 32.2142 109.559 29.5498Z" fill="#F6D06D"/>
<path d="M19.9514 40.9892C18.2592 38.5824 18.562 36.9771 20.3222 35.7341C22.6825 34.0529 25.048 32.3526 27.582 30.9533C28.3954 30.4992 29.7141 30.9486 30.8099 30.99C30.5508 32.4732 30.8316 34.6941 29.9392 35.3226C26.8628 37.4835 23.3828 39.0963 19.9514 40.9892Z" fill="#F6D06D"/>
<path d="M32.6048 56.488C31.6939 50.4954 36.6959 47.8235 39.4084 43.9746C39.662 43.62 41.1806 43.5668 41.2893 43.7803C41.8092 44.821 42.7209 46.5298 42.298 47.0454C39.5906 50.3408 36.5715 53.4002 33.6324 56.5114C33.5054 56.6322 33.1111 56.508 32.6048 56.488Z" fill="#F6D06D"/>
<path d="M125.896 47.5058C126.087 46.1587 125.858 44.5476 126.538 43.5138C128.403 40.6648 130.589 38.0134 132.788 35.3959C133.253 34.84 134.31 34.758 135.093 34.4503C135.3 35.3368 135.953 36.4637 135.622 37.0649C134.293 39.4796 132.775 41.8237 131.091 44.0113C129.929 45.514 128.368 46.7168 126.987 48.0597C126.609 47.878 126.252 47.6919 125.896 47.5058Z" fill="#F6D06D"/>
<path d="M59.0248 62.3916C58.202 61.7336 57.7109 61.5429 57.5724 61.2086C56.093 57.7173 54.5419 54.2586 53.3161 50.6798C52.9672 49.6635 53.6153 48.3236 54.2553 47.1665C56.7723 51.9064 59.7281 56.3402 59.0248 62.3916Z" fill="#F6D06D"/>
</svg>
