<svg width="100" height="100" viewBox="0 0 100 100" fill="none" xmlns="http://www.w3.org/2000/svg">
<path opacity="0.1" fill-rule="evenodd" clip-rule="evenodd" d="M46.7932 0.0100077C71.1485 -0.482068 90.5876 17.2386 97.6818 38.4976C104.36 58.5089 96.2941 80.1455 77.5603 92.2092C59.574 103.792 35.4398 101.997 17.8716 89.8921C1.2877 78.4656 -3.4536 58.6134 2.39967 40.4227C8.90915 20.1926 23.6858 0.476871 46.7932 0.0100077Z" fill="#185951"/>
<path d="M50.5 24.7188C43.6624 24.7188 37.1048 27.435 32.2699 32.2699C27.435 37.1048 24.7188 43.6624 24.7188 50.5C24.7188 57.3376 27.435 63.8952 32.2699 68.7301C37.1048 73.565 43.6624 76.2813 50.5 76.2813C57.3376 76.2813 63.8952 73.565 68.7301 68.7301C73.565 63.8952 76.2812 57.3376 76.2812 50.5C76.2812 43.6624 73.565 37.1048 68.7301 32.2699C63.8952 27.435 57.3376 24.7188 50.5 24.7188Z" stroke="#185951" stroke-width="4.83232"/>
<path d="M27.5875 62.2188H73.4125M50.5 24.7188C48.0136 24.7188 45.629 27.435 43.8709 32.2699C42.1127 37.1048 41.125 43.6624 41.125 50.5C41.125 57.3376 42.1127 63.8952 43.8709 68.7301C45.629 73.565 48.0136 76.2813 50.5 76.2813C52.9864 76.2813 55.371 73.565 57.1291 68.7301C58.8873 63.8952 59.875 57.3376 59.875 50.5C59.875 43.6624 58.8873 37.1048 57.1291 32.2699C55.371 27.435 52.9864 24.7188 50.5 24.7188ZM24.7188 50.5H76.2812H24.7188ZM27.5875 38.7813H73.4125H27.5875Z" stroke="#185951" stroke-width="4.83232"/>
</svg>
