<svg width="100" height="100" viewBox="0 0 100 100" fill="none" xmlns="http://www.w3.org/2000/svg">
<path opacity="0.1" fill-rule="evenodd" clip-rule="evenodd" d="M53.8911 0.0282548C74.1902 0.632951 90.9121 15.2001 97.2365 35.0791C103.615 55.128 99.0376 77.7065 82.6143 90.3122C65.6003 103.371 42.4229 103.027 25.0401 90.4935C6.61384 77.2081 -4.94337 54.2558 2.07647 32.2444C9.03773 10.4167 31.5969 -0.635875 53.8911 0.0282548Z" fill="#185951"/>
<path d="M58.5979 19.4751C52.4245 19.4751 47.2388 24.817 47.2388 31.1764V44.4039C45.5103 43.132 43.2879 42.3689 40.8185 42.3689H27.4839V56.1051C27.4839 62.4645 32.6696 67.8064 38.843 67.8064H47.2388V80.5252H52.1775V44.9126H60.5734C66.7468 44.9126 71.9324 39.5707 71.9324 33.2114V19.4751H58.5979ZM38.843 62.7189C35.3859 62.7189 32.4227 59.6664 32.4227 56.1051V47.4564H40.8185C44.2756 47.4564 47.2388 50.5089 47.2388 54.0701V62.7189H38.843ZM66.9937 33.2114C66.9937 36.7726 64.0305 39.8251 60.5734 39.8251H52.1775V31.1764C52.1775 27.6151 55.1408 24.5626 58.5979 24.5626H66.9937V33.2114Z" fill="#185951"/>
</svg>
