<svg width="100" height="100" viewBox="0 0 100 100" fill="none" xmlns="http://www.w3.org/2000/svg">
<path opacity="0.1" fill-rule="evenodd" clip-rule="evenodd" d="M49.1215 2.70324e-05C70.7472 0.0226937 88.4555 14.6327 95.5697 33.9862C103.237 54.8447 102.052 79.7516 83.2226 92.7689C64.3076 105.845 38.6384 99.6972 20.0726 86.1791C3.13724 73.8482 -4.1427 53.1681 2.35598 33.8885C8.95769 14.3034 27.4263 -0.0227126 49.1215 2.70324e-05Z" fill="#185951"/>
<path d="M50 21.8267C40.3382 21.8267 32.6583 29.1047 32.6583 38.261V57.0431C32.6583 65.2603 39.0995 72.0688 47.5226 73.2427V78.173H52.4774V73.2427C60.9005 72.0688 67.3417 65.2603 67.3417 57.0431V38.261C67.3417 29.1047 59.6618 21.8267 50 21.8267ZM62.3869 57.0431C62.3869 62.6778 58.1754 67.3733 52.4774 68.5472V59.3909H47.5226V68.5472C41.8246 67.3733 37.6131 62.6778 37.6131 57.0431V38.261C37.6131 31.6873 43.0633 26.5222 50 26.5222C56.9367 26.5222 62.3869 31.6873 62.3869 38.261V57.0431Z" fill="#185951"/>
</svg>
