<svg width="100" height="100" viewBox="0 0 100 100" fill="none" xmlns="http://www.w3.org/2000/svg">
<path opacity="0.1" fill-rule="evenodd" clip-rule="evenodd" d="M49.4149 1.22709e-05C70.8897 0.0148887 89.5453 13.8101 96.5056 33.8377C103.842 54.9481 99.9741 79.5599 81.5887 92.5773C63.4592 105.413 39.1271 100.312 21.2758 87.1026C4.36151 74.5865 -4.29795 53.6384 2.11994 33.7723C8.6508 13.5565 27.8935 -0.0148964 49.4149 1.22709e-05Z" fill="#185951"/>
<path d="M49.9814 36.2443L48.1658 37.5732L49.9794 40.0512L51.7956 37.5751L49.9814 36.2443ZM49.9068 74.8311L48.198 76.2949L49.9063 78.2892L51.6152 76.2953L49.9068 74.8311ZM63.4488 25.6475C58.9651 25.6475 55.0805 28.1607 52.5015 30.3583C51.1755 31.4883 50.1042 32.6125 49.3639 33.4535C48.9925 33.8755 48.7009 34.2302 48.4988 34.484C48.3977 34.611 48.3187 34.713 48.2631 34.7859C48.2353 34.8223 48.2133 34.8515 48.1972 34.873C48.1892 34.8837 48.1827 34.8925 48.1777 34.8992C48.1752 34.9026 48.1731 34.9055 48.1713 34.9079C48.1704 34.9091 48.1696 34.9101 48.169 34.9111C48.1686 34.9115 48.1682 34.9122 48.168 34.9124C48.1676 34.913 48.1672 34.9135 49.9814 36.2443C51.7956 37.5751 51.7953 37.5756 51.795 37.5761C51.7949 37.5762 51.7946 37.5766 51.7944 37.5768C51.7941 37.5772 51.7939 37.5775 51.7938 37.5777C51.7935 37.578 51.7936 37.5779 51.7941 37.5773C51.795 37.576 51.7974 37.5728 51.8012 37.5678C51.8087 37.5576 51.822 37.5399 51.8409 37.5153C51.8785 37.4659 51.9383 37.3886 52.0189 37.2874C52.1803 37.0847 52.4245 36.7872 52.7418 36.4267C53.3791 35.7027 54.2975 34.7402 55.4202 33.7834C57.7388 31.8077 60.5879 30.1475 63.4488 30.1475V25.6475ZM49.9814 36.2443C51.7971 34.9155 51.7967 34.9149 51.7963 34.9143C51.7961 34.9141 51.7956 34.9135 51.7953 34.913C51.7946 34.9121 51.7938 34.911 51.793 34.9098C51.7912 34.9075 51.7891 34.9046 51.7866 34.9012C51.7816 34.8944 51.7751 34.8856 51.7671 34.8749C51.7511 34.8535 51.7291 34.8242 51.7013 34.7878C51.6458 34.7149 51.567 34.6128 51.4661 34.4858C51.2644 34.232 50.9734 33.8773 50.6026 33.4552C49.8638 32.6141 48.7943 31.4897 47.4703 30.3596C44.8954 28.1616 41.0153 25.6475 36.5334 25.6475V30.1475C39.3906 30.1475 42.2345 31.8067 44.5488 33.7822C45.6694 34.7388 46.5859 35.7011 47.2218 36.425C47.5384 36.7855 47.782 37.0829 47.9431 37.2855C48.0235 37.3867 48.0831 37.464 48.1207 37.5134C48.1395 37.538 48.1527 37.5557 48.1603 37.5658C48.1641 37.5709 48.1664 37.5741 48.1673 37.5753C48.1678 37.576 48.1679 37.5761 48.1676 37.5757C48.1675 37.5756 48.1673 37.5753 48.167 37.5748C48.1668 37.5746 48.1665 37.5742 48.1664 37.5741C48.1661 37.5737 48.1658 37.5732 49.9814 36.2443ZM36.5334 25.6475C31.8719 25.6475 27.7343 27.1695 24.7488 30.0566C21.754 32.9528 20.0973 37.0508 20.0973 41.8498H24.5973C24.5973 38.1166 25.8637 35.2385 27.8771 33.2915C29.8997 31.3355 32.8551 30.1475 36.5334 30.1475V25.6475ZM20.0973 41.8498C20.0973 50.0285 25.1859 55.9576 30.9146 61.0394C33.7749 63.5767 37.0174 66.0865 39.9834 68.5368C43.0069 71.0346 45.8479 73.5513 48.198 76.2949L51.6156 73.3674C49.0066 70.3216 45.9232 67.6068 42.8494 65.0675C39.7182 62.4808 36.6907 60.1478 33.9009 57.673C28.3294 52.7307 24.5973 47.9585 24.5973 41.8498H20.0973ZM51.6152 76.2953C53.965 73.5536 56.8153 71.0379 59.854 68.5404C62.8335 66.0917 66.099 63.5802 68.9779 61.0447C74.7433 55.967 79.8821 50.0363 79.8821 41.8498H75.3821C75.3821 47.9507 71.6201 52.7213 66.0037 57.6677C63.1917 60.1443 60.1462 62.4755 56.9968 65.0639C53.9067 67.6036 50.8104 70.3193 48.1984 73.3669L51.6152 76.2953ZM79.8821 41.8498C79.8821 37.0502 78.2236 32.9523 75.2288 30.0565C72.2433 27.1698 68.1066 25.6475 63.4488 25.6475V30.1475C67.1224 30.1475 70.0774 31.3352 72.1007 33.2916C74.1147 35.2389 75.3821 38.1172 75.3821 41.8498H79.8821Z" fill="#185951"/>
</svg>
