<svg width="100" height="100" viewBox="0 0 100 100" fill="none" xmlns="http://www.w3.org/2000/svg">
<path opacity="0.1" fill-rule="evenodd" clip-rule="evenodd" d="M50.2949 0.000898063C72.2178 0.131477 90.7458 15.6119 97.4404 36.7676C104.053 57.6646 97.7278 81.1259 79.9158 93.6067C63.1892 105.327 41.5568 99.5392 25.0667 87.4797C8.37317 75.2714 -4.36262 56.2201 1.41227 36.1956C7.67084 14.494 27.9845 -0.131988 50.2949 0.000898063Z" fill="#185951"/>
<mask id="mask0" style="mask-type:alpha" maskUnits="userSpaceOnUse" x="22" y="18" width="58" height="59">
<ellipse cx="51.2648" cy="47.117" rx="28.5435" ry="28.9256" fill="#C4C4C4"/>
</mask>
<g mask="url(#mask0)">
<path d="M51.2442 18.4745C35.5693 18.4745 22.7931 31.384 22.7931 47.2727C22.7931 62.5069 34.566 75.0328 49.3713 76.0033V85.9563H-20.9761V62.3941C3.86288 61.401 23.7742 40.66 23.7742 15.2697C23.7742 -10.73 2.85949 -31.8999 -22.8268 -31.8999C-48.5354 -31.8999 -69.4278 -10.73 -69.4278 15.2697C-69.4278 40.66 -49.5164 61.401 -24.6997 62.3941V85.9563H-95.0471V76.0033C-80.2195 75.0328 -68.469 62.5069 -68.469 47.2727C-68.469 31.4066 -81.2229 18.4745 -96.9201 18.4745C-112.617 18.4745 -125.371 31.384 -125.371 47.2727C-125.371 62.5069 -113.598 75.0328 -98.7708 76.0033V89.7253H53.1172V76.0033C67.9448 75.0328 79.7176 62.5069 79.7176 47.2727C79.7176 31.4066 66.9414 18.4745 51.2442 18.4745ZM-20.9538 -28.0857C1.83381 -27.0927 20.0728 -8.04429 20.0728 15.2697C20.0728 18.1811 19.783 21.0474 19.2256 23.8008C-4.05259 23.4397 -15.7586 32.5125 -20.9538 38.6287V-28.0857ZM-20.9538 45.1287C-19.6829 42.7138 -10.4296 27.4119 18.3114 27.5473C13.2277 44.9255 -2.33575 57.79 -20.9538 58.625V45.1287ZM-95.0471 22.3338C-89.3836 22.7626 -84.2553 25.1324 -80.2864 28.8112C-87.7783 30.6393 -92.3492 34.318 -95.0471 37.6131V22.3338ZM-95.0471 44.9707C-94.5343 43.4134 -91.0114 34.5212 -77.3432 32.0386C-74.1324 36.259 -72.1926 41.5402 -72.1926 47.2727C-72.1926 60.4306 -82.2932 71.2412 -95.0471 72.2117V44.9707ZM-98.7708 72.2117C-110.923 71.2863 -120.644 61.4462 -121.536 49.146C-103.052 49.3942 -99.239 59.2795 -98.7708 60.8142V72.2117ZM-98.7708 53.7501C-102.294 49.8456 -109.005 45.5575 -121.536 45.3995C-120.622 33.0993 -110.923 23.2817 -98.7708 22.3564V53.7501ZM-24.6997 58.625C-47.4874 57.632 -65.7041 38.561 -65.7041 15.2697C-65.7041 7.68641 -63.7643 0.531989 -60.3751 -5.67453C-34.7557 -5.83252 -25.8592 12.945 -24.6997 15.6533V58.625ZM-24.6997 8.18293C-25.993 6.33226 -27.6653 4.25589 -29.7612 2.2021C-35.0456 -2.9211 -44.1205 -8.87936 -58.0785 -9.42102C-50.6759 -20.2316 -38.5239 -27.4763 -24.6997 -28.0857V8.18293ZM49.3936 72.2117C36.6396 71.2412 26.539 60.4306 26.539 47.2727C26.539 41.5402 28.4789 36.259 31.6897 32.0386C45.3801 34.5212 48.8807 43.4134 49.3936 44.9707V72.2117ZM49.3936 37.6131C46.6956 34.318 42.1247 30.6393 34.6329 28.8112C38.6018 25.1324 43.7301 22.7852 49.3936 22.3338V37.6131ZM53.1172 22.3338C65.2691 23.2591 74.9906 33.0993 75.8825 45.3769C63.3516 45.5349 56.6402 49.823 53.1172 53.7501V22.3338ZM53.1172 72.2117V60.8142C53.6078 59.2795 57.4205 49.4168 75.8825 49.146C74.9684 61.4462 65.2691 71.2863 53.1172 72.2117Z" fill="#185951"/>
</g>
</svg>
