<svg width="134" height="120" viewBox="0 0 134 120" fill="none" xmlns="http://www.w3.org/2000/svg">
<path d="M27.2323 0.713867C25.1257 2.81189 23.0689 4.95151 20.9124 6.98721C16.4197 11.2248 12.6657 16.0752 9.68052 21.5696C9.39099 22.0993 8.63258 22.7016 9.56109 23.169C10.2899 23.5325 10.609 22.7743 10.9285 22.1719C14.3829 15.7013 18.6961 9.9162 24.3171 5.35663C26.0842 3.92332 27.7015 2.47957 29.1891 0.755452C30.6368 -0.927123 35.2397 0.423143 36.0384 2.62503C36.308 3.37284 35.9984 4.22453 35.4793 4.32839C32.3144 4.97234 31.0262 8.1713 28.5203 9.77079C26.793 10.8717 26.4539 13.7798 24.8065 15.4105C24.2774 15.9298 23.908 17.8201 22.8297 15.8259C22.5901 15.3793 22.1305 15.4936 22.2004 15.9922C22.42 17.5397 20.6631 17.3734 20.2538 18.6302C23.7382 18.7444 21.801 20.1778 21.142 21.6838C20.1436 23.9688 19.355 26.3888 18.746 28.8296C17.8374 32.4855 15.4514 35.674 15.3516 39.5273C15.1519 47.5352 14.3631 55.6884 19.0356 62.8861C19.6046 63.7585 20.1238 64.631 21.2819 64.7244C30.3373 65.4203 39.2533 65.1504 47.3103 59.9884C53.2307 56.1974 57.2939 50.5888 60.9879 44.6166C65.5905 37.1801 67.0284 28.9127 67.1781 20.2609C67.2081 18.2875 67.188 16.2206 69.055 14.9431C69.7339 14.4861 70.5426 13.7902 71.2814 14.1122C72.0402 14.4445 72.0202 15.5248 72.0901 16.366C72.15 16.9892 71.7406 17.6643 72.2798 18.2459C73.1783 18.4536 73.2583 17.5605 73.6677 17.145C74.2168 16.5842 74.3963 15.4625 75.4646 15.7325C76.423 15.9818 76.5029 16.8957 76.6726 17.7474C76.7325 18.0382 76.3634 18.9314 77.202 18.5679C80.8262 16.9788 80.7859 20.936 81.6246 22.3381C83.4217 25.3709 82.683 29.2034 82.0341 32.5374C79.6679 44.7828 73.1484 54.7225 65.8102 64.3817C63.6737 67.1964 61.717 70.0423 58.7518 71.3821C55.8165 72.7011 53.3201 75.7339 49.5761 74.7472C47.3897 77.6865 44.0255 75.9209 41.26 76.8557C38.145 77.9047 34.4707 77.5204 31.0762 77.2711C25.0559 76.8245 19.3351 75.0796 14.0236 72.026C9.02168 69.149 6.19622 64.2779 3.77013 59.2094C2.17271 55.8754 0.815191 52.396 0.32598 48.5947C-1.16162 36.962 2.57242 26.9704 8.87226 17.6643C12.1669 12.7932 15.6013 8.08811 20.2138 4.47369C22.2705 2.86382 24.3269 1.19166 26.6931 0.0907159C26.8728 0.288055 27.0526 0.506141 27.2323 0.713867ZM52.232 61.1516C53.9393 61.0997 55.0075 60.0714 55.956 58.9912C58.6117 55.9584 61.2976 52.9984 63.4542 49.4775C64.4426 47.8572 65.0614 46.6835 64.5422 44.7101C60.6785 50.5783 57.234 56.4882 52.232 61.1516Z" fill="#F6D06D"/>
<path d="M122.219 88.312C123.817 87.6577 124.036 86.1101 124.795 85.0403C125.344 84.2718 125.534 82.8489 126.912 83.389C128.31 83.9394 127.501 85.113 127.421 86.079C127.401 86.349 127.421 86.619 127.421 86.9306C128.799 87.076 128.719 84.5937 130.186 85.3C131.295 85.8401 131.534 87.8549 132.003 88.0834C135.268 89.6622 131.634 91.646 132.602 93.2559C133.511 93.2663 132.932 91.5837 134 91.6876C127.441 113.416 114.811 122.607 94.3842 119.367C81.1855 117.269 72.8488 109.344 68.995 96.4964C66.2794 87.45 69.3447 79.2136 74.4764 71.7771C75.0654 70.9254 75.8941 69.8037 77.182 70.6346C79.2986 72.016 82.7528 71.8601 82.7428 75.7549C82.7328 81.0312 81.8343 86.2763 82.2836 91.5629C82.7429 97.0157 84.2603 102.063 87.6948 106.353C88.4136 107.246 89.2425 107.984 90.4106 108.067C98.6873 108.607 106.175 107.07 111.357 99.4565C114.152 95.3539 116.319 90.8982 118.016 86.2036C118.605 84.573 119.434 83.1292 120.931 82.2464C121.361 81.9971 122.02 81.8413 122.469 81.9971C123.138 82.236 122.768 82.9215 122.738 83.4616C122.629 85.0092 121.83 86.4841 122.219 88.312ZM117.367 97.3688C115.68 99.7473 114.003 102.126 112.315 104.494C115.031 102.884 116.568 100.402 117.367 97.3688Z" fill="#F6D06D"/>
</svg>
