<svg width="100" height="100" viewBox="0 0 100 100" fill="none" xmlns="http://www.w3.org/2000/svg">
<path opacity="0.1" fill-rule="evenodd" clip-rule="evenodd" d="M46.8049 0.0227469C69.143 -0.58548 91.6355 11.0189 98.3223 33.0179C104.842 54.4657 91.4647 75.4704 73.6873 88.4638C56.6731 100.899 34.1113 104.914 17.23 92.2875C0.30148 79.6255 -3.53783 56.0944 3.0275 35.6126C9.47684 15.4926 26.2726 0.581807 46.8049 0.0227469Z" fill="#185951"/>
<path d="M66.558 57.3215C66.558 47.8035 59.2252 40.2378 50.0001 40.2378C40.7749 40.2378 33.4421 47.8035 33.4421 57.3215C33.4421 65.8634 39.5922 72.9409 47.6347 74.1612V79.2864H52.3655V74.1612C60.4079 72.9409 66.558 65.8634 66.558 57.3215ZM50.0001 69.5242C43.3769 69.5242 38.173 64.155 38.173 57.3215C38.173 50.488 43.3769 45.1189 50.0001 45.1189C56.6233 45.1189 61.8272 50.488 61.8272 57.3215C61.8272 63.911 56.6233 69.5242 50.0001 69.5242Z" fill="#185951"/>
<path d="M50.0001 40.2377C44.7962 40.2377 40.5385 35.8447 40.5385 30.4755C40.5385 25.1063 44.7962 20.7134 50.0001 20.7134C55.2041 20.7134 59.4618 25.1063 59.4618 30.4755C59.4618 35.8447 55.2041 40.2377 50.0001 40.2377ZM50.0001 25.5944C47.3982 25.5944 45.2693 27.7909 45.2693 30.4755C45.2693 33.1601 47.3982 35.3566 50.0001 35.3566C52.6021 35.3566 54.731 33.1601 54.731 30.4755C54.731 27.7909 52.6021 25.5944 50.0001 25.5944Z" fill="#185951"/>
</svg>
