<svg width="158" height="142" viewBox="0 0 158 142" fill="none" xmlns="http://www.w3.org/2000/svg">
<path d="M157.283 73.8962C157.227 74.0509 157.084 74.4471 156.904 74.9423C157.059 75.0166 157.234 75.097 157.47 75.2146C157.589 75.6541 158.261 76.1122 157.85 76.7064C157.483 77.2388 158.454 77.802 157.713 78.2292C157.838 79.3434 157.047 80.148 156.53 80.928C156.057 81.6336 155.945 82.5188 155.229 83.1317C154.607 83.664 154.258 84.512 153.791 85.2239C153.38 85.2424 153 85.261 152.471 85.2796C152.565 85.5829 152.639 85.8057 152.752 86.1648C152.608 86.3257 152.378 86.5857 152.123 86.8704C152.278 87.3471 152.428 87.7927 152.596 88.3189C152.353 88.5974 152.11 88.8698 151.843 89.1731C152.054 89.2474 152.247 89.3155 152.583 89.4331C152.204 89.7055 151.886 89.9221 151.556 90.1573C151.618 90.2316 151.718 90.3491 151.874 90.5287C150.747 90.9434 149.751 89.9407 148.512 90.4297C147.746 90.9806 147.18 92.101 146.041 92.5157C145.599 92.6766 145.978 93.4751 145.225 93.3822C144.957 93.3513 145.157 94.2055 144.528 94.0384C144.291 94.8122 143.6 95.1279 143.046 95.6169C142.592 96.0192 142.175 96.5516 141.807 97.0777C141.502 97.5172 141.173 97.9443 140.849 98.3714C140.556 98.7552 140.214 99.1142 139.971 99.5289C139.766 99.8817 139.784 100.488 139.504 100.649C139.131 100.866 138.875 101.095 138.794 101.596C138.427 101.38 138.203 101.244 137.979 101.114C137.276 101.454 136.572 101.782 135.875 100.928C135.875 100.396 135.875 99.7951 135.875 99.1575C134.53 98.4085 133.13 97.7462 132.501 96.0501C132.551 95.4869 132.277 94.6945 132.818 94.0384C132.028 92.4723 132.712 91.1477 133.472 89.8416C134.387 88.2693 135.582 86.9323 136.989 85.6943C136.161 84.4625 135.302 83.3112 134.592 82.0794C134.107 81.2314 133.572 80.2966 133.547 79.3248C133.522 78.3158 133.198 77.2635 133.802 76.2422C134.07 75.7841 133.814 75.1218 134.113 74.5152C134.294 74.15 134.406 73.7477 134.686 73.401C134.835 73.2153 134.829 72.8996 134.953 72.4044C135.234 72.1445 135.937 71.7978 136.08 71.2964C136.292 70.5598 137.238 70.8445 137.226 69.9841C137.469 70.1698 137.581 70.2503 137.749 70.3741C138.141 70.2565 138.583 70.1265 139.044 69.9965C139.212 70.3122 139.355 70.5784 139.523 70.9002C139.187 71.5069 138.813 72.1754 138.39 72.9368C139.23 72.8563 139.878 72.7882 140.432 72.7324C140.656 72.9553 140.78 73.0791 140.911 73.2091C140.687 73.6486 140.457 74.1005 140.152 74.6885C140.687 74.7442 141.098 74.7875 141.608 74.8371C141.484 75.4313 141.359 76.0317 141.235 76.6198C141.017 76.8117 140.787 77.0221 140.544 77.2326C140.699 77.3873 140.762 77.4678 140.774 77.4554C140.998 77.3316 141.21 77.2017 141.478 77.0407C141.565 77.2759 141.621 77.4245 141.695 77.6102C141.216 77.8516 140.755 78.0806 140.239 78.3468C140.482 78.4273 140.675 78.4891 141.029 78.6067C140.625 79.0091 140.264 79.3682 139.797 79.8324C140.394 80.3029 140.924 80.7175 141.49 81.1632C142.324 81.3241 142.997 80.9713 143.656 80.408C145.175 79.102 146.844 77.963 148.344 76.657C149.875 75.3137 151.506 74.0014 152.596 72.2001C152.851 71.7792 153.299 71.4759 153.685 71.0922C154.221 71.0922 154.775 71.0922 155.472 71.0922C155.572 71.216 155.74 71.4264 155.914 71.643C155.721 72.2001 155.516 72.7696 155.254 73.5124C155.796 73.3638 156.238 73.2463 156.804 73.0853C156.904 73.2463 157.041 73.4814 157.283 73.8962Z" fill="#F6D06D"/>
<path d="M49.5433 109.451C48.9954 109.618 48.541 109.761 47.9558 109.94C48.099 109.637 48.1924 109.439 48.3107 109.179C47.9185 108.597 47.4827 108.071 46.6734 108.189C46.6112 107.953 46.5738 107.799 46.5178 107.588C46.0447 107.588 45.5529 107.588 45.1171 107.588C44.9802 107.452 44.8556 107.384 44.8245 107.285C44.6066 106.641 44.5631 105.874 44.1771 105.372C43.6729 104.722 43.9281 104.085 43.9032 103.459C43.8845 102.946 44.09 102.426 44.2207 101.912C44.6751 100.08 45.3723 98.3403 46.2688 96.6814C46.8166 95.66 47.4329 94.6696 48.1115 93.7287C48.7713 92.8064 49.5433 91.9708 50.2903 91.067C50.0849 90.937 49.867 90.7885 49.6367 90.6523C47.408 89.3401 45.4595 87.6935 43.6542 85.8675C42.8013 85.0071 42.7951 83.8496 42.5461 82.7787C42.4465 82.3516 42.5274 81.8811 42.5274 81.4292C42.9818 80.5626 43.9032 80.4884 44.7934 80.1356C45.0922 80.6617 45.4035 81.2002 45.7521 81.813C45.8144 81.7697 45.9202 81.6892 46.1069 81.553C46.2252 81.6706 46.4307 81.782 46.4867 81.943C46.8415 82.9458 47.6632 83.4595 48.541 83.8928C50.3214 84.778 52.1205 85.6323 54.0379 86.5546C54.4861 86.0841 54.9343 85.3599 55.5818 85.0009C56.1794 84.6666 56.2105 83.7133 57.1443 83.8062C57.0136 83.6452 56.9202 83.5276 56.7832 83.3605C57.0696 83.1624 57.3622 82.9582 57.7668 82.6796C57.8976 82.4011 58.0905 81.9739 58.2773 81.553C58.5637 81.5344 58.8375 81.5221 59.2235 81.4973C59.0617 81.2869 58.9745 81.1754 58.8375 81.0083C59.5597 80.9031 59.6033 80.1603 60.0577 79.7641C60.537 79.3432 60.8732 78.7614 61.3276 78.1857C61.4272 78.26 61.5331 78.3342 61.7323 78.4828C61.8195 78.2785 61.9004 78.0804 62.0062 77.839C62.1307 77.9381 62.2427 78.031 62.4482 78.1919C62.6723 77.0096 63.3446 76.0563 64.0668 75.2021C64.8076 74.3231 65.4737 73.308 66.6814 72.72C66.8308 72.8438 67.0362 73.0108 67.2665 73.1965C66.7872 74.1127 66.3265 75.0164 65.3429 75.4931C65.3429 75.9511 65.3429 76.372 65.3429 76.8424C65.5733 76.7867 65.8098 76.7991 65.8596 76.7063C66.0588 76.3411 66.1958 75.9449 66.2705 75.7592C67.0798 75.0969 67.7334 74.5584 68.5676 73.8775C68.6174 74.5089 68.6423 74.9174 68.6734 75.3135C68.4182 75.4188 68.2252 75.4931 68.026 75.5797C68.0758 75.654 68.1443 75.7902 68.1754 75.784C68.5863 75.6973 68.9971 75.5921 69.4952 75.4683C69.6383 75.7159 69.8127 76.0192 69.987 76.3225C69.8936 76.4277 69.7815 76.5453 69.6633 76.6815C69.7317 77.1705 70.3231 77.6038 69.8687 78.1609C69.738 78.0433 69.6197 77.9319 69.4952 77.8267C69.4391 77.9319 69.3333 78.0433 69.352 78.1114C69.4142 78.3095 69.5325 78.489 69.6633 78.749C69.5699 79.6032 68.8789 80.1789 68.2439 80.7546C67.64 81.2993 66.9739 81.782 66.1958 82.401C66.5133 82.5867 66.7934 82.7415 67.1047 82.9211C66.9117 83.2925 66.7934 83.5215 66.6689 83.7567C66.7436 83.8372 66.8494 83.9548 67.0175 84.1405C66.6502 84.2024 66.339 84.2519 65.8908 84.32C66.0153 84.6295 66.1149 84.8894 66.2394 85.1927C65.8534 85.1927 65.4737 85.1927 65.1064 85.1927C64.8947 85.6198 64.7142 85.9912 64.5399 86.3503C64.7017 86.5236 64.8138 86.6474 64.9756 86.8207C64.627 86.8826 64.3158 86.9445 63.8676 87.025C63.9796 87.3098 64.0792 87.5697 64.1975 87.8792C63.9049 87.9226 63.5936 87.9659 63.189 88.0278C63.3073 88.3497 63.4069 88.6097 63.5688 89.0368C63.1268 88.8634 62.803 88.7396 62.4171 88.591C62.2365 88.9377 62.0498 89.2905 61.863 89.6372C61.9253 89.761 61.9502 89.8971 62.0311 89.9343C62.1681 90.0086 62.3486 89.9962 62.4855 90.0704C63.0022 90.3614 63.1267 91.0299 63.6372 91.3146C64.1913 91.6241 64.4278 92.1565 64.7764 92.6269C65.0939 93.054 65.3242 93.413 65.2931 93.9516C65.2807 94.1373 65.4488 94.3292 65.5484 94.5644C65.4612 94.7129 65.3305 94.9296 65.1562 95.2267C64.6955 95.2763 64.3656 95.889 63.5252 95.5672C62.0622 95.0039 60.5433 94.4963 58.9558 94.3106C58.8687 94.2982 58.794 94.162 58.6508 94.0135C58.1839 94.5334 57.7232 95.0534 57.1443 95.7033C57.1381 95.7652 57.1069 96.0315 57.0696 96.3162C56.7459 96.3657 56.4346 96.4152 55.949 96.4895C56.2665 96.9351 56.5093 97.2694 56.8642 97.7646C56.4595 97.647 56.1918 97.5728 55.8557 97.4737C55.7872 97.5542 55.644 97.7213 55.4884 97.907C55.6876 98.4455 55.5257 98.7798 54.8908 99.1388C54.6978 99.8197 54.5172 100.476 54.3616 101.021C54.0752 101.126 53.9134 101.188 53.708 101.262C53.876 101.429 53.9507 101.503 54.0814 101.633C53.5772 102.017 52.9921 102.333 52.5999 102.803C52.245 103.224 52.0956 103.818 51.8217 104.419C51.8466 104.462 51.9586 104.623 52.1392 104.889C51.7657 105.273 51.3984 105.651 51.0436 106.01C51.1805 106.183 51.2801 106.307 51.4606 106.523C51.2116 106.808 50.9626 107.087 50.6949 107.396C50.6949 107.693 50.6949 108.028 50.6949 108.38C50.2654 108.758 49.8545 109.148 49.5433 109.451Z" fill="#F6D06D"/>
<path d="M91.2957 116.18C92.0801 117.121 92.0801 117.127 93.0326 116.601C93.0575 116.904 93.0512 117.164 93.1135 117.412C93.1571 117.585 93.3065 117.728 93.3999 117.876C93.2816 117.994 93.2007 118.074 93.0948 118.179C93.3314 118.291 93.5555 118.396 93.929 118.569C93.543 119.114 93.182 119.634 92.8147 120.148C93.2816 120.984 92.2918 121.132 92.1486 121.584C91.9307 122.277 91.0841 122.426 91.0592 123.169C91.028 124.035 90.1378 124.14 89.7519 124.642C89.4157 125.081 88.8181 125.366 88.7434 125.923C88.8741 126.152 88.9799 126.332 89.1542 126.629C88.65 126.914 88.2142 127.161 87.7785 127.403L86.7202 127.898C86.3965 128.275 86.079 128.653 85.6494 129.154C85.6494 129.167 85.6494 129.389 85.6494 129.482C84.5662 130.275 83.5515 131.017 82.3749 131.872C82.7111 132.045 82.9166 132.144 83.2527 132.317C82.7858 132.967 82.3127 133.623 81.8085 134.329C83.1095 134.769 84.3421 135.19 85.6058 135.617C85.4813 135.864 85.3755 136.081 85.2323 136.366C85.7988 136.564 86.3217 136.749 86.9256 136.966C86.9256 137.195 86.9256 137.461 86.9256 137.703C87.3053 138.049 87.6353 138.353 87.9777 138.668C87.9963 139.064 88.0213 139.442 88.0399 139.807C88.2578 140.024 88.457 140.222 88.6562 140.42L87.0937 141.714C86.7264 142.122 86.3404 142.048 85.9296 141.776C85.8051 141.695 85.6308 141.646 85.4751 141.652C83.7196 141.689 82.1384 141.027 80.5447 140.445C79.3682 140.018 78.2352 139.473 77.015 138.947C76.6851 139.275 76.1622 139.529 76.0937 140.21C75.3902 140.377 74.6681 140.544 73.9896 140.705C73.6409 140.352 73.3608 140.073 73.0807 139.795C73.1865 139.677 73.2985 139.56 73.4604 139.38C73.2923 139.033 73.1118 138.656 73.006 138.433C72.483 138.514 72.0161 138.588 71.5617 138.656C71.3127 138.161 71.0823 137.715 70.852 137.263C70.74 137.375 70.659 137.455 70.6279 137.486C70.2544 137.108 69.8747 136.725 69.3517 136.198C69.5136 135.029 68.7604 133.685 68.9658 132.231C69.0094 131.927 68.7728 131.488 68.5238 131.253C67.5215 130.318 67.4779 128.969 67.0111 127.817C66.8305 127.378 66.6375 126.821 66.6251 126.288C66.6002 125.446 66.5006 124.58 66.6438 123.763C66.8741 122.469 67.1169 121.089 68.6358 120.581C69.1338 120.414 69.6879 120.395 70.3478 120.284C70.3478 121.175 70.3478 121.937 70.3478 122.915C70.9205 122.55 71.3065 122.302 71.8792 121.931C71.9601 122.166 72.0535 122.438 72.1469 122.717C72.234 122.655 72.315 122.587 72.4021 122.525C72.4021 123.014 72.4021 123.503 72.4021 124.079C72.6947 123.93 72.9063 123.825 73.1056 123.726C73.8277 124.351 73.809 125.156 73.7094 125.979C73.9522 126.065 74.1452 126.134 74.4627 126.245C74.3257 126.604 74.195 126.963 74.0331 127.403C74.2261 127.365 74.3257 127.378 74.3818 127.334C74.5125 127.229 74.6058 127.043 74.749 126.988C76.1995 126.443 76.9279 124.908 78.3846 124.376C78.6772 123.33 79.7853 123.107 80.4389 122.401C81.1112 121.664 82.0699 121.188 82.8792 120.575C83.6698 119.981 84.1118 118.984 85.139 118.668C85.8175 117.443 86.7887 116.514 87.9964 115.827C87.9528 114.998 89.0982 114.899 89.0733 114.02C89.5651 114.02 90.0569 114.02 90.6047 114.02C90.7168 114.131 90.8724 114.286 91.0343 114.447C90.2997 114.812 90.032 115.512 89.5651 116.254C90.5798 116.465 91.165 115.239 92.1175 115.802C91.8498 115.92 91.6257 116.025 91.2957 116.18Z" fill="#F6D06D"/>
<path d="M87.3551 98.3341C87.2742 97.5418 88.3947 97.4614 87.8656 96.7247C87.7286 96.8424 87.6103 96.9476 87.4921 97.059C87.4547 97.0219 87.38 96.9847 87.3738 96.9414C87.2493 96.1119 87.299 95.332 87.8904 94.6573C88.5379 93.9145 89.1853 93.1717 89.8078 92.4103C90.007 92.1689 90.1253 91.8656 90.3183 91.5313C90.0133 90.7328 89.5899 89.9096 89.2227 89.0863C88.8305 88.2073 88.8367 87.2479 88.4134 86.3751C88.1893 85.9109 88.7807 85.1 88.6375 84.5305C88.4819 83.8929 88.1021 83.3544 88.6562 82.7602C88.6686 81.0889 89.814 80.0428 90.8101 78.8852C91.7563 78.8852 92.7026 78.8852 93.6364 78.8852C93.8045 79.04 93.9663 79.1948 94.234 79.4486C93.8044 79.9933 93.3749 80.538 92.8956 81.1446C92.9516 81.256 93.0761 81.5284 93.2442 81.8874C93.406 81.8874 93.7111 81.9802 93.8169 81.8688C94.29 81.4045 94.8378 81.5965 95.3358 81.5408C95.5164 81.9369 95.672 82.2649 95.8401 82.6363C95.5849 82.952 95.3234 83.2801 94.925 83.7753C95.5288 83.8496 95.9335 83.9053 96.4688 83.9734C96.4688 84.4624 96.4688 84.9885 96.4688 85.589C97.6143 85.6261 97.7388 84.2457 98.7037 84.2519C99.1395 83.5896 99.7807 83.1254 100.36 82.5992C101.026 81.9864 101.654 81.3426 102.283 80.6927C102.862 80.0922 103.447 79.498 103.964 78.8543C104.499 78.1857 104.954 77.4615 105.265 77.0221C105.969 76.7745 106.361 76.6321 106.853 76.4587C107.014 76.6878 107.276 76.9168 107.344 77.1954C107.394 77.4058 107.226 77.6905 107.108 77.9258C106.977 78.1857 106.797 78.4272 106.797 78.8852C107.295 78.6748 107.786 78.4705 108.334 78.2415C108.627 78.8047 108.938 79.4052 109.411 80.3213C109.411 80.3027 109.386 80.637 109.417 80.9589C109.449 81.2127 109.554 81.454 109.648 81.7821C109.579 81.8997 109.455 82.1164 109.343 82.3145C109.517 82.5002 109.629 82.6178 109.729 82.7292C108.745 84.2953 107.861 85.917 106.778 87.4336C105.875 88.7087 106 88.7954 105.334 89.1544C105.439 89.272 105.545 89.3896 105.632 89.4825C104.288 90.9805 102.956 92.4661 101.605 93.9702C101.605 94.1374 101.605 94.3602 101.605 94.5273C102.669 95.2021 103.696 95.852 104.767 96.5329C104.611 96.8362 104.518 97.0219 104.369 97.3128C104.773 97.6595 105.047 98.328 105.838 98.0804C106.012 98.4208 106.149 98.6994 106.286 98.9717C106.186 99.1079 106.062 99.2812 105.894 99.5102C106.317 99.9312 106.703 100.315 107.114 100.724C106.958 101.126 106.821 101.472 106.672 101.85C106.778 102.036 106.909 102.259 107.033 102.463C106.971 102.593 106.952 102.723 106.877 102.772C106.709 102.884 106.467 102.902 106.342 103.039C105.614 103.856 105.483 103.905 104.562 103.589C103.373 103.187 102.096 102.946 101.007 102.358C99.5503 101.565 98.243 100.507 96.7428 99.4731C96.114 99.9374 95.4043 100.575 94.7196 101.299C94.0597 101.999 93.1881 102.556 91.9804 102.915C92.1921 102.568 92.2793 102.42 92.4723 102.11C91.7128 102.252 91.0778 102.37 90.4428 102.488C90.4055 102.413 90.3681 102.345 90.337 102.271C90.7167 101.974 91.1027 101.677 91.4824 101.38C91.2147 101.113 91.0591 100.959 90.891 100.792C90.5611 100.792 90.2187 100.792 89.7331 100.792C89.5775 100.408 89.4094 99.9745 89.204 99.4669C88.7869 99.4669 88.2951 99.4669 87.7971 99.4669C87.6103 98.9779 87.436 98.5384 87.3551 98.3341Z" fill="#F6D06D"/>
<path d="M94.7198 65.2113C94.1346 65.3475 93.6242 65.4713 92.8958 65.6446C92.1488 65.0999 91.2648 64.419 90.3435 63.7752C89.2478 63.0138 88.2954 62.042 87.0503 61.5034C86.764 61.3796 86.4589 61.2868 86.0543 61.1445C85.5687 60.4202 85.5127 59.0708 84.0809 59.2194C83.4334 58.6313 83.3525 57.61 82.4125 57.5109C82.1012 56.9848 81.9083 56.3843 81.5036 56.0129C79.6485 54.3045 78.3038 52.2432 77.1522 49.7673C77.0526 48.9997 77.0526 47.9783 76.8845 46.957C76.623 45.3476 77.4884 43.9611 78.889 43.0635C79.275 42.8159 79.4742 42.2774 80.1216 42.3331C80.5698 42.3702 81.043 42.135 81.6406 41.9927C81.8149 42.1474 82.0514 42.3517 82.344 42.6179C81.8647 43.4164 80.962 43.9239 80.8935 44.9948C81.9581 45.3476 82.4374 44.1715 83.5082 44.0353C83.6389 44.1529 83.8692 44.3572 84.0871 44.5491C83.7074 45.1186 83.4521 45.4962 82.979 46.2018C83.7136 45.9728 84.2303 45.9666 84.4233 45.7129C84.9089 45.0753 85.6932 44.8214 86.1539 44.1096C86.5772 43.4473 87.2744 42.9583 87.9903 42.494C88.9988 41.8441 89.8143 40.9094 90.7606 40.1542C92.1488 39.04 93.4499 37.8267 95 36.8983C95.61 36.533 96.0645 35.8955 96.5749 35.3693C97.0356 34.8865 97.7702 34.676 97.9134 33.958C98.7164 33.958 99.4323 33.958 100.198 33.958C100.198 34.3727 100.198 34.7504 100.198 35.4251C100.136 35.487 99.9179 35.7036 99.6502 35.9698C99.9552 35.914 100.254 35.8708 100.553 35.8089C100.852 35.7408 101.15 35.6479 101.605 35.5241C101.536 36.6135 101.586 37.5792 102.383 38.2849C102.215 38.5077 102.122 38.6377 101.929 38.8915C102.171 39.0215 102.452 39.1762 102.974 39.4609C102.439 39.6095 102.252 39.659 102.003 39.7271C102.097 39.9438 102.227 40.1419 102.271 40.3647C102.315 40.5814 102.283 40.8104 102.283 41.0332C101.655 41.8936 101.026 42.754 100.335 43.6949C100.21 43.7073 99.9428 43.7383 99.5444 43.7816C99.6627 43.9425 99.7374 44.0477 99.8308 44.1777C99.7312 44.4191 99.6191 44.6853 99.4883 44.9886C97.9943 44.9143 97.9819 46.4494 97.0605 47.0436C97.2535 47.2974 97.3531 47.4275 97.3967 47.4832C96.7804 48.096 96.1641 48.7088 95.5353 49.334C95.5851 49.3773 95.5042 49.3092 95.5416 49.3402C95.2614 49.6187 94.9751 49.9035 94.6887 50.1882C94.5953 50.1139 94.5019 50.0459 94.4086 49.9716C94.4086 50.2377 94.4086 50.4977 94.4086 50.8629C94.2093 50.702 94.0973 50.6091 93.8421 50.3986C93.8981 50.7762 93.9354 51.03 93.9915 51.3828C93.5682 51.9276 93.0577 52.5837 92.5036 53.2956C92.2546 53.1161 92.0865 52.9923 91.9371 52.8808C91.327 53.5927 90.6983 54.3231 90.0695 55.0535C90.3123 55.1711 90.5365 55.2826 90.8664 55.4435C90.5614 55.8273 90.2999 56.1554 90.0509 56.4711C90.0882 56.6072 90.0882 56.7372 90.1567 56.8053C91.1901 57.9566 92.4165 58.9903 93.2257 60.2778C94.116 61.7325 95.249 63.2305 94.7198 65.2113Z" fill="#F6D06D"/>
<path d="M118.276 40.8042C118.382 40.699 118.463 40.6185 118.544 40.538C118.481 40.4576 118.432 40.3709 118.357 40.3028C117.915 39.9005 117.361 39.56 117.006 39.1701C116.658 38.7863 116.265 38.4954 115.91 38.1487C115.437 37.6845 114.914 37.016 114.89 36.4156C114.846 35.3447 114.777 34.2676 115.039 33.141C115.481 31.1974 116.502 29.7303 117.859 28.3871C119.577 26.6848 121.289 24.9765 123.094 23.1814C122.41 22.5933 122.372 21.4915 121.289 21.2748C120.835 20.3958 120.38 19.5107 119.926 18.6317C119.502 17.8209 119.583 16.9419 119.583 16.0753C119.59 15.4563 119.583 14.8373 119.583 14.2183C120.156 13.4941 120.729 12.7636 121.289 12.0518C122.229 12.0518 123.101 12.0518 124.115 12.0518C123.661 12.8193 123.275 13.4817 122.895 14.1254C123.941 14.8806 124.327 13.2464 125.242 13.7416C125.815 14.5216 124.75 14.8868 124.408 15.6481C125.062 15.4934 125.441 15.4006 125.902 15.2891C126.176 16.0938 126.039 16.7933 125.603 17.5485C125.834 17.6352 126.014 17.7094 126.294 17.8146C126.487 18.0251 126.083 18.056 126.014 18.3655C126.288 18.7803 126.618 19.2878 127.029 19.9068C129.83 16.9852 133.403 15.0229 135.588 11.6865C136.161 11.6865 136.659 11.6865 137.294 11.6865C137.163 12.2436 137.051 12.7326 136.89 13.395C137.363 13.2278 137.724 13.104 138.228 12.9245C138.228 13.4321 138.228 13.853 138.228 14.2368C138.502 14.3049 138.651 14.3482 138.807 14.3853C138.851 14.4782 138.919 14.5711 138.931 14.6701C138.95 14.8373 138.907 15.0105 138.944 15.1715C139.286 16.9233 138.409 18.316 137.493 19.6283C136.497 21.052 135.34 22.3581 134.169 23.819C135.003 24.8155 136.336 25.2983 137.512 26.2268C137.531 26.3815 137.568 26.6415 137.612 26.9387C137.923 27.3224 138.427 27.7 138.57 28.1829C138.882 29.2351 139.654 30.2193 139.131 31.575C139 31.6307 138.72 31.773 138.433 31.8968C138.147 32.0206 137.848 32.1259 137.525 32.2497C137.076 31.7978 136.062 31.9402 136.199 31.055C135.159 30.7579 134.25 30.4918 133.366 30.238C133.167 29.8913 132.98 29.5694 132.775 29.2104C132.146 29.2104 131.542 29.2104 130.901 29.2104C130.851 29.0123 130.814 28.8576 130.77 28.6657C130.079 28.1333 129.494 28.7585 129.089 28.8699C128.535 29.5075 128.112 29.9965 127.645 30.5351C127.508 30.436 127.402 30.3494 127.216 30.2132C127.016 30.4917 126.798 30.7951 126.537 31.1665C126.5 31.1231 126.587 31.2284 126.711 31.3955C125.921 31.5936 125.858 32.3797 125.51 33.0235C125.236 32.8563 125.062 32.7449 124.788 32.5777C124.738 32.8687 124.694 33.1535 124.638 33.4877C124.52 33.5187 124.371 33.562 124.097 33.6363C124.022 34.3234 123.929 35.1528 122.908 34.9238C122.565 35.3632 121.993 35.778 122.03 36.1185C122.148 37.146 121.283 37.635 121.046 38.4397C120.934 39.4549 120.953 39.4548 121.27 40.1296C120.53 40.7176 119.695 41.1076 118.737 41.3552C118.6 41.2128 118.463 41.0333 118.276 40.8042Z" fill="#F6D06D"/>
<path d="M18.9896 21.7328C18.5662 21.7823 18.311 21.8133 17.9935 21.8566C18.1865 22.0733 18.2986 22.197 18.4791 22.3889C18.0558 23.1689 17.259 23.6331 16.7174 24.3202C16.7983 24.4007 16.8792 24.4812 16.9851 24.5864C16.5555 24.9207 16.1198 25.2611 15.7525 25.5458C15.547 26.0782 15.9828 26.6786 15.2669 27.0066C15.9019 27.4276 16.4808 27.8052 17.0473 28.1951C18.8277 29.4208 20.7389 30.473 22.208 32.1196C23.0484 33.0666 23.8453 33.9766 23.8577 35.3322C23.8577 35.5612 24.0943 35.7841 24.281 36.1184C23.7705 36.4402 23.2912 36.7435 22.6874 37.1211C19.3008 35.1465 15.796 33.3885 12.5838 30.8073C12.3535 30.9373 11.8492 31.0487 11.7558 31.3025C11.3885 32.3177 10.6664 33.0357 9.93184 33.7599C9.84469 33.8466 9.87581 34.0571 9.85091 34.218C9.53342 34.2551 9.27198 34.2799 8.86112 34.3232C8.94204 34.5894 9.00429 34.8184 9.12257 35.2146C8.46891 35.7593 7.98335 36.5702 7.72189 37.573C7.57248 38.1548 7.0122 38.6377 6.50796 39.3371C6.50796 40.3894 6.50796 41.6646 6.50796 43.0078C6.18424 43.0264 5.91656 43.0449 5.61775 43.0635C5.5555 43.2492 5.48081 43.4411 5.39988 43.6763C5.03259 43.6763 4.65908 43.6763 4.22953 43.6763C4.049 43.1502 3.85602 42.6055 3.64436 41.9865C3.32065 42.1288 2.99691 42.2712 2.60472 42.4383C2.52379 42.1907 2.46156 41.9988 2.39931 41.8069C2.29971 41.7698 2.20009 41.6769 2.11294 41.6955C1.39703 41.8316 0.90526 41.2251 0.811881 40.8413C0.450817 39.2753 -0.563907 37.7277 0.413456 36.0502C0.432132 34.3851 1.47176 33.1162 2.05693 31.6677C2.24991 31.1973 3.07785 31.2778 2.85374 30.4607C2.76036 30.1264 3.37667 29.5941 3.67548 29.1546C3.94939 28.7585 4.20461 28.3499 4.5221 27.9847C4.88939 27.5638 5.33762 27.2047 5.70491 26.7776C6.00995 26.4248 6.24649 26.0101 6.54531 25.5706C4.48475 24.0293 3.22104 21.838 1.77679 19.8015C1.31612 17.8269 0.513043 15.9081 0.824306 13.5992C1.30365 13.0545 1.91372 12.3549 2.56737 11.606C3.29572 11.7545 4.11126 11.3089 4.77736 12.0579C4.34159 12.6397 3.91203 13.2216 3.47627 13.8034C3.59454 13.9272 3.70659 14.051 3.81865 14.1624C4.73998 14.3543 5.07615 13.0173 6.04106 13.3268C6.18424 13.6053 6.32743 13.8777 6.47684 14.1686C6.17803 14.3543 5.84185 14.571 5.48701 14.8C5.70489 15.0167 5.86678 15.1776 6.02241 15.3323C6.50175 14.8371 6.96864 14.831 7.53514 15.5057C7.48533 15.8833 7.77791 16.428 7.21141 16.8674C7.44797 16.9789 7.67832 17.0903 8.00826 17.245C7.73435 17.604 7.49777 17.9259 7.24876 18.254C7.4791 18.3345 7.6721 18.4026 8.08919 18.5512C7.70945 18.6502 7.5289 18.6997 7.21764 18.7864C7.24877 19.0588 7.18652 19.4363 7.34215 19.6467C7.98958 20.5133 8.7117 21.3367 9.47741 22.2652C9.90073 21.8876 10.2244 21.609 10.5419 21.3181C12.397 19.5973 13.9534 17.5298 16.2567 16.3104C16.2443 15.6728 16.9103 15.7224 17.2029 15.3819C17.5266 14.9981 17.8877 14.6452 18.1243 14.3976C18.5538 14.3976 18.8153 14.3976 19.2635 14.3976C18.7468 15.1528 17.8628 15.58 18.1492 16.6756C18.8837 16.2361 19.6059 15.809 20.4836 15.289C20.4027 15.7904 20.3467 16.1742 20.2782 16.6137C20.5832 16.7685 21.0439 16.9974 21.5357 17.245C21.4112 17.505 21.3054 17.7217 21.1809 17.9755C21.3552 18.0126 21.5108 18.0436 21.6726 18.0745C21.6913 18.1426 21.7536 18.254 21.7225 18.2912C21.3116 18.8483 20.7576 19.3373 20.4899 19.9501C20.1413 20.7424 19.4129 21.089 18.9896 21.7328Z" fill="#F6D06D"/>
<path d="M49.9785 38.9664C51.3294 37.3137 52.4748 35.9457 53.5891 34.5529C54.6474 33.2345 55.5563 31.8107 56.378 30.3561C56.2722 30.2261 56.1726 30.1023 55.9983 29.8856C56.2847 29.5638 56.571 29.2419 56.8699 28.8953C57.2496 28.8953 57.6293 28.8953 57.9904 28.8953C58.4075 29.31 58.7436 29.9042 59.223 30.059C59.8082 30.2447 59.8891 30.7089 60.1256 31.0556C60.9412 32.2564 61.5139 33.482 60.8851 35.0481C60.4992 36.0137 60.107 36.9732 59.7023 37.9326C59.5841 38.2236 59.4907 38.5269 59.3413 38.9664C59.1421 39.1645 58.8246 39.4802 58.4822 39.8206C58.4822 40.2477 58.4822 40.6934 58.4822 40.8853C57.8098 42.0923 57.2558 43.1013 56.6395 44.2031C57.4862 44.7726 58.2643 45.3235 59.0673 45.8373C60.6548 46.8524 61.9683 48.1213 62.7527 49.8545C62.9208 50.2259 63.0017 50.6468 63.176 51.2287C63.1138 51.3587 62.9706 51.6868 62.8025 52.0458C62.4539 52.2068 62.0742 52.3801 61.7816 52.5163C60.9848 52.2439 60.2751 52.0396 59.6027 51.761C58.9304 51.4825 58.283 51.1297 57.6231 50.8078C57.511 49.8298 56.3905 50.226 55.9298 49.5574C55.5501 49.0127 54.7097 48.7837 53.9689 48.3565C51.7589 50.6035 49.8104 53.0547 48.0175 55.636C47.8806 55.834 47.9242 56.1559 47.8868 56.4221C47.1087 57.0163 46.3367 56.9297 45.5648 56.385C45.5648 56.1684 45.5648 55.9455 45.5648 55.8465C44.5625 55.2461 43.6163 54.6889 42.5892 54.0761C42.0974 53.5004 42.3463 52.5967 42.0226 51.9035C41.6678 51.1235 41.9666 50.3745 41.8297 49.7989C42.9502 47.3105 44.2824 45.1316 46.1873 43.2498C46.1873 42.9279 46.1873 42.5503 46.1873 42.0985C45.0855 41.3371 44.4069 40.1487 43.7097 38.985C43.4794 38.595 43.442 38.0874 43.3362 37.6231C43.1183 36.6884 42.7946 35.7847 42.8257 34.7943C42.8817 32.894 43.9649 31.5384 45.7889 30.8575C46.9406 30.4304 48.0549 30.647 49.2937 30.5232C48.6276 31.8912 47.034 31.7736 46.1002 32.925C47.7063 32.8569 48.6837 31.3465 50.3271 31.6374C50.2649 32.0212 50.2026 32.405 50.1341 32.8073C50.433 32.9125 50.8749 33.0673 51.2983 33.2159C51.2983 34.0206 51.2983 34.6891 51.2983 35.3576C50.8625 36.1128 50.3832 36.8741 49.991 37.6726C49.8727 37.9388 49.9785 38.3102 49.9785 38.9664Z" fill="#F6D06D"/>
<path d="M78.671 17.951C78.036 18.7433 77.4571 19.4675 76.8159 20.266C76.8159 20.9036 76.8159 21.6154 76.8159 22.4325C76.2182 22.6739 75.6393 22.903 74.9794 23.163C74.2013 22.414 73.89 21.4174 73.641 20.4827C73.3111 20.6065 73.0122 20.7118 72.5765 20.8727C72.2341 20.3837 71.817 19.9503 71.5929 19.4366C70.9205 17.8953 70.9766 16.2487 71.045 14.695C71.3252 14.0575 71.5804 13.488 71.8917 12.7761C71.4248 12.7081 71.0077 12.77 70.8334 12.5967C69.7378 11.4949 68.6546 10.3745 67.6461 9.18599C67.1045 8.54842 66.5318 7.82415 66.3201 7.04421C66.0026 5.90525 65.9964 4.67964 65.847 3.41069C66.3637 2.68646 66.7808 1.84463 67.4406 1.25659C68.0445 0.718056 68.9036 0.470439 69.8312 0C70.049 0.235219 70.2607 0.45805 70.4723 0.687079C70.3478 0.804689 68.6919 2.39552 68.6919 2.39552C68.8102 2.51313 68.9347 2.63696 69.109 2.81028C69.8685 2.25937 70.6217 1.54131 71.8606 2.01175C71.5555 2.42647 71.3127 2.75454 70.8956 3.32402C71.4621 3.10737 71.7796 2.9836 72.2154 2.81028C72.4208 3.11978 72.6449 3.45408 72.9126 3.85642C72.4457 4.32067 72.0784 4.68584 71.6302 5.13152C71.9166 5.18723 72.0722 5.22436 72.3274 5.27388C71.9415 5.91764 72.1594 6.80901 71.1696 7.14327C72.1531 8.35032 73.2488 9.01261 74.3631 9.74303C78.1045 6.65423 81.7649 3.63974 85.4752 0.575702C85.9234 0.575702 86.4525 0.575702 87.1124 0.575702C86.826 1.14518 86.5957 1.60326 86.3654 2.06751C86.8572 2.43891 87.2494 2.02418 87.6851 1.83229C88.9426 3.00219 89.2414 4.45684 88.98 6.0848C88.4571 6.75332 87.9217 7.44037 87.3739 8.13365C87.4112 8.1646 87.4922 8.23889 87.7163 8.44935C87.4112 8.48649 87.1249 8.52366 86.8323 8.5608C86.9443 8.6846 87.0626 8.80219 87.1747 8.92599C86.9506 8.92599 86.7265 8.92599 86.5459 8.92599C85.3818 11.1049 83.4146 12.5843 81.9766 14.5651C83.95 15.6607 86.1599 16.4715 88.2454 17.7095C88.3077 18.019 88.3824 18.3781 88.4633 18.7928C88.7185 18.5204 88.9115 18.3224 89.0983 18.1243C89.9387 18.2357 89.92 19.1952 90.6297 19.548C91.246 19.8575 91.6071 20.6745 92.0864 21.275C92.0864 21.9373 92.0864 22.6058 92.0864 23.2805C91.9245 23.4415 91.7627 23.6024 91.5386 23.8252C89.7893 23.6395 88.345 22.6492 86.7514 21.8507C86.7202 21.8816 86.6019 21.9869 86.5459 22.0302C85.4316 21.7579 84.7655 20.5693 83.4831 20.7426C82.8855 19.9751 81.9019 19.9194 81.1299 19.4676C80.358 19.0281 79.6048 18.5328 78.671 17.951Z" fill="#F6D06D"/>
<path d="M128.112 44.9209C128.461 45.119 128.741 45.2737 129.145 45.4966C129.052 46.0475 128.959 46.5984 128.847 47.2855C129.133 47.7745 129.369 48.5235 130.235 48.8268C130.621 48.2882 130.857 47.6755 131.604 47.3783C132.127 47.1679 132.432 46.4251 132.831 45.9237C133.273 45.3666 133.883 44.989 134.231 44.3081C134.524 43.7386 135.147 43.3487 135.545 42.8163C135.956 42.2654 136.261 41.6464 136.616 41.0584C137.282 41.0584 137.886 41.0584 138.527 41.0584C138.626 41.5907 138.794 42.1169 138.16 42.6678C138.707 42.6925 139.124 42.7111 139.51 42.7296C139.685 43.5158 139.84 44.2277 139.99 44.9271C139.716 45.0324 139.523 45.1066 139.293 45.1994C139.317 45.3542 139.311 45.5151 139.367 45.6513C139.84 46.815 139.766 47.2112 138.85 48.1088C138.471 48.4802 138.315 49.062 138.465 49.4273C138.707 49.9967 137.979 49.78 138.321 50.3062C137.954 50.0091 137.842 49.91 137.643 49.7491C137.643 50.1081 137.643 50.3743 137.643 50.69C137.282 50.7581 136.977 50.82 136.603 50.8881C136.603 51.2533 136.603 51.6309 136.603 51.8104C136.167 52.2623 135.862 52.5779 135.607 52.8441C136.199 53.4197 136.746 53.9521 137.201 54.3916C137.201 54.9363 137.201 55.2644 137.201 55.6605C137.568 56.0257 137.948 56.4033 138.34 56.7995C138.216 57.0161 138.141 57.1524 138.004 57.3876C138.184 57.7466 138.402 58.1861 138.682 58.7555C138.353 59.4364 137.991 60.1854 137.649 60.8972C137.033 60.8972 136.591 60.8972 136.236 60.8972C134.586 59.9564 132.993 59.0465 131.399 58.1427C131.119 58.576 130.888 58.9227 130.702 59.2136C130.409 59.0712 130.179 58.9598 129.793 58.7741C129.793 59.356 129.793 59.7768 129.793 60.3463C129.276 60.1544 128.915 60.0245 128.237 59.7707C128.517 60.1483 128.591 60.2535 128.741 60.4516C128.429 60.7425 128.1 61.052 127.577 61.5348C127.471 60.9035 127.408 60.5135 127.334 60.0802C127.57 59.9997 127.763 59.9316 128.012 59.845C128.037 59.7212 128.068 59.5664 128.1 59.3745C127.882 59.3003 127.689 59.2322 127.489 59.1641C127.564 58.867 127.639 58.5636 127.763 58.0561C127.446 58.3408 127.328 58.4522 127.253 58.5203C126.531 58.3841 125.846 58.2603 125.124 58.1241C125.012 57.9137 124.869 57.6352 124.701 57.3133C124.831 56.8181 124.974 56.261 125.124 55.6853C125.454 55.741 125.877 55.8091 126.3 55.8772C126.319 55.8153 126.338 55.7534 126.35 55.6915C125.908 55.4749 125.472 55.252 125.08 55.0601C125.311 54.5959 125.535 54.1254 125.771 53.6426C124.657 51.7547 123.437 49.9781 122.752 47.9293C122.341 46.5179 122.827 45.1252 123.032 43.7324C123.194 42.6492 124.09 41.8878 125.074 41.3431C125.211 41.2626 125.348 41.176 125.572 41.0398C126.076 41.0398 126.68 41.0398 127.259 41.0398C127.527 41.306 127.763 41.5412 127.931 41.7083C127.602 42.0364 127.259 42.3768 127.06 42.5749C127.06 43.0763 127.06 43.2992 127.06 43.6149C127.433 43.5158 127.794 43.4292 128.205 43.3177C128.423 43.5158 128.616 43.7015 128.89 43.9553C128.61 44.3205 128.367 44.6052 128.112 44.9209Z" fill="#F6D06D"/>
<path d="M26.0118 62.2589C26.2048 62.4508 26.3667 62.6117 26.5908 62.8345C25.5512 63.7197 24.5178 64.5987 23.4844 65.4777C23.5093 65.5396 23.5342 65.5953 23.5528 65.6572C23.7707 65.5953 24.0384 65.5891 24.2003 65.4529C24.4991 65.2053 24.7356 64.8835 25.1465 64.803C25.8686 64.3944 26.597 63.9859 27.3005 63.5898C27.9168 64.085 27.4685 64.4749 27.2008 65.0753C27.6055 64.9206 27.8669 64.8277 28.1471 64.7163C28.2716 64.8401 28.4272 64.9948 28.5891 65.1558C28.5891 65.8305 28.5891 66.5052 28.5891 67.1861C28.3899 67.378 28.1906 67.5761 27.979 67.7803C28.0101 67.8608 28.0164 67.966 28.0786 68.0094C28.4646 68.2941 28.8505 68.5913 29.2552 68.8451C29.691 69.1174 30.3072 69.1979 30.3197 69.9035C30.3197 69.984 30.4566 70.0769 30.55 70.1388C30.8986 70.3802 31.3095 70.5658 31.5897 70.8691C31.876 71.1724 32.0316 71.5872 32.3242 72.0762C32.3242 72.361 32.3242 72.8129 32.3242 73.2585C32.0441 73.5371 31.7639 73.8156 31.5274 74.0508C29.3859 73.2894 27.2693 72.5405 25.1527 71.7853C24.6796 72.0329 24.1754 72.3052 23.6711 72.5714C23.6525 72.5342 23.6276 72.5033 23.6089 72.4662C23.1669 72.9057 22.7311 73.3389 22.1646 73.9022C22.1584 74.0322 22.1397 74.2984 22.121 74.6265C21.2308 75.4807 20.297 76.3721 19.5438 77.0901C19.164 78.2538 19.357 79.4546 17.7945 79.6961C17.4708 79.1823 16.3129 79.1019 16.5743 77.901C16.2506 77.8082 15.8585 77.6967 15.4289 77.5729C15.3293 77.6348 15.155 77.7524 15.018 77.8453C14.5823 77.3872 14.2025 76.9849 13.6423 76.3968C13.5178 75.3445 13.3621 73.9951 13.194 72.5776C14.6072 71.061 15.9954 69.5693 17.4646 67.9846C16.8856 67.6256 16.2942 67.3223 15.7838 66.9199C15.2546 66.499 14.8126 65.9791 14.3208 65.4901C14.4578 65.0506 14.5947 64.6049 14.7441 64.1221C14.4702 64.0293 14.271 63.9611 14.022 63.8745C14.022 63.5155 14.022 63.1379 14.022 62.7356C14.1154 62.6427 14.2399 62.5189 14.3768 62.3827C14.8624 62.2836 15.3729 62.1846 16.0016 62.0608C17.6762 62.9955 19.5127 64.0168 21.2993 65.0134C23.0984 64.3511 24.2563 62.7913 26.0118 62.2589Z" fill="#F6D06D"/>
</svg>
