<svg width="148" height="132" viewBox="0 0 148 132" fill="none" xmlns="http://www.w3.org/2000/svg">
<path d="M61.4379 77.2064C61.6872 76.7814 62.0046 76.3868 62.1633 75.9315C62.7224 74.2924 64.1654 73.6625 65.5481 73.2755C66.5152 73.0023 67.5352 72.676 68.6458 72.7519C71.1618 72.9264 72.9297 74.1178 74.1915 76.2578C74.7808 77.2595 75.3324 78.2688 75.5742 79.3919C75.7404 80.1508 75.9444 81.0386 75.7253 81.7292C74.8564 84.4232 73.3831 86.6922 70.5951 87.7621C69.8244 88.0581 69.0236 88.2706 68.2378 88.5134C68.1094 88.5514 67.9432 88.5665 67.8299 88.5134C65.805 87.5269 63.8481 86.3962 62.6694 84.3928C62.1632 83.5353 61.6948 82.5412 61.8232 81.456C61.9743 80.1432 61.4152 78.7621 62.1934 77.5175C61.9516 77.4189 61.7174 77.3202 61.4379 77.2064ZM65.465 83.5125C66.4925 83.5125 67.3991 83.6719 68.2227 83.4746C69.7489 83.1179 71.804 79.999 71.6831 78.413C71.668 78.1701 71.5849 77.8135 71.4187 77.7224C70.6556 77.2823 69.8472 76.9104 69.0538 76.5158C68.5854 77.3278 67.1272 76.4172 66.9307 77.7604C66.8476 78.3143 65.5859 77.9577 65.9259 78.9442C65.1174 80.4012 65.7143 81.9493 65.465 83.5125Z" fill="#185951"/>
<path d="M1.23585 101.505C0.578519 101.353 0.200701 101.08 0.434921 100.306C0.533142 100.261 0.714518 100.208 0.858072 100.109C2.19539 99.1375 3.83488 98.9934 5.33842 98.5153C5.99574 98.3028 7.03082 98.4925 7.58237 98.9175C9.28991 100.23 11.1788 101.369 11.9873 103.622C12.6522 105.482 12.3877 107.872 11.209 109.39C10.529 110.27 9.56952 110.832 8.86686 111.727C7.71087 111.537 6.50197 112.008 5.35354 111.31C4.8171 110.983 2.48244 109.746 2.02911 109.405C0.963793 108.608 0.548256 107.439 0.155372 106.256C0.0722616 106.013 -0.0562147 105.702 0.0268955 105.497C0.533112 104.199 0.162968 102.643 1.23585 101.505Z" fill="#185951"/>
<path d="M107.096 60.2231C107.489 60.3597 107.73 60.4432 107.98 60.5343C107.776 61.1793 107.587 61.7864 107.39 62.4011C107.066 62.439 106.741 62.4769 106.287 62.5301C106.438 62.735 106.529 62.864 106.68 63.0613C105.985 63.9264 105.177 64.5866 103.937 64.5335C103.628 64.5183 103.303 64.6473 103.001 64.7459C102.162 65.0267 101.338 65.0798 100.5 64.7004C100.213 64.5714 99.6686 64.4196 99.578 64.541C98.8073 65.5427 98.1727 64.2527 97.4096 64.4272C97.0922 64.5031 96.79 63.6684 96.11 63.6456C95.7474 63.6304 95.4225 63.0916 95.0371 62.8791C94.5838 62.6211 94.41 61.9381 93.7376 62.0368C93.4203 61.0123 92.4079 60.5418 91.8941 59.6995C90.7608 57.8175 90.7608 55.1084 91.6901 53.2795C92.5137 51.6632 94.0701 51.1927 95.5057 52.2778C96.2008 52.809 96.7296 53.2264 97.5153 52.589C97.7873 53.0215 98.0443 52.847 98.2407 52.5359C98.5581 52.0426 99.034 52.0122 99.5024 52.1109C101.134 52.4524 102.789 52.9153 104.096 53.9018C105.252 54.7669 106.076 56.0721 107.043 57.1877C106.982 58.1666 108.229 59.1 107.096 60.2231ZM94.3043 58.8648C95.9438 60.4356 98.6789 61.3083 100.923 61.2248C102.003 61.1869 102.812 60.8074 103.53 60.0638C103.945 59.6388 104.368 59.2214 104.799 58.7813C104.557 58.4474 104.338 58.2577 104.27 58.0224C103.953 56.96 103.371 56.2922 102.17 56.2012C101.626 56.1632 101.112 55.8066 100.568 55.6396C100.213 55.5334 99.5855 55.3512 99.5024 55.4802C99.0038 56.2315 98.7393 55.0553 98.082 55.6244C97.7042 55.9811 97.0848 56.573 96.4501 57.1649C95.9439 56.7627 95.5434 56.444 95.1807 56.1632C93.8963 56.8158 94.546 57.9086 94.3043 58.8648Z" fill="#185951"/>
<path d="M122.108 107.303C122.728 106.976 123.423 106.438 124.443 106.855C124.337 106.999 124.247 107.128 124.058 107.386C124.458 107.492 125.108 107.515 125.161 107.697C125.501 108.965 126.921 109.329 127.352 110.505C128.07 112.493 128.704 114.482 127.647 116.546C127.526 116.773 127.405 116.827 127.579 117.153C128.047 118.048 127.609 118.693 126.793 119.156C126.226 119.483 126.536 119.801 126.868 120.12C126.158 121.038 125.448 121.956 124.745 122.859C124.012 122.859 123.332 122.859 122.479 122.859C122.063 122.404 121.549 121.865 121.043 121.304C120.59 120.803 119.993 120.492 119.585 119.892C118.656 118.534 118.482 117.069 118.792 115.552C119.033 114.375 119.608 113.275 119.895 112.106C120.084 111.34 120.265 110.725 121.028 110.308C121.33 110.141 121.542 109.526 121.534 109.124C121.519 108.532 121.935 108.312 122.192 107.933C122.267 107.819 122.146 107.546 122.108 107.303Z" fill="#185951"/>
<path d="M139.176 49.6067C138.866 50.0621 138.594 50.4643 138.307 50.8816C138.126 50.7071 137.96 50.4415 137.839 50.4567C136.373 50.6767 135.89 49.2577 134.9 48.6961C134.787 48.6354 134.711 48.2256 134.779 48.1725C135.807 47.2922 134.711 46.6396 134.575 45.8807C134.409 46.0249 134.265 46.1615 134.122 46.2905C134.076 46.245 133.978 46.1919 133.986 46.1463C134.031 45.2433 133.547 44.2644 134.447 43.4827C134.651 43.3082 134.613 42.8681 134.764 42.5949C135.157 41.8967 135.263 40.9785 135.973 40.5383C136.706 40.0906 136.419 39.1724 137.151 38.6412C138.391 37.7457 140.332 37.2904 141.79 37.8368C143.898 38.626 145.243 40.2424 146.037 42.1927C146.671 43.7635 146.966 45.5468 146.671 47.2695C146.498 48.2711 145.621 48.9617 144.843 49.5688C144.609 49.7509 144.027 49.4701 143.475 49.3867C143.513 49.5309 143.521 49.8344 143.657 50.0621C143.876 50.4035 143.959 50.7147 143.543 50.8513C143.113 50.9879 142.962 50.6919 142.984 50.267C142.992 50.1987 142.795 50.1152 142.584 49.9558C142.259 50.229 141.911 50.5174 141.496 50.8664C141.428 50.6388 141.367 50.4111 141.246 49.9938C140.702 50.4946 140.219 50.9499 139.501 51.6177C139.358 50.7526 139.274 50.2062 139.176 49.6067ZM142.977 42.352C142.878 42.2534 142.742 42.1775 142.697 42.0561C142.357 41.1986 141.458 41.3427 140.831 41.1075C140.491 40.9861 139.902 41.5476 139.433 41.8132C139.229 41.9347 138.806 42.6176 138.534 43.1185C138.323 43.5055 138.081 44.1354 137.794 44.1733C137.144 44.2568 137.28 44.621 137.219 45.0156C137.182 45.2812 137 45.5317 136.902 45.7593C138.345 47.2315 139.705 46.6168 141.186 45.9187C142.795 45.1598 143.082 43.8925 142.977 42.352Z" fill="#185951"/>
<path d="M35.379 70.9535C35.719 71.2418 35.8701 71.3709 36.059 71.5302C36.1875 71.2646 36.2857 70.8017 36.4595 70.7714C36.8977 70.6955 37.487 70.6499 37.8119 70.8776C38.7865 71.5682 39.8066 72.2891 40.5243 73.2149C41.2043 74.0952 41.6652 75.2183 41.9674 76.311C42.1487 76.9409 42.0429 77.6618 41.6803 78.4207C40.9247 79.9763 40.1768 81.3802 38.6052 82.2909C37.9101 82.6931 37.1319 82.7158 36.4746 83.1256C36.2177 83.285 35.9004 83.3609 35.5982 83.4747C35.4848 83.2774 35.3412 83.0118 35.1977 82.7538C34.9635 83.0877 34.8048 83.0497 34.4497 82.7993C33.8075 82.3592 32.5684 81.2209 32.032 80.7807C30.3018 79.3617 31.2991 77.5935 31.3747 75.9695C31.3898 75.5598 32.0395 75.1879 32.4248 74.7705C33.8452 75.537 34.5706 76.7588 35.0692 78.1095C36.4594 77.935 36.6861 76.6298 37.4492 75.9088C37.6154 75.7495 37.5021 75.2866 37.5323 74.6264C36.8674 75.2942 36.4217 75.7419 36.0515 76.1137C35.0088 76.0378 35.1297 74.7781 34.2533 74.6947C34.2381 73.8751 34.1022 73.0328 34.2608 72.2435C34.3364 71.8034 34.9181 71.4543 35.379 70.9535Z" fill="#185951"/>
<path d="M114.107 17.1581C114.697 16.5661 115.135 16.126 115.641 15.6176C116.442 15.6176 117.318 15.6176 118.195 15.6176C118.459 14.502 117.636 14.9498 117.107 14.8056C117.167 14.6614 117.182 14.4869 117.273 14.411C117.923 13.8494 116.963 13.6294 117.054 13.0602C117.492 12.0206 118.701 11.8309 119.615 11.2617C119.872 11.1024 120.378 11.1858 120.711 11.3224C122.38 11.9826 122.985 13.4928 123.665 15.0105C124.095 15.9894 123.695 17.1429 124.451 17.9928C124.148 19.1083 124.035 20.3301 123.499 21.3166C122.932 22.3639 121.715 22.9406 120.567 23.0544C119.932 23.1151 119.381 23.8664 118.761 23.3807C118.232 22.9709 117.492 23.1986 117.008 22.5536C116.668 22.0907 115.905 22.0603 115.701 21.2483C115.603 20.8461 114.84 20.7854 114.492 20.148C113.933 19.1083 114.349 18.1294 114.107 17.1581Z" fill="#185951"/>
<path d="M104.98 83.3155C104.731 82.8299 104.474 82.3214 104.255 81.9041C104.489 80.6671 105.887 81.0086 106.348 80.0524C106.793 79.1114 108.161 79.5136 108.894 78.5575C108.607 78.3602 108.32 78.1705 108.032 77.9807C108.078 77.9276 108.131 77.7834 108.214 77.7683C109.604 77.5178 110.617 78.2615 111.561 79.1039C112.347 79.8096 112.8 80.7734 113.389 81.6233C113.722 82.1014 113.14 82.5415 113.646 82.845C114.092 83.1182 114.236 83.566 114.152 84.0744C114.062 84.636 114.591 85.2355 114.492 85.5314C114.266 86.2144 114.251 86.9353 114.024 87.6031C113.593 88.8476 112.966 89.9783 111.999 90.889C111.44 91.4126 110.662 91.5871 109.68 91.4126C107.315 90.9952 107.284 91.0256 106.219 89.8417C105.381 88.9159 104.844 87.8687 104.617 86.5786C104.489 85.8501 104.058 85.2051 104.572 84.4766C103.877 83.8164 104.92 83.8316 104.98 83.3155ZM106.861 81.9875C107.118 83.012 107.345 83.8771 107.541 84.7422C107.587 84.9395 107.64 85.2506 107.534 85.3417C106.627 86.184 107.466 86.8822 107.692 87.6259C109.279 87.6486 109.234 87.55 110.05 86.3889C111.017 85.0002 110.851 83.4977 110.828 81.9875C110.82 81.7143 110.564 81.3804 110.329 81.1831C109.861 80.7885 109.098 81.3956 108.675 80.743C108.531 80.9631 108.388 81.1831 108.244 81.4032C107.443 80.872 107.239 81.7295 106.861 81.9875Z" fill="#185951"/>
<path d="M49.7345 27.1826C51.6083 28.245 52.039 29.1253 51.0114 30.7417C50.4825 31.5764 51.1398 32.5174 50.3843 33.2004C50.2709 33.299 50.5656 33.853 50.6789 34.1945C50.9887 35.1355 51.291 35.219 52.3034 34.9458C54.2451 34.4297 55.1669 33.0562 55.6354 31.1818C54.91 30.9769 54.1847 30.7796 53.4594 30.5595C52.5754 30.2939 52.9002 29.2998 52.5376 28.8445C52.9531 28.4272 53.4064 27.9718 53.8673 27.5089C55.1215 26.8032 55.8998 28.1843 57.0482 28.4954C57.8869 29.8614 59.058 31.0376 58.9371 32.8665C58.786 35.1734 57.7962 37.0933 55.2878 38.0116C53.1949 38.778 51.5403 38.4593 49.7496 36.8581C48.6541 35.8792 47.7625 34.8775 47.7247 33.1397C47.6794 30.8555 48.1101 28.8445 49.7345 27.1826Z" fill="#185951"/>
<path d="M46.8634 112.023C45.0727 112.554 44.03 111.34 42.8287 110.619C41.7256 109.959 41.5821 108.654 41.2572 107.576C40.955 106.582 41.567 105.55 41.9221 104.594C42.2243 103.782 42.7229 103.046 43.1309 102.287C42.9421 102.218 42.7079 102.135 42.4208 102.029C42.723 101.71 42.995 101.422 43.3274 101.073C42.8967 100.997 42.5265 100.928 41.907 100.815C42.3074 100.519 42.5869 100.132 42.8438 100.147C43.5616 100.192 44.2567 99.9495 45.0047 100.359C46.9162 101.407 47.8909 103.159 48.5935 105.034C49.5757 107.667 49.0469 110.065 46.8634 112.023Z" fill="#185951"/>
<path d="M69.7413 121.835C69.5448 122.23 69.3786 122.571 69.1822 122.966C70.5346 124.362 71.1013 126.055 70.8822 128.005C70.8293 128.468 70.8444 128.87 70.4968 129.302C69.8395 130.13 69.7564 131.329 68.4871 131.761C67.9356 131.951 67.3387 132.103 66.9685 131.913C65.9409 131.382 64.7547 130.972 64.1125 129.91C63.7951 129.378 63.5005 128.824 63.4325 128.126C63.2134 125.827 64.1427 123.922 65.3062 122.093C65.5706 121.683 66.0089 121.388 66.5378 121.145C67.1422 120.871 67.5199 120.644 68.1244 121.099C68.5626 121.441 69.1444 121.577 69.7413 121.835Z" fill="#185951"/>
<path d="M144.034 74.429C143.218 73.7992 142.742 72.6609 141.473 72.714C141.156 72.16 140.649 71.6364 140.559 71.0521C140.325 69.6255 140.657 68.3506 142.13 67.6448C142.304 67.5613 142.425 67.364 142.614 67.1743C142.357 67.0833 142.13 67.0074 142.108 66.9998C142.463 66.6431 142.909 66.1954 143.347 65.7553C143.249 65.6414 143.158 65.5276 143.06 65.4138C143.249 65.391 143.445 65.3151 143.626 65.3455C144.45 65.4897 145.409 64.9205 146.105 65.7704C147.019 66.8708 147.691 68.0698 147.956 69.5268C148.311 71.4543 146.46 73.5791 145.054 74.2697C144.699 74.4442 144.253 73.7385 144.034 74.429Z" fill="#185951"/>
<path d="M89.4234 99.6234C89.4234 100.193 89.3856 100.473 89.4309 100.747C89.6425 102.15 88.4789 102.651 87.6704 103.266C86.862 103.881 86.0914 102.978 85.3358 102.75C84.6332 102.537 84.0514 101.862 83.4545 101.338C82.4572 100.466 82.0794 98.3865 82.7141 97.1419C82.8576 96.8611 82.7065 96.3755 83.3714 96.3148C83.7719 96.2768 84.1496 95.6394 84.4669 95.2144C85.3056 94.1216 86.046 93.9926 86.9451 94.9488C87.5345 95.5711 88.2145 96.0871 88.6376 96.9218C89.1211 97.9008 89.6727 98.7811 89.4234 99.6234Z" fill="#185951"/>
<path d="M66.9685 52.5056C67.86 53.4694 68.8498 54.2965 69.3182 55.6473C69.9 57.3244 69.5826 58.235 68.1622 59.214C66.5453 60.3295 65.4649 60.1322 64.0521 58.6904C63.8632 58.4931 63.6667 58.3033 63.508 58.144C63.2738 57.4155 63.8102 56.5807 63.0396 56.0116C62.6164 54.0992 63.9009 52.536 65.9258 52.498C66.2734 52.498 66.6209 52.5056 66.9685 52.5056Z" fill="#185951"/>
<path d="M86.1216 31.2347C86.4918 30.9464 86.7184 30.7642 86.9451 30.5897C86.6806 30.362 86.4163 30.142 86.1518 29.9219C86.2576 29.8005 86.386 29.6639 86.5673 29.459C86.0989 29.3603 85.6834 29.2617 85.1847 29.1554C85.7665 27.5846 87.202 27.4632 88.3278 26.9547C88.5469 26.8561 89.0228 27.1445 89.2948 27.3645C90.3979 28.2448 91.1988 29.3603 91.7579 30.658C91.8335 30.8249 91.9317 31.1361 91.8637 31.1968C90.8891 32.0315 92.1735 33.6479 90.8966 34.2019C90.6473 34.3081 90.0882 33.6707 89.4157 33.6175C89.6877 33.9211 89.9597 34.217 90.2695 34.5585C89.7709 34.8924 89.2949 35.2415 88.7887 35.5223C88.63 35.6134 88.3882 35.5526 88.1842 35.5299C88.0633 35.5147 87.8442 35.4236 87.8518 35.3933C88.018 34.2626 86.6731 35.1049 86.5296 34.3612C86.454 33.997 86.182 33.6555 86.1443 33.2912C86.0763 32.6159 86.1216 31.9253 86.1216 31.2347Z" fill="#185951"/>
<path d="M89.0456 0.910631C89.0456 0.432548 89.0456 0.250424 89.0456 0C89.6727 0 90.2695 0 90.8815 0C91.8108 1.40389 93.0877 2.73189 92.6344 4.84912C92.3398 4.86429 91.9695 4.88706 91.4557 4.92501C91.4557 4.31033 91.4557 3.80189 91.4557 3.21757C91.1233 3.27828 90.874 3.25551 90.7758 3.36175C90.6171 3.54388 90.602 3.83983 90.466 4.04472C90.2091 4.41657 90.0656 4.33309 89.7256 3.77912C89.4914 3.39969 89.174 3.08098 88.8491 2.68637C89.2722 2.48906 89.5517 2.36006 89.8464 2.22346C88.9775 1.79091 88.9927 1.80609 89.7105 1.06241C89.8313 0.9334 89.7633 0.614676 89.8011 0.21248C89.4989 0.493259 89.3553 0.629852 89.0456 0.910631Z" fill="#185951"/>
</svg>
