<svg width="53" height="60" viewBox="0 0 53 60" fill="none" xmlns="http://www.w3.org/2000/svg">
<path d="M2.17015 39.8409C1.49421 38.994 -0.230618 39.5195 0.0257736 37.9434C0.344321 36.0223 1.9683 35.5832 3.49888 35.4263C6.0861 35.1597 8.70425 35.0891 11.307 35.0107C14.6246 34.9088 17.9344 34.9088 21.2519 34.8226C23.8625 34.752 23.8391 34.7364 23.3341 32.039C22.2464 26.2836 21.6327 20.4813 21.858 14.6161C21.959 12.0521 22.2388 9.50365 22.9147 7.01802C23.3032 5.56742 23.8624 4.18741 24.686 2.92499C26.9546 -0.564305 30.0081 -0.870082 33.2712 1.67828C34.8717 2.93285 36.1538 4.19521 36.8608 6.12412C37.3736 7.50416 36.9151 8.41378 35.773 8.92345C34.2346 9.60563 33.8539 10.8445 33.6442 12.3186C32.8594 17.729 33.4344 23.1237 33.8695 28.5105C33.9705 29.7102 34.2269 30.9099 34.2346 32.1017C34.2502 33.866 35.1671 34.2032 36.6744 34.0855C40.3959 33.7954 44.1408 33.7405 47.7769 32.7212C48.1576 32.6114 48.5927 32.4075 48.919 32.8701C49.0666 33.6621 48.0643 33.7013 47.8934 34.2816C48.445 34.7599 48.9033 34.3443 49.3617 34.3364C50.0687 34.3286 51.5683 32.9643 50.9934 35.2617C52.2054 35.4499 52.726 36.1948 52.9202 37.3945C53.0989 38.5001 53.0679 39.4018 51.8559 39.8173C47.2253 41.4091 42.3848 42.0364 37.5755 42.7343C36.1382 42.946 35.9518 43.4321 36.2548 44.6239C37.2726 48.6307 38.135 52.7082 41.74 55.3742C42.4082 55.8682 42.4083 56.762 42.7423 57.4598C43.2473 58.5184 42.3693 59.0202 41.8721 59.6475C41.3593 60.2905 40.7533 59.8906 40.1395 59.7181C33.6598 57.8362 30.0005 53.1551 27.5919 47.1175C26.341 43.9888 26.2554 44.1614 22.7903 44.5769C19.3717 44.9847 15.9143 45.0552 12.4802 45.314C9.54336 45.5335 6.93284 44.6632 4.53209 43.0401C3.94938 42.6481 3.39782 42.1226 2.6675 42.1697C1.78955 42.2246 1.33891 41.7777 1.09806 41.0406C0.826125 40.1859 1.81275 40.2094 2.17015 39.8409Z" fill="#F6D06D"/>
</svg>
