<svg width="141" height="153" viewBox="0 0 141 153" fill="none" xmlns="http://www.w3.org/2000/svg">
<path d="M134.215 38.939C134.512 38.9329 134.64 39.1811 134.692 39.3786C135.027 40.6238 135.554 41.7994 135.931 43.0323C136.128 43.6798 136.373 44.3419 136.682 44.9658C136.925 45.4594 136.968 46.0189 137.203 46.525C137.456 47.0697 137.551 47.6726 137.764 48.2395C137.945 48.7156 137.952 49.2489 138.122 49.7438C138.37 50.4624 138.556 51.2056 138.732 51.9444C138.844 52.4201 139.029 52.89 138.963 53.3896C138.945 53.5213 139.022 53.6024 139.047 53.7057C139.152 54.1544 139.273 54.597 139.324 55.0625C139.433 56.0347 139.638 56.9941 139.731 57.9652C139.8 58.6701 139.91 59.3672 140.001 60.0695C140.085 60.7448 140.16 61.4229 140.218 62.0999C140.354 63.6888 140.421 65.2845 140.373 66.875C140.336 68.1222 140.199 69.3608 140.021 70.6C139.878 71.6037 139.763 72.6156 139.489 73.5854C139.271 74.3637 139.162 75.1785 138.874 75.9214C138.605 76.6214 138.373 77.3431 138.121 78.0468C137.542 79.6741 136.9 81.2742 136.194 82.8496C135.781 83.7763 135.345 84.6984 134.944 85.6279C134.476 86.7182 133.89 87.7469 133.42 88.8345C133.145 89.4726 132.775 90.0958 132.455 90.7246C132.144 91.332 131.75 91.8941 131.479 92.5215C131.208 93.1488 130.837 93.7344 130.507 94.3237C130.195 94.8773 129.991 95.5419 129.46 95.966C129.481 96.528 129.004 96.8395 128.777 97.2754C128.554 97.705 128.293 98.1362 128.1 98.5768C127.9 99.0299 127.683 99.4864 127.471 99.9278C127.043 100.826 126.701 101.763 126.278 102.657C126.019 103.203 125.943 103.787 125.736 104.341C125.348 105.394 125.077 106.498 124.9 107.62C124.828 108.07 124.723 108.514 124.523 108.921C124.371 109.23 124.554 109.527 124.462 109.839C124.31 110.342 124.241 110.871 124.128 111.387C124.09 111.558 124.064 111.719 124.194 111.857C124.054 111.973 123.947 112.063 123.846 112.145C123.806 112.33 123.98 112.196 124.029 112.295C124.001 112.51 124.028 112.752 123.858 112.957C123.7 113.15 123.893 113.367 123.815 113.596C123.646 114.091 123.919 114.684 123.486 115.129C123.614 115.629 123.443 116.12 123.425 116.616C123.418 116.864 123.356 117.122 123.164 117.318C122.999 117.489 123.365 117.765 123.053 117.913C123.197 118.778 122.734 119.524 122.512 120.297C122.154 121.531 121.885 122.803 121.317 123.987C121.03 124.578 120.907 125.278 120.627 125.885C119.999 127.255 119.464 128.667 118.67 129.961C118.342 130.495 118.136 131.103 117.801 131.633C117.098 132.759 116.394 133.889 115.602 134.956C115.456 135.157 115.344 135.386 115.089 135.496C114.813 135.616 114.915 135.959 114.742 136.178C114.538 136.436 114.226 136.572 114.054 136.891C113.957 137.067 113.707 137.255 113.598 137.459C113.238 138.122 112.541 138.493 112.199 139.163C112.068 139.416 111.778 139.545 111.567 139.704C110.848 140.248 110.414 141.091 109.623 141.536C109.19 141.78 108.868 142.124 108.614 142.523C108.532 142.651 108.449 142.79 108.329 142.812C107.901 142.889 107.673 143.252 107.361 143.481C107.029 143.728 106.785 144.09 106.41 144.306C106.03 144.526 105.589 144.717 105.325 145.042C104.856 145.626 104.213 145.938 103.624 146.334C103.33 146.532 103.093 146.875 102.641 146.797C102.403 146.757 102.578 147.295 102.196 147.2C101.97 147.143 101.849 147.282 101.738 147.483C101.635 147.666 101.283 147.524 101.212 147.744C101.142 147.961 100.966 148.216 100.854 148.162C100.573 148.027 100.57 148.47 100.348 148.342C100.329 148.331 100.289 148.342 100.27 148.358C99.6702 148.866 98.8675 148.982 98.2413 149.461C97.877 149.74 97.4053 149.92 96.9554 150.039C96.5243 150.157 96.1257 150.354 95.7335 150.532C95.0529 150.846 94.3067 150.936 93.6368 151.254C93.4541 151.34 93.1465 150.959 93.0607 151.41C92.7864 151.286 92.6464 151.56 92.438 151.612C92.2832 151.652 92.1005 151.591 91.8845 151.567C91.5615 151.827 91.137 151.879 90.6926 151.971C89.8405 152.147 88.9824 152.284 88.1247 152.351C86.9435 152.442 85.746 152.59 84.5671 152.308C84.3254 152.251 84.2293 152.492 84.0143 152.464C82.7498 152.304 81.473 152.273 80.2304 151.882C79.7108 151.718 79.1114 151.738 78.5802 151.575C77.5087 151.245 76.3998 151.064 75.3615 150.573C74.747 150.283 74.0633 150.08 73.4265 149.796C72.103 149.212 70.8056 148.579 69.6536 147.691C68.7922 147.029 67.9182 146.384 67.1091 145.649C66.8311 145.396 66.6536 145.06 66.3754 144.853C66.0891 144.64 65.8816 144.394 65.711 144.104C65.5766 143.876 65.2676 143.886 65.1505 143.608C65.0598 143.393 64.955 143.145 64.634 143.066C64.4877 143.031 64.3965 142.751 64.285 142.581C64.124 142.335 63.92 142.107 63.8144 141.84C63.7291 141.621 63.3118 141.661 63.4389 141.314C63.0837 141.278 63.0277 140.939 62.8611 140.72C62.7016 140.512 62.5682 140.279 62.4248 140.061C62.2638 139.815 62.1027 139.569 61.9416 139.324C61.7965 139.102 61.6955 138.825 61.4964 138.674C61.1141 138.384 60.9615 137.928 60.6295 137.598C60.2628 137.233 60.0175 136.741 59.7479 136.288C59.5109 135.892 59.0629 135.708 58.8538 135.277C58.6491 134.859 58.4206 134.399 58.074 134.117C57.6821 133.795 57.5254 133.28 57.1428 133.037C56.6864 132.746 56.5967 132.222 56.2324 131.913C55.4372 131.246 54.8809 130.345 54.1142 129.675C53.1468 128.828 52.2917 127.864 51.2785 127.059C50.619 126.535 49.9416 126.031 49.2821 125.507C48.6288 124.986 47.8694 124.598 47.1315 124.195C46.2103 123.689 45.2401 123.296 44.2474 122.946C43.2502 122.594 42.2146 122.396 41.2164 122.061C40.7619 121.908 40.2872 121.842 39.8354 121.676C39.3471 121.496 38.7871 121.505 38.2962 121.327C37.07 120.879 35.7436 120.771 34.563 120.181C32.9439 119.892 31.5066 119.069 29.9584 118.571C29.1866 118.322 28.4875 117.855 27.7493 117.499C26.5249 116.907 25.3674 116.193 24.2026 115.492C23.1331 114.848 22.1266 114.112 21.1525 113.331C20.4513 112.773 19.7762 112.178 19.0659 111.629C18.7788 111.409 18.6974 110.979 18.2899 110.892C17.8654 110.186 17.0801 109.799 16.6764 109.071C16.1885 108.821 15.9628 108.335 15.7109 107.898C15.5192 107.564 15.1097 107.486 14.9521 107.111C14.8068 106.766 14.6136 106.371 14.3228 106.168C13.7946 105.797 13.5568 105.247 13.2231 104.755C12.4486 103.615 11.691 102.459 10.9568 101.292C10.7171 100.909 10.3323 100.598 10.2916 100.095C10.2567 99.6535 9.75441 99.428 9.75905 98.9531C9.76187 98.781 9.48194 98.8536 9.42148 98.6614C9.29871 98.286 8.8928 98.0665 8.89114 97.5996C8.88885 97.2375 8.40331 97.0435 8.46578 96.6038C8.50222 96.3361 7.84981 96.4224 8.09534 95.9857C7.76446 95.6161 7.65391 95.136 7.46276 94.6974C7.3051 94.3334 6.93502 94.098 6.91545 93.639C6.89815 93.2482 6.37887 93.0261 6.48346 92.5626C6.0573 92.1476 6.04678 91.5202 5.71922 91.044C5.47223 90.6848 5.3248 90.2483 5.18087 89.8288C4.95615 89.1803 4.71444 88.5353 4.4566 87.9009C4.36067 87.6664 4.29511 87.4311 4.22508 87.195C4.18749 87.0612 4.27222 86.9318 4.17665 86.786C3.56684 85.8733 3.34648 84.7964 3.06065 83.7666C2.88846 83.1454 2.65462 82.5299 2.59342 81.8664C2.57486 81.6852 2.40843 81.443 2.43376 81.2407C2.51059 80.6407 2.27271 80.1015 2.134 79.5548C2.05633 79.254 2.00626 78.966 2.017 78.665C2.01735 78.6067 2.06781 78.5309 2.04749 78.494C1.62818 77.8308 1.73376 77.0572 1.61663 76.3376C1.50205 75.6397 1.51978 74.9201 1.38821 74.2256C1.12246 72.8267 1.15957 71.402 0.950096 70.0008C0.881404 69.5433 0.91104 69.0711 0.898843 68.7233C0.818481 68.4244 0.585529 68.551 0.496608 68.339C0.421846 68.1485 0.545284 67.9665 0.734057 67.7607C0.282341 67.289 0.458419 66.67 0.434102 66.1097C0.375971 64.7865 0.375035 63.4566 0.424074 62.1323C0.458773 61.2623 0.470268 60.3922 0.610368 59.5184C1.0521 56.7475 1.60086 53.9988 2.22275 51.2676C2.46031 50.2251 2.69435 49.1771 2.9845 48.1502C3.23354 47.278 3.4755 46.395 3.77891 45.5411C4.48565 43.5507 5.19329 41.5558 6.04706 39.6193C6.70251 38.1385 7.44166 36.7031 8.17901 35.2649C8.64982 34.3431 9.16153 33.4484 9.70978 32.5683C10.5845 31.1633 11.4867 29.7827 12.4254 28.4167C13.3074 27.1346 14.4497 26.0674 15.2597 24.74C16.0568 24.2101 16.4251 23.2553 17.2435 22.7462C17.4284 22.2876 17.8745 22.0513 18.1997 21.7361C18.5366 21.4094 18.799 20.9809 19.2593 20.7661C19.4698 20.6698 19.5065 20.3438 19.7653 20.2272C19.9802 20.1318 20.2007 19.9978 20.2818 19.7394C20.6115 19.8544 20.4944 19.4289 20.7323 19.3686C20.9729 19.3065 21.2436 19.1433 21.385 18.9417C21.7282 18.4483 22.3543 18.2866 22.6802 17.8549C23.0349 17.3849 23.5956 17.2469 23.9312 16.8359C24.3432 16.3358 25.0105 16.3016 25.4435 15.8689C25.4812 15.8324 25.606 15.8816 25.6943 15.8929C25.7736 15.7787 25.6419 15.6954 25.6384 15.543C25.8626 15.5265 26.1098 15.5568 26.3139 15.4801C26.5538 15.3876 26.7594 15.2016 27.0149 15.033C27.0386 14.8046 27.0661 14.5467 27.0898 14.3183C27.429 14.195 27.5921 13.9442 27.92 13.9096C28.0648 13.8953 28.2603 13.6116 28.4283 13.4505C28.651 13.2377 29.0619 13.3766 29.1598 13.1379C29.2912 12.8152 29.5578 12.7283 29.7864 12.5774C31.9087 11.1652 34.0363 9.76118 36.1692 8.36524C36.3979 8.21436 36.5898 7.93689 36.932 8.04754C36.9289 7.53131 37.4236 7.82755 37.6311 7.62097C37.8234 7.43222 38.1104 7.37044 38.3798 7.28167C38.837 7.12689 39.2152 6.75741 39.641 6.49578C39.9233 6.32105 40.1613 6.09047 40.5526 6.07597C40.8643 6.06365 41.1136 5.75607 41.4509 5.64174C41.8563 5.50186 42.3071 5.37842 42.6801 5.12452C42.9321 4.95049 43.1761 4.78178 43.5182 4.7571C43.7755 4.73815 43.9458 4.35119 44.2888 4.48067C44.7696 4.12081 45.3586 4.03768 45.8966 3.82965C47.1972 3.32722 48.5266 2.93343 49.8753 2.59263C51.0058 2.30688 52.1284 2.00314 53.2633 1.72996C53.63 1.64271 54.0064 1.56448 54.3747 1.50323C55.7084 1.28063 57.0495 1.02222 58.394 0.951146C59.5928 0.887195 60.7938 0.767689 62.0003 0.756664C62.6406 0.75184 63.2925 0.61176 63.9437 0.576535C65.4793 0.491459 67.0156 0.44851 68.5496 0.484411C69.8988 0.514637 71.2482 0.50991 72.5779 0.80439C72.9293 0.881941 73.2974 0.855656 73.6534 0.910832C74.0567 0.973483 74.4558 1.13558 74.8594 1.13998C75.3818 1.14335 75.8747 1.30158 76.3836 1.32548C76.7773 1.34416 77.022 1.78219 77.4955 1.59347C77.8402 1.45499 78.1757 1.94918 78.5901 1.7995C79.0084 2.17323 79.5805 1.93495 80.0656 2.19888C80.5338 2.45463 81.1384 2.45405 81.6843 2.5696C82.2283 2.68246 82.7959 2.73721 83.3181 2.92252C84.2761 3.2612 85.2963 3.35382 86.25 3.66828C87.1599 3.96901 88.1363 4.07121 88.9755 4.55789C89.1748 4.67389 89.2803 4.49982 89.4497 4.54662C89.6263 4.59257 89.711 4.75713 89.8868 4.78425C90.5925 4.89098 91.2681 5.12208 91.9437 5.34154C92.9054 5.65067 93.8589 5.98842 94.8224 6.2886C96.3163 6.75711 97.7469 7.36411 99.1747 7.98455C100.105 8.38758 101.024 8.82548 101.946 9.24996C103.016 9.7471 104.09 10.2335 105.149 10.7494C105.955 11.1453 106.735 11.594 107.537 12.0007C108.171 12.3212 108.821 12.6193 109.472 12.913C110.367 13.3203 111.253 13.7606 112.144 14.1742C113.412 14.7613 114.627 15.4332 115.815 16.1534C116.415 16.5158 117.018 16.8764 117.578 17.3191C117.929 17.5974 118.323 17.8751 118.712 18.0981C119.506 18.5567 120.133 19.1952 120.831 19.7554C121.077 19.9532 121.256 20.1982 121.478 20.4004C121.685 20.5881 121.867 20.7891 122.062 20.9858C122.643 21.5729 123.118 22.2688 123.801 22.758C123.846 22.7906 123.888 22.8321 123.913 22.8816C124.332 23.715 125.126 24.2552 125.576 25.0719C125.975 25.7986 126.712 26.2873 127.073 27.055C127.583 27.2868 127.696 27.8656 128.057 28.2156C129.028 29.1566 129.617 30.3658 130.371 31.4578C131.122 32.5444 131.821 33.6647 132.551 34.7654C133.066 35.5467 133.366 36.4323 133.747 37.279C133.828 37.4614 133.83 37.7114 133.972 37.8925C134.198 38.2193 134.265 38.5621 134.215 38.939ZM123.446 106.626C123.869 106.653 123.964 106.416 124.057 106.165C123.964 106.022 123.868 105.876 123.728 105.663C124.158 105.348 123.692 104.855 123.981 104.409C124.222 104.041 124.229 103.522 124.337 103.076C124.159 102.957 124.011 103.237 123.819 103.062C123.717 103.442 123.759 103.882 123.314 104.067C123.405 104.205 123.467 104.3 123.543 104.416C123.304 104.681 123.286 105.03 123.219 105.356C123.155 105.67 122.808 105.922 123.025 106.289C122.654 106.487 122.938 106.884 122.758 107.169C122.599 107.425 122.593 107.781 122.528 108.094C122.46 108.425 122.48 108.784 122.411 109.096C122.342 109.409 122.369 109.739 122.25 110.038C122.126 110.348 121.895 110.643 121.973 110.991C122.059 111.363 121.921 111.647 121.729 111.948C122.152 112.346 121.789 112.621 121.498 112.901C121.623 112.927 121.681 112.939 121.744 112.952C121.853 113.136 121.564 113.125 121.586 113.276C121.646 113.69 121.745 114.135 121.572 114.512C121.376 114.936 121.429 115.376 121.339 115.803C120.99 117.48 120.61 119.146 120.172 120.801C120.142 120.913 120.157 121.066 120.089 121.138C119.675 121.558 119.702 122.128 119.531 122.632C119.347 123.175 119.28 123.772 119.049 124.272C118.701 125.028 118.365 125.78 118.225 126.577C118.105 126.605 118.024 126.5 117.991 126.561C117.883 127.007 117.901 127.517 117.657 127.768C117.329 128.108 117.402 128.473 117.201 128.919C117.85 128.386 117.85 128.386 117.983 127.777C118.329 127.8 118.338 127.291 118.729 127.3C118.616 126.991 118.336 126.658 118.812 126.421C118.905 126.375 118.94 126.286 118.931 126.208C118.838 125.619 119.228 125.168 119.399 124.665C119.534 124.266 119.654 123.796 120.103 123.647C120.016 123.178 120.088 122.806 120.286 122.455C120.411 122.476 120.499 122.492 120.598 122.508C120.56 122.262 120.523 122.024 120.483 121.775C120.731 121.6 120.866 121.329 121.005 121.06C120.941 120.962 120.877 120.865 120.814 120.768C121.025 120.579 121.044 120.314 121.081 120.065C121.115 119.834 121.351 119.69 121.25 119.382C121.18 119.164 121.331 118.871 121.386 118.615C121.528 118.471 121.77 118.424 121.878 118.171C121.708 118.205 121.603 118.228 121.37 118.278C121.754 118.005 121.548 117.692 121.623 117.418C121.746 116.965 121.819 116.5 121.914 116.039C121.598 115.822 122.146 115.7 121.968 115.457C121.761 115.177 122.333 115.232 122.236 114.967C122.162 114.943 122.09 114.921 122.158 114.942C122.275 114.362 122.385 113.825 122.498 113.286C122.506 113.134 122.713 113.407 122.741 113.191C122.812 112.847 122.218 113.123 122.344 112.734C122.422 112.64 122.548 112.827 122.622 112.663C122.618 112.499 122.377 112.407 122.456 112.199C122.594 112.244 122.737 112.293 122.787 112.221C122.902 112.045 122.832 111.979 122.786 111.908C122.575 111.599 122.457 111.283 122.715 110.942C122.522 110.636 122.861 110.447 122.879 110.18C122.901 109.891 123.051 109.602 123.037 109.317C122.983 108.406 123.342 107.565 123.446 106.626ZM132.418 62.7799C132.066 63.4533 132.154 64.1297 132.034 64.758C131.93 65.2987 131.916 65.8766 131.875 66.4374C131.83 67.0438 131.668 67.6262 131.627 68.2219C131.565 69.1025 131.51 69.9777 131.328 70.8404C131.281 71.0687 131.164 71.3126 131.206 71.5244C131.313 72.0995 131.054 72.6033 130.974 73.1396C130.894 73.6759 130.967 74.2276 130.788 74.7552C130.741 74.8947 130.616 74.962 130.615 75.1788C130.614 76.0652 130.235 76.915 130.275 77.8169C130.003 78.0544 130.193 78.3854 130.108 78.6663C130.021 78.9516 129.981 79.2489 129.916 79.5666C130.369 79.488 130.235 79.1313 130.336 78.9258C130.777 78.0235 131.13 77.075 131.381 76.1006C131.871 74.1958 132.143 72.2483 132.31 70.2929C132.35 69.8066 132.468 69.3341 132.488 68.853C132.556 67.2179 132.59 65.5825 132.608 63.9462C132.613 63.5832 132.595 63.1968 132.418 62.7799ZM136.908 55.4036C136.88 55.5495 136.861 55.6623 136.841 55.7724C137.08 55.7891 137.218 55.9765 137.41 56.0584C137.503 56.3995 136.885 56.3274 137.039 56.6976C137.177 56.7846 137.293 56.538 137.433 56.6814C137.643 56.9068 137.563 57.2029 137.627 57.4587C137.53 57.5692 137.339 57.5671 137.313 57.7506C137.531 57.8237 137.735 57.9174 137.731 58.1943C137.721 58.7427 137.976 59.2901 137.771 59.8427C137.698 60.0421 137.904 60.2271 137.785 60.4217C138.113 60.7043 138.013 61.0989 138.031 61.4503C138.1 62.6006 138.185 63.7474 138.185 64.8999C138.187 66.4262 138.189 67.9569 138.051 69.475C137.955 70.5212 137.958 71.5904 137.687 72.6166C137.642 72.7776 137.698 72.8873 137.84 72.8981C138.99 68.8206 138.89 64.6939 138.381 60.543C138.536 60.5798 138.679 60.6399 138.786 60.473C138.742 60.1536 138.66 59.8287 138.666 59.5079C138.675 59.1109 138.518 58.8706 138.171 58.8012C138.135 58.4227 138.103 58.1035 138.076 57.8085C138.187 57.7196 138.354 57.64 138.351 57.5763C138.319 57.1101 138.436 56.6 137.966 56.26C138.308 56.065 138.06 55.7802 138.144 55.5621C137.861 55.3936 138.205 54.9307 137.76 54.7987C137.44 54.7044 137.407 54.4246 137.613 54.1454C137.671 54.1574 137.729 54.1694 137.809 54.1861C137.64 53.9806 137.909 53.675 137.647 53.5156C137.443 53.4685 137.616 53.8263 137.342 53.6973C137.25 53.2163 137.095 52.7153 137.077 52.2052C137.063 51.8663 136.918 51.7104 136.678 51.4785C136.703 51.8873 136.872 52.2281 136.622 52.5401C136.792 52.5753 136.963 52.5782 136.933 52.8495C136.906 53.0958 136.739 53.1826 136.581 53.3061C136.525 53.3506 136.553 53.4171 136.611 53.4291C136.717 53.402 136.82 53.3767 136.976 53.3392C137.045 54.0557 137.216 54.7397 137.163 55.4518C137.073 55.4378 137.017 55.424 136.908 55.4036ZM14.6429 26.4737C14.4366 26.4706 14.3154 26.5738 14.219 26.7264C13.8168 27.3709 13.3284 27.9601 12.8782 28.5666C12.0635 29.6574 11.3324 30.7935 10.6164 31.9468C9.39629 33.9124 8.26071 35.9305 7.25066 38.0166C6.82112 38.9073 6.40138 39.8071 6.02528 40.7206C5.622 41.6984 5.29352 42.7081 4.89378 43.6913C4.50948 44.6335 4.26514 45.6186 3.9272 46.5726C3.64375 47.3747 3.53945 48.2326 3.17934 49.0118C3.10786 49.1673 3.0996 49.3545 3.06911 49.5255C3.03861 49.6964 2.9652 49.8725 2.99551 50.0305C3.22422 50.0149 3.25168 49.904 3.26937 49.784C3.35477 49.2441 3.55082 48.7202 3.74219 48.2303C4.20562 47.0503 4.52464 45.8264 4.95509 44.6372C5.18305 44.0033 5.35409 43.3295 5.63274 42.7318C6.26059 41.3853 6.79224 39.9978 7.42455 38.6522C8.27755 36.8438 9.26138 35.1115 10.1642 33.3321C10.3766 32.9096 10.7277 32.5928 10.9329 32.1828C11.3857 31.2805 11.8866 30.4046 12.4986 29.61C12.9622 29.0063 13.294 28.3193 13.8021 27.7364C14.1132 27.3764 14.4435 26.9573 14.6429 26.4737ZM20.5936 48.8375C20.5014 49.3083 20.2054 49.6738 19.9842 50.0829C19.7223 50.5651 19.5406 51.0873 19.2911 51.5768C19.1972 51.7626 19.4358 52.0268 19.1377 52.1422C19.2114 53.107 18.8766 53.9778 18.5364 54.8637C18.4087 54.8629 18.3025 54.8595 18.2051 54.858C18.1795 54.9716 18.1511 55.0871 18.1263 55.1963C18.2101 55.2183 18.2895 55.2394 18.3671 55.2579C18.3835 55.4946 17.999 55.4311 18.0545 55.7039C18.1663 55.6805 18.2709 55.6578 18.3764 55.6307C18.646 56.0949 18.6478 56.0976 18.2973 56.4565C18.2273 56.526 18.2001 56.5903 18.2585 56.6794C18.3193 56.8133 18.4543 56.7784 18.5559 56.8158C18.585 57.0364 18.2913 57.3115 18.6101 57.4686C18.979 57.0085 18.9734 56.4474 19.1443 55.944C19.3407 55.3618 19.5808 54.7934 19.7389 54.194C19.8951 53.6151 20.0566 53.0327 20.236 52.4657C20.4399 51.8244 20.7311 51.2106 20.861 50.5447C20.9062 50.3138 20.8909 50.0376 21.0187 49.8682C21.1879 49.6443 21.2126 49.3998 21.2722 49.1555C21.3353 48.8934 21.3825 48.6302 21.4313 48.3814C20.9754 48.3148 21.0746 49.0422 20.5936 48.8375ZM86.4355 83.4934C86.1598 83.7488 86.4342 83.997 86.3567 84.2609C86.2775 84.5221 86.2606 84.8078 86.2526 85.0955C86.2228 86.1904 86.0983 87.2821 86.0016 88.3749C85.9325 89.1631 85.8367 89.9574 85.8132 90.7387C85.7898 91.5201 85.6583 92.2953 85.6751 93.0733C85.6929 93.8119 85.4019 94.5494 85.6564 95.2904C86.1644 95.3072 86.4298 95.1359 86.4856 94.6156C86.5651 93.8669 86.5902 93.1115 86.6197 92.3571C86.6416 91.8321 86.5975 91.3003 86.6578 90.7809C86.7711 89.7546 86.7219 88.7272 86.7066 87.7046C86.6864 86.4686 86.6661 85.2326 86.6619 83.9976C86.6616 83.7619 86.6026 83.619 86.4355 83.4934ZM99.9355 15.5821C100.139 15.699 100.318 15.8597 100.516 15.8915C100.624 15.9092 100.722 15.8175 100.867 15.9457C101.458 16.4648 102.052 16.9894 102.694 17.4398C103.023 17.6714 103.291 17.9975 103.712 18.1105C104.841 18.4099 105.959 18.7398 107.081 19.0589C107.186 19.0901 107.312 19.0577 107.391 19.1792C107.503 19.3493 107.705 19.3049 107.865 19.3382C108.008 19.3678 108.16 19.4764 108.39 19.3398C107.273 18.5995 106.134 18.032 104.992 17.4824C103.907 16.961 102.811 16.4539 101.706 15.9726C101.204 15.7543 100.733 15.4815 100.253 15.2257C100.192 15.1921 100.104 15.2041 100.061 15.1975C100.015 15.3326 99.98 15.4444 99.9355 15.5821ZM47.3663 38.774C47.6864 39.3094 47.6022 39.9451 47.8042 40.5119C48.0518 41.2072 48.2378 41.92 48.4702 42.6214C48.6684 43.2178 48.8345 43.8238 49.0819 44.407C49.3328 45.0073 49.4521 45.6596 49.6735 46.2794C49.9018 46.9217 50.1587 47.5605 50.3226 48.2221C50.4159 48.5937 50.4887 48.9634 50.6312 49.3219C50.7922 49.7263 50.9576 50.1432 51.0211 50.5693C51.0855 51.0026 51.5094 51.3494 51.2974 51.8491C51.2449 51.9688 51.3959 52.1051 51.5052 52.1954C51.5612 52.2397 51.6985 52.2729 51.6931 52.2881C51.5749 52.7838 51.9711 53.1413 52.0324 53.6346C52.1546 53.5153 52.253 53.489 52.1962 53.2789C51.9323 52.312 51.7284 51.3249 51.4546 50.3606C51.3593 50.0212 51.35 49.6367 51.082 49.3571C51.0485 48.5476 50.6697 47.8228 50.3937 47.096C50.1097 46.3512 49.8777 45.5799 49.6268 44.8327C49.0741 43.1783 48.4374 41.5484 48.0046 39.8536C47.6858 39.5495 47.8705 38.9906 47.3663 38.774ZM39.8016 17.0577C39.6027 16.8718 39.4882 16.7617 39.3709 16.6534C39.7486 16.3771 39.1818 16.0356 39.4866 15.6836C39.8688 15.3965 40.3882 15.1543 40.7251 14.669C40.881 14.4423 40.8143 14.3819 40.621 14.3044C40.274 14.5451 39.864 14.7073 39.7294 15.1133C39.5157 15.1577 39.5048 14.8941 39.3214 14.9494C38.8668 15.2494 38.2939 15.4688 37.969 15.8844C37.61 16.3418 37.1282 16.5591 36.7021 16.879C36.2572 17.2113 35.7804 17.495 35.3151 17.8021C35.194 17.882 35.0667 17.9582 34.951 18.0462C34.9124 18.0755 34.8951 18.1373 34.8689 18.1855C34.9423 18.3034 34.9772 18.4506 35.125 18.5116C35.4483 18.0584 35.4473 18.0862 35.9121 18.1546C36.1584 18.1893 36.05 18.3885 36.138 18.4581C36.3939 18.6721 36.604 18.3401 36.8333 18.3783C37.0262 18.3787 36.9187 18.732 37.2068 18.6424C37.1568 18.3428 36.7419 18.1331 37.0174 17.7656C37.5277 17.6918 37.5277 17.6918 37.5222 17.1191C37.4153 16.9266 37.2364 17.2884 37.0957 17.068C37.2918 16.9733 37.3901 16.6648 37.6695 16.9794C37.7547 17.074 38.0796 16.9524 38.2012 16.938C38.3795 16.8397 38.2636 16.657 38.427 16.6536C38.6976 16.6491 38.8536 16.8517 39.0513 16.9417C39.0511 17.1236 38.9368 17.2726 38.9975 17.4181C39.3343 17.4087 39.1784 17.0357 39.427 16.9916C39.501 17.0047 39.584 17.0195 39.8016 17.0577ZM122.875 71.2357C122.961 70.8195 123.068 70.4429 123.108 70.0569C123.149 69.6781 123.316 69.3395 123.374 68.9572C123.448 68.4478 123.406 67.9304 123.523 67.4275C123.759 66.4288 123.82 65.4058 123.914 64.3847C124.059 62.7841 123.931 61.1898 123.866 59.5969C123.851 59.2275 123.777 58.8623 123.731 58.4981C123.312 62.6968 123.365 66.9165 122.702 71.0832C122.701 71.1109 122.781 71.1509 122.875 71.2357ZM44.236 68.0937C44.1052 69.793 44.2184 71.4588 44.379 73.1205C44.5724 75.1203 44.8247 77.116 45.0351 79.1123C45.0587 79.3365 45.1348 79.4643 45.3601 79.5553C45.1961 75.7956 44.7612 72.087 44.4111 68.3727C44.4054 68.2758 44.2962 68.1855 44.236 68.0937ZM11.4003 59.0199C11.9341 58.3001 11.9118 57.4136 12.2593 56.6505C12.615 55.8588 12.8727 55.035 13.1286 54.2086C13.3918 53.358 13.6113 52.4937 13.8495 51.6403C13.695 51.6572 13.5222 51.7287 13.4854 51.9077C13.3599 52.5745 12.667 53.0047 12.7224 53.7417C12.3171 54.0169 12.359 54.4806 12.2262 54.8776C12.1316 55.1566 11.9577 55.4145 11.7606 55.5252C11.7805 55.9376 11.7278 56.2277 11.533 56.5419C11.3725 56.8025 11.4345 57.1793 11.1928 57.4278C11.643 57.7032 11.6382 57.7605 11.1563 58.3067C11.2326 58.3879 11.3875 58.3127 11.4666 58.5274C11.4507 58.6501 11.4264 58.8363 11.4003 59.0199ZM19.4605 57.8666C20.2202 56.5801 21.4069 53.0352 21.0767 51.8026C20.9003 52.1859 20.5915 52.4438 20.746 52.9028C20.8021 53.0707 20.6436 53.2991 20.6468 53.4981C20.6505 53.7858 20.2854 53.7521 20.2623 54.0342C20.2373 54.3253 20.0185 54.6206 20.0589 54.8879C20.1165 55.2521 19.8153 55.4393 19.7867 55.7483C19.7617 56.0394 19.7526 56.3781 19.5968 56.5931C19.4122 56.8464 19.6118 57.2097 19.3278 57.3701C19.0258 57.5385 19.3843 57.9208 19.0673 58.0603C19.0083 58.517 18.6899 58.8895 18.6657 59.3581C18.6566 59.5265 18.6712 59.6369 18.8692 59.6803C19.1628 59.4169 19.2241 59.0167 19.3555 58.7056C19.5435 58.6163 19.7541 58.8023 19.8511 58.5565C19.853 58.5359 19.872 58.5002 19.8596 58.4813C19.7331 58.2824 19.6056 58.088 19.4605 57.8666ZM77.4271 109.706C77.2307 109.848 77.0298 109.694 76.8462 109.931C76.6626 110.168 76.6253 110.429 76.5024 110.665C76.3316 110.998 76.3993 111.336 76.5672 111.616C76.7105 111.858 76.4646 111.9 76.4377 112.077C76.7286 112.562 77.0625 113.018 77.8283 113.081C77.653 111.944 77.9633 110.83 77.4271 109.706ZM22.6751 108.288C22.9847 108.772 23.2659 109.089 23.5801 109.416C24.0948 109.954 24.6815 110.403 25.2089 110.913C26.016 111.692 26.9699 112.265 27.8625 112.922C28.1533 113.136 28.4608 113.382 28.8117 113.541C29.1519 113.695 29.4929 113.869 29.7951 114.106C29.8271 114.132 29.9427 114.214 30.0125 114.033C29.8935 113.922 29.8166 113.787 29.6173 113.671C28.8724 113.234 28.2123 112.668 27.5081 112.169C26.7531 111.635 26.0467 111.045 25.36 110.438C24.994 110.115 24.6066 109.794 24.2405 109.483C23.7847 109.099 23.3859 108.596 22.6751 108.288Z" fill="#185951"/>
</svg>
