<svg width="154" height="124" viewBox="0 0 154 124" fill="none" xmlns="http://www.w3.org/2000/svg">
<g clip-path="url(#clip0)">
<path d="M124.782 18.6611C135.019 23.7878 144.509 30.0695 153.745 36.7109C153.553 37.4708 153.078 36.8021 152.78 37.0757C152.583 37.5063 153.614 37.9825 152.694 38.5397C151.849 39.0463 151.212 38.7474 150.555 38.3878C147.102 36.5032 144.19 33.7828 140.55 32.1364C139.307 31.5741 137.78 31.3309 136.814 29.9429C136.218 29.0867 134.711 29.2894 133.715 28.5346C133.093 28.0634 132.224 27.8 131.521 27.2731C128.725 25.1809 125.561 23.9752 122.087 23.6308C121.46 23.57 120.894 23.3065 120.874 22.7239C120.818 21.1383 120.166 19.5628 121.551 18.0076C122.558 16.8779 123.468 16.7766 124.681 17.0957C127.603 17.8657 130.176 19.3906 132.755 20.8901C135.768 22.6429 138.639 24.6338 141.582 26.4879C145.545 28.9854 149.286 31.7767 153.129 34.4313C153.493 34.6846 154.251 34.9227 153.917 35.4799C153.664 35.8953 153.068 35.4597 152.704 35.2216C150.409 33.7221 148.189 32.1161 145.995 30.4748C143.887 28.8993 141.582 27.5821 139.297 26.265C135.601 24.1373 132.027 21.7969 128.22 19.8769C127.128 19.3196 126.031 18.7776 124.782 18.6611Z" fill="#F6D06D"/>
<path d="M80.6014 10.5554C79.8279 9.5929 81.0311 8.8938 81.2738 8.58984C81.9361 7.7641 81.2536 6.47736 82.0321 6.15314C83.2151 5.66681 84.2162 4.61814 85.8036 5.05381C88.8724 5.89475 91.7591 7.17138 94.6862 8.3568C96.8096 9.218 98.9531 10.0387 100.889 11.295C101.754 11.8573 102.517 12.5007 102.952 13.448C103.397 14.4258 103.432 15.2819 102.629 16.2191C102.037 16.9131 101.643 17.8098 100.95 18.4532C100.288 19.0661 99.5901 19.5525 98.6903 18.828C98.0583 18.3214 97.2242 18.4126 96.5012 18.1593C93.5943 17.131 90.4699 16.7409 87.7804 15.0945C85.7885 13.8736 83.6449 12.9718 81.5165 12.0296C80.9048 11.7662 80.1717 11.5027 80.6014 10.5554Z" fill="#F6D06D"/>
<path d="M102.356 71.2758C101.845 71.0478 101.516 70.9009 101.203 70.7641C100.986 70.9313 101.117 71.0833 101.163 71.2505C101.259 71.5899 101.911 71.7064 101.648 72.1218C101.334 72.6233 100.955 71.9799 100.581 72.0154C100.455 72.5625 101.127 72.7094 101.147 73.1552C100.086 73.8442 99.2313 73.4845 98.2809 72.8412C95.6975 71.0934 92.9776 69.5787 90.005 68.5554C88.8826 68.1704 88.3316 66.7266 87.0323 66.7013C85.3791 66.6658 83.9434 65.8907 82.7604 65.0245C80.7179 63.5249 78.3165 63.2058 76.0971 62.3091C75.4753 62.0558 74.7018 62.4003 74.1912 61.7823C74.0244 61.5847 73.6502 61.2706 73.9687 61.1389C75.0557 60.6931 74.5299 59.8218 74.7119 59.1024C75.0456 57.765 76.355 57.5016 77.5076 57.3699C79.3226 57.1622 81.0769 57.689 82.6946 58.4287C88.8877 61.2554 94.833 64.5381 100.313 68.601C101.147 69.219 102.194 69.7763 102.356 71.2758Z" fill="#F6D06D"/>
<path d="M126.951 52.5572C125.985 52.2481 124.979 51.9493 123.983 51.5997C117.694 49.391 111.693 46.5287 105.803 43.4284C103.544 42.2379 101.375 40.8701 98.9683 39.9684C98.2756 39.71 97.7347 39.249 98.4678 38.4233C98.6396 38.2307 98.7206 37.942 98.8116 37.6836C99.4182 35.9714 100.728 35.3027 102.502 35.8396C104.327 36.3918 105.92 37.4101 107.522 38.3929C114.292 42.5672 121.187 46.4933 128.579 49.4872C129.514 49.8672 129.514 49.9786 128.801 50.6422C128.725 50.7132 128.67 50.8601 128.68 50.9665C128.786 52.2127 127.876 52.3241 126.951 52.5572Z" fill="#F6D06D"/>
<path d="M56.2942 10.7076C53.4985 9.56781 51.36 7.70862 48.8322 6.62452C46.2741 5.53028 43.807 4.203 41.077 3.51404C43.266 4.51202 45.4551 5.50493 47.6441 6.50798C50.1517 7.66301 52.4823 9.12199 54.8331 10.5607C56.0111 11.2801 55.9554 12.0906 55.3033 12.9062C54.6663 13.7016 53.5996 13.8637 52.8564 13.119C51.3397 11.5992 49.3984 10.7431 47.4924 10.1858C44.176 9.21825 41.0972 7.51612 37.6341 7.00446C36.8353 6.88794 36.1529 6.30534 35.2631 6.18882C34.2621 6.05711 33.4026 6.00141 32.4724 6.49787C31.9314 6.78663 31.2186 7.49584 30.6119 6.86767C30.1165 6.35095 29.7525 5.59611 30.2025 4.73491C30.3743 4.40562 30.2631 3.92945 30.2732 3.51911C30.3541 1.11786 31.9162 -0.300605 34.3328 0.0540087C37.5734 0.535271 40.6068 1.75617 43.6047 3.04291C47.5279 4.72986 51.3802 6.56879 54.8735 9.06629C55.3943 9.43104 55.9656 9.74005 56.2942 10.7076Z" fill="#F6D06D"/>
<path d="M25.7132 76.21C25.7182 72.9576 27.1388 71.9749 29.8334 73.0792C31.9365 73.9404 33.6756 75.4045 35.4097 76.8179C39.4643 80.1158 43.4076 83.5505 47.1538 87.2081C48.0688 88.1047 48.3974 89.1888 48.7412 90.3033C48.8575 90.6934 49.0951 91.5597 48.7564 91.5242C48.0638 91.4533 47.4369 92.1524 46.6988 91.5242C43.3925 88.7278 39.8536 86.2303 36.3855 83.6467C34.8587 82.5069 33.4127 81.2455 31.8556 80.1462C30.8041 79.4015 29.6616 78.6467 28.246 79.3964C28.0741 79.4876 27.6343 79.442 27.6039 79.3609C27.1793 78.0742 25.8143 77.2991 25.7132 76.21Z" fill="#F6D06D"/>
<path d="M99.231 109.468C101.107 111.139 103.382 112.178 105.242 113.824C105.788 114.311 106.268 114.893 106.86 115.308C107.841 115.992 107.092 116.697 106.784 117.152C106.486 117.593 105.788 117.801 105.126 117.325C102.431 115.4 99.4889 113.849 96.4859 112.548C94.3474 111.62 92.4769 110.08 89.9895 109.761C89.0492 109.64 87.9622 108.996 86.9056 108.637C85.4951 108.16 86.6629 107.178 86.7135 106.418C86.7236 106.296 87.0725 106.19 87.0725 106.083C87.0674 105.617 85.8793 105.344 86.7034 104.797C87.8207 104.057 88.8722 103.262 90.5203 103.784C93.1391 104.609 95.5051 105.876 97.8206 107.259C100.965 109.138 104.221 110.871 106.814 113.546C107.007 113.743 107.214 113.925 107.391 114.133C107.573 114.351 107.724 114.645 107.502 114.878C107.219 115.177 106.875 115.02 106.663 114.756C104.812 112.492 102.138 111.362 99.7973 109.771C99.6304 109.645 99.4231 109.564 99.231 109.468Z" fill="#F6D06D"/>
<path d="M52.6997 53.5451C53.3569 54.2442 53.9433 55.0345 54.6916 55.6171C55.5611 56.301 55.7532 57.0609 55.374 58.0234C55.1465 58.5958 54.55 58.4743 54.1658 58.4186C53.185 58.2767 52.4266 57.6941 52.0778 56.7417C51.9919 56.5138 52.1638 56.1693 51.7543 56.1744C49.7473 56.1794 48.6805 54.4165 47.0729 53.6616C46.5825 53.4286 46.1123 52.998 45.6067 52.689C44.1305 51.7974 42.5279 51.0679 41.9667 49.1834C41.8352 48.7427 41.4409 48.0486 40.7736 48.2817C38.7413 49.0061 37.3813 47.5775 35.8748 46.7669C33.3976 45.4346 31.1225 43.7476 28.5846 42.5116C28.2965 42.3748 27.8921 42.2836 27.9932 41.8834C28.1196 41.3819 28.5593 42.0455 28.8222 41.701C28.4886 41.0779 27.5988 40.5308 28.6504 39.6595C29.0245 39.3504 28.3926 38.8945 27.9932 38.6716C27.6898 38.4994 27.4016 38.317 27.6241 37.932C27.892 37.471 28.1752 37.8661 28.4279 37.9928C32.9527 40.2167 37.1589 42.9675 41.3044 45.8196C44.9546 48.3323 48.6047 50.845 52.2548 53.3526C52.4014 53.4185 52.5531 53.4793 52.6997 53.5451Z" fill="#F6D06D"/>
<path d="M65.1515 80.8755C65.01 80.3943 66.6732 81.6202 65.652 80.3132C65.6267 80.2777 65.5812 80.2119 65.5964 80.1916C66.2637 79.3304 66.2233 78.5705 65.4094 77.7853C65.197 77.5776 66.9867 75.9768 67.5175 75.9413C68.3163 75.8906 69.0746 76.0933 69.7722 76.4429C73.7257 78.4338 77.0118 81.2352 79.6711 84.7712C80.9754 86.5038 80.8339 88.3224 79.8632 90.136C79.3425 91.1087 78.7155 91.1036 77.937 90.2981C77.118 89.447 76.2484 88.6365 75.3435 87.8716C74.302 86.9901 73.1545 86.2504 72.1636 85.2828C70.8592 84.0113 69.0139 83.5706 67.4669 82.6435C66.6126 82.1319 65.7481 81.681 65.1515 80.8755ZM68.7611 77.8664C71.1372 79.4064 73.5134 80.9566 75.7833 82.6739C74.3172 80.7134 70.9249 78.3578 68.7611 77.8664Z" fill="#F6D06D"/>
<path d="M62.7754 121.241C62.0878 121.038 61.6683 120.917 61.0363 120.729C61.2739 121.038 61.3497 121.226 61.4761 121.281C62.5277 121.742 62.2547 122.588 61.916 123.257C61.552 123.971 60.7279 124.159 60.0201 123.87C58.8624 123.404 57.7198 122.867 56.6582 122.208C55.1971 121.302 53.7866 120.273 52.1941 119.655C50.5309 119.012 48.908 118.07 46.9515 118.47C46.0264 118.662 45.4854 117.887 45.8646 117.041C46.0718 116.58 46.0465 116.17 46.0263 115.714C45.8848 112.836 47.9222 111.347 50.6623 112.467C54.5298 114.042 57.8008 116.59 60.9756 119.24C61.5823 119.751 62.3912 120.101 62.7754 121.241Z" fill="#F6D06D"/>
<path d="M2.38202 16.2749C1.35069 16.2597 0.85017 17.131 0.0261141 17.2526C-0.145775 15.976 0.541821 15.1756 1.96243 14.8919C3.50438 14.5879 4.93001 15.0742 6.15851 15.824C8.77729 17.4248 11.5477 18.7622 13.8076 21.0014C14.6923 21.8778 16.123 22.4806 17.1948 23.3317C20.2483 25.7583 23.216 28.2912 26.2089 30.7938C26.8105 31.2953 27.316 31.8931 27.7053 32.5821C27.9075 32.9316 27.953 33.2811 27.6901 33.6104C27.407 33.965 27.0481 33.9245 26.6993 33.727C26.1785 33.4331 25.6325 33.1748 25.1725 32.805C20.8853 29.426 16.669 25.9508 12.3061 22.663C10.6074 21.3813 8.65597 20.3833 6.61858 19.6944C5.67825 19.3752 4.64186 19.7146 3.65097 19.8261C3.38303 19.8565 3.01395 20.2314 2.81173 19.7552C2.42245 18.8382 2.03822 18.0682 0.845112 18.8737C0.572112 19.0561 0.430579 18.6406 0.425523 18.3468C0.415412 17.825 0.420477 17.2273 1.06759 17.1665C1.65403 17.1158 1.95736 16.7815 2.38202 16.2749Z" fill="#F6D06D"/>
<path d="M72.7956 38.2915C73.008 37.9926 73.0484 37.8254 72.7299 37.6936C71.5772 37.2175 70.3791 36.8223 69.3123 36.2043C68.6652 35.8294 67.3356 35.9105 67.7249 34.4768C67.7856 34.2488 67.4974 34.2944 67.3356 34.4008C66.9564 34.644 66.6784 34.492 66.3599 34.2286C65.8189 33.7828 65.2122 33.6612 64.4691 33.7726C63.094 33.9854 62.4216 33.028 62.9878 31.7666C63.0536 31.6146 63.2861 31.3461 63.1901 31.3309C60.9454 31.0066 63.9231 29.7908 62.8361 29.2944C63.1445 28.9195 63.5389 28.7472 64.0242 28.7016C65.1364 28.6054 66.0818 29.0613 67.007 29.5781C70.5155 31.5436 73.3113 34.3552 76.0362 37.2377C76.6934 37.9318 76.7288 38.9804 76.9917 39.8771C77.1484 40.4039 76.7086 40.718 76.294 40.9156C75.7228 41.1892 75.6621 40.8902 75.8138 40.4191C74.7875 40.3583 74.0747 39.6846 73.2961 39.1324C72.9524 38.9044 72.5378 38.7474 72.7956 38.2915Z" fill="#F6D06D"/>
<path d="M116.668 74.5586C116.086 74.1533 115.095 74.4421 115.015 73.1756C114.959 72.2587 115.399 72.4258 115.869 72.4258C115.798 71.6355 114.863 71.9547 114.676 71.2556C115.94 70.9668 117.153 71.438 118.366 71.3772C118.402 71.3873 118.442 71.3924 118.483 71.3924C119.322 72.3701 120.576 72.5981 121.658 73.1401C122.103 73.363 122.633 73.4441 123.038 73.7176C126.288 75.9314 129.797 77.7349 132.947 80.1159C135.414 81.9852 138.043 83.6418 140.419 85.6377C140.965 86.0987 141.566 86.504 142.138 87.4868C140.763 86.7269 139.721 86.1494 138.675 85.5719C138.715 85.5871 138.761 85.5972 138.801 85.6124C137.598 84.0876 135.737 83.4695 134.352 82.1625C133.978 82.6083 134.367 82.74 134.413 82.9579C134.489 83.3226 134.261 83.5506 133.943 83.6924C133.786 83.7634 133.563 83.9001 133.498 83.657C133.215 82.5627 132.31 82.8261 131.592 82.7907C130.798 82.7552 130.363 82.3246 130.004 81.7015C129.458 80.7441 128.685 80.1716 127.527 80.278C127.279 80.1108 127.032 79.9436 126.784 79.7714C126.273 78.7227 123.776 77.2233 122.719 77.3296C122.689 76.7319 121.556 76.4938 122.178 75.6832C122.846 75.4401 123.164 75.3033 122.33 74.6801C121.278 73.8899 119.848 74.0165 118.907 73.0591C118.766 72.9172 118.564 72.9274 118.442 73.1199C118.286 73.3732 118.402 73.6062 118.65 73.6467C119.721 73.8139 120.475 74.67 121.491 74.9284C121.92 75.0398 122.295 75.1563 122.214 75.7187C120.232 76.0581 118.872 74.5282 117.178 74.0064C116.956 73.9355 117.558 73.0945 116.804 73.3985C116.45 73.5454 116.268 74.1077 116.668 74.5586ZM129.17 79.356C129.256 79.2446 129.337 79.128 129.423 79.0166C128.392 78.3631 127.365 77.7096 126.329 77.0713C126.208 76.9953 125.99 76.8534 125.859 77.0713C125.768 77.2233 125.743 77.4867 125.935 77.5373C127.158 77.8717 127.942 79.0318 129.17 79.356Z" fill="#F6D06D"/>
<path d="M25.0157 105.891C24.2422 105.612 23.5496 105.83 22.8772 106.073C22.5233 106.205 22.2604 106.301 22.1138 105.881C21.9823 105.496 22.2503 105.258 22.5435 105.121C23.2917 104.771 24.1259 104.858 24.8387 105.065C27.5637 105.855 29.9246 107.335 32.0783 109.163C32.7153 109.705 33.2966 110.349 34.0044 110.774C35.2936 111.544 35.6627 112.861 36.0671 114.112C36.2592 114.695 35.4756 114.806 35.056 114.928C34.8133 114.999 34.3482 114.816 34.2067 114.604C32.8467 112.522 30.319 112.187 28.499 110.774C27.8974 110.308 26.684 110.521 25.8852 109.923C25.2583 109.447 24.4697 109.194 24.1714 108.312C23.9995 107.806 23.3423 108.191 22.958 107.958C22.7609 107.841 22.5182 107.765 22.4879 107.517C22.4576 107.269 22.6699 106.95 22.8266 106.995C23.9034 107.294 24.1765 106.023 25.0157 105.891Z" fill="#F6D06D"/>
<path d="M52.6999 53.5449C52.5533 53.4841 52.4016 53.4182 52.255 53.3574C50.6474 51.5286 48.711 50.0544 46.7798 48.6259C44.1257 46.6603 41.3249 44.8771 38.4988 43.1648C36.1075 41.716 33.9539 39.8669 31.2896 38.8486C30.2077 38.4332 29.2219 37.7493 28.4838 36.5538C30.1117 36.2701 31.1581 37.3137 32.3058 37.9115C35.329 39.492 38.1045 41.4829 40.8851 43.4434C45.9053 46.9794 51.0922 50.3077 55.4451 54.7151C55.6928 54.9684 56.0366 55.171 55.8495 55.7739C54.5351 55.3787 53.8425 54.1123 52.6999 53.5449Z" fill="#F6D06D"/>
<path d="M71.921 107.091C71.5217 106.549 70.4499 107.188 70.6268 106.357C70.7735 105.648 71.6379 105.906 72.1839 106.083C75.5712 107.188 78.0787 109.361 79.7218 112.511C79.9695 112.988 80.3487 113.682 79.646 114.122C79.0191 114.512 78.6399 113.91 78.2506 113.56C76.6126 112.111 74.9342 110.733 72.6744 110.374C72.1082 110.283 71.9009 109.822 71.7087 109.351C71.643 109.189 71.5318 109.021 71.4004 108.905C70.3539 107.988 70.2426 107.294 71.921 107.091Z" fill="#F6D06D"/>
<path d="M132.699 78.6864C131.01 78.5344 130.08 77.0908 128.766 76.3056C127.795 75.7231 126.688 75.247 125.919 74.32C125.727 74.087 125.303 73.9958 125.52 73.6159C125.692 73.3119 126.036 73.2511 126.359 73.4538C128.316 74.6897 130.293 75.8902 132.082 77.3694C132.507 77.7189 132.492 78.266 132.664 78.732L132.699 78.6864Z" fill="#F6D06D"/>
<path d="M132.664 78.7274C133.038 78.5552 133.386 78.3526 133.811 78.6667C136.228 80.4446 138.675 82.1872 140.869 84.2539C141.041 84.4109 141.44 84.5021 141.187 84.8618C141.025 85.0897 140.778 85.034 140.581 84.8769C138.038 82.8609 135.449 80.9056 132.765 79.0719C132.689 79.0213 132.714 78.8186 132.694 78.6869C132.699 78.6869 132.664 78.7274 132.664 78.7274Z" fill="#F6D06D"/>
<path d="M118.488 71.3869C118.448 71.3819 118.407 71.3768 118.372 71.3718C117.755 71.1286 117.259 70.5967 116.521 70.6423C116.258 70.6575 115.889 70.693 115.92 70.2928C115.95 69.9332 116.284 69.9838 116.562 70.0142C119.069 70.2928 121.415 71.1489 123.726 72.1012C124.12 72.2633 124.55 72.7445 124.342 73.1801C124.1 73.6968 123.589 73.3067 123.291 73.1244C121.809 72.2126 120.146 71.8124 118.488 71.3869Z" fill="#F6D06D"/>
<path d="M138.811 85.607C138.766 85.5968 138.725 85.5816 138.685 85.5664C139.276 86.149 139.448 87.1621 140.54 87.2583C140.722 87.2735 141.38 87.7345 140.97 88.1954C140.586 88.6361 140.176 88.165 139.934 87.9118C138.842 86.7568 137.613 85.84 135.955 85.3182C136.471 84.8725 136.809 84.214 137.436 85.0954C137.78 85.5715 138.377 85.3841 138.811 85.607Z" fill="#F6D06D"/>
<path d="M126.794 79.7663C127.042 79.9335 127.29 80.1007 127.537 80.2729C127.694 80.4755 127.856 80.6781 128.013 80.8807C127.962 80.9516 127.917 81.0226 127.866 81.0935C127.037 80.6275 126.213 80.1614 125.384 79.7005C125.414 79.5992 125.45 79.5029 125.48 79.4016C125.92 79.5181 126.36 79.6397 126.794 79.7663Z" fill="#F6D06D"/>
<path d="M117.381 75.0955C118.331 74.8271 118.963 75.516 119.691 75.8807C120.409 76.2353 121.102 76.6506 121.799 77.0407C121.44 77.1774 121.127 77.1471 120.778 76.9444C119.661 76.3113 118.518 75.7084 117.381 75.0955Z" fill="#F6D06D"/>
</g>
<defs>
<clipPath id="clip0">
<rect width="154" height="124" fill="white"/>
</clipPath>
</defs>
</svg>
