<svg width="94" height="130" viewBox="0 0 94 130" fill="none" xmlns="http://www.w3.org/2000/svg">
<path d="M85.3699 103.148C85.841 103.148 86.5627 103.148 87.2944 103.148C87.6452 103.681 88.0061 104.244 88.377 104.817C88.6476 104.565 88.8481 104.384 89.1488 104.123C89.8604 104.525 90.6022 104.938 91.3239 105.35C91.4141 105.933 91.4943 106.436 91.5744 106.969C92.0255 106.717 92.3763 106.506 92.7071 106.325C93.1682 107.271 93.5691 108.105 94.0001 109.01C93.8798 109.051 93.5791 109.151 93.1782 109.292C93.1782 109.684 93.1782 110.117 93.1782 110.549C91.7348 111.042 90.6423 112.299 89.0084 111.866C88.9082 112.983 87.8958 113.345 87.2543 113.486C85.7308 113.827 84.4477 115.034 83.0144 115.064C81.3404 115.094 80.0675 116.02 78.6141 116.442C76.86 116.945 75.0658 117.478 73.3317 118.152C71.6378 118.805 69.8636 119.66 67.919 119.6C64.8519 121.39 61.2835 121.591 57.9758 122.607C55.3997 123.401 52.8037 124.387 50.0171 124.588C49.0549 124.658 48.1327 125.664 47.1204 124.185C46.3886 125.533 45.5267 126.277 44.0833 126.227C43.0709 126.197 42.0084 126.438 41.0362 126.76C38.4902 127.605 35.844 127.866 33.2479 128.409C30.8623 128.902 28.4065 129.073 26.0711 129.586C22.9237 130.29 19.8165 129.797 16.7092 129.998C16.1579 130.028 15.5966 129.586 15.0253 129.505C14.4038 129.415 13.5919 129.726 13.1609 129.425C12.5996 129.033 12.1886 129.385 11.7375 129.294C11.066 129.163 10.4044 128.962 9.60254 128.761C9.31186 128.238 8.31957 128.037 8.31957 127.011C8.31957 126.75 7.82838 126.257 7.58782 126.277C5.75352 126.388 5.33256 124.869 4.54071 123.592C4.22998 121.108 5.43282 119.368 7.75826 118.302C8.05896 118.162 8.38975 118.031 8.7105 117.971C9.9935 117.769 11.3667 117.81 12.5595 117.357C13.8625 116.854 15.1355 116.895 16.4486 116.864C17.7115 116.834 19.195 117.196 20.1673 116.643C21.2498 116.03 22.603 117.005 23.3748 115.778C24.2268 116.683 25.0688 115.326 25.9208 115.768C26.8329 114.984 27.9655 115.406 28.9679 115.175C29.89 114.964 30.8523 114.843 31.7444 114.612C34.6712 113.837 37.6482 113.375 40.6452 113.023C41.9483 111.886 43.7324 112.963 45.1357 111.957C46.3385 111.092 47.9423 111.253 49.3255 110.941C50.8992 110.589 52.5631 110.328 54.1869 110.056C55.7005 109.805 57.1939 109.392 58.7175 109.101C60.9628 108.678 63.1078 107.703 65.4332 107.532C66.4155 106.376 67.9491 107.371 69.1219 106.486C70.1042 105.742 71.5576 105.621 72.7403 105.43C75.6371 104.968 78.2031 103.55 81.0197 102.926C81.6913 102.776 82.3529 102.625 83.1247 102.454C83.2249 103.127 83.3051 103.63 83.4254 104.425C84.0869 103.972 84.6382 103.62 85.3699 103.148Z" fill="#185951"/>
<path d="M39.6829 71.9638C39.5325 72.1147 39.4022 72.2454 39.2719 72.3762C38.9211 71.8331 38.5602 71.28 38.1192 70.6062C37.9488 71.099 37.8385 71.4207 37.6581 71.9236C36.8562 71.823 35.7737 72.004 35.2024 71.5515C34.2802 70.8073 33.6788 71.8733 32.887 71.5917C32.1653 71.3303 31.1128 71.6721 30.5815 71.2598C29.7195 70.586 28.8575 70.9682 28.0356 70.757C27.2237 70.5458 26.4619 70.1738 25.62 69.8419C25.1689 69.9827 24.6377 70.1536 23.926 70.3748C23.6654 69.8821 23.4047 69.3894 22.9437 68.5346C22.663 69.4396 22.5728 69.7414 22.4225 70.2241C19.9166 68.776 16.9096 69.6006 14.4037 68.3335C14.3436 68.0419 14.2834 67.8004 14.1331 67.1367C13.9125 67.7904 13.8123 68.0619 13.7021 68.3837C13.0706 68.2127 12.389 68.0318 11.6773 67.8508C11.6272 67.4184 11.5871 66.9859 11.5169 66.3624C11.2563 66.5534 11.0959 66.6642 10.8554 66.8452C10.5547 66.6943 10.2139 66.5233 9.73274 66.282C9.5423 66.7043 9.38192 67.0664 9.23157 67.4183C8.62014 66.9859 8.0087 66.5535 7.28701 66.0406C7.25694 65.7892 7.20687 65.3568 7.14673 64.7936C6.51525 65.1054 5.9539 65.397 5.22218 65.759C4.25993 64.3712 2.3054 63.7176 1.69397 61.8471C1.94455 61.5655 2.12496 61.3745 2.30538 61.1734C1.78416 60.6505 1.54359 60.7912 0.98228 61.9778C0.801857 61.9879 0.631429 62.0181 0.451007 62.008C0.380843 61.998 0.310683 61.9074 0.0801436 61.7365C0.250542 61.3443 0.440996 60.9119 0.651488 60.4292C0.481089 59.9767 0.280657 59.4638 0 58.7498C0.691619 59.0012 1.12258 59.152 1.6438 59.3531C1.4734 58.6995 1.35312 58.2168 1.14263 57.3922C2.10488 57.8246 2.69631 58.0961 3.3779 58.4079C3.21753 58.599 3.06718 58.79 2.88676 59.0112C3.35786 59.2526 3.82893 59.494 4.41029 59.7957C4.41029 59.1319 4.41029 58.5184 4.41029 57.9452C5.03174 57.6234 5.55298 57.3619 6.12432 57.0703C7.41735 57.6134 8.7404 58.1665 10.0936 58.7196C10.695 58.4782 13.0004 58.7799 14.0529 59.2626C14.2333 59.0917 14.4238 58.9208 14.7144 58.6593C15.2657 58.9208 15.8771 59.2124 16.5186 59.5241C16.3382 59.7253 16.1778 59.9163 16.0175 60.1073C16.1378 60.1979 16.3082 60.399 16.3984 60.3789C17.4408 60.0571 18.4231 59.2525 19.5557 60.3185C19.7662 60.5196 20.4979 60.1577 20.9991 60.037C23.2444 59.5241 25.3092 59.846 27.1335 61.3142C27.5544 61.1935 28.0256 60.9621 28.4867 60.9722C29.0279 60.9822 29.8899 61.4751 30.0503 61.284C30.8722 60.2985 31.2932 61.4951 31.9046 61.5052C32.496 61.5153 33.0473 61.5454 33.6788 61.837C34.7413 62.3197 36.0042 62.4303 37.187 62.5812C41.1864 63.084 45.0955 63.9288 48.9646 65.1456C51.9516 66.0808 54.9887 66.8552 57.8554 68.1022C59.7899 68.9469 61.8848 69.7213 63.4084 71.099C64.7816 72.3359 66.4054 73.432 67.4779 75.2019C67.3275 75.4433 67.1471 75.7248 66.9366 76.0567C67.0569 76.1874 67.2173 76.3785 67.4078 76.5998C66.7663 77.2132 66.1147 77.8368 65.373 78.5306C64.541 78.2792 63.669 77.9272 63.1778 76.7205C63.0776 77.4143 62.9974 77.9171 62.9172 78.4602C62.6165 78.4602 62.366 78.4602 62.1354 78.4602C61.9951 78.0982 61.8748 77.7864 61.7545 77.4646C61.4639 77.6557 61.1932 77.8266 60.8224 78.0579C60.5517 77.8568 60.2811 77.6456 60.0105 77.4445C59.5895 77.8367 59.1484 78.249 58.6974 78.6713C58.0358 77.8467 57.5747 77.1126 56.9533 76.5595C56.3518 76.0165 55.0889 76.5394 54.8083 75.1516C54.9185 74.9806 55.0989 74.6992 55.3896 74.2466C54.8183 74.2165 54.2971 74.1862 53.5654 74.156C53.9262 74.5683 54.0966 74.7594 54.4675 75.1717C53.7758 75.1315 53.2045 75.2622 52.8136 75.0511C51.8915 74.5482 50.9492 74.2869 49.9469 74.0154C49.0047 73.7539 48.0925 73.6532 47.1403 73.5527C46.2983 73.4622 45.4764 73.1404 44.6344 73.0398C43.7424 72.9392 42.8102 73.1001 41.9381 72.9292C41.1463 72.7079 40.4146 72.2655 39.6829 71.9638Z" fill="#185951"/>
<path d="M22.603 3.64064C22.603 3.0976 22.603 2.19261 22.603 1.33782C23.5352 0.3523 24.6077 -0.130454 26.2415 0.0304476C26.3919 0.281856 26.6726 0.754524 27.0033 1.30762C28.8076 0.191369 29.4991 2.61499 30.9125 2.23285C32.9472 3.59046 34.4708 5.4709 36.5557 6.65755C36.8564 6.8285 37.0769 7.16037 37.3375 7.42184C39.1317 9.25209 41.1364 10.8109 43.2313 12.2892C44.6747 13.3049 45.9777 14.5418 47.2607 15.7586C48.664 17.0961 50.1274 18.3129 51.8314 19.238C52.1421 19.409 52.3527 19.7409 52.6133 20.0023C53.6457 21.018 54.5779 22.1846 55.7506 23.0092C56.6928 23.6729 57.3944 24.5579 58.2264 25.292C59.6698 26.5691 60.8726 28.1279 62.1556 29.5861C63.4486 31.0543 64.7917 32.4823 65.9845 34.0209C66.4857 34.6646 66.6862 35.5394 67.047 36.3439C66.2451 37.0478 65.5636 37.6513 64.5212 38.5664C63.7493 39.0089 63.3584 37.5506 62.4463 37.2087C62.1456 37.44 61.8749 37.6513 61.6945 37.7921C60.622 37.5708 59.6097 37.3597 58.1362 37.058C55.1191 34.5841 51.6009 31.9493 48.3132 28.9928C46.7495 27.5949 44.9854 26.2775 43.111 25.1814C41.7678 24.397 40.7154 23.1098 39.4925 22.0841C36.265 19.3588 33.0174 16.5731 30.291 13.3652C27.715 10.3483 24.5776 7.79391 22.603 3.64064Z" fill="#185951"/>
</svg>
