<svg width="382" height="322" viewBox="0 0 382 322" fill="none" xmlns="http://www.w3.org/2000/svg">
<g clip-path="url(#clip0_1107:37430)">
<rect width="382" height="322" fill="white"/>
<path opacity="0.08" d="M0 0H382V322H0V0Z" fill="#185951"/>
<mask id="mask0_1107:37430" style="mask-type:alpha" maskUnits="userSpaceOnUse" x="0" y="0" width="383" height="322">
<path d="M0 0H382V322H0V0Z" fill="#185951"/>
</mask>
<g mask="url(#mask0_1107:37430)">
<path d="M302.18 171.613C302.05 173.895 301.244 175.925 299.878 177.687C299.317 178.415 298.161 178.768 297.482 178.033C295.25 175.619 292.522 176.413 289.957 176.782C273.64 179.157 258.055 184.148 242.824 190.304C237.269 192.557 231.794 195.018 226.264 197.349C225.517 197.67 224.812 198.274 223.861 197.39C222.901 196.507 223.796 195.798 223.694 195.097C222.916 189.791 226.959 188.271 230.376 186.227C247.64 175.885 266.411 169.991 286.287 167.445C289.921 166.982 293.584 166.875 297.206 167.597C299.497 168.059 301.548 169.007 302.18 171.613Z" fill="#F6D06D"/>
<path d="M264.543 130.123C266.2 130.635 266.915 131.493 266.514 133.079C266.11 134.637 265.413 135.465 263.618 135.691C259.779 136.171 256.738 138.544 253.679 140.676C242.909 148.169 232.723 156.441 222.417 164.562C221.607 165.201 220.81 165.903 219.56 165.429C218.041 164.852 219.297 163.727 218.955 162.929C217.828 160.309 219.579 158.758 221.178 157.22C229.494 149.233 237.64 141.044 247.432 134.788C250.641 132.734 253.904 130.783 257.364 129.157C258.895 128.441 260.756 129.36 262.192 127.799C262.778 127.159 264.35 127.292 265.404 128.006C265.955 128.375 266.648 128.732 266.5 129.462C266.317 130.303 265.43 129.88 264.543 130.123Z" fill="#F6D06D"/>
<path d="M235.997 95.8429C236.14 98.9553 235.102 100.888 233.084 102.802C229.207 106.489 226.998 111.38 224.744 116.158C221.762 122.476 219.205 128.957 217.187 135.655C216.677 137.348 215.847 138.968 215.069 140.566C214.768 141.174 214.332 141.891 213.353 141.44C212.561 141.073 212.576 140.48 212.467 139.69C211.592 133.512 214.377 128.09 216.101 122.52C218.442 114.925 221.531 107.593 225.956 100.908C227.58 98.4516 229.466 96.2348 231.69 94.305C232.638 93.4835 233.657 92.8717 235.011 93.4089C236.478 94.0177 236.156 95.1478 235.997 95.8429Z" fill="#F6D06D"/>
<path d="M120.792 133.152C113.601 151.135 113.532 171.824 120.654 189.944C124.301 199.227 129.53 207.311 136.273 214.025C142.775 220.533 150.62 225.705 159.496 229.439C169.094 233.481 179.622 235.605 189.977 235.605C198.544 235.605 206.766 234.166 214.473 231.357C216.675 230.569 218.876 229.61 221.044 228.583C221.87 228.172 222.386 227.384 222.42 226.425C222.454 225.431 221.938 224.472 221.113 224.027C201.365 212.86 186.124 195.425 179.347 176.174C175.975 166.652 174.633 156.341 175.321 145.517C175.975 135.104 178.555 125.856 182.993 118.046C188.292 108.694 196.617 101.57 206.422 98.0073C206.526 97.973 206.594 97.9388 206.698 97.8703L215.505 94.8902C216.64 94.5134 217.363 93.52 217.363 92.3212C217.363 91.1565 216.64 90.1974 215.505 89.8549C208.315 87.5599 200.711 86.3953 192.867 86.3953C181.72 86.3953 170.333 88.8273 159.909 93.383C151.032 97.288 143.154 102.7 136.445 109.448C129.599 116.367 124.335 124.348 120.792 133.152ZM170.402 140.893C169.094 151.991 169.954 163.261 172.879 173.468C175.941 184.087 181.342 194.26 188.876 203.646C195.826 212.312 204.255 219.779 213.991 225.911C206.457 228.857 198.372 230.33 189.84 230.33C182.202 230.33 174.633 229.131 167.271 226.733C158.773 223.993 151.032 219.745 144.324 214.127C137.477 208.407 132.007 201.556 128.085 193.747C120.069 177.819 118.452 158.636 123.613 141.098C126.193 132.295 130.528 124.109 136.17 117.395C141.743 110.75 148.624 105.166 156.606 100.85C167.718 94.8217 180.241 91.6018 192.764 91.6018C197.03 91.6018 201.296 91.9786 205.39 92.7322L204.874 92.9035C204.737 92.972 204.565 93.0062 204.427 93.109C194.656 96.7741 186.399 103.214 180.585 111.777C175.184 119.827 171.743 129.589 170.402 140.893Z" fill="#185951"/>
<path fill-rule="evenodd" clip-rule="evenodd" d="M119.734 132.728L119.735 132.726C123.336 123.78 128.685 115.672 135.635 108.647L135.636 108.646L135.637 108.645C142.447 101.795 150.444 96.3024 159.45 92.3405L159.451 92.34L159.452 92.3394C170.016 87.7229 181.558 85.2563 192.867 85.2563C200.822 85.2563 208.539 86.437 215.843 88.7674C217.442 89.2539 218.502 90.6449 218.502 92.3212C218.502 94.0127 217.463 95.4386 215.867 95.97C215.866 95.9704 215.865 95.9709 215.864 95.9713L207.186 98.9075C207.066 98.9772 206.944 99.033 206.798 99.0826C197.262 102.551 189.151 109.488 183.984 118.607L183.984 118.608L183.984 118.609C179.644 126.245 177.103 135.32 176.458 145.589L176.458 145.59C175.779 156.273 177.104 166.428 180.42 175.794L180.42 175.795L180.421 175.796C187.095 194.754 202.131 211.982 221.664 223.03C222.9 223.703 223.606 225.084 223.558 226.464L223.558 226.465C223.509 227.839 222.753 229.004 221.551 229.602L221.542 229.607L221.532 229.612C219.345 230.649 217.108 231.624 214.86 232.428C207.025 235.283 198.671 236.744 189.977 236.744C179.47 236.744 168.792 234.59 159.054 230.489C150.052 226.703 142.083 221.451 135.469 214.832C128.608 208.001 123.295 199.782 119.594 190.361C112.366 171.971 112.436 150.982 119.734 132.729L119.734 132.728ZM120.654 189.944C124.301 199.227 129.53 207.311 136.273 214.025C142.775 220.533 150.619 225.705 159.496 229.439C169.094 233.481 179.622 235.605 189.977 235.605C198.544 235.605 206.766 234.166 214.473 231.357C216.674 230.569 218.876 229.61 221.044 228.583C221.869 228.172 222.386 227.384 222.42 226.425C222.454 225.431 221.938 224.472 221.113 224.027C201.365 212.86 186.124 195.425 179.346 176.174C175.975 166.652 174.633 156.342 175.321 145.517C175.975 135.104 178.555 125.856 182.993 118.046C188.291 108.695 196.617 101.57 206.422 98.0074C206.525 97.9731 206.594 97.9389 206.697 97.8704L215.505 94.8903C216.64 94.5135 217.363 93.5201 217.363 92.3212C217.363 91.1566 216.64 90.1975 215.505 89.855C208.314 87.56 200.711 86.3954 192.867 86.3954C181.72 86.3954 170.333 88.8274 159.908 93.3831C151.032 97.288 143.154 102.7 136.445 109.448C129.599 116.367 124.335 124.349 120.791 133.152C113.601 151.135 113.532 171.824 120.654 189.944ZM169.27 140.759L169.27 140.759C170.63 129.304 174.123 119.364 179.639 111.143L179.641 111.14L179.643 111.138C185.004 103.241 192.395 97.1117 201.113 93.2356C198.365 92.906 195.565 92.7409 192.764 92.7409C180.434 92.7409 168.097 95.9117 157.149 101.852L157.147 101.852C149.287 106.103 142.52 111.596 137.042 118.127L137.042 118.127L137.042 118.128C131.506 124.715 127.244 132.76 124.705 141.419L124.705 141.42L124.705 141.42C119.624 158.689 121.22 177.573 129.102 193.235L129.103 193.235L129.103 193.235C132.953 200.902 138.324 207.63 145.054 213.254L145.054 213.254L145.055 213.254C151.648 218.775 159.259 222.953 167.62 225.649L167.622 225.649L167.624 225.65C174.873 228.011 182.322 229.191 189.84 229.191C197.442 229.191 204.672 228.003 211.458 225.634C202.429 219.679 194.557 212.55 187.988 204.359C180.368 194.867 174.892 184.561 171.784 173.784L171.784 173.783L171.784 173.782C168.816 163.422 167.946 152 169.27 140.76L169.27 140.759ZM212.798 225.148C213.193 225.405 213.591 225.659 213.991 225.911C213.549 226.084 213.105 226.251 212.659 226.414C205.506 229.024 197.871 230.33 189.84 230.33C182.202 230.33 174.633 229.131 167.271 226.733C158.773 223.993 151.032 219.745 144.324 214.128C137.477 208.407 132.007 201.556 128.085 193.747C120.069 177.819 118.452 158.636 123.612 141.099C126.193 132.295 130.528 124.109 136.17 117.395C141.743 110.75 148.624 105.166 156.606 100.85C167.718 94.8218 180.241 91.6019 192.764 91.6019C196.27 91.6019 199.777 91.8565 203.188 92.3656C203.446 92.4041 203.704 92.4442 203.961 92.4857C204.044 92.4989 204.126 92.5124 204.208 92.5259C204.382 92.5547 204.556 92.5842 204.73 92.6143C204.747 92.6173 204.764 92.6202 204.781 92.6232C204.984 92.6586 205.187 92.695 205.39 92.7323L204.874 92.9036C204.824 92.9287 204.769 92.9492 204.712 92.9702C204.615 93.0064 204.514 93.044 204.427 93.1091C204.056 93.2481 203.688 93.391 203.322 93.5379C194.033 97.2657 186.179 103.539 180.585 111.777C175.184 119.827 171.743 129.589 170.401 140.893C169.094 151.991 169.954 163.261 172.879 173.468C175.941 184.087 181.342 194.26 188.876 203.646C195.54 211.956 203.565 219.164 212.798 225.148Z" fill="#185951"/>
</g>
</g>
<defs>
<clipPath id="clip0_1107:37430">
<rect width="382" height="322" fill="white"/>
</clipPath>
</defs>
</svg>
