<svg width="243" height="261" viewBox="0 0 243 261" fill="none" xmlns="http://www.w3.org/2000/svg">
<path d="M52.5737 1.21816C54.5121 0.776838 56.4028 0.964955 58.203 1.68982C58.9455 1.98635 59.5182 2.87474 59.0663 3.62381C57.5834 6.08671 58.9013 8.19188 59.8239 10.2625C65.7203 23.4293 73.628 35.3484 82.4248 46.6876C85.6389 50.8212 89.0085 54.8372 92.2826 58.9312C92.7294 59.4822 93.4036 59.9302 92.8928 60.9444C92.3847 61.966 91.5774 61.3842 91.0157 61.6389C86.7675 63.5751 84.528 60.5379 82.0005 58.1541C69.2179 46.1141 59.7915 31.7305 52.8998 15.6078C51.6411 12.6595 50.6739 9.60077 50.4094 6.37625C50.2463 4.33604 50.5468 2.37975 52.5737 1.21816Z" fill="#F6D06D"/>
<path d="M26.9147 42.9307C26.946 41.4114 27.4916 40.6017 28.9131 40.5572C30.3128 40.521 31.1719 40.9074 31.7907 42.3646C33.1124 45.4816 35.8244 47.4689 38.3397 49.5307C47.1846 56.7901 56.5407 63.37 65.7986 70.0877C66.5276 70.6154 67.3049 71.1165 67.2085 72.2836C67.0897 73.7021 65.8486 72.9161 65.2635 73.3974C63.3435 74.9791 61.6277 73.8789 59.9584 72.9034C51.2895 67.8301 42.4924 62.9478 34.9157 56.213C32.4293 54.0062 30.0166 51.7296 27.8286 49.2088C26.8631 48.0923 27.1847 46.3039 25.5356 45.4715C24.8605 45.1327 24.5951 43.7761 24.9392 42.7161C25.1154 42.1637 25.2477 41.4938 25.8933 41.4418C26.64 41.3934 26.4997 42.2421 26.9147 42.9307Z" fill="#F6D06D"/>
<path d="M5.10382 75.2463C7.67106 74.3741 9.53557 74.7815 11.6185 76.0189C15.6304 78.3931 20.2482 79.0721 24.7821 79.8163C30.778 80.8023 36.808 81.39 42.8904 81.4722C44.4277 81.4928 45.9806 81.8004 47.5026 82.0696C48.0828 82.1764 48.787 82.3702 48.6449 83.3034C48.5281 84.0595 48.0283 84.1902 47.3938 84.4725C42.4401 86.7011 37.2401 85.6649 32.1713 85.5587C25.2619 85.4214 18.3929 84.5904 11.744 82.4784C9.30173 81.7037 6.99673 80.6509 4.85078 79.2447C3.93681 78.6447 3.18124 77.9344 3.30571 76.6646C3.46285 75.2819 4.4846 75.28 5.10382 75.2463Z" fill="#F6D06D"/>
<path d="M42.9525 49.2876C42.8495 48.8056 43.2101 48.5184 43.5125 48.3706C45.4182 47.432 47.1509 46.1998 49.0236 45.1965C50.0072 44.6708 50.9993 44.0619 51.9099 43.3611C52.6308 42.8095 53.5208 42.5629 54.2641 42.0191C55.0643 41.4344 56.008 41.0899 56.8564 40.5625C57.5684 40.1168 58.4275 39.9379 59.1732 39.504C60.2558 38.8735 61.3974 38.3346 62.535 37.8145C63.2682 37.4826 63.969 37.033 64.7964 36.9824C65.0145 36.9699 65.1217 36.8198 65.2804 36.746C65.972 36.4326 66.6488 36.0962 67.3845 35.8666C68.9201 35.3817 70.4049 34.7446 71.9438 34.2862C73.0604 33.9514 74.1514 33.552 75.2571 33.183C76.3212 32.8324 77.3926 32.4971 78.4675 32.1883C80.9906 31.4654 83.5462 30.8526 86.1295 30.4296C88.1554 30.0982 90.1982 29.9299 92.2551 29.8298C93.9209 29.7478 95.5911 29.6165 97.2429 29.7577C98.5682 29.8684 99.9183 29.7901 101.208 30.0253C102.423 30.2444 103.661 30.3957 104.877 30.5845C107.686 31.0161 110.472 31.5609 113.237 32.2153C114.863 32.5984 116.489 33.0194 118.116 33.3798C120.023 33.8005 121.868 34.4323 123.772 34.8567C124.889 35.1049 126.011 35.5123 127.127 35.8362C128.206 36.1522 129.237 36.6189 130.335 36.8632C131.433 37.1074 132.496 37.5291 133.551 37.8827C134.543 38.2165 135.68 38.34 136.531 39.0735C137.432 38.861 138.085 39.5428 138.86 39.7756C139.624 40.0044 140.402 40.294 141.174 40.4699C141.969 40.6537 142.774 40.8641 143.553 41.0704C145.138 41.4871 146.758 41.749 148.335 42.1581C149.298 42.4082 150.264 42.348 151.224 42.511C153.047 42.8133 154.914 42.9078 156.782 42.8433C157.53 42.8183 158.282 42.8501 159.001 43.0482C159.548 43.1986 159.97 42.8062 160.503 42.8581C161.362 42.948 162.238 42.8942 163.106 42.9161C163.396 42.9234 163.663 42.9153 163.846 42.66C164.077 42.8521 164.255 42.9982 164.419 43.1364C164.731 43.144 164.459 42.9022 164.604 42.7903C164.961 42.7681 165.342 42.6478 165.726 42.8607C166.088 43.0582 166.379 42.6755 166.773 42.7295C167.624 42.8496 168.497 42.2166 169.35 42.7834C170.118 42.4179 170.965 42.5417 171.771 42.4152C172.174 42.3481 172.61 42.3685 172.986 42.6192C173.314 42.8352 173.646 42.1502 173.982 42.6123C175.334 42.1062 176.684 42.6261 178.002 42.7443C180.108 42.9401 182.246 42.9773 184.336 43.5327C185.381 43.8141 186.55 43.7942 187.618 44.0608C190.027 44.6541 192.475 45.0812 194.813 45.969C195.778 46.3365 196.825 46.4817 197.786 46.8606C199.824 47.6538 201.87 48.4471 203.843 49.4023C204.213 49.5772 204.617 49.6881 204.876 50.0698C205.156 50.4821 205.678 50.2083 206.085 50.4214C206.567 50.6734 206.884 51.1391 207.453 51.3201C207.768 51.4224 208.15 51.7715 208.513 51.8857C209.696 52.2635 210.514 53.2842 211.705 53.6318C212.154 53.766 212.453 54.1974 212.777 54.4929C213.881 55.4944 215.378 55.9365 216.345 57.0878C216.875 57.7189 217.531 58.1357 218.256 58.4247C218.488 58.5183 218.739 58.6085 218.812 58.7986C219.07 59.4719 219.728 59.7297 220.197 60.167C220.698 60.6312 221.36 60.9156 221.827 61.4588C222.301 62.0098 222.747 62.6701 223.356 62.9993C224.446 63.5804 225.152 64.5317 225.976 65.367C226.388 65.7847 227.016 66.0649 227.033 66.8261C227.043 67.2275 227.857 66.7716 227.822 67.4262C227.802 67.8121 228.063 67.9668 228.423 68.0847C228.752 68.1947 228.632 68.8141 229.011 68.8603C229.382 68.9065 229.849 69.1128 229.798 69.3128C229.668 69.8148 230.384 69.6796 230.247 70.083C230.235 70.117 230.265 70.1779 230.298 70.2048C231.307 71.0234 231.745 72.2971 232.716 73.1682C233.281 73.6748 233.719 74.3881 234.052 75.085C234.379 75.7515 234.822 76.3399 235.232 76.9241C235.953 77.9362 236.332 79.1257 237.057 80.1189C237.253 80.39 236.734 81.0122 237.489 81.01C237.374 81.497 237.861 81.6392 238.011 81.9628C238.125 82.2027 238.083 82.5203 238.112 82.8803C238.633 83.3258 238.85 84.0023 239.138 84.6986C239.689 86.0342 240.18 87.3917 240.558 88.7706C241.075 90.6699 241.691 92.5779 241.605 94.5911C241.589 95.0035 242.009 95.0843 242.031 95.4443C242.17 97.5585 242.52 99.6526 242.279 101.804C242.178 102.704 242.399 103.676 242.301 104.595C242.105 106.447 242.161 108.314 241.695 110.164C241.418 111.259 241.306 112.438 241.048 113.567C240.519 115.912 239.904 118.229 238.832 120.389C238.035 122.004 237.267 123.634 236.334 125.186C236.012 125.72 235.526 126.115 235.279 126.635C235.024 127.169 234.692 127.586 234.278 127.956C233.951 128.247 234.065 128.748 233.652 129.027C233.334 129.243 232.966 129.492 232.941 130.041C232.93 130.29 232.506 130.528 232.267 130.763C231.92 131.103 231.615 131.509 231.217 131.765C230.891 131.973 231.086 132.642 230.486 132.544C230.539 133.135 230.01 133.333 229.709 133.674C229.423 134 229.089 134.291 228.781 134.594C228.434 134.934 228.088 135.275 227.742 135.615C227.43 135.922 227.014 136.174 226.832 136.547C226.485 137.262 225.796 137.655 225.367 138.301C224.893 139.014 224.175 139.57 223.529 140.153C222.963 140.665 222.807 141.454 222.177 141.931C221.566 142.397 220.895 142.915 220.548 143.569C220.152 144.311 219.369 144.729 219.097 145.43C218.771 146.266 217.952 146.578 217.568 147.27C216.741 148.778 215.46 149.971 214.619 151.433C213.555 153.279 212.267 154.979 211.285 156.886C210.646 158.128 210.044 159.393 209.405 160.634C208.77 161.865 208.381 163.227 207.962 164.558C207.434 166.221 207.105 167.929 206.851 169.66C206.596 171.398 206.601 173.151 206.373 174.886C206.269 175.676 206.312 176.472 206.186 177.261C206.047 178.115 206.239 179.026 206.104 179.884C205.766 182.027 206.009 184.226 205.427 186.339C205.468 189.073 204.59 191.678 204.272 194.362C204.112 195.701 203.578 196.989 203.235 198.306C202.663 200.491 201.874 202.606 201.107 204.728C200.403 206.677 199.53 208.552 198.575 210.388C197.894 211.708 197.145 212.998 196.482 214.33C196.216 214.868 195.548 215.137 195.535 215.829C194.528 216.745 194.15 218.149 193.102 219.037C192.851 219.912 192.138 220.434 191.511 220.983C191.032 221.401 191.035 222.094 190.478 222.469C189.966 222.815 189.389 223.255 189.153 223.794C188.72 224.773 187.906 225.335 187.217 226.034C185.618 227.658 183.99 229.259 182.336 230.825C181.792 231.337 181.411 232.063 180.612 232.288C179.91 232.484 179.704 233.375 178.935 233.517C178.657 233.567 178.862 234.001 178.57 234.16C178.003 234.479 177.776 235.211 177.022 235.361C176.438 235.479 176.277 236.332 175.548 236.369C175.104 236.394 175.448 237.432 174.666 237.168C174.173 237.825 173.432 238.157 172.784 238.607C172.246 238.979 171.982 239.657 171.247 239.834C170.621 239.985 170.426 240.903 169.644 240.878C169.108 241.705 168.098 241.92 167.432 242.605C166.93 243.121 166.271 243.499 165.639 243.866C164.662 244.438 163.697 245.036 162.753 245.656C162.405 245.887 162.045 246.068 161.686 246.257C161.482 246.36 161.246 246.263 161.041 246.465C159.758 247.748 158.089 248.447 156.515 249.238C155.566 249.715 154.646 250.291 153.594 250.6C153.307 250.687 152.968 251.035 152.633 251.058C151.641 251.121 150.844 251.68 150.005 252.078C149.544 252.3 149.095 252.472 148.605 252.55C148.511 252.568 148.373 252.509 148.319 252.554C147.38 253.447 146.098 253.519 144.973 253.937C143.882 254.344 142.714 254.542 141.634 254.976C139.458 255.85 137.146 256.239 134.949 257.022C134.232 257.279 133.46 257.379 132.903 257.509C132.445 257.734 132.723 258.074 132.408 258.286C132.124 258.469 131.791 258.324 131.4 258.081C130.78 258.967 129.725 258.875 128.828 259.091C126.71 259.603 124.562 260.024 122.409 260.361C120.993 260.579 119.584 260.834 118.129 260.881C113.516 261.034 108.905 261.004 104.3 260.85C102.542 260.791 100.776 260.739 99.0266 260.589C97.54 260.458 96.0382 260.341 94.5641 260.115C91.1281 259.589 87.6847 259.063 84.2896 258.28C81.6927 257.676 79.1427 256.922 76.589 256.172C74.9526 255.694 73.3472 255.141 71.7539 254.524C69.2106 253.539 66.698 252.501 64.1974 251.4C61.8501 250.364 59.7683 248.836 57.3705 247.932C56.2646 246.798 54.6072 246.498 53.5281 245.323C52.7296 245.165 52.2078 244.512 51.5968 244.08C50.9635 243.633 50.1892 243.34 49.6978 242.656C49.4762 242.343 48.9382 242.386 48.6687 242C48.4472 241.68 48.1617 241.362 47.7189 241.311C47.8011 240.737 47.1507 241.062 46.9786 240.693C46.8029 240.319 46.4544 239.929 46.0844 239.762C45.18 239.357 44.7222 238.386 43.9229 237.99C43.0526 237.559 42.6537 236.688 41.8847 236.269C40.9478 235.755 40.6831 234.676 39.8483 234.106C39.7775 234.056 39.8178 233.837 39.8084 233.689C39.5991 233.595 39.5059 233.837 39.2609 233.89C39.1639 233.53 39.1352 233.117 38.9473 232.808C38.7226 232.445 38.3577 232.168 38.0052 231.804C37.629 231.838 37.2039 231.874 36.8276 231.907C36.5221 231.393 36.0659 231.205 35.907 230.681C35.8385 230.449 35.319 230.219 35.0061 229.996C34.5926 229.7 34.6878 228.985 34.2717 228.901C33.7094 228.788 33.4852 228.38 33.1698 228.054C30.2232 225.035 27.288 222.005 24.3642 218.964C24.0488 218.638 23.5405 218.412 23.6117 217.819C22.7791 217.987 23.1022 217.086 22.7034 216.812C22.3383 216.558 22.1484 216.109 21.9205 215.697C21.527 214.999 20.8116 214.499 20.2555 213.886C19.8847 213.48 19.4376 213.164 19.2914 212.53C19.1736 212.025 18.5987 211.716 18.3082 211.201C17.955 210.583 17.6142 209.886 17.0871 209.357C16.7269 209.001 16.3779 208.656 16.2306 208.105C16.1193 207.691 15.441 207.535 15.5423 206.935C14.8103 206.263 14.4911 205.328 13.9863 204.516C12.7667 202.551 11.7134 200.505 10.7397 198.411C9.92332 196.656 9.08042 194.919 8.28299 193.153C8.02698 192.582 7.78247 191.992 7.56794 191.41C6.78975 189.303 5.95145 187.196 5.41459 185.024C4.93494 183.087 4.36492 181.164 3.96832 179.198C3.7595 178.155 3.32865 177.135 3.06731 176.083C2.44782 173.603 1.89615 171.109 1.47252 168.594C1.09775 166.382 0.666466 164.181 0.724513 161.918C0.739423 161.32 0.581415 160.727 0.558749 160.129C0.533309 159.451 0.66976 158.748 0.550147 158.088C0.391588 157.234 0.492347 156.38 0.371176 155.542C0.277725 154.893 0.908228 154.355 0.454803 153.642C0.12299 153.123 0.815673 152.42 0.443884 151.79C0.916029 150.99 0.351643 150.131 0.625528 149.256C0.891524 148.411 0.700772 147.425 0.715996 146.497C0.727415 145.573 0.637636 144.63 0.772914 143.719C1.01905 142.048 0.848325 140.354 1.0567 138.698C1.25663 137.118 1.11513 135.492 1.63755 133.969C1.76229 133.607 1.44807 133.49 1.47046 133.198C1.48923 132.896 1.72835 132.706 1.71697 132.41C1.66774 131.225 1.82884 130.049 1.9711 128.877C2.16834 127.21 2.41439 125.547 2.5966 123.88C2.88413 121.293 3.41517 118.767 3.96878 116.241C4.32736 114.595 4.74596 112.956 5.14203 111.318C5.609 109.416 6.05725 107.509 6.5579 105.618C6.94402 104.177 7.42376 102.763 7.82862 101.325C8.14707 100.19 8.42442 99.0344 8.69425 97.8792C9.07092 96.2898 9.50389 94.7049 9.89179 93.1195C10.442 90.8659 11.1456 88.6709 11.9353 86.5035C12.3321 85.4104 12.7253 84.3134 13.2645 83.2599C13.6034 82.5976 13.9281 81.8671 14.166 81.162C14.6574 79.7217 15.4917 78.4975 16.1769 77.1807C16.4194 76.718 16.7585 76.3473 17.0155 75.9225C17.2535 75.5241 17.521 75.1639 17.7775 74.7846C18.5431 73.6505 19.5175 72.6552 20.0931 71.3863C20.1317 71.3035 20.1854 71.2208 20.2575 71.1649C21.4718 70.218 22.095 68.7528 23.2723 67.7599C24.3204 66.8791 24.8783 65.5229 26.0047 64.6923C26.2189 63.7862 27.1178 63.4185 27.5699 62.7197C28.7845 60.8376 30.5524 59.4961 32.0788 57.9206C33.5977 56.3527 35.1871 54.8575 36.7356 53.3202C37.8352 52.2318 39.1713 51.4642 40.4187 50.5745C40.6879 50.3847 41.091 50.3025 41.3388 50.0139C41.7956 49.5424 42.3282 49.3255 42.9525 49.2876ZM155.633 45.5288C155.544 44.8311 155.131 44.7504 154.696 44.677C154.495 44.8752 154.289 45.0772 153.989 45.3726C153.346 44.7705 152.696 45.6864 151.885 45.3548C151.215 45.0779 150.375 45.2305 149.62 45.1948C149.485 45.5226 149.983 45.6763 149.76 46.0446C150.406 46.0903 151.104 45.8829 151.543 46.5508C151.737 46.3601 151.87 46.2292 152.034 46.0684C152.537 46.3736 153.106 46.2933 153.654 46.3C154.18 46.3063 154.697 46.7934 155.221 46.3227C155.658 46.8656 156.21 46.2779 156.726 46.481C157.19 46.6608 157.766 46.5579 158.292 46.5643C158.848 46.571 159.421 46.4265 159.947 46.4405C160.473 46.4544 160.997 46.3055 161.519 46.4065C162.058 46.5115 162.607 46.7945 163.144 46.5587C163.718 46.3006 164.22 46.4354 164.766 46.654C165.276 45.8386 165.834 46.3452 166.378 46.7303C166.38 46.5184 166.381 46.4199 166.383 46.3139C166.645 46.0786 166.718 46.5527 166.956 46.4685C167.605 46.2416 168.293 45.9395 168.956 46.1028C169.701 46.2897 170.396 46.0634 171.113 46.0759C173.931 46.1176 176.741 46.2121 179.55 46.4052C179.741 46.4188 179.983 46.346 180.121 46.4348C180.93 46.9784 181.842 46.7547 182.708 46.875C183.643 47.0036 184.628 46.9247 185.509 47.1436C186.839 47.4739 188.158 47.7852 189.488 47.7635C189.572 47.95 189.428 48.1148 189.536 48.1502C190.291 48.1858 191.109 47.9951 191.59 48.3151C192.242 48.7433 192.809 48.5078 193.592 48.6952C192.528 47.804 192.528 47.804 191.502 47.7802C191.431 47.2077 190.606 47.3529 190.497 46.7118C190.035 46.9939 189.585 47.5564 189.052 46.8533C188.949 46.7158 188.795 46.6874 188.671 46.7275C187.749 47.0647 186.899 46.5698 186.032 46.4495C185.346 46.3541 184.549 46.3066 184.167 45.6205C183.438 45.9108 182.814 45.9108 182.186 45.6987C182.181 45.4867 182.179 45.339 182.173 45.1724C181.788 45.3116 181.415 45.4471 181.026 45.5901C180.665 45.2412 180.186 45.1066 179.707 44.9645C179.57 45.0992 179.433 45.2338 179.296 45.3685C178.924 45.0838 178.491 45.1353 178.077 45.1531C177.694 45.1711 177.386 44.8305 176.92 45.0936C176.591 45.2752 176.071 45.1212 175.639 45.1122C175.363 44.9272 175.21 44.5467 174.768 44.4505C174.877 44.7168 174.946 44.8805 175.1 45.2458C174.539 44.7052 174.098 45.139 173.632 45.1031C172.862 45.0445 172.088 45.073 171.314 45.0637C171.062 45.6475 170.693 44.7911 170.358 45.1581C169.969 45.585 169.88 44.6336 169.482 44.8749C169.466 45.0034 169.453 45.1282 169.465 45.011C168.492 45.003 167.59 44.9921 166.685 44.9773C166.436 45.0122 166.814 44.5889 166.456 44.6111C165.878 44.6041 166.509 45.4863 165.842 45.4025C165.666 45.3057 165.929 45.0401 165.64 44.9723C165.376 45.0296 165.303 45.4528 164.944 45.3879C164.973 45.1497 165.006 44.9002 164.875 44.8419C164.554 44.7093 164.469 44.8445 164.37 44.9418C163.936 45.3833 163.463 45.6766 162.832 45.3623C162.398 45.7735 161.987 45.2801 161.551 45.3354C161.076 45.3903 160.563 45.2364 160.107 45.3483C158.652 45.7244 157.183 45.4037 155.633 45.5288ZM82.0145 44.706C83.2126 45.0688 84.2768 44.7107 85.3291 44.7083C86.2348 44.7079 87.1725 44.5489 88.0909 44.4388C89.0844 44.3221 90.0756 44.4023 91.0504 44.2816C92.492 44.1059 93.9223 43.9188 95.3727 43.9439C95.7559 43.9486 96.1867 44.0636 96.5153 43.9274C97.4104 43.571 98.3053 43.8355 99.1964 43.7971C100.088 43.7587 100.956 43.4663 101.864 43.5909C102.104 43.6241 102.252 43.8076 102.602 43.7399C104.034 43.4619 105.525 43.8131 106.969 43.4633C107.438 43.8325 107.912 43.418 108.393 43.4692C108.881 43.5206 109.373 43.4925 109.907 43.4989C109.638 42.7839 109.104 43.1144 108.74 43.0153C107.145 42.5795 105.502 42.3023 103.85 42.199C100.62 42.0009 97.3901 42.17 94.1802 42.5135C93.3824 42.6023 92.5825 42.5585 91.7993 42.6778C89.1374 43.081 86.486 43.541 83.838 44.0277C83.2504 44.1341 82.6322 44.2857 82.0145 44.706ZM68.6938 39.7025C68.938 39.7017 69.126 39.6964 69.3102 39.6949C69.2624 39.3006 69.5215 39.0159 69.5934 38.6761C70.1152 38.4174 70.1926 39.4481 70.7421 39.0799C70.8392 38.8274 70.4046 38.7162 70.5922 38.4421C70.8904 38.0292 71.3935 38.0656 71.7866 37.881C71.9956 38.0047 72.0518 38.3158 72.3564 38.3006C72.4062 37.9226 72.4934 37.5602 72.9416 37.4785C73.8304 37.3227 74.6345 36.7343 75.5908 36.8935C75.9358 36.9507 76.1699 36.556 76.5215 36.689C76.875 36.0648 77.5435 36.1031 78.1052 35.9623C79.9412 35.4885 81.7663 34.9881 83.6273 34.6245C86.0911 34.1394 88.5624 33.6544 91.0572 33.4007C92.7767 33.2284 94.5022 32.8858 96.2445 33.0054C96.5185 33.0276 96.678 32.9008 96.6508 32.6657C89.7056 32.0743 83.0733 33.5388 76.5303 35.6782C76.5411 35.4133 76.5931 35.1603 76.2902 35.0392C75.7882 35.2111 75.2892 35.4474 74.7695 35.5395C74.1255 35.6491 73.7869 35.9819 73.7834 36.5687C73.1836 36.747 72.6782 36.8999 72.2105 37.0381C72.032 36.8845 71.8509 36.6362 71.7491 36.6615C71.0063 36.8607 70.146 36.8314 69.7444 37.7049C69.3221 37.2076 68.9402 37.7027 68.5615 37.6338C68.3785 38.1503 67.523 37.7348 67.4496 38.5025C67.3977 39.0546 66.9563 39.1969 66.4407 38.9484C66.4419 38.8499 66.4431 38.7515 66.4448 38.6152C66.1662 38.9564 65.588 38.6124 65.413 39.0911C65.4012 39.4393 65.9246 39.0443 65.8021 39.5312C65.0543 39.8326 64.2938 40.2437 63.476 40.4345C62.9332 40.5642 62.7268 40.8494 62.4279 41.3153C63.0801 41.1452 63.5772 40.7613 64.1596 41.0712C64.1632 40.7835 64.114 40.5027 64.5617 40.4665C64.968 40.4336 65.1603 40.6782 65.4094 40.897C65.4987 40.9738 65.5972 40.9069 65.5984 40.8085C65.5215 40.6447 65.4484 40.4848 65.3386 40.2412C66.474 39.9029 67.5249 39.4082 68.6916 39.2709C68.6972 39.4224 68.6923 39.517 68.6938 39.7025ZM60.3637 248.393C60.4234 248.73 60.6281 248.895 60.9048 249.005C62.0718 249.458 63.1766 250.07 64.2973 250.613C66.3145 251.599 68.3786 252.435 70.4657 253.24C74.0227 254.612 77.638 255.829 81.3237 256.82C82.8969 257.241 84.4816 257.642 86.0747 257.968C87.7804 258.318 89.5139 258.536 91.2272 258.878C92.8691 259.209 94.5366 259.297 96.1833 259.548C97.5674 259.758 98.9855 259.658 100.357 260C100.63 260.068 100.935 260.022 101.221 260.018C101.507 260.014 101.814 260.078 102.059 259.979C101.962 259.61 101.775 259.601 101.575 259.609C100.677 259.64 99.7693 259.485 98.9182 259.327C96.8673 258.943 94.7907 258.808 92.7353 258.48C91.6401 258.308 90.4984 258.241 89.4457 257.975C87.0742 257.374 84.6669 256.944 82.2955 256.336C79.1075 255.514 76.0014 254.454 72.8446 253.541C72.0957 253.328 71.4739 252.854 70.7474 252.649C69.1483 252.194 67.5766 251.652 66.1014 250.904C64.9809 250.338 63.7674 250.012 62.6667 249.367C61.9876 248.973 61.2072 248.566 60.3637 248.393ZM94.608 231.63C95.3972 231.632 96.0805 232 96.8104 232.232C97.6714 232.507 98.5717 232.639 99.4404 232.892C99.77 232.987 100.122 232.514 100.402 232.964C101.936 232.54 103.448 232.812 104.985 233.088C105.024 233.297 105.052 233.471 105.08 233.631C105.271 233.637 105.467 233.647 105.651 233.653C105.66 233.509 105.669 233.373 105.675 233.24C106.052 233.139 106.07 233.786 106.493 233.61C106.42 233.435 106.351 233.271 106.274 233.107C106.939 232.521 106.942 232.517 107.632 232.976C107.766 233.069 107.879 233.093 108.004 232.969C108.201 232.828 108.102 232.619 108.131 232.441C108.478 232.324 109.014 232.717 109.168 232.147C108.309 231.69 107.405 231.876 106.539 231.755C105.537 231.618 104.544 231.406 103.526 231.336C102.542 231.264 101.551 231.184 100.579 231.07C99.4796 230.939 98.397 230.657 97.2809 230.655C96.8938 230.654 96.4527 230.766 96.1389 230.611C95.7243 230.405 95.3218 230.442 94.9086 230.422C94.4654 230.401 94.0256 230.407 93.6085 230.406C93.6441 231.171 94.7877 230.78 94.608 231.63ZM129.899 113.233C130.398 113.603 130.712 113.076 131.163 113.12C131.609 113.167 132.076 113.104 132.543 113.027C134.32 112.73 136.122 112.589 137.917 112.403C139.212 112.267 140.524 112.173 141.794 111.965C143.063 111.757 144.356 111.727 145.607 111.454C146.794 111.192 148.076 111.435 149.193 110.786C149.06 109.952 148.7 109.572 147.843 109.645C146.609 109.752 145.381 109.949 144.154 110.138C143.299 110.268 142.454 110.508 141.597 110.573C139.904 110.711 138.26 111.116 136.614 111.463C134.624 111.886 132.635 112.308 130.642 112.704C130.261 112.779 130.049 112.921 129.899 113.233ZM15.9983 112.604C16.1231 112.235 16.3266 111.893 16.3156 111.559C16.3104 111.378 16.1316 111.247 16.2929 110.968C16.9457 109.841 17.6061 108.705 18.1319 107.515C18.4025 106.905 18.8452 106.365 18.8954 105.643C19.0246 103.706 19.2063 101.777 19.3692 99.8445C19.3865 99.663 19.295 99.4688 19.4662 99.3005C19.7058 99.0649 19.5707 98.749 19.5741 98.4765C19.5771 98.2342 19.7046 97.9518 19.4118 97.6189C18.5671 99.6758 18.0082 101.713 17.4795 103.752C16.9782 105.688 16.5032 107.636 16.0732 109.591C15.878 110.479 15.5856 111.335 15.3231 112.199C15.2879 112.308 15.3351 112.449 15.3379 112.521C15.5705 112.554 15.7619 112.575 15.9983 112.604ZM69.9524 191.101C70.7164 190.41 71.7694 190.347 72.6213 189.839C73.6662 189.215 74.7588 188.687 75.8185 188.087C76.7193 187.575 77.6457 187.113 78.5098 186.525C79.4004 185.927 80.4163 185.526 81.3476 184.97C82.3131 184.394 83.264 183.774 84.2808 183.298C84.8516 183.028 85.4258 182.793 85.96 182.447C86.5623 182.057 87.1836 181.656 87.8517 181.418C88.5312 181.176 88.9582 180.375 89.8315 180.563C90.0414 180.611 90.2141 180.322 90.3257 180.115C90.3796 180.009 90.39 179.775 90.4162 179.779C91.2538 179.816 91.7067 179.056 92.484 178.801C92.253 178.639 92.1797 178.487 91.8583 178.645C90.3798 179.381 88.8498 180.025 87.3786 180.776C86.8605 181.038 86.2425 181.175 85.8752 181.7C84.5786 182.01 83.5272 182.857 82.4402 183.537C81.3267 184.235 80.154 184.857 79.0261 185.502C76.5281 186.925 74.0962 188.479 71.4953 189.719C71.1044 190.335 70.1438 190.21 69.9524 191.101ZM37.2602 210.294C37.0225 210.678 36.8807 210.899 36.7426 211.125C36.1779 210.596 35.8044 211.628 35.1402 211.242C34.5568 210.709 34.0026 209.937 33.1131 209.54C32.6982 209.357 32.6214 209.485 32.5571 209.825C33.0546 210.316 33.4454 210.934 34.1432 211.025C34.2819 211.36 33.8597 211.461 34.0066 211.743C34.6337 212.39 35.1679 213.256 35.9409 213.656C36.7923 214.098 37.2945 214.815 37.9448 215.41C38.6211 216.032 39.2289 216.72 39.8709 217.383C40.0378 217.556 40.201 217.739 40.3794 217.9C40.4388 217.954 40.5439 217.963 40.63 217.991C40.7973 217.834 41.0241 217.73 41.0762 217.47C40.2429 217.085 40.288 217.078 40.2526 216.297C40.2314 215.885 40.587 215.999 40.6718 215.833C40.9371 215.348 40.3349 215.11 40.3247 214.723C40.2647 214.408 40.8689 214.472 40.6339 214.03C40.1657 214.206 39.9573 214.95 39.2775 214.616C38.9981 213.806 38.9981 213.806 38.0751 213.996C37.7978 214.231 38.4382 214.409 38.1264 214.708C37.912 214.418 37.3829 214.355 37.8032 213.799C37.9293 213.63 37.6309 213.138 37.5694 212.945C37.3547 212.685 37.0961 212.931 37.0392 212.666C36.947 212.225 37.2253 211.907 37.3085 211.556C37.6023 211.499 37.8787 211.638 38.0947 211.493C37.9737 210.947 37.4204 211.319 37.2712 210.927C37.269 210.802 37.267 210.662 37.2602 210.294ZM98.6648 57.6172C97.9659 57.6087 97.324 57.5517 96.6882 57.6084C96.0637 57.6614 95.4645 57.4952 94.829 57.5216C93.983 57.5605 93.1608 57.7929 92.3119 57.7599C90.6253 57.6902 88.954 57.9123 87.2758 58.0813C84.6456 58.3486 82.1113 59.06 79.5596 59.6689C78.9678 59.8094 78.4012 60.0449 77.8276 60.2348C84.7391 59.5953 91.5363 58.1783 98.4728 57.948C98.518 57.941 98.5574 57.7976 98.6648 57.6172ZM118.28 186.969C121.065 186.647 123.72 185.937 126.352 185.151C129.521 184.205 132.664 183.164 135.822 182.191C136.176 182.082 136.359 181.918 136.435 181.521C130.416 182.974 124.563 184.853 118.676 186.595C118.521 186.635 118.409 186.842 118.28 186.969ZM113.937 243.426C112.607 242.782 111.182 243.098 109.841 242.771C108.451 242.44 107.04 242.279 105.625 242.122C104.169 241.96 102.704 241.874 101.251 241.754C101.327 242.001 101.497 242.261 101.797 242.265C102.914 242.259 103.826 243.255 104.999 242.932C105.57 243.507 106.306 243.292 106.989 243.384C107.469 243.45 107.94 243.653 108.18 243.94C108.84 243.777 109.325 243.772 109.894 243.991C110.365 244.171 110.954 243.95 111.431 244.267C111.734 243.445 111.828 243.435 112.862 244.049C112.969 243.899 112.799 243.67 113.121 243.473C113.324 243.46 113.632 243.441 113.937 243.426ZM109.544 230.633C107.228 229.799 101.131 228.979 99.2443 229.906C99.9187 230.074 100.432 230.496 101.125 230.1C101.378 229.955 101.797 230.142 102.117 230.074C102.581 229.977 102.641 230.584 103.104 230.532C103.582 230.481 104.127 230.746 104.546 230.595C105.116 230.386 105.513 230.819 106.021 230.768C106.499 230.717 107.049 230.626 107.445 230.812C107.912 231.034 108.436 230.593 108.784 231.006C109.15 231.446 109.655 230.74 109.98 231.214C110.736 231.166 111.438 231.568 112.202 231.46C112.477 231.422 112.65 231.364 112.658 231.027C112.141 230.63 111.475 230.656 110.932 230.54C110.728 230.261 110.963 229.859 110.535 229.778C110.501 229.782 110.438 229.762 110.411 229.788C110.13 230.057 109.856 230.326 109.544 230.633ZM175.055 119.674C175.345 119.95 175.16 120.327 175.6 120.552C176.041 120.777 176.474 120.755 176.893 120.882C177.485 121.055 178.01 120.838 178.409 120.476C178.755 120.166 178.9 120.554 179.193 120.542C179.885 119.915 180.517 119.226 180.379 117.956C178.597 118.6 176.701 118.445 175.055 119.674ZM189.954 209.492C190.639 208.834 191.063 208.275 191.491 207.659C192.199 206.65 192.739 205.551 193.398 204.529C194.402 202.966 195.028 201.228 195.808 199.564C196.063 199.022 196.363 198.443 196.51 197.82C196.653 197.216 196.825 196.605 197.114 196.036C197.145 195.976 197.242 195.761 196.927 195.705C196.785 195.934 196.591 196.102 196.466 196.464C195.995 197.817 195.288 199.073 194.704 200.38C194.078 201.781 193.348 203.12 192.583 204.432C192.176 205.131 191.78 205.865 191.392 206.56C190.915 207.425 190.229 208.235 189.954 209.492Z" fill="white" fill-opacity="0.2"/>
</svg>
