<svg width="151" height="151" viewBox="0 0 151 151" fill="none" xmlns="http://www.w3.org/2000/svg">
<path d="M145.507 103.325C143.196 102.923 141.046 101.889 138.689 101.634C138.318 101.59 137.693 101.346 137.661 101.13C137.388 99.0011 135.038 98.7854 134.014 97.2373C133.111 95.8704 133.196 94.947 133.983 93.9025C137.031 89.8693 139.851 85.6862 142.537 81.4166C143.248 80.2973 143.947 79.1608 144.543 77.9737C145.112 76.8411 146.243 76.664 147.224 76.5167C148.291 76.3567 148.164 77.5553 148.584 78.1691C150.568 81.0284 149.976 84.2536 150.081 87.3792C150.217 91.4143 150.255 95.452 150.523 99.476C150.747 102.834 149.306 104.614 145.507 103.325Z" fill="#F6D06D"/>
<path d="M133.242 35.8992C132.976 37.5478 131.667 38.4729 129.761 38.3161C127.101 38.0979 124.431 37.9228 121.781 37.5799C119.361 37.2607 118.508 35.105 117.629 33.3695C117.025 32.1742 117.885 30.8159 118.987 29.7524C122.657 26.2017 125.682 22.1268 128.55 17.9381C129.05 17.2097 129.554 16.5416 130.631 16.6226C131.8 16.7067 131.851 17.5976 132.24 18.3619C133.396 20.6677 133.236 23.1284 133.362 25.5642C133.528 29.0157 133.658 32.4598 133.242 35.8992Z" fill="#F6D06D"/>
<path d="M120.194 71.4222C119.765 73.4933 119.998 75.2267 117.827 75.7632C117.314 75.892 116.836 76.1099 116.357 75.9247C114.224 75.103 112.039 74.7932 109.821 75.3726C108.085 75.8244 107.319 75.0445 106.386 73.6789C104.588 71.0582 104.713 70.1651 106.686 67.7606C109.839 63.9127 113.277 60.2336 115.66 55.8138C116.006 55.1738 116.376 54.5239 116.848 53.969C117.824 52.8204 119.105 53.0541 119.858 54.3388C121.439 57.0505 121.073 59.9925 120.932 62.8749C120.771 65.9251 120.416 68.9589 120.194 71.4222Z" fill="#F6D06D"/>
<path d="M105.907 147.992C103.726 147.295 102.178 145.739 100.914 143.986C100.454 143.35 100.739 142.302 101.319 141.56C103.276 139.085 104.45 136.132 106.479 133.642C107.437 132.468 108.101 130.69 108.925 129.212C109.505 128.172 110.328 127.06 111.708 127.224C113.087 127.395 113.549 128.756 113.923 129.815C114.886 132.538 114.798 135.424 114.811 138.255C114.832 141.349 114.608 144.446 114.431 147.538C114.358 148.769 113.383 149.366 113.274 150.478C113.219 151.072 112.45 151.008 111.783 150.666C109.869 149.709 107.875 148.877 105.907 147.992Z" fill="#F6D06D"/>
<path d="M95.0215 45.4809C94.6278 47.4173 93.41 48.1218 91.3297 47.3032C89.6288 46.635 87.8254 46.4612 86.1014 46.1242C83.9671 45.7128 82.7558 44.5155 81.5617 42.9783C80.4637 41.5648 80.6728 40.2259 81.7214 39.0173C85.0563 35.1758 87.9903 31.0676 90.5266 26.6785C91.5199 24.9663 92.805 25.1111 93.8187 26.8213C94.5173 27.9982 94.944 29.2403 95.0973 30.5546C95.6674 35.5793 95.5319 40.5974 95.0215 45.4809Z" fill="#F6D06D"/>
<path d="M56.1868 55.8277C54.6762 55.4513 53.3594 55.2404 52.0843 54.7543C49.0397 53.6012 48.2298 52.4841 49.3808 49.5347C50.8456 45.7674 52.1238 41.9105 54.1692 38.386C54.5968 37.643 55.0551 36.8614 55.6765 36.284C56.7682 35.2707 57.9081 35.1252 58.8893 36.5527C59.7309 37.7732 60.451 39.0291 60.8143 40.4674C61.8522 44.5184 62.4576 48.6396 62.905 52.7891C63.1473 54.9943 61.2706 56.6046 59.1814 56.2693C58.123 56.0951 57.0497 55.9554 56.1868 55.8277Z" fill="#F6D06D"/>
<path d="M76.0302 124.32C74.6001 124.325 73.2234 124.475 71.8435 123.909C69.8042 123.076 68.0635 119.481 69.1375 117.673C71.5278 113.658 73.351 109.373 75.6086 105.301C76.1201 104.373 76.5693 103.306 77.9377 103.416C79.3133 103.526 79.641 104.659 79.9137 105.654C81.2844 110.667 81.7969 115.822 82.3126 120.963C82.4695 122.479 81.7168 123.508 80.0643 124.036C78.6721 124.482 77.3207 123.704 76.0302 124.32Z" fill="#F6D06D"/>
<path d="M68.9607 16.929C68.3984 20.7423 66.3297 22.1053 62.3244 22.0663C60.2224 22.0493 58.9629 20.9021 57.5346 19.945C55.8746 18.8223 55.4751 17.3394 56.449 15.3174C57.7039 12.7097 59.4368 10.4363 60.9817 8.04323C62.2475 6.07956 63.49 4.11867 64.6465 2.09583C65.5723 0.489611 66.2757 0.689851 67.5575 1.76691C69.7788 3.62873 69.8115 6.00113 69.7039 8.42758C69.5788 11.2685 69.2216 14.0929 68.9607 16.929Z" fill="#F6D06D"/>
<path d="M32.9027 97.1718C33.1807 95.7571 33.924 94.5548 34.8624 93.5108C37.2422 90.8667 39.1703 87.9083 41.145 84.9817C42.7468 82.6075 42.9388 82.8549 44.8637 84.6799C46.8716 86.5811 47.0041 88.8391 47.3103 91.1393C47.6451 93.6317 47.8586 96.1597 47.945 98.6771C48.0248 100.969 47.4787 101.33 45.1989 101.621C43.0901 101.894 41.0616 102.586 38.8641 102.296C37.8143 102.153 37.4125 101.745 37.2814 100.801C37.1689 99.9497 36.544 99.8846 35.8321 100.018C33.9085 100.388 32.5165 99.0351 32.9027 97.1718Z" fill="#F6D06D"/>
<path d="M38.4892 141.664C36.1049 140.919 34.0121 140.382 32.0062 139.608C28.7121 138.338 27.7807 135.569 29.2101 132.34C30.6366 129.124 32.0192 125.9 34.0319 122.974C35.6717 120.6 37.0335 120.521 38.5226 122.908C39.1793 123.958 39.6689 125.19 39.9043 126.401C40.7243 130.55 41.6347 134.703 41.6099 138.967C41.6021 141.279 40.4991 142.126 38.4892 141.664Z" fill="#F6D06D"/>
<path d="M30.7341 44.2942C30.1938 47.2313 29.379 47.6058 26.8421 47.0467C25.3955 46.7279 23.8377 46.9092 22.3348 46.8627C19.9846 46.7962 16.9522 44.1528 16.7385 42.1398C16.6707 41.477 16.7907 41.0084 17.1547 40.499C19.7276 36.9232 22.2684 33.3185 24.8559 29.7457C25.9845 28.1874 26.9105 28.2306 28.0972 29.8036C30.7627 33.3364 30.592 37.534 30.9039 41.6041C30.9836 42.6499 30.7784 43.7135 30.7341 44.2942ZM26.4533 39.8267C25.9924 39.1898 27.108 37.9872 25.8947 37.3866C25.4747 37.1758 25.0388 37.8499 25.1175 38.3135C25.2607 39.163 24.7338 40.2743 25.7794 40.8041C26.281 41.0611 26.3285 40.4287 26.4533 39.8267Z" fill="#F6D06D"/>
<path d="M0.656155 75.4369C2.04868 71.0282 4.39935 67.0945 6.83744 63.2156C7.88024 61.5581 8.77648 61.7074 10.0919 63.2091C11.2574 64.554 11.7341 66.1418 11.6539 67.8125C11.4709 71.7763 11.1668 75.7382 10.8392 79.7029C10.6977 81.3763 9.48153 81.999 7.74029 82.0019C4.96482 82.0071 3.06211 80.5523 1.27278 78.8066C0.28565 77.8481 0.555716 76.6184 0.656155 75.4369Z" fill="#F6D06D"/>
<path d="M77.8435 89.0151C77.1328 88.8134 76.3733 88.3333 76.0045 88.5357C74.7151 89.2558 73.5131 88.3439 72.2197 88.5333C70.8401 88.7353 69.5213 85.2328 69.9968 83.7083C70.6998 81.453 73.0304 80.4036 73.8386 78.1545C74.632 75.9397 76.0222 73.9262 77.1848 71.8374C77.5243 71.2261 78.0587 70.8477 78.8486 70.9608C79.6969 71.0855 80.0649 71.5471 80.29 72.3682C81.5527 76.9119 81.7484 81.6155 82.4703 86.2377C82.875 88.7964 80.4825 89.1916 77.8435 89.0151Z" fill="#F6D06D"/>
<path d="M113.381 106.422C113.436 108.948 110.449 109.717 108.752 108.915C107.963 108.541 107.341 108.133 106.237 108.398C104.878 108.723 102.856 109.051 103.067 106.421C103.087 106.216 102.569 106.001 102.381 105.732C101.242 104.079 101.606 102.099 103.235 100.805C103.6 100.512 103.972 100.184 104.204 99.7971C105.782 97.1346 108.44 95.1654 109.305 92.0545C109.533 91.2491 109.997 90.5508 110.977 90.5898C111.964 90.6304 112.285 91.3959 112.521 92.197C112.633 92.5774 112.884 92.9412 112.911 93.3271C113.284 97.6856 113.512 102.052 113.381 106.422Z" fill="#F6D06D"/>
</svg>
