<svg width="183" height="180" viewBox="0 0 183 180" fill="none" xmlns="http://www.w3.org/2000/svg">
<g opacity="0.1">
<mask id="path-1-outside-1" maskUnits="userSpaceOnUse" x="-0.462646" y="0" width="183" height="180" fill="black">
<rect fill="white" x="-0.462646" width="183" height="180"/>
<path d="M91.9401 167.397C84.3608 163.645 77.2592 158.993 69.8696 154.883C64.5807 151.942 59.8033 148.318 54.904 144.834C52.7288 143.285 50.4554 141.869 48.3751 140.202C44.2923 136.933 40.4399 133.356 36.264 130.222C29.3369 125.026 23.7278 118.482 17.9679 112.096C13.9868 107.681 10.7731 102.643 7.82544 97.4637C5.66548 93.6707 3.34629 89.9047 2.25361 85.5594C1.40657 82.1848 2.73641 81.8189 5.41645 81.3411C5.8332 81.2666 6.28721 81.5275 6.73106 81.5597C10.514 81.8206 14.307 81.9798 18.0814 82.3271C28.0139 83.2436 37.7819 84.8292 46.9554 88.9577C51.5176 91.0093 56.139 92.9456 60.8198 94.7075C66.8897 96.9911 72.5513 100.044 78.0486 103.439C82.0009 105.88 85.9261 108.369 89.9479 110.893C90.2867 109.358 89.299 108.553 88.7214 107.688C85.3332 102.605 82.7633 97.069 80.3509 91.4836C77.8928 85.7864 75.6989 79.952 73.5457 74.104C70.2541 65.1643 67.3742 56.1196 65.2176 46.8021C63.4236 39.0551 62.0904 31.1827 59.7525 23.5813C59.6008 23.027 59.5004 22.4599 59.4527 21.8872C59.3087 20.6489 60.0354 20.205 61.0773 20.244C61.6143 20.2643 62.153 20.4811 62.6629 20.6811C66.2866 22.1075 69.917 23.5186 73.5203 24.9976C77.7556 26.7391 81.5605 29.331 85.6026 31.4537C92.2943 34.9898 98.668 39.0974 104.653 43.7308C111.898 49.3077 118.873 55.22 125.425 61.6457C129.413 65.5556 133.686 69.1827 137.05 73.7059C139.518 77.0246 141.807 80.4822 144.177 83.884C144.75 76.8908 145.388 70.1619 146.173 63.4177C147.025 55.9714 148.672 48.6376 151.086 41.542C152.985 35.9888 155.162 30.5305 157.445 25.1094C160.405 18.0806 164.191 11.533 168.247 5.13274C170.927 0.897525 172.462 0.939873 174.383 5.36143C176.497 10.2235 178.696 15.0533 180.536 20.0407V29.7884C178.842 24.1302 176.832 18.5008 174.252 13.2457C173.659 13.1847 173.553 13.5015 173.575 13.8285C173.883 18.97 174.056 24.1285 174.557 29.2446C175.584 39.748 175.235 50.2513 174.61 60.7919C174.142 68.688 173.858 76.5909 173.463 84.4904C173.034 93.0642 172.489 101.628 171.757 110.195C170.898 120.236 169.609 130.237 168.747 140.277C168.238 146.192 167.168 152.078 166.236 157.961C165.236 164.28 164.103 170.582 163.027 176.891L163.591 177.255C165.794 174.057 168.179 170.968 170.161 167.636C174.066 161.109 177.533 154.329 180.537 147.341V153.308C178.048 158.751 175.206 164.026 172.028 169.098C170.12 172.114 168.054 175.027 166.066 177.992H149.812C148.118 176.266 146.424 174.529 144.68 172.864C138.123 166.623 131.495 160.472 125.283 153.845C120.77 149.028 116.362 144.153 112.183 139.03C107.372 133.131 102.51 127.278 98.171 120.996C96.4664 118.51 94.2127 116.45 91.5843 114.974C87.7201 112.771 84.0508 110.215 80.2205 107.943C75.5177 105.153 70.4642 103.075 65.509 100.794C59.6543 98.099 53.9198 95.1445 48.0599 92.456C44.1263 90.6484 39.9487 89.4287 35.7406 88.4597C30.9734 87.3602 26.2198 86.132 21.3205 85.6339C17.8951 85.2951 14.4832 84.7141 10.619 85.0698C12.5824 87.8176 15.132 89.5659 17.4428 91.4904C24.8967 97.6924 32.31 103.971 40.0842 109.741C44.8903 113.309 49.5033 117.166 54.6703 120.275C58.6581 122.673 62.2344 125.78 65.9427 128.64C70.6302 132.253 75.6617 135.345 80.5864 138.593C86.8189 142.699 93.1395 146.674 99.4703 150.621C103.431 153.091 107.3 155.717 111.539 157.726C116.791 160.211 121.365 163.845 126.411 166.684C133.283 170.553 139.861 174.977 147.328 177.989H140.857C134.838 174.741 129.141 171.228 123.398 167.802C116.325 163.584 109.149 159.549 102.006 155.452C95.2537 151.58 88.7925 147.18 82.1737 143.085C74.3148 138.22 66.7169 132.958 59.3036 127.437C53.5962 123.188 47.445 119.595 41.8952 115.118C34.3565 109.044 26.601 103.259 19.0132 97.2418C15.1066 94.1484 11.3627 90.8416 7.01226 87.1823C8.5488 92.5085 11.1492 96.4219 13.6768 100.301C18.4016 107.552 23.9701 114.098 30.0654 120.2C37.9022 128.045 46.7419 134.618 55.3767 141.459C63.3389 147.77 72.0482 152.965 80.766 158.044C90.8729 163.931 101.303 169.291 112.403 173.176C116.728 174.689 120.968 176.444 125.278 177.997H117.655C115.024 176.981 112.389 175.964 109.709 175.082C103.54 173.059 97.7186 170.257 91.9401 167.397ZM159.026 171.734C159.007 172.596 158.867 173.557 159.888 174.382C160.681 170.294 161.526 166.382 162.187 162.442C163.363 155.425 164.547 148.407 165.499 141.363C166.327 135.247 166.839 129.094 167.49 122.958C168.228 115.989 169.077 109.028 169.67 102.05C170.148 96.449 170.307 90.8297 170.624 85.2189C171.111 76.5198 171.628 67.8206 172.108 59.13C172.758 47.3121 172.833 35.5195 171.791 23.7524C171.338 18.6414 171.299 13.4795 170.266 7.88562C169.49 8.76147 168.853 9.30188 168.435 9.97951C164.515 16.3666 161.124 23.063 158.294 30.0019C155.004 38.0065 151.811 46.0466 150.19 54.5882C148.558 63.1738 147.698 71.8305 147.076 80.5314C146.457 89.2017 148.939 97.2808 150.322 105.58C150.752 108.17 151.374 110.733 151.635 113.344C152.493 121.899 154.515 130.219 155.79 138.686C156.559 143.768 157.117 148.881 157.838 153.968C158.679 159.845 159.155 165.757 159.033 171.734H159.026ZM156.629 175.707C156.3 165.324 155.433 154.965 154.032 144.671C152.97 136.751 151.065 129.009 150.156 121.086C149.27 113.359 147.675 105.785 146.52 98.1193C145.714 92.7779 144.36 87.6736 140.787 83.4198C138.709 80.9447 137.177 77.9987 135.205 75.3881C131.587 70.6006 126.991 66.8347 122.764 62.6825C117.739 57.7476 112.206 53.4294 106.823 48.9265C101.847 44.7642 96.6226 40.9829 90.9711 37.8218C85.7381 34.8978 80.5254 31.9382 75.272 29.0515C72.6151 27.5566 69.7148 26.5431 66.705 26.0581C68.4127 29.0295 70.1898 31.9603 71.8144 34.9808C75.2754 41.4183 79.2599 47.5408 82.4482 54.1562C84.2981 57.995 86.8528 61.4407 88.7417 65.2965C90.1749 68.234 91.9096 71.0123 93.4546 73.8939C97.0698 80.633 100.4 87.55 104.31 94.101C109.094 102.122 113.655 110.29 118.763 118.106C121.643 122.528 124.238 127.163 126.894 131.74C132.393 141.2 138.312 150.375 144.111 159.645C147.933 165.744 151.469 172.049 155.995 177.841C156.734 177.216 156.658 176.427 156.636 175.707H156.629ZM102.354 122.147C108.856 130.878 115.503 139.508 122.822 147.526C130.97 156.45 139.678 164.817 148.385 173.174C148.602 173.381 148.961 173.432 149.581 173.694C148.267 170.555 146.446 168.119 144.868 165.563C138.072 154.551 131.075 143.658 124.331 132.608C121.631 128.186 119.045 123.688 116.284 119.304C113.463 114.826 110.455 110.461 107.883 105.833C103.841 98.548 99.1738 91.6751 95.5163 84.1482C92.7634 78.4781 89.4617 73.096 86.3988 67.5886C82.1873 60.0143 78.1113 52.352 73.7067 44.8997C70.8115 40.0038 67.7351 35.2214 65.1872 30.0849C64.147 30.7168 64.6992 31.4588 64.8382 31.9925C67.4775 42.1265 69.258 52.5332 72.8173 62.3708C75.665 70.2432 78.3654 78.1749 81.6892 85.8677C84.6064 92.617 87.5863 99.2984 91.3879 105.553C94.8319 111.225 98.3912 116.836 102.354 122.147Z"/>
</mask>
<path d="M91.9401 167.397C84.3608 163.645 77.2592 158.993 69.8696 154.883C64.5807 151.942 59.8033 148.318 54.904 144.834C52.7288 143.285 50.4554 141.869 48.3751 140.202C44.2923 136.933 40.4399 133.356 36.264 130.222C29.3369 125.026 23.7278 118.482 17.9679 112.096C13.9868 107.681 10.7731 102.643 7.82544 97.4637C5.66548 93.6707 3.34629 89.9047 2.25361 85.5594C1.40657 82.1848 2.73641 81.8189 5.41645 81.3411C5.8332 81.2666 6.28721 81.5275 6.73106 81.5597C10.514 81.8206 14.307 81.9798 18.0814 82.3271C28.0139 83.2436 37.7819 84.8292 46.9554 88.9577C51.5176 91.0093 56.139 92.9456 60.8198 94.7075C66.8897 96.9911 72.5513 100.044 78.0486 103.439C82.0009 105.88 85.9261 108.369 89.9479 110.893C90.2867 109.358 89.299 108.553 88.7214 107.688C85.3332 102.605 82.7633 97.069 80.3509 91.4836C77.8928 85.7864 75.6989 79.952 73.5457 74.104C70.2541 65.1643 67.3742 56.1196 65.2176 46.8021C63.4236 39.0551 62.0904 31.1827 59.7525 23.5813C59.6008 23.027 59.5004 22.4599 59.4527 21.8872C59.3087 20.6489 60.0354 20.205 61.0773 20.244C61.6143 20.2643 62.153 20.4811 62.6629 20.6811C66.2866 22.1075 69.917 23.5186 73.5203 24.9976C77.7556 26.7391 81.5605 29.331 85.6026 31.4537C92.2943 34.9898 98.668 39.0974 104.653 43.7308C111.898 49.3077 118.873 55.22 125.425 61.6457C129.413 65.5556 133.686 69.1827 137.05 73.7059C139.518 77.0246 141.807 80.4822 144.177 83.884C144.75 76.8908 145.388 70.1619 146.173 63.4177C147.025 55.9714 148.672 48.6376 151.086 41.542C152.985 35.9888 155.162 30.5305 157.445 25.1094C160.405 18.0806 164.191 11.533 168.247 5.13274C170.927 0.897525 172.462 0.939873 174.383 5.36143C176.497 10.2235 178.696 15.0533 180.536 20.0407V29.7884C178.842 24.1302 176.832 18.5008 174.252 13.2457C173.659 13.1847 173.553 13.5015 173.575 13.8285C173.883 18.97 174.056 24.1285 174.557 29.2446C175.584 39.748 175.235 50.2513 174.61 60.7919C174.142 68.688 173.858 76.5909 173.463 84.4904C173.034 93.0642 172.489 101.628 171.757 110.195C170.898 120.236 169.609 130.237 168.747 140.277C168.238 146.192 167.168 152.078 166.236 157.961C165.236 164.28 164.103 170.582 163.027 176.891L163.591 177.255C165.794 174.057 168.179 170.968 170.161 167.636C174.066 161.109 177.533 154.329 180.537 147.341V153.308C178.048 158.751 175.206 164.026 172.028 169.098C170.12 172.114 168.054 175.027 166.066 177.992H149.812C148.118 176.266 146.424 174.529 144.68 172.864C138.123 166.623 131.495 160.472 125.283 153.845C120.77 149.028 116.362 144.153 112.183 139.03C107.372 133.131 102.51 127.278 98.171 120.996C96.4664 118.51 94.2127 116.45 91.5843 114.974C87.7201 112.771 84.0508 110.215 80.2205 107.943C75.5177 105.153 70.4642 103.075 65.509 100.794C59.6543 98.099 53.9198 95.1445 48.0599 92.456C44.1263 90.6484 39.9487 89.4287 35.7406 88.4597C30.9734 87.3602 26.2198 86.132 21.3205 85.6339C17.8951 85.2951 14.4832 84.7141 10.619 85.0698C12.5824 87.8176 15.132 89.5659 17.4428 91.4904C24.8967 97.6924 32.31 103.971 40.0842 109.741C44.8903 113.309 49.5033 117.166 54.6703 120.275C58.6581 122.673 62.2344 125.78 65.9427 128.64C70.6302 132.253 75.6617 135.345 80.5864 138.593C86.8189 142.699 93.1395 146.674 99.4703 150.621C103.431 153.091 107.3 155.717 111.539 157.726C116.791 160.211 121.365 163.845 126.411 166.684C133.283 170.553 139.861 174.977 147.328 177.989H140.857C134.838 174.741 129.141 171.228 123.398 167.802C116.325 163.584 109.149 159.549 102.006 155.452C95.2537 151.58 88.7925 147.18 82.1737 143.085C74.3148 138.22 66.7169 132.958 59.3036 127.437C53.5962 123.188 47.445 119.595 41.8952 115.118C34.3565 109.044 26.601 103.259 19.0132 97.2418C15.1066 94.1484 11.3627 90.8416 7.01226 87.1823C8.5488 92.5085 11.1492 96.4219 13.6768 100.301C18.4016 107.552 23.9701 114.098 30.0654 120.2C37.9022 128.045 46.7419 134.618 55.3767 141.459C63.3389 147.77 72.0482 152.965 80.766 158.044C90.8729 163.931 101.303 169.291 112.403 173.176C116.728 174.689 120.968 176.444 125.278 177.997H117.655C115.024 176.981 112.389 175.964 109.709 175.082C103.54 173.059 97.7186 170.257 91.9401 167.397ZM159.026 171.734C159.007 172.596 158.867 173.557 159.888 174.382C160.681 170.294 161.526 166.382 162.187 162.442C163.363 155.425 164.547 148.407 165.499 141.363C166.327 135.247 166.839 129.094 167.49 122.958C168.228 115.989 169.077 109.028 169.67 102.05C170.148 96.449 170.307 90.8297 170.624 85.2189C171.111 76.5198 171.628 67.8206 172.108 59.13C172.758 47.3121 172.833 35.5195 171.791 23.7524C171.338 18.6414 171.299 13.4795 170.266 7.88562C169.49 8.76147 168.853 9.30188 168.435 9.97951C164.515 16.3666 161.124 23.063 158.294 30.0019C155.004 38.0065 151.811 46.0466 150.19 54.5882C148.558 63.1738 147.698 71.8305 147.076 80.5314C146.457 89.2017 148.939 97.2808 150.322 105.58C150.752 108.17 151.374 110.733 151.635 113.344C152.493 121.899 154.515 130.219 155.79 138.686C156.559 143.768 157.117 148.881 157.838 153.968C158.679 159.845 159.155 165.757 159.033 171.734H159.026ZM156.629 175.707C156.3 165.324 155.433 154.965 154.032 144.671C152.97 136.751 151.065 129.009 150.156 121.086C149.27 113.359 147.675 105.785 146.52 98.1193C145.714 92.7779 144.36 87.6736 140.787 83.4198C138.709 80.9447 137.177 77.9987 135.205 75.3881C131.587 70.6006 126.991 66.8347 122.764 62.6825C117.739 57.7476 112.206 53.4294 106.823 48.9265C101.847 44.7642 96.6226 40.9829 90.9711 37.8218C85.7381 34.8978 80.5254 31.9382 75.272 29.0515C72.6151 27.5566 69.7148 26.5431 66.705 26.0581C68.4127 29.0295 70.1898 31.9603 71.8144 34.9808C75.2754 41.4183 79.2599 47.5408 82.4482 54.1562C84.2981 57.995 86.8528 61.4407 88.7417 65.2965C90.1749 68.234 91.9096 71.0123 93.4546 73.8939C97.0698 80.633 100.4 87.55 104.31 94.101C109.094 102.122 113.655 110.29 118.763 118.106C121.643 122.528 124.238 127.163 126.894 131.74C132.393 141.2 138.312 150.375 144.111 159.645C147.933 165.744 151.469 172.049 155.995 177.841C156.734 177.216 156.658 176.427 156.636 175.707H156.629ZM102.354 122.147C108.856 130.878 115.503 139.508 122.822 147.526C130.97 156.45 139.678 164.817 148.385 173.174C148.602 173.381 148.961 173.432 149.581 173.694C148.267 170.555 146.446 168.119 144.868 165.563C138.072 154.551 131.075 143.658 124.331 132.608C121.631 128.186 119.045 123.688 116.284 119.304C113.463 114.826 110.455 110.461 107.883 105.833C103.841 98.548 99.1738 91.6751 95.5163 84.1482C92.7634 78.4781 89.4617 73.096 86.3988 67.5886C82.1873 60.0143 78.1113 52.352 73.7067 44.8997C70.8115 40.0038 67.7351 35.2214 65.1872 30.0849C64.147 30.7168 64.6992 31.4588 64.8382 31.9925C67.4775 42.1265 69.258 52.5332 72.8173 62.3708C75.665 70.2432 78.3654 78.1749 81.6892 85.8677C84.6064 92.617 87.5863 99.2984 91.3879 105.553C94.8319 111.225 98.3912 116.836 102.354 122.147Z" fill="#185951"/>
<path d="M91.9401 167.397C84.3608 163.645 77.2592 158.993 69.8696 154.883C64.5807 151.942 59.8033 148.318 54.904 144.834C52.7288 143.285 50.4554 141.869 48.3751 140.202C44.2923 136.933 40.4399 133.356 36.264 130.222C29.3369 125.026 23.7278 118.482 17.9679 112.096C13.9868 107.681 10.7731 102.643 7.82544 97.4637C5.66548 93.6707 3.34629 89.9047 2.25361 85.5594C1.40657 82.1848 2.73641 81.8189 5.41645 81.3411C5.8332 81.2666 6.28721 81.5275 6.73106 81.5597C10.514 81.8206 14.307 81.9798 18.0814 82.3271C28.0139 83.2436 37.7819 84.8292 46.9554 88.9577C51.5176 91.0093 56.139 92.9456 60.8198 94.7075C66.8897 96.9911 72.5513 100.044 78.0486 103.439C82.0009 105.88 85.9261 108.369 89.9479 110.893C90.2867 109.358 89.299 108.553 88.7214 107.688C85.3332 102.605 82.7633 97.069 80.3509 91.4836C77.8928 85.7864 75.6989 79.952 73.5457 74.104C70.2541 65.1643 67.3742 56.1196 65.2176 46.8021C63.4236 39.0551 62.0904 31.1827 59.7525 23.5813C59.6008 23.027 59.5004 22.4599 59.4527 21.8872C59.3087 20.6489 60.0354 20.205 61.0773 20.244C61.6143 20.2643 62.153 20.4811 62.6629 20.6811C66.2866 22.1075 69.917 23.5186 73.5203 24.9976C77.7556 26.7391 81.5605 29.331 85.6026 31.4537C92.2943 34.9898 98.668 39.0974 104.653 43.7308C111.898 49.3077 118.873 55.22 125.425 61.6457C129.413 65.5556 133.686 69.1827 137.05 73.7059C139.518 77.0246 141.807 80.4822 144.177 83.884C144.75 76.8908 145.388 70.1619 146.173 63.4177C147.025 55.9714 148.672 48.6376 151.086 41.542C152.985 35.9888 155.162 30.5305 157.445 25.1094C160.405 18.0806 164.191 11.533 168.247 5.13274C170.927 0.897525 172.462 0.939873 174.383 5.36143C176.497 10.2235 178.696 15.0533 180.536 20.0407V29.7884C178.842 24.1302 176.832 18.5008 174.252 13.2457C173.659 13.1847 173.553 13.5015 173.575 13.8285C173.883 18.97 174.056 24.1285 174.557 29.2446C175.584 39.748 175.235 50.2513 174.61 60.7919C174.142 68.688 173.858 76.5909 173.463 84.4904C173.034 93.0642 172.489 101.628 171.757 110.195C170.898 120.236 169.609 130.237 168.747 140.277C168.238 146.192 167.168 152.078 166.236 157.961C165.236 164.28 164.103 170.582 163.027 176.891L163.591 177.255C165.794 174.057 168.179 170.968 170.161 167.636C174.066 161.109 177.533 154.329 180.537 147.341V153.308C178.048 158.751 175.206 164.026 172.028 169.098C170.12 172.114 168.054 175.027 166.066 177.992H149.812C148.118 176.266 146.424 174.529 144.68 172.864C138.123 166.623 131.495 160.472 125.283 153.845C120.77 149.028 116.362 144.153 112.183 139.03C107.372 133.131 102.51 127.278 98.171 120.996C96.4664 118.51 94.2127 116.45 91.5843 114.974C87.7201 112.771 84.0508 110.215 80.2205 107.943C75.5177 105.153 70.4642 103.075 65.509 100.794C59.6543 98.099 53.9198 95.1445 48.0599 92.456C44.1263 90.6484 39.9487 89.4287 35.7406 88.4597C30.9734 87.3602 26.2198 86.132 21.3205 85.6339C17.8951 85.2951 14.4832 84.7141 10.619 85.0698C12.5824 87.8176 15.132 89.5659 17.4428 91.4904C24.8967 97.6924 32.31 103.971 40.0842 109.741C44.8903 113.309 49.5033 117.166 54.6703 120.275C58.6581 122.673 62.2344 125.78 65.9427 128.64C70.6302 132.253 75.6617 135.345 80.5864 138.593C86.8189 142.699 93.1395 146.674 99.4703 150.621C103.431 153.091 107.3 155.717 111.539 157.726C116.791 160.211 121.365 163.845 126.411 166.684C133.283 170.553 139.861 174.977 147.328 177.989H140.857C134.838 174.741 129.141 171.228 123.398 167.802C116.325 163.584 109.149 159.549 102.006 155.452C95.2537 151.58 88.7925 147.18 82.1737 143.085C74.3148 138.22 66.7169 132.958 59.3036 127.437C53.5962 123.188 47.445 119.595 41.8952 115.118C34.3565 109.044 26.601 103.259 19.0132 97.2418C15.1066 94.1484 11.3627 90.8416 7.01226 87.1823C8.5488 92.5085 11.1492 96.4219 13.6768 100.301C18.4016 107.552 23.9701 114.098 30.0654 120.2C37.9022 128.045 46.7419 134.618 55.3767 141.459C63.3389 147.77 72.0482 152.965 80.766 158.044C90.8729 163.931 101.303 169.291 112.403 173.176C116.728 174.689 120.968 176.444 125.278 177.997H117.655C115.024 176.981 112.389 175.964 109.709 175.082C103.54 173.059 97.7186 170.257 91.9401 167.397ZM159.026 171.734C159.007 172.596 158.867 173.557 159.888 174.382C160.681 170.294 161.526 166.382 162.187 162.442C163.363 155.425 164.547 148.407 165.499 141.363C166.327 135.247 166.839 129.094 167.49 122.958C168.228 115.989 169.077 109.028 169.67 102.05C170.148 96.449 170.307 90.8297 170.624 85.2189C171.111 76.5198 171.628 67.8206 172.108 59.13C172.758 47.3121 172.833 35.5195 171.791 23.7524C171.338 18.6414 171.299 13.4795 170.266 7.88562C169.49 8.76147 168.853 9.30188 168.435 9.97951C164.515 16.3666 161.124 23.063 158.294 30.0019C155.004 38.0065 151.811 46.0466 150.19 54.5882C148.558 63.1738 147.698 71.8305 147.076 80.5314C146.457 89.2017 148.939 97.2808 150.322 105.58C150.752 108.17 151.374 110.733 151.635 113.344C152.493 121.899 154.515 130.219 155.79 138.686C156.559 143.768 157.117 148.881 157.838 153.968C158.679 159.845 159.155 165.757 159.033 171.734H159.026ZM156.629 175.707C156.3 165.324 155.433 154.965 154.032 144.671C152.97 136.751 151.065 129.009 150.156 121.086C149.27 113.359 147.675 105.785 146.52 98.1193C145.714 92.7779 144.36 87.6736 140.787 83.4198C138.709 80.9447 137.177 77.9987 135.205 75.3881C131.587 70.6006 126.991 66.8347 122.764 62.6825C117.739 57.7476 112.206 53.4294 106.823 48.9265C101.847 44.7642 96.6226 40.9829 90.9711 37.8218C85.7381 34.8978 80.5254 31.9382 75.272 29.0515C72.6151 27.5566 69.7148 26.5431 66.705 26.0581C68.4127 29.0295 70.1898 31.9603 71.8144 34.9808C75.2754 41.4183 79.2599 47.5408 82.4482 54.1562C84.2981 57.995 86.8528 61.4407 88.7417 65.2965C90.1749 68.234 91.9096 71.0123 93.4546 73.8939C97.0698 80.633 100.4 87.55 104.31 94.101C109.094 102.122 113.655 110.29 118.763 118.106C121.643 122.528 124.238 127.163 126.894 131.74C132.393 141.2 138.312 150.375 144.111 159.645C147.933 165.744 151.469 172.049 155.995 177.841C156.734 177.216 156.658 176.427 156.636 175.707H156.629ZM102.354 122.147C108.856 130.878 115.503 139.508 122.822 147.526C130.97 156.45 139.678 164.817 148.385 173.174C148.602 173.381 148.961 173.432 149.581 173.694C148.267 170.555 146.446 168.119 144.868 165.563C138.072 154.551 131.075 143.658 124.331 132.608C121.631 128.186 119.045 123.688 116.284 119.304C113.463 114.826 110.455 110.461 107.883 105.833C103.841 98.548 99.1738 91.6751 95.5163 84.1482C92.7634 78.4781 89.4617 73.096 86.3988 67.5886C82.1873 60.0143 78.1113 52.352 73.7067 44.8997C70.8115 40.0038 67.7351 35.2214 65.1872 30.0849C64.147 30.7168 64.6992 31.4588 64.8382 31.9925C67.4775 42.1265 69.258 52.5332 72.8173 62.3708C75.665 70.2432 78.3654 78.1749 81.6892 85.8677C84.6064 92.617 87.5863 99.2984 91.3879 105.553C94.8319 111.225 98.3912 116.836 102.354 122.147Z" stroke="#185951" stroke-width="3" mask="url(#path-1-outside-1)"/>
</g>
</svg>
