<svg width="75" height="77" viewBox="0 0 75 77" fill="none" xmlns="http://www.w3.org/2000/svg">
<path fill-rule="evenodd" clip-rule="evenodd" d="M34.5257 1.0123C51.0231 0.583566 65.6007 11.4085 70.8192 26.7972C76.1645 42.5597 71.6125 60.294 57.9443 70.0701C44.2466 79.8672 25.3575 79.1038 11.9923 68.8727C-0.179379 59.5553 -1.09233 42.9571 3.69443 28.5416C8.45723 14.1983 19.1808 1.41108 34.5257 1.0123Z" fill="#F6D06D"/>
<path d="M37.2796 38.3935C33.493 31.8349 34.1934 23.9241 38.4156 18.1929C35.9603 18.4681 33.5192 19.2333 31.2426 20.5477C22.4067 25.6491 19.3794 36.9469 24.4809 45.7829C29.5823 54.6188 40.8801 57.646 49.716 52.5446C51.9926 51.2302 53.8758 49.4987 55.3418 47.51C48.2674 48.3009 41.0662 44.952 37.2796 38.3935Z" stroke="#141616" stroke-width="3"/>
</svg>
