<svg width="75" height="77" viewBox="0 0 75 77" fill="none" xmlns="http://www.w3.org/2000/svg">
<path fill-rule="evenodd" clip-rule="evenodd" d="M37.9068 1.00155C54.366 1.16839 65.4353 15.8997 70.1655 31.4276C74.5197 45.7216 71.2424 61.5526 59.0518 70.4153C46.5893 79.4756 29.5593 79.0223 17.0209 70.064C4.45347 61.085 -0.89449 45.4076 3.53757 30.7522C8.35116 14.8353 21.0452 0.830624 37.9068 1.00155Z" fill="#F6D06D"/>
<circle cx="36.5233" cy="38.9977" r="10.0491" stroke="#141616" stroke-width="3.7796"/>
<rect x="35.0791" y="18.5542" width="3.37599" height="7.38009" fill="#141616"/>
<rect x="54.4287" y="27.5317" width="3.37599" height="7.38009" transform="rotate(60 54.4287 27.5317)" fill="#141616"/>
<rect x="55.6455" y="47.9233" width="3.37599" height="7.38009" transform="rotate(120 55.6455 47.9233)" fill="#141616"/>
<rect x="38.4551" y="60.0791" width="3.37599" height="7.38009" transform="rotate(-180 38.4551 60.0791)" fill="#141616"/>
<rect x="19.0894" y="50.8472" width="3.37599" height="7.38009" transform="rotate(-120 19.0894 50.8472)" fill="#141616"/>
<rect x="17.4014" y="30.0718" width="3.37599" height="7.38009" transform="rotate(-60 17.4014 30.0718)" fill="#141616"/>
</svg>
