<svg width="205" height="204" viewBox="0 0 205 204" fill="none" xmlns="http://www.w3.org/2000/svg">
<path d="M11.0918 142.921C11.8092 142.921 12.3473 142.921 12.8555 142.921C13.4035 143.341 12.8554 144.001 13.2739 144.491C13.6226 144.511 13.9716 144.531 14.4897 144.561C14.8883 143.731 15.1772 142.531 16.602 142.931C17.1501 143.061 16.7117 143.771 17.1102 143.951C17.9472 144.221 18.5151 143.761 19.2924 143.341C20.2988 144.761 22.1422 145.101 23.3778 146.381C23.617 147.36 23.1886 148.45 23.9459 149.41C24.185 149.71 24.1052 150.64 23.8162 150.91C22.9393 151.74 24.0057 152.59 23.7167 153.16C23.2982 154 23.627 154.669 23.4676 155.319C24.2249 155.629 24.4937 155.229 24.9819 154.709C25.0716 156.719 25.4006 158.519 24.3543 160.279C23.9657 160.319 23.5373 160.369 22.9095 160.439C23.1487 161.318 22.3216 161.958 22.3614 162.828C22.4212 164.258 21.9727 165.558 21.2453 166.728C20.6375 167.708 20.7374 168.738 20.7174 169.817C19.8705 170.587 19.0134 171.387 18.1366 172.187C18.1764 172.217 18.0468 172.117 17.7678 171.877C17.3891 172.187 17.0205 172.737 16.5322 172.847C15.8746 173.007 15.4262 173.707 14.5892 173.467C14.0013 173.297 13.3338 173.427 12.6961 173.437C12.168 173.447 11.6 173.387 11.1117 173.557C10.484 173.777 9.95582 174.397 9.33803 174.477C8.18217 174.627 6.98657 174.517 5.7211 174.517C5.08339 173.297 3.68823 173.007 2.57222 172.507C1.20711 171.897 0.559483 170.837 0.131018 169.687C-0.307411 168.518 0.449993 167.308 0.99803 166.288C1.7055 164.978 2.61214 163.748 3.87761 162.888C2.96089 161.409 2.12384 159.989 3.32952 158.339C3.67827 153.54 6.65759 149.9 8.79992 145.891C9.35792 144.851 10.743 144.361 11.0918 142.921Z" fill="#F6D06D"/>
<path d="M190.27 49.8534C190.101 50.0634 189.941 50.2434 189.792 50.4334C189.921 50.8633 190.36 50.6632 190.659 50.8232C191.157 51.1932 190.509 51.8931 191.077 52.343C191.267 52.323 191.605 52.3931 191.735 52.2531C193.399 50.5033 193.698 51.2333 195.172 52.5531C195.342 52.7131 195.431 52.713 195.681 52.733C199.068 53.033 200.394 54.3628 200.772 57.7123C201.211 57.7623 201.35 57.0524 201.978 57.3324C202.307 58.4322 203.702 59.1321 203.393 60.7019C203.333 61.0319 204.021 61.5019 204.359 61.9118C203.054 63.0017 205.575 64.5214 204.001 65.5813C204.031 66.2812 204.818 66.4112 204.967 67.0111C205.137 67.711 204.599 68.1309 204.419 68.7009C203.792 70.6606 202.456 72.2404 201.49 74.0102C200.673 75.5 198.849 76.1399 197.454 76.9498C196.697 76.7998 196.458 76.1399 195.94 75.8299C195.78 76.2299 195.661 76.5398 195.451 77.0697C195.093 76.5498 194.804 76.1199 194.535 75.7299C193.797 76.2099 194.305 76.8698 193.927 77.3898C192.841 77.3898 191.685 77.3898 190.22 77.3898C190.031 77.1998 189.652 76.8198 189.204 76.3699C187.908 77.6297 186.803 76.6299 185.637 75.89C184.092 77.4498 182.528 75.07 180.943 75.9599C180.266 75.21 179.24 74.82 179.399 73.5802C179.419 73.4402 179.269 73.1603 179.17 73.1503C177.326 72.9604 177.496 71.1506 176.778 70.1107C177.227 68.9808 178.074 68.101 178.97 67.2611C179.17 67.0711 179.359 66.7111 179.548 66.7111C181.96 66.7011 182.06 64.4114 183.126 63.0916C184.052 61.9418 184.391 60.502 184.78 59.1522C185.158 57.8424 185.407 56.4726 185.457 55.0327C185.507 53.493 185.427 51.5831 187.57 50.9632C187.948 50.8532 188.237 50.3634 188.536 50.0234C189.064 49.4335 189.622 49.5334 190.27 49.8534Z" fill="#F6D06D"/>
<path d="M135.746 87.7085C134.839 88.0984 133.912 88.4384 132.816 88.3884C130.734 88.2985 128.651 88.2685 126.578 88.3985C125.542 88.4584 124.476 88.3084 123.599 88.0784C122.892 87.8985 122.423 88.9384 121.865 88.1485C121.407 87.5086 120.67 88.0085 120.112 87.7986C119.484 87.5686 118.956 86.9786 118.129 87.3986C117.76 87.5586 118.368 88.4084 117.531 88.3384C115.887 88.2284 116.853 86.0887 115.478 85.6887C115.378 85.9687 115.269 86.2887 115.149 86.6187C114.721 86.7087 114.442 86.2587 114.422 86.0887C114.262 84.7189 113.505 83.4591 113.664 82.0293C113.724 81.5094 113.794 81.0695 114.043 80.5495C114.771 79.0097 115.428 77.3599 115.249 75.6301C115.139 74.5703 116.016 73.9003 115.896 72.8505C115.797 71.9506 115.408 70.8507 116.385 70.0808C116.385 68.441 116.485 66.8014 116.365 65.1816C116.206 63.0319 117.461 61.7519 118.936 60.5821C119.155 60.4121 119.623 60.5621 119.952 60.5621C120.361 61.4619 120.849 62.2719 120.809 63.6618C121.307 62.6819 121.556 62.0919 122.075 61.642C122.782 61.0221 123.4 60.8321 124.137 61.522C124.446 61.812 124.655 62.2519 125.213 62.2119C126.778 62.0819 127.884 62.9419 128.79 64.0417C129.657 65.1016 130.993 65.6915 131.202 67.4213C131.351 68.6711 132.447 69.7809 133.015 71.0007C134.52 74.2803 136.044 77.5499 137.41 80.8894C138.067 82.4992 137.39 84.119 136.762 85.6488C136.463 86.3287 136.094 86.9886 135.746 87.7085Z" fill="#F6D06D"/>
<path d="M149.985 122.734C150.064 123.724 149.835 124.784 150.264 125.244C150.961 126.004 149.446 126.474 150.333 127.053C151.718 125.974 151.658 123.964 152.954 122.824C153.871 123.224 154.767 123.654 155.206 124.304C155.943 124.434 156.043 123.954 156.511 123.744C157.906 124.524 159.6 125.154 160.616 126.564C161.902 128.343 163.117 130.243 163.107 132.603C163.107 133.693 163.018 134.792 163.127 135.872C163.476 139.442 162.39 142.741 161.324 146.041C160.875 147.421 160.138 148.671 159.271 149.791C158.653 150.17 158.016 149.921 157.239 150.01C156.93 149.701 156.551 149.321 156.112 148.881C155.355 148.791 155.226 149.86 154.508 149.99C154.07 150.07 153.9 149.69 153.621 149.461C153.432 149.63 153.243 149.801 153.004 150.02C152.884 149.681 152.774 149.37 152.675 149.051C152.545 148.871 152.455 148.921 152.286 149.121C151.07 150.58 149.416 150.65 147.673 150.51C146.557 149.801 145.909 148.551 144.325 148.171C142.68 147.771 142.013 145.091 142.77 143.441C143.388 142.091 144.145 140.852 143.059 139.332C142.76 138.912 142.81 138.002 143.049 137.472C143.717 136.032 143.577 134.453 144.085 132.993C144.554 131.643 144.833 130.213 145.361 128.883C145.52 128.483 145.72 128.133 145.74 127.673C145.829 125.984 146.816 124.664 147.633 123.284C148.141 122.404 149.048 122.764 149.985 122.734Z" fill="#F6D06D"/>
<path d="M83.4428 81.2096C83.2833 81.0696 83.0939 80.9096 82.8648 80.7196C82.7253 81.0896 82.6158 81.3996 82.4763 81.7796C80.7823 81.0497 79.4071 82.2794 77.8627 82.5694C77.2548 82.6794 74.9431 83.0694 74.3452 83.0094C74.1758 82.9894 73.9267 82.8594 73.857 82.9194C73.1296 83.6593 72.193 83.2993 71.3659 83.4893C70.6585 83.6493 70.0307 82.5294 69.3631 83.4392C68.0179 82.3194 66.4337 83.1194 64.9789 82.9294C64.0921 82.8094 63.1754 82.9094 62.2886 82.9094C62.0195 82.6394 61.7604 82.3794 61.5014 82.1195C61.7006 81.7595 62.2188 81.5495 61.9896 80.9496C61.2223 80.4197 60.2757 80.9596 59.4486 80.6097C58.6914 79.9398 58.3027 79.2298 59.1896 78.36C59.3888 78.17 59.6878 78.0101 59.7476 77.7801C60.3355 75.6504 62.1688 75.5504 63.8328 75.2804C65.5467 75.0005 67.0115 74.2105 68.3467 73.6206C69.0542 71.7609 67.9881 70.311 67.9582 68.7312C67.9283 67.2514 68.307 65.7417 67.4799 64.3019C67.2806 63.9619 67.151 63.152 67.6592 62.8021C68.5062 62.2222 68.4165 60.9322 69.393 60.5723C69.8314 60.4123 70.3595 60.5224 70.8677 60.9123C71.356 61.2823 70.9375 62.0622 71.635 62.1822C72.193 62.2722 72.4521 61.8322 72.7012 61.4922C73.1098 60.9323 73.7076 60.9723 74.1659 61.1223C74.7837 61.3222 75.3118 61.7922 75.8898 62.1421C76.6969 61.1723 77.3147 62.2922 77.7233 62.5521C78.2912 62.9021 78.9489 63.182 79.467 63.6319C80.0151 64.1119 80.4934 64.6618 81.0115 65.1618C81.3304 65.4717 81.5395 65.7917 81.6392 66.2716C81.7089 66.6216 82.0677 66.7316 81.7489 67.2815C81.4001 67.8814 82.4762 67.4115 82.7054 68.0414C83.6221 70.5711 85.2362 72.7808 86.2525 75.2804C86.4717 75.8203 86.4918 76.2503 86.3323 76.7702C85.8142 78.55 85.0271 80.1397 83.4428 81.2096Z" fill="#F6D06D"/>
<path d="M73.6476 0C75.9893 0.129983 75.9893 0.130046 76.3779 2.68971C77.733 1.41987 77.733 1.41987 79.1081 1.05992C79.4967 2.08978 80.0349 3.0996 81.4797 2.75964C81.679 2.70965 81.9778 2.89966 82.1572 3.04964C83.2433 3.96952 83.6618 5.44931 84.8475 6.2892C84.7877 8.05897 85.9834 9.78869 85.3358 11.4885C84.6482 13.2982 84.479 15.248 83.4825 16.9877C82.2769 19.1174 80.9714 21.1272 79.118 22.917C78.1216 22.817 77.0555 22.867 76.4776 24.0368C76.2285 23.8169 76.039 23.6468 75.8497 23.4769C74.086 25.2566 73.6278 28.0263 71.4555 29.4261C70.5986 29.8361 70.0904 28.7361 69.4727 28.9561C68.6656 29.2461 68.1373 28.2162 67.3801 28.7061C66.7224 29.1361 66.0449 28.8861 65.4371 28.8261C64.8093 27.9962 66.3438 27.6263 65.6862 26.8764C65.1979 26.7764 64.9489 27.6463 64.2913 27.1264C63.9126 25.3266 64.5403 23.7068 65.2179 21.9771C65.9552 20.1073 66.9915 18.2576 66.8918 16.1379C66.8619 15.378 67.3801 14.8781 67.6591 14.2781C68.4861 12.5184 69.0741 10.6786 69.7317 8.86882C70.5687 6.58912 70.8178 4.09943 72.173 1.96971C72.6213 1.2998 73.1195 0.729903 73.6476 0Z" fill="#F6D06D"/>
<path d="M91.0554 150.56C90.5871 151.11 91.1252 151.77 90.5772 152.15C89.8 152.28 89.202 151.68 89.2518 151.18C89.4511 149.3 88.2156 148.45 86.9999 147.5C86.6412 147.22 86.3523 146.87 86.0334 146.54C85.5352 145.431 86.2925 144.551 86.5915 143.591C87 143.301 87.4385 143.481 87.8669 143.481C88.3053 143.711 87.8669 144.671 88.8035 144.521C89.4113 144.311 89.6406 143.411 89.6506 143.141C89.6705 141.531 90.0491 140.071 90.8263 138.691C90.0391 136.992 91.3246 135.532 91.3843 133.922C91.4541 132.222 92.3011 130.842 93.4371 129.603C93.9153 129.073 94.4335 129.393 94.9317 129.203C94.8918 130.133 96.0477 130.432 95.4499 131.972C96.4264 130.902 96.3864 129.773 97.2931 129.843C98.7379 129.963 100.412 129.913 101.538 130.643C102.624 131.342 104.567 131.642 104.428 133.672C104.418 133.822 104.527 134.022 104.647 134.112C106.719 135.722 106.879 138.261 107.656 140.481C108.284 142.261 108.812 144.061 108.802 146.01C108.802 147.09 107.686 147.91 108.284 148.97C107.676 149.94 106.55 150.39 106.381 151.8C104.179 149.98 102.006 152.22 99.9039 151.58C99.4156 151.82 99.6149 152.26 99.4057 152.57C99.037 152.919 98.5586 152.59 98.5686 152.59C97.6618 152.909 98.17 153.649 97.5721 153.749C97.2732 153.579 97.3729 153.279 97.353 153C96.795 152.36 95.9878 152.96 95.3601 152.62C95.0512 152.31 94.7324 151.99 94.4036 151.66C93.4769 152.26 93.3074 153.309 92.8291 154.309C92.1715 153.959 91.8427 153.499 91.9125 152.71C91.9723 151.91 92.022 151.07 91.0554 150.56Z" fill="#F6D06D"/>
<path d="M75.3117 201.863C74.9828 201.343 75.1823 200.903 74.7638 200.723C74.2058 201.313 74.7438 202.113 74.4249 202.803C74.1559 202.833 73.9068 202.853 73.4684 202.903C73.4684 201.993 73.4684 201.133 73.4684 200.273C72.9702 201.823 70.7282 201.283 70.4592 202.883C70.0506 202.243 69.423 202.303 68.7952 202.363C68.2472 202.743 68.7951 203.413 68.3965 203.863C67.8186 204.093 67.2007 203.973 66.5729 203.933C66.1445 203.363 66.4733 202.713 66.3637 202.103C65.7758 201.473 65.2579 200.733 64.3113 200.553C64.5803 200.113 64.2314 199.403 64.3709 199.253C65.0285 198.594 64.4806 197.464 65.467 196.934C66.3838 196.444 65.2877 195.134 66.2543 194.554C65.218 193.414 66.7424 192.414 66.4336 191.224C66.1546 190.135 66.3737 188.915 66.3737 187.825C65.8855 187.585 65.8655 187.985 65.6164 188.085C64.899 188.125 65.6066 187.255 65.0686 187.155C64.949 187.235 64.7596 187.295 64.7097 187.415C64.0421 189.005 63.3447 190.605 63.7831 192.384C64.2415 194.244 64.3609 194.264 63.6236 196.604C63.4143 197.264 64.68 197.494 63.823 198.154C63.3447 198.524 64.0023 199.443 63.2151 199.803C63.534 200.363 63.6236 201.053 64.1617 201.493C64.062 201.783 63.833 201.803 63.5639 201.813C62.7369 201.863 62.2088 201.503 62.0294 200.683C61.8799 199.993 62.2786 199.253 61.8202 198.593C61.4914 198.114 62.0692 197.464 61.5013 196.984C61.3717 196.864 61.3717 196.314 61.5013 196.214C62.418 195.504 61.6807 194.894 61.5412 194.174C61.4116 193.464 61.3319 192.674 61.8002 191.854C62.3881 190.845 61.9696 189.715 61.5212 188.615C61.2721 188.005 60.724 188.355 60.4749 187.985C61.2023 187.085 60.9033 186.055 60.8834 185.135C60.5944 184.805 60.1161 184.875 60.1061 184.935C60.0164 185.745 58.9903 186.465 59.8174 187.375C59.1099 188.005 58.6116 189.025 57.2565 188.655C57.3661 188.065 57.5753 187.395 57.7547 186.875C57.954 186.305 58.2927 185.795 58.203 185.165C58.1034 184.425 58.9903 183.995 58.7611 183.206C58.5219 182.396 59.2094 182.326 59.6777 181.966C60.146 181.606 59.568 180.606 60.3453 180.196C59.9068 179.806 59.4386 180.056 58.9902 179.986C58.5319 180.596 58.8608 181.466 58.0936 182.096C56.9776 183.026 57.1269 183.176 56.4294 185.835C56.1802 186.805 55.6821 187.705 55.2736 188.695C54.0181 187.775 54.2173 186.585 54.6856 185.445C55.0842 184.485 55.2934 183.485 55.6122 182.546C55.9111 181.676 55.7518 180.376 56.9575 179.826C57.7746 179.456 57.6152 178.206 58.512 177.826C58.8109 178.146 59.08 178.536 59.8074 178.186C59.4586 177.756 59.1298 177.346 58.781 176.916C59.5084 176.476 60.1261 176.566 60.6542 177.256C61.5909 175.797 63.554 176.246 64.5305 175.057C65.3774 175.077 65.5766 175.826 66.1445 176.186C66.2542 175.856 66.3638 175.547 66.4734 175.217C66.8421 174.967 67.2008 176.066 67.6791 175.197C67.8186 174.947 68.7154 174.987 69.2037 175.107C69.5823 175.207 69.9111 175.626 70.2001 175.946C70.6286 176.406 71.2563 175.937 71.7047 176.286C71.1069 177.176 71.8541 177.766 72.1431 178.406C72.5616 179.336 74.0065 178.436 74.4549 179.906C74.4748 180.026 73.6876 180.226 73.9766 180.646C75.0229 182.176 74.5046 184.195 75.5807 185.715C75.6704 185.835 75.521 186.115 75.6007 186.245C76.1686 187.195 74.1259 188.135 75.5907 189.075C75.5907 190.075 75.84 191.164 75.5311 192.054C75.0528 193.444 75.0625 194.814 75.0526 196.214C75.0526 196.384 75.1125 196.554 75.1523 196.784C75.6804 196.874 75.8099 196.344 76.0889 196.094C76.2782 195.924 75.9694 195.404 76.6569 195.314C76.6868 197.584 77.0554 199.873 75.3117 201.863Z" fill="#F6D06D"/>
<path d="M128.322 19.4782C128.342 19.0082 128.342 18.7482 128.083 18.5783C127.336 18.1183 127.186 19.5882 126.399 19.0283C126.21 18.9683 126.16 18.8382 126.279 18.7083C126.897 18.0883 127.834 17.3685 127.017 16.5086C126.08 15.5187 127.585 15.1488 127.296 14.4189C128.153 14.1889 128.83 13.159 129.876 13.8489C130.096 13.9889 130.225 14.2689 130.773 14.1389C132.985 12.3891 134.291 9.76954 135.297 7.0599C135.646 6.13002 136.244 5.63008 136.732 4.93018C139.96 7.11988 139.96 7.11979 141.136 6.57986C142.123 7.91968 143.129 9.26951 142.98 11.0893C142.91 11.8492 143.139 12.4492 143.538 13.0391C142.601 14.1989 143.378 15.3088 143.797 16.2887C144.315 17.5285 143.856 18.7582 144.135 19.9581C144.175 20.1081 144.374 20.2181 144.554 20.3881C143.807 21.5779 143.498 23.0477 142.063 24.0076C140.857 23.7676 139.432 24.3875 138.057 23.6976C136.742 23.0377 135.227 23.0978 133.862 22.6878C132.597 22.3079 131.461 21.4979 130.185 20.838C129.03 21.0779 128.352 22.1479 127.485 22.9078C125.841 22.9878 124.227 23.5976 123.22 24.4875C121.865 24.7675 120.381 24.1076 119.105 25.1174C118.667 24.5475 118.228 23.9677 118.009 23.6877C120.241 24.1576 120.121 23.8976 123.19 22.4778C125.084 21.6079 126.25 19.7181 128.322 19.4782Z" fill="#F6D06D"/>
<path d="M55.0545 137.922C54.9748 138.612 54.9248 139.042 54.885 139.412C54.7156 139.662 54.626 139.612 54.4566 139.412C54.1776 139.072 53.819 138.842 53.8589 138.282C53.9187 137.282 53.8487 136.282 53.8885 135.282C53.9184 134.472 53.8688 133.682 53.3307 133.062C52.5336 132.132 52.9122 131.053 52.7627 130.093C53.8588 129.103 54.2474 127.983 54.5064 126.613C54.7755 125.223 54.7256 123.724 55.463 122.384C55.7719 121.834 55.5129 120.964 55.5129 120.264C56.0808 119.674 56.7386 119.194 56.8482 118.364C57.2467 118.364 57.6053 118.364 57.974 118.364C58.5619 118.954 57.954 119.764 58.3525 120.414C58.781 120.594 59.2894 120.714 59.2794 120.044C59.2694 119.324 60.5349 119.314 59.5484 118.194C61.5015 118.604 62.9064 119.164 64.2516 118.884C65.0388 118.984 64.5505 119.754 65.238 120.054C67.1611 120.874 67.8985 122.374 68.0281 124.354C68.1875 126.763 67.5995 129.013 66.9319 131.273C66.4237 133.002 65.4971 134.052 63.5441 134.212C61.7705 134.352 60.9932 135.442 60.9533 137.282C60.9334 138.002 60.9533 138.712 60.9533 139.412C60.4053 139.802 60.4052 139.102 60.1362 139.102C59.4188 138.782 59.1796 140.032 58.3924 139.532C57.9241 139.182 58.5421 138.492 58.0538 138.082C57.9342 138.152 57.7149 138.222 57.7149 138.292C57.695 139.082 56.898 139.632 57.0773 140.511C57.1271 140.751 56.6487 140.721 56.3796 140.731C55.8714 140.441 56.1008 139.942 56.0709 139.532C56.041 139.092 56.0609 138.642 56.0609 138.352C55.7819 137.862 55.473 138.042 55.0545 137.922Z" fill="#F6D06D"/>
<path d="M21.6541 75C22.2121 75.21 22.5309 75.33 22.8099 75.43C22.9892 75.8599 22.8298 76.1099 22.5907 76.4199C22.1622 76.9698 22.1424 77.5796 22.7104 78.0695C23.7865 78.9894 23.5972 79.7494 22.6805 80.7492C22.1723 81.2992 21.7636 82.249 22.2618 83.2389C21.7636 83.9788 21.1758 82.7989 20.9068 83.0589C20.2591 83.6888 19.5516 83.3788 18.874 83.4388C18.2463 83.4888 17.6087 83.4488 16.9709 83.4488C16.3332 83.4488 15.7055 83.4488 14.9881 83.4488C14.3902 82.6589 13.5731 81.9191 13.1845 80.9892C12.9055 80.3293 12.6364 79.5594 12.4371 78.8295C12.208 77.9696 13.4635 77.6196 12.7361 76.6997C12.3276 76.1898 12.5468 75.17 12.487 74.3801C11.2315 73.3502 9.09916 74.0801 8.27212 72.2103C8.35184 72.1304 8.48131 72.0004 8.71049 71.7705C8.41156 71.3205 7.6543 71.3504 7.49488 70.5806C7.41516 70.1706 7.29552 69.3307 6.67773 69.0707C6.88698 68.6308 7.1061 68.1809 7.32532 67.7209C7.43492 67.7909 7.65423 67.851 7.66419 67.931C7.70405 68.291 7.5945 68.6908 7.72404 69.0008C7.85357 69.3108 8.21228 69.5308 8.46138 69.7807C8.88985 69.6308 8.69048 69.1908 8.86983 68.8808C9.48762 68.9808 10.1752 69.9306 10.6834 68.5708C10.8827 69.1007 11.0022 69.4107 11.1617 69.8407C11.5503 69.8007 12.1381 69.9306 12.3673 69.7007C13.563 68.5308 15.0179 67.531 15.6356 65.9012C16.104 64.6614 17.0905 64.0015 17.9474 63.1216C18.7645 63.6615 18.7345 64.3114 18.3658 64.7714C17.9075 65.3613 17.8976 65.8612 18.2364 66.6111C18.7346 66.0612 19.3124 65.6213 19.6014 65.0414C19.9302 64.3715 20.1693 63.7815 21.0163 63.8314C21.5643 64.4614 21.0761 65.2513 21.3252 65.9012C22.0227 65.9212 21.7238 65.4513 21.8334 65.1513C22.501 64.6814 23.1587 64.7314 23.647 65.4213C24.0456 65.9813 24.1949 66.7011 24.8127 67.1211C25.2711 67.431 25.1913 68.0309 25.0419 68.3609C24.2946 69.9807 24.0155 71.7504 23.4974 73.4402C23.1984 74.39 22.6107 74.6101 21.6541 75Z" fill="#F6D06D"/>
<path d="M163.137 18.5475C163.685 18.5375 163.755 19.1574 164.233 19.2974C164.014 19.5374 163.845 19.7273 163.675 19.9173C163.835 20.1673 164.084 20.2573 164.353 20.1773C164.971 20.0073 165.12 19.1873 165.858 19.0873C166.645 19.1373 167.033 19.9473 167.731 20.3073C169.514 21.2171 170.521 24.7266 169.913 26.7263C169.435 28.2761 169.455 29.806 170.072 31.5558C170.023 31.8057 169.574 31.5557 169.285 31.7357C168.677 32.5256 169.355 33.1455 169.654 33.8354C169.465 34.6053 168.667 34.8553 168.339 35.4852C167.532 34.8053 166.814 34.4553 165.708 34.8653C164.732 35.2252 164.313 34.0854 163.695 33.5555C163.885 33.3255 164.024 33.1455 164.174 32.9555C163.476 32.3756 163.127 32.9355 162.818 33.3254C162.231 34.0553 162.44 35.3152 161.125 35.6052C160.706 35.6951 160.985 36.415 160.955 36.845C160.895 37.6849 160.407 38.0648 159.69 38.2148C158.922 37.8248 159.68 36.935 159.042 36.5551C157.786 37.475 158.354 39.5447 156.561 40.4046C157.069 38.6248 157.647 37.055 157.946 35.4353C158.235 33.8055 159.869 32.5056 159.112 30.4059C158.075 32.4856 157.527 34.5353 156.8 36.5351C156.571 35.4152 156.621 34.4154 157.089 33.2855C157.986 31.1158 158.584 28.826 159.321 26.5963C159.719 25.4065 160.108 24.1967 160.596 23.0469C160.726 22.7369 160.905 22.4769 160.965 22.1069C161.274 20.1372 161.394 19.9873 163.137 18.5475Z" fill="#F6D06D"/>
</svg>
