<svg width="130" height="164" viewBox="0 0 130 164" fill="none" xmlns="http://www.w3.org/2000/svg">
<path d="M19.5642 31.1153C24.939 20.213 31.5247 10.1075 38.4874 0.271265C39.2841 0.475851 38.5831 0.981918 38.8699 1.29956C39.3213 1.50953 39.8205 0.411221 40.4048 1.39108C40.9359 2.29018 40.6225 2.96857 40.2454 3.66847C38.2697 7.34563 35.4177 10.4467 33.6916 14.3231C33.1021 15.6475 32.8471 17.2734 31.3919 18.3018C30.4943 18.937 30.7068 20.5414 29.9155 21.6021C29.4215 22.2643 29.1454 23.1903 28.593 23.9386C26.3995 26.9159 25.1355 30.2862 24.7744 33.9849C24.7106 34.6525 24.4344 35.2555 23.8237 35.277C22.1613 35.3362 20.5096 36.0308 18.8791 34.5556C17.6947 33.4842 17.5885 32.5151 17.9231 31.223C18.7304 28.1111 20.329 25.3707 21.9011 22.625C23.7387 19.4162 25.8259 16.3582 27.7698 13.2248C30.3881 9.00386 33.3145 5.0198 36.0975 0.928078C36.363 0.540441 36.6127 -0.267134 37.1969 0.0881997C37.6324 0.357392 37.1757 0.992699 36.926 1.38034C35.354 3.8246 33.6703 6.18809 31.9496 8.52467C30.2978 10.7697 28.917 13.2248 27.5361 15.6583C25.3054 19.5939 22.8518 23.4003 20.8389 27.4543C20.2547 28.6172 19.6864 29.7855 19.5642 31.1153Z" fill="#F6D06D"/>
<path d="M11.0664 78.1647C10.0573 78.9884 9.32436 77.7071 9.00569 77.4487C8.13999 76.7434 6.79099 77.4702 6.45109 76.6411C5.94123 75.3813 4.84182 74.3152 5.29857 72.6247C6.1802 69.3567 7.51859 66.2826 8.76137 63.1653C9.66425 60.9041 10.5246 58.6214 11.8418 56.5594C12.4313 55.6387 13.1058 54.8258 14.099 54.3628C15.124 53.889 16.0216 53.8512 17.0041 54.7073C17.7317 55.3372 18.6718 55.7572 19.3463 56.4947C19.9889 57.2 20.4988 57.943 19.7393 58.9013C19.2082 59.5743 19.3038 60.4626 19.0382 61.2325C17.9601 64.3282 17.5511 67.6554 15.8251 70.5196C14.5451 72.6409 13.5997 74.9236 12.6119 77.1902C12.3357 77.8417 12.0595 78.6223 11.0664 78.1647Z" fill="#F6D06D"/>
<path d="M74.7247 54.998C74.4857 55.5418 74.3316 55.8917 74.1882 56.2255C74.3635 56.4571 74.5229 56.317 74.6981 56.2686C75.054 56.1663 75.1761 55.4718 75.6116 55.7518C76.1374 56.0856 75.4629 56.4893 75.5001 56.8877C76.0737 57.0223 76.2277 56.3063 76.695 56.2848C77.4173 57.4154 77.0403 58.3253 76.3658 59.3374C74.5335 62.0886 72.9455 64.9851 71.8726 68.1508C71.469 69.346 69.9553 69.9328 69.9288 71.3165C69.8916 73.077 69.079 74.606 68.1708 75.8658C66.5988 78.0409 66.2642 80.5982 65.3241 82.9617C65.0586 83.6239 65.4197 84.4476 64.7718 84.9914C64.5647 85.1691 64.2354 85.5675 64.0973 85.2283C63.6299 84.0708 62.7164 84.6307 61.9622 84.4369C60.5601 84.0816 60.2839 82.6871 60.1459 81.4596C59.9281 79.5268 60.4805 77.6586 61.2559 75.9358C64.2194 69.3406 67.661 63.0092 71.9204 57.1731C72.5684 56.2848 73.1526 55.1703 74.7247 54.998Z" fill="#F6D06D"/>
<path d="M55.1004 28.8056C54.7764 29.834 54.463 30.9053 54.0966 31.966C51.781 38.6635 48.7802 45.0541 45.5299 51.3263C44.2818 53.7329 42.8478 56.0425 41.9024 58.6052C41.6316 59.3428 41.1483 59.9189 40.2826 59.1382C40.0807 58.9552 39.778 58.869 39.5072 58.7721C37.712 58.126 37.011 56.7316 37.5739 54.8419C38.1528 52.8983 39.2203 51.2024 40.2507 49.4958C44.627 42.2868 48.7431 34.9432 51.8819 27.072C52.2802 26.076 52.397 26.076 53.0928 26.8351C53.1671 26.9159 53.3212 26.9751 53.4327 26.9644C54.7392 26.8513 54.8561 27.8204 55.1004 28.8056Z" fill="#F6D06D"/>
<path d="M11.2258 104.05C10.0308 107.027 8.08162 109.305 6.94506 111.997C5.79787 114.721 4.40637 117.348 3.68407 120.256C4.73035 117.924 5.7713 115.593 6.82288 113.262C8.0338 110.592 9.56338 108.11 11.0717 105.606C11.8259 104.352 12.6757 104.411 13.5307 105.105C14.3646 105.784 14.5345 106.92 13.7538 107.711C12.1605 109.326 11.2629 111.394 10.6787 113.423C9.66429 116.955 7.8798 120.234 7.34339 123.922C7.22123 124.773 6.61044 125.499 6.48829 126.447C6.3502 127.513 6.2918 128.428 6.81228 129.419C7.11501 129.995 7.85855 130.754 7.19998 131.4C6.65825 131.928 5.8669 132.315 4.96402 131.836C4.6188 131.653 4.11958 131.772 3.68939 131.761C1.17196 131.675 -0.31515 130.011 0.056623 127.438C0.561172 123.987 1.84115 120.756 3.19015 117.564C4.95873 113.386 6.88664 109.283 9.50498 105.563C9.88738 105.009 10.2113 104.4 11.2258 104.05Z" fill="#F6D06D"/>
<path d="M79.8974 136.617C76.4877 136.612 75.4574 135.099 76.6152 132.229C77.5181 129.99 79.053 128.138 80.5348 126.291C83.9923 121.973 87.5931 117.774 91.4277 113.784C92.3678 112.81 93.5043 112.46 94.6728 112.094C95.0817 111.97 95.9899 111.717 95.9527 112.078C95.8784 112.815 96.6113 113.483 95.9527 114.269C93.021 117.79 90.4027 121.558 87.694 125.252C86.4991 126.878 85.1766 128.418 84.0241 130.076C83.2434 131.196 82.452 132.412 83.2381 133.92C83.3337 134.103 83.2859 134.571 83.2009 134.604C81.8519 135.056 81.0393 136.509 79.8974 136.617Z" fill="#F6D06D"/>
<path d="M114.765 58.3253C116.517 56.3279 117.606 53.9051 119.332 51.9239C119.842 51.3424 120.453 50.8309 120.888 50.201C121.605 49.1566 122.343 49.9533 122.821 50.2818C123.284 50.5994 123.501 51.3424 123.002 52.0477C120.984 54.9173 119.359 58.0506 117.994 61.2486C117.022 63.526 115.407 65.518 115.073 68.1669C114.945 69.1683 114.271 70.3258 113.894 71.4511C113.394 72.9532 112.364 71.7095 111.567 71.6557C111.44 71.6449 111.328 71.2734 111.217 71.2734C110.728 71.2787 110.441 72.5439 109.868 71.6664C109.092 70.4765 108.259 69.3567 108.806 67.6016C109.671 64.8128 110.999 62.2931 112.449 59.8273C114.419 56.4786 116.236 53.0114 119.04 50.2495C119.247 50.0449 119.438 49.8242 119.656 49.6357C119.884 49.4419 120.193 49.2804 120.437 49.5173C120.75 49.8188 120.586 50.1849 120.309 50.411C117.935 52.3815 116.751 55.2296 115.083 57.7223C114.951 57.8999 114.866 58.1207 114.765 58.3253Z" fill="#F6D06D"/>
<path d="M56.1358 107.878C56.8687 107.178 57.6972 106.554 58.308 105.757C59.025 104.831 59.8216 104.626 60.8307 105.03C61.4309 105.272 61.3034 105.908 61.245 106.317C61.0963 107.361 60.4855 108.169 59.487 108.54C59.2481 108.632 58.8869 108.449 58.8922 108.885C58.8975 111.022 57.0493 112.158 56.2579 113.87C56.0136 114.393 55.5622 114.893 55.2382 115.432C54.3035 117.004 53.5387 118.71 51.563 119.308C51.1009 119.448 50.3733 119.868 50.6176 120.579C51.3771 122.743 49.8794 124.191 49.0296 125.796C47.6328 128.434 45.8642 130.856 44.5683 133.559C44.4249 133.866 44.3293 134.297 43.9098 134.189C43.384 134.054 44.0797 133.586 43.7186 133.306C43.0653 133.661 42.4917 134.609 41.5782 133.489C41.2542 133.091 40.7763 133.764 40.5426 134.189C40.362 134.512 40.1708 134.819 39.7672 134.582C39.2838 134.297 39.6981 133.995 39.8309 133.726C42.1624 128.907 45.0463 124.428 48.0364 120.013C50.6707 116.126 53.305 112.239 55.934 108.352C56.003 108.196 56.0667 108.034 56.1358 107.878Z" fill="#F6D06D"/>
<path d="M84.7891 94.6177C84.2846 94.7685 85.5698 92.9972 84.1996 94.0847C84.1624 94.1116 84.0933 94.1601 84.0721 94.1439C83.1692 93.4333 82.3726 93.4763 81.5493 94.3431C81.3316 94.5693 79.6533 92.6634 79.6161 92.0981C79.563 91.2475 79.7755 90.4399 80.1419 89.6969C82.2292 85.4868 85.1662 81.9872 88.8733 79.1553C90.6897 77.7663 92.5963 77.917 94.4977 78.9507C95.5174 79.5053 95.5121 80.1729 94.6676 81.002C93.7754 81.8742 92.9256 82.8002 92.1236 83.7639C91.1995 84.873 90.4241 86.0951 89.4097 87.1503C88.0766 88.5394 87.6146 90.5045 86.6426 92.1519C86.1062 93.0618 85.6336 93.9824 84.7891 94.6177ZM81.6343 90.7737C83.2489 88.2433 84.8741 85.7129 86.6745 83.2955C84.6191 84.8569 82.1495 88.4694 81.6343 90.7737Z" fill="#F6D06D"/>
<path d="M127.107 97.1481C126.895 97.8804 126.767 98.3272 126.571 99.0002C126.895 98.7471 127.091 98.6664 127.15 98.5318C127.633 97.4119 128.52 97.7027 129.221 98.0634C129.97 98.451 130.166 99.3286 129.864 100.082C129.375 101.315 128.812 102.532 128.122 103.663C127.171 105.219 126.093 106.721 125.445 108.416C124.77 110.188 123.783 111.916 124.202 114C124.404 114.985 123.591 115.561 122.704 115.157C122.221 114.936 121.791 114.963 121.313 114.985C118.296 115.136 116.735 112.966 117.909 110.048C119.56 105.929 122.232 102.446 125.009 99.0648C125.546 98.4187 125.912 97.5573 127.107 97.1481Z" fill="#F6D06D"/>
<path d="M17.0626 161.464C17.0466 162.562 17.9601 163.095 18.0876 163.972C16.7492 164.155 15.9101 163.423 15.6127 161.91C15.294 160.268 15.8038 158.75 16.5899 157.442C18.2682 154.653 19.6703 151.703 22.0178 149.296C22.9366 148.354 23.5686 146.83 24.4608 145.689C27.0048 142.437 29.6603 139.277 32.284 136.089C32.8098 135.449 33.4365 134.91 34.1588 134.496C34.5253 134.281 34.8917 134.232 35.2369 134.512C35.6087 134.814 35.5662 135.196 35.3591 135.567C35.0511 136.122 34.7802 136.703 34.3925 137.193C30.85 141.759 27.2067 146.249 23.7598 150.895C22.4161 152.704 21.3698 154.782 20.6475 156.952C20.3129 157.953 20.6688 159.057 20.7856 160.112C20.8175 160.398 21.2105 160.791 20.7113 161.006C19.75 161.42 18.9427 161.83 19.7871 163.1C19.9783 163.391 19.5428 163.542 19.2348 163.547C18.6877 163.558 18.0611 163.552 17.9973 162.863C17.9442 162.239 17.5937 161.916 17.0626 161.464Z" fill="#F6D06D"/>
<path d="M40.1445 86.4773C39.8312 86.2512 39.6559 86.2081 39.5178 86.5473C39.0186 87.7748 38.6043 89.0508 37.9563 90.1868C37.5633 90.8759 37.6483 92.2919 36.1453 91.8773C35.9063 91.8127 35.9541 92.1196 36.0656 92.2919C36.3205 92.6957 36.1612 92.9918 35.8851 93.331C35.4177 93.9071 35.2902 94.5531 35.407 95.3446C35.6301 96.809 34.6263 97.525 33.3039 96.922C33.1446 96.852 32.8631 96.6043 32.8471 96.7066C32.5072 99.0971 31.2326 95.926 30.7121 97.0835C30.3191 96.7551 30.1385 96.3352 30.0907 95.8183C29.9898 94.6339 30.4678 93.6271 31.0095 92.6419C33.0702 88.9055 36.0178 85.9282 39.0398 83.0263C39.7674 82.3264 40.8668 82.2887 41.8068 82.0088C42.3592 81.8419 42.6885 82.3103 42.8956 82.7518C43.1824 83.3601 42.8691 83.4247 42.3751 83.2632C42.3114 84.3561 41.605 85.1152 41.0261 85.9443C40.7871 86.3104 40.6225 86.7519 40.1445 86.4773Z" fill="#F6D06D"/>
<path d="M78.1661 39.7564C77.7413 40.3755 78.044 41.4307 76.7162 41.5169C75.7549 41.5761 75.9302 41.1077 75.9302 40.607C75.1017 40.6824 75.4362 41.6784 74.7033 41.8776C74.4006 40.5316 74.8946 39.2395 74.8308 37.9474C74.8414 37.9097 74.8467 37.8666 74.8467 37.8236C75.8718 36.9299 76.1108 35.5946 76.679 34.4425C76.9127 33.9687 76.9977 33.4034 77.2845 32.9727C79.6054 29.5109 81.4962 25.7745 83.9924 22.4204C85.9521 19.7931 87.6888 16.9935 89.7814 14.4631C90.2647 13.8816 90.6896 13.2409 91.7199 12.6325C90.9233 14.097 90.3178 15.206 89.7123 16.3205C89.7283 16.2774 89.7389 16.229 89.7548 16.1859C88.1562 17.4673 87.5083 19.4485 86.138 20.9237C86.6054 21.3221 86.7435 20.9075 86.9718 20.8591C87.3542 20.7783 87.5932 21.0206 87.742 21.3598C87.8163 21.5267 87.9597 21.7636 87.7048 21.8335C86.5576 22.135 86.8338 23.0988 86.7966 23.8633C86.7594 24.7085 86.308 25.1715 85.6547 25.5538C84.6509 26.1352 84.0508 26.959 84.1623 28.1919C83.987 28.4557 83.8118 28.7195 83.6312 28.9833C82.5318 29.527 80.9598 32.1867 81.0713 33.3119C80.4446 33.3442 80.195 34.5502 79.3452 33.888C79.0903 33.1773 78.9468 32.8381 78.2936 33.7264C77.4651 34.8463 77.5978 36.3699 76.5941 37.3713C76.4453 37.5221 76.456 37.7374 76.6578 37.8666C76.9234 38.0335 77.1677 37.9097 77.2102 37.6459C77.3854 36.5045 78.283 35.7023 78.5538 34.6202C78.6707 34.1625 78.7928 33.7641 79.3824 33.8503C79.7382 35.9608 78.1343 37.409 77.5873 39.2126C77.5129 39.4495 76.6313 38.8088 76.9499 39.611C77.1039 39.9879 77.6935 40.1817 78.1661 39.7564ZM83.1957 26.4421C83.0789 26.3506 82.9567 26.2645 82.8398 26.1729C82.1547 27.2712 81.4696 28.3641 80.8004 29.4678C80.7208 29.597 80.572 29.8285 80.8004 29.9685C80.9598 30.0654 81.2359 30.0923 81.289 29.8878C81.6396 28.5849 82.8558 27.7504 83.1957 26.4421Z" fill="#F6D06D"/>
<path d="M111.015 137.36C110.723 138.184 110.951 138.921 111.206 139.637C111.344 140.014 111.445 140.294 111.004 140.45C110.601 140.59 110.351 140.305 110.208 139.993C109.841 139.196 109.932 138.308 110.149 137.548C110.978 134.647 112.529 132.132 114.446 129.839C115.014 129.16 115.689 128.541 116.135 127.788C116.942 126.415 118.323 126.022 119.635 125.591C120.246 125.386 120.362 126.221 120.49 126.668C120.564 126.926 120.373 127.421 120.15 127.572C117.967 129.02 117.617 131.712 116.135 133.651C115.646 134.291 115.869 135.583 115.243 136.434C114.743 137.102 114.478 137.942 113.554 138.259C113.023 138.442 113.426 139.142 113.182 139.551C113.06 139.761 112.98 140.02 112.72 140.052C112.46 140.084 112.125 139.858 112.173 139.691C112.486 138.545 111.153 138.254 111.015 137.36Z" fill="#F6D06D"/>
<path d="M56.1358 107.878C56.0721 108.034 56.0031 108.196 55.9394 108.352C54.0221 110.064 52.4766 112.126 50.9789 114.183C48.9182 117.009 47.0487 119.992 45.2536 123.001C43.7346 125.548 41.7961 127.841 40.7286 130.679C40.2931 131.831 39.5761 132.881 38.3227 133.667C38.0252 131.933 39.1193 130.819 39.746 129.597C41.4031 126.377 43.4903 123.421 45.5457 120.46C49.2528 115.114 52.7421 109.59 57.3628 104.955C57.6283 104.691 57.8407 104.325 58.4727 104.524C58.0585 105.924 56.7306 106.661 56.1358 107.878Z" fill="#F6D06D"/>
<path d="M112.274 87.4088C111.705 87.8341 112.375 88.9755 111.504 88.787C110.76 88.6309 111.031 87.7103 111.217 87.1288C112.375 83.5217 114.653 80.8512 117.957 79.1015C118.456 78.8377 119.183 78.4339 119.645 79.1823C120.054 79.8499 119.422 80.2537 119.056 80.6682C117.537 82.4126 116.092 84.2 115.715 86.6065C115.62 87.2095 115.136 87.4303 114.642 87.6349C114.472 87.7049 114.297 87.8233 114.175 87.9633C113.214 89.0777 112.486 89.1962 112.274 87.4088Z" fill="#F6D06D"/>
<path d="M82.4947 22.6842C82.3354 24.4824 80.8217 25.473 79.9985 26.8728C79.3877 27.9065 78.8885 29.0856 77.9166 29.9039C77.6723 30.1085 77.5767 30.5607 77.1783 30.3292C76.8597 30.1462 76.7959 29.7801 77.0084 29.4355C78.3043 27.352 79.563 25.2469 81.1138 23.341C81.4803 22.8888 82.0538 22.9049 82.5425 22.7219L82.4947 22.6842Z" fill="#F6D06D"/>
<path d="M82.5371 22.7219C82.3565 22.3235 82.1441 21.952 82.4733 21.4998C84.3375 18.9263 86.1645 16.3205 88.3314 13.9839C88.4961 13.8009 88.5917 13.3755 88.9688 13.6447C89.2078 13.817 89.1493 14.0808 88.9847 14.2908C86.8709 16.9989 84.8209 19.7554 82.8983 22.6142C82.8451 22.695 82.6327 22.668 82.4946 22.6896C82.4946 22.6842 82.5371 22.7219 82.5371 22.7219Z" fill="#F6D06D"/>
<path d="M74.8413 37.8182C74.836 37.8612 74.8307 37.9043 74.8254 37.942C74.5705 38.5988 74.0128 39.1265 74.0606 39.9125C74.0766 40.1925 74.1138 40.5855 73.6942 40.5532C73.3171 40.5209 73.3702 40.1655 73.4021 39.8694C73.6942 37.199 74.5917 34.7009 75.5902 32.2405C75.7602 31.8206 76.2647 31.3629 76.7215 31.5837C77.2632 31.8421 76.8542 32.3859 76.663 32.7035C75.707 34.281 75.2875 36.0523 74.8413 37.8182Z" fill="#F6D06D"/>
<path d="M89.7493 16.1751C89.7387 16.2236 89.7228 16.2666 89.7068 16.3097C90.3176 15.6798 91.3798 15.4968 91.4807 14.3338C91.4967 14.14 91.98 13.4401 92.4633 13.8762C92.9253 14.2854 92.4314 14.7215 92.1659 14.9799C90.9549 16.1428 89.9936 17.4511 89.4466 19.217C88.9792 18.6678 88.2888 18.3071 89.2129 17.6395C89.7122 17.2734 89.5157 16.6381 89.7493 16.1751Z" fill="#F6D06D"/>
<path d="M83.626 28.9725C83.8012 28.7087 83.9765 28.4449 84.1571 28.1811C84.3695 28.0142 84.5819 27.8419 84.7944 27.675C84.8687 27.7288 84.9431 27.7773 85.0175 27.8312C84.5288 28.7141 84.0402 29.5917 83.5569 30.4746C83.4507 30.4423 83.3498 30.4046 83.2436 30.3723C83.3657 29.9039 83.4932 29.4355 83.626 28.9725Z" fill="#F6D06D"/>
<path d="M78.7289 38.9972C78.4474 37.9851 79.1697 37.3121 79.5521 36.5368C79.9239 35.7723 80.3594 35.0347 80.7684 34.2918C80.9118 34.674 80.8799 35.0078 80.6675 35.3793C80.0036 36.5691 79.3716 37.7859 78.7289 38.9972Z" fill="#F6D06D"/>
</svg>
