<svg width="141" height="86" viewBox="0 0 141 86" fill="none" xmlns="http://www.w3.org/2000/svg">
<path d="M111.441 38.0923C110.503 38.1032 109.73 38.0094 109.002 38.1616C108.6 38.2479 108.3 38.382 108.133 37.9707C107.522 36.4472 105.807 36.2496 104.789 35.2012C103.571 33.9475 102.079 33.915 100.359 33.9771C97.4894 34.079 95.0017 35.439 92.2406 35.8656C90.7775 36.0907 89.2544 36.5763 87.8386 37.1286C85.2068 38.1598 82.4721 38.0492 79.7329 38.1506C77.8441 38.2235 76.0349 38.8189 74.0576 38.1336C71.0223 37.0901 68.7621 35.1817 66.7994 32.8001C66.2279 32.1089 66.4313 31.4908 67.1668 30.7588C65.9009 31.2305 65.632 30.7445 65.249 29.7858C64.4092 27.6976 63.3701 25.7099 64.1315 23.3738C64.1804 23.2248 64.1396 22.9978 64.0506 22.8719C62.3533 20.583 62.4453 17.8535 62.1837 15.2381C62.0933 14.3717 62.076 13.8257 61.1975 13.2431C60.3613 12.6901 59.3238 12.0274 59.2509 10.667C59.1989 9.68847 58.2084 10.4678 57.636 10.1031C51.941 6.46187 45.786 6.42262 39.3414 7.69728C36.5583 8.24528 33.8172 8.99957 31.1643 9.82569C28.7531 10.5809 26.3841 11.9231 24.3306 13.5689C23.7498 14.0357 23.2228 14.5493 22.4328 14.3443C21.5021 14.1018 21.9744 13.2084 21.8413 12.666C21.3588 10.6802 22.3792 9.5803 24.0608 8.38656C25.7248 7.20426 27.2181 5.72061 29.1248 4.90214C33.9457 2.828 38.6697 0.446537 44.0891 0.177913C50.3346 -0.133135 56.2098 0.673547 61.4556 4.48152C62.9148 5.53536 64.5938 6.46291 65.1454 8.07014C65.9968 10.5562 67.0553 13.0213 67.1675 15.7443C67.272 18.4897 67.8835 21.155 69.3955 23.5202C72.4011 28.2079 77.0925 29.2064 82.1559 28.8147C87.3206 28.4165 92.2024 26.5165 97.2523 25.5167C103.976 24.1816 109.204 26.0232 112.799 31.4655C114.18 33.5526 115.093 35.9612 115.306 38.5757C115.577 41.8073 116.009 44.9756 117.952 47.8178C119.636 50.2868 123.252 52.2842 126.21 51.6966C129.501 51.0478 132.754 50.2324 136.025 49.5074C137.197 49.2443 138.391 49.1925 139.575 49.3337C140.364 49.4304 140.999 50.0027 140.925 50.7699C140.843 51.6344 140.119 51.3917 139.542 51.164C139.111 50.9928 138.849 51.1644 138.727 51.5773C138.596 52.0063 138.751 52.1964 139.224 52.2952C140.516 52.5572 140.367 53.1203 139.474 53.7785C138.792 54.2788 139.253 55.1693 138.44 55.8947C137.003 57.1799 135.441 57.7506 133.71 58.203C133.537 58.2489 133.365 58.3489 133.195 58.3533C132.133 58.3631 128.954 58.9957 127.816 59.6103C127.067 60.0129 126.206 59.6227 125.495 60.1648C125.255 60.344 124.955 60.0226 125.041 59.6533C125.096 59.4278 125.252 59.1417 124.819 59.2636C121.884 60.0626 121.09 60.0965 119.615 59.4411C118.14 58.7856 117.12 57.4521 115.585 56.8534C115.086 56.6595 115.284 56.0224 115.478 55.5701C115.611 55.2493 115.873 54.901 115.436 54.6295C115.114 54.4295 114.597 54.3696 114.434 54.6303C113.749 55.7023 113.48 55.0125 113.164 54.403C112.49 53.0797 111.397 51.8064 111.244 50.4266C110.957 47.9471 110.286 45.5694 109.867 43.1319C109.711 42.2283 109.668 41.2815 110.561 40.5483C111.256 39.9698 111.029 39.0038 111.441 38.0923ZM60.8643 6.12686C57.4015 2.74307 50.7934 0.64907 47.3084 1.82507C49.6737 2.24433 52.0197 2.66874 54.3165 3.41879C56.5826 4.15661 58.6144 5.39832 60.8643 6.12686ZM125.162 54.3943C124.304 54.4723 123.699 54.2387 123.41 53.4998C123.272 53.1422 123.154 52.9626 122.689 52.9162C121.065 52.7489 119.879 51.8196 118.893 50.5859C118.696 50.3391 118.472 49.8412 118.082 50.1757C117.76 50.4582 117.881 50.8543 118.2 51.2455C119.491 52.8468 121.376 53.6452 123.039 54.7195C123.422 54.9647 124.499 55.5965 125.162 54.3943ZM108.493 30.2425C108.754 30.1187 108.752 29.8814 108.586 29.572C108.181 28.8366 104.665 27.0845 103.786 27.209C103.64 27.2274 103.441 27.3549 103.385 27.4785C103.269 27.7336 103.397 27.9035 103.687 27.983C105.124 28.3971 106.307 29.3201 107.61 30.0007C107.867 30.1366 108.059 30.3914 108.493 30.2425ZM73.0857 29.4944C74.1499 30.687 75.4885 30.9912 76.9947 30.646C75.6884 30.2585 74.3902 29.8756 73.0857 29.4944Z" fill="#F6D06D"/>
<path d="M90.6507 62.9937C89.7131 63.0046 88.9394 62.9108 88.2118 63.063C87.8095 63.1494 87.5093 63.2834 87.3431 62.8721C86.7317 61.3487 85.0169 61.1511 83.9986 60.1026C82.7805 58.8489 81.2888 58.8164 79.5687 58.8785C76.6992 58.9804 74.2114 60.3404 71.4504 60.767C69.9872 60.9921 68.4641 61.4777 67.0484 62.03C64.4166 63.0612 61.6819 62.9507 58.9426 63.052C57.0538 63.1249 55.2447 63.7204 53.2674 63.0351C50.2321 61.9915 47.9719 60.0832 46.0092 57.7016C45.4377 57.0104 45.6411 56.3923 46.3766 55.6602C45.1107 56.132 44.8418 55.6459 44.4588 54.6872C43.619 52.5991 42.5799 50.6114 43.3413 48.2752C43.3902 48.1263 43.3493 47.8992 43.2603 47.7733C41.563 45.4844 41.655 42.7549 41.3934 40.1395C41.3031 39.2731 41.2858 38.7271 40.4073 38.1445C39.5711 37.5915 38.5336 36.9288 38.4606 35.5684C38.4086 34.5899 37.4181 35.3692 36.8457 35.0045C31.1508 31.3633 24.9958 31.324 18.5511 32.5987C15.768 33.1467 13.027 33.901 10.3741 34.7271C7.96288 35.4823 5.59385 36.8245 3.54037 38.4704C2.95957 38.9371 2.43262 39.4507 1.64256 39.2457C0.711923 39.0032 1.18415 38.1098 1.05108 37.5674C0.568553 35.5816 1.58902 34.4817 3.27057 33.288C4.93461 32.1057 6.42786 30.622 8.33455 29.8036C13.1555 27.7294 17.8794 25.348 23.2989 25.0793C29.5443 24.7683 35.4196 25.575 40.6654 29.3829C42.1246 30.4368 43.8035 31.3643 44.3552 32.9716C45.2066 35.4577 46.2651 37.9228 46.3773 40.6457C46.4818 43.3911 47.0933 46.0564 48.6053 48.4216C51.6109 53.1094 56.3022 54.1078 61.3657 53.7161C66.5304 53.3179 71.4122 51.4179 76.4621 50.4181C83.1856 49.083 88.414 50.9246 92.0083 56.3669C93.3901 58.454 94.3029 60.8626 94.5162 63.4772C94.7867 66.7087 95.2185 69.877 97.1616 72.7192C98.8459 75.1882 102.462 77.1856 105.42 76.598C108.711 75.9492 111.964 75.1338 115.235 74.4089C116.406 74.1457 117.601 74.094 118.785 74.2351C119.573 74.3318 120.209 74.9041 120.135 75.6714C120.053 76.5359 119.328 76.2931 118.752 76.0654C118.321 75.8942 118.059 76.0658 117.937 76.4787C117.806 76.9077 117.96 77.0978 118.433 77.1967C119.726 77.4586 119.577 78.0217 118.684 78.6799C118.002 79.1802 118.463 80.0707 117.65 80.7961C116.213 82.0813 114.651 82.652 112.92 83.1044C112.747 83.1503 112.575 83.2503 112.405 83.2548C111.343 83.2645 108.164 83.8971 107.026 84.5117C106.277 84.9143 105.416 84.5241 104.705 85.0663C104.465 85.2454 104.165 84.924 104.251 84.5547C104.306 84.3292 104.462 84.0431 104.028 84.165C101.093 84.964 100.299 84.9979 98.8245 84.3425C97.3496 83.687 96.3296 82.3535 94.7946 81.7548C94.2959 81.5609 94.4941 80.9238 94.6875 80.4715C94.8204 80.1508 95.0831 79.8024 94.6458 79.531C94.3239 79.3309 93.8065 79.271 93.6437 79.5317C92.959 80.6038 92.6899 79.9139 92.374 79.3045C91.7 77.9811 90.607 76.7078 90.4533 75.3281C90.1667 72.8485 89.4957 70.4709 89.0763 68.0333C88.921 67.1297 88.8776 66.1829 89.7707 65.4498C90.4655 64.8713 90.2383 63.9052 90.6507 62.9937ZM40.0741 31.0283C36.6113 27.6445 30.0032 25.5505 26.5182 26.7265C28.8834 27.1457 31.2294 27.5702 33.5263 28.3202C35.7924 29.058 37.8242 30.2997 40.0741 31.0283ZM104.372 79.2957C103.514 79.3737 102.909 79.1401 102.619 78.4012C102.481 78.0436 102.364 77.864 101.899 77.8176C100.274 77.6504 99.0891 76.721 98.103 75.4873C97.9058 75.2405 97.6818 74.7426 97.2918 75.0772C96.9701 75.3596 97.091 75.7557 97.4097 76.147C98.7012 77.7482 100.585 78.5466 102.249 79.6209C102.631 79.8662 103.709 80.498 104.372 79.2957ZM87.7024 55.1439C87.9641 55.0201 87.9617 54.7828 87.7956 54.4734C87.3906 53.7381 83.8751 51.9859 82.9957 52.1105C82.8497 52.1288 82.6508 52.2563 82.595 52.3799C82.4787 52.635 82.607 52.8049 82.8963 52.8845C84.3333 53.2985 85.5168 54.2216 86.82 54.9022C87.0765 55.038 87.269 55.2929 87.7024 55.1439ZM52.2955 54.3959C53.3597 55.5885 54.6983 55.8926 56.2044 55.5474C54.8982 55.1599 53.6 54.777 52.2955 54.3959Z" fill="#F6D06D"/>
</svg>
