<svg width="116" height="144" viewBox="0 0 116 144" fill="none" xmlns="http://www.w3.org/2000/svg">
<path d="M9.59248 62.2419C8.98976 65.8136 8.28655 69.3753 7.80438 72.967C7.29206 76.8088 6.8602 80.6606 6.6392 84.5224C6.43829 88.014 6.45834 91.5257 6.59898 95.0273C6.64921 96.398 7.44278 97.7386 7.59346 99.1193C7.77428 100.71 7.4125 102.381 7.69377 103.942C8.01522 105.732 8.63819 107.503 9.36146 109.184C12.9376 117.578 16.9658 125.742 24.6807 131.224C35.7406 139.088 47.9055 140.509 60.5326 135.967C73.009 131.474 82.2808 122.55 90.6386 112.636C98.4238 103.401 103.838 93.0064 107.043 81.2809C108.931 74.3676 109.534 67.3443 109.112 60.4911C108.751 54.5783 106.45 48.5454 100.985 44.7337C95.9928 41.262 90.3775 41.6022 84.722 42.2525C83.7576 42.3626 82.7127 42.0124 81.7885 42.2325C80.7438 42.4726 79.6289 42.9429 78.8554 43.6532C78.1522 44.3035 78.0216 45.2739 79.5987 45.324C86.0679 45.514 92.8586 52.6874 93.381 59.9808C93.6421 63.7126 94.3857 67.3743 93.0597 71.1261C92.688 72.1766 93.6221 73.7773 94.2249 74.9979C94.3354 75.218 95.7014 74.8278 96.6055 74.7078C97.1379 77.1689 95.591 79.1499 93.9234 80.3204C90.1966 82.9216 88.5993 86.9035 86.3291 90.4452C82.4415 96.488 77.9713 101.811 71.0501 104.512C59.7289 108.944 45.0327 104.762 40.0602 92.7163C37.9306 87.5538 38.0008 82.0812 39.9496 76.9288C41.8582 71.8864 44.3997 67.0842 46.7403 62.2219C47.1923 61.2915 47.8554 60.0509 49.1111 61.6517C49.2116 61.7817 49.9348 61.7017 50.0955 61.5016C54.0132 56.6993 57.9006 51.877 61.7078 46.8847C58.5938 49.756 55.4799 52.6274 52.3658 55.4987L52.4561 55.5988C52.8077 54.5883 52.9183 53.3678 53.5612 52.5874C60.0806 44.7237 67.7453 38.4908 77.9413 35.9596C85.9877 33.9586 93.4916 34.8891 100.815 39.091C107.204 42.7528 111.744 47.7051 114.205 54.5283C115.431 57.9299 115.652 61.4816 115.802 65.1533C115.953 68.9751 116.204 72.7869 115.702 76.5586C113.914 89.8849 108.891 101.901 100.634 112.556C97.9817 115.977 95.6211 119.659 92.6577 122.77C89.6642 125.902 86.1283 128.533 82.743 131.284C80.6637 132.975 78.4736 134.536 76.2837 136.087C63.4155 145.191 49.4324 145.761 34.8968 141.229C20.1602 136.637 10.4364 126.802 4.91142 112.536C0.119773 100.16 -1.13603 87.4237 1.01368 74.4276C2.00818 68.3848 3.90677 62.492 5.54416 55.9189C6.80988 57.6998 7.55322 58.7403 8.28653 59.7607C8.70844 60.5911 9.15049 61.4115 9.59248 62.2419ZM70.5478 49.7661C70.3469 49.576 70.1461 49.3759 69.9452 49.1858C67.2129 51.5869 64.1289 53.6879 61.8084 56.4392C55.1382 64.3129 49.3219 72.7468 47.1923 83.1317C46.0973 88.4642 45.9066 93.8568 50.2763 97.7887C54.4954 101.59 59.749 100.99 64.7818 99.3294C71.1104 97.2484 75.6711 92.8563 79.4783 87.6039C81.7787 84.4324 81.7083 84.3824 77.8709 83.4219C68.8803 81.1708 63.8677 75.4381 64.0585 66.9841C64.169 62.1418 65.6859 57.5297 68.3178 53.3677C69.041 52.1672 69.7944 50.9666 70.5478 49.7661ZM87.9465 63.7626C87.0826 60.331 86.4195 56.9694 85.3547 53.7479C84.7419 51.887 83.2452 50.7065 81.0754 51.887C78.9156 53.0576 76.7962 54.2982 74.6866 55.5588C74.5862 55.6188 74.7769 56.129 74.807 56.4392C74.8573 57.0094 75.0784 57.6498 74.9076 58.16C73.893 61.1414 72.3359 64.0127 71.8035 67.0642C70.5779 74.1675 72.095 79.2799 81.2563 78.8697C81.5276 78.8597 81.8187 78.7897 82.0698 78.8497C83.657 79.2199 84.5109 78.4996 84.8625 77.0289C85.8871 72.6568 86.8917 68.2848 87.9465 63.7626Z" fill="#185951"/>
<path d="M12.9276 53.1076C12.3048 52.0971 11.9129 51.4768 11.5311 50.8565C11.3704 51.4868 11.3001 52.1671 11.0289 52.7474C10.828 53.1976 10.386 53.5478 10.0947 53.888C7.16146 51.5469 8.83895 49.4258 10.0042 47.1148C17.8898 31.3573 29.3014 18.6314 43.6864 8.55663C51.6825 2.964 60.3015 -1.17795 70.5377 0.30275C72.4564 0.582882 74.3249 1.26317 76.1833 1.89346C76.5751 2.02353 76.7658 2.72387 77.0471 3.15407C76.4745 3.29413 75.902 3.5943 75.3495 3.55428C72.9286 3.3842 70.5277 2.96399 68.1068 2.91396C61.8787 2.7739 56.7956 5.81534 51.8834 9.1169C47.7145 11.9282 43.1239 14.3994 39.7286 17.971C33.3297 24.7042 27.6641 32.1277 21.657 39.2411C21.1949 39.7913 20.3911 40.0515 19.7985 40.5017C19.5071 40.7218 19.2159 41.0419 19.1054 41.3821C18.6935 42.5927 18.553 43.9333 17.9402 45.0138C16.4234 47.7051 14.7056 50.2662 12.9276 53.1076ZM30.9288 21.4827C30.7279 21.2826 30.5269 21.0725 30.326 20.8724C28.7589 22.6132 27.1919 24.3641 25.6248 26.1049C25.8057 26.2649 25.9765 26.415 26.1573 26.5751C27.7344 24.8743 29.3316 23.1835 30.9288 21.4827Z" fill="#185951"/>
<path d="M9.59248 62.2419C9.15049 61.4215 8.69826 60.6012 8.25626 59.7908C8.33663 58.9904 9.69275 58.0799 7.99507 57.3896C7.83435 57.3196 8.04539 56.3391 8.08557 55.7789C8.61798 55.8289 9.2911 55.6988 9.67282 55.959C12.1138 57.6297 12.0436 61.0213 9.59248 62.2419Z" fill="#185951"/>
<path d="M52.4461 55.5888L52.3558 55.4887C51.6225 56.9294 50.9093 58.3801 50.0855 59.7808C50.0454 59.8608 48.8197 59.5506 48.7394 59.2505C48.438 58.22 51.0297 55.7489 52.4461 55.5888Z" fill="#185951"/>
</svg>
