<svg width="201" height="38" viewBox="0 0 201 38" fill="none" xmlns="http://www.w3.org/2000/svg">
<mask id="mask0_1478_15675" style="mask-type:alpha" maskUnits="userSpaceOnUse" x="0" y="0" width="39" height="38">
<circle cx="19.7156" cy="18.9221" r="18.9221" fill="#C4C4C4"/>
</mask>
<g mask="url(#mask0_1478_15675)">
<path d="M19.702 0.185176C9.31074 0.185176 0.841099 8.63017 0.841099 19.024C0.841099 28.9897 8.6456 37.1836 18.4604 37.8185V44.3294H-28.1745V28.9158C-11.7082 28.2662 1.49146 14.6981 1.49146 -1.91129C1.49146 -18.9194 -12.3734 -32.7679 -29.4014 -32.7679C-46.4442 -32.7679 -60.2942 -18.9194 -60.2942 -1.91129C-60.2942 14.6981 -47.0945 28.2662 -30.643 28.9158V44.3294H-77.2778V37.8185C-67.4483 37.1836 -59.6586 28.9897 -59.6586 19.024C-59.6586 8.64493 -68.1135 0.185176 -78.5195 0.185176C-88.9255 0.185176 -97.3804 8.63017 -97.3804 19.024C-97.3804 28.9897 -89.5759 37.1836 -79.7463 37.8185V46.795H20.9436V37.8185C30.7732 37.1836 38.5776 28.9897 38.5776 19.024C38.5776 8.64493 30.108 0.185176 19.702 0.185176ZM-28.1598 -30.2728C-13.0533 -29.6232 -0.962244 -17.1625 -0.962244 -1.91129C-0.962244 -0.00674587 -1.15436 1.86828 -1.52389 3.66948C-16.9555 3.43326 -24.7157 9.36836 -28.1598 13.3694V-30.2728ZM-28.1598 17.6214C-27.3172 16.0417 -21.183 6.03171 -2.12994 6.1203C-5.50007 17.4885 -15.8174 25.904 -28.1598 26.4502V17.6214ZM-77.2778 2.70983C-73.5234 2.99034 -70.1237 4.54055 -67.4927 6.94707C-72.4592 8.14295 -75.4893 10.5495 -77.2778 12.705V2.70983ZM-77.2778 17.5181C-76.9379 16.4993 -74.6024 10.6824 -65.5415 9.05832C-63.413 11.8192 -62.1271 15.2739 -62.1271 19.024C-62.1271 27.6314 -68.823 34.7033 -77.2778 35.3381V17.5181ZM-79.7463 35.3381C-87.8021 34.7328 -94.2467 28.2957 -94.838 20.2494C-82.5843 20.4118 -80.0567 26.8784 -79.7463 27.8824V35.3381ZM-79.7463 23.2612C-82.0818 20.7071 -86.5309 17.9019 -94.838 17.7986C-94.232 9.75222 -87.8021 3.32991 -79.7463 2.72459V23.2612ZM-30.643 26.4502C-45.7494 25.8006 -57.8257 13.3251 -57.8257 -1.91129C-57.8257 -6.87198 -56.5397 -11.5522 -54.293 -15.6122C-37.3093 -15.7156 -31.4116 -3.43199 -30.643 -1.66032V26.4502ZM-30.643 -6.54718C-31.5003 -7.75782 -32.6089 -9.11611 -33.9983 -10.4596C-37.5015 -13.811 -43.5175 -17.7087 -52.7705 -18.0631C-47.8632 -25.135 -39.8074 -29.8742 -30.643 -30.2728V-6.54718ZM18.4751 35.3381C10.0202 34.7033 3.32432 27.6314 3.32432 19.024C3.32432 15.2739 4.61031 11.8192 6.73881 9.05832C15.8145 10.6824 18.1351 16.4993 18.4751 17.5181V35.3381ZM18.4751 12.705C16.6866 10.5495 13.6564 8.14295 8.68993 6.94707C11.321 4.54055 14.7207 3.00511 18.4751 2.70983V12.705ZM20.9436 2.70983C28.9994 3.31515 35.444 9.75222 36.0353 17.7838C27.7282 17.8872 23.2791 20.6923 20.9436 23.2612V2.70983ZM20.9436 35.3381V27.8824C21.2688 26.8784 23.7964 20.4265 36.0353 20.2494C35.4292 28.2957 28.9994 34.7328 20.9436 35.3381Z" fill="#185951"/>
</g>
<path d="M49.3616 30.3196V8.46728H51.5923V18.316H63.6718V8.46728H65.8874V30.3196H63.6718V20.4557H51.5923V30.3196H49.3616Z" fill="#141616"/>
<path d="M77.0736 30.7748C75.4752 30.7748 74.0892 30.4207 72.9156 29.7126C71.7522 29.0044 70.8467 28.0079 70.1993 26.723C69.5518 25.4382 69.228 23.9308 69.228 22.2008C69.228 20.4102 69.5467 18.8623 70.1841 17.5572C70.8214 16.2522 71.7168 15.2455 72.8701 14.5374C74.0335 13.8292 75.4043 13.4751 76.9826 13.4751C78.6013 13.4751 79.9822 13.8494 81.1254 14.5981C82.2686 15.3366 83.1336 16.3988 83.7204 17.7849C84.3071 19.1709 84.5752 20.825 84.5246 22.7471H82.2484V21.958C82.2079 19.8335 81.7476 18.23 80.8674 17.1475C79.9974 16.065 78.7227 15.5237 77.0433 15.5237C75.2829 15.5237 73.9324 16.0953 72.9915 17.2385C72.0607 18.3817 71.5954 20.0105 71.5954 22.125C71.5954 24.1888 72.0607 25.7923 72.9915 26.9355C73.9324 28.0686 75.2627 28.6351 76.9826 28.6351C78.1561 28.6351 79.1779 28.367 80.048 27.8308C80.9281 27.2845 81.6211 26.5005 82.127 25.4787L84.206 26.283C83.5585 27.7094 82.6025 28.8172 81.3379 29.6063C80.0834 30.3853 78.662 30.7748 77.0736 30.7748ZM70.8063 22.7471V20.8806H83.3258V22.7471H70.8063Z" fill="#141616"/>
<path d="M92.2851 30.7748C91.0508 30.7748 90.0139 30.5523 89.1742 30.1071C88.3446 29.662 87.7224 29.0701 87.3076 28.3316C86.8928 27.5931 86.6855 26.7888 86.6855 25.9188C86.6855 25.0285 86.8625 24.2697 87.2166 23.6425C87.5808 23.0051 88.0715 22.4841 88.6886 22.0794C89.3158 21.6748 90.0392 21.3662 90.8586 21.1537C91.6882 20.9514 92.6038 20.7744 93.6053 20.6226C94.617 20.4607 95.6034 20.3242 96.5645 20.2129C97.5357 20.0915 98.3855 19.9751 99.1139 19.8639L98.3248 20.3495C98.3552 18.7308 98.0416 17.5319 97.384 16.7529C96.7264 15.9739 95.5832 15.5844 93.9544 15.5844C92.8314 15.5844 91.8804 15.8374 91.1014 16.3432C90.3326 16.849 89.7913 17.6483 89.4777 18.7409L87.3076 18.1035C87.682 16.6366 88.4357 15.4985 89.5687 14.6891C90.7018 13.8798 92.1738 13.4751 93.9847 13.4751C95.482 13.4751 96.7517 13.7584 97.7937 14.3249C98.8458 14.8813 99.5894 15.6907 100.024 16.7529C100.227 17.2284 100.358 17.7596 100.419 18.3463C100.48 18.9331 100.51 19.53 100.51 20.137V30.3196H98.5221V26.2071L99.0988 26.4499C98.5423 27.8561 97.6774 28.9285 96.5038 29.667C95.3303 30.4056 93.924 30.7748 92.2851 30.7748ZM92.5431 28.8476C93.5851 28.8476 94.4956 28.6604 95.2746 28.2861C96.0536 27.9118 96.6808 27.4009 97.1563 26.7534C97.6318 26.0958 97.9404 25.3573 98.082 24.5378C98.2034 24.0117 98.2692 23.4351 98.2793 22.8078C98.2894 22.1705 98.2945 21.695 98.2945 21.3814L99.1443 21.8215C98.3855 21.9226 97.561 22.0238 96.6707 22.125C95.7906 22.2261 94.9205 22.3425 94.0606 22.474C93.2108 22.6055 92.4419 22.7623 91.754 22.9444C91.2886 23.0759 90.8384 23.2631 90.4034 23.5059C89.9684 23.7386 89.6092 24.0522 89.3259 24.4468C89.0528 24.8413 88.9162 25.332 88.9162 25.9188C88.9162 26.3942 89.0325 26.8546 89.2652 27.2997C89.508 27.7448 89.8925 28.1141 90.4185 28.4075C90.9547 28.7009 91.6629 28.8476 92.5431 28.8476Z" fill="#141616"/>
<path d="M104.764 30.3196V8.01202H106.995V30.3196H104.764Z" fill="#141616"/>
<path d="M120.467 30.3196C119.547 30.5118 118.636 30.5877 117.736 30.5472C116.846 30.5067 116.046 30.3145 115.338 29.9705C114.64 29.6266 114.109 29.0904 113.745 28.362C113.451 27.755 113.289 27.1429 113.259 26.5258C113.239 25.8985 113.229 25.1853 113.229 24.3861V9.37779H115.444V24.295C115.444 24.983 115.449 25.5596 115.46 26.025C115.48 26.4802 115.586 26.8849 115.778 27.239C116.142 27.9168 116.719 28.3215 117.508 28.453C118.307 28.5845 119.294 28.5542 120.467 28.362V30.3196ZM109.723 15.8424V13.9304H120.467V15.8424H109.723Z" fill="#141616"/>
<path d="M135.533 30.3196V21.958C135.533 21.0475 135.447 20.2129 135.275 19.4541C135.103 18.6852 134.825 18.0175 134.44 17.451C134.066 16.8743 133.575 16.4292 132.968 16.1156C132.371 15.802 131.643 15.6451 130.783 15.6451C129.994 15.6451 129.296 15.7817 128.689 16.0549C128.092 16.328 127.586 16.7226 127.171 17.2385C126.767 17.7444 126.458 18.3615 126.246 19.0899C126.033 19.8183 125.927 20.6479 125.927 21.5787L124.349 21.2296C124.349 19.5502 124.642 18.1389 125.229 16.9957C125.816 15.8525 126.625 14.9876 127.657 14.4008C128.689 13.814 129.873 13.5206 131.208 13.5206C132.189 13.5206 133.044 13.6724 133.773 13.9759C134.511 14.2794 135.133 14.6891 135.639 15.2051C136.155 15.721 136.57 16.3129 136.884 16.9806C137.197 17.6382 137.425 18.3413 137.566 19.0899C137.708 19.8284 137.779 20.567 137.779 21.3055V30.3196H135.533ZM123.681 30.3196V8.46728H125.699V20.8047H125.927V30.3196H123.681Z" fill="#141616"/>
<path d="M143.341 30.3196V12.7163C143.341 12.2914 143.361 11.8716 143.401 11.4568C143.452 11.042 143.548 10.6474 143.69 10.2731C143.831 9.88869 144.054 9.5346 144.357 9.21086C144.691 8.84666 145.055 8.58362 145.45 8.42175C145.845 8.24977 146.254 8.13848 146.679 8.0879C147.114 8.03732 147.539 8.01202 147.954 8.01202H150.048V9.89375H148.106C147.256 9.89375 146.618 10.1011 146.194 10.5159C145.779 10.9307 145.571 11.5833 145.571 12.4735V30.3196H143.341ZM140.503 15.8424V13.9304H150.048V15.8424H140.503Z" fill="#141616"/>
<path d="M158.743 30.7293C157.762 30.7293 156.902 30.5775 156.163 30.274C155.435 29.9705 154.813 29.5608 154.297 29.0448C153.791 28.5289 153.381 27.9421 153.068 27.2845C152.754 26.6168 152.526 25.9137 152.385 25.1752C152.243 24.4265 152.172 23.6829 152.172 22.9444V13.9304H154.418V22.2919C154.418 23.1923 154.504 24.0269 154.676 24.7958C154.848 25.5647 155.121 26.2374 155.496 26.8141C155.88 27.3806 156.371 27.8207 156.968 28.1343C157.575 28.448 158.308 28.6048 159.168 28.6048C159.957 28.6048 160.65 28.4682 161.247 28.195C161.854 27.9219 162.36 27.5324 162.765 27.0265C163.179 26.5106 163.493 25.8884 163.706 25.16C163.918 24.4215 164.024 23.5919 164.024 22.6713L165.602 23.0203C165.602 24.6997 165.309 26.111 164.722 27.2542C164.135 28.3974 163.326 29.2624 162.294 29.8491C161.262 30.4359 160.079 30.7293 158.743 30.7293ZM164.252 30.3196V26.283H164.024V13.9304H166.255V30.3196H164.252Z" fill="#141616"/>
<path d="M170.8 30.3196V8.01202H173.031V30.3196H170.8Z" fill="#141616"/>
<path d="M181.835 30.3196L189.408 19.2568L182.032 8.46728H184.734L190.728 17.3903L196.722 8.46728H199.438L192.063 19.2568L199.62 30.3196H196.919L190.728 21.1386L184.551 30.3196H181.835Z" fill="#141616"/>
</svg>
