<svg width="156" height="160" viewBox="0 0 156 160" fill="none" xmlns="http://www.w3.org/2000/svg">
<path d="M154.108 47.7887C154.686 47.5007 155.104 47.2921 156 46.8351C152.286 55.1992 150.543 63.7023 147.277 71.689C146.431 73.7551 145.206 75.2551 142.856 75.5333C142.507 75.573 141.96 75.7816 141.85 75.6425C139.839 73.1293 136.981 74.1326 134.452 73.7949C134.103 73.7452 133.735 73.6558 133.426 73.4969C131.753 72.6426 129.423 67.8049 129.692 65.8977C130.847 57.623 133.456 49.8152 136.981 42.2557C137.638 40.8452 138.704 39.9511 139.829 39.0969C142.876 36.7823 143.523 37.0505 144.23 40.6862C144.28 40.9246 144.509 41.1332 144.668 41.3816C145.734 41.3319 145.724 40.279 146.252 39.7624C146.769 39.2459 147.457 38.8783 147.875 39.4743C149.498 41.7491 152.644 42.0372 154.138 44.5603C154.875 45.802 153.959 46.5868 154.108 47.7887Z" fill="#F6D06D"/>
<path d="M18.2754 10.2302C19.5898 9.81294 19.5798 8.51164 20.237 7.72689C20.6353 7.26001 21.183 6.25672 21.5515 6.6342C22.836 7.97523 25.3752 7.65736 25.9329 9.1176C26.5005 10.5878 29.3682 10.846 28.0837 13.1804C28.0638 13.2102 30.0453 12.495 29.2487 14.2533C28.8405 15.1473 28.5119 16.081 28.2829 17.0347C27.7053 19.4088 28.3426 21.8326 28.3326 24.2166C28.3227 27.2464 26.1918 29.7496 26.8789 32.8589C27.1079 33.882 25.2557 33.594 24.728 34.5277C23.8019 36.1866 23.2941 34.935 22.6667 34.1701C22.0593 33.435 21.3324 33.882 20.7051 34.2198C19.6794 34.776 18.7434 35.4813 17.6978 35.9979C15.5669 37.0608 13.6849 38.8488 10.847 37.3191C9.67195 36.6833 7.87957 37.0806 6.37596 37.1402C4.68316 37.2098 3.44838 36.7429 2.61193 35.1337C1.71574 33.4052 -0.61433 32.4814 0.152412 29.8291C1.35729 25.6272 3.26916 21.7134 6.80414 19.2697C10.2893 16.8658 11.9423 13.6473 13.2766 9.99174C13.8442 8.4421 14.5711 7.02161 15.9652 6.02825C16.5726 5.59117 17.18 5.11436 17.9269 5.4223C18.9226 5.82958 18.5343 6.813 18.5642 7.54809C18.6139 8.43218 17.9368 9.24673 18.2754 10.2302Z" fill="#F6D06D"/>
<path d="M80.1526 25.5971C81.3276 23.2131 83.0602 24.3952 84.285 23.9581C85.9877 23.3522 86.7246 24.0376 88.0191 24.8025C89.2041 25.5077 90.877 25.3091 92.1814 26.3322C94.1032 27.8421 94.9994 29.3421 94.6011 32.0242C93.924 36.544 92.2013 40.7856 91.6138 45.365C91.3848 47.1133 89.2041 49.7854 86.864 51.1066C85.7289 51.7523 85.4501 50.749 85.1314 50.0536C84.6933 49.0603 83.8568 48.3848 83.0702 49.1397C81.1981 50.9278 79.2364 49.6563 77.683 49.1397C75.8707 48.5338 74.4567 47.3318 72.1963 47.2325C70.623 47.163 69.0796 44.9378 67.6556 43.5372C65.2459 41.1829 65.5148 38.3717 66.6201 35.5307C67.4366 33.4347 68.3229 31.3586 69.1991 29.2924C69.3684 28.8852 69.5974 28.2792 69.9061 28.1898C72.9631 27.3753 74.5663 24.8621 76.6674 22.8356C78.5195 21.0575 79.5651 21.8124 80.1526 25.5971Z" fill="#F6D06D"/>
<path d="M32.0769 85.2285C31.3002 84.7318 32.4255 84.1557 31.6687 83.6789C30.5136 84.3444 29.6373 85.606 29.3983 86.7186C28.8108 89.49 25.9928 89.0033 24.5987 90.4834C24.2701 90.8311 23.9813 90.4735 23.7722 90.1754C22.9756 89.0629 21.8305 89.0033 20.6455 89.192C19.6896 89.341 18.8631 89.351 18.415 88.2682C18.1661 87.6722 17.698 87.4934 17.1205 87.9106C15.3679 89.192 14.7008 87.7715 13.4162 86.8278C8.29798 83.0829 9.51282 78.4041 10.8073 73.5367C11.4247 71.1924 11.9126 68.8083 12.3408 66.4143C12.749 64.1296 13.924 62.6395 16.2541 62.1727C16.523 62.123 16.8018 62.1031 17.0507 62.0038C21.3126 60.2753 21.3127 60.2754 22.0695 65.0335C23.8519 60.9707 25.7538 62.57 28.1436 64.0005C30.4339 65.3614 32.9432 66.2057 34.5663 68.56C35.2833 69.603 35.7314 70.497 35.5123 71.7487C35.0443 74.4407 35.3331 77.2916 33.7697 79.765C33.471 80.2419 33.5806 80.7187 33.9689 81.4538C34.875 83.1822 32.8636 84.0067 32.0769 85.2285Z" fill="#F6D06D"/>
<path d="M76.3385 73.6159C78.1109 72.3642 79.8934 71.6888 81.3671 74.0132C81.5364 74.2715 81.9347 74.4702 82.2633 74.5298C88.6263 75.7516 91.3546 79.1389 91.1754 85.3375C91.0858 88.5659 90.0203 91.7149 90.9464 95.1022C91.7629 98.0823 90.0104 99.0359 86.9036 97.7644C86.3459 97.5359 85.9178 97.675 85.3801 97.9035C83.976 98.4896 82.5819 98.6386 81.3771 97.3571C81.0684 97.0293 80.5606 96.7413 80.1523 97.0194C77.4438 98.9366 75.1336 96.8009 72.684 96.3042C71.041 95.9664 69.637 95.9664 68.1931 94.0393C66.5501 91.844 66.57 90.1553 66.9285 87.9798C67.6355 83.6885 68.9499 79.576 70.4634 75.5132C70.8717 74.4205 71.3297 73.3576 72.2658 72.543C74.317 70.7848 75.3527 70.9934 76.3385 73.6159Z" fill="#F6D06D"/>
<path d="M29.8561 155.33C29.4678 155.598 29.3183 155.698 29.1889 155.807C28.4421 156.403 28.4222 158.31 27.0381 157.585C25.7734 156.919 25.5942 155.41 26.1518 153.979C27.9741 149.28 29.7764 144.582 31.5887 139.883C32.2659 138.115 32.8533 136.317 33.6201 134.589C34.1578 133.357 34.8847 131.758 36.3684 131.966C38.1309 132.205 36.7369 134.122 37.3841 135.135C38.4098 135.016 38.5392 134.142 38.8877 133.446C39.525 132.155 40.2619 131.35 41.2278 133.198C41.3871 133.506 41.4867 134.023 41.875 133.685C44.2549 131.619 45.2606 134.479 46.5153 135.264C47.9492 136.158 48.0189 138.105 47.3617 140.042C45.5593 145.317 44.0259 150.681 42.4227 156.025C41.9646 157.555 41.2775 158.727 39.6644 159.383C38.8777 159.701 38.36 160.515 37.9915 159.085C37.9417 158.906 37.4737 158.638 37.404 158.688C35.9402 159.731 34.3371 159.363 32.714 159.452C31.8078 159.502 30.9514 160.486 29.8362 159.691C28.5715 158.797 29.4678 157.734 29.5474 156.741C29.5474 156.313 29.7067 155.926 29.8561 155.33Z" fill="#F6D06D"/>
<path d="M121.358 12.9618C121.606 11.879 121.407 11.0744 120.939 10.23C118.958 6.59435 120.531 1.97523 124.285 0.266658C125.39 -0.239955 126.257 0.048121 127.472 0.524933C129.602 1.34942 131.425 2.43218 133.117 3.88248C135.099 5.57119 136.901 7.27977 136.135 10.2797C135.896 11.2234 137.32 12.9916 136.722 12.8426C133.964 12.177 137.17 15.018 135.497 14.6704C133.705 14.2929 132.839 15.9518 132.48 16.8855C131.455 19.6272 129.304 19.6074 127.113 19.7166C126.486 19.7464 125.022 20.5212 125.699 18.6637C125.719 18.6041 125.669 18.5146 125.659 18.4352C123.956 18.9915 123.797 17.6008 122.891 16.7862C121.437 15.465 121.527 14.2432 121.358 12.9618Z" fill="#F6D06D"/>
</svg>
