<svg width="80" height="80" viewBox="0 0 80 80" fill="none" xmlns="http://www.w3.org/2000/svg">
<path opacity="0.1" fill-rule="evenodd" clip-rule="evenodd" d="M40.2547 0.000106102C57.6338 0.0399271 72.7956 11.5776 78.1075 28.1225C83.3613 44.4867 77.4161 62.3202 63.5038 72.4142C49.6163 82.4903 30.8583 82.5381 16.9434 72.5C2.88478 62.3581 -3.44155 44.4492 1.86426 27.9478C7.22048 11.2896 22.7542 -0.0399933 40.2547 0.000106102Z" fill="#185951"/>
<path d="M46.1335 48.1896C46.1335 48.1896 51.3791 45.5397 52.3606 45.0231C53.2935 45.5937 63.514 52.4477 64.1737 52.9093C63.2705 54.2031 57.9026 60.9796 56.1365 60.9246C54.3682 60.8674 47.0144 60.7054 33.1477 46.8376C19.2851 32.973 19.121 25.6183 19.0638 23.8502C19.0077 22.0822 25.9412 17.1144 27.2341 16.2103C27.7561 16.9334 34.5828 26.4375 35.1503 27.3321C34.6357 28.3145 31.7976 33.8538 31.7976 33.8538C31.7976 33.8538 33.3118 36.436 38.4313 41.5537C43.552 46.6725 46.1335 48.1896 46.1335 48.1896Z" stroke="#185951" stroke-width="3"/>
</svg>
