<svg width="133" height="81" viewBox="0 0 133 81" fill="none" xmlns="http://www.w3.org/2000/svg">
<path d="M100.381 69.3747C100.57 70.4375 99.5391 70.7894 99.1236 71.4888C98.8307 71.9776 98.5702 72.8033 97.9155 72.8791C97.2174 72.9576 97.2175 73.6663 96.7144 73.8942C96.3626 74.0512 95.922 74.2616 95.8934 74.8306C95.886 74.9827 95.6082 75.2287 95.4385 75.2446C94.9907 75.2834 94.5423 75.2302 94.6035 75.8991C93.5936 75.9958 93.0107 76.8864 92.1364 77.2556C91.1348 77.6771 90.12 78.1012 89.2295 78.7524C88.7907 78.6918 88.3603 78.6324 87.9214 78.5718C87.9009 79.0807 87.6509 79.3436 87.1456 79.4269C85.2891 79.7173 83.491 80.44 81.6194 80.457C80.2079 80.472 78.8042 80.7505 77.3606 80.4899C75.8459 80.215 74.2747 80.2998 72.7374 80.0656C70.5129 79.732 68.3608 79.0805 66.1598 78.6671C65.492 78.0674 64.6096 78.1424 63.8392 77.861C63.0072 77.558 62.1332 77.4416 61.3104 77.0699C60.5166 76.7065 59.7022 76.3359 58.8077 76.2124C58.4532 76.1634 58.4871 75.8444 58.5617 75.4786C57.8859 75.2933 57.1638 75.5523 56.4748 75.0153C55.9214 74.5889 55.0311 74.5621 54.2883 74.2671C52.101 73.3963 49.9553 72.4394 47.8594 71.3669C47.0906 70.9764 46.3916 70.3855 45.5853 70.1473C44.767 69.9031 44.217 69.2584 43.419 68.9907C42.6125 68.7219 41.8482 68.2663 41.1187 67.8069C38.9278 66.4151 36.6157 65.2558 34.4212 63.8591C32.1044 62.3799 29.7484 60.9697 27.4972 59.3858C26.7117 58.8311 25.851 58.3885 25.0653 57.8032C24.1234 57.1001 23.2148 56.3403 22.2407 55.6852C21.3017 55.0568 20.2841 54.5663 19.5168 53.6817C19.3529 53.4929 18.8809 53.5195 18.7773 53.1684C18.6849 52.8626 18.0984 53.2321 18.1941 52.6111C18.2415 52.3202 17.667 52.5033 17.4048 52.3752C17.0217 52.1867 16.849 51.7735 16.5074 51.4989C14.8674 50.1657 13.1127 48.9828 11.5681 47.514C10.6904 46.6842 9.82775 45.7733 8.71059 45.1596C8.06615 44.8038 7.80298 43.8445 7.01071 43.5338C6.42715 42.399 5.13266 41.9228 4.54066 40.7868C4.37591 40.4754 3.80564 40.5628 3.85913 39.9359C3.88161 39.7028 3.13457 39.6652 2.92178 39.1984C2.74202 38.8062 2.40735 38.48 2.14477 38.1288C1.88218 37.7775 1.62668 37.4054 1.34972 37.0654C0.622094 36.1731 0.315361 35.1859 0.24211 33.9948C0.173351 32.9311 0.185743 31.9355 0.496753 30.9242C0.609867 30.5593 0.867922 30.4287 1.16474 30.3298C1.83251 30.5751 1.57463 31.2524 1.78492 31.7058C1.95603 32.0662 1.71832 32.5277 2.16886 32.8874C2.45227 33.1146 2.3406 33.6941 2.98063 33.7607C3.59535 33.8237 3.01501 34.7277 3.60817 34.9847C3.7234 34.9262 3.86142 34.8578 4.01749 34.7831C4.04281 34.7866 4.13066 34.7725 4.14775 34.8055C4.72983 35.7257 5.599 36.3619 6.34016 37.1205C6.53303 37.3177 6.37077 37.5359 6.40736 37.7771C6.60083 37.712 6.79427 37.6468 6.98294 37.5854C7.32522 37.7902 7.5692 38.0557 7.45193 38.5163C7.52445 38.5526 7.59964 38.633 7.66945 38.6251C8.23289 38.5892 8.46849 39.046 8.85109 39.3351C10.8526 40.8582 12.5783 42.7413 14.7827 43.9994C15.6519 45.1518 17.0043 45.6448 18.099 46.4915C18.7807 47.0187 19.5069 47.5346 20.1718 48.0595C20.856 48.6002 21.9055 48.6577 22.2818 49.6064C23.6308 50.1252 24.6357 51.2263 25.9036 51.8694C26.8174 52.3325 27.551 53.0506 28.4554 53.5517C29.3236 54.0347 30.1723 54.6637 31.037 55.1725C32.3479 55.9441 33.5744 56.8659 34.9927 57.4773C35.761 57.8066 36.5481 58.2521 37.2548 58.7215C40.5436 60.9036 44.1114 62.5075 47.6414 64.2024C48.6952 64.711 49.8775 64.9968 50.7516 65.8218C51.2099 66.2526 51.8432 66.047 52.3113 66.501C52.6386 66.8174 53.3269 66.7156 53.7623 66.9638C54.2616 67.2471 54.7725 67.4445 55.3027 67.6578C56.1518 67.9938 57.0882 68.2544 57.5328 69.1425C57.8955 69.162 57.7143 68.9095 57.8051 68.8083C59.1757 68.9713 59.3004 69.0673 59.5667 70.1321C59.774 70.1563 59.9814 70.1806 60.1803 70.2037C60.2153 70.0379 60.2516 69.8942 60.2761 69.7751C61.5975 69.7914 62.7203 70.1696 63.3371 71.4096C63.7181 71.2916 63.4754 70.8557 63.8687 70.7744C65.1313 71.1676 66.4394 71.7025 67.796 71.938C68.8042 72.1123 69.8292 72.2889 70.8526 72.4128C71.9399 72.5411 73.0263 72.7087 74.1066 72.8579C75.1952 73.0083 76.2752 73.2887 77.3591 73.2809C79.3163 73.267 81.27 73.2787 83.2401 73.0391C84.8251 72.8512 86.3523 72.4848 87.8769 72.1048C88.9038 71.8486 89.8988 71.3475 90.8286 70.8198C91.2893 70.5553 91.7395 70.3376 92.2382 70.1746C92.4221 70.1169 92.6234 69.961 92.6046 69.6828C92.4262 69.3126 92.0224 69.2787 91.7628 69.3566C90.2507 69.8038 88.7323 69.5241 87.2307 69.4086C85.7593 69.2928 84.2955 69.0556 82.8364 68.8147C80.4561 68.4246 78.1677 67.7323 75.9423 66.7601C74.5373 66.146 73.0873 65.644 71.7046 64.9587C69.5521 63.8915 67.5069 62.6641 65.632 61.1585C65.3716 60.9519 64.953 61.0297 64.8471 60.6957C64.6884 60.2101 63.8505 60.4356 63.9506 59.942C64.0929 59.2618 63.4088 59.6222 63.3038 59.249C63.2075 58.9077 62.9203 58.6449 62.4646 58.5819C62.1729 58.546 62.2795 58.1321 62.3041 57.8512C61.5369 58.0295 61.1854 57.3467 60.8466 56.9543C59.7672 55.7029 58.6814 54.4025 57.8802 52.9664C57.3009 51.9284 56.6493 50.8849 56.2428 49.7439C55.8412 48.6299 55.5887 47.4621 55.1547 46.3654C54.852 45.6063 54.9393 44.8222 54.7643 44.0719C54.5907 43.3437 54.6853 42.5694 54.5349 41.8925C54.3185 40.9046 54.8151 40.0809 54.7798 39.153C54.7486 38.2914 55.2436 37.4149 55.5899 36.6229C56.0156 35.6537 56.4687 34.6403 57.0999 33.7739C57.7048 32.9432 58.2275 32.0531 58.9013 31.2538C59.7853 30.1993 60.6162 29.1242 61.7173 28.279C62.2061 27.9004 62.4063 27.2369 62.9784 26.8785C63.6992 26.4356 64.3083 25.8637 65.158 25.583C65.9355 25.3273 66.5187 24.6599 67.328 24.2949C70.3311 22.9469 70.7487 22.554 74.1197 21.9917C74.6166 21.9073 75.1849 22.2219 75.6263 21.7799C78.2276 22.2529 80.9145 22.213 83.4277 23.1856C86.4796 24.3727 89.3246 25.9511 91.952 27.9368C92.6857 28.4931 93.5733 28.8301 94.1616 29.6069C93.5318 27.8839 91.6727 27.4521 90.3622 25.8713C91.8904 26.5286 92.7974 27.3975 93.7507 28.1765C95.0177 29.2133 96.2069 30.318 97.2541 31.6175C97.7303 32.2038 98.3602 32.7326 98.8859 33.3345C99.3557 33.8718 99.2588 34.6633 99.8128 35.1816C100.29 35.6281 100.738 36.1754 101.002 36.7718C101.86 38.7188 102.792 40.6235 103.547 42.6263C104.361 44.777 104.792 46.993 105.173 49.2241C105.422 50.6801 105.621 52.1817 105.295 53.6589C105.16 54.257 105.568 54.9038 105.107 55.4613C105.08 55.497 105.316 55.6915 105.252 55.8881C105.11 56.306 105.536 56.4305 105.592 56.7488C107.293 56.0477 108.856 55.2531 110.438 54.5049C111.63 53.9435 112.661 53.1454 113.838 52.5644C114.998 51.9897 116.049 51.0982 116.977 50.1635C118.337 48.7941 119.757 47.4636 120.872 45.8679C121.961 44.308 122.735 42.5604 123.604 40.8782C123.876 40.3515 123.533 39.6392 124.114 39.2121C124.067 37.469 125.099 35.923 124.847 34.0992C124.697 33.0067 125.074 31.8516 125.04 30.692C124.993 29.0103 124.821 27.3331 124.766 25.6502C124.724 24.2884 124.425 22.9566 124.282 21.6115C124.068 19.6354 123.456 17.6831 122.864 15.7772C122.526 14.6982 122.301 13.5867 121.844 12.5306C121.193 11.0322 120.78 9.42662 119.685 8.16429C119.238 7.64765 118.556 7.41346 118.187 6.75894C117.964 6.36944 117.993 6.05413 118.048 5.68103C118.866 5.98659 119.532 6.63408 120.672 6.75222C120.106 6.35903 120.757 5.56974 119.78 5.38669C119.319 5.2968 119.124 4.43877 118.41 4.4451C118.486 4.10127 118.531 3.88884 118.632 3.45656C118.925 3.5452 119.297 3.5965 119.618 3.76339C119.891 3.90611 120.088 4.27004 120.47 3.72787C119.779 3.52315 119.503 2.92067 119.088 2.35599C119.653 1.95718 120.026 1.41387 120.718 1.40893C120.806 1.17168 120.411 1.06907 120.597 0.801694C120.98 0.867621 121.41 0.795894 121.796 1.02853C122.119 1.21749 122.459 1.3781 122.804 1.55709C122.912 1.10392 122.354 1.00494 122.468 0.600769C123.051 0.803801 123.532 1.09336 123.912 1.63133C124.837 2.94023 125.79 4.24402 126.801 5.4861C127.326 6.12724 127.513 6.91426 127.884 7.61289C128.681 9.11397 129.336 10.7178 129.805 12.3573C130.201 13.7374 130.863 15.058 130.911 16.5301C132.095 19.6112 131.763 22.903 132.172 26.0914C132.27 26.8704 132.145 27.7148 132.066 28.5C131.774 31.4605 131.749 34.4533 131.157 37.3767C130.34 41.4149 129.045 45.291 127.026 48.8658C126.194 50.3344 125.193 51.7183 124.165 53.0767C123.419 54.0628 122.475 54.8947 121.875 56.0061C121.829 56.0959 121.731 56.1567 121.652 56.2332C120.294 57.5854 114.788 62.2971 113.449 62.965C111.999 63.6877 110.663 64.6142 109.186 65.2807C107.791 65.9147 106.358 66.4779 104.946 67.0789C104.85 67.1225 104.77 67.269 104.68 67.2696C102.98 67.2842 101.7 68.2141 100.381 69.3747ZM91.359 59.5244C92.0838 59.4714 92.7463 59.6592 93.4591 59.6308C95.1618 59.5598 96.7786 59.1007 98.4266 58.7947C99.1279 58.6598 99.6132 58.1144 99.5447 57.4356C99.3267 55.1703 99.2013 52.8871 98.4299 50.7116C98.0712 49.6953 97.7677 48.6517 97.427 47.6292C97.0654 46.5382 96.4708 45.5505 96.0132 44.5031C95.5678 43.4924 94.7623 42.6682 94.2841 41.6135C93.6261 40.1666 92.0277 39.4559 91.2568 38.0503C90.4833 38.0178 90.3656 37.1923 89.8452 36.8405C88.7065 36.0664 87.6 35.2443 86.4886 34.4259C84.5795 33.0161 82.4155 32.0349 80.2231 31.299C78.5281 30.7324 76.7446 30.2498 74.8748 30.1884C73.5569 30.1463 72.2608 30.1335 70.9833 30.3682C68.8409 30.7721 66.7356 31.3168 65.0406 32.8455C64.7964 33.0655 64.5328 33.2696 64.2595 33.4506C62.3025 34.72 62.2242 36.4676 62.2806 38.5269C62.3071 39.5848 62.8198 40.5742 62.6128 41.6435C62.8534 41.773 63.3569 41.6063 63.2355 42.1626C63.1607 42.4978 63.3415 42.689 63.5211 42.8888C63.8658 43.2689 63.1076 43.3478 63.3254 43.6797C64.1669 43.7828 64.1994 44.3122 64.01 44.9597C63.8521 44.951 63.7148 44.9496 63.4497 44.9392C64.0263 45.9331 64.704 46.7484 65.1433 47.7408C65.7807 49.1805 67.1506 50.1221 68.2338 51.2166C69.2526 52.2453 70.386 53.2854 71.7479 53.9328C71.7962 53.957 71.7258 54.2272 71.7077 54.3953C72.9877 54.3359 73.9988 55.1317 75.0442 55.6392C76.9705 56.5658 78.8608 57.5049 80.9912 57.8035C81.3203 57.849 81.4141 58.1769 81.6168 58.2356C82.1008 58.3768 82.3435 58.8127 82.757 59.0316C82.9391 58.8906 83.1115 58.757 83.2553 58.6456C83.6496 58.5251 83.7551 58.9902 84.1311 59.0071C84.4431 59.0196 84.6857 58.7469 85.1331 59.0012C85.8054 59.374 86.7089 59.3982 87.5196 59.4096C88.3038 59.4261 89.0279 60.1516 89.8825 59.5435C90.1762 59.3392 90.5252 59.816 90.8798 59.8956C91.0475 59.7657 91.2201 59.632 91.359 59.5244ZM58.5257 48.9307C58.9682 49.8667 59.004 51.0483 59.8414 51.7938C60.022 51.9544 60.0077 52.158 60.0201 52.3872C60.0364 52.6519 61.2733 54.205 61.4027 54.4591C61.7641 55.1651 62.8113 55.2398 62.9502 56.0026C63.1046 56.9075 63.7165 57.2502 64.2791 57.8003C65.6591 59.1501 67.2053 60.1554 69.2227 61.0115C68.7663 60.5022 68.5192 60.1313 68.5774 59.6626C68.2934 59.6977 68.153 59.9451 67.8641 59.7915C67.2866 58.4825 65.907 57.9027 64.9724 56.855C64.0972 55.8767 63.0605 55.0468 62.2737 53.9539C61.0479 52.2536 59.7766 50.6039 58.5257 48.9307Z" fill="#F6D06D"/>
</svg>
