<svg width="171" height="183" viewBox="0 0 171 183" fill="none" xmlns="http://www.w3.org/2000/svg">
<path d="M9.73792 70.1454C6.11125 57.0462 4.11309 43.6951 2.63789 30.2831C3.46899 29.8522 3.25344 30.8007 3.73607 30.848C4.27772 30.6819 3.87647 29.3941 5.10979 29.7666C6.23725 30.1122 6.48085 30.9114 6.68644 31.7765C7.77118 36.3175 7.67779 41.0412 9.1245 45.5593C9.61899 47.1028 10.6246 48.6442 10.1605 50.5947C9.87498 51.7986 11.2618 52.9697 11.3863 54.4465C11.4643 55.3684 11.9256 56.3451 12.0186 57.3825C12.3921 61.5069 13.8512 65.2566 16.3247 68.5981C16.7724 69.2001 16.9909 69.9087 16.4879 70.3871C15.1191 71.6897 14.237 73.5114 11.7418 73.5167C9.92941 73.5207 9.11056 72.7967 8.42363 71.4722C6.77052 68.2813 6.06944 64.802 5.34175 61.3382C4.49174 57.2901 3.9673 53.1788 3.26426 49.113C2.31708 43.6363 1.80986 38.1238 1.09979 32.6302C1.03414 32.1083 0.63924 31.25 1.40306 31.1043C1.97568 30.9993 2.065 31.8709 2.1442 32.3807C2.64523 35.5943 2.99068 38.825 3.28433 42.0613C3.56788 45.1697 4.23955 48.248 4.89503 51.3085C5.95732 56.2561 6.73284 61.2648 8.06929 66.1465C8.44686 67.5519 8.84204 68.9499 9.73792 70.1454Z" fill="#F6D06D"/>
<path d="M37.8844 115.594C37.6458 117.038 36.0594 116.527 35.5942 116.553C34.328 116.621 33.7275 118.241 32.8152 117.809C31.4347 117.148 29.6985 117.093 28.816 115.346C27.1087 111.969 25.9354 108.409 24.6485 104.885C23.7162 102.328 22.7315 99.7853 22.3011 97.0812C22.1102 95.8727 22.0725 94.6896 22.5688 93.5565C23.0841 92.3905 23.8188 91.6824 25.2977 91.6519C26.3898 91.6259 27.5047 91.2656 28.6327 91.3691C29.7093 91.4697 30.7013 91.7018 30.776 93.0697C30.8304 94.0286 31.5795 94.6936 31.9325 95.5327C33.3432 98.9144 35.4969 101.984 36.1827 105.662C36.6892 108.387 37.6016 110.994 38.4658 113.62C38.7207 114.369 39.0728 115.225 37.8844 115.594Z" fill="#F6D06D"/>
<path d="M74.588 48.372C74.7936 49.0034 74.9257 49.4099 75.0548 49.795C75.3778 49.855 75.408 49.6186 75.5206 49.4463C75.7462 49.0931 75.3279 48.4247 75.9087 48.3286C76.6066 48.2092 76.3367 49.0528 76.6679 49.3554C77.2567 49.0346 76.8493 48.3243 77.2305 47.954C78.6945 48.3475 79.058 49.3869 79.2455 50.7353C79.756 54.3998 80.5834 58.0006 82.0513 61.4364C82.6066 62.7325 81.7609 64.3608 82.7786 65.529C84.0705 67.0179 84.5291 68.8993 84.7041 70.6295C85.0028 73.6197 86.6409 75.994 87.6185 78.664C87.8906 79.4137 88.8169 79.8249 88.6748 80.7647C88.6323 81.0683 88.6518 81.6472 88.2795 81.4699C87.0119 80.8618 86.6562 82.0152 85.8693 82.423C84.4102 83.1854 83.1271 82.2365 82.0868 81.3221C80.4487 79.8824 79.5138 77.9157 78.8778 75.9015C76.4392 68.1943 74.6053 60.3456 73.8391 52.2913C73.7221 51.0656 73.381 49.7003 74.588 48.372Z" fill="#F6D06D"/>
<path d="M38.2126 41.4356C38.7102 42.5331 39.2492 43.6584 39.735 44.8148C42.8014 52.1183 45.0546 59.6838 47.0066 67.3392C47.7547 70.2772 48.272 73.275 49.3949 76.1143C49.7191 76.9306 49.7412 77.773 48.4184 77.778C48.1092 77.7783 47.787 77.935 47.4839 78.0588C45.472 78.8763 43.8277 78.2478 42.8857 76.2552C41.9167 74.206 41.5493 71.9939 41.1422 69.8008C39.4433 60.5191 37.4219 51.3219 34.173 42.4238C33.7629 41.297 33.8622 41.2089 35.0244 41.3142C35.1483 41.3251 35.3238 41.2581 35.4105 41.1651C36.4363 40.0862 37.2642 40.8022 38.2126 41.4356Z" fill="#F6D06D"/>
<path d="M57.4802 136.953C58.7026 140.324 58.7575 143.684 59.815 146.774C60.8877 149.9 61.6799 153.129 63.2514 156.086C62.3884 153.363 61.5208 150.644 60.6623 147.916C59.6842 144.787 59.1187 141.575 58.519 138.36C58.2171 136.75 58.9841 136.159 60.2332 136.09C61.4521 136.025 62.4506 136.839 62.3818 138.084C62.2415 140.626 63.0326 143.018 64.0618 145.143C65.8545 148.839 66.8023 152.905 69.1188 156.369C69.6545 157.167 69.6816 158.231 70.2901 159.109C70.9741 160.098 71.6125 160.902 72.7997 161.331C73.4902 161.581 74.693 161.65 74.6188 162.683C74.5549 163.529 74.1735 164.447 73.0457 164.731C72.6146 164.839 72.2792 165.314 71.9054 165.629C69.7004 167.456 67.1855 167.197 65.5668 164.781C63.4013 161.537 62.061 157.891 60.8078 154.225C59.1705 149.425 57.7254 144.567 57.1547 139.506C57.0629 138.757 56.8809 138.008 57.4802 136.953Z" fill="#F6D06D"/>
<path d="M140.345 112.198C137.442 114.765 135.429 114.286 134.256 111.032C133.34 108.493 133.253 105.799 133.124 103.149C132.817 96.9595 132.722 90.7598 132.983 84.5581C133.049 83.0406 133.752 81.8933 134.471 80.7085C134.725 80.2974 135.307 79.4026 135.547 79.73C136.038 80.3981 137.163 80.3994 137.194 81.5482C137.348 86.6804 137.956 91.7819 138.429 96.8889C138.636 99.1391 138.669 101.414 138.936 103.659C139.114 105.177 139.356 106.783 141.158 107.441C141.376 107.521 141.688 107.946 141.64 108.037C140.833 109.429 141.235 111.248 140.345 112.198Z" fill="#F6D06D"/>
<path d="M111.13 20.9417C111.119 17.9628 110.223 15.1315 110.201 12.186C110.197 11.3191 110.332 10.4341 110.229 9.58307C110.053 8.17576 111.28 8.28029 111.933 8.19239C112.565 8.10757 113.308 8.55991 113.414 9.52158C113.856 13.4245 114.83 17.2499 116.073 20.9328C116.959 23.5553 117.084 26.4257 118.791 28.8759C119.435 29.803 119.732 31.2721 120.258 32.4901C120.962 34.113 119.151 33.8579 118.434 34.4139C118.317 34.5011 117.943 34.2769 117.848 34.361C117.437 34.7339 118.144 36 116.997 35.7043C115.443 35.3016 113.892 35.0012 113.038 33.1323C111.677 30.1654 110.912 27.0735 110.291 23.9341C109.448 19.6697 108.386 15.4231 108.694 11.0168C108.716 10.6909 108.713 10.3636 108.756 10.0431C108.805 9.71003 108.945 9.34372 109.331 9.35607C109.824 9.36998 109.959 9.79792 109.895 10.1938C109.358 13.6189 110.492 16.8752 110.948 20.2011C110.969 20.4487 111.062 20.6959 111.13 20.9417Z" fill="#F6D06D"/>
<path d="M98.5388 106.267C98.6357 105.134 98.8706 103.991 98.7908 102.869C98.7042 101.56 99.2277 100.79 100.389 100.364C101.082 100.112 101.451 100.736 101.709 101.119C102.368 102.098 102.455 103.229 101.886 104.29C101.751 104.546 101.307 104.666 101.639 105.024C103.25 106.794 102.533 109.13 103.147 111.147C103.332 111.765 103.325 112.521 103.454 113.212C103.841 115.221 104.474 117.214 103.244 119.199C102.956 119.664 102.653 120.561 103.395 120.967C105.668 122.19 105.484 124.521 105.967 126.493C106.763 129.735 107.081 133.079 108.011 136.299C108.12 136.662 108.362 137.091 107.925 137.318C107.376 137.603 107.616 136.69 107.098 136.73C106.81 137.517 107.035 138.736 105.416 138.495C104.841 138.409 104.941 139.328 105.062 139.857C105.151 140.261 105.219 140.66 104.698 140.768C104.073 140.895 104.198 140.333 104.109 140.009C102.468 134.253 101.553 128.362 100.776 122.444C100.093 117.232 99.4106 112.02 98.7233 106.812C98.6647 106.631 98.5974 106.449 98.5388 106.267Z" fill="#F6D06D"/>
<path d="M112.929 73.6601C112.614 74.1656 112.375 71.7267 112.027 73.6623C112.016 73.7127 111.994 73.805 111.963 73.8076C110.662 73.8987 110.017 74.5351 109.968 75.8751C109.953 76.2269 107.094 75.9109 106.637 75.4698C105.952 74.804 105.526 73.9737 105.279 73.0809C103.888 68.0136 103.754 62.8951 104.777 57.7501C105.277 55.2279 107.011 53.9153 109.405 53.3394C110.689 53.0307 111.186 53.5887 111.092 54.9134C110.989 56.3099 110.962 57.719 111.005 59.1234C111.053 60.7405 111.313 62.3393 111.244 63.9798C111.155 66.1375 112.239 68.1165 112.651 70.2164C112.879 71.3759 113.17 72.4962 112.929 73.6601ZM107.357 72.8491C106.828 69.532 106.307 66.2069 106.02 62.8435C105.447 65.6888 106.063 70.5486 107.357 72.8491Z" fill="#F6D06D"/>
<path d="M150.81 43.8499C151.18 44.6176 151.408 45.0845 151.747 45.7911C151.832 45.3369 151.938 45.1217 151.887 44.966C151.456 43.6723 152.428 43.2448 153.296 43.0155C154.224 42.7725 155.05 43.3525 155.36 44.2062C155.871 45.5977 156.307 47.0318 156.57 48.4906C156.932 50.4985 157.144 52.5578 157.868 54.4536C158.627 56.432 159.086 58.6109 161.009 60.0235C161.921 60.6888 161.664 61.7796 160.606 62.1133C160.029 62.2945 159.684 62.6413 159.293 63.0195C156.842 65.4192 153.883 64.7962 152.688 61.4898C150.996 56.8268 150.648 51.922 150.468 47.0221C150.438 46.0815 150.102 45.0904 150.81 43.8499Z" fill="#F6D06D"/>
<path d="M105.604 180.194C106.416 181.117 107.594 180.87 108.362 181.503C107.362 182.664 106.098 182.689 104.708 181.658C103.202 180.535 102.494 178.891 102.179 177.213C101.509 173.633 100.483 170.128 100.67 166.361C100.743 164.886 100.134 163.145 100.035 161.526C99.7531 156.909 99.6349 152.284 99.4693 147.661C99.4347 146.733 99.5628 145.814 99.8652 144.925C100.015 144.47 100.29 144.154 100.794 144.126C101.337 144.096 101.588 144.445 101.691 144.909C101.846 145.602 102.053 146.288 102.092 146.987C102.512 153.447 102.79 159.92 103.353 166.374C103.57 168.888 104.243 171.402 105.26 173.747C105.729 174.83 106.861 175.477 107.754 176.265C107.995 176.478 108.625 176.508 108.362 177.063C107.857 178.132 107.478 179.08 109.151 179.497C109.532 179.594 109.275 180.048 109.017 180.285C108.56 180.706 108.024 181.174 107.451 180.65C106.937 180.172 106.396 180.168 105.604 180.194Z" fill="#F6D06D"/>
<path d="M68.8551 100.566C68.4187 100.615 68.2373 100.711 68.3749 101.097C68.8732 102.492 69.4803 103.863 69.7835 105.294C69.9674 106.162 71.1041 107.273 69.5147 108.062C69.2629 108.189 69.5342 108.408 69.7586 108.466C70.2789 108.609 70.3661 108.975 70.3863 109.465C70.422 110.295 70.7993 110.927 71.4936 111.496C72.7842 112.543 72.4691 113.894 70.8915 114.391C70.7034 114.453 70.2779 114.46 70.3412 114.557C71.8493 116.796 68.3818 115.126 68.8095 116.479C68.2284 116.503 67.7592 116.291 67.33 115.898C66.3538 114.991 66.0033 113.795 65.7231 112.569C64.6661 107.915 64.9339 103.222 65.3215 98.5354C65.4139 97.406 66.3202 96.5458 66.909 95.6047C67.2531 95.0497 67.8852 95.1901 68.3932 95.4003C69.0943 95.6888 68.8765 95.9787 68.3351 96.2171C69.1026 97.1721 69.0728 98.3346 69.2039 99.459C69.2759 99.943 69.4679 100.433 68.8551 100.566Z" fill="#F6D06D"/>
<path d="M66.055 33.1302C66.1592 33.9643 67.2099 34.6117 66.1459 35.6843C65.3731 36.4583 65.17 35.9375 64.7936 35.522C64.1458 36.2093 65.1791 36.7835 64.7057 37.5014C63.4365 36.6128 62.8851 35.1682 61.8595 34.144C61.8402 34.1047 61.8123 34.065 61.7799 34.0293C61.9795 32.5148 61.1789 31.2266 60.7959 29.8421C60.6384 29.2728 60.2856 28.7396 60.2057 28.166C59.5763 23.5434 58.3748 19.0174 57.9754 14.352C57.6664 10.6942 57.0382 7.06164 56.9149 3.38413C56.8887 2.53723 56.7683 1.68521 57.1869 0.403503C57.6105 2.21934 57.9295 3.59618 58.2526 4.97747C58.2338 4.92971 58.2064 4.88149 58.1875 4.83374C57.7917 7.10237 58.7303 9.23494 58.6744 11.4922C59.3713 11.4704 59.177 11.0223 59.3347 10.8099C59.5991 10.4545 59.9845 10.4754 60.3659 10.6447C60.5546 10.7271 60.8546 10.8156 60.6904 11.0658C59.9418 12.181 60.9011 12.7725 61.4442 13.4349C62.0481 14.1643 62.0124 14.8889 61.7443 15.6986C61.3281 16.938 61.4371 18.074 62.4588 19.013C62.5081 19.364 62.5574 19.7151 62.6022 20.0701C62.0764 21.3503 62.7393 24.7426 63.6801 25.5922C63.1716 26.0915 63.866 27.2804 62.6457 27.3717C61.8947 26.9742 61.5177 26.8009 61.6302 28.0306C61.7677 29.5845 63.026 30.7487 62.9254 32.3365C62.9123 32.5737 63.0833 32.7444 63.352 32.6994C63.7032 32.6377 63.8179 32.3507 63.6557 32.0998C62.9466 31.0206 63.1066 29.6781 62.5233 28.576C62.2786 28.1081 62.083 27.6854 62.6489 27.3124C64.5381 28.7953 64.2632 31.2064 65.1541 33.1155C65.2689 33.3681 64.0378 33.5013 64.9117 33.9267C65.326 34.1232 65.9729 33.8395 66.055 33.1302ZM60.3216 18.2899C60.1535 18.302 59.9848 18.3227 59.8167 18.3348C60.0599 19.7628 60.2991 21.1862 60.5599 22.6066C60.5893 22.7739 60.6369 23.0782 60.9363 23.0221C61.1446 22.9824 61.3996 22.7965 61.291 22.5867C60.6095 21.2413 61.0162 19.6318 60.3216 18.2899Z" fill="#F6D06D"/>
<path d="M167.36 89.3506C167.731 90.2544 168.479 90.6942 169.235 91.0962C169.635 91.3048 169.931 91.461 169.674 91.9229C169.436 92.3434 169.009 92.2949 168.653 92.1439C167.742 91.759 167.151 90.9538 166.766 90.1597C165.288 87.127 164.717 83.8714 164.622 80.5226C164.596 79.5312 164.704 78.5089 164.516 77.5471C164.17 75.7992 165.049 74.4319 165.84 73.0853C166.206 72.455 166.933 73.0594 167.377 73.3341C167.634 73.4925 167.844 74.0477 167.768 74.3409C167.001 77.1886 168.727 79.6866 168.924 82.4121C168.99 83.3122 170.151 84.2162 170.258 85.3946C170.335 86.325 170.741 87.2221 170.194 88.1825C169.88 88.7348 170.75 89.0113 170.849 89.535C170.903 89.8014 171.03 90.0758 170.833 90.2989C170.636 90.5219 170.182 90.5866 170.097 90.412C169.501 89.2242 168.149 89.9881 167.36 89.3506Z" fill="#F6D06D"/>
<path d="M98.5388 106.267C98.6019 106.445 98.6646 106.631 98.7278 106.808C98.3849 109.675 98.6211 112.551 98.8939 115.387C99.2669 119.286 99.9199 123.171 100.656 127.022C101.279 130.28 101.355 133.645 102.581 136.804C103.077 138.088 103.256 139.5 102.782 141.098C101.226 139.883 101.318 138.134 100.932 136.647C99.9204 132.726 99.4728 128.699 98.9941 124.693C98.1267 117.461 96.9405 110.247 97.3839 102.916C97.4114 102.497 97.3167 102.033 98.0038 101.722C98.704 103.196 98.1297 104.809 98.5388 106.267Z" fill="#F6D06D"/>
<path d="M130.877 46.9534C130.714 47.7348 132.141 48.1773 131.258 48.6777C130.509 49.1088 130.047 48.1407 129.768 47.518C128.041 43.6518 127.97 39.718 129.463 35.7752C129.689 35.1799 130.004 34.2962 130.96 34.5688C131.809 34.8144 131.576 35.626 131.576 36.2463C131.596 38.8391 131.711 41.4115 133.2 43.6927C133.572 44.2652 133.327 44.8128 133.061 45.355C132.969 45.5412 132.909 45.7716 132.91 45.9799C132.931 47.6295 132.401 48.2764 130.877 46.9534Z" fill="#F6D06D"/>
<path d="M56.9014 15.6989C58.1178 17.3111 57.5756 19.2744 57.9281 21.0567C58.186 22.375 58.6479 23.7298 58.4369 25.1417C58.383 25.4956 58.6417 25.943 58.129 26.0512C57.7204 26.1396 57.391 25.8839 57.3126 25.4378C56.848 22.7318 56.3355 20.0359 56.2212 17.2851C56.1927 16.6335 56.6925 16.2144 56.9703 15.6941L56.9014 15.6989Z" fill="#F6D06D"/>
<path d="M56.9648 15.6995C56.5118 15.5051 56.0519 15.357 55.9919 14.7334C55.6421 11.1924 55.2364 7.65255 55.322 4.07981C55.3243 3.80377 55.0859 3.37876 55.6088 3.3178C55.9415 3.28056 56.0902 3.54353 56.1081 3.8419C56.3469 7.68285 56.6763 11.516 57.191 15.3378C57.2065 15.4449 57.0057 15.5827 56.9044 15.7047C56.9004 15.7002 56.9648 15.6995 56.9648 15.6995Z" fill="#F6D06D"/>
<path d="M61.772 34.028C61.7998 34.0678 61.8277 34.1075 61.8515 34.1428C62.1286 34.88 62.0511 35.7383 62.6827 36.3545C62.9067 36.5748 63.2338 36.8729 62.8528 37.1625C62.5079 37.42 62.2859 37.0851 62.0904 36.8154C60.3312 34.3793 59.2163 31.6296 58.2155 28.8351C58.0442 28.3585 58.1291 27.5983 58.6834 27.4371C59.3382 27.2431 59.3993 28.0026 59.4756 28.4104C59.8488 30.4402 60.8237 32.2263 61.772 34.028Z" fill="#F6D06D"/>
<path d="M58.1757 4.82757C58.2031 4.87579 58.2219 4.92355 58.2408 4.9713C58.2865 3.98808 59.0519 3.03527 58.2635 1.99421C58.1313 1.82137 58.016 0.876179 58.7547 0.873625C59.4552 0.864752 59.3631 1.59906 59.3316 2.01373C59.1764 3.89174 59.3427 5.70216 60.2052 7.57995C59.395 7.47668 58.5368 7.69793 58.8205 6.44717C58.9698 5.76695 58.3251 5.38797 58.1757 4.82757Z" fill="#F6D06D"/>
<path d="M62.5896 20.0654C62.5403 19.7144 62.491 19.3633 62.4462 19.0082C62.5013 18.7095 62.5524 18.4064 62.6075 18.1078C62.7112 18.0964 62.8109 18.0805 62.9146 18.0691C63.1629 19.1702 63.4073 20.2668 63.6602 21.3639C63.5456 21.4172 63.4314 21.462 63.3168 21.5153C63.0686 21.0345 62.8248 20.5497 62.5896 20.0654Z" fill="#F6D06D"/>
<path d="M65.9634 32.0752C64.9631 31.4476 65.0713 30.3445 64.8135 29.4129C64.5548 28.4982 64.3706 27.5578 64.1597 26.6329C64.569 26.842 64.7929 27.143 64.8915 27.6114C65.2216 29.0993 65.599 30.5855 65.9634 32.0752Z" fill="#F6D06D"/>
</svg>
