<svg width="111" height="141" viewBox="0 0 111 141" fill="none" xmlns="http://www.w3.org/2000/svg">
<path d="M80.1741 20.2684C79.6942 21.1127 79.2044 21.7558 78.9633 22.4862C78.8319 22.8911 78.7975 23.2295 78.3351 23.1635C76.6248 22.915 75.5486 24.3456 74.0594 24.7091C72.2783 25.144 71.4694 26.4614 70.6276 28.0323C69.2216 30.6523 69.1638 33.5876 68.111 36.28C67.5521 37.7062 67.1999 39.3221 66.9646 40.8768C66.5313 43.7692 65.0018 46.1577 63.6634 48.6607C62.7432 50.3883 62.3419 52.3174 60.6833 53.7282C58.1449 55.8984 55.2217 56.9237 52.0219 57.4359C51.0923 57.5862 50.6342 57.0815 50.35 56.0414C50.1195 57.4201 49.5352 57.4068 48.4598 57.2489C46.1145 56.9098 43.7569 56.8015 42.0216 54.9007C41.9112 54.7792 41.6825 54.6972 41.521 54.7111C38.5445 55.0343 36.1004 53.5269 33.5758 52.3954C32.7376 52.0239 32.23 51.7543 31.2392 52.236C30.2974 52.6952 29.1504 53.2772 27.8702 52.6322C26.9495 52.1678 27.1437 53.4607 26.5117 53.7822C20.2121 56.9751 16.961 62.4601 14.7582 68.8901C13.8047 71.6656 13.0615 74.5112 12.43 77.3155C11.8599 79.8665 11.8478 82.6863 12.2779 85.3824C12.4006 86.1456 12.5943 86.8851 11.9944 87.4847C11.2868 88.1905 10.7178 87.3017 10.1531 87.1376C8.08786 86.5324 7.6167 85.0454 7.40518 82.918C7.19496 80.8123 6.62038 78.702 6.86911 76.5692C7.49371 71.1742 7.78708 65.7054 10.3728 60.7176C13.3514 54.9688 17.1571 50.1347 23.3743 47.4307C25.0987 46.6757 26.8227 45.6582 28.5784 46.0038C31.293 46.5403 34.0967 46.8805 36.6415 48.2018C39.2028 49.5417 41.9557 50.3863 44.9051 50.2687C50.7553 50.0278 54.1176 46.3527 56.4051 41.6191C58.7395 36.7916 59.5549 31.433 61.28 26.394C63.5733 19.683 67.986 15.9678 74.8327 15.5943C77.4601 15.4479 80.1361 15.889 82.6347 17.0632C85.7266 18.5085 88.8449 19.7764 92.455 19.5222C95.5892 19.3048 99.3019 17.113 100.311 14.1607C101.437 10.8779 102.392 7.5424 103.439 4.23837C103.811 3.05322 104.387 1.95798 105.135 0.972004C105.635 0.317483 106.49 0.0478713 107.152 0.514477C107.898 1.03903 107.298 1.56057 106.789 1.95737C106.407 2.25331 106.427 2.57768 106.74 2.90208C107.064 3.24327 107.318 3.20443 107.655 2.83296C108.57 1.81327 109.006 2.24111 109.14 3.38338C109.241 4.2542 110.295 4.30702 110.532 5.41283C110.955 7.36928 110.66 9.06428 110.169 10.849C110.121 11.0276 110.122 11.2336 110.037 11.3884C109.492 12.3429 108.409 15.5168 108.375 16.8556C108.351 17.7359 107.545 18.3021 107.669 19.2215C107.707 19.5296 107.257 19.6299 106.965 19.3607C106.788 19.1932 106.608 18.9043 106.493 19.356C105.689 22.3983 105.305 23.1263 103.936 24.1033C102.567 25.0804 100.817 25.2965 99.4685 26.3569C99.0308 26.7018 98.5527 26.1918 98.2408 25.7827C98.0174 25.4964 97.8365 25.0795 97.3603 25.3289C97.0094 25.5124 96.6845 25.9439 96.8375 26.2257C97.4586 27.3979 96.6882 27.2783 95.9667 27.2428C94.4064 27.1547 92.6728 27.4675 91.3327 26.8847C88.919 25.8465 86.3976 25.2053 83.953 24.3078C83.0468 23.975 82.1596 23.5194 81.9568 22.3378C81.7915 21.4144 80.7908 21.1131 80.1741 20.2684ZM24.5676 48.8186C19.6692 50.1493 14.3053 54.9668 13.5585 58.698C15.1769 56.8012 16.7899 54.9244 18.6746 53.2615C20.532 51.6198 22.7272 50.4507 24.5676 48.8186ZM102.226 16.5064C101.849 17.3143 101.32 17.734 100.494 17.607C100.095 17.5437 99.8702 17.5548 99.5846 17.947C98.5834 19.3126 97.1158 19.8875 95.4742 20.1254C95.1459 20.1729 94.5742 20.1134 94.676 20.6369C94.7658 21.0721 95.1906 21.1708 95.7143 21.09C97.8511 20.7708 99.5643 19.5022 101.414 18.5749C101.838 18.3611 102.977 17.7274 102.226 16.5064ZM71.4667 18.8072C71.4903 18.5085 71.2724 18.3868 70.9032 18.3738C70.0202 18.3521 66.584 20.5818 66.2383 21.4334C66.1788 21.5737 66.1913 21.8181 66.275 21.9325C66.4472 22.1698 66.6693 22.1437 66.8931 21.9265C68.0218 20.8572 69.4828 20.2806 70.785 19.4703C71.043 19.3118 71.3763 19.2726 71.4667 18.8072ZM52.2875 50.0871C53.9324 49.7578 54.9094 48.7193 55.381 47.1918C54.3448 48.1579 53.3171 49.1192 52.2875 50.0871Z" fill="#185951"/>
<path d="M74.1016 72.7949C73.6217 73.6392 73.1319 74.2823 72.8908 75.0127C72.7595 75.4176 72.7251 75.756 72.2627 75.69C70.5523 75.4415 69.4762 76.8721 67.9869 77.2356C66.2059 77.6705 65.397 78.9879 64.5551 80.5589C63.1492 83.1788 63.0914 86.1141 62.0386 88.8065C61.4797 90.2327 61.1274 91.8486 60.8921 93.4033C60.4589 96.2957 58.9293 98.6842 57.5909 101.187C56.6708 102.915 56.2694 104.844 54.6108 106.255C52.0724 108.425 49.1493 109.45 45.9495 109.962C45.0198 110.113 44.5618 109.608 44.2776 108.568C44.047 109.947 43.4628 109.933 42.3873 109.775C40.0421 109.436 37.6844 109.328 35.9491 107.427C35.8387 107.306 35.61 107.224 35.4486 107.238C32.4721 107.561 30.028 106.053 27.5034 104.922C26.6651 104.55 26.1575 104.281 25.1667 104.762C24.225 105.222 23.0779 105.804 21.7977 105.159C20.8771 104.694 21.0713 105.987 20.4392 106.309C14.1397 109.502 10.8886 114.987 8.68577 121.417C7.73226 124.192 6.98909 127.038 6.35753 129.842C5.78747 132.393 5.7754 135.213 6.20542 137.909C6.32816 138.672 6.52186 139.412 5.92195 140.011C5.2144 140.717 4.6454 139.828 4.08062 139.664C2.01542 139.059 1.54426 137.572 1.33274 135.445C1.12252 133.339 0.547939 131.229 0.79667 129.096C1.42128 123.701 1.71464 118.232 4.30041 113.244C7.27897 107.495 11.0847 102.661 17.3018 99.9572C19.0263 99.2022 20.7502 98.1847 22.5059 98.5304C25.2206 99.0668 28.0242 99.4071 30.569 100.728C33.1303 102.068 35.8833 102.913 38.8327 102.795C44.6828 102.554 48.0452 98.8793 50.3326 94.1456C52.667 89.3181 53.4824 83.9595 55.2076 78.9205C57.5009 72.2095 61.9135 68.4943 68.7602 68.1208C71.3877 67.9744 74.0637 68.4155 76.5623 69.5897C79.6541 71.035 82.7725 72.3029 86.3826 72.0487C89.5168 71.8313 93.2295 69.6395 94.2381 66.6872C95.3651 63.4044 96.3199 60.0689 97.3666 56.7649C97.7382 55.5797 98.3148 54.4845 99.0625 53.4985C99.5626 52.844 100.417 52.5744 101.079 53.041C101.826 53.5655 101.225 54.0871 100.716 54.4839C100.335 54.7798 100.355 55.1042 100.668 55.4286C100.991 55.7698 101.246 55.7309 101.583 55.3595C102.497 54.3398 102.933 54.7676 103.068 55.9099C103.169 56.7807 104.222 56.8335 104.46 57.9393C104.883 59.8958 104.588 61.5908 104.097 63.3755C104.048 63.5541 104.05 63.7602 103.965 63.9149C103.419 64.8694 102.336 68.0433 102.303 69.3821C102.279 70.2624 101.473 70.8286 101.596 71.748C101.635 72.0561 101.185 72.1564 100.892 71.8872C100.715 71.7197 100.536 71.4308 100.42 71.8825C99.6166 74.9248 99.2327 75.6528 97.8638 76.6298C96.4949 77.6069 94.7446 77.823 93.396 78.8834C92.9584 79.2283 92.4803 78.7183 92.1683 78.3092C91.9449 78.0229 91.7641 77.606 91.2878 77.8554C90.937 78.0389 90.6121 78.4705 90.765 78.7522C91.3861 79.9244 90.6157 79.8048 89.8942 79.7693C88.3339 79.6812 86.6004 79.9941 85.2603 79.4112C82.8466 78.373 80.3252 77.7318 77.8805 76.8343C76.9744 76.5015 76.0872 76.046 75.8844 74.8643C75.7191 73.9409 74.7184 73.6397 74.1016 72.7949ZM18.4952 101.345C13.5967 102.676 8.23286 107.493 7.48607 111.224C9.10444 109.328 10.7175 107.451 12.6022 105.788C14.4596 104.146 16.6547 102.977 18.4952 101.345ZM96.1538 69.033C95.777 69.8408 95.2473 70.2606 94.4216 70.1335C94.023 70.0702 93.7978 70.0813 93.5122 70.4736C92.511 71.8391 91.0433 72.414 89.4018 72.6519C89.0735 72.6995 88.5018 72.6399 88.6035 73.1634C88.6933 73.5986 89.1182 73.6973 89.6419 73.6165C91.7786 73.2973 93.4918 72.0287 95.3419 71.1014C95.7655 70.8876 96.905 70.2539 96.1538 69.033ZM65.3942 71.3337C65.4179 71.035 65.2 70.9133 64.8307 70.9003C63.9478 70.8786 60.5115 73.1084 60.1659 73.9599C60.1063 74.1002 60.1189 74.3446 60.2025 74.459C60.3747 74.6963 60.5968 74.6702 60.8206 74.453C61.9493 73.3838 63.4103 72.8071 64.7125 71.9968C64.9706 71.8383 65.3038 71.7991 65.3942 71.3337ZM46.2151 102.614C47.8599 102.284 48.8369 101.246 49.3085 99.7184C48.2723 100.684 47.2446 101.646 46.2151 102.614Z" fill="#185951"/>
</svg>
