<svg width="72" height="116" viewBox="0 0 72 116" fill="none" xmlns="http://www.w3.org/2000/svg">
<path d="M59.1776 108.914C58.6583 112.207 58.3691 112.687 55.3324 113.494C53.755 113.914 52.0986 114.014 50.4817 114.287C50.2122 114.334 49.739 114.547 49.7455 114.647C49.969 116.727 48.4901 115.747 47.7934 115.647C45.506 115.313 43.2056 114.913 40.9774 114.294C39.8994 113.994 38.9266 113.507 38.3351 112.067C37.6909 110.48 36.0543 109.321 34.9172 107.921C34.5426 107.461 34.1087 106.761 34.2073 106.274C34.2928 105.867 35.0947 105.594 35.5942 105.288C35.9097 105.094 36.2581 104.961 36.5867 104.794C36.2515 104.628 35.9097 104.468 35.5745 104.294C35.1407 104.068 34.7134 103.821 34.2796 103.588C34.5754 103.088 34.812 102.541 35.1801 102.101C35.3905 101.854 35.8111 101.641 36.1266 101.648C38.5454 101.708 39.4196 99.9613 40.0243 98.0947C41.398 93.8551 42.5943 89.5621 43.968 85.329C44.3361 84.1891 44.8356 82.8626 45.6967 82.1693C47.2479 80.9294 49.2394 81.6561 50.5803 83.5626C53.5775 87.8356 55.4442 92.6685 56.8771 97.6348C57.9484 101.301 58.4348 105.141 59.1776 108.914Z" fill="#F6D06D"/>
<path d="M10.4075 78.5297C14.338 77.983 18.262 77.4364 22.1926 76.8898C22.232 76.9898 22.2715 77.0831 22.3175 77.1831C21.1475 77.5897 20.0104 78.1297 18.8141 78.3763C14.338 79.2829 9.81593 79.7162 5.30696 78.7163C4.56423 78.5497 3.97267 77.6431 3.32853 77.0565C3.17079 76.9098 3.13135 76.5431 2.96703 76.4898C0.725691 75.7365 0.600806 73.5234 0.173572 71.7969C-0.214226 70.2436 0.127562 68.4438 0.42334 66.8039C0.541651 66.1506 1.27781 65.3973 1.92195 65.0973C4.36704 63.9441 5.08348 61.651 5.92481 59.3845C7.05533 56.3314 8.18586 53.2716 9.40841 50.2518C10.4798 47.6053 13.7728 47.2587 15.3831 49.6319C19.7212 56.0114 22.3043 63.1042 23.494 70.7303C23.6123 71.5036 23.6057 72.2968 23.5795 73.0834C23.54 74.3966 23.0865 75.4365 21.647 75.7365C18.5052 76.3964 15.3634 77.0831 12.2216 77.7363C11.5972 77.863 10.9596 77.8897 10.3286 77.9697C10.3549 78.1564 10.3812 78.343 10.4075 78.5297Z" fill="#F6D06D"/>
<path d="M31.1905 27.1735C30.9933 27.7268 30.875 28.0735 30.737 28.4668C30.5726 28.3068 30.4215 28.2268 30.4149 28.1468C30.3689 27.0203 30.3755 25.8803 30.2834 24.7604C30.2571 24.4671 29.9417 24.1938 29.7379 23.9271C29.475 23.5871 29.1858 23.2672 28.9097 22.9339C29.2515 22.6672 29.5867 22.3806 29.9482 22.1473C30.0863 22.0606 30.336 22.1473 30.4675 22.054C30.875 21.7607 31.2562 21.414 31.644 21.094C31.2694 20.854 30.9079 20.5674 30.5069 20.3941C30.1323 20.2275 29.7116 20.1808 29.1595 20.0408C29.8956 19.2008 29.9614 17.6343 31.7229 18.2676C31.9069 18.3342 32.4459 17.8543 32.5642 17.5343C33.3661 15.3611 34.1943 13.188 34.8055 10.9548C35.0882 9.92155 34.8121 8.74834 34.9304 7.65509C35.1145 5.98189 35.4037 4.32194 35.6732 2.66207C35.8572 1.52882 38.9793 -0.424357 39.9389 0.082271C40.5371 0.39558 41.03 0.988917 41.4507 1.54887C45.5521 7.04179 47.4057 13.4746 48.7597 20.0741C49.1935 22.1872 49.3184 24.3805 49.417 26.547C49.4958 28.2135 48.7334 29.4201 47.0047 29.8734C45.8676 30.1733 44.7634 30.62 43.6394 30.98C43.1005 31.1533 41.9502 30.8533 42.8967 32.0599C42.5944 32.1399 42.246 32.3665 42.0094 32.2798C40.1493 31.5732 38.2957 30.8266 36.4619 30.0534C35.8901 29.8134 35.4431 29.2201 34.9107 30.1933C34.7464 30.4866 33.9577 30.5133 33.4647 30.48C33.353 30.4733 33.3924 29.6534 33.1689 29.3601C32.5971 28.6068 31.9201 27.9535 31.1905 27.1735ZM46.2357 29.0067C46.216 28.8134 46.2029 28.6201 46.1831 28.4268C44.9935 28.5268 43.8038 28.6068 42.6207 28.7601C42.4563 28.7801 42.338 29.1467 42.1934 29.3534C42.3709 29.4467 42.5615 29.64 42.7192 29.6134C43.8958 29.4334 45.0658 29.2134 46.2357 29.0067Z" fill="#F6D06D"/>
<path d="M53.4922 51.725C53.1833 51.4516 53.111 51.365 53.0255 51.3117C52.3683 50.925 51.6978 50.5383 51.0405 50.1583C51.6584 49.4117 52.1842 48.1385 52.9007 48.0185C55.4444 47.5786 56.1674 45.7387 56.8115 43.6922C57.7514 40.6991 58.5993 37.6726 59.7167 34.7462C60.0716 33.8196 61.0707 32.6597 61.9055 32.5397C62.9505 32.3931 64.6989 32.873 65.1524 33.6663C66.8022 36.5461 68.2745 39.5926 69.359 42.7323C70.4699 45.9587 71.16 49.3585 71.791 52.7249C72.1131 54.4314 72.0013 56.2579 71.8633 58.0111C71.8239 58.5511 71.1403 59.291 70.5947 59.491C68.59 60.2242 66.5262 60.7643 64.4886 61.3775C64.6923 61.6109 64.9815 61.9508 65.2773 62.2841C65.0341 62.4108 64.7318 62.7041 64.5609 62.6441C63.989 62.4308 63.4698 62.0575 62.9111 61.8042C62.5036 61.6175 62.0501 61.4041 61.6228 61.4041C61.0444 61.4041 60.3017 61.8975 59.9205 61.6708C58.1524 60.6176 55.8256 60.7242 54.6096 58.3711C53.8734 56.9445 53.4396 54.8913 51.3758 54.338C51.126 54.2714 50.9288 53.3915 50.9945 52.9315C51.0406 52.6248 51.5598 52.3249 51.9279 52.1516C52.3485 51.945 52.8415 51.8916 53.4922 51.725Z" fill="#F6D06D"/>
<path d="M57.4035 114.793C55.1753 115.193 52.9537 115.6 50.7255 116C50.686 115.713 50.6466 115.427 50.6072 115.133C51.6917 115.007 52.7762 114.907 53.8607 114.76C55.0307 114.6 56.1875 114.394 57.3509 114.207C57.364 114.4 57.3838 114.593 57.4035 114.793Z" fill="#F6D06D"/>
<path d="M70.7075 60.8177C69.3338 61.831 67.8549 62.6908 65.9882 61.8509C67.5592 61.5043 69.1301 61.1577 70.7075 60.8177Z" fill="#F6D06D"/>
</svg>
