<svg width="141" height="87" viewBox="0 0 141 87" fill="none" xmlns="http://www.w3.org/2000/svg">
<path d="M2.96543 53.4909C8.34996 46.9524 15.1277 41.1014 22.0585 35.4313C37.4668 22.8259 54.5211 13.0976 73.2677 6.38851C86.3709 1.69557 99.6809 -1.07191 113.74 0.99127C118.247 1.65059 120.868 4.04255 122.725 7.76325C123.768 9.85057 122.421 12.9137 120.594 12.4451C115.931 11.2618 111.909 13.4314 107.665 14.3227C94.8295 17.0216 82.0979 20.1105 69.9824 25.3398C55.2674 31.703 41.8579 40.1793 29.2158 49.9393C23.2767 54.527 17.2438 58.988 11.6696 64.0275C10.9342 64.6928 9.4815 64.4023 9.22562 65.8073C9.1943 65.9559 8.78821 66.0482 8.54797 66.1475C7.76928 66.4409 1.45173 63.3986 1.15368 62.5916C-0.210598 58.8277 0.0305069 57.4611 2.96543 53.4909ZM14.0841 47.3043C37.35 27.3278 63.1663 12.1325 93.3369 5.13302C62.4765 10.8425 36.7928 26.2653 14.0841 47.3043Z" fill="#185951"/>
<path d="M112.511 45.9437C111.536 49.2927 109.104 49.3378 106.493 49.586C104.03 49.8156 101.959 51.5658 99.42 52.0593C96.286 52.6708 92.9639 53.3939 90.222 54.6959C88.1348 55.6903 85.6643 55.1837 83.7698 56.9964C82.2433 58.4584 80.0125 59.4493 77.5849 59.1071C76.5654 58.9629 76.0028 59.7985 75.2556 60.2726C73.3288 61.4896 71.4911 63.0131 68.9371 62.6428C68.5485 62.5889 67.8893 62.7469 67.7164 63.0277C66.0487 65.7315 62.813 65.3083 60.4971 66.7149C59.4303 67.3665 58.2553 67.0275 57.1854 66.348C56.2542 65.7661 54.3775 65.1774 54.4337 64.8024C54.7219 62.7619 54.4605 60.6882 56.5313 58.902C63.8145 52.6263 72.3315 48.7913 81.1935 45.5403C90.1421 42.2528 99.4171 40.3044 108.868 39.1987C112.52 38.7687 116.212 38.7327 119.868 39.3903C122.475 39.8588 123.888 41.7671 125.173 43.8051C125.659 44.5864 125.51 45.3713 124.967 46.0745C124.459 46.7288 123.768 46.7062 123.007 46.6459C120.286 46.4264 117.486 45.469 115.05 47.7415C114.546 48.216 113.506 48.4477 112.765 47.9756C112.049 47.5207 113.374 46.9529 112.511 45.9437ZM86.7611 46.8236C77.7892 49.4852 69.0749 52.8035 61.3923 58.3471C69.4448 53.6123 78.0654 50.1672 86.7611 46.8236ZM98.3646 44.0749C98.3013 43.8353 98.2405 43.6096 98.1773 43.3701C95.9235 43.9425 93.6641 44.5232 91.4103 45.0956C91.4662 45.2935 91.5164 45.4995 91.5642 45.6916C93.831 45.1527 96.0977 44.6138 98.3646 44.0749Z" fill="#185951"/>
<path d="M116.661 79.562C117.182 81.6475 116.269 81.6996 114.584 82.1727C111.98 82.9136 109.325 83.9714 106.719 83.9181C103.394 83.847 100.994 86.3279 97.7981 86.2987C95.0694 86.281 92.432 84.2428 91.8487 81.8818C91.3351 79.838 92.7675 79.273 93.8753 78.5283C99.7079 74.5605 106.357 72.8986 113.216 71.9447C118.169 71.2591 123.17 71.3882 128.172 71.3957C129.789 71.3997 129.747 72.1016 129.152 73.2435C128.883 73.7488 128.252 74.1953 128.725 75.1008C129.69 74.6459 130.622 74.2041 131.551 73.7484C131.775 73.6377 132.123 73.5411 132.171 73.368C132.714 71.4333 133.152 71.2781 135.55 72.3557C134.893 73.0146 133.805 72.6031 133.273 73.4118C133.423 74.6386 135.123 72.7381 135.169 74.2694C135.208 75.5655 134.033 76.7014 133.416 76.6944C131.094 76.6702 129.583 78.545 127.429 78.8709C126.774 78.9709 126.617 80.738 125.223 79.7571C124.456 79.2179 122.797 80.3308 122.689 78.4382C122.313 79.5634 121.08 79.0985 120.601 79.4686C119.258 80.462 118.076 79.9235 116.661 79.562ZM109.917 75.098C104.219 76.1857 98.6339 77.6332 93.8537 81.1953C99.0157 78.6333 104.496 76.9536 109.917 75.098ZM118.53 73.6589C120.558 73.9276 121.676 74.885 123.048 74.4236C123.603 74.2408 124.606 74.2877 124.386 73.3166C124.206 72.5318 123.417 72.2688 122.66 72.4438C121.562 72.7072 120.482 73.0818 118.53 73.6589Z" fill="#185951"/>
<path d="M136.494 73.7875C137.496 74.8583 137.723 76.5297 139.344 75.1586C140.055 74.5618 140.399 75.4253 140.349 76.1214C140.264 77.1958 140.232 78.49 139.086 78.8906C137.758 79.3586 136.099 79.9346 134.923 79.5099C133.999 79.1771 134.514 77.4909 135.297 76.5666C135.909 75.8512 136.902 75.3915 136.494 73.7875Z" fill="#185951"/>
</svg>
