<svg width="123" height="155" viewBox="0 0 123 155" fill="none" xmlns="http://www.w3.org/2000/svg">
<path d="M78.6002 58.0804C78.8795 58.3034 79.2072 58.565 79.5289 58.8218C79.4167 59.2989 79.1626 59.7422 79.3731 60.2382C81.1433 61.7309 80.6792 61.1418 81.0939 64.8823C82.4961 66.0017 83.9227 67.1406 85.2946 68.2359C85.6922 69.0205 85.1719 70.0465 86.1137 70.5598C86.0583 71.8376 87.4969 72.9861 86.4047 74.3805C86.2497 74.5749 86.4589 75.06 86.4982 75.4094C85.4644 76.0453 84.2866 75.9898 83.1237 76.1647C82.6509 76.334 82.4421 75.2131 81.9298 75.818C81.4321 76.4047 81.0987 75.6018 80.6114 75.7893C80.2671 75.922 79.7488 75.5877 79.3035 75.4608C79.262 75.2388 79.2229 75.0387 79.1899 74.8434C78.5429 75.3308 77.8766 74.9579 77.2348 74.8531C76.8743 74.6448 77.229 74.1129 76.5666 73.922C76.1676 74.0111 75.559 74.1514 74.96 74.2795C74.8453 73.7506 74.8921 73.281 74.4881 73.2269C73.434 73.0911 72.3617 73.0402 71.2979 72.9663C70.2511 72.896 69.0219 72.3819 68.2896 71.6183C67.7139 71.0196 66.6313 71.4177 66.3751 70.2192C65.8762 70.8447 65.5807 71.2152 65.3288 71.531C64.6594 71.6228 64.377 70.7313 63.5322 71.2299C64.1906 70.1054 62.4896 69.6222 63.1287 68.5717C62.408 68.404 61.5868 68.3249 61.7988 67.2119C61.8373 66.9643 62.0935 67.129 62.2596 67.033C62.5041 66.7014 62.0941 66.6424 61.9726 66.446C61.9039 65.8345 62.5885 65.2876 64.3341 64.544C63.5648 62.3195 64.3091 60.0907 64.3865 57.9258C65.3203 56.892 66.5184 56.7352 67.8118 57.0819C68.1879 57.1833 68.5108 57.4511 68.8712 57.6096C69.836 58.0319 70.8722 58.3522 71.7306 59.0573C73.2482 60.3186 74.0001 60.2728 75.6676 59.1786C76.4953 58.6267 77.2355 57.8358 78.6002 58.0804Z" fill="#F6D06D"/>
<path d="M73.4227 155C72.0338 154.835 70.9816 154.274 69.8261 154.564C69.3799 154.675 69 154.541 68.6602 154.369C67.4017 153.742 65.8825 154.189 64.6662 153.347C64.4501 153.195 63.9871 153.402 63.6318 153.436C62.5292 152.377 60.8673 152.193 59.864 150.985C59.6077 150.671 59.1018 150.595 59.0199 150.112C58.8012 148.804 58.0371 147.807 57.1409 146.912C56.3309 146.096 56.3587 145.065 56.2289 144.057C56.4066 143.622 57.2054 143.256 56.2963 142.689C56.6935 142.191 57.081 141.705 57.5121 141.165C59.2945 140.749 60.9301 141.289 62.5808 142.259C64.155 143.188 65.8903 143.877 67.6182 144.501C68.379 144.781 69.1989 144.749 70.125 144.336C72.53 143.263 74.7551 141.919 76.9231 140.459C78.5567 139.357 78.5312 139.327 80.3145 139.657C81.0337 140.599 80.0264 141.127 79.7458 141.728C80.357 141.659 80.9573 141.592 81.5139 141.529C81.6979 142.233 81.6997 142.691 81.4141 143.149C81.9034 143.57 82.2099 144.282 83.1458 143.955C82.9262 144.804 81.8726 145.215 82.5471 146.3C82.9921 146.178 83.5717 146.025 84.1779 145.863C84.2129 146.666 83.4563 146.867 83.4401 147.461C83.5959 147.913 83.9523 147.84 84.3052 147.783C84.3454 147.895 84.4244 148.008 84.4088 148.115C83.9925 150.854 82.2504 152.465 79.7979 153.41C78.5747 153.884 77.2773 154.091 75.9626 154.145C74.99 154.194 74.1244 154.506 73.4227 155Z" fill="#F6D06D"/>
<path d="M72.3119 114.213C71.853 113.916 71.2962 113.78 71.4955 113.094C70.6852 113.063 69.713 113.51 69.5247 112.226C69.4769 111.9 69.239 111.75 68.9226 111.835C68.4133 111.975 68.2356 111.426 67.8123 111.346C66.209 112.422 64.3496 112.399 62.5109 112.412C62.2841 112.41 61.9069 112.447 61.743 112.316C60.2643 111.155 58.6875 110.105 57.3783 108.732C57.3881 107.835 55.8732 107.779 56.2418 106.682C55.6444 106.185 55.2919 105.556 54.9854 104.844C54.6703 104.105 54.514 103.304 54.1869 102.606C53.6798 101.535 53.7635 100.508 53.9319 99.45C54.0463 98.7461 54.2613 98.0529 54.435 97.3368C55.1454 97.0192 55.8338 96.6046 56.6901 96.6023C57.1813 96.5968 57.5671 96.6861 58.0379 96.893C59.2514 97.4145 60.5554 97.5609 61.9114 97.5798C65.1158 97.6232 68.3165 97.4845 71.5183 97.3568C72.1453 97.3305 72.6732 97.6029 73.2458 97.6822C73.3774 98.165 73.6169 98.6246 73.1249 99.0171C73.3915 99.7667 74.2746 99.8554 74.5447 100.538C74.2094 101.046 74.03 100.137 73.6448 100.595C73.8639 101.168 74.587 101.357 74.9915 101.859C74.9351 102.391 75.2632 102.901 75.0311 103.491C74.8413 103.966 74.9746 104.858 74.7164 104.97C74.0351 105.251 74.2943 105.935 73.8811 106.291C73.4619 106.642 73.1947 107.313 72.7449 107.441C72.226 107.594 72.4526 108.431 71.7004 108.228C72.0022 109.095 72.0727 110.115 72.6216 110.673C73.2154 111.286 72.3569 112.4 73.6403 112.56C73.1741 113.132 72.7866 113.618 72.3119 114.213Z" fill="#F6D06D"/>
<path d="M18.3056 93.5031C17.2004 93.257 16.0625 93.9986 14.8489 93.4771C15.3531 92.1599 17.2042 93.3395 17.4656 91.9279C17.2052 91.2827 17.0345 90.55 16.6481 89.9632C16.3018 89.4382 16.3207 89.0656 16.4655 88.4854C16.6804 87.643 16.8054 86.7388 16.4743 85.8085C16.7746 85.432 17.0373 85.0155 17.3862 84.6777C18.1639 83.9268 18.9903 83.3142 20.1557 83.2108C23.0602 82.9451 25.8755 83.1648 28.6071 84.262C29.2611 84.5257 30.0107 84.5576 30.7568 84.7059C31.4073 84.0523 32.3917 83.7149 33.0226 82.8368C33.295 82.4579 34.0501 82.0965 34.7832 82.473C35.1582 82.663 35.6433 82.6527 36.2426 82.7733C35.6904 83.4656 35.1866 84.0973 34.523 84.9293C35.4677 84.8286 36.1177 84.7611 36.7241 84.6984C37.7621 87.4456 37.98 90.0251 36.5848 92.609C36.2863 92.5099 36.0387 92.4216 35.722 92.308C35.3539 92.7695 34.9712 93.2493 34.6225 93.6866C33.2313 93.6495 32.3325 94.602 31.329 95.1626C30.0757 95.8619 28.8368 96.3937 27.429 96.6018C26.2103 96.7719 24.9415 96.6935 23.7925 97.287C23.5003 97.4415 23.0602 97.5076 22.7556 97.4036C21.5993 96.9974 20.4776 97.1953 19.2749 97.5572C19.3994 97.1894 19.4827 96.9478 19.6434 96.4598C18.8582 96.9959 18.3032 97.4177 17.329 97.2066C16.134 96.9484 16.2338 96.2129 16.1091 95.4474C15.7126 95.5085 15.3634 95.5975 15.176 95.1597C15.2123 95.0395 15.2072 94.8466 15.2957 94.798C16.0011 94.387 16.7332 94.0669 17.5798 94.0768C17.9231 94.0824 18.2638 94.0165 18.3056 93.5031Z" fill="#F6D06D"/>
<path d="M102.162 45.3696C102.023 45.1198 102.188 44.8636 101.813 44.773C101.086 45.485 100.642 46.6019 99.283 46.8487C98.9215 46.729 98.4113 46.0733 97.7896 46.4915C97.2915 46.8294 96.8746 47.0532 96.3781 46.7662C95.8731 46.353 96.7944 45.9952 96.3221 45.6281C95.8669 45.2646 95.3822 45.6232 94.9128 45.5765C94.8385 45.3581 94.8988 45.1081 95.0795 45.0435C95.6008 44.8633 96.127 44.7268 96.2414 44.0726C96.1303 43.4769 95.597 43.7967 95.2912 43.632C95.195 43.3664 95.3888 43.1732 95.5415 43.1063C97.1792 42.3859 98.524 41.223 100.031 40.3183C99.5594 38.9283 98.8763 37.7169 98.3084 36.4981C97.6675 35.1217 97.5796 33.7493 97.2988 32.2329C96.8981 31.913 96.4186 31.5302 95.8722 31.094C96.5346 30.2511 97.6681 30.7981 98.2089 29.709C97.9885 28.9764 96.868 30.1196 96.4208 29.4346C96.3417 29.2223 96.3985 29.039 96.648 28.8009C98.0175 28.9399 99.2206 29.8109 100.615 30.1186C102.099 30.4492 103.38 31.3722 104.748 32.0367C106.174 32.7278 107.147 33.9121 108.538 34.6846C109.939 34.7095 110.723 33.4272 111.844 32.7814C113.023 32.1126 114.196 31.5274 115.587 31.465C116.109 31.445 116.303 31.7881 116.624 32.0947C116.282 32.6363 115.348 32.0004 115.141 32.9083C115.73 33.0411 116.326 33.1787 116.893 33.303C117.224 33.5974 117.005 33.81 116.831 34.0286C118.142 35.6724 118.275 36.0667 117.525 38.1911C117.361 38.6573 117.065 39.2158 116.694 39.6555C116.186 40.2435 115.72 40.8654 115.245 41.4605C115.173 41.8004 115.543 41.897 115.635 42.2294C115.015 43.0067 114.371 43.8145 113.654 44.7133C112.06 44.1462 110.703 45.2497 109.206 45.6557C108.547 45.8349 107.924 46.1426 106.932 45.5299C107.746 45.3942 108.357 45.425 108.81 45.1805C109.248 44.9433 109.894 44.9923 110.122 44.4581C110.165 44.2044 110.102 44.1341 109.92 44.1877C108.909 44.4839 107.91 44.9887 106.811 44.5483C106.358 45.1908 106.223 44.9241 106.201 44.3295C105.666 44.2901 105.603 44.8168 105.317 45.0757C105.106 45.2652 104.976 45.479 104.64 45.2404C103.823 44.6577 103.028 45.3055 102.162 45.3696Z" fill="#F6D06D"/>
<path d="M52.9813 44.0989C52.5116 44.8373 52.0536 45.1873 51.3134 44.9444C50.8751 44.5845 51.1121 44.0381 50.9672 43.5845C50.2542 43.6813 49.8125 43.4379 49.649 42.6712C49.5124 42.0453 49.526 41.3305 49.8032 40.8958C50.3576 40.0262 50.2183 39.1794 50.0607 38.3181C49.7724 36.6863 49.9391 35.1196 50.4186 33.5342C50.6517 32.7561 50.9581 32.3347 51.7521 31.9746C53.1146 31.3625 54.3287 31.3974 55.5824 32.0802C56.4004 32.5245 57.3891 32.6677 57.9602 33.4715C58.3566 33.3108 58.6951 33.422 59.0198 33.1643C60.7392 31.8432 62.63 30.8179 64.618 29.9697C65.9842 29.3904 66.5062 29.7076 67.0816 31.0914C67.4441 31.9574 67.849 32.7578 67.9909 33.7259C68.1915 35.0689 68.208 35.7084 67.7961 37.1092C67.3927 38.4869 66.8025 39.7254 65.9003 40.8441C65.4873 41.3495 64.8038 41.758 64.9892 42.6218C65.0149 42.7516 64.7787 43.0103 64.6066 43.1016C63.4272 43.7207 62.7495 44.9689 61.4317 45.4377C59.949 45.9638 58.481 46.5214 56.9066 46.4772C56.3802 46.4645 55.73 46.3828 55.2407 45.9126C54.5813 45.3067 53.8311 44.7774 52.9813 44.0989Z" fill="#F6D06D"/>
<path d="M20.5769 48.7361C20.2621 49.1309 19.8367 49.4275 19.8589 49.6738C19.9853 50.898 18.6655 50.7589 18.282 51.4765C16.9189 51.5911 15.8308 52.4818 14.5443 52.7868C13.8229 52.9563 13.0881 53.1053 12.3935 52.4315C12.0146 52.0595 11.3267 51.9378 10.6901 52.0259C10.5548 51.5104 10.3771 51.0107 9.72209 50.935C9.46647 51.1683 9.8357 51.6023 9.34481 51.8565C8.59491 51.5759 7.75769 51.2554 6.91073 50.9471C6.05285 50.6399 5.13389 49.9858 4.34206 50.1191C3.42532 50.2719 2.5264 50.1407 1.53933 50.307C1.34937 49.6981 0.954544 49.1841 0.473635 48.6908C1.06644 48.4583 1.74732 48.813 2.10889 47.9486C1.63952 47.9516 1.21985 47.9545 0.811112 47.9562C0.717418 47.7125 0.886921 47.4502 1.02274 47.4294C1.54417 47.3486 1.94658 47.1431 2.1689 46.4657C1.24737 45.6902 0.589756 44.5589 0 43.3425C0.116735 42.6107 1.04103 42.6726 1.39586 42.2402C1.24226 41.6106 0.897875 41.6439 0.51833 41.7086C0.116087 41.0794 0.318979 40.4262 0.885107 40.2023C1.66339 39.8991 2.41243 39.4832 3.40122 39.7259C6.2523 40.4116 9.17218 40.8241 11.9724 41.5985C14.1339 40.7694 15.5867 38.5991 18.1263 38.5292C18.448 38.7861 18.7758 39.0478 19.1097 39.3143C18.8849 39.9201 19.1631 40.2814 19.5495 40.8184C20.2141 41.7665 20.8378 42.9404 20.3808 44.1859C20.0726 45.0333 20.2847 45.8885 20.0602 46.7431C19.8948 47.3366 19.943 48.1108 20.5769 48.7361Z" fill="#F6D06D"/>
<path d="M20.9423 135.618C20.8533 135.268 20.9367 135.027 20.8663 134.991C19.9144 135.125 19.1189 135.226 18.0687 135.371C17.7828 135.63 18.7981 135.765 18.5075 136.179C17.0349 135.958 15.5068 135.096 14.0945 136.592C14.1031 136.669 14.1337 136.942 14.1865 137.411C14.7709 137.252 15.3613 137.097 15.9567 136.936C16.0072 137.583 15.7392 137.707 15.3403 137.746C14.3737 137.849 13.4919 137.771 12.6507 137.169C12.068 136.754 11.1911 136.819 10.7439 136.084C10.47 136.253 10.2482 136.394 10.0264 136.535C9.71226 136.493 9.91324 136.216 9.72978 135.961C9.25134 136.473 8.64797 136.021 8.07687 136.152C7.71706 135.507 7.81537 134.562 7.18424 134.207C6.88324 134.036 6.94275 133.139 6.20482 133.703C6.20892 133.1 6.21913 132.552 6.22219 132.087C5.65157 131.631 5.22058 131.287 4.86243 131.001C4.35417 129.969 4.69508 129.069 4.89772 128.167C5.13654 128.079 5.36444 127.993 5.58751 127.912C5.54458 127.53 5.50532 127.181 5.45994 126.777C5.8572 126.328 6.46961 126.221 7.01759 126.032C7.56557 125.843 7.9105 126.208 8.15969 126.656C7.95024 126.956 7.33989 126.737 7.32978 127.385C8.46756 127.478 9.47371 128.072 10.5741 128.325C12.3145 127.289 13.6235 125.56 15.839 125.261C16.3507 125.193 17.0621 124.737 17.4021 124.074C17.5885 123.716 17.864 123.956 18.1129 124.154C18.1381 124.92 17.3259 125.216 17.1048 125.854C18.5643 126.254 19.4456 125.884 20.3198 124.713C20.5886 124.351 21.201 124.244 21.4161 123.65C21.1744 123.368 21.0498 123.636 20.8596 123.763C20.6996 123.864 20.468 123.867 20.274 123.911C19.9733 123.989 19.7318 123.906 19.5738 123.631C20.9678 122.02 22.0044 121.704 23.9518 122.315C24.035 122.958 23.2494 123.146 23.198 123.771C23.5645 123.984 23.9511 123.736 24.4023 123.768C24.3144 124.264 24.0603 124.757 24.2902 125.279C24.5151 125.657 24.8933 125.482 25.3142 125.49C26.0836 126.879 26.471 128.262 25.351 129.754C24.9611 130.268 25.1128 131.273 24.4387 131.471C23.5985 131.715 23.9015 132.543 23.3695 132.923C22.6279 133.455 22.8367 134.576 22.1 135.2C21.7232 135.536 21.3643 135.537 20.9423 135.618Z" fill="#F6D06D"/>
<path d="M120.923 83.7075C121.312 84.0176 121.591 84.2406 121.876 84.4683C121.97 85.1101 121.209 85.3174 121.125 85.8963C121.448 86.6616 122.07 86.1438 122.579 86.2027C122.617 86.2924 122.684 86.3955 122.706 86.4925C122.835 87.1027 122.71 87.7084 122.866 88.3598C123.386 90.4851 122.369 92.2968 120.203 93.3807C119.209 93.8795 118.16 94.4838 117.098 94.5701C116.222 94.6464 115.855 95.3568 115.108 95.496C114.382 95.6328 113.662 95.5646 112.909 95.9477C112.037 96.3942 110.904 95.7585 109.891 96.0328C109.17 95.1297 108.435 95.7653 107.693 95.998C107.362 96.1015 106.996 96.0874 106.559 96.1365C106.164 95.6722 105.947 95.0221 105.416 94.5677C104.963 94.1763 104.99 93.2335 104.026 93.4082C103.814 92.2156 102.399 92.4079 101.934 91.6586C101.421 90.8317 100.537 90.2455 100.355 89.1657C100.29 88.786 99.7246 88.4736 99.3434 88.1792C98.8651 87.8073 98.9313 87.3631 98.982 87.175C99.2491 86.4041 100.083 87.0401 100.035 86.2162C100.106 85.7659 99.4278 85.7814 99.3593 85.3192C99.4074 84.9599 99.7054 84.7605 99.938 84.5188C100.65 84.7096 101.331 84.8653 101.963 85.3305C102.868 86.0028 104.066 85.9952 105.127 86.3349C107.3 87.036 109.52 87.4167 111.83 87.1238C112.658 87.0196 113.39 86.7493 114.119 86.3965C115.644 85.6556 117.187 84.9292 118.726 84.2199C119.399 83.912 120.098 83.6454 120.923 83.7075Z" fill="#F6D06D"/>
<path d="M26.9554 4.36537C27.0117 4.76816 27.0739 5.17576 27.1242 5.57371C28.3721 6.50043 29.5161 5.66416 30.3801 5.09155C32.8838 3.42237 35.5103 1.96055 38.0419 0.34351C38.7691 -0.119719 39.0626 -0.113997 41.0608 0.357964C40.6144 1.25404 40.8032 1.90177 41.6179 2.61183C42.1327 3.06259 42.3875 4.10098 42.3205 4.83277C42.2606 5.43107 42.5322 6.32383 42.2001 6.56572C41.6791 6.94496 42.1981 7.87621 41.3092 7.93193C41.183 7.94058 41.3887 8.54218 41.0652 8.81075C40.5697 9.2203 41.0185 10.2645 40.3067 10.3722C39.4203 10.4995 39.9042 11.4126 39.3441 11.6414C39.2859 11.6646 39.2338 11.7423 39.2133 11.8054C38.9341 12.5666 37.6084 11.5878 37.5057 12.8875C37.4687 13.345 36.4913 13.4494 35.9142 13.6746C35.1942 13.9546 34.4787 14.0793 33.7378 14.1736C33.0575 14.2667 32.3856 14.3367 31.7265 13.9298C31.7785 12.8182 30.3191 13.5517 29.9895 12.7816C28.9925 13.7451 27.7309 12.5988 26.6074 13.2724C26.3081 13.4609 26.6421 13.8767 26.4618 14.19C25.7761 14.8254 25.0141 14.5352 24.7173 13.9106C24.2358 12.9198 23.3256 12.4417 22.6006 11.6939C23.0945 10.9252 23.4124 10.1154 23.2682 9.22493C23.1839 8.72024 23.3991 8.22609 23.712 8.15775C25.1852 7.84284 25.0925 6.47662 25.5607 5.52834C25.9939 4.6614 25.9114 4.61543 26.9554 4.36537Z" fill="#F6D06D"/>
<path d="M102.042 122.58C102.74 122.501 103.363 122.431 103.996 122.36C106.674 123.872 109.318 125.416 111.251 128.013C112.098 128.421 112.994 127.983 113.647 127.55C114.506 126.984 115.536 127 116.377 126.419C116.997 125.99 117.651 126.741 118.257 126.479C118.618 127.135 118.823 127.637 118.145 128.139C118.944 128.707 119.597 129.209 119.492 130.199C119.412 130.96 120.286 131.558 119.778 132.494C119.426 133.148 119.474 134.021 119.355 134.731C117.758 135.226 118.101 136.951 117.262 137.891C116.524 138.356 115.819 138.817 114.819 138.089C114.254 137.677 113.296 137.707 112.518 137.723C111.514 137.736 110.987 137.325 110.781 136.326C110.112 137.114 109.291 136.687 108.498 136.571C108.43 136.407 108.404 136.079 108.237 135.965C107.098 135.175 106.558 133.809 105.558 133.021C104.527 132.208 103.683 131.285 103.255 130.178C102.796 128.997 101.884 128.11 101.539 126.86C101.392 126.335 101.179 125.966 101.401 125.388C101.73 124.528 101.26 123.486 102.042 122.58Z" fill="#F6D06D"/>
</svg>
