<svg width="75" height="80" viewBox="0 0 75 80" fill="none" xmlns="http://www.w3.org/2000/svg">
<path fill-rule="evenodd" clip-rule="evenodd" d="M34.3671 0.0112865C51.4511 -0.401516 66.9393 10.5441 72.4658 27.1393C78.2623 44.5454 74.1987 64.8243 59.4135 75.2226C45.5894 84.945 27.7213 78.4751 14.5007 67.9056C2.80296 58.5537 -2.84788 43.4308 1.41681 28.8561C6.00716 13.1683 18.411 0.396835 34.3671 0.0112865Z" fill="#F6D06D"/>
<path d="M38.6089 33.3867C37.3549 33.3867 36.1523 33.8848 35.2657 34.7715C34.379 35.6582 33.8809 36.8608 33.8809 38.1147C33.8809 39.3687 34.379 40.5712 35.2657 41.4579C36.1523 42.3446 37.3549 42.8427 38.6089 42.8427C39.8628 42.8427 41.0654 42.3446 41.9521 41.4579C42.8387 40.5712 43.3369 39.3687 43.3369 38.1147C43.3369 36.8608 42.8387 35.6582 41.9521 34.7715C41.0654 33.8848 39.8628 33.3867 38.6089 33.3867Z" fill="#141616"/>
<path d="M60.6729 39.6902C60.6729 39.6902 50.7946 50.7222 38.6089 50.7222C26.4233 50.7222 16.5449 39.6902 16.5449 39.6902C16.5449 39.6902 26.4233 28.6582 38.6089 28.6582C50.7946 28.6582 60.6729 39.6902 60.6729 39.6902Z" stroke="#141616" stroke-width="2.55662"/>
<path d="M49.2817 31.3989C50.5078 33.3437 51.217 35.6462 51.217 38.1143C51.217 45.077 45.5717 50.7223 38.609 50.7223C31.6462 50.7223 26.001 45.077 26.001 38.1143C26.001 35.7708 26.6408 33.577 27.7535 31.6968" stroke="#141616" stroke-width="2.55662"/>
</svg>
