<svg width="32" height="35" viewBox="0 0 32 35" fill="none" xmlns="http://www.w3.org/2000/svg">
<g clip-path="url(#clip0)">
<path fill-rule="evenodd" clip-rule="evenodd" d="M8.30893 8.36398V7.74204C8.30893 3.48215 11.7682 0 16 0C20.2318 0 23.6911 3.48215 23.6911 7.74204V8.36398H29.8482C30.2552 8.36398 30.5914 8.68407 30.614 9.09321L31.9988 34.1851C32.0105 34.397 31.9351 34.6044 31.7902 34.7585C31.6453 34.9126 31.4438 35 31.233 35H0.766979C0.556178 35 0.35467 34.9126 0.209805 34.7585C0.0649398 34.6044 -0.010511 34.397 0.00118217 34.1851L1.386 9.09321C1.40858 8.68407 1.74474 8.36398 2.1518 8.36398H8.30893ZM9.84288 7.74204C9.84288 4.33494 12.6153 1.54412 16 1.54412C19.3847 1.54412 22.1572 4.33494 22.1572 7.74204V8.36398H9.84288V7.74204ZM8.30893 9.90808V16.106H9.84288V9.90808H22.1572V16.106H23.6911V9.90808H29.1227L30.4223 33.4559H1.57775L2.87735 9.90808H8.30893Z" fill="#1A1A1A"/>
</g>
<defs>
<clipPath id="clip0">
<rect width="32" height="35" fill="white"/>
</clipPath>
</defs>
</svg>
