<svg width="200" height="180" viewBox="0 0 200 180" fill="none" xmlns="http://www.w3.org/2000/svg">
<path d="M138.606 41.091C138.752 41.0182 138.948 40.8413 139.038 40.8892C140.9 41.8244 142.997 41.4605 144.924 41.9814C147.113 42.5721 149.312 43.0862 151.518 43.5981C154.789 44.3552 158.005 45.2804 161.176 46.4503C164.338 47.6162 167.547 48.6862 170.605 50.0935C176.59 52.8506 182.092 56.3576 186.896 60.9573C188.447 62.439 189.848 64.0537 191.143 65.6991C192.514 67.4423 193.668 69.4392 194.917 71.2878C196.025 72.92 196.687 74.7067 197.517 76.41C198.387 78.1993 198.765 80.2535 199.2 82.2282C200.114 86.3668 200.31 90.539 199.447 94.7198C198.677 98.459 197.857 102.185 196.426 105.74C193.659 112.608 190.063 119.002 185.095 124.512C178.082 132.289 169.681 138.197 160.353 142.876C148.863 148.641 136.48 151.413 124.051 153.97C113.992 156.041 104.271 159.074 94.7133 162.799C85.6519 166.327 77.2335 171.116 68.6066 175.509C64.1384 177.784 59.4638 179.658 54.3625 179.956C50.5606 180.177 46.853 179.568 43.346 178.109C38.5969 176.135 34.0124 173.826 29.806 170.818C29.4834 170.586 29.035 170.448 29.1094 169.895C29.1457 169.626 28.9087 169.471 28.7224 169.51C26.9062 169.881 25.667 168.6 24.2996 167.856C20.633 165.855 17.1361 163.571 14.1246 160.621C13.861 160.361 13.4961 160.176 13.6833 159.493C16.1491 161.107 18.104 163.346 20.742 164.587C14.0657 159.738 8.38879 153.997 4.44273 146.438C4.52895 147.359 5.45178 149.22 6.22912 150.294C7.52258 152.082 8.74306 153.927 10.1034 155.66C10.9191 156.697 11.9679 157.553 12.8708 158.524C13.0866 158.756 13.6401 159.027 13.2668 159.416C12.9137 159.783 12.5647 159.339 12.3381 159.077C10.4432 156.862 8.36202 154.803 6.67357 152.411C3.71417 148.227 1.5888 143.68 0.625438 138.607C-0.111249 134.728 -0.258984 130.916 0.51747 126.96C1.54279 121.741 4.60655 117.912 7.90282 114.096C10.6414 110.929 14.0956 108.484 16.6775 105.175C18.9782 102.232 20.39 98.8778 21.5706 95.346C23.1824 90.5219 23.172 85.6506 22.5174 80.7205C22.2305 78.5615 21.8348 76.4168 21.5171 74.2582C21.4261 73.6465 21.0698 72.9074 22.0594 72.6254C22.2066 72.5835 22.2842 72.324 22.1502 72.188C21.696 71.7191 21.9916 72.3932 21.8013 72.44C21.169 72.5917 21.224 72.1013 21.165 71.7864C20.8033 69.8166 20.4703 67.84 20.1311 65.8657C19.2423 60.7106 18.5258 55.536 18.3528 50.2999C18.2904 48.4073 18.0938 46.476 18.6016 44.6372C18.7368 44.1495 18.4869 42.919 19.743 43.0617C19.6823 42.6539 19.4397 42.4146 19.117 42.1829C18.734 41.9068 18.5863 41.4571 19.0477 41.1722C19.4176 40.9404 19.3568 40.7578 19.2223 40.4732C18.9212 39.8322 18.5931 39.173 19.8259 39.3967C19.8838 38.836 20.1953 38.0953 19.9506 37.7425C19.3179 36.8245 19.8941 36.0624 20.2376 35.5008C20.7231 34.7156 20.4777 33.2827 22.3203 33.3592C20.461 32.6862 20.4176 32.6704 21.0316 30.9082C23.8516 22.8369 28.2048 15.8139 34.8619 10.3171C41.6161 4.73394 49.2236 1.14697 57.9502 0.292614C61.3084 -0.0339501 64.737 -0.326662 68.0781 0.817426C68.81 1.06658 69.7691 0.687939 70.1493 1.7302C72.14 1.00272 73.6243 2.43209 75.0242 3.26815C76.1458 3.93987 77.7183 4.08096 78.4188 5.45616C78.5742 5.76107 78.8731 5.58225 79.0983 5.53692C79.7065 5.41451 80.2817 5.9824 80.3 6.20097C80.4014 7.40103 81.3032 7.27138 82.056 7.54081C83.3795 8.01272 84.3821 9.0418 85.2875 10.0395C86.2727 11.1267 87.2751 12.1453 88.4915 12.9495C88.8825 13.2089 89.5165 13.2678 89.1101 13.9937C89.0842 14.0375 89.1538 14.1375 89.1817 14.2072C90.1785 13.4067 90.2655 15.1832 91.0926 14.8896C91.1784 14.8592 91.4103 14.9604 91.4175 15.0202C91.5735 16.6302 93.3873 16.7029 94.0414 17.8972C94.4004 18.5557 95.4276 18.5478 95.8938 19.2271C95.9486 19.3046 96.2019 19.3289 96.1983 19.3578C96.0545 20.6346 97.6338 20.8149 97.7867 21.9067C97.8617 22.4237 98.3448 22.4357 98.749 22.5173C98.9759 22.5648 98.6854 21.8265 99.0733 22.2635C99.6942 22.9711 100.519 23.3777 101.216 23.9475C102.26 24.792 101.166 25.0697 100.542 25.4609C101.318 25.2859 102.102 25.9802 102.816 25.2942C103.012 25.1069 103.087 25.3223 103.188 25.4217C104.305 26.521 105.639 27.3459 106.844 28.3342C107.409 28.7949 107.947 29.3449 108.318 29.9681C108.601 30.4421 109.031 30.6842 109.405 30.6795C109.923 30.6723 110.178 30.3808 109.901 31.2201C109.732 31.7373 110.47 31.4061 110.768 31.4111C111.233 31.4193 111.662 31.3186 111.997 31.7814C112.36 32.2829 111.801 32.5366 111.635 32.9175C112.169 32.9843 112.232 32.5082 112.54 32.3953C112.773 32.3126 113.074 32.1192 113.172 32.4582C113.591 33.9025 114.821 33.5108 115.822 33.8026C117.343 34.2462 118.828 34.8929 120.224 35.6505C122.104 36.6659 124.168 37.0481 126.158 37.6919C128.554 38.4688 131.074 38.7892 133.453 39.6449C134.292 39.9458 135.363 39.718 136.041 40.2841C136.846 40.9573 137.952 40.2911 138.634 41.0946C138.222 41.4593 137.621 41.6311 137.34 42.2846C137.59 42.3173 137.742 42.36 137.897 42.3573C138.313 42.3374 138.712 42.5698 138.671 42.9133C138.617 43.3686 138.205 43.2066 137.876 43.0742C137.404 42.8782 137.415 43.3799 137.196 43.5511C137.319 43.7224 137.423 43.5987 137.536 43.576C139.215 43.2362 139.209 43.2383 138.649 41.7057C138.588 41.5126 138.622 41.2931 138.606 41.091ZM108.61 32.9943C108.885 33.8175 108.544 33.9454 107.895 33.5874C106.965 33.0796 106.095 32.4674 105.188 31.924C102.872 30.5302 100.842 28.7265 98.779 26.9834C98.416 26.676 97.4096 26.1261 98.5607 25.4509C98.3013 25.0755 98.9228 24.6679 98.4675 24.2548C97.8619 23.7081 97.9338 24.6383 97.7212 24.5822C96.9675 24.3789 96.0432 24.7485 95.4705 24.2074C94.5949 23.3826 93.6711 22.6268 92.7713 21.8314C91.717 20.9003 90.7312 19.8895 89.6829 18.9459C87.7261 17.1823 85.7671 15.4126 83.766 13.6993C82.7457 12.8255 81.7517 11.9283 80.7435 11.0501C79.6875 10.1336 78.4038 9.4814 77.2791 8.63421C74.3695 6.44365 71.1035 4.89539 67.6882 3.85382C64.06 2.74585 60.249 2.68616 56.4597 3.14849C46.5721 4.35612 38.5247 8.97527 32.1596 16.567C28.141 21.366 25.7262 27.0326 23.9599 32.9952C23.6594 34.0125 23.4851 35.075 21.8737 34.2448C22.7982 35.0419 22.8488 35.6956 22.1529 36.5485C21.7226 37.0787 22.1537 37.9817 21.6279 38.5735C22.9348 39.0374 21.6062 39.6684 21.7206 40.2095C21.7431 40.3226 21.6511 40.4627 21.6778 40.5778C21.8804 41.4581 21.4103 41.483 20.6378 41.2656C21.8526 41.8592 22.1235 42.6494 21.5324 43.7318C21.2537 44.2427 21.4223 45.0553 21.6224 45.2128C22.283 45.7297 22.124 46.3852 22.0452 46.9256C21.8934 47.9835 21.9454 48.9449 22.1023 50.0284C22.3203 51.5402 22.2357 53.1421 22.6162 54.6656C22.8263 55.5085 22.4256 56.4367 22.6327 57.1041C22.9309 58.0405 22.5922 59.106 23.2582 59.9325C23.2961 59.9814 23.2279 60.1891 23.1527 60.24C22.7409 60.5386 22.6884 60.5953 23.1212 60.8952C23.4728 61.1409 23.5629 61.4655 23.4795 61.7478C23.2426 62.5244 23.8197 63.3133 23.3611 64.1062C23.1857 64.4109 23.2298 64.9285 23.5443 65.2842C24.5489 66.4268 24.567 67.9092 24.7371 69.2753C25.053 71.7911 25.4531 74.3013 25.7567 76.8215C26.0119 78.9295 26.3477 81.0609 26.4034 83.1601C26.4846 86.1158 26.1878 89.0742 25.4858 92.0171C23.8981 98.6642 20.9421 104.516 16.0683 109.293C13.0001 112.297 9.69758 115.066 7.03731 118.475C5.80157 120.057 4.5109 121.668 3.95948 123.598C2.87034 127.419 2.91486 131.32 3.59046 135.231C3.68414 135.762 4.26678 136.518 3.29057 136.975C2.99706 137.111 3.37441 137.302 3.48149 137.43C4.90955 139.16 5.27798 141.394 6.04909 143.392C6.66079 144.975 7.55485 146.372 8.31211 147.82C9.38833 149.872 10.9917 151.64 12.3611 153.536C12.3885 153.575 12.3407 153.664 12.3445 153.646C11.9577 153.967 12.0191 153.142 11.4943 153.56C12.3226 153.799 12.2167 155.242 13.5164 154.833C13.6308 154.796 14.2238 155.208 14.0392 155.811C13.9557 156.083 13.9912 156.693 14.588 156.627C15.1479 156.563 16.1265 157.053 16.2234 157.535C16.3542 158.191 16.3582 158.183 16.9154 158.318C17.1115 158.366 17.3386 158.424 17.4786 158.557C19.1586 160.122 21.0593 161.393 22.9398 162.674C24.3334 163.62 25.6276 164.871 27.4104 165.052C29.0634 165.216 30.3909 166.14 31.8606 166.744C33.8521 167.567 35.5186 168.956 37.4564 169.882C39.7839 170.994 42.2799 171.646 44.6106 172.709C49.3051 174.851 54.3304 174.788 59.2103 174.409C62.7995 174.132 66.2498 172.509 69.5368 170.833C75.2615 167.918 80.8202 164.677 86.7175 162.106C92.2274 159.707 97.7611 157.375 103.469 155.501C109.415 153.546 115.322 151.415 121.489 150.267C130.487 148.586 139.384 146.484 148.13 143.822C156.894 141.154 164.921 136.888 172.397 131.534C182.739 124.122 189.44 114.21 192.889 102.009C194.154 97.5302 195.212 93.0239 194.852 88.2661C193.921 76.0905 187.547 67.0831 178.413 59.7794C172.168 54.7843 164.838 51.8015 157.314 49.3343C154.338 48.3551 151.472 47.0351 148.365 46.4589C146.347 46.0882 144.433 45.2613 142.357 45.0776C141.614 45.0124 140.889 44.2242 140.191 44.2677C138.92 44.3483 137.74 43.9501 136.514 43.9143C135.54 43.8863 134.753 43.0992 133.843 43.1072C132.043 43.123 130.4 42.4566 128.678 42.1467C124.988 41.49 121.544 39.9843 117.978 38.9062C116.567 38.4792 115.326 37.694 113.995 37.1004C111.53 35.9984 110.286 34.9509 109.096 33.2995C108.984 33.1487 108.747 33.091 108.581 32.9907C108.997 32.8222 109.63 32.9574 109.648 32.224C109.671 31.3191 108.919 31.8736 108.582 31.6504C108.353 31.4996 108.136 31.1855 107.924 31.6725C107.774 32.0201 107.74 32.2852 108.189 32.4444C108.427 32.5227 108.627 32.7007 108.61 32.9943ZM195.119 81.7625C194.454 79.0176 193.864 76.2423 192.061 73.9534C193.234 76.4972 194.327 79.0694 195.119 81.7625ZM76.2409 6.17044C75.9545 5.89472 76.2766 5.75276 76.416 5.50245C76.6091 5.14999 76.4567 4.78512 76.0827 4.55434C75.8749 4.42383 75.6411 4.21943 75.4404 4.49149C75.0791 4.97294 75.7199 4.9531 75.8456 5.20279C76.0246 5.5651 75.8074 5.82927 75.7451 6.14221C75.7093 6.32458 75.8634 6.43947 76.0426 6.45897C76.1887 6.47288 76.2548 6.3767 76.2409 6.17044Z" fill="#F6D06D"/>
</svg>
