<svg width="141" height="110" viewBox="0 0 141 110" fill="none" xmlns="http://www.w3.org/2000/svg">
<path d="M131.535 76.4994C130.219 76.4233 129.887 75.9594 130.503 74.7993C131.512 72.9035 132.725 71.1217 134.37 69.7007C134.795 69.3349 134.594 68.91 134.743 68.5306C135.073 67.6924 135.57 66.9491 135.922 66.1204C137.081 63.3958 135.834 61.3075 134.392 59.2009C131.379 54.7885 126.909 53.6902 121.89 53.6268C118.189 53.5841 114.72 54.6285 111.206 55.5092C107.336 56.4828 103.425 57.1694 99.4238 57.2451C92.665 57.373 87.3399 53.1737 85.5546 46.4565C84.637 43.0036 84.4415 39.4881 84.7337 35.9895C85.0452 32.2542 83.2495 29.8804 80.2683 28.1713C76.2615 25.8766 72.1956 26.3052 68.1377 28.1747C65.0254 29.6096 62.1763 31.495 59.1941 33.1506C52.7281 36.7369 48.0996 35.6145 42.4158 31.4927C40.3327 29.9824 39.8223 27.8904 39.838 25.5541C39.8497 23.458 39.9391 21.3661 39.9944 19.2706C40.0082 18.7967 40.0439 18.314 39.7679 17.888C37.6272 14.5421 35.4207 11.2352 32.0858 8.90176C28.6496 6.49597 22.8605 6.23272 18.9608 9.47765C16.0598 11.8917 13.1159 14.262 10.1995 16.6604C9.76491 17.0168 9.31799 17.3669 8.76925 17.4753C8.24231 17.5809 7.7692 17.4288 7.40066 16.9582C7.04732 16.5093 7.2223 16.2566 7.60255 15.9947C7.74085 15.8984 7.8088 15.7302 7.72111 15.578C6.71975 13.8661 7.83125 12.5814 8.76033 11.4293C10.8404 8.85148 13.5749 6.94278 16.0556 4.77455C17.2156 3.75844 18.3938 2.76719 19.7095 1.92898C22.6328 0.0632194 25.7545 -0.398763 29.2723 0.407571C28.4248 0.729807 27.6935 0.207366 26.9891 0.525682C28.5314 0.870042 30.0711 1.18046 31.5769 1.66892C31.63 1.26033 31.0273 1.4387 31.1571 0.902029C32.4164 1.45127 33.747 1.81072 34.4408 3.12682C34.5554 3.3441 34.6553 3.32107 34.8345 3.38545C36.0119 3.80719 36.7356 4.80978 37.5959 5.62673C37.951 5.96477 37.8572 6.38813 37.3725 6.76839C38.4617 6.4869 38.9117 7.1096 39.3852 7.81274C40.117 8.8924 40.9462 9.90278 41.6936 10.9735C43.3645 13.3762 43.9364 16.1003 43.9404 18.9571C43.9431 20.5363 43.8617 22.1234 43.7712 23.7011C43.7288 24.4085 44.004 24.89 44.5283 25.3384C48.2227 28.5086 52.0094 29.0144 56.3941 26.9222C59.0593 25.6496 61.4947 23.9793 64.0723 22.5545C67.0606 20.9053 70.1409 19.5315 73.6666 19.6453C75.052 19.6917 76.3534 20.1338 77.6845 20.4687C79.6718 20.9678 81.2931 21.8121 82.7452 23.1278C86.9639 26.9403 89.1212 31.5856 88.7309 37.3298C88.5963 39.3317 88.6976 41.3496 88.6934 43.3596C88.6841 46.8596 91.5888 49.4602 94.5437 50.2854C97.9164 51.2249 101.295 50.8131 104.639 50.2345C108.37 49.5882 112.038 48.553 115.786 48.0115C120.25 47.3643 124.733 47.6809 128.857 49.645C130.927 50.6287 132.81 51.9789 134.243 53.9315C135.043 55.0184 135.993 56.0337 136.827 57.1304C138.072 58.7661 138.963 60.5902 139.535 62.5139C140.603 66.0954 139.996 69.4597 137.697 72.4773C136.513 74.0318 135.054 75.2925 133.5 76.4687C133.012 76.8396 132.465 77.0681 131.908 77.2625C131.658 77.3509 131.238 77.5598 131.081 77.1295C130.953 76.7673 131.633 76.9811 131.535 76.4994ZM97.5293 55.4146C98.0132 55.8593 98.3334 55.8551 98.6505 55.8539C101.479 55.8183 104.28 55.616 107.065 55.0102C110.826 54.195 114.535 53.1388 118.355 52.5769C118.99 52.4822 119.744 52.7773 120.478 52.127C119.02 51.9933 117.769 52.0906 116.53 52.3821C113.738 53.037 110.961 53.7384 108.16 54.3532C104.735 55.0998 101.25 55.4145 97.5293 55.4146ZM47.8517 32.6523C48.4286 33.3109 51.8497 34.3313 52.4477 34.0605C52.5416 34.0189 52.6645 33.9131 52.6721 33.827C52.6925 33.5226 52.4329 33.4323 52.2067 33.3887C50.7779 33.1416 49.3488 32.9067 47.8517 32.6523ZM31.5246 6.68272C30.4881 5.80452 29.2878 5.45324 27.9954 5.42064C27.6568 5.41225 27.0217 5.09441 27.0491 5.7105C27.0742 6.28039 27.6204 5.75029 27.9204 5.83812C28.0721 5.88052 28.2265 5.93833 28.3818 5.94693C29.4745 6.02565 30.4277 6.66858 31.5246 6.68272ZM76.8944 25.3663C76.1464 24.7204 73.9005 24.4511 73.0888 24.8725C72.9415 24.9471 72.7753 25.0399 72.8659 25.2076C72.9293 25.3225 73.157 25.4676 73.2352 25.435C74.4278 24.9027 75.6471 25.4298 76.8944 25.3663Z" fill="#F6D06D"/>
<path d="M124.371 108.135C123.055 108.059 122.723 107.595 123.339 106.435C124.348 104.539 125.561 102.758 127.206 101.337C127.631 100.971 127.43 100.546 127.579 100.166C127.909 99.3281 128.406 98.5849 128.758 97.7562C129.917 95.0316 128.67 92.9433 127.228 90.8367C124.215 86.4243 119.745 85.326 114.726 85.2626C111.026 85.2199 107.556 86.2643 104.042 87.145C100.173 88.1186 96.2611 88.8052 92.2599 88.8809C85.5011 89.0088 80.1761 84.8095 78.3908 78.0923C77.4732 74.6394 77.2777 71.1239 77.5699 67.6253C77.8814 63.89 76.0857 61.5162 73.1045 59.8071C69.0977 57.5124 65.0318 57.941 60.9739 59.8105C57.8616 61.2454 55.0125 63.1308 52.0303 64.7863C45.5643 68.3727 40.9358 67.2503 35.2519 63.1285C33.1689 61.6182 32.6585 59.5262 32.6741 57.1899C32.6859 55.0938 32.7753 53.0019 32.8306 50.9064C32.8444 50.4325 32.8801 49.9498 32.6041 49.5238C30.4634 46.1779 28.2568 42.871 24.922 40.5376C21.4858 38.1318 15.6966 37.8685 11.797 41.1134C8.89594 43.5275 5.95206 45.8978 3.03568 48.2962C2.60108 48.6526 2.15416 49.0027 1.60542 49.1111C1.07849 49.2167 0.605377 49.0646 0.236838 48.594C-0.116505 48.1451 0.0584759 47.8924 0.438726 47.6305C0.577024 47.5342 0.644975 47.366 0.557287 47.2138C-0.44407 45.5019 0.667425 44.2172 1.59651 43.0651C3.67659 40.4873 6.41108 38.5786 8.89176 36.4103C10.0518 35.3942 11.23 34.403 12.5456 33.5648C15.469 31.699 18.5907 31.237 22.1084 32.0434C21.261 32.3656 20.5297 31.8432 19.8253 32.1615C21.3676 32.5058 22.9073 32.8163 24.413 33.3047C24.4662 32.8961 23.8635 33.0745 23.9933 32.5378C25.2526 33.0871 26.5832 33.4465 27.277 34.7626C27.3916 34.9799 27.4915 34.9569 27.6707 35.0212C28.8481 35.443 29.5718 36.4456 30.4321 37.2625C30.7872 37.6006 30.6934 38.0239 30.2086 38.4042C31.2978 38.1227 31.7478 38.7454 32.2214 39.4485C32.9532 40.5282 33.7823 41.5386 34.5298 42.6093C36.2007 45.012 36.7726 47.7361 36.7766 50.5929C36.7793 52.1721 36.6979 53.7592 36.6074 55.3369C36.565 56.0443 36.8402 56.5258 37.3645 56.9742C41.0589 60.1444 44.8456 60.6502 49.2302 58.558C51.8955 57.2854 54.3309 55.6151 56.9085 54.1903C59.8968 52.5411 62.977 51.1673 66.5028 51.2811C67.8882 51.3275 69.1896 51.7696 70.5207 52.1045C72.508 52.6036 74.1293 53.4479 75.5814 54.7636C79.8001 58.5761 81.9573 63.2214 81.5671 68.9656C81.4325 70.9675 81.5338 72.9853 81.5296 74.9954C81.5202 78.4954 84.425 81.096 87.3799 81.9212C90.7526 82.8607 94.1314 82.4489 97.4755 81.8703C101.206 81.224 104.875 80.1888 108.622 79.6473C113.086 79.0001 117.569 79.3167 121.693 81.2808C123.763 82.2645 125.646 83.6147 127.079 85.5673C127.879 86.6542 128.829 87.6695 129.663 88.7662C130.908 90.4019 131.799 92.226 132.371 94.1497C133.439 97.7312 132.832 101.095 130.534 104.113C129.349 105.668 127.89 106.928 126.336 108.104C125.848 108.475 125.301 108.704 124.745 108.898C124.494 108.987 124.075 109.196 123.917 108.765C123.789 108.403 124.469 108.617 124.371 108.135ZM90.3655 87.0504C90.8494 87.4951 91.1696 87.4909 91.4866 87.4897C94.3155 87.4541 97.1159 87.2518 99.901 86.646C103.662 85.8308 107.371 84.7746 111.191 84.2127C111.826 84.118 112.58 84.4131 113.315 83.7628C111.856 83.6291 110.605 83.7264 109.366 84.0179C106.574 84.6728 103.797 85.3742 100.996 85.989C97.5717 86.7356 94.0857 87.0503 90.3655 87.0504ZM40.6879 64.2881C41.2648 64.9467 44.6859 65.9671 45.2839 65.6963C45.3778 65.6547 45.5007 65.5489 45.5083 65.4628C45.5287 65.1584 45.2691 65.0681 45.0429 65.0245C43.6141 64.7774 42.185 64.5425 40.6879 64.2881ZM24.3607 38.3185C23.3243 37.4403 22.124 37.089 20.8316 37.0564C20.493 37.048 19.8579 36.7302 19.8853 37.3463C19.9104 37.9162 20.4565 37.3861 20.7566 37.4739C20.9082 37.5163 21.0627 37.5741 21.2179 37.5827C22.3107 37.6614 23.2638 38.3044 24.3607 38.3185ZM69.7306 57.0021C68.9826 56.3562 66.7367 56.0869 65.925 56.5082C65.7777 56.5829 65.6115 56.6757 65.702 56.8434C65.7655 56.9583 65.9931 57.1034 66.0714 57.0708C67.264 56.5385 68.4833 57.0656 69.7306 57.0021Z" fill="#F6D06D"/>
</svg>
