<svg width="382" height="322" viewBox="0 0 382 322" fill="none" xmlns="http://www.w3.org/2000/svg">
<rect width="382" height="322" fill="white"/>
<path opacity="0.08" d="M0 0H382V322H0V0Z" fill="#185951"/>
<mask id="mask0_1107:37391" style="mask-type:alpha" maskUnits="userSpaceOnUse" x="0" y="0" width="382" height="322">
<path d="M0 0H381.939V321.002H0V0Z" fill="#185951"/>
</mask>
<g mask="url(#mask0_1107:37391)">
<g opacity="0.9">
<path d="M117.559 65.0429C126.82 61.0264 136.436 58.169 146.151 55.6858C146.554 56.2455 145.834 56.1883 145.85 56.5446C146.028 56.9215 146.934 56.494 146.788 57.431C146.651 58.2881 146.088 58.5494 145.473 58.79C142.245 60.0568 138.759 60.4851 135.585 62.013C134.501 62.5352 133.472 63.4292 131.988 63.2963C131.073 63.215 130.355 64.3476 129.282 64.5934C128.611 64.747 127.941 65.1855 127.187 65.3622C124.191 66.0674 121.584 67.5236 119.383 69.6754C118.986 70.0646 118.487 70.2981 118.083 69.9822C116.982 69.1226 115.55 68.6718 115.287 66.8559C115.096 65.537 115.543 64.8648 116.446 64.2256C118.622 62.6869 121.109 61.8109 123.582 60.9172C126.473 59.8731 129.443 59.0593 132.361 58.1203C136.293 56.8553 140.296 55.9069 144.264 54.8127C144.641 54.7101 145.232 54.3324 145.418 54.8731C145.555 55.279 144.923 55.4356 144.556 55.5468C142.244 56.2492 139.903 56.8401 137.552 57.394C135.294 57.927 133.099 58.7394 130.916 59.5382C127.386 60.8313 123.781 61.9222 120.328 63.408C119.333 63.8306 118.346 64.2651 117.559 65.0429Z" fill="#F6D06D"/>
<path d="M87.0456 90.3084C85.958 90.2864 86.1688 89.0779 86.1014 88.742C85.9201 87.8273 84.6655 87.5604 84.8883 86.8509C85.2311 85.7764 85.0916 84.5067 86.2853 83.6806C88.5922 82.083 91.0897 80.8548 93.5486 79.5477C95.3331 78.6003 97.1018 77.6163 99.0467 77.0188C99.916 76.7529 100.783 76.6011 101.668 76.8433C102.579 77.0959 103.177 77.5564 103.353 78.6298C103.486 79.4221 103.867 80.1959 103.908 81.0279C103.946 81.8222 103.878 82.5688 102.879 82.7669C102.179 82.9073 101.768 83.5225 101.187 83.8676C98.8458 85.2499 96.8114 87.1402 94.1764 88.026C92.2238 88.6811 90.4005 89.6192 88.5584 90.5242C88.034 90.7884 87.4407 91.1347 87.0456 90.3084Z" fill="#F6D06D"/>
<path d="M140.322 109.965C139.879 110.181 139.593 110.32 139.323 110.454C139.313 110.696 139.49 110.693 139.628 110.757C139.912 110.884 140.36 110.509 140.491 110.922C140.652 111.417 140.003 111.309 139.815 111.582C140.112 111.977 140.592 111.606 140.904 111.845C140.767 112.952 140.04 113.326 139.067 113.604C136.424 114.36 133.861 115.341 131.485 116.771C130.589 117.311 129.303 116.867 128.55 117.73C127.589 118.827 126.252 119.359 124.997 119.668C122.828 120.2 121.251 121.642 119.388 122.634C118.865 122.911 118.659 123.628 117.953 123.623C117.725 123.624 117.301 123.699 117.393 123.41C117.708 122.423 116.823 122.285 116.441 121.755C115.728 120.773 116.293 119.739 116.858 118.886C117.746 117.542 119.096 116.655 120.512 115.98C125.93 113.395 131.514 111.236 137.36 109.832C138.25 109.618 139.219 109.226 140.322 109.965Z" fill="#F6D06D"/>
<path d="M141.645 82.7556C140.889 83.2332 140.117 83.7439 139.316 84.219C134.261 87.2187 128.929 89.6539 123.499 91.8793C121.415 92.7326 119.264 93.4242 117.291 94.5399C116.724 94.8617 116.107 94.9664 115.966 94.0039C115.933 93.7788 115.784 93.5608 115.662 93.3531C114.851 91.9744 115.143 90.7113 116.511 89.8162C117.918 88.8954 119.507 88.3956 121.079 87.8688C127.731 85.6567 134.288 83.2188 140.497 79.9187C141.284 79.5018 141.359 79.5648 141.402 80.4219C141.407 80.5133 141.475 80.634 141.552 80.6874C142.453 81.3207 142.012 81.9987 141.645 82.7556Z" fill="#F6D06D"/>
<path d="M73.367 106.818C71.0134 108.062 68.5473 108.455 66.3832 109.55C64.195 110.659 61.9013 111.575 59.889 113.03C61.803 112.115 63.7136 111.198 65.631 110.286C67.8315 109.246 70.1367 108.496 72.4396 107.722C73.5925 107.333 74.1075 107.829 74.2877 108.731C74.4629 109.612 73.9674 110.424 73.0439 110.505C71.1593 110.67 69.4813 111.497 68.025 112.47C65.4923 114.163 62.599 115.28 60.2906 117.331C59.7591 117.805 58.9794 117.936 58.3963 118.471C57.74 119.073 57.2152 119.622 57.0225 120.532C56.9105 121.061 56.9846 121.944 56.2171 121.998C55.5877 122.041 54.8724 121.859 54.5468 121.068C54.4222 120.766 54.0381 120.571 53.7671 120.332C52.1939 118.919 52.1231 117.061 53.7323 115.629C55.894 113.712 58.4371 112.353 61.0044 111.055C64.3662 109.359 67.7902 107.797 71.4548 106.849C71.996 106.704 72.5283 106.493 73.367 106.818Z" fill="#F6D06D"/>
<path d="M100.196 164.542C98.0062 162.698 98.1489 161.182 100.421 159.987C102.194 159.053 104.168 158.706 106.104 158.334C110.626 157.461 115.178 156.74 119.768 156.278C120.892 156.167 121.809 156.558 122.755 156.957C123.084 157.099 123.803 157.428 123.587 157.637C123.147 158.065 123.263 158.884 122.42 159.027C118.66 159.679 114.97 160.657 111.262 161.539C109.627 161.925 107.957 162.189 106.333 162.619C105.235 162.908 104.078 163.253 103.781 164.633C103.745 164.801 103.465 165.073 103.393 165.047C102.285 164.606 100.988 165.09 100.196 164.542Z" fill="#F6D06D"/>
<path d="M164.303 133.685C166.494 133.364 168.484 132.414 170.649 132.088C171.286 131.995 171.951 132 172.567 131.835C173.584 131.559 173.635 132.463 173.767 132.93C173.895 133.381 173.64 133.97 172.943 134.148C170.117 134.879 167.404 135.99 164.824 137.282C162.986 138.203 160.887 138.595 159.262 140.095C158.647 140.662 157.596 141.032 156.755 141.543C155.634 142.226 155.634 140.881 155.15 140.417C155.074 140.342 155.2 140.046 155.128 139.986C154.811 139.725 153.953 140.373 154.051 139.507C154.186 138.333 154.246 137.173 155.532 136.355C157.573 135.052 159.769 134.17 162.014 133.388C165.064 132.327 168.078 131.107 171.352 130.868C171.594 130.85 171.835 130.814 172.075 130.812C172.325 130.812 172.61 130.876 172.641 131.158C172.682 131.518 172.381 131.662 172.083 131.656C169.507 131.625 167.229 132.793 164.829 133.474C164.649 133.515 164.477 133.61 164.303 133.685Z" fill="#F6D06D"/>
<path d="M100.214 133.484C101.058 133.436 101.923 133.486 102.74 133.311C103.694 133.11 104.315 133.41 104.749 134.211C105.006 134.688 104.586 135.023 104.331 135.251C103.679 135.833 102.856 136.016 102.016 135.713C101.814 135.642 101.679 135.331 101.45 135.61C100.316 136.969 98.5224 136.693 97.102 137.352C96.6668 137.551 96.1099 137.625 95.6149 137.792C94.1767 138.285 92.7762 138.955 91.1873 138.268C90.8156 138.108 90.1241 137.981 89.9029 138.564C89.2391 140.347 87.5048 140.458 86.1041 141.017C83.8012 141.937 81.3739 142.52 79.1015 143.535C78.8459 143.652 78.5552 143.874 78.3426 143.579C78.0761 143.21 78.773 143.289 78.6897 142.916C78.0804 142.789 77.207 143.081 77.2157 141.877C77.2194 141.449 76.5537 141.618 76.177 141.762C75.8889 141.87 75.6025 141.961 75.469 141.593C75.31 141.151 75.737 141.183 75.9657 141.084C80.0306 139.285 84.2702 138 88.5437 136.812C92.3075 135.768 96.0712 134.723 99.8315 133.676C99.9591 133.614 100.086 133.546 100.214 133.484Z" fill="#F6D06D"/>
<path d="M125.702 140.534C125.297 140.358 127.067 139.927 125.606 139.878C125.568 139.875 125.498 139.868 125.493 139.847C125.291 138.909 124.755 138.506 123.764 138.612C123.504 138.638 123.439 136.523 123.716 136.144C124.135 135.575 124.701 135.178 125.333 134.904C128.917 133.359 132.669 132.724 136.561 132.928C138.468 133.027 139.614 134.152 140.287 135.834C140.648 136.736 140.289 137.156 139.304 137.227C138.266 137.299 137.226 137.428 136.198 137.606C135.013 137.811 133.863 138.168 132.649 138.29C131.052 138.452 129.709 139.449 128.207 139.97C127.377 140.258 126.583 140.587 125.702 140.534ZM125.719 136.393C128.105 135.659 130.497 134.93 132.942 134.368C130.789 134.25 127.277 135.209 125.719 136.393Z" fill="#F6D06D"/>
<path d="M151.573 164.978C151.046 165.328 150.727 165.543 150.242 165.864C150.585 165.878 150.754 165.933 150.864 165.879C151.771 165.429 152.186 166.093 152.445 166.7C152.72 167.35 152.38 168.013 151.784 168.328C150.813 168.846 149.803 169.314 148.757 169.659C147.317 170.133 145.824 170.504 144.505 171.231C143.128 171.99 141.572 172.554 140.733 174.102C140.338 174.836 139.509 174.763 139.153 174.028C138.96 173.627 138.669 173.412 138.35 173.168C136.33 171.636 136.481 169.416 138.789 168.198C142.044 166.477 145.617 165.708 149.203 165.062C149.892 164.942 150.586 164.593 151.573 164.978Z" fill="#F6D06D"/>
<path d="M46.5548 146.395C45.9598 147.083 46.2636 147.914 45.8784 148.54C44.9201 147.934 44.7702 147.016 45.3844 145.896C46.0536 144.682 47.1898 143.994 48.3919 143.588C50.956 142.725 53.4286 141.609 56.2196 141.349C57.3122 141.247 58.5298 140.622 59.7113 140.379C63.0788 139.689 66.4692 139.117 69.8535 138.511C70.5328 138.388 71.2225 138.385 71.9078 138.511C72.2581 138.573 72.5196 138.74 72.5926 139.103C72.6712 139.495 72.4404 139.715 72.1094 139.839C71.616 140.025 71.1322 140.247 70.6221 140.349C65.913 141.334 61.1793 142.216 56.4887 143.304C54.6615 143.727 52.8821 144.48 51.2625 145.467C50.5141 145.922 50.1554 146.814 49.6688 147.547C49.5374 147.745 49.5809 148.207 49.1451 148.074C48.3062 147.818 47.5691 147.642 47.4358 148.904C47.404 149.192 47.0436 149.052 46.8426 148.889C46.4851 148.601 46.0849 148.259 46.4108 147.788C46.7091 147.363 46.6556 146.969 46.5548 146.395Z" fill="#F6D06D"/>
<path d="M101.322 111.275C101.241 110.963 101.151 110.841 100.881 110.981C99.9068 111.491 98.9611 112.077 97.9395 112.448C97.3199 112.673 96.6207 113.617 95.8747 112.543C95.7554 112.373 95.6227 112.594 95.6028 112.763C95.5517 113.157 95.2916 113.259 94.9334 113.325C94.3261 113.438 93.9002 113.779 93.554 114.345C92.9178 115.394 91.891 115.307 91.3615 114.21C91.2963 114.08 91.2471 113.771 91.1824 113.827C89.6911 115.16 90.5596 112.461 89.6085 112.914C89.5306 112.494 89.638 112.13 89.8824 111.776C90.4481 110.97 91.2916 110.589 92.1645 110.257C95.4791 108.998 98.96 108.7 102.449 108.49C103.289 108.438 104.016 109.008 104.77 109.337C105.214 109.529 105.176 110.004 105.075 110.396C104.935 110.937 104.699 110.809 104.468 110.44C103.845 111.099 102.986 111.199 102.173 111.413C101.824 111.516 101.483 111.707 101.322 111.275Z" fill="#F6D06D"/>
<path d="M150.65 102.152C150.047 102.315 149.68 103.148 148.78 102.486C148.13 102.005 148.492 101.802 148.759 101.485C148.186 101.085 147.871 101.898 147.293 101.629C147.815 100.611 148.821 100.058 149.468 99.204C149.495 99.1858 149.521 99.1614 149.544 99.134C150.679 99.1202 151.544 98.402 152.522 97.9777C152.925 97.8032 153.281 97.4904 153.694 97.372C157.03 96.4281 160.235 95.0778 163.627 94.2969C166.286 93.6876 168.893 92.8486 171.586 92.3724C172.207 92.2643 172.821 92.0872 173.808 92.2572C172.516 92.7564 171.536 93.1333 170.553 93.5137C170.586 93.4949 170.619 93.4699 170.652 93.4512C168.942 93.4014 167.47 94.3088 165.803 94.5052C165.892 95.0103 166.201 94.8218 166.374 94.9143C166.663 95.0694 166.688 95.3521 166.603 95.6476C166.562 95.7936 166.528 96.0213 166.327 95.9281C165.428 95.5003 165.093 96.2608 164.662 96.7258C164.188 97.242 163.651 97.2921 163.028 97.1821C162.072 97.0093 161.248 97.208 160.663 98.0504C160.41 98.1232 160.157 98.196 159.9 98.2659C158.904 98.0176 156.477 98.8567 155.949 99.6308C155.529 99.3131 154.726 99.9435 154.532 99.0648C154.747 98.4763 154.835 98.1837 153.942 98.3947C152.813 98.6581 152.087 99.6965 150.909 99.7901C150.733 99.8055 150.625 99.9479 150.686 100.139C150.768 100.388 150.991 100.441 151.159 100.297C151.879 99.6672 152.883 99.6427 153.634 99.1022C153.952 98.8749 154.243 98.6881 154.576 99.0609C153.682 100.592 151.879 100.645 150.567 101.494C150.393 101.605 150.167 100.722 149.945 101.403C149.843 101.725 150.119 102.167 150.65 102.152ZM160.973 96.4186C160.947 96.2975 160.914 96.1769 160.887 96.0558C159.862 96.3829 158.84 96.7066 157.822 97.0457C157.702 97.0847 157.483 97.1513 157.555 97.3633C157.606 97.5108 157.769 97.6769 157.912 97.5758C158.831 96.9383 160.058 97.0653 160.973 96.4186Z" fill="#F6D06D"/>
<path d="M119.814 181.807C119.188 182.172 118.942 182.763 118.725 183.355C118.613 183.669 118.529 183.901 118.162 183.762C117.828 183.633 117.82 183.317 117.894 183.042C118.082 182.338 118.613 181.823 119.157 181.459C121.235 180.065 123.571 179.307 126.025 178.886C126.752 178.763 127.515 178.734 128.204 178.496C129.454 178.061 130.551 178.557 131.624 178.992C132.126 179.191 131.757 179.784 131.601 180.136C131.511 180.34 131.124 180.551 130.901 180.527C128.726 180.268 127.067 181.786 125.082 182.216C124.427 182.359 123.882 183.299 123.026 183.501C122.35 183.655 121.732 184.045 120.969 183.747C120.529 183.577 120.416 184.239 120.041 184.367C119.851 184.434 119.662 184.555 119.478 184.435C119.293 184.315 119.198 183.991 119.318 183.911C120.13 183.352 119.427 182.448 119.814 181.807Z" fill="#F6D06D"/>
<path d="M100.214 133.484C100.09 133.549 99.9592 133.614 99.8351 133.679C97.6905 133.73 95.5986 134.204 93.5404 134.701C90.7103 135.382 87.92 136.266 85.1631 137.206C82.8305 138.002 80.3626 138.411 78.1655 139.635C77.272 140.131 76.2519 140.41 75.0273 140.233C75.759 138.972 77.0559 138.856 78.1097 138.418C80.8895 137.27 83.8055 136.521 86.7039 135.752C91.9344 134.36 97.1195 132.739 102.559 132.291C102.87 132.267 103.202 132.15 103.502 132.617C102.491 133.282 101.244 133.033 100.214 133.484Z" fill="#F6D06D"/>
<path d="M147.217 150.793C146.625 150.757 146.448 151.842 145.988 151.252C145.593 150.752 146.257 150.314 146.687 150.045C149.352 148.382 152.239 147.917 155.295 148.59C155.757 148.692 156.439 148.828 156.338 149.552C156.246 150.197 155.624 150.112 155.168 150.177C153.262 150.464 151.382 150.818 149.858 152.142C149.475 152.473 149.047 152.352 148.62 152.215C148.474 152.168 148.298 152.148 148.145 152.171C146.933 152.36 146.402 152.042 147.217 150.793Z" fill="#F6D06D"/>
<path d="M162.523 93.6561C161.463 94.711 159.962 94.5226 158.687 94.9665C157.744 95.2927 156.795 95.7714 155.735 95.7661C155.469 95.764 155.166 95.9994 155.033 95.6375C154.926 95.3494 155.08 95.0827 155.4 94.9788C157.343 94.3562 159.273 93.6999 161.285 93.3276C161.761 93.2384 162.122 93.5582 162.533 93.7058L162.523 93.6561Z" fill="#F6D06D"/>
<path d="M162.53 93.703C162.626 93.3528 162.687 93.0025 163.14 92.8932C165.709 92.2665 168.271 91.5992 170.909 91.2861C171.112 91.2589 171.4 91.0406 171.499 91.4149C171.561 91.6532 171.383 91.789 171.166 91.8334C168.364 92.4108 165.578 93.0534 162.82 93.8296C162.743 93.8522 162.62 93.7205 162.52 93.6596C162.523 93.6562 162.53 93.703 162.53 93.703Z" fill="#F6D06D"/>
<path d="M149.543 99.1278C149.517 99.1523 149.491 99.1768 149.467 99.1978C148.954 99.477 148.314 99.5108 147.926 100.035C147.788 100.222 147.602 100.491 147.35 100.244C147.124 100.02 147.348 99.8232 147.526 99.6526C149.135 98.1159 151.042 97.0153 152.995 95.9931C153.327 95.8184 153.896 95.8004 154.072 96.1869C154.283 96.6432 153.73 96.7675 153.438 96.8659C151.983 97.3508 150.771 98.2482 149.543 99.1278Z" fill="#F6D06D"/>
<path d="M170.655 93.4416C170.622 93.4666 170.589 93.4853 170.556 93.504C171.284 93.434 172.064 93.8911 172.748 93.2078C172.862 93.0934 173.545 92.9101 173.624 93.4476C173.703 93.9566 173.153 93.9668 172.845 93.9874C171.447 94.0717 170.132 94.383 168.84 95.2082C168.832 94.6075 168.58 94.006 169.53 94.0812C170.046 94.1183 170.258 93.6092 170.655 93.4416Z" fill="#F6D06D"/>
<path d="M159.903 98.2566C160.156 98.1838 160.409 98.111 160.666 98.041C160.891 98.0498 161.12 98.0551 161.345 98.0639C161.364 98.1382 161.386 98.2091 161.405 98.2833C160.621 98.5799 159.84 98.8729 159.059 99.1723C159.008 99.0945 158.963 99.0161 158.912 98.9383C159.24 98.707 159.571 98.4787 159.903 98.2566Z" fill="#F6D06D"/>
<path d="M151.416 101.974C151.774 101.18 152.597 101.143 153.255 100.857C153.902 100.573 154.574 100.34 155.233 100.089C155.122 100.409 154.923 100.604 154.589 100.725C153.529 101.122 152.474 101.552 151.416 101.974Z" fill="#F6D06D"/>
</g>
<path d="M180.212 98.7394C177.491 99.3504 174.825 100.35 172.214 101.628C172.103 101.683 171.936 101.739 171.825 101.85C153.663 108.292 139.223 122.4 133.169 139.673C128.67 152.392 128.892 166.944 133.724 180.552C138.501 194.104 147.387 205.545 158.773 212.932C168.326 219.097 179.823 222.374 191.987 222.374C209.205 222.374 225.7 215.82 237.364 204.434C247.25 194.77 253.693 181.274 255.415 166.555C257.137 151.892 254.137 137.285 246.973 125.399C241.252 115.957 231.366 108.348 217.647 102.961C208.649 99.4059 199.54 97.5175 191.265 97.5175C187.432 97.5175 183.711 97.9619 180.212 98.7394ZM198.763 106.904C198.985 106.959 199.263 106.96 199.485 106.96C199.929 106.96 200.318 106.904 200.707 106.793C202.706 107.182 204.761 107.626 206.872 108.181C215.203 110.403 226.922 115.013 235.476 124.011C242.64 131.564 247.028 143.339 247.473 156.336C247.917 169.11 244.251 181.607 237.308 191.549C227.644 205.323 210.315 213.876 192.098 213.876C184.878 213.876 177.935 212.599 171.548 209.988C149.553 201.213 135.279 175.386 139.001 151.17C140.834 139.451 147.11 128.398 156.663 120.123C166.16 111.903 177.991 107.071 189.932 106.515C190.765 106.46 191.654 106.46 192.487 106.46C194.597 106.515 196.763 106.682 198.763 106.904Z" fill="#185951"/>
<path d="M185.266 92.8521C187.099 92.8521 188.654 91.7968 189.321 90.075L195.43 74.3569L203.428 87.7979C204.206 89.0753 205.483 89.7973 206.927 89.7973C208.482 89.7973 209.982 88.9087 210.76 87.5757C211.482 86.2982 211.426 84.8542 210.649 83.5212L198.207 62.6933C197.43 61.4158 196.152 60.6382 194.708 60.6382C192.931 60.6382 191.265 61.8046 190.598 63.5264L181.267 87.4646C180.767 88.742 180.878 89.964 181.6 91.0192C182.434 92.1856 183.822 92.8521 185.266 92.8521Z" fill="#185951"/>
<path d="M250.36 103.627C250.471 103.627 250.582 103.627 250.693 103.627L266.3 102.627L261.024 109.848C260.135 111.07 259.969 112.514 260.635 113.791C261.357 115.18 262.968 116.124 264.634 116.124C266.023 116.124 267.3 115.457 268.078 114.346L278.464 100.072C279.297 98.9061 279.408 97.3509 278.686 95.9624C277.964 94.5183 276.52 93.5741 275.076 93.5741C275.02 93.5741 274.909 93.5741 274.854 93.5741L250.471 95.1848C247.805 95.3514 246.417 97.6286 246.472 99.6836C246.528 102.016 248.194 103.627 250.36 103.627Z" fill="#185951"/>
<path d="M271.41 175.22C271.91 177.108 273.576 178.441 275.409 178.441C276.131 178.441 276.853 178.219 277.52 177.83L290.96 169.777C292.349 168.943 293.126 167.499 292.96 165.944C292.849 164.278 291.682 162.778 290.072 162.167L275.075 156.28C274.576 156.058 274.076 156.002 273.576 156.002C271.743 156.002 270.243 157.391 269.855 159.335C269.466 161.501 270.521 163.5 272.521 164.278L279.352 166.944L273.187 170.61C271.632 171.609 270.91 173.387 271.41 175.22Z" fill="#185951"/>
<path d="M227.422 219.319C225.811 219.319 224.312 220.486 223.701 222.207C223.09 224.04 223.645 225.984 225.2 227.151L243.695 241.203C244.362 241.702 245.139 241.98 245.917 241.98C247.139 241.98 248.361 241.314 249.194 240.258C250.027 239.203 250.36 237.814 250.027 236.593L245.584 219.653C245.084 217.82 243.584 216.598 241.696 216.598C240.307 216.598 238.974 217.209 238.197 218.264C237.419 219.264 237.197 220.541 237.53 221.819L238.919 227.04L229.81 220.152C229.033 219.597 228.255 219.319 227.422 219.319Z" fill="#185951"/>
<path d="M197.54 233.649C196.096 233.649 194.819 234.371 194.097 235.704L188.709 245.035L185.988 233.816C185.543 231.927 183.988 230.761 182.1 230.761C180.711 230.761 179.434 231.372 178.601 232.427C177.823 233.427 177.546 234.649 177.879 235.982L183.1 257.254C183.544 259.087 185.155 260.364 187.154 260.364C188.709 260.364 190.042 259.587 190.764 258.309L201.428 239.981C202.206 238.648 202.206 237.204 201.484 235.926C200.595 234.538 199.096 233.649 197.54 233.649Z" fill="#185951"/>
<path d="M141.444 218.042C141.278 216.098 139.722 214.043 137.168 214.043C136.89 214.043 136.612 214.098 136.279 214.154C133.779 214.654 131.28 214.876 128.725 214.876C126.337 214.876 123.893 214.654 121.505 214.21L134.946 203.212C136.279 202.102 136.723 200.546 136.223 199.047C135.612 197.325 133.835 196.103 132.002 196.103C131.002 196.103 130.058 196.436 129.281 197.103L109.786 213.043C108.73 213.932 108.231 215.209 108.453 216.542C108.73 218.097 109.897 219.542 111.396 220.097C116.895 222.207 122.671 223.263 128.614 223.263C131.836 223.263 135.113 222.93 138.334 222.319C140.389 221.819 141.666 220.152 141.444 218.042Z" fill="#185951"/>
<path d="M114.284 175.109C114.729 175.275 115.229 175.331 115.673 175.331C117.617 175.331 119.172 173.887 119.505 171.832C119.838 169.721 118.728 167.722 116.728 167.055L109.397 164.611L115.062 162.445C117.061 161.668 118.172 159.668 117.728 157.502C117.339 155.558 115.84 154.169 114.007 154.169C113.507 154.169 113.007 154.281 112.507 154.447L95.8448 160.834C94.0675 161.501 92.9565 163.112 92.9565 164.944C93.0121 166.722 94.1229 168.221 95.9002 168.832L114.284 175.109Z" fill="#185951"/>
<path d="M138.778 108.515C140.888 108.515 142.61 106.904 142.888 104.682C143.166 102.572 141.944 100.795 139.833 100.239L121.782 95.7958C121.449 95.6847 121.06 95.6848 120.727 95.6848C119.227 95.6848 117.894 96.4623 117.117 97.7397C116.339 99.0172 116.339 100.572 117.006 101.905L128.336 122.9C129.058 124.233 130.336 125.01 131.78 125.01C133.279 125.01 134.779 124.177 135.557 122.844C136.334 121.567 136.334 120.067 135.612 118.734L128.836 106.182L137.612 108.348C138.056 108.515 138.445 108.515 138.778 108.515Z" fill="#185951"/>
</g>
</svg>
