<svg width="382" height="322" viewBox="0 0 382 322" fill="none" xmlns="http://www.w3.org/2000/svg">
<rect width="382" height="322" fill="white"/>
<path opacity="0.08" d="M0 0H382V322H0V0Z" fill="#185951"/>
<mask id="mask0_1107:37392" style="mask-type:alpha" maskUnits="userSpaceOnUse" x="0" y="0" width="382" height="322">
<path d="M0 0H382V322H0V0Z" fill="#185951"/>
</mask>
<g mask="url(#mask0_1107:37392)">
<path d="M314.585 114.469C313.331 114.845 312.862 114.52 313.039 113.219C313.33 111.09 313.851 109.001 314.898 107.104C315.17 106.615 314.836 106.283 314.845 105.875C314.866 104.973 315.075 104.105 315.119 103.205C315.267 100.245 313.387 98.7016 311.32 97.2073C306.997 94.0745 302.45 94.5578 297.747 96.202C294.28 97.4183 291.401 99.5801 288.426 101.603C285.15 103.833 281.736 105.808 278.03 107.238C271.769 109.653 265.362 107.506 261.394 101.786C259.354 98.8452 257.967 95.6006 257.04 92.2064C256.05 88.5827 253.561 86.9566 250.194 86.3591C245.67 85.5583 242.024 87.3425 238.88 90.481C236.468 92.8891 234.457 95.6322 232.243 98.204C227.44 103.777 222.738 104.291 216.023 102.339C213.562 101.624 212.369 99.827 211.582 97.6214C210.875 95.6432 210.241 93.6426 209.574 91.6503C209.425 91.1993 209.293 90.7326 208.889 90.425C205.745 88.0006 202.553 85.6352 198.642 84.5698C194.612 83.4707 189.122 85.1883 186.596 89.5685C184.718 92.8271 182.784 96.059 180.886 99.3081C180.602 99.7913 180.306 100.273 179.831 100.561C179.376 100.84 178.882 100.857 178.377 100.539C177.893 100.236 177.97 99.9386 178.235 99.5629C178.331 99.4252 178.337 99.2437 178.203 99.1301C176.682 97.8578 177.278 96.2704 177.75 94.8699C178.807 91.7358 180.703 89.0098 182.274 86.1254C183.008 84.7746 183.767 83.441 184.707 82.2048C186.795 79.455 189.548 77.96 193.106 77.5251C192.426 78.1163 191.565 77.8726 191.017 78.4115C192.574 78.2122 194.116 77.9818 195.688 77.9306C195.598 77.5277 195.097 77.9004 195.034 77.3508C196.397 77.4406 197.761 77.3273 198.86 78.3313C199.041 78.497 199.126 78.4414 199.316 78.4412C200.558 78.4387 201.577 79.1372 202.66 79.6145C203.107 79.8123 203.165 80.2429 202.843 80.7656C203.762 80.1307 204.396 80.5644 205.078 81.0658C206.131 81.8343 207.251 82.5043 208.315 83.2589C210.698 84.9545 212.165 87.326 213.148 90.0152C213.692 91.5017 214.16 93.024 214.616 94.5407C214.819 95.2213 215.241 95.5814 215.884 95.8257C220.417 97.5572 224.122 96.7478 227.495 93.2887C229.545 91.1852 231.245 88.7852 233.161 86.5681C235.383 84.0002 237.786 81.6605 241.113 80.5706C242.422 80.1439 243.787 80.1185 245.144 79.982C247.169 79.7773 248.971 80.022 250.776 80.7681C256.018 82.9265 259.623 86.5691 261.228 92.1116C261.789 94.0427 262.575 95.9088 263.26 97.8033C264.451 101.103 268.052 102.566 271.092 102.34C274.56 102.08 277.571 100.545 280.492 98.8642C283.75 96.9888 286.818 94.7683 290.128 92.986C294.07 90.8608 298.361 89.6369 302.881 90.0866C305.149 90.3103 307.369 90.9424 309.374 92.295C310.493 93.047 311.728 93.6807 312.882 94.4303C314.604 95.5481 316.06 96.9637 317.253 98.5812C319.477 101.592 320.064 104.966 318.954 108.589C318.383 110.455 317.454 112.138 316.407 113.773C316.079 114.288 315.647 114.689 315.195 115.061C314.992 115.229 314.672 115.569 314.377 115.217C314.133 114.919 314.841 114.89 314.585 114.469ZM275.635 106.157C276.239 106.412 276.536 106.299 276.832 106.19C279.458 105.196 282.001 104.055 284.392 102.539C287.621 100.494 290.719 98.2396 294.089 96.4137C294.649 96.1087 295.454 96.1307 295.916 95.2688C294.509 95.6381 293.376 96.1545 292.32 96.8495C289.94 98.4144 287.59 100.018 285.188 101.548C282.249 103.414 279.105 104.894 275.635 106.157ZM221.491 101.586C222.255 102.01 225.796 101.81 226.261 101.352C226.334 101.28 226.413 101.139 226.39 101.055C226.305 100.762 226.032 100.765 225.806 100.801C224.388 101.053 222.975 101.317 221.491 101.586ZM197.358 82.6705C196.09 82.1953 194.85 82.2719 193.634 82.68C193.315 82.7871 192.613 82.7034 192.85 83.2743C193.069 83.8026 193.397 83.1179 193.707 83.0987C193.863 83.0871 194.026 83.0892 194.174 83.0445C195.221 82.7477 196.33 83.0296 197.358 82.6705ZM246.086 84.8629C245.166 84.5085 242.979 85.0175 242.366 85.6899C242.255 85.8102 242.131 85.954 242.273 86.0812C242.372 86.1678 242.634 86.2273 242.696 86.17C243.626 85.2637 244.944 85.3462 246.086 84.8629Z" fill="#F6D06D"/>
<path d="M318.746 146.697C317.492 147.072 317.024 146.748 317.2 145.446C317.492 143.318 318.012 141.228 319.06 139.331C319.331 138.842 318.998 138.511 319.007 138.103C319.028 137.201 319.236 136.332 319.281 135.432C319.428 132.473 317.549 130.929 315.481 129.435C311.158 126.302 306.612 126.785 301.909 128.43C298.442 129.646 295.563 131.808 292.587 133.83C289.311 136.061 285.898 138.036 282.191 139.465C275.93 141.881 269.523 139.734 265.555 134.013C263.516 131.073 262.128 127.828 261.202 124.434C260.212 120.81 257.723 119.184 254.356 118.587C249.832 117.786 246.186 119.57 243.041 122.709C240.63 125.117 238.619 127.86 236.404 130.432C231.602 136.005 226.899 136.519 220.184 134.567C217.723 133.852 216.53 132.055 215.744 129.849C215.036 127.871 214.403 125.87 213.736 123.878C213.586 123.427 213.454 122.96 213.051 122.653C209.907 120.228 206.715 117.863 202.804 116.797C198.774 115.698 193.283 117.416 190.758 121.796C188.879 125.055 186.946 128.287 185.047 131.536C184.764 132.019 184.467 132.5 183.992 132.789C183.537 133.067 183.044 133.085 182.539 132.766C182.055 132.464 182.132 132.166 182.397 131.79C182.493 131.653 182.498 131.471 182.364 131.358C180.843 130.085 181.44 128.498 181.912 127.098C182.968 123.963 184.865 121.237 186.436 118.353C187.169 117.002 187.929 115.669 188.869 114.432C190.956 111.683 193.71 110.188 197.268 109.753C196.588 110.344 195.726 110.1 195.178 110.639C196.735 110.44 198.278 110.209 199.85 110.158C199.759 109.755 199.258 110.128 199.195 109.578C200.558 109.668 201.923 109.555 203.021 110.559C203.203 110.725 203.288 110.669 203.477 110.669C204.72 110.666 205.739 111.365 206.821 111.842C207.269 112.04 207.326 112.471 207.004 112.993C207.924 112.358 208.557 112.792 209.24 113.293C210.293 114.062 211.413 114.732 212.477 115.487C214.859 117.182 216.326 119.554 217.309 122.243C217.853 123.729 218.321 125.252 218.778 126.768C218.981 127.449 219.403 127.809 220.045 128.053C224.578 129.785 228.284 128.975 231.657 125.516C233.707 123.413 235.406 121.013 237.322 118.796C239.545 116.228 241.947 113.888 245.275 112.798C246.583 112.372 247.949 112.346 249.305 112.21C251.33 112.005 253.132 112.25 254.938 112.996C260.18 115.154 263.785 118.797 265.39 124.339C265.95 126.27 266.737 128.136 267.422 130.031C268.613 133.33 272.214 134.794 275.253 134.567C278.722 134.307 281.732 132.772 284.654 131.092C287.912 129.216 290.979 126.996 294.289 125.214C298.232 123.088 302.522 121.865 307.042 122.314C309.31 122.538 311.53 123.17 313.536 124.523C314.655 125.275 315.889 125.908 317.043 126.658C318.765 127.776 320.222 129.191 321.415 130.809C323.639 133.819 324.226 137.194 323.116 140.817C322.544 142.683 321.615 144.365 320.569 146.001C320.241 146.516 319.808 146.917 319.356 147.289C319.153 147.457 318.833 147.796 318.538 147.445C318.295 147.147 319.003 147.117 318.746 146.697ZM279.797 138.385C280.401 138.639 280.698 138.526 280.993 138.418C283.62 137.424 286.163 136.282 288.553 134.766C291.782 132.721 294.88 130.467 298.251 128.641C298.811 128.336 299.615 128.358 300.078 127.496C298.671 127.866 297.537 128.382 296.482 129.077C294.102 130.642 291.752 132.246 289.35 133.776C286.411 135.641 283.267 137.121 279.797 138.385ZM225.653 133.813C226.417 134.238 229.958 134.037 230.423 133.579C230.496 133.508 230.574 133.367 230.552 133.283C230.467 132.989 230.194 132.993 229.968 133.028C228.55 133.281 227.136 133.545 225.653 133.813ZM201.52 114.898C200.252 114.423 199.012 114.5 197.795 114.908C197.476 115.015 196.775 114.931 197.012 115.502C197.23 116.03 197.558 115.345 197.868 115.326C198.024 115.315 198.188 115.317 198.336 115.272C199.382 114.975 200.492 115.257 201.52 114.898ZM250.247 117.09C249.328 116.736 247.141 117.245 246.528 117.917C246.416 118.038 246.293 118.182 246.435 118.309C246.533 118.395 246.796 118.455 246.857 118.398C247.787 117.491 249.105 117.574 250.247 117.09Z" fill="#F6D06D"/>
<path d="M285.177 165.998C285.177 165.998 243 215.15 190.969 215.15C138.938 215.15 96.7622 165.998 96.7622 165.998C96.7622 165.998 138.938 116.847 190.969 116.847C243 116.847 285.177 165.998 285.177 165.998Z" stroke="#185951" stroke-width="8" stroke-linecap="round" stroke-linejoin="round"/>
<path d="M224.368 123.462C231.613 131.457 236.025 142.065 236.025 153.71C236.025 178.597 215.856 198.766 190.969 198.766C166.082 198.766 145.914 178.597 145.914 153.71C145.914 142.106 150.296 131.527 157.501 123.544" stroke="#185951" stroke-width="8" stroke-linecap="round" stroke-linejoin="round"/>
<path d="M178.963 141.704C182.147 138.519 186.466 136.731 190.969 136.731C195.472 136.731 199.791 138.519 202.976 141.704C206.16 144.888 207.949 149.207 207.949 153.71C207.949 158.214 206.16 162.533 202.976 165.717C199.791 168.901 195.472 170.69 190.969 170.69C186.466 170.69 182.147 168.901 178.963 165.717C175.778 162.533 173.989 158.214 173.989 153.71C173.989 149.207 175.778 144.888 178.963 141.704Z" stroke="#185951" stroke-width="7"/>
</g>
</svg>
