<svg width="164" height="33" viewBox="0 0 164 33" fill="none" xmlns="http://www.w3.org/2000/svg">
<path d="M157.674 10.2648H161.51L156.451 24.1639C155.005 28.1668 152.642 29.9181 149.112 29.7235V26.3877C151.086 26.4155 152.086 25.5816 152.754 23.7191L147.055 10.2648H150.974L154.588 19.605L157.674 10.2648Z" fill="#7D8281"/>
<path d="M140.595 9.87564C143.541 9.87564 145.848 11.9327 145.848 15.6299V24.1639H142.262V16.0746C142.262 14.1844 141.123 13.2114 139.51 13.2114C137.759 13.2114 136.453 14.2399 136.453 16.6584V24.1639H132.867V10.2648H136.453V11.8215C137.287 10.5706 138.732 9.87564 140.595 9.87564Z" fill="#7D8281"/>
<path d="M126.029 10.2648H129.615V24.1639H126.029V22.5238C125.028 23.7747 123.527 24.5531 121.498 24.5531C117.801 24.5531 114.743 21.3563 114.743 17.2144C114.743 13.0724 117.801 9.87564 121.498 9.87564C123.527 9.87564 125.028 10.654 126.029 11.9049V10.2648ZM122.165 21.1339C124.389 21.1339 126.029 19.5494 126.029 17.2144C126.029 14.8793 124.389 13.2948 122.165 13.2948C119.969 13.2948 118.329 14.8793 118.329 17.2144C118.329 19.5494 119.969 21.1339 122.165 21.1339Z" fill="#7D8281"/>
<path d="M106.154 9.87564C109.879 9.87564 112.937 13.0724 112.937 17.2144C112.937 21.3563 109.879 24.5531 106.154 24.5531C104.125 24.5531 102.651 23.8025 101.651 22.5238V29.7235H98.0647V10.2648H101.651V11.9049C102.651 10.6262 104.125 9.87564 106.154 9.87564ZM105.487 21.1339C107.711 21.1339 109.351 19.5494 109.351 17.2144C109.351 14.8793 107.711 13.2948 105.487 13.2948C103.291 13.2948 101.651 14.8793 101.651 17.2144C101.651 19.5494 103.291 21.1339 105.487 21.1339Z" fill="#7D8281"/>
<path d="M89.7652 9.87564C92.9342 9.87564 95.0191 12.1273 95.0191 15.6021V24.1639H91.4331V15.8522C91.4331 14.2122 90.5991 13.2114 89.098 13.2114C87.5136 13.2114 86.5128 14.2677 86.5128 16.3526V24.1639H82.9269V15.8522C82.9269 14.2122 82.0929 13.2114 80.5918 13.2114C79.0629 13.2114 77.9788 14.2677 77.9788 16.3526V24.1639H74.3928V10.2648H77.9788V11.7381C78.7571 10.5706 80.0636 9.87564 81.8427 9.87564C83.5662 9.87564 84.8449 10.5984 85.6233 11.8771C86.485 10.6262 87.8749 9.87564 89.7652 9.87564Z" fill="#7D8281"/>
<path d="M64.5035 24.5531C60.4172 24.5531 57.1648 21.3563 57.1648 17.2144C57.1648 13.0724 60.4172 9.87564 64.5035 9.87564C68.5898 9.87564 71.87 13.0724 71.87 17.2144C71.87 21.3563 68.5898 24.5531 64.5035 24.5531ZM64.5035 21.0505C66.644 21.0505 68.2841 19.466 68.2841 17.2144C68.2841 14.9627 66.644 13.3782 64.5035 13.3782C62.3908 13.3782 60.7508 14.9627 60.7508 17.2144C60.7508 19.466 62.3908 21.0505 64.5035 21.0505Z" fill="#7D8281"/>
<path d="M49.9259 24.5531C45.7006 24.5531 42.5872 21.3563 42.5872 17.2144C42.5872 13.0724 45.7006 9.87564 49.9259 9.87564C52.6501 9.87564 55.0129 11.3211 56.1527 13.4616L53.0671 15.2685C52.5111 14.1288 51.3158 13.406 49.8981 13.406C47.7576 13.406 46.1731 14.9905 46.1731 17.2144C46.1731 19.4104 47.7576 20.9949 49.8981 20.9949C51.3436 20.9949 52.5389 20.2999 53.0949 19.1602L56.2083 20.9393C55.0129 23.1076 52.6501 24.5531 49.9259 24.5531Z" fill="#7D8281"/>
<path fill-rule="evenodd" clip-rule="evenodd" d="M11.9842 2.78571C10.7848 2.78571 9.8125 3.758 9.8125 4.95738V11.7404H2.90434C1.70496 11.7404 0.732666 12.7127 0.732666 13.9121V29.9239C0.732666 31.1232 1.70496 32.0955 2.90434 32.0955H18.7259C19.9253 32.0955 20.8976 31.1232 20.8976 29.9239V23.1409H27.8057C29.0051 23.1409 29.9774 22.1686 29.9774 20.9692V4.95738C29.9774 3.758 29.0051 2.78571 27.8057 2.78571H11.9842ZM20.8976 23.1409V13.9121C20.8976 12.7127 19.9253 11.7404 18.7259 11.7404H9.8125V20.9692C9.8125 22.1686 10.7848 23.1409 11.9842 23.1409H20.8976Z" fill="#7D8281"/>
</svg>
