<svg width="155" height="33" viewBox="0 0 155 33" fill="none" xmlns="http://www.w3.org/2000/svg">
<path d="M153.084 15.9928L149.437 16.2172C149.375 15.9055 149.241 15.6249 149.035 15.3755C148.829 15.1199 148.558 14.9173 148.221 14.7677C147.891 14.6118 147.495 14.5339 147.034 14.5339C146.416 14.5339 145.896 14.6648 145.472 14.9266C145.048 15.1823 144.836 15.5252 144.836 15.9553C144.836 16.2983 144.973 16.5882 145.247 16.8251C145.522 17.062 145.992 17.2522 146.66 17.3955L149.259 17.9193C150.656 18.2061 151.697 18.6674 152.383 19.3033C153.069 19.9393 153.412 20.7747 153.412 21.8097C153.412 22.7511 153.134 23.5772 152.579 24.2879C152.031 24.9987 151.276 25.5536 150.316 25.9526C149.362 26.3454 148.262 26.5418 147.015 26.5418C145.113 26.5418 143.598 26.1459 142.47 25.3541C141.348 24.556 140.69 23.4712 140.497 22.0996L144.415 21.8938C144.534 22.4737 144.82 22.9163 145.275 23.2218C145.731 23.5211 146.314 23.6707 147.024 23.6707C147.723 23.6707 148.284 23.5367 148.708 23.2686C149.138 22.9942 149.356 22.642 149.362 22.2118C149.356 21.8502 149.203 21.554 148.904 21.3234C148.605 21.0865 148.143 20.9056 147.52 20.781L145.032 20.2853C143.629 20.0047 142.585 19.5184 141.899 18.8264C141.22 18.1344 140.88 17.2522 140.88 16.1798C140.88 15.2571 141.129 14.4622 141.628 13.795C142.133 13.1279 142.841 12.6136 143.751 12.252C144.668 11.8904 145.74 11.7096 146.968 11.7096C148.782 11.7096 150.21 12.093 151.251 12.8599C152.299 13.6267 152.91 14.671 153.084 15.9928Z" fill="#7D8281"/>
<path d="M138.296 15.9928L134.649 16.2172C134.587 15.9055 134.453 15.6249 134.247 15.3755C134.041 15.1199 133.77 14.9173 133.433 14.7677C133.103 14.6118 132.707 14.5339 132.246 14.5339C131.629 14.5339 131.108 14.6648 130.684 14.9266C130.26 15.1823 130.048 15.5252 130.048 15.9553C130.048 16.2983 130.185 16.5882 130.46 16.8251C130.734 17.062 131.205 17.2522 131.872 17.3955L134.472 17.9193C135.868 18.2061 136.909 18.6674 137.595 19.3033C138.281 19.9393 138.624 20.7747 138.624 21.8097C138.624 22.7511 138.346 23.5772 137.791 24.2879C137.243 24.9987 136.488 25.5536 135.528 25.9526C134.574 26.3454 133.474 26.5418 132.227 26.5418C130.325 26.5418 128.81 26.1459 127.682 25.3541C126.56 24.556 125.902 23.4712 125.709 22.0996L129.627 21.8938C129.746 22.4737 130.032 22.9163 130.488 23.2218C130.943 23.5211 131.526 23.6707 132.236 23.6707C132.935 23.6707 133.496 23.5367 133.92 23.2686C134.35 22.9942 134.568 22.642 134.574 22.2118C134.568 21.8502 134.415 21.554 134.116 21.3234C133.817 21.0865 133.356 20.9056 132.732 20.781L130.244 20.2853C128.842 20.0047 127.797 19.5184 127.112 18.8264C126.432 18.1344 126.092 17.2522 126.092 16.1798C126.092 15.2571 126.342 14.4622 126.84 13.795C127.345 13.1279 128.053 12.6136 128.963 12.252C129.88 11.8904 130.952 11.7096 132.18 11.7096C133.995 11.7096 135.422 12.093 136.463 12.8599C137.511 13.6267 138.122 14.671 138.296 15.9928Z" fill="#7D8281"/>
<path d="M117.152 26.5418C115.674 26.5418 114.402 26.2425 113.336 25.644C112.276 25.0392 111.459 24.1851 110.886 23.0815C110.312 21.9718 110.025 20.6594 110.025 19.1444C110.025 17.6668 110.312 16.37 110.886 15.254C111.459 14.138 112.267 13.2682 113.308 12.6448C114.355 12.0213 115.584 11.7096 116.993 11.7096C117.94 11.7096 118.822 11.8623 119.639 12.1678C120.462 12.4671 121.179 12.9191 121.79 13.5238C122.407 14.1286 122.887 14.8892 123.23 15.8057C123.573 16.716 123.745 17.7821 123.745 19.0041V20.0983H111.615V17.6293H119.995C119.995 17.0558 119.87 16.5476 119.62 16.105C119.371 15.6623 119.025 15.3163 118.582 15.0669C118.146 14.8113 117.638 14.6835 117.058 14.6835C116.453 14.6835 115.917 14.8238 115.45 15.1043C114.988 15.3786 114.627 15.7496 114.365 16.2172C114.103 16.6786 113.969 17.1929 113.963 17.7603V20.1076C113.963 20.8184 114.093 21.4325 114.355 21.9499C114.623 22.4674 115.001 22.8664 115.487 23.147C115.973 23.4276 116.55 23.5678 117.217 23.5678C117.66 23.5678 118.065 23.5055 118.433 23.3808C118.801 23.2561 119.115 23.0691 119.377 22.8197C119.639 22.5703 119.839 22.2648 119.976 21.9032L123.661 22.1463C123.473 23.0317 123.09 23.8048 122.51 24.4656C121.937 25.1203 121.195 25.6315 120.284 25.9993C119.38 26.361 118.336 26.5418 117.152 26.5418Z" fill="#7D8281"/>
<path d="M98.2071 17.9567V26.2612H94.2231V11.8966H98.02V14.431H98.1884C98.5063 13.5955 99.0394 12.9347 99.7876 12.4484C100.536 11.9558 101.443 11.7096 102.509 11.7096C103.507 11.7096 104.376 11.9278 105.118 12.3642C105.86 12.8006 106.437 13.4241 106.848 14.2346C107.26 15.0389 107.466 15.999 107.466 17.115V26.2612H103.482V17.8257C103.488 16.9467 103.263 16.2608 102.808 15.7683C102.353 15.2695 101.727 15.0202 100.928 15.0202C100.392 15.0202 99.9185 15.1355 99.507 15.3662C99.1017 15.5969 98.7838 15.9335 98.5531 16.3762C98.3287 16.8126 98.2133 17.3394 98.2071 17.9567Z" fill="#7D8281"/>
<path d="M87.0478 26.2612V11.8966H91.0318V26.2612H87.0478ZM89.0491 10.0449C88.4568 10.0449 87.9487 9.84852 87.5248 9.45574C87.1071 9.05672 86.8982 8.57977 86.8982 8.02489C86.8982 7.47624 87.1071 7.00553 87.5248 6.61275C87.9487 6.21373 88.4568 6.01422 89.0491 6.01422C89.6414 6.01422 90.1464 6.21373 90.5642 6.61275C90.9881 7.00553 91.2001 7.47624 91.2001 8.02489C91.2001 8.57977 90.9881 9.05672 90.5642 9.45574C90.1464 9.84852 89.6414 10.0449 89.0491 10.0449Z" fill="#7D8281"/>
<path d="M84.2117 15.9928L80.5645 16.2172C80.5021 15.9055 80.3681 15.6249 80.1624 15.3755C79.9566 15.1199 79.6854 14.9173 79.3487 14.7677C79.0183 14.6118 78.6224 14.5339 78.161 14.5339C77.5438 14.5339 77.0232 14.6648 76.5993 14.9266C76.1753 15.1823 75.9633 15.5252 75.9633 15.9553C75.9633 16.2983 76.1005 16.5882 76.3748 16.8251C76.6491 17.062 77.1199 17.2522 77.787 17.3955L80.3868 17.9193C81.7834 18.2061 82.8245 18.6674 83.5104 19.3033C84.1962 19.9393 84.5391 20.7747 84.5391 21.8097C84.5391 22.7511 84.2616 23.5772 83.7067 24.2879C83.1581 24.9987 82.4037 25.5536 81.4436 25.9526C80.4897 26.3454 79.3893 26.5418 78.1423 26.5418C76.2408 26.5418 74.7258 26.1459 73.5973 25.3541C72.475 24.556 71.8173 23.4712 71.624 22.0996L75.5425 21.8938C75.6609 22.4737 75.9477 22.9163 76.4029 23.2218C76.858 23.5211 77.4409 23.6707 78.1517 23.6707C78.85 23.6707 79.4111 23.5367 79.835 23.2686C80.2652 22.9942 80.4834 22.642 80.4897 22.2118C80.4834 21.8502 80.3307 21.554 80.0314 21.3234C79.7322 21.0865 79.2708 20.9056 78.6473 20.781L76.1597 20.2853C74.7569 20.0047 73.7126 19.5184 73.0268 18.8264C72.3472 18.1344 72.0075 17.2522 72.0075 16.1798C72.0075 15.2571 72.2568 14.4622 72.7556 13.795C73.2606 13.1279 73.9682 12.6136 74.8785 12.252C75.795 11.8904 76.8674 11.7096 78.0956 11.7096C79.9099 11.7096 81.3376 12.093 82.3788 12.8599C83.4262 13.6267 84.0372 14.671 84.2117 15.9928Z" fill="#7D8281"/>
<path d="M65.0896 20.145V11.8966H69.0735V26.2612H65.2486V23.652H65.099C64.7748 24.4937 64.2355 25.1701 63.4811 25.6814C62.7329 26.1926 61.8195 26.4482 60.7409 26.4482C59.7808 26.4482 58.936 26.23 58.2066 25.7936C57.4771 25.3572 56.9066 24.7368 56.4952 23.9326C56.0899 23.1283 55.8842 22.165 55.8779 21.0428V11.8966H59.8619V20.3321C59.8681 21.18 60.0957 21.8502 60.5446 22.3427C60.9934 22.8353 61.5951 23.0815 62.3495 23.0815C62.8295 23.0815 63.2784 22.9724 63.6962 22.7542C64.1139 22.5298 64.4506 22.1993 64.7062 21.7629C64.968 21.3265 65.0958 20.7872 65.0896 20.145Z" fill="#7D8281"/>
<path d="M39.2104 26.2612V7.10837H43.1944V14.3094H43.316C43.4905 13.9228 43.743 13.53 44.0735 13.131C44.4101 12.7258 44.8466 12.3891 45.3827 12.121C45.9251 11.8467 46.5985 11.7095 47.4028 11.7095C48.4502 11.7095 49.4165 11.9839 50.3019 12.5325C51.1872 13.0749 51.8948 13.8948 52.4248 14.9921C52.9547 16.0831 53.2197 17.4516 53.2197 19.0976C53.2197 20.6999 52.9609 22.0528 52.4435 23.1563C51.9322 24.2536 51.2339 25.0859 50.3486 25.6533C49.4695 26.2144 48.4845 26.495 47.3934 26.495C46.6203 26.495 45.9626 26.3672 45.4201 26.1115C44.884 25.8559 44.4444 25.5348 44.1015 25.1483C43.7586 24.7555 43.4968 24.3596 43.316 23.9606H43.1383V26.2612H39.2104ZM43.1102 19.0789C43.1102 19.933 43.2287 20.678 43.4656 21.314C43.7025 21.9499 44.0454 22.4456 44.4943 22.8009C44.9432 23.1501 45.4887 23.3246 46.1309 23.3246C46.7793 23.3246 47.3279 23.147 47.7768 22.7916C48.2257 22.43 48.5655 21.9312 48.7962 21.2953C49.0331 20.6531 49.1516 19.9143 49.1516 19.0789C49.1516 18.2497 49.0362 17.5202 48.8056 16.8905C48.5749 16.2608 48.2351 15.7683 47.7862 15.4129C47.3373 15.0575 46.7855 14.8798 46.1309 14.8798C45.4825 14.8798 44.9338 15.0513 44.4849 15.3942C44.0423 15.7371 43.7025 16.2234 43.4656 16.8531C43.2287 17.4828 43.1102 18.2247 43.1102 19.0789Z" fill="#7D8281"/>
<path fill-rule="evenodd" clip-rule="evenodd" d="M16.461 12.4512L20.7706 16.7607L16.6672 20.8641L12.3577 16.5546L16.461 12.4512ZM12.0426 8.03275L9.34066 5.33085C9.18654 5.17673 9.18654 4.92685 9.34066 4.77273L13.201 0.912373C13.3551 0.758253 13.605 0.758253 13.7591 0.912373L26.9564 14.1097C28.4206 15.5738 28.4206 17.9477 26.9564 19.4118L21.0857 25.2825L23.7876 27.9845C23.9417 28.1386 23.9417 28.3885 23.7876 28.5426L19.9273 32.4029C19.7731 32.557 19.5233 32.557 19.3691 32.4029L6.17185 19.2056C4.70769 17.7415 4.70769 15.3676 6.17185 13.9035L12.0426 8.03275Z" fill="#7D8281"/>
</svg>
