<svg width="182" height="40" viewBox="0 0 182 40" fill="none" xmlns="http://www.w3.org/2000/svg">
<path d="M169.659 14.3773H172.919L173.047 16.0837C173.471 15.4385 173.997 14.9461 174.626 14.6066C175.271 14.25 175.984 14.0717 176.765 14.0717C179.94 14.0717 181.519 16.0158 181.502 19.904V20.5917H181.528V27.1116H178.089V20.5917H178.064C178.064 19.3692 177.852 18.5202 177.427 18.0448C177.02 17.5524 176.425 17.3062 175.644 17.3062C174.812 17.3062 174.176 17.5779 173.734 18.1212C173.31 18.6476 173.097 19.4116 173.097 20.4134V27.1116H169.659V14.3773Z" fill="#7D8281"/>
<path d="M160.846 27.4172C159.556 27.4172 158.401 27.1371 157.382 26.5768C156.364 25.9995 155.566 25.21 154.988 24.2082C154.428 23.1895 154.148 22.0349 154.148 20.7445C154.148 19.4541 154.428 18.308 154.988 17.3062C155.566 16.2875 156.355 15.498 157.357 14.9376C158.359 14.3604 159.505 14.0717 160.795 14.0717C162.086 14.0717 163.232 14.3604 164.233 14.9376C165.252 15.498 166.042 16.2875 166.602 17.3062C167.179 18.308 167.468 19.4541 167.468 20.7445C167.468 22.0349 167.188 23.1895 166.628 24.2082C166.067 25.21 165.278 25.9995 164.259 26.5768C163.257 27.1371 162.12 27.4172 160.846 27.4172ZM157.688 20.7445C157.688 21.7802 157.977 22.6292 158.554 23.2913C159.148 23.9365 159.912 24.2591 160.846 24.2591C161.763 24.2591 162.51 23.9365 163.087 23.2913C163.665 22.6292 163.953 21.7802 163.953 20.7445C163.953 19.7088 163.656 18.8683 163.062 18.2231C162.485 17.5609 161.729 17.2298 160.795 17.2298C159.895 17.2298 159.148 17.5609 158.554 18.2231C157.977 18.8683 157.688 19.7088 157.688 20.7445Z" fill="#7D8281"/>
<path d="M148.324 14.3774H151.762V27.1116H148.324V14.3774ZM150.056 12.3654C149.513 12.3654 149.046 12.1701 148.655 11.7796C148.265 11.3891 148.069 10.9306 148.069 10.4043C148.069 9.86094 148.265 9.39402 148.655 9.0035C149.063 8.61298 149.53 8.41772 150.056 8.41772C150.582 8.41772 151.041 8.61298 151.431 9.0035C151.822 9.39402 152.017 9.86094 152.017 10.4043C152.017 10.9306 151.822 11.3891 151.431 11.7796C151.058 12.1701 150.599 12.3654 150.056 12.3654Z" fill="#7D8281"/>
<path d="M143.121 27.4173C141.712 27.4173 140.634 27.0692 139.887 26.3731C139.156 25.6769 138.791 24.6752 138.791 23.3678V17.2808H136.754V14.3774H138.791V10.4043H142.23V14.3774H145.388V17.2808H142.23V22.6037C142.23 23.164 142.34 23.58 142.561 23.8517C142.798 24.1064 143.155 24.2337 143.63 24.2337C143.97 24.2337 144.352 24.0809 144.777 23.7753L145.999 26.3476C145.575 26.6702 145.108 26.9249 144.598 27.1116C144.089 27.3154 143.596 27.4173 143.121 27.4173Z" fill="#7D8281"/>
<path d="M131.859 25.6599C131.146 26.8315 129.974 27.4172 128.344 27.4172C126.816 27.4172 125.628 27.0777 124.779 26.3985C123.947 25.7193 123.531 24.76 123.531 23.5206C123.531 22.1792 123.981 21.1605 124.881 20.4643C125.78 19.7682 127.054 19.4201 128.701 19.4201H131.732C131.494 17.8411 130.721 17.0515 129.414 17.0515C128.293 17.0515 127.444 17.527 126.867 18.4778L123.836 17.4336C124.244 16.4827 124.906 15.6847 125.823 15.0395C126.757 14.3943 127.954 14.0717 129.414 14.0717C131.316 14.0717 132.759 14.6066 133.744 15.6762C134.728 16.7289 135.204 18.1891 135.17 20.0568L135.119 27.1116H131.91L131.859 25.6599ZM127.045 23.4187C127.045 23.7752 127.215 24.0639 127.555 24.2846C127.894 24.4884 128.361 24.5902 128.956 24.5902C129.482 24.5902 129.957 24.4629 130.382 24.2082C130.823 23.9535 131.171 23.6224 131.426 23.2149C131.681 22.8074 131.808 22.383 131.808 21.9415H129.923C128.888 21.9415 128.149 22.0688 127.708 22.3235C127.266 22.5612 127.045 22.9263 127.045 23.4187Z" fill="#7D8281"/>
<path d="M116.479 27.4172C115.155 27.4172 113.975 27.1371 112.939 26.5768C111.903 25.9995 111.088 25.21 110.494 24.2082C109.917 23.1895 109.628 22.0349 109.628 20.7445C109.628 19.4541 109.917 18.308 110.494 17.3062C111.071 16.2875 111.878 15.498 112.913 14.9376C113.949 14.3604 115.121 14.0717 116.428 14.0717C117.735 14.0717 118.907 14.3943 119.943 15.0395C120.995 15.6847 121.759 16.5931 122.235 17.7647L119 18.9107C118.763 18.4184 118.398 18.0278 117.905 17.7392C117.413 17.4505 116.869 17.3062 116.275 17.3062C115.358 17.3062 114.611 17.6288 114.034 18.274C113.457 18.9023 113.168 19.7257 113.168 20.7445C113.168 21.7462 113.457 22.5697 114.034 23.2149C114.628 23.8601 115.392 24.1827 116.326 24.1827C116.92 24.1827 117.464 24.0299 117.956 23.7243C118.449 23.4017 118.814 22.9772 119.051 22.4509L122.311 23.597C121.819 24.8025 121.055 25.7448 120.019 26.424C118.983 27.0862 117.803 27.4172 116.479 27.4172Z" fill="#7D8281"/>
<path d="M103.804 14.3774H107.242V27.1116H103.804V14.3774ZM105.535 12.3654C104.992 12.3654 104.525 12.1701 104.135 11.7796C103.744 11.3891 103.549 10.9306 103.549 10.4043C103.549 9.86094 103.744 9.39402 104.135 9.0035C104.542 8.61298 105.009 8.41772 105.535 8.41772C106.062 8.41772 106.52 8.61298 106.911 9.0035C107.301 9.39402 107.496 9.86094 107.496 10.4043C107.496 10.9306 107.301 11.3891 106.911 11.7796C106.537 12.1701 106.079 12.3654 105.535 12.3654Z" fill="#7D8281"/>
<path d="M97.2827 8.77429H100.721V27.1117H97.2827V8.77429Z" fill="#7D8281"/>
<path d="M82.1138 14.3773H85.3737L85.5011 16.1347C85.9256 15.4725 86.4604 14.9631 87.1056 14.6066C87.7678 14.25 88.5234 14.0717 89.3723 14.0717C90.5269 14.0717 91.5371 14.3434 92.4031 14.8867C93.286 15.43 93.9567 16.2026 94.4151 17.2043C94.8905 18.2061 95.1282 19.3862 95.1282 20.7445C95.1282 22.0858 94.8905 23.2659 94.4151 24.2846C93.9567 25.2864 93.286 26.0589 92.4031 26.6022C91.5371 27.1456 90.5269 27.4172 89.3723 27.4172C88.5403 27.4172 87.8018 27.2475 87.1565 26.9079C86.5113 26.5513 85.9765 26.0504 85.552 25.4052V32.2053H82.1138V14.3773ZM85.552 20.7445C85.552 21.7802 85.8237 22.6292 86.367 23.2913C86.9273 23.9365 87.6404 24.2591 88.5064 24.2591C89.3893 24.2591 90.1194 23.9281 90.6967 23.2659C91.274 22.6037 91.5626 21.7632 91.5626 20.7445C91.5626 19.7257 91.274 18.8938 90.6967 18.2486C90.1364 17.5864 89.4148 17.2553 88.5318 17.2553C87.6489 17.2553 86.9273 17.5779 86.367 18.2231C85.8237 18.8683 85.552 19.7088 85.552 20.7445Z" fill="#7D8281"/>
<path d="M66.8179 14.3773H70.0778L70.2052 16.1347C70.6297 15.4725 71.1645 14.9631 71.8097 14.6066C72.4719 14.25 73.2275 14.0717 74.0764 14.0717C75.231 14.0717 76.2412 14.3434 77.1072 14.8867C77.9901 15.43 78.6608 16.2026 79.1192 17.2043C79.5946 18.2061 79.8323 19.3862 79.8323 20.7445C79.8323 22.0858 79.5946 23.2659 79.1192 24.2846C78.6608 25.2864 77.9901 26.0589 77.1072 26.6022C76.2412 27.1456 75.231 27.4172 74.0764 27.4172C73.2444 27.4172 72.5059 27.2475 71.8606 26.9079C71.2154 26.5513 70.6806 26.0504 70.2561 25.4052V32.2053H66.8179V14.3773ZM70.2561 20.7445C70.2561 21.7802 70.5278 22.6292 71.0711 23.2913C71.6314 23.9365 72.3445 24.2591 73.2105 24.2591C74.0934 24.2591 74.8235 23.9281 75.4008 23.2659C75.9781 22.6037 76.2667 21.7632 76.2667 20.7445C76.2667 19.7257 75.9781 18.8938 75.4008 18.2486C74.8405 17.5864 74.1189 17.2553 73.2359 17.2553C72.353 17.2553 71.6314 17.5779 71.0711 18.2231C70.5278 18.8683 70.2561 19.7088 70.2561 20.7445Z" fill="#7D8281"/>
<path d="M60.7262 25.6599C60.013 26.8315 58.8415 27.4172 57.2115 27.4172C55.6834 27.4172 54.4949 27.0777 53.6459 26.3985C52.8139 25.7193 52.3979 24.76 52.3979 23.5206C52.3979 22.1792 52.8479 21.1605 53.7478 20.4643C54.6477 19.7682 55.9211 19.4201 57.5681 19.4201H60.5988C60.3611 17.8411 59.5886 17.0515 58.2812 17.0515C57.1606 17.0515 56.3116 17.527 55.7343 18.4778L52.7036 17.4336C53.1111 16.4827 53.7733 15.6847 54.6901 15.0395C55.624 14.3943 56.821 14.0717 58.2812 14.0717C60.1828 14.0717 61.6261 14.6066 62.6108 15.6762C63.5956 16.7289 64.071 18.1891 64.0371 20.0568L63.9861 27.1116H60.7771L60.7262 25.6599ZM55.9126 23.4187C55.9126 23.7752 56.0824 24.0639 56.422 24.2846C56.7616 24.4884 57.2285 24.5902 57.8228 24.5902C58.3491 24.5902 58.8245 24.4629 59.249 24.2082C59.6904 23.9535 60.0385 23.6224 60.2932 23.2149C60.5479 22.8074 60.6752 22.383 60.6752 21.9415H58.7906C57.7548 21.9415 57.0162 22.0688 56.5748 22.3235C56.1333 22.5612 55.9126 22.9263 55.9126 23.4187Z" fill="#7D8281"/>
<path fill-rule="evenodd" clip-rule="evenodd" d="M17.867 32.1655V24.5494L17.867 32.1655H29.5558C36.6939 32.1655 42.4804 26.379 42.4804 19.2409C42.4804 12.7854 37.2472 7.55209 30.7916 7.55209H30.1737C27.3931 7.55209 24.8279 8.47425 22.7673 10.0294C21.2303 8.49844 19.1105 7.55209 16.7697 7.55209H16.498C12.1466 7.55209 8.58427 10.9303 8.29059 15.2072C4.12523 15.6122 0.869629 19.1235 0.869629 23.3952C0.869629 28.2389 4.79624 32.1655 9.63995 32.1655H17.867Z" fill="#7D8281"/>
</svg>
