<svg width="142" height="35" viewBox="0 0 142 35" fill="none" xmlns="http://www.w3.org/2000/svg">
<path d="M133.018 26.8307C131.552 26.8307 130.268 26.5196 129.164 25.8975C128.06 25.2552 127.207 24.3621 126.605 23.2182C126.003 22.0742 125.702 20.7296 125.702 19.1842C125.702 17.6589 126.003 16.3243 126.605 15.1803C127.207 14.0163 128.06 13.1131 129.164 12.4709C130.268 11.8086 131.552 11.4775 133.018 11.4775C134.503 11.4775 135.787 11.8086 136.871 12.4709C137.975 13.1332 138.828 14.0464 139.43 15.2104C140.032 16.3544 140.333 17.6689 140.333 19.1541C140.333 19.3749 140.323 19.5956 140.303 19.8164C140.303 20.0171 140.283 20.1877 140.243 20.3282H128.923V17.3779H137.262L136.66 18.7928C136.66 17.5485 136.359 16.535 135.757 15.7523C135.175 14.9696 134.262 14.5782 133.018 14.5782C131.934 14.5782 131.061 14.9194 130.398 15.6018C129.736 16.2641 129.405 17.1572 129.405 18.2811V19.8766C129.405 21.0607 129.736 21.9939 130.398 22.6763C131.081 23.3386 132.004 23.6697 133.168 23.6697C134.192 23.6697 134.994 23.459 135.576 23.0376C136.158 22.6161 136.66 22.0943 137.082 21.4721L139.821 23.0376C139.159 24.2618 138.256 25.2051 137.112 25.8674C135.988 26.5096 134.623 26.8307 133.018 26.8307Z" fill="#7D8281"/>
<path d="M119.441 11.8086L120.435 15.8727V26.5297H116.491V11.8086H119.441ZM119.622 17.8897L118.9 17.5586V14.5481L119.171 14.217C119.391 13.8557 119.722 13.4644 120.164 13.0429C120.626 12.6214 121.147 12.2602 121.729 11.9591C122.331 11.638 122.954 11.4775 123.596 11.4775C123.917 11.4775 124.208 11.4975 124.469 11.5377C124.73 11.5778 124.93 11.6481 125.071 11.7484V15.3308H124.108C122.803 15.3308 121.8 15.5416 121.097 15.963C120.395 16.3644 119.903 17.0066 119.622 17.8897Z" fill="#7D8281"/>
<path d="M104.728 26.8909C103.625 26.8909 102.742 26.7203 102.079 26.3791C101.417 26.0379 100.905 25.5864 100.544 25.0244C100.203 24.4424 99.9719 23.7801 99.8515 23.0375C99.7311 22.2949 99.6709 21.5223 99.6709 20.7195V11.8086H103.615V20.7496C103.615 21.6527 103.805 22.2548 104.187 22.5559C104.588 22.8569 105.06 23.0074 105.601 23.0074C106.103 23.0074 106.605 22.9171 107.107 22.7365C107.608 22.5559 108.08 22.2949 108.522 21.9538C108.983 21.5925 109.365 21.1811 109.666 20.7195L110.147 22.7967H109.184V11.8086H113.128V26.5296H110.177L109.365 23.7299L110.629 23.76C110.127 24.342 109.555 24.8739 108.913 25.3556C108.291 25.8372 107.618 26.2186 106.896 26.4995C106.194 26.7604 105.471 26.8909 104.728 26.8909Z" fill="#7D8281"/>
<path d="M94.47 26.8006C92.9648 26.8006 91.7707 26.4092 90.8876 25.6265C90.0246 24.8237 89.5931 23.5493 89.5931 21.8033V11.9892L89.5329 11.8086L90.3457 8.34662H93.5368V21.1711C93.5368 21.8133 93.6873 22.2849 93.9883 22.586C94.3095 22.867 94.7108 23.0074 95.1925 23.0074C95.5136 23.0074 95.8046 22.9874 96.0655 22.9472C96.3265 22.887 96.5573 22.8268 96.7579 22.7666V26.4393C96.4368 26.5598 96.0957 26.6501 95.7344 26.7103C95.3731 26.7705 94.9517 26.8006 94.47 26.8006ZM87.3052 15.4512V11.8086H96.7579V15.4512H87.3052Z" fill="#7D8281"/>
<path d="M80.5677 11.4775C81.5712 11.4775 82.374 11.6481 82.9761 11.9893C83.5982 12.3304 84.0598 12.792 84.3609 13.3741C84.682 13.9561 84.8927 14.6184 84.9931 15.3609C85.0934 16.0834 85.1436 16.8361 85.1436 17.6188V26.5297H81.1999V17.5887C81.1999 16.6855 81.0193 16.0834 80.658 15.7824C80.3169 15.4814 79.8753 15.3308 79.3334 15.3308C78.8317 15.3308 78.3199 15.4312 77.7981 15.6319C77.2763 15.8125 76.7846 16.0834 76.323 16.4447C75.8815 16.7859 75.5002 17.1772 75.179 17.6188L74.6673 15.5717H75.6607V26.5297H71.717V11.8086H74.6673L75.4801 14.6384L74.2157 14.5782C74.7375 13.9761 75.3296 13.4443 75.9919 12.9827C76.6742 12.5211 77.3967 12.1598 78.1594 11.8989C78.922 11.618 79.7248 11.4775 80.5677 11.4775Z" fill="#7D8281"/>
<path d="M61.9899 26.8307C60.5248 26.8307 59.2404 26.5196 58.1366 25.8975C57.0327 25.2552 56.1798 24.3621 55.5777 23.2182C54.9756 22.0742 54.6746 20.7296 54.6746 19.1842C54.6746 17.6589 54.9756 16.3243 55.5777 15.1803C56.1798 14.0163 57.0327 13.1131 58.1366 12.4709C59.2404 11.8086 60.5248 11.4775 61.9899 11.4775C63.4751 11.4775 64.7595 11.8086 65.8433 12.4709C66.9471 13.1332 67.8001 14.0464 68.4022 15.2104C69.0042 16.3544 69.3053 17.6689 69.3053 19.1541C69.3053 19.3749 69.2952 19.5956 69.2752 19.8164C69.2752 20.0171 69.2551 20.1877 69.215 20.3282H57.8957V17.3779H66.2346L65.6326 18.7928C65.6326 17.5485 65.3315 16.535 64.7294 15.7523C64.1474 14.9696 63.2342 14.5782 61.9899 14.5782C60.9062 14.5782 60.0331 14.9194 59.3708 15.6018C58.7085 16.2641 58.3774 17.1572 58.3774 18.2811V19.8766C58.3774 21.0607 58.7085 21.9939 59.3708 22.6763C60.0532 23.3386 60.9764 23.6697 62.1404 23.6697C63.164 23.6697 63.9668 23.459 64.5488 23.0376C65.1308 22.6161 65.6325 22.0943 66.054 21.4721L68.7935 23.0376C68.1312 24.2618 67.2281 25.2051 66.0841 25.8674C64.9602 26.5096 63.5955 26.8307 61.9899 26.8307Z" fill="#7D8281"/>
<path d="M54.0712 11.8086L48.6825 26.5296H44.8894L39.2297 11.8086H43.3841L47.2375 23.0676H46.3043L50.0071 11.8086H54.0712Z" fill="#7D8281"/>
<path fill-rule="evenodd" clip-rule="evenodd" d="M10.8999 3.2955C10.3869 3.2955 9.97096 3.7114 9.97096 4.22443V13.0492C4.58415 13.0493 0.217285 17.4162 0.217285 22.803C0.217285 28.1898 4.58419 32.5567 9.97103 32.5567H18.7958C19.3089 32.5567 19.7248 32.1408 19.7248 31.6278V22.803C25.1116 22.8029 29.4784 18.4361 29.4784 13.0492C29.4784 7.6624 25.1115 3.2955 19.7247 3.2955H10.8999ZM19.7248 22.803V13.9782C19.7248 13.4651 19.3089 13.0492 18.7958 13.0492H9.97102C9.971 13.0492 9.97098 13.0492 9.97096 13.0492V21.874C9.97096 22.3871 10.3869 22.803 10.8999 22.803H19.7247C19.7247 22.803 19.7247 22.803 19.7248 22.803Z" fill="#7D8281"/>
<path d="M10.7955 3.2955C10.3402 3.2955 9.97119 3.66453 9.97119 4.11976L9.97119 13.0492H18.9007C19.3559 13.0492 19.7249 13.4183 19.7249 13.8735L19.7249 22.803C25.1118 22.803 29.4787 18.4361 29.4787 13.0492C29.4787 7.6624 25.1118 3.2955 19.7249 3.2955H10.7955Z" fill="#7D8281"/>
</svg>
