<svg width="130" height="30" viewBox="0 0 130 30" fill="none" xmlns="http://www.w3.org/2000/svg">
<path d="M124.456 23.5544C124.807 23.0102 125.009 22.4132 125.061 21.7636C125.114 21.114 125.14 20.4732 125.14 19.8412C124.631 20.4908 124.008 20.9473 123.271 21.2106C122.533 21.474 121.734 21.6056 120.874 21.6056C119.873 21.6056 119.004 21.4564 118.267 21.1579C117.547 20.8595 116.977 20.403 116.555 19.7885C116.134 19.2267 115.844 18.5683 115.686 17.8134C115.528 17.0409 115.449 16.2069 115.449 15.3115V7.51636H119.162V14.8638C119.162 15.3379 119.198 15.8031 119.268 16.2596C119.356 16.6985 119.531 17.0672 119.794 17.3657C120.216 17.9977 120.98 18.3137 122.086 18.3137C122.612 18.3137 123.104 18.2084 123.56 17.9977C124.017 17.7695 124.377 17.4184 124.64 16.9443C124.868 16.5405 125.009 16.1192 125.061 15.6802C125.114 15.2238 125.14 14.7322 125.14 14.2055V7.51636H128.88V18.9195C128.88 19.5515 128.871 20.2011 128.854 20.8682C128.854 21.5178 128.801 22.1587 128.696 22.7907C128.608 23.4228 128.441 24.0372 128.195 24.6342C127.95 25.2311 127.607 25.7841 127.168 26.2933C126.554 26.9955 125.746 27.5574 124.745 27.9787C123.762 28.4001 122.577 28.602 121.19 28.5844C120.172 28.602 119.162 28.4615 118.162 28.1631C117.161 27.8822 116.239 27.4696 115.396 26.9253L116.582 23.7651C117.038 24.0987 117.644 24.4059 118.399 24.6868C119.171 24.9677 120.075 25.1082 121.111 25.1082C121.954 25.1082 122.639 24.9677 123.165 24.6868C123.71 24.4235 124.14 24.046 124.456 23.5544Z" fill="#7D8281"/>
<path d="M107.328 18.3138C108.03 18.3138 108.583 18.147 108.987 17.8134C109.408 17.4798 109.663 17.1023 109.75 16.681H113.648C113.525 17.5764 113.27 18.3313 112.884 18.9458C112.498 19.5603 112.015 20.0694 111.436 20.4732C110.874 20.877 110.233 21.1667 109.513 21.3423C108.794 21.5179 108.047 21.6056 107.275 21.6056C106.116 21.6056 105.107 21.4476 104.246 21.1316C103.404 20.798 102.701 20.324 102.14 19.7095C101.578 19.0775 101.148 18.3225 100.849 17.4447C100.568 16.5493 100.428 15.5486 100.428 14.4425C100.428 13.3715 100.586 12.3884 100.902 11.493C101.218 10.5976 101.665 9.83386 102.245 9.20182C102.842 8.56978 103.57 8.08696 104.431 7.75339C105.291 7.40225 106.274 7.22668 107.38 7.22668C108.188 7.22668 108.943 7.32325 109.645 7.51637C110.365 7.7095 110.997 8.00796 111.541 8.41176C112.103 8.81557 112.559 9.33349 112.911 9.96554C113.279 10.58 113.525 11.3174 113.648 12.1777H109.75C109.663 11.7563 109.399 11.3789 108.96 11.0453C108.539 10.7117 107.986 10.5449 107.301 10.5449C106.722 10.5449 106.221 10.6502 105.8 10.8609C105.379 11.0716 105.045 11.3613 104.799 11.73C104.554 12.0987 104.378 12.52 104.273 12.9941C104.167 13.4681 104.115 13.9685 104.115 14.4952C104.115 15.057 104.176 15.5749 104.299 16.0489C104.422 16.5054 104.606 16.9092 104.852 17.2604C105.098 17.5939 105.423 17.8573 105.826 18.0504C106.248 18.226 106.748 18.3138 107.328 18.3138Z" fill="#7D8281"/>
<path d="M89.1224 9.28087C90.246 7.929 91.633 7.24429 93.2833 7.22673C94.1787 7.20917 94.9688 7.3584 95.6535 7.67443C96.3382 7.97289 96.8912 8.38547 97.3126 8.91217C97.8218 9.52666 98.1729 10.2465 98.366 11.0717C98.5591 11.8793 98.6557 12.7834 98.6557 13.7842V21.395H94.9161V14.0739C94.9161 13.5823 94.8634 13.117 94.7581 12.6781C94.6703 12.2216 94.5123 11.8354 94.2841 11.5193C94.0558 11.1858 93.7486 10.94 93.3623 10.782C92.9937 10.624 92.5723 10.545 92.0983 10.545C91.5013 10.5625 90.9922 10.6942 90.5708 10.94C90.167 11.1858 89.8598 11.5018 89.6491 11.888C89.4384 12.2567 89.2892 12.6781 89.2014 13.1521C89.1312 13.6086 89.0961 14.0739 89.0961 14.5479V21.395H85.3828V7.51642H88.9381L89.1224 9.28087Z" fill="#7D8281"/>
<path d="M77.0302 18.5771C77.5569 18.5771 78.0046 18.4981 78.3733 18.3401C78.7595 18.1645 79.0756 17.8836 79.3214 17.4974H83.2189C83.0258 18.2172 82.7274 18.8405 82.3236 19.3672C81.9373 19.8939 81.4633 20.324 80.9015 20.6576C80.3572 20.9912 79.7515 21.237 79.0843 21.395C78.4172 21.5354 77.7149 21.6056 76.9775 21.6056C74.7303 21.6056 73.0273 20.9736 71.8685 19.7095C70.7273 18.4454 70.1567 16.6722 70.1567 14.3898C70.1567 13.354 70.306 12.3971 70.6044 11.5193C70.9205 10.6415 71.3594 9.88653 71.9212 9.25449C72.483 8.60489 73.1765 8.10452 74.0017 7.75339C74.8444 7.40225 75.8012 7.22668 76.8722 7.22668C78.1187 7.22668 79.1985 7.44614 80.1114 7.88506C81.0244 8.32398 81.7442 8.92969 82.2709 9.70218C82.8151 10.4571 83.1751 11.3437 83.3506 12.362C83.5437 13.3803 83.5437 14.4688 83.3506 15.6276H73.87C73.9402 16.4527 74.2299 17.155 74.739 17.7344C75.2482 18.2962 76.0119 18.5771 77.0302 18.5771ZM79.9007 13.0731C79.9007 12.6342 79.8217 12.2479 79.6637 11.9143C79.5057 11.5632 79.295 11.2823 79.0317 11.0716C78.7683 10.8434 78.4523 10.6766 78.0836 10.5712C77.7325 10.4659 77.3638 10.4132 76.9775 10.4132C76.047 10.4308 75.3184 10.6854 74.7917 11.1769C74.2826 11.651 73.9841 12.283 73.8963 13.0731H79.9007Z" fill="#7D8281"/>
<path d="M64.5568 19.9729C64.0301 20.5698 63.398 20.9912 62.6606 21.237C61.9233 21.4828 61.1244 21.6057 60.2641 21.6057C59.4039 21.6057 58.5611 21.474 57.736 21.2107C56.9284 20.9297 56.2261 20.4821 55.6292 19.8676C54.962 19.1653 54.4968 18.3577 54.2334 17.4447C53.9701 16.5318 53.8384 15.5925 53.8384 14.6269C53.8384 12.3445 54.4704 10.5186 55.7345 9.14918C56.2788 8.55225 56.981 8.087 57.8413 7.75342C58.7191 7.41984 59.6584 7.26183 60.6592 7.27939C61.3088 7.24428 62.011 7.35839 62.766 7.62175C63.5209 7.8851 64.1705 8.32402 64.7148 8.9385L65.1098 7.51641H68.3227V20.5259C68.3227 21.0878 68.2876 21.6408 68.2173 22.1851C68.1647 22.7469 68.0681 23.2823 67.9277 23.7915C67.7872 24.3182 67.5765 24.8186 67.2956 25.2926C66.9796 25.872 66.5933 26.3636 66.1369 26.7674C65.6979 27.1712 65.2064 27.5047 64.6621 27.7681C64.1178 28.049 63.5385 28.2509 62.924 28.3738C62.3095 28.4967 61.6862 28.5581 61.0542 28.5581C60.2466 28.5581 59.4741 28.4616 58.7367 28.2685C57.9993 28.0929 57.3234 27.7944 56.7089 27.3731C56.112 26.9693 55.6116 26.4513 55.2078 25.8193C54.8216 25.1873 54.567 24.4323 54.4441 23.5545H58.3944C58.4646 23.9758 58.7455 24.3533 59.2371 24.6869C59.7287 25.0205 60.3256 25.1873 61.0279 25.1873C61.7828 25.1873 62.3973 25.038 62.8713 24.7396C63.3629 24.4411 63.7316 24.0461 63.9774 23.5545C64.2232 23.0629 64.3812 22.5011 64.4514 21.869C64.5216 21.237 64.5568 20.6049 64.5568 19.9729ZM61.1069 18.3138C61.6862 18.3138 62.1954 18.2085 62.6343 17.9978C63.0908 17.7871 63.4595 17.5062 63.7404 17.155C64.0213 16.7864 64.232 16.365 64.3724 15.891C64.5129 15.3994 64.5831 14.8815 64.5831 14.3372C64.5831 13.2487 64.2759 12.3533 63.6614 11.651C63.0644 10.9312 62.2042 10.5625 61.0805 10.5449C60.5012 10.5449 59.9832 10.6503 59.5268 10.861C59.0878 11.0716 58.7191 11.3526 58.4207 11.7037C58.1398 12.0548 57.9291 12.4674 57.7886 12.9414C57.6482 13.4155 57.578 13.9246 57.578 14.4689C57.578 15.0482 57.6482 15.5749 57.7886 16.049C57.9467 16.5055 58.1749 16.9093 58.4734 17.2604C58.7718 17.594 59.1405 17.8573 59.5794 18.0504C60.0183 18.226 60.5275 18.3138 61.1069 18.3138Z" fill="#7D8281"/>
<path d="M48.5391 19.6832C48.0124 20.3855 47.3715 20.8858 46.6166 21.1843C45.8617 21.4827 44.9838 21.6232 43.9831 21.6056C42.7014 21.5705 41.6305 21.2106 40.7702 20.5259C40.3137 20.1397 39.9538 19.6832 39.6905 19.1565C39.4447 18.6122 39.3218 17.9714 39.3218 17.234C39.3393 16.4791 39.5061 15.8119 39.8221 15.2326C40.1557 14.6356 40.6561 14.144 41.3232 13.7578C41.8851 13.4593 42.5171 13.2486 43.2194 13.1257C43.9392 13.0028 44.7205 12.9414 45.5632 12.9414H48.4074C48.4601 12.0811 48.2582 11.4403 47.8017 11.0189C47.3628 10.58 46.7395 10.3518 45.9319 10.3342C45.6685 10.3342 45.3964 10.3518 45.1155 10.3869C44.8346 10.422 44.5712 10.4922 44.3254 10.5976C44.0972 10.7029 43.8953 10.8521 43.7197 11.0453C43.5617 11.2208 43.4564 11.4403 43.4037 11.7037H39.5851C39.6729 10.8609 39.9011 10.1587 40.2698 9.59684C40.6561 9.01747 41.1389 8.55222 41.7183 8.20108C42.2976 7.84995 42.9385 7.60415 43.6407 7.4637C44.3606 7.30569 45.0979 7.22668 45.8529 7.22668C46.2742 7.22668 46.7044 7.25302 47.1433 7.30569C47.5822 7.3408 48.0124 7.42859 48.4337 7.56904C48.8551 7.69194 49.2501 7.86751 49.6188 8.09574C50.005 8.30642 50.365 8.58733 50.6985 8.93847C51.2955 9.62318 51.6642 10.4132 51.8046 11.3086C51.9626 12.1865 52.0328 13.0467 52.0153 13.8895V21.395H48.6181L48.5391 19.6832ZM48.4074 15.2589H45.6949C45.4315 15.2589 45.1331 15.2852 44.7995 15.3379C44.4659 15.3906 44.1762 15.4871 43.9304 15.6276C43.6846 15.768 43.4739 15.9524 43.2984 16.1806C43.1404 16.4089 43.0614 16.6898 43.0614 17.0233C43.0614 17.3042 43.114 17.55 43.2194 17.7607C43.3423 17.9714 43.4915 18.147 43.6671 18.2874C43.8602 18.4279 44.0884 18.542 44.3518 18.6298C44.6151 18.7 44.8785 18.7351 45.1418 18.7351C45.651 18.7527 46.125 18.6649 46.5639 18.4718C47.0204 18.2786 47.4154 18.0065 47.749 17.6554C47.9597 17.3745 48.1177 17.0585 48.223 16.7073C48.3459 16.3386 48.4074 15.8558 48.4074 15.2589Z" fill="#7D8281"/>
<path fill-rule="evenodd" clip-rule="evenodd" d="M29.2373 15.5275C29.0885 18.1274 28.2479 20.6461 26.7955 22.8198C25.1879 25.2258 22.9029 27.101 20.2295 28.2084C17.5561 29.3157 14.6144 29.6055 11.7763 29.0409C8.93826 28.4764 6.33134 27.083 4.28521 25.0369C2.23908 22.9907 0.845655 20.3838 0.28113 17.5457C-0.283396 14.7077 0.00633921 11.766 1.1137 9.09256C2.22105 6.41917 4.09629 4.13418 6.50228 2.52655C8.67598 1.07414 11.1947 0.233529 13.7946 0.0847473V7.42407C12.6437 7.55647 11.5364 7.96093 10.5664 8.609C9.36345 9.41282 8.42583 10.5553 7.87215 11.892C7.31848 13.2287 7.17361 14.6996 7.45587 16.1186C7.73813 17.5376 8.43485 18.8411 9.45791 19.8642C10.481 20.8872 11.7844 21.5839 13.2035 21.8662C14.6225 22.1485 16.0934 22.0036 17.4301 21.4499C18.7668 20.8962 19.9092 19.9586 20.7131 18.7556C21.3611 17.7857 21.7656 16.6784 21.898 15.5275H29.2373Z" fill="#7D8281"/>
<path fill-rule="evenodd" clip-rule="evenodd" d="M21.942 0.0608521H15.957V7.37614H21.942L21.942 13.3611H29.2573L29.2573 7.37614H29.2576V0.0608521H27.9191H21.942Z" fill="#7D8281"/>
</svg>
