<svg width="184" height="180" viewBox="0 0 184 180" fill="none" xmlns="http://www.w3.org/2000/svg">
<g opacity="0.1">
<mask id="path-1-outside-1" maskUnits="userSpaceOnUse" x="-3.49691e-07" y="-3.49691e-07" width="184" height="180" fill="black">
<rect fill="white" x="-3.49691e-07" y="-3.49691e-07" width="184" height="180"/>
<path d="M91.3231 12.6028C98.9645 16.3552 106.124 21.0071 113.574 25.117C118.907 28.0579 123.723 31.6816 128.663 35.1663C130.856 36.7147 133.148 38.1309 135.245 39.7979C139.361 43.0675 143.245 46.6437 147.455 49.7778C154.439 54.9735 160.094 61.5178 165.901 67.9045C169.915 72.3193 173.155 77.3575 176.127 82.5363C178.304 86.3294 180.643 90.0953 181.744 94.4406C182.598 97.8152 181.258 98.1812 178.556 98.6589C178.135 98.7334 177.678 98.4725 177.23 98.4404C173.416 98.1795 169.592 98.0202 165.787 97.6729C155.773 96.7564 145.925 95.1708 136.676 91.0423C132.077 88.9908 127.417 87.0544 122.698 85.2926C116.579 83.0089 110.871 79.9562 105.328 76.5612C101.344 74.1201 97.3863 71.6315 93.3316 69.1073C92.99 70.6421 93.9858 71.4468 94.5682 72.3125C97.9841 77.3947 100.575 82.931 103.007 88.5164C105.485 94.2136 107.697 100.048 109.868 105.896C113.187 114.836 116.09 123.88 118.264 133.198C120.073 140.945 121.417 148.817 123.774 156.419C123.927 156.973 124.029 157.54 124.077 158.113C124.222 159.351 123.489 159.795 122.439 159.756C121.897 159.736 121.354 159.519 120.84 159.319C117.187 157.893 113.527 156.481 109.894 155.002C105.624 153.261 101.788 150.669 97.7125 148.546C90.966 145.01 84.5401 140.903 78.5065 136.269C71.2015 130.692 64.1699 124.78 57.5635 118.354C53.5429 114.444 49.2354 110.817 45.8434 106.294C43.3549 102.975 41.0475 99.5178 38.658 96.1161C38.0807 103.109 37.4368 109.838 36.646 116.582C35.787 124.029 34.1265 131.362 31.693 138.458C29.7783 144.011 27.5836 149.47 25.2813 154.891C22.2974 161.919 18.4801 168.467 14.3913 174.867C11.6893 179.102 10.1419 179.06 8.20504 174.639C6.07351 169.777 3.85656 164.947 2.00171 159.959L2.00171 150.212C3.70968 155.87 5.73533 161.499 8.33656 166.754C8.93435 166.815 9.04195 166.498 9.01975 166.172C8.7089 161.03 8.53468 155.872 8.02912 150.755C6.9941 140.252 7.34593 129.749 7.97617 119.208C8.44757 111.312 8.73451 103.409 9.13247 95.5096C9.56458 86.9358 10.1146 78.3722 10.8524 69.8052C11.7183 59.7644 13.0181 49.7625 13.8875 39.7234C14.3999 33.8076 15.4793 27.9224 16.4186 22.0388C17.4263 15.7199 18.569 9.41788 19.6536 3.10911L19.0848 2.7449C16.8644 5.94333 14.4596 9.03164 12.4613 12.3639C8.52392 18.8911 5.0291 25.6712 2.00003 32.659L2.00003 26.6925C4.50963 21.2491 7.37544 15.9743 10.5791 10.9019C12.5023 7.88643 14.586 4.9726 16.5894 2.00795L32.9774 2.00795C34.6853 3.73423 36.3933 5.47067 38.1508 7.13595C44.7623 13.377 51.4438 19.5282 57.7069 26.1554C62.2569 30.9717 66.7011 35.8473 70.9146 40.9702C75.7652 46.869 80.6671 52.7221 85.0412 59.0037C86.7597 61.4898 89.0318 63.5505 91.6817 65.0262C95.5776 67.2285 99.277 69.7849 103.139 72.0567C107.88 74.8468 112.975 76.9255 117.971 79.2057C123.873 81.901 129.655 84.8555 135.563 87.544C139.529 89.3516 143.74 90.5713 147.983 91.5403C152.789 92.6398 157.582 93.868 162.521 94.3661C165.975 94.7049 169.415 95.286 173.31 94.9302C171.331 92.1824 168.76 90.4341 166.431 88.5096C158.916 82.3076 151.442 76.0293 143.604 70.2593C138.758 66.6915 134.108 62.8341 128.898 59.7254C124.878 57.3266 121.272 54.2197 117.533 51.36C112.808 47.7466 107.735 44.6548 102.77 41.4073C96.4862 37.3008 90.1138 33.3265 83.7312 29.3793C79.738 26.9093 75.837 24.2835 71.5636 22.2743C66.269 19.7891 61.6575 16.1553 56.5694 13.316C49.6419 9.44668 43.0099 5.02344 35.4812 2.01136L42.0056 2.01136C48.074 5.25892 53.8179 8.77245 59.6079 12.1979C66.7387 16.4162 73.9736 20.4515 81.1744 24.5478C87.9823 28.4205 94.4965 32.82 101.169 36.9146C109.093 41.78 116.753 47.0418 124.227 52.5629C129.981 56.8116 136.183 60.4048 141.778 64.8822C149.378 70.9555 157.197 76.7408 164.847 82.7582C168.786 85.8516 172.561 89.1585 176.947 92.8177C175.398 87.4915 172.776 83.5782 170.228 79.6987C165.464 72.448 159.85 65.9021 153.705 59.8C145.804 51.9547 136.892 45.3816 128.186 38.5409C120.159 32.2305 111.378 27.0347 102.589 21.9558C92.3991 16.0689 81.8831 10.7088 70.6926 6.82424C66.3321 5.31143 62.0571 3.55635 57.7121 2.00287L65.3979 2.00287C68.0504 3.01933 70.7063 4.03578 73.4083 4.9184C79.6287 6.94114 85.4972 9.74316 91.3231 12.6028ZM23.6877 8.26589C23.7065 7.40361 23.8483 6.44308 22.8184 5.61806C22.019 9.70589 21.1668 13.6175 20.5007 17.558C19.3154 24.5749 18.1215 31.5935 17.1616 38.6375C16.3264 44.7531 15.8106 50.906 15.1548 57.042C14.4101 64.0115 13.5544 70.9725 12.9566 77.9504C12.4749 83.551 12.3144 89.1703 11.995 94.7811C11.5031 103.48 10.9822 112.179 10.4988 120.87C9.84297 132.688 9.76784 144.48 10.8182 156.248C11.2743 161.359 11.3135 166.521 12.3554 172.114C13.1376 171.239 13.7798 170.698 14.2017 170.02C18.1532 163.633 21.5725 156.937 24.4256 149.998C27.7424 141.994 30.9619 133.953 32.5964 125.412C34.2412 116.826 35.1089 108.169 35.7357 99.4687C36.3591 90.7983 33.857 82.7192 32.4633 74.4199C32.0294 71.8296 31.4026 69.2665 31.1396 66.6559C30.2737 58.1008 28.2361 49.7811 26.95 41.3141C26.1745 36.2319 25.6126 31.1191 24.885 26.0318C24.0379 20.155 23.5579 14.2426 23.6809 8.26589L23.6877 8.26589ZM26.1045 4.29328C26.4363 14.6764 27.3102 25.0355 28.7228 35.3289C29.7937 43.2487 31.7135 50.9907 32.6306 58.914C33.5239 66.6407 35.1311 74.2149 36.2959 81.8807C37.1089 87.2221 38.4735 92.3264 42.0756 96.5802C44.1713 99.0553 45.7153 102.001 47.7034 104.612C51.3516 109.399 55.9853 113.165 60.2467 117.318C65.3125 122.252 70.8907 126.571 76.3186 131.073C81.3349 135.236 86.6022 139.017 92.3 142.178C97.5759 145.102 102.831 148.062 108.128 150.949C110.806 152.443 113.73 153.457 116.765 153.942C115.043 150.971 113.252 148.04 111.614 145.019C108.124 138.582 104.107 132.459 100.893 125.844C99.0277 122.005 96.4521 118.559 94.5477 114.704C93.1028 111.766 91.3538 108.988 89.7961 106.106C86.1513 99.367 82.7935 92.4501 78.8515 85.899C74.0282 77.8775 69.4304 69.7104 64.2809 61.8939C61.3773 57.4723 58.7607 52.8373 56.0826 48.2599C50.5386 38.8001 44.571 29.6249 38.7246 20.3549C34.8715 14.2562 31.307 7.95079 26.7433 2.15872C25.9986 2.78383 26.0755 3.5733 26.0977 4.29328L26.1045 4.29328ZM80.8242 57.8535C74.269 49.1222 67.567 40.4925 60.1886 32.4744C51.9733 23.5499 43.1944 15.1829 34.4155 6.82593C34.1968 6.61925 33.8347 6.56845 33.2096 6.30587C34.535 9.44501 36.3711 11.8811 37.9612 14.4375C44.8135 25.449 51.8674 36.342 58.6668 47.3925C61.3893 51.8141 63.9957 56.3119 66.7796 60.6961C69.6234 65.1736 72.6567 69.5393 75.2494 74.1675C79.3246 81.4521 84.0301 88.325 87.7176 95.8518C90.493 101.522 93.8218 106.904 96.9098 112.411C101.156 119.986 105.265 127.648 109.706 135.1C112.625 139.996 115.726 144.779 118.295 149.915C119.344 149.283 118.787 148.541 118.647 148.008C115.986 137.874 114.191 127.467 110.603 117.629C107.731 109.757 105.009 101.825 101.658 94.1323C98.7168 87.3831 95.7125 80.7016 91.8798 74.447C88.4076 68.7752 84.8191 63.1644 80.8242 57.8535Z"/>
</mask>
<path d="M91.3231 12.6028C98.9645 16.3552 106.124 21.0071 113.574 25.117C118.907 28.0579 123.723 31.6816 128.663 35.1663C130.856 36.7147 133.148 38.1309 135.245 39.7979C139.361 43.0675 143.245 46.6437 147.455 49.7778C154.439 54.9735 160.094 61.5178 165.901 67.9045C169.915 72.3193 173.155 77.3575 176.127 82.5363C178.304 86.3294 180.643 90.0953 181.744 94.4406C182.598 97.8152 181.258 98.1812 178.556 98.6589C178.135 98.7334 177.678 98.4725 177.23 98.4404C173.416 98.1795 169.592 98.0202 165.787 97.6729C155.773 96.7564 145.925 95.1708 136.676 91.0423C132.077 88.9908 127.417 87.0544 122.698 85.2926C116.579 83.0089 110.871 79.9562 105.328 76.5612C101.344 74.1201 97.3863 71.6315 93.3316 69.1073C92.99 70.6421 93.9858 71.4468 94.5682 72.3125C97.9841 77.3947 100.575 82.931 103.007 88.5164C105.485 94.2136 107.697 100.048 109.868 105.896C113.187 114.836 116.09 123.88 118.264 133.198C120.073 140.945 121.417 148.817 123.774 156.419C123.927 156.973 124.029 157.54 124.077 158.113C124.222 159.351 123.489 159.795 122.439 159.756C121.897 159.736 121.354 159.519 120.84 159.319C117.187 157.893 113.527 156.481 109.894 155.002C105.624 153.261 101.788 150.669 97.7125 148.546C90.966 145.01 84.5401 140.903 78.5065 136.269C71.2015 130.692 64.1699 124.78 57.5635 118.354C53.5429 114.444 49.2354 110.817 45.8434 106.294C43.3549 102.975 41.0475 99.5178 38.658 96.1161C38.0807 103.109 37.4368 109.838 36.646 116.582C35.787 124.029 34.1265 131.362 31.693 138.458C29.7783 144.011 27.5836 149.47 25.2813 154.891C22.2974 161.919 18.4801 168.467 14.3913 174.867C11.6893 179.102 10.1419 179.06 8.20504 174.639C6.07351 169.777 3.85656 164.947 2.00171 159.959L2.00171 150.212C3.70968 155.87 5.73533 161.499 8.33656 166.754C8.93435 166.815 9.04195 166.498 9.01975 166.172C8.7089 161.03 8.53468 155.872 8.02912 150.755C6.9941 140.252 7.34593 129.749 7.97617 119.208C8.44757 111.312 8.73451 103.409 9.13247 95.5096C9.56458 86.9358 10.1146 78.3722 10.8524 69.8052C11.7183 59.7644 13.0181 49.7625 13.8875 39.7234C14.3999 33.8076 15.4793 27.9224 16.4186 22.0388C17.4263 15.7199 18.569 9.41788 19.6536 3.10911L19.0848 2.7449C16.8644 5.94333 14.4596 9.03164 12.4613 12.3639C8.52392 18.8911 5.0291 25.6712 2.00003 32.659L2.00003 26.6925C4.50963 21.2491 7.37544 15.9743 10.5791 10.9019C12.5023 7.88643 14.586 4.9726 16.5894 2.00795L32.9774 2.00795C34.6853 3.73423 36.3933 5.47067 38.1508 7.13595C44.7623 13.377 51.4438 19.5282 57.7069 26.1554C62.2569 30.9717 66.7011 35.8473 70.9146 40.9702C75.7652 46.869 80.6671 52.7221 85.0412 59.0037C86.7597 61.4898 89.0318 63.5505 91.6817 65.0262C95.5776 67.2285 99.277 69.7849 103.139 72.0567C107.88 74.8468 112.975 76.9255 117.971 79.2057C123.873 81.901 129.655 84.8555 135.563 87.544C139.529 89.3516 143.74 90.5713 147.983 91.5403C152.789 92.6398 157.582 93.868 162.521 94.3661C165.975 94.7049 169.415 95.286 173.31 94.9302C171.331 92.1824 168.76 90.4341 166.431 88.5096C158.916 82.3076 151.442 76.0293 143.604 70.2593C138.758 66.6915 134.108 62.8341 128.898 59.7254C124.878 57.3266 121.272 54.2197 117.533 51.36C112.808 47.7466 107.735 44.6548 102.77 41.4073C96.4862 37.3008 90.1138 33.3265 83.7312 29.3793C79.738 26.9093 75.837 24.2835 71.5636 22.2743C66.269 19.7891 61.6575 16.1553 56.5694 13.316C49.6419 9.44668 43.0099 5.02344 35.4812 2.01136L42.0056 2.01136C48.074 5.25892 53.8179 8.77245 59.6079 12.1979C66.7387 16.4162 73.9736 20.4515 81.1744 24.5478C87.9823 28.4205 94.4965 32.82 101.169 36.9146C109.093 41.78 116.753 47.0418 124.227 52.5629C129.981 56.8116 136.183 60.4048 141.778 64.8822C149.378 70.9555 157.197 76.7408 164.847 82.7582C168.786 85.8516 172.561 89.1585 176.947 92.8177C175.398 87.4915 172.776 83.5782 170.228 79.6987C165.464 72.448 159.85 65.9021 153.705 59.8C145.804 51.9547 136.892 45.3816 128.186 38.5409C120.159 32.2305 111.378 27.0347 102.589 21.9558C92.3991 16.0689 81.8831 10.7088 70.6926 6.82424C66.3321 5.31143 62.0571 3.55635 57.7121 2.00287L65.3979 2.00287C68.0504 3.01933 70.7063 4.03578 73.4083 4.9184C79.6287 6.94114 85.4972 9.74316 91.3231 12.6028ZM23.6877 8.26589C23.7065 7.40361 23.8483 6.44308 22.8184 5.61806C22.019 9.70589 21.1668 13.6175 20.5007 17.558C19.3154 24.5749 18.1215 31.5935 17.1616 38.6375C16.3264 44.7531 15.8106 50.906 15.1548 57.042C14.4101 64.0115 13.5544 70.9725 12.9566 77.9504C12.4749 83.551 12.3144 89.1703 11.995 94.7811C11.5031 103.48 10.9822 112.179 10.4988 120.87C9.84297 132.688 9.76784 144.48 10.8182 156.248C11.2743 161.359 11.3135 166.521 12.3554 172.114C13.1376 171.239 13.7798 170.698 14.2017 170.02C18.1532 163.633 21.5725 156.937 24.4256 149.998C27.7424 141.994 30.9619 133.953 32.5964 125.412C34.2412 116.826 35.1089 108.169 35.7357 99.4687C36.3591 90.7983 33.857 82.7192 32.4633 74.4199C32.0294 71.8296 31.4026 69.2665 31.1396 66.6559C30.2737 58.1008 28.2361 49.7811 26.95 41.3141C26.1745 36.2319 25.6126 31.1191 24.885 26.0318C24.0379 20.155 23.5579 14.2426 23.6809 8.26589L23.6877 8.26589ZM26.1045 4.29328C26.4363 14.6764 27.3102 25.0355 28.7228 35.3289C29.7937 43.2487 31.7135 50.9907 32.6306 58.914C33.5239 66.6407 35.1311 74.2149 36.2959 81.8807C37.1089 87.2221 38.4735 92.3264 42.0756 96.5802C44.1713 99.0553 45.7153 102.001 47.7034 104.612C51.3516 109.399 55.9853 113.165 60.2467 117.318C65.3125 122.252 70.8907 126.571 76.3186 131.073C81.3349 135.236 86.6022 139.017 92.3 142.178C97.5759 145.102 102.831 148.062 108.128 150.949C110.806 152.443 113.73 153.457 116.765 153.942C115.043 150.971 113.252 148.04 111.614 145.019C108.124 138.582 104.107 132.459 100.893 125.844C99.0277 122.005 96.4521 118.559 94.5477 114.704C93.1028 111.766 91.3538 108.988 89.7961 106.106C86.1513 99.367 82.7935 92.4501 78.8515 85.899C74.0282 77.8775 69.4304 69.7104 64.2809 61.8939C61.3773 57.4723 58.7607 52.8373 56.0826 48.2599C50.5386 38.8001 44.571 29.6249 38.7246 20.3549C34.8715 14.2562 31.307 7.95079 26.7433 2.15872C25.9986 2.78383 26.0755 3.5733 26.0977 4.29328L26.1045 4.29328ZM80.8242 57.8535C74.269 49.1222 67.567 40.4925 60.1886 32.4744C51.9733 23.5499 43.1944 15.1829 34.4155 6.82593C34.1968 6.61925 33.8347 6.56845 33.2096 6.30587C34.535 9.44501 36.3711 11.8811 37.9612 14.4375C44.8135 25.449 51.8674 36.342 58.6668 47.3925C61.3893 51.8141 63.9957 56.3119 66.7796 60.6961C69.6234 65.1736 72.6567 69.5393 75.2494 74.1675C79.3246 81.4521 84.0301 88.325 87.7176 95.8518C90.493 101.522 93.8218 106.904 96.9098 112.411C101.156 119.986 105.265 127.648 109.706 135.1C112.625 139.996 115.726 144.779 118.295 149.915C119.344 149.283 118.787 148.541 118.647 148.008C115.986 137.874 114.191 127.467 110.603 117.629C107.731 109.757 105.009 101.825 101.658 94.1323C98.7168 87.3831 95.7125 80.7016 91.8798 74.447C88.4076 68.7752 84.8191 63.1644 80.8242 57.8535Z" fill="#185951"/>
<path d="M91.3231 12.6028C98.9645 16.3552 106.124 21.0071 113.574 25.117C118.907 28.0579 123.723 31.6816 128.663 35.1663C130.856 36.7147 133.148 38.1309 135.245 39.7979C139.361 43.0675 143.245 46.6437 147.455 49.7778C154.439 54.9735 160.094 61.5178 165.901 67.9045C169.915 72.3193 173.155 77.3575 176.127 82.5363C178.304 86.3294 180.643 90.0953 181.744 94.4406C182.598 97.8152 181.258 98.1812 178.556 98.6589C178.135 98.7334 177.678 98.4725 177.23 98.4404C173.416 98.1795 169.592 98.0202 165.787 97.6729C155.773 96.7564 145.925 95.1708 136.676 91.0423C132.077 88.9908 127.417 87.0544 122.698 85.2926C116.579 83.0089 110.871 79.9562 105.328 76.5612C101.344 74.1201 97.3863 71.6315 93.3316 69.1073C92.99 70.6421 93.9858 71.4468 94.5682 72.3125C97.9841 77.3947 100.575 82.931 103.007 88.5164C105.485 94.2136 107.697 100.048 109.868 105.896C113.187 114.836 116.09 123.88 118.264 133.198C120.073 140.945 121.417 148.817 123.774 156.419C123.927 156.973 124.029 157.54 124.077 158.113C124.222 159.351 123.489 159.795 122.439 159.756C121.897 159.736 121.354 159.519 120.84 159.319C117.187 157.893 113.527 156.481 109.894 155.002C105.624 153.261 101.788 150.669 97.7125 148.546C90.966 145.01 84.5401 140.903 78.5065 136.269C71.2015 130.692 64.1699 124.78 57.5635 118.354C53.5429 114.444 49.2354 110.817 45.8434 106.294C43.3549 102.975 41.0475 99.5178 38.658 96.1161C38.0807 103.109 37.4368 109.838 36.646 116.582C35.787 124.029 34.1265 131.362 31.693 138.458C29.7783 144.011 27.5836 149.47 25.2813 154.891C22.2974 161.919 18.4801 168.467 14.3913 174.867C11.6893 179.102 10.1419 179.06 8.20504 174.639C6.07351 169.777 3.85656 164.947 2.00171 159.959L2.00171 150.212C3.70968 155.87 5.73533 161.499 8.33656 166.754C8.93435 166.815 9.04195 166.498 9.01975 166.172C8.7089 161.03 8.53468 155.872 8.02912 150.755C6.9941 140.252 7.34593 129.749 7.97617 119.208C8.44757 111.312 8.73451 103.409 9.13247 95.5096C9.56458 86.9358 10.1146 78.3722 10.8524 69.8052C11.7183 59.7644 13.0181 49.7625 13.8875 39.7234C14.3999 33.8076 15.4793 27.9224 16.4186 22.0388C17.4263 15.7199 18.569 9.41788 19.6536 3.10911L19.0848 2.7449C16.8644 5.94333 14.4596 9.03164 12.4613 12.3639C8.52392 18.8911 5.0291 25.6712 2.00003 32.659L2.00003 26.6925C4.50963 21.2491 7.37544 15.9743 10.5791 10.9019C12.5023 7.88643 14.586 4.9726 16.5894 2.00795L32.9774 2.00795C34.6853 3.73423 36.3933 5.47067 38.1508 7.13595C44.7623 13.377 51.4438 19.5282 57.7069 26.1554C62.2569 30.9717 66.7011 35.8473 70.9146 40.9702C75.7652 46.869 80.6671 52.7221 85.0412 59.0037C86.7597 61.4898 89.0318 63.5505 91.6817 65.0262C95.5776 67.2285 99.277 69.7849 103.139 72.0567C107.88 74.8468 112.975 76.9255 117.971 79.2057C123.873 81.901 129.655 84.8555 135.563 87.544C139.529 89.3516 143.74 90.5713 147.983 91.5403C152.789 92.6398 157.582 93.868 162.521 94.3661C165.975 94.7049 169.415 95.286 173.31 94.9302C171.331 92.1824 168.76 90.4341 166.431 88.5096C158.916 82.3076 151.442 76.0293 143.604 70.2593C138.758 66.6915 134.108 62.8341 128.898 59.7254C124.878 57.3266 121.272 54.2197 117.533 51.36C112.808 47.7466 107.735 44.6548 102.77 41.4073C96.4862 37.3008 90.1138 33.3265 83.7312 29.3793C79.738 26.9093 75.837 24.2835 71.5636 22.2743C66.269 19.7891 61.6575 16.1553 56.5694 13.316C49.6419 9.44668 43.0099 5.02344 35.4812 2.01136L42.0056 2.01136C48.074 5.25892 53.8179 8.77245 59.6079 12.1979C66.7387 16.4162 73.9736 20.4515 81.1744 24.5478C87.9823 28.4205 94.4965 32.82 101.169 36.9146C109.093 41.78 116.753 47.0418 124.227 52.5629C129.981 56.8116 136.183 60.4048 141.778 64.8822C149.378 70.9555 157.197 76.7408 164.847 82.7582C168.786 85.8516 172.561 89.1585 176.947 92.8177C175.398 87.4915 172.776 83.5782 170.228 79.6987C165.464 72.448 159.85 65.9021 153.705 59.8C145.804 51.9547 136.892 45.3816 128.186 38.5409C120.159 32.2305 111.378 27.0347 102.589 21.9558C92.3991 16.0689 81.8831 10.7088 70.6926 6.82424C66.3321 5.31143 62.0571 3.55635 57.7121 2.00287L65.3979 2.00287C68.0504 3.01933 70.7063 4.03578 73.4083 4.9184C79.6287 6.94114 85.4972 9.74316 91.3231 12.6028ZM23.6877 8.26589C23.7065 7.40361 23.8483 6.44308 22.8184 5.61806C22.019 9.70589 21.1668 13.6175 20.5007 17.558C19.3154 24.5749 18.1215 31.5935 17.1616 38.6375C16.3264 44.7531 15.8106 50.906 15.1548 57.042C14.4101 64.0115 13.5544 70.9725 12.9566 77.9504C12.4749 83.551 12.3144 89.1703 11.995 94.7811C11.5031 103.48 10.9822 112.179 10.4988 120.87C9.84297 132.688 9.76784 144.48 10.8182 156.248C11.2743 161.359 11.3135 166.521 12.3554 172.114C13.1376 171.239 13.7798 170.698 14.2017 170.02C18.1532 163.633 21.5725 156.937 24.4256 149.998C27.7424 141.994 30.9619 133.953 32.5964 125.412C34.2412 116.826 35.1089 108.169 35.7357 99.4687C36.3591 90.7983 33.857 82.7192 32.4633 74.4199C32.0294 71.8296 31.4026 69.2665 31.1396 66.6559C30.2737 58.1008 28.2361 49.7811 26.95 41.3141C26.1745 36.2319 25.6126 31.1191 24.885 26.0318C24.0379 20.155 23.5579 14.2426 23.6809 8.26589L23.6877 8.26589ZM26.1045 4.29328C26.4363 14.6764 27.3102 25.0355 28.7228 35.3289C29.7937 43.2487 31.7135 50.9907 32.6306 58.914C33.5239 66.6407 35.1311 74.2149 36.2959 81.8807C37.1089 87.2221 38.4735 92.3264 42.0756 96.5802C44.1713 99.0553 45.7153 102.001 47.7034 104.612C51.3516 109.399 55.9853 113.165 60.2467 117.318C65.3125 122.252 70.8907 126.571 76.3186 131.073C81.3349 135.236 86.6022 139.017 92.3 142.178C97.5759 145.102 102.831 148.062 108.128 150.949C110.806 152.443 113.73 153.457 116.765 153.942C115.043 150.971 113.252 148.04 111.614 145.019C108.124 138.582 104.107 132.459 100.893 125.844C99.0277 122.005 96.4521 118.559 94.5477 114.704C93.1028 111.766 91.3538 108.988 89.7961 106.106C86.1513 99.367 82.7935 92.4501 78.8515 85.899C74.0282 77.8775 69.4304 69.7104 64.2809 61.8939C61.3773 57.4723 58.7607 52.8373 56.0826 48.2599C50.5386 38.8001 44.571 29.6249 38.7246 20.3549C34.8715 14.2562 31.307 7.95079 26.7433 2.15872C25.9986 2.78383 26.0755 3.5733 26.0977 4.29328L26.1045 4.29328ZM80.8242 57.8535C74.269 49.1222 67.567 40.4925 60.1886 32.4744C51.9733 23.5499 43.1944 15.1829 34.4155 6.82593C34.1968 6.61925 33.8347 6.56845 33.2096 6.30587C34.535 9.44501 36.3711 11.8811 37.9612 14.4375C44.8135 25.449 51.8674 36.342 58.6668 47.3925C61.3893 51.8141 63.9957 56.3119 66.7796 60.6961C69.6234 65.1736 72.6567 69.5393 75.2494 74.1675C79.3246 81.4521 84.0301 88.325 87.7176 95.8518C90.493 101.522 93.8218 106.904 96.9098 112.411C101.156 119.986 105.265 127.648 109.706 135.1C112.625 139.996 115.726 144.779 118.295 149.915C119.344 149.283 118.787 148.541 118.647 148.008C115.986 137.874 114.191 127.467 110.603 117.629C107.731 109.757 105.009 101.825 101.658 94.1323C98.7168 87.3831 95.7125 80.7016 91.8798 74.447C88.4076 68.7752 84.8191 63.1644 80.8242 57.8535Z" stroke="#185951" stroke-width="3" mask="url(#path-1-outside-1)"/>
</g>
</svg>
