<svg width="115" height="64" viewBox="0 0 115 64" fill="none" xmlns="http://www.w3.org/2000/svg">
<path d="M83.0302 56.412C83.0883 57.3372 82.1626 57.5328 81.7342 58.0869C81.4326 58.4739 81.1257 59.1514 80.5525 59.1497C79.9415 59.1459 79.8713 59.7501 79.414 59.8934C79.0944 59.9916 78.6929 60.1263 78.6117 60.6085C78.5903 60.7374 78.3259 60.919 78.1777 60.9154C77.7869 60.903 77.4047 60.8122 77.3913 61.3887C76.5091 61.3688 75.9171 62.069 75.125 62.2951C74.2178 62.553 73.2988 62.8117 72.4649 63.2767C72.0917 63.1805 71.7257 63.0862 71.3525 62.9901C71.2842 63.4219 71.0422 63.6207 70.5973 63.6405C68.9644 63.6999 67.3391 64.1338 65.7202 63.9586C64.499 63.8283 63.2585 63.9236 62.037 63.5551C60.7554 63.1672 59.3893 63.0803 58.0842 62.7248C56.1951 62.215 54.4001 61.4414 52.5392 60.8659C52.0217 60.287 51.2518 60.2615 50.614 59.9436C49.9252 59.6009 49.1815 59.4131 48.5074 59.0128C47.8574 58.6226 47.1905 58.2241 46.4298 58.0281C46.1284 57.9505 46.1893 57.682 46.29 57.3776C45.7244 57.1512 45.0748 57.2988 44.5327 56.7712C44.0968 56.3516 43.3301 56.2385 42.7176 55.9117C40.9139 54.9477 39.1547 53.9144 37.45 52.7877C36.8244 52.3768 36.279 51.8023 35.6059 51.5175C34.9231 51.2263 34.5117 50.621 33.8487 50.3119C33.1785 50.001 32.5632 49.5352 31.9784 49.0695C30.2233 47.6609 28.3404 46.4383 26.5826 45.0252C24.7274 43.5293 22.8314 42.0883 21.0432 40.5098C20.4195 39.9573 19.7197 39.4928 19.0988 38.9142C18.3546 38.2193 17.6448 37.4795 16.868 36.8222C16.1189 36.1914 15.2883 35.6701 14.713 34.8382C14.5901 34.6605 14.1797 34.6354 14.125 34.3256C14.0754 34.0555 13.532 34.3111 13.6762 33.7914C13.746 33.5482 13.2315 33.646 13.0176 33.5103C12.7053 33.3107 12.597 32.941 12.3291 32.6722C11.0441 31.3694 9.64525 30.1832 8.45619 28.7745C7.78001 27.978 7.12494 27.114 6.22045 26.4777C5.69889 26.109 5.56659 25.2645 4.9128 24.9193C4.52107 23.8927 3.44974 23.3555 3.05082 22.3271C2.93934 22.0449 2.43791 22.0616 2.54628 21.5326C2.58881 21.3362 1.94704 21.2284 1.80944 20.8089C1.69301 20.4562 1.43617 20.1442 1.24409 19.8182C1.05202 19.4922 0.868134 19.149 0.662531 18.831C0.122259 17.9966 -0.044917 17.124 0.00987689 16.101C0.0559149 15.1872 0.165327 14.3397 0.534314 13.5091C0.668232 13.2094 0.904155 13.1243 1.17044 13.07C1.72312 13.3468 1.43315 13.8981 1.56991 14.3059C1.68203 14.6306 1.43088 14.9999 1.78452 15.3522C2.00689 15.5747 1.85295 16.0574 2.39939 16.179C2.9243 16.295 2.33322 17.0069 2.82029 17.2861C2.92565 17.2479 3.05169 17.2036 3.19395 17.1557C3.21548 17.1613 3.29279 17.1581 3.30429 17.188C3.71602 18.0315 4.40398 18.662 4.9692 19.3838C5.1163 19.5715 4.95447 19.741 4.96217 19.9504C5.1358 19.9145 5.3094 19.8786 5.47852 19.8453C5.75398 20.0546 5.93847 20.3057 5.79148 20.6864C5.85054 20.7247 5.90755 20.8009 5.96864 20.8012C6.45906 20.8277 6.61735 21.2411 6.91929 21.5263C8.49773 23.0276 9.80221 24.808 11.5823 26.1039C12.219 27.1744 13.3388 27.7318 14.2007 28.5646C14.7375 29.0831 15.3139 29.5966 15.8363 30.1114C16.374 30.6417 17.2751 30.7971 17.5063 31.644C18.6204 32.223 19.3796 33.2636 20.4114 33.9404C21.1551 34.4278 21.7178 35.1143 22.4496 35.6332C23.1518 36.1329 23.8228 36.7552 24.5196 37.2765C25.5758 38.0672 26.5442 38.9774 27.7091 39.6424C28.3403 40.0009 28.9763 40.4605 29.5404 40.9324C32.1658 43.126 35.0898 44.8549 37.9719 46.6576C38.832 47.198 39.8253 47.5615 40.4989 48.3534C40.8521 48.7671 41.4197 48.656 41.7791 49.0905C42.0307 49.3934 42.6355 49.3764 42.987 49.6321C43.3905 49.9243 43.8123 50.1443 44.2493 50.3798C44.9497 50.7523 45.733 51.0694 46.0291 51.8716C46.3405 51.925 46.209 51.6913 46.2975 51.6143C47.4657 51.8922 47.5639 51.9867 47.6884 52.9214C47.8652 52.9631 48.042 53.0048 48.2116 53.0446C48.2582 52.9069 48.3038 52.788 48.3368 52.689C49.477 52.8368 50.4097 53.273 50.8197 54.3926C51.1606 54.3307 50.9941 53.9344 51.342 53.905C52.394 54.3681 53.4713 54.9568 54.6202 55.295C55.474 55.5458 56.3422 55.8002 57.2143 56.0095C58.1411 56.2291 59.0632 56.4821 59.9818 56.7188C60.9076 56.9573 61.8129 57.3058 62.7503 57.4091C64.4429 57.5955 66.1299 57.8035 67.8559 57.7989C69.2441 57.7993 70.6 57.6417 71.9551 57.4723C72.8678 57.3579 73.7772 57.0315 74.633 56.6759C75.0573 56.4971 75.4679 56.3571 75.915 56.2687C76.0796 56.2382 76.269 56.1256 76.2803 55.8865C76.1629 55.5528 75.8174 55.483 75.5853 55.5231C74.2344 55.7512 72.9501 55.3588 71.6641 55.1081C70.4041 54.8603 69.1628 54.5097 67.9259 54.1565C65.9078 53.5827 63.999 52.7606 62.1726 51.7062C61.0194 51.0403 59.8162 50.4654 58.6894 49.741C56.9353 48.613 55.2897 47.3594 53.8189 45.8858C53.6144 45.6833 53.245 45.7072 53.1866 45.4117C53.0976 44.9817 52.3512 45.089 52.4867 44.6783C52.6771 44.1128 52.0502 44.3508 51.9966 44.022C51.9472 43.7212 51.725 43.4681 51.3375 43.3682C51.089 43.308 51.2222 42.966 51.2713 42.7289C50.5907 42.8032 50.3546 42.1855 50.1008 41.8166C49.2922 40.6404 48.4829 39.4217 47.9329 38.1162C47.5353 37.1726 47.0757 36.2169 46.8375 35.203C46.601 34.2125 46.4986 33.1913 46.2323 32.2124C46.046 31.5345 46.1992 30.875 46.1224 30.2176C46.0445 29.5791 46.203 28.9286 46.1402 28.3363C46.0511 27.4722 46.5619 26.8202 46.6234 26.0256C46.6818 25.2879 47.1965 24.5908 47.5742 23.9507C48.0381 23.1676 48.5301 22.3495 49.1614 21.6748C49.7664 21.028 50.3063 20.3221 50.9678 19.709C51.8362 18.8995 52.6607 18.0672 53.6959 17.4582C54.1558 17.185 54.3946 16.6396 54.9245 16.392C55.5912 16.0875 56.1742 15.6617 56.9362 15.5085C57.6334 15.3693 58.2035 14.8594 58.939 14.6302C61.6675 13.7854 62.0673 13.4928 65.0359 13.355C65.4736 13.3334 65.9335 13.6592 66.3587 13.3271C68.5595 13.994 70.8852 14.2322 72.9603 15.3161C75.4797 16.6374 77.7816 18.2714 79.855 20.2306C80.4338 20.7792 81.1673 21.1564 81.5987 21.8783C81.2253 20.3456 79.6618 19.789 78.6861 18.3086C79.9414 19.0238 80.639 19.8564 81.3854 20.6172C82.3775 21.6295 83.2955 22.6918 84.0715 23.9058C84.4249 24.4539 84.9168 24.9686 85.3113 25.535C85.664 26.0407 85.5018 26.7056 85.9292 27.2036C86.2976 27.6327 86.6296 28.1446 86.7989 28.6799C87.347 30.4266 87.9636 32.1449 88.4181 33.9289C88.9077 35.845 89.0603 37.7778 89.1688 39.7186C89.2392 40.985 89.2626 42.2854 88.8346 43.5118C88.6582 44.0079 88.9465 44.6007 88.4928 45.0292C88.4666 45.057 88.6515 45.2468 88.5759 45.4078C88.4121 45.7497 88.7678 45.899 88.785 46.1761C90.3241 45.7507 91.7532 45.2317 93.1946 44.7542C94.2804 44.3964 95.2498 43.8204 96.3249 43.4444C97.3838 43.072 98.3807 42.4185 99.2754 41.7157C100.586 40.6861 101.945 39.6956 103.066 38.4483C104.162 37.2288 105.004 35.8173 105.922 34.4713C106.209 34.0499 105.983 33.4078 106.528 33.1025C106.66 31.6117 107.705 30.3982 107.668 28.818C107.646 27.8713 108.087 26.9247 108.172 25.9327C108.299 24.4942 108.317 23.0469 108.436 21.6066C108.535 20.4414 108.408 19.2757 108.418 18.1144C108.429 16.4081 108.094 14.6817 107.771 12.9968C107.586 12.0428 107.501 11.0722 107.212 10.1257C106.798 8.78221 106.6 7.37151 105.778 6.18435C105.444 5.69862 104.877 5.42983 104.624 4.83452C104.47 4.47984 104.526 4.21398 104.61 3.90138C105.287 4.24485 105.798 4.86433 106.772 5.0806C106.321 4.68799 106.962 4.08107 106.136 3.82601C105.747 3.70268 105.663 2.95142 105.046 2.88444C105.145 2.59901 105.206 2.42252 105.336 2.06418C105.58 2.16947 105.896 2.25083 106.157 2.4257C106.379 2.57506 106.513 2.90524 106.896 2.4817C106.32 2.23721 106.141 1.69556 105.839 1.17213C106.366 0.889349 106.743 0.463987 107.341 0.529955C107.441 0.336562 107.11 0.209089 107.297 0C107.621 0.0949454 108 0.0774442 108.31 0.314878C108.571 0.508689 108.848 0.680038 109.129 0.867661C109.267 0.492234 108.795 0.35127 108.933 0.018257C109.417 0.250447 109.804 0.546094 110.079 1.04318C110.749 2.25287 111.442 3.46088 112.193 4.62235C112.583 5.22212 112.667 5.91206 112.918 6.54526C113.458 7.90574 113.864 9.33937 114.107 10.7846C114.313 12.0014 114.754 13.1943 114.65 14.4542C115.367 17.2009 114.754 19.9737 114.791 22.7333C114.799 23.4074 114.607 24.1146 114.461 24.776C113.915 27.2703 113.597 29.8193 112.796 32.2516C111.689 35.6114 110.186 38.7847 108.087 41.6277C107.222 42.7954 106.22 43.8738 105.198 44.9277C104.455 45.6928 103.556 46.3063 102.928 47.193C102.879 47.2649 102.788 47.3068 102.713 47.3641C101.405 48.3792 96.1809 51.8381 94.9571 52.2718C93.6326 52.7409 92.3869 53.3955 91.0446 53.8141C89.7762 54.2132 88.4821 54.5481 87.2022 54.9173C87.1149 54.9448 87.0315 55.0615 86.9533 55.0529C85.4835 54.8932 84.2853 55.5562 83.0302 56.412ZM76.2111 47.0999C76.8426 47.1282 77.3965 47.3554 78.0152 47.4035C79.4935 47.5155 80.9361 47.288 82.3904 47.1941C83.0098 47.1501 83.4832 46.7343 83.4913 46.1488C83.5275 44.1954 83.6455 42.2362 83.1946 40.3033C82.9854 39.4006 82.8266 38.4801 82.6336 37.5739C82.4293 36.6071 82.0135 35.7048 81.7218 34.7655C81.4372 33.8586 80.8229 33.0743 80.5142 32.1268C80.0891 30.8265 78.7785 30.0587 78.2517 28.7822C77.5865 28.6761 77.5667 27.9604 77.1519 27.6078C76.2447 26.8324 75.3701 26.0194 74.4909 25.2091C72.981 23.8137 71.2084 22.7578 69.387 21.9083C67.9786 21.2535 66.4853 20.6613 64.8758 20.4195C63.7411 20.25 62.6225 20.1077 61.4953 20.1784C59.6041 20.3056 57.731 20.5566 56.1148 21.6881C55.882 21.8509 55.634 21.9982 55.3799 22.1248C53.5631 23.0087 53.3222 24.4907 53.1667 26.252C53.0848 27.1565 53.4297 28.052 53.1448 28.9427C53.3398 29.0774 53.7915 28.9864 53.6314 29.4483C53.5335 29.7265 53.6708 29.9079 53.8062 30.0964C54.0663 30.4553 53.4033 30.4458 53.5587 30.7508C54.2755 30.924 54.2512 31.3786 54.0233 31.9114C53.8878 31.888 53.7692 31.8729 53.5412 31.8372C53.9409 32.7429 54.4457 33.5067 54.7269 34.3972C55.1349 35.6892 56.2253 36.6308 57.0527 37.6737C57.8311 38.6539 58.7073 39.6555 59.8199 40.3455C59.8593 40.371 59.7717 40.5942 59.7393 40.7357C60.8512 40.8148 61.646 41.5957 62.499 42.1343C64.0716 43.1194 65.6119 44.1116 67.4231 44.5821C67.703 44.6542 67.7515 44.9433 67.9209 45.0139C68.3251 45.1833 68.4916 45.5795 68.8271 45.8081C68.9985 45.7063 69.1607 45.6099 69.296 45.5295C69.6486 45.4667 69.6937 45.8739 70.0169 45.9264C70.2853 45.9687 70.5219 45.7608 70.8833 46.0229C71.4272 46.4089 72.2056 46.5211 72.9049 46.613C73.5809 46.7065 74.1347 47.3984 74.9334 46.9666C75.2074 46.8221 75.4617 47.264 75.7603 47.3678C75.9181 47.2741 76.0804 47.1776 76.2111 47.0999ZM48.8908 34.741C49.1803 35.5838 49.0942 36.5948 49.7438 37.3153C49.884 37.4705 49.8514 37.6426 49.8394 37.8393C49.8272 38.0666 50.742 39.516 50.8287 39.7457C51.0709 40.3843 51.9684 40.5541 52.0128 41.2185C52.0565 42.0056 52.5512 42.3597 52.9829 42.8857C54.0415 44.1763 55.2779 45.1901 56.9362 46.1243C56.5923 45.644 56.4156 45.3027 56.5123 44.909C56.2635 44.9101 56.1176 45.1069 55.8832 44.9466C55.5139 43.7722 54.3794 43.138 53.6756 42.1501C53.0164 41.2274 52.2029 40.4148 51.6313 39.4033C50.7407 37.8295 49.8058 36.2942 48.8908 34.741Z" fill="#F6D06D"/>
</svg>
