<svg width="152" height="150" viewBox="0 0 152 150" fill="none" xmlns="http://www.w3.org/2000/svg">
<path d="M8.22414 105.089C8.75609 105.089 9.15507 105.089 9.53186 105.089C9.93821 105.398 9.53181 105.883 9.84211 106.243C10.1007 106.258 10.3594 106.273 10.7436 106.295C11.0392 105.684 11.2533 104.802 12.3098 105.096C12.7162 105.192 12.3911 105.714 12.6866 105.846C13.3072 106.045 13.7283 105.707 14.3046 105.398C15.0508 106.442 16.4177 106.692 17.3338 107.633C17.5111 108.353 17.1935 109.155 17.755 109.86C17.9323 110.081 17.8731 110.765 17.6589 110.963C17.0087 111.573 17.7993 112.198 17.5851 112.617C17.2748 113.235 17.5186 113.728 17.4004 114.205C17.9619 114.433 18.1612 114.139 18.5232 113.757C18.5897 115.235 18.8336 116.558 18.0578 117.852C17.7697 117.881 17.4521 117.918 16.9866 117.97C17.1639 118.617 16.5507 119.087 16.5802 119.727C16.6245 120.778 16.292 121.734 15.7527 122.594C15.302 123.315 15.376 124.072 15.3612 124.866C14.7332 125.432 14.0978 126.02 13.4476 126.608C13.4772 126.63 13.3811 126.557 13.1742 126.38C12.8934 126.608 12.6201 127.013 12.2581 127.093C11.7704 127.211 11.438 127.726 10.8174 127.549C10.3815 127.424 9.88656 127.52 9.41372 127.527C9.02214 127.535 8.60095 127.49 8.23893 127.615C7.77348 127.777 7.38188 128.233 6.92381 128.292C6.06679 128.402 5.18029 128.321 4.24199 128.321C3.76915 127.424 2.73469 127.211 1.90721 126.843C0.895033 126.395 0.414837 125.616 0.0971453 124.77C-0.227935 123.91 0.333654 123.02 0.740003 122.271C1.26456 121.307 1.93681 120.403 2.87511 119.771C2.1954 118.683 1.57475 117.639 2.46872 116.426C2.72731 112.897 4.93637 110.221 6.52482 107.273C6.93856 106.508 7.96556 106.148 8.22414 105.089Z" fill="#185951"/>
<path d="M141.079 36.6569C140.953 36.8113 140.835 36.9437 140.724 37.0834C140.82 37.3995 141.145 37.2524 141.367 37.37C141.736 37.642 141.256 38.1567 141.677 38.4875C141.817 38.4728 142.069 38.5243 142.165 38.4214C143.398 37.1348 143.62 37.6715 144.714 38.642C144.839 38.7596 144.906 38.7596 145.09 38.7743C147.602 38.9948 148.585 39.9726 148.866 42.4355C149.191 42.4723 149.294 41.9503 149.76 42.1561C150.003 42.9649 151.038 43.4795 150.809 44.6338C150.764 44.8764 151.274 45.222 151.525 45.5234C150.558 46.3248 152.427 47.4422 151.26 48.2215C151.282 48.7362 151.865 48.8318 151.976 49.2729C152.102 49.7875 151.703 50.0963 151.57 50.5153C151.104 51.9563 150.114 53.118 149.398 54.4193C148.792 55.5147 147.44 55.9852 146.405 56.5807C145.844 56.4704 145.667 55.9852 145.282 55.7573C145.164 56.0514 145.076 56.2793 144.92 56.6689C144.654 56.2866 144.44 55.9705 144.241 55.6838C143.694 56.0367 144.071 56.5219 143.79 56.9042C142.985 56.9042 142.128 56.9042 141.042 56.9042C140.901 56.7645 140.62 56.4852 140.288 56.1543C139.328 57.0807 138.508 56.3455 137.643 55.8014C136.498 56.9483 135.338 55.1985 134.163 55.8529C133.661 55.3015 132.9 55.0147 133.018 54.1031C133.033 54.0002 132.922 53.7944 132.848 53.787C131.481 53.6473 131.607 52.3166 131.075 51.552C131.407 50.7212 132.035 50.0743 132.7 49.4567C132.848 49.317 132.989 49.0523 133.129 49.0523C134.917 49.0449 134.991 47.3613 135.781 46.3909C136.468 45.5454 136.72 44.4868 137.008 43.4943C137.288 42.5311 137.473 41.5239 137.51 40.4652C137.547 39.333 137.488 37.9288 139.076 37.4729C139.357 37.3921 139.571 37.0319 139.793 36.7819C140.185 36.3481 140.598 36.4216 141.079 36.6569Z" fill="#185951"/>
<path d="M100.651 64.4914C99.9782 64.7781 99.2912 65.0281 98.4785 64.9913C96.9343 64.9252 95.3902 64.9031 93.8534 64.9987C93.0851 65.0428 92.2945 64.9325 91.6444 64.7634C91.1198 64.631 90.7726 65.3957 90.3589 64.8149C90.019 64.3444 89.4723 64.712 89.0585 64.5576C88.5931 64.3885 88.2015 63.9547 87.5883 64.2635C87.3149 64.3811 87.7655 65.006 87.1449 64.9545C85.9259 64.8737 86.6425 63.3003 85.6229 63.0062C85.549 63.2121 85.4677 63.4474 85.379 63.69C85.0614 63.7562 84.8545 63.4253 84.8397 63.3003C84.7215 62.2931 84.16 61.3668 84.2782 60.3155C84.3225 59.9332 84.3744 59.6097 84.5591 59.2274C85.0984 58.0952 85.586 56.8821 85.453 55.6102C85.3717 54.8309 86.0218 54.3383 85.9332 53.5664C85.8593 52.9047 85.5713 52.0959 86.2954 51.5298C86.2954 50.3241 86.3692 49.1185 86.2806 47.9275C86.1624 46.3468 87.0931 45.4057 88.1866 44.5455C88.3491 44.4205 88.6964 44.5308 88.9402 44.5308C89.2431 45.1924 89.6052 45.788 89.5757 46.8099C89.9451 46.0894 90.1298 45.6557 90.514 45.3248C91.0385 44.869 91.4965 44.7293 92.0432 45.2366C92.2722 45.4498 92.4274 45.7733 92.8412 45.7439C94.0011 45.6483 94.8213 46.2806 95.4936 47.0893C96.1364 47.8686 97.1263 48.3024 97.2815 49.5743C97.3923 50.4933 98.2051 51.3093 98.6262 52.2063C99.7418 54.6177 100.872 57.0218 101.884 59.4774C102.372 60.661 101.87 61.8521 101.404 62.9769C101.182 63.4768 100.909 63.962 100.651 64.4914Z" fill="#185951"/>
<path d="M111.208 90.2454C111.267 90.9733 111.097 91.7526 111.415 92.0908C111.932 92.6495 110.809 92.995 111.467 93.4214C112.494 92.6274 112.449 91.1497 113.41 90.3116C114.09 90.6056 114.755 90.9218 115.08 91.3996C115.626 91.4952 115.7 91.1424 116.047 90.988C117.082 91.5614 118.338 92.0246 119.091 93.0612C120.044 94.3698 120.946 95.7667 120.938 97.5018C120.938 98.3032 120.872 99.1119 120.953 99.9059C121.212 102.531 120.406 104.957 119.616 107.383C119.283 108.397 118.737 109.316 118.094 110.14C117.636 110.419 117.163 110.235 116.587 110.302C116.358 110.074 116.077 109.794 115.752 109.471C115.19 109.405 115.094 110.191 114.562 110.287C114.237 110.346 114.112 110.066 113.905 109.897C113.764 110.022 113.624 110.147 113.447 110.309C113.358 110.059 113.277 109.831 113.203 109.596C113.107 109.463 113.04 109.5 112.915 109.647C112.013 110.721 110.787 110.772 109.494 110.669C108.667 110.147 108.186 109.228 107.012 108.949C105.793 108.655 105.298 106.684 105.859 105.471C106.317 104.479 106.879 103.567 106.073 102.45C105.852 102.141 105.889 101.472 106.066 101.082C106.561 100.024 106.457 98.8619 106.834 97.7885C107.182 96.796 107.388 95.7447 107.78 94.7669C107.898 94.4728 108.046 94.2155 108.061 93.8773C108.127 92.6348 108.859 91.6644 109.465 90.6498C109.841 90.0028 110.514 90.2675 111.208 90.2454Z" fill="#185951"/>
<path d="M61.8699 59.7127C61.7517 59.6098 61.6113 59.4922 61.4413 59.3525C61.3379 59.6245 61.2567 59.8525 61.1533 60.1319C59.8973 59.5952 58.8776 60.4994 57.7325 60.7126C57.2818 60.7935 55.5677 61.0802 55.1244 61.0361C54.9988 61.0214 54.8141 60.9259 54.7624 60.97C54.2231 61.514 53.5286 61.2493 52.9154 61.389C52.3908 61.5066 51.9253 60.6832 51.4303 61.3522C50.4329 60.5288 49.2583 61.117 48.1796 60.9774C47.5221 60.8891 46.8424 60.9626 46.1848 60.9626C45.9853 60.7641 45.7932 60.573 45.6011 60.3818C45.7489 60.1171 46.1331 59.9627 45.9631 59.5216C45.3943 59.1319 44.6923 59.529 44.0791 59.2716C43.5176 58.7791 43.2295 58.2571 43.887 57.6175C44.0348 57.4778 44.2565 57.3602 44.3008 57.1911C44.7367 55.6251 46.096 55.5516 47.3299 55.3531C48.6006 55.1472 49.6867 54.5664 50.6767 54.1326C51.2013 52.7652 50.4108 51.6991 50.3887 50.5375C50.3665 49.4494 50.6473 48.3393 50.034 47.2806C49.8863 47.0307 49.7902 46.4352 50.167 46.1778C50.795 45.7514 50.7285 44.803 51.4525 44.5383C51.7776 44.4207 52.1692 44.5016 52.5459 44.7883C52.908 45.0603 52.5977 45.6338 53.1149 45.722C53.5286 45.7882 53.7207 45.4647 53.9054 45.2147C54.2084 44.803 54.6516 44.8324 54.9915 44.9427C55.4495 45.0897 55.8411 45.4353 56.2696 45.6926C56.8681 44.9795 57.3262 45.8029 57.6291 45.994C58.0502 46.2514 58.5379 46.4572 58.922 46.788C59.3284 47.1409 59.6831 47.5453 60.0672 47.9129C60.3037 48.1408 60.4587 48.3761 60.5326 48.729C60.5843 48.9863 60.8504 49.0672 60.614 49.4715C60.3554 49.9126 61.1533 49.5671 61.3232 50.0303C62.0029 51.8903 63.1997 53.5151 63.9533 55.3531C64.1158 55.7501 64.1306 56.0662 64.0124 56.4485C63.6282 57.7572 63.0446 58.9261 61.8699 59.7127Z" fill="#185951"/>
<path d="M54.6071 0C56.3433 0.0955755 56.3433 0.0956222 56.6315 1.97773C57.6363 1.04403 57.6362 1.04402 58.6558 0.779351C58.944 1.5366 59.343 2.27912 60.4143 2.02915C60.5621 1.99239 60.7837 2.13211 60.9166 2.24238C61.722 2.91877 62.0322 4.00685 62.9114 4.62441C62.8671 5.92571 63.7537 7.19757 63.2734 8.4474C62.7636 9.77811 62.6381 11.2117 61.8993 12.491C61.0054 14.0569 60.0374 15.5347 58.6632 16.8507C57.9244 16.7772 57.1339 16.814 56.7054 17.6742C56.5207 17.5124 56.3802 17.3874 56.2399 17.2624C54.9322 18.571 54.5924 20.6076 52.9817 21.6369C52.3464 21.9383 51.9696 21.1295 51.5115 21.2913C50.9131 21.5045 50.5214 20.7472 49.9599 21.1075C49.4723 21.4236 48.9699 21.2398 48.5193 21.1957C48.0538 20.5855 49.1916 20.3135 48.704 19.7621C48.3419 19.6886 48.1573 20.3282 47.6697 19.9459C47.3889 18.6225 47.8543 17.4315 48.3567 16.1596C48.9035 14.7848 49.6718 13.4247 49.5979 11.8661C49.5757 11.3073 49.9599 10.9397 50.1668 10.4986C50.78 9.20468 51.216 7.85189 51.7036 6.52119C52.3242 4.84494 52.5089 3.01428 53.5137 1.44832C53.8461 0.955734 54.2155 0.536693 54.6071 0Z" fill="#185951"/>
<path d="M67.5143 110.706C67.1671 111.11 67.5661 111.596 67.1597 111.875C66.5834 111.97 66.1401 111.529 66.177 111.162C66.3248 109.78 65.4087 109.155 64.5073 108.456C64.2413 108.25 64.0271 107.993 63.7907 107.75C63.4213 106.934 63.9828 106.287 64.2044 105.582C64.5074 105.368 64.8325 105.501 65.1502 105.501C65.4752 105.67 65.1501 106.376 65.8446 106.265C66.2953 106.111 66.4653 105.449 66.4727 105.251C66.4874 104.067 66.7681 102.994 67.3444 101.979C66.7608 100.729 67.7139 99.6559 67.7582 98.4723C67.8099 97.2224 68.438 96.2078 69.2802 95.2962C69.6348 94.9065 70.019 95.1418 70.3884 95.0021C70.3589 95.6858 71.2159 95.9064 70.7726 97.0386C71.4967 96.2519 71.467 95.4211 72.1393 95.4726C73.2106 95.5608 74.4518 95.5241 75.2867 96.0608C76.092 96.5754 77.5328 96.796 77.4294 98.2885C77.422 98.3988 77.5033 98.5457 77.5919 98.6119C79.1287 99.7956 79.2469 101.663 79.8232 103.295C80.2886 104.604 80.6801 105.927 80.6727 107.361C80.6727 108.155 79.8452 108.758 80.2885 109.537C79.8378 110.25 79.003 110.581 78.8774 111.617C77.2447 110.279 75.634 111.926 74.0751 111.456C73.7131 111.632 73.8609 111.956 73.7057 112.184C73.4324 112.441 73.0777 112.198 73.0851 112.198C72.4127 112.434 72.7895 112.978 72.3462 113.051C72.1246 112.926 72.1985 112.706 72.1837 112.5C71.77 112.029 71.1715 112.47 70.7061 112.22C70.477 111.992 70.2407 111.757 69.9968 111.515C69.3097 111.956 69.1841 112.728 68.8295 113.463C68.3418 113.206 68.0981 112.867 68.1498 112.287C68.1941 111.698 68.231 111.081 67.5143 110.706Z" fill="#185951"/>
<path d="M55.8409 148.429C55.5971 148.047 55.745 147.723 55.4347 147.591C55.0209 148.024 55.4198 148.613 55.1834 149.12C54.9839 149.142 54.7992 149.157 54.4742 149.193C54.4742 148.524 54.4742 147.892 54.4742 147.26C54.1048 148.399 52.4424 148.002 52.2429 149.179C51.94 148.708 51.4746 148.752 51.0091 148.796C50.6028 149.076 51.009 149.568 50.7135 149.899C50.285 150.068 49.8269 149.98 49.3614 149.951C49.0437 149.532 49.2876 149.054 49.2063 148.605C48.7704 148.142 48.3863 147.598 47.6845 147.466C47.8839 147.142 47.6252 146.62 47.7287 146.51C48.2163 146.025 47.81 145.194 48.5414 144.804C49.2211 144.444 48.4085 143.481 49.1251 143.054C48.3568 142.216 49.4871 141.481 49.2581 140.606C49.0512 139.805 49.2137 138.908 49.2137 138.107C48.8517 137.93 48.8369 138.224 48.6522 138.298C48.1202 138.327 48.6449 137.688 48.246 137.614C48.1573 137.673 48.0169 137.717 47.9799 137.805C47.4849 138.974 46.9678 140.151 47.2929 141.459C47.6327 142.827 47.7213 142.841 47.1745 144.562C47.0194 145.047 47.9578 145.216 47.3225 145.701C46.9678 145.973 47.4554 146.65 46.8717 146.914C47.1081 147.326 47.1746 147.833 47.5735 148.157C47.4997 148.37 47.3298 148.385 47.1304 148.392C46.5171 148.429 46.1255 148.164 45.9925 147.561C45.8817 147.054 46.1773 146.51 45.8374 146.025C45.5936 145.672 46.0221 145.194 45.601 144.841C45.5049 144.753 45.5049 144.348 45.601 144.275C46.2807 143.753 45.734 143.304 45.6305 142.775C45.5345 142.253 45.4754 141.672 45.8226 141.069C46.2585 140.327 45.9482 139.496 45.6157 138.687C45.431 138.239 45.0247 138.496 44.8399 138.224C45.3793 137.563 45.1576 136.805 45.1428 136.129C44.9285 135.886 44.5739 135.938 44.5665 135.982C44.5 136.577 43.7392 137.107 44.3524 137.776C43.8278 138.239 43.4584 138.989 42.4536 138.717C42.5349 138.283 42.69 137.791 42.823 137.408C42.9708 136.989 43.2219 136.614 43.1554 136.151C43.0815 135.607 43.7391 135.291 43.5692 134.71C43.3919 134.115 43.9016 134.063 44.2489 133.798C44.5961 133.534 44.1675 132.799 44.7438 132.497C44.4187 132.21 44.0716 132.394 43.7391 132.343C43.3993 132.791 43.6431 133.431 43.0743 133.894C42.2468 134.578 42.3575 134.688 41.8403 136.644C41.6556 137.357 41.2863 138.018 40.9833 138.746C40.0524 138.07 40.2001 137.195 40.5474 136.357C40.8429 135.651 40.998 134.916 41.2344 134.225C41.4561 133.585 41.3379 132.629 42.2319 132.225C42.8377 131.953 42.7196 131.034 43.3845 130.755C43.6061 130.99 43.8057 131.277 44.345 131.019C44.0864 130.703 43.8426 130.402 43.584 130.086C44.1233 129.762 44.5813 129.828 44.9729 130.336C45.6674 129.262 47.1229 129.593 47.847 128.718C48.475 128.733 48.6227 129.284 49.0438 129.549C49.125 129.306 49.2064 129.078 49.2876 128.836C49.561 128.652 49.827 129.461 50.1816 128.821C50.285 128.637 50.95 128.667 51.312 128.755C51.5928 128.828 51.8366 129.137 52.0508 129.372C52.3685 129.711 52.834 129.365 53.1664 129.623C52.7231 130.277 53.2772 130.711 53.4915 131.181C53.8018 131.865 54.8731 131.203 55.2056 132.284C55.2204 132.372 54.6367 132.519 54.851 132.828C55.6267 133.953 55.2424 135.438 56.0404 136.555C56.1069 136.644 55.996 136.849 56.0552 136.945C56.4763 137.643 54.9617 138.335 56.0478 139.026C56.0478 139.761 56.2326 140.562 56.0036 141.216C55.6489 142.238 55.6562 143.246 55.6488 144.275C55.6488 144.4 55.6932 144.525 55.7227 144.694C56.1143 144.76 56.2103 144.371 56.4172 144.187C56.5575 144.062 56.3286 143.679 56.8383 143.613C56.8605 145.282 57.1338 146.966 55.8409 148.429Z" fill="#185951"/>
<path d="M95.1463 14.3217C95.1611 13.9761 95.1611 13.785 94.969 13.66C94.4149 13.3218 94.304 14.4026 93.7203 13.9909C93.5799 13.9468 93.5431 13.8511 93.6317 13.7556C94.0898 13.2997 94.7843 12.7704 94.1785 12.1382C93.484 11.4103 94.5996 11.1383 94.3853 10.6016C95.0207 10.4325 95.523 9.67524 96.2988 10.1825C96.4613 10.2855 96.5575 10.4913 96.9638 10.3958C98.604 9.10917 99.5719 7.18299 100.318 5.19061C100.577 4.50687 101.02 4.13927 101.382 3.62463C103.776 5.23471 103.776 5.23464 104.647 4.83764C105.379 5.8228 106.125 6.81532 106.014 8.15338C105.963 8.71213 106.133 9.1533 106.428 9.58707C105.734 10.4399 106.31 11.256 106.62 11.9765C107.004 12.8881 106.664 13.7923 106.871 14.6746C106.901 14.7848 107.049 14.8658 107.182 14.9907C106.627 15.8656 106.398 16.9464 105.334 17.6521C104.441 17.4757 103.384 17.9315 102.365 17.4242C101.389 16.939 100.266 16.9832 99.254 16.6817C98.3157 16.4024 97.4735 15.8068 96.5278 15.3215C95.6708 15.498 95.1684 16.2847 94.5257 16.8434C93.3066 16.9023 92.1097 17.3507 91.3635 18.005C90.3587 18.2109 89.258 17.7257 88.3123 18.4682C87.9872 18.0491 87.6621 17.6228 87.4995 17.4169C89.1545 17.7625 89.0658 17.5713 91.3413 16.5273C92.7451 15.8877 93.6096 14.4981 95.1463 14.3217Z" fill="#185951"/>
<path d="M40.8209 101.413C40.7618 101.92 40.7247 102.237 40.6952 102.509C40.5696 102.692 40.5031 102.656 40.3775 102.509C40.1707 102.259 39.9048 102.089 39.9344 101.678C39.9787 100.943 39.9268 100.207 39.9564 99.4722C39.9785 98.8767 39.9417 98.2958 39.5428 97.84C38.9517 97.1562 39.2324 96.3622 39.1216 95.6564C39.9343 94.9286 40.2224 94.1052 40.4145 93.098C40.614 92.0761 40.577 90.9733 41.1237 89.9881C41.3528 89.5838 41.1607 88.9441 41.1607 88.4295C41.5819 87.9957 42.0695 87.6428 42.1508 87.0326C42.4463 87.0326 42.7122 87.0326 42.9856 87.0326C43.4215 87.4664 42.9707 88.0619 43.2662 88.5398C43.5839 88.6721 43.9609 88.7604 43.9535 88.2678C43.9461 87.7384 44.8844 87.731 44.153 86.9076C45.6011 87.209 46.6428 87.6208 47.6402 87.4149C48.2238 87.4884 47.8618 88.0545 48.3716 88.275C49.7975 88.8779 50.3443 89.9807 50.4403 91.4364C50.5585 93.2083 50.1226 94.8625 49.6276 96.524C49.2508 97.7959 48.5637 98.5678 47.1156 98.6855C45.8005 98.7884 45.2242 99.5898 45.1946 100.943C45.1799 101.472 45.1946 101.994 45.1946 102.509C44.7883 102.795 44.7882 102.281 44.5888 102.281C44.0568 102.045 43.8795 102.964 43.2958 102.597C42.9486 102.339 43.4068 101.832 43.0447 101.531C42.9561 101.582 42.7935 101.634 42.7935 101.685C42.7787 102.266 42.1877 102.67 42.3207 103.317C42.3577 103.494 42.0029 103.472 41.8034 103.479C41.4266 103.266 41.5967 102.898 41.5745 102.597C41.5523 102.273 41.5671 101.942 41.5671 101.729C41.3602 101.369 41.1312 101.501 40.8209 101.413Z" fill="#185951"/>
<path d="M16.0559 55.1471C16.4696 55.3015 16.706 55.3898 16.9128 55.4633C17.0458 55.7794 16.9276 55.9632 16.7503 56.1911C16.4326 56.5955 16.4179 57.0439 16.8391 57.4041C17.637 58.0805 17.4966 58.6393 16.8169 59.3745C16.4401 59.7788 16.137 60.4773 16.5064 61.2051C16.137 61.7492 15.7012 60.8816 15.5018 61.0727C15.0215 61.5359 14.4969 61.308 13.9945 61.3521C13.5291 61.3889 13.0563 61.3595 12.5835 61.3595C12.1106 61.3595 11.6452 61.3595 11.1132 61.3595C10.6699 60.7787 10.0641 60.2347 9.77592 59.5509C9.56905 59.0657 9.36957 58.4996 9.2218 57.9629C9.05188 57.3306 9.98282 57.0733 9.44349 56.3969C9.14057 56.0219 9.30311 55.2721 9.25878 54.6913C8.32787 53.934 6.74682 54.4707 6.1336 53.0959C6.1927 53.0371 6.28871 52.9415 6.45863 52.7724C6.23699 52.4416 5.67551 52.4636 5.5573 51.8975C5.49819 51.5961 5.40948 50.9785 4.95142 50.7873C5.10657 50.4639 5.26904 50.133 5.43158 49.7948C5.51285 49.8463 5.67545 49.8905 5.68284 49.9493C5.71239 50.214 5.63116 50.508 5.72721 50.7359C5.82326 50.9638 6.08922 51.1256 6.27393 51.3094C6.59162 51.1991 6.44379 50.8756 6.57678 50.6477C7.03485 50.7212 7.54468 51.4196 7.92148 50.4197C8.06924 50.8094 8.15789 51.0373 8.2761 51.3535C8.56424 51.3241 9.00011 51.4196 9.17004 51.2505C10.0566 50.3903 11.1353 49.6552 11.5934 48.4568C11.9406 47.5452 12.6721 47.0599 13.3075 46.413C13.9133 46.81 13.8911 47.2879 13.6177 47.6261C13.2779 48.0598 13.2706 48.4274 13.5218 48.9788C13.8912 48.5744 14.3196 48.251 14.5339 47.8246C14.7777 47.332 14.9549 46.8982 15.5829 46.9349C15.9893 47.3981 15.6273 47.979 15.812 48.4568C16.3292 48.4715 16.1075 48.126 16.1888 47.9054C16.6838 47.5599 17.1715 47.5967 17.5335 48.104C17.829 48.5157 17.9398 49.045 18.3979 49.3537C18.7377 49.5817 18.6786 50.0228 18.5678 50.2654C18.0137 51.4564 17.8068 52.7577 17.4226 54.0002C17.2009 54.6986 16.7651 54.8604 16.0559 55.1471Z" fill="#185951"/>
<path d="M120.96 13.638C121.367 13.6307 121.418 14.0865 121.773 14.1894C121.611 14.3659 121.485 14.5056 121.359 14.6452C121.478 14.829 121.662 14.8952 121.862 14.8364C122.32 14.7114 122.431 14.1085 122.977 14.035C123.561 14.0717 123.849 14.6673 124.366 14.932C125.689 15.601 126.435 18.1815 125.984 19.6519C125.63 20.7914 125.645 21.9163 126.103 23.2029C126.066 23.3867 125.733 23.2029 125.519 23.3352C125.068 23.916 125.571 24.3718 125.792 24.8791C125.652 25.4452 125.061 25.629 124.817 26.0922C124.219 25.5923 123.687 25.335 122.867 25.6364C122.143 25.9011 121.832 25.063 121.374 24.6733C121.515 24.5042 121.618 24.3718 121.729 24.2321C121.212 23.8057 120.953 24.2174 120.724 24.5042C120.288 25.0409 120.443 25.9672 119.468 26.1804C119.158 26.2466 119.365 26.7759 119.343 27.0921C119.298 27.7096 118.936 27.989 118.404 28.0993C117.835 27.8126 118.397 27.1583 117.924 26.8789C116.993 27.5553 117.414 29.0771 116.084 29.7094C116.461 28.4008 116.89 27.2465 117.111 26.0555C117.326 24.8571 118.537 23.9014 117.976 22.3574C117.207 23.8867 116.801 25.3938 116.262 26.8642C116.092 26.0408 116.129 25.3056 116.476 24.4748C117.141 22.8794 117.584 21.1958 118.131 19.5563C118.426 18.6814 118.714 17.7919 119.076 16.9464C119.173 16.7185 119.306 16.5273 119.35 16.2553C119.579 14.8069 119.668 14.6967 120.96 13.638Z" fill="#185951"/>
</svg>
