<svg width="177" height="191" viewBox="0 0 177 191" fill="none" xmlns="http://www.w3.org/2000/svg">
<path d="M168.982 49.0694C169.355 49.0617 169.516 49.372 169.581 49.6189C170.002 51.1753 170.666 52.6449 171.139 54.1861C171.387 54.9953 171.695 55.823 172.083 56.6029C172.388 57.2199 172.442 57.9193 172.738 58.5519C173.056 59.2328 173.175 59.9864 173.444 60.695C173.672 61.2902 173.68 61.9568 173.894 62.5754C174.205 63.4736 174.44 64.4027 174.661 65.3261C174.801 65.9207 175.033 66.5081 174.951 67.1327C174.929 67.2972 175.024 67.3987 175.056 67.5277C175.189 68.0887 175.34 68.6419 175.404 69.2237C175.542 70.439 175.799 71.6382 175.917 72.8522C176.003 73.7332 176.142 74.6046 176.255 75.4825C176.361 76.3267 176.455 77.1742 176.529 78.0205C176.7 80.0067 176.784 82.0013 176.724 83.9893C176.676 85.5484 176.505 87.0966 176.281 88.6456C176.101 89.9002 175.956 91.1652 175.612 92.3773C175.338 93.3502 175.2 94.3688 174.839 95.2974C174.5 96.1724 174.208 97.0745 173.892 97.9541C173.165 99.9883 172.357 101.988 171.47 103.958C170.95 105.116 170.402 106.269 169.899 107.43C169.31 108.793 168.574 110.079 167.983 111.439C167.637 112.236 167.172 113.015 166.77 113.801C166.379 114.561 165.883 115.263 165.542 116.047C165.202 116.832 164.735 117.564 164.32 118.3C163.928 118.992 163.672 119.823 163.004 120.353C163.031 121.056 162.43 121.445 162.145 121.99C161.865 122.527 161.537 123.066 161.295 123.617C161.043 124.183 160.77 124.754 160.504 125.305C159.965 126.428 159.536 127.599 159.004 128.717C158.679 129.399 158.583 130.129 158.323 130.822C157.835 132.139 157.494 133.518 157.271 134.921C157.181 135.483 157.049 136.039 156.798 136.547C156.607 136.933 156.837 137.304 156.721 137.695C156.53 138.323 156.443 138.984 156.301 139.629C156.253 139.844 156.221 140.044 156.384 140.217C156.208 140.362 156.073 140.474 155.947 140.577C155.896 140.808 156.115 140.64 156.177 140.764C156.142 141.034 156.176 141.335 155.962 141.592C155.763 141.833 156.005 142.105 155.908 142.391C155.695 143.009 156.039 143.751 155.494 144.306C155.655 144.931 155.44 145.546 155.417 146.165C155.408 146.476 155.33 146.798 155.089 147.043C154.882 147.256 155.342 147.602 154.95 147.787C155.13 148.868 154.548 149.801 154.27 150.767C153.819 152.31 153.482 153.9 152.767 155.379C152.406 156.119 152.252 156.994 151.899 157.752C151.11 159.464 150.438 161.23 149.44 162.847C149.027 163.514 148.768 164.274 148.347 164.937C147.463 166.344 146.578 167.756 145.583 169.091C145.4 169.342 145.259 169.628 144.938 169.766C144.591 169.916 144.719 170.345 144.502 170.618C144.245 170.941 143.853 171.111 143.636 171.509C143.515 171.729 143.2 171.965 143.063 172.219C142.611 173.048 141.735 173.511 141.304 174.35C141.14 174.666 140.776 174.827 140.51 175.026C139.606 175.706 139.061 176.76 138.066 177.316C137.521 177.62 137.117 178.05 136.797 178.55C136.694 178.709 136.591 178.884 136.439 178.911C135.902 179.007 135.615 179.461 135.223 179.747C134.805 180.055 134.498 180.508 134.028 180.778C133.55 181.053 132.995 181.291 132.662 181.698C132.073 182.428 131.265 182.818 130.525 183.313C130.155 183.561 129.856 183.989 129.289 183.892C128.99 183.842 129.21 184.515 128.729 184.395C128.446 184.325 128.293 184.498 128.153 184.749C128.024 184.979 127.582 184.8 127.492 185.076C127.404 185.347 127.183 185.666 127.042 185.599C126.689 185.429 126.685 185.983 126.406 185.823C126.382 185.809 126.333 185.823 126.308 185.844C125.554 186.479 124.545 186.623 123.758 187.222C123.3 187.571 122.707 187.796 122.141 187.944C121.599 188.092 121.098 188.339 120.605 188.561C119.749 188.953 118.811 189.066 117.969 189.463C117.74 189.571 117.353 189.094 117.245 189.658C116.9 189.503 116.724 189.845 116.462 189.911C116.268 189.961 116.038 189.885 115.766 189.855C115.36 190.179 114.827 190.244 114.268 190.359C113.197 190.579 112.118 190.75 111.04 190.834C109.555 190.948 108.049 191.133 106.567 190.78C106.263 190.709 106.143 191.011 105.872 190.975C104.283 190.776 102.678 190.736 101.116 190.248C100.462 190.043 99.7088 190.069 99.0409 189.864C97.694 189.452 96.2998 189.226 94.9945 188.612C94.2221 188.249 93.3625 187.996 92.562 187.641C90.8981 186.91 89.2672 186.119 87.8189 185.009C86.736 184.182 85.6373 183.376 84.6201 182.457C84.2706 182.14 84.0475 181.721 83.6977 181.462C83.3378 181.195 83.077 180.888 82.8625 180.526C82.6936 180.24 82.305 180.253 82.1578 179.905C82.0438 179.637 81.9121 179.327 81.5086 179.229C81.3247 179.185 81.21 178.835 81.0699 178.622C80.8674 178.315 80.6109 178.029 80.4782 177.695C80.371 177.422 79.8464 177.472 80.0062 177.038C79.5596 176.993 79.4892 176.57 79.2798 176.296C79.0793 176.036 78.9115 175.745 78.7313 175.472C78.5288 175.164 78.3264 174.857 78.1239 174.55C77.9415 174.273 77.8145 173.926 77.5641 173.738C77.0836 173.376 76.8917 172.806 76.4743 172.393C76.0134 171.936 75.705 171.322 75.366 170.756C75.0681 170.26 74.5048 170.03 74.242 169.492C73.9847 168.969 73.6974 168.394 73.2617 168.042C72.769 167.64 72.572 166.995 72.0911 166.692C71.5174 166.329 71.4045 165.673 70.9466 165.287C69.9468 164.453 69.2475 163.326 68.2837 162.489C67.0675 161.43 65.9925 160.226 64.7188 159.22C63.8897 158.564 63.0381 157.934 62.209 157.279C61.3878 156.628 60.4331 156.143 59.5055 155.639C58.3473 155.007 57.1277 154.516 55.8797 154.078C54.6261 153.639 53.3242 153.391 52.0693 152.971C51.4979 152.781 50.9012 152.698 50.3332 152.491C49.7194 152.265 49.0154 152.277 48.3981 152.054C46.8567 151.494 45.1893 151.36 43.7051 150.622C41.6696 150.261 39.8627 149.232 37.9164 148.609C36.9461 148.298 36.0672 147.714 35.1392 147.269C33.6 146.529 32.1448 145.637 30.6806 144.76C29.336 143.955 28.0707 143.035 26.8462 142.059C25.9646 141.361 25.1159 140.618 24.223 139.932C23.8621 139.656 23.7598 139.119 23.2474 139.01C22.7138 138.128 21.7266 137.644 21.219 136.734C20.6057 136.421 20.3219 135.815 20.0053 135.268C19.7642 134.851 19.2495 134.754 19.0513 134.284C18.8687 133.853 18.6258 133.359 18.2602 133.106C17.5962 132.642 17.2972 131.954 16.8777 131.339C15.904 129.914 14.9517 128.469 14.0287 127.01C13.7274 126.531 13.2436 126.143 13.1924 125.514C13.1486 124.963 12.5171 124.681 12.5229 124.087C12.5265 123.872 12.1745 123.963 12.0985 123.722C11.9442 123.253 11.4339 122.979 11.4318 122.395C11.4289 121.942 10.8186 121.7 10.8971 121.15C10.9429 120.816 10.1227 120.924 10.4314 120.378C10.0154 119.916 9.87646 119.316 9.63615 118.767C9.43795 118.312 8.9727 118.018 8.9481 117.444C8.92636 116.956 8.27355 116.678 8.40503 116.099C7.86929 115.58 7.85606 114.796 7.44428 114.201C7.13377 113.752 6.94843 113.206 6.76748 112.682C6.48498 111.871 6.18113 111.065 5.85698 110.272C5.73638 109.979 5.65396 109.685 5.56593 109.389C5.51866 109.222 5.62519 109.06 5.50505 108.878C4.73843 107.737 4.4614 106.391 4.10207 105.104C3.8856 104.327 3.59163 103.558 3.51469 102.729C3.49136 102.502 3.28214 102.199 3.31398 101.946C3.41057 101.197 3.11152 100.522 2.93714 99.8391C2.8395 99.4632 2.77655 99.1032 2.79005 98.7269C2.79049 98.6541 2.85393 98.5592 2.82838 98.5131C2.30125 97.6841 2.43398 96.7171 2.28673 95.8177C2.14269 94.9452 2.16497 94.0458 1.99957 93.1777C1.66549 91.429 1.71214 89.6481 1.4488 87.8966C1.36245 87.3247 1.3997 86.7346 1.38437 86.2998C1.28334 85.9261 0.990489 86.0844 0.878702 85.8193C0.784715 85.5812 0.939895 85.3537 1.17721 85.0965C0.609337 84.5069 0.830692 83.7331 0.800123 83.0328C0.727044 81.3788 0.725867 79.7163 0.787516 78.061C0.831138 76.9735 0.845589 75.8858 1.02171 74.7936C1.57704 71.33 2.2669 67.8941 3.04871 64.4801C3.34736 63.1769 3.64158 61.867 4.00634 60.5833C4.31942 59.4931 4.6236 58.3893 5.00502 57.322C5.89349 54.834 6.78311 52.3404 7.85641 49.9197C8.68041 48.0688 9.60962 46.2745 10.5366 44.4768C11.1285 43.3245 11.7717 42.2062 12.461 41.106C13.5606 39.3498 14.6948 37.6241 15.8749 35.9165C16.9837 34.3139 18.4198 32.9799 19.438 31.3206C20.44 30.6583 20.9031 29.4648 21.9319 28.8284C22.1644 28.2552 22.7252 27.9597 23.134 27.5658C23.5575 27.1573 23.8874 26.6217 24.4661 26.3532C24.7307 26.2328 24.7769 25.8254 25.1022 25.6796C25.3724 25.5603 25.6496 25.3929 25.7515 25.0698C26.166 25.2137 26.0188 24.6817 26.3179 24.6063C26.6203 24.5287 26.9606 24.3248 27.1384 24.0727C27.5698 23.456 28.3569 23.2538 28.7666 22.7142C29.2125 22.1267 29.9174 21.9543 30.3393 21.4405C30.8573 20.8154 31.6961 20.7726 32.2405 20.2317C32.288 20.1861 32.4447 20.2476 32.5558 20.2617C32.6555 20.119 32.49 20.0148 32.4855 19.8244C32.7674 19.8038 33.0782 19.8416 33.3347 19.7458C33.6363 19.6301 33.8948 19.3976 34.216 19.1869C34.2458 18.9014 34.2803 18.579 34.3101 18.2935C34.7365 18.1394 34.9416 17.8259 35.3539 17.7827C35.5359 17.7648 35.7816 17.4101 35.9928 17.2087C36.2728 16.9428 36.7893 17.1164 36.9124 16.818C37.0776 16.4147 37.4128 16.3059 37.7002 16.1173C40.3682 14.3522 43.0429 12.5971 45.7243 10.8522C46.0117 10.6636 46.2529 10.3167 46.6832 10.4551C46.6792 9.80976 47.3012 10.1801 47.5621 9.92184C47.8038 9.6859 48.1646 9.60868 48.5032 9.49771C49.0781 9.30424 49.5535 8.84239 50.0888 8.51536C50.4437 8.29695 50.7429 8.00872 51.2348 7.9906C51.6267 7.97519 51.94 7.59071 52.3641 7.4478C52.8738 7.27296 53.4405 7.11866 53.9094 6.80128C54.2262 6.58374 54.5329 6.37285 54.963 6.342C55.2865 6.31832 55.5005 5.83462 55.9317 5.99647C56.5362 5.54665 57.2767 5.44273 57.953 5.1827C59.588 4.55466 61.2592 4.06242 62.9548 3.63642C64.376 3.27922 65.7872 2.89956 67.214 2.55808C67.6749 2.44902 68.1481 2.35123 68.6111 2.27467C70.2878 1.99641 71.9738 1.67341 73.6639 1.58456C75.171 1.50462 76.6808 1.35524 78.1976 1.34146C79.0026 1.33543 79.8221 1.16033 80.6408 1.1163C82.5713 1.00995 84.5026 0.956267 86.431 1.00114C88.1272 1.03893 89.8236 1.03302 91.4952 1.40112C91.937 1.49806 92.3997 1.4652 92.8472 1.53417C93.3542 1.61248 93.8559 1.8151 94.3633 1.8206C95.0201 1.82482 95.6397 2.02261 96.2795 2.05248C96.7744 2.07583 97.082 2.62337 97.6774 2.38746C98.1106 2.21437 98.5324 2.8321 99.0533 2.64501C99.5793 3.11217 100.298 2.81431 100.908 3.14423C101.497 3.46392 102.257 3.4632 102.943 3.60764C103.627 3.7487 104.341 3.81715 104.997 4.04877C106.201 4.47213 107.484 4.58791 108.683 4.98098C109.827 5.35689 111.054 5.48464 112.109 6.09299C112.36 6.238 112.493 6.02041 112.706 6.07891C112.927 6.13635 113.034 6.34204 113.255 6.37594C114.142 6.50935 114.991 6.79823 115.841 7.07255C117.05 7.45896 118.248 7.88116 119.46 8.25638C121.338 8.84202 123.136 9.60077 124.931 10.3763C126.101 10.8801 127.257 11.4275 128.415 11.9581C129.76 12.5795 131.11 13.1875 132.441 13.8324C133.455 14.3273 134.435 14.8881 135.444 15.3965C136.241 15.7971 137.058 16.1698 137.876 16.5369C139.002 17.046 140.115 17.5964 141.236 18.1133C142.829 18.8473 144.356 19.6872 145.851 20.5874C146.605 21.0403 147.362 21.4911 148.066 22.0445C148.509 22.3924 149.004 22.7395 149.493 23.0182C150.491 23.5915 151.278 24.3897 152.157 25.0899C152.465 25.3372 152.691 25.6434 152.969 25.8961C153.23 26.1308 153.459 26.382 153.703 26.6278C154.434 27.3618 155.032 28.2316 155.89 28.8432C155.946 28.8839 156 28.9358 156.031 28.9976C156.558 30.0394 157.555 30.7146 158.122 31.7355C158.624 32.6439 159.549 33.2547 160.003 34.2143C160.644 34.5041 160.787 35.2276 161.24 35.6652C162.461 36.8414 163.201 38.3529 164.149 39.7179C165.093 41.0761 165.973 42.4764 166.889 43.8524C167.538 44.829 167.914 45.936 168.394 46.9943C168.496 47.2224 168.498 47.5349 168.677 47.7613C168.96 48.1697 169.044 48.5982 168.982 49.0694ZM155.444 133.678C155.975 133.712 156.095 133.416 156.212 133.102C156.094 132.923 155.974 132.74 155.798 132.474C156.338 132.081 155.753 131.464 156.117 130.906C156.419 130.447 156.428 129.798 156.563 129.24C156.34 129.092 156.153 129.441 155.912 129.223C155.785 129.698 155.838 130.248 155.278 130.48C155.392 130.652 155.47 130.77 155.565 130.915C155.266 131.247 155.243 131.683 155.158 132.091C155.078 132.483 154.641 132.798 154.915 133.257C154.448 133.505 154.805 134.001 154.579 134.357C154.378 134.677 154.371 135.122 154.29 135.514C154.205 135.927 154.229 136.376 154.142 136.766C154.056 137.157 154.09 137.569 153.94 137.943C153.784 138.331 153.494 138.7 153.591 139.134C153.7 139.6 153.527 139.955 153.285 140.331C153.817 140.828 153.36 141.172 152.995 141.522C153.152 141.554 153.225 141.569 153.304 141.586C153.44 141.815 153.078 141.802 153.106 141.991C153.18 142.508 153.305 143.064 153.088 143.536C152.841 144.065 152.908 144.616 152.795 145.149C152.356 147.246 151.878 149.329 151.328 151.397C151.29 151.537 151.309 151.728 151.223 151.818C150.703 152.344 150.736 153.056 150.522 153.686C150.291 154.364 150.206 155.111 149.916 155.736C149.478 156.681 149.056 157.621 148.88 158.616C148.729 158.652 148.628 158.521 148.586 158.597C148.45 159.155 148.473 159.792 148.166 160.105C147.753 160.53 147.846 160.987 147.593 161.544C148.409 160.879 148.409 160.879 148.575 160.117C149.011 160.145 149.022 159.509 149.514 159.52C149.372 159.135 149.019 158.718 149.618 158.422C149.735 158.364 149.779 158.254 149.767 158.155C149.65 157.419 150.141 156.856 150.356 156.226C150.526 155.728 150.677 155.141 151.241 154.954C151.132 154.368 151.222 153.903 151.47 153.464C151.629 153.491 151.738 153.511 151.863 153.531C151.815 153.223 151.769 152.925 151.719 152.614C152.03 152.396 152.2 152.057 152.375 151.72C152.295 151.599 152.214 151.477 152.134 151.356C152.4 151.119 152.424 150.788 152.471 150.477C152.513 150.189 152.81 150.008 152.683 149.623C152.596 149.351 152.785 148.985 152.855 148.664C153.032 148.485 153.336 148.425 153.472 148.109C153.258 148.152 153.127 148.181 152.833 148.243C153.316 147.902 153.058 147.51 153.152 147.168C153.307 146.602 153.398 146.02 153.517 145.444C153.12 145.173 153.809 145.02 153.586 144.717C153.325 144.366 154.044 144.436 153.923 144.105C153.83 144.074 153.739 144.046 153.824 144.073C153.971 143.348 154.11 142.676 154.252 142.003C154.262 141.813 154.522 142.155 154.557 141.885C154.646 141.454 153.9 141.799 154.059 141.313C154.156 141.196 154.315 141.43 154.407 141.224C154.403 141.019 154.099 140.904 154.2 140.645C154.372 140.701 154.553 140.761 154.615 140.672C154.76 140.451 154.672 140.369 154.614 140.281C154.349 139.894 154.2 139.499 154.525 139.073C154.282 138.691 154.708 138.455 154.73 138.121C154.758 137.759 154.947 137.399 154.93 137.042C154.862 135.903 155.312 134.852 155.444 133.678ZM166.723 78.8705C166.28 79.7123 166.391 80.5577 166.241 81.3432C166.11 82.0189 166.092 82.7414 166.04 83.4423C165.983 84.2004 165.78 84.9284 165.728 85.673C165.65 86.7737 165.581 87.8677 165.353 88.9462C165.294 89.2315 165.146 89.5364 165.199 89.8011C165.334 90.52 165.008 91.1497 164.908 91.8201C164.807 92.4905 164.898 93.1801 164.674 93.8396C164.615 94.014 164.457 94.0981 164.457 94.3692C164.455 95.4771 163.979 96.5394 164.029 97.6667C163.687 97.9636 163.926 98.3774 163.818 98.7285C163.71 99.0851 163.659 99.4567 163.577 99.8539C164.147 99.7556 163.979 99.3098 164.105 99.0529C164.66 97.925 165.103 96.7393 165.42 95.5214C166.035 93.1403 166.377 90.706 166.587 88.2618C166.637 87.6538 166.785 87.0633 166.81 86.4619C166.897 84.418 166.939 82.3738 166.962 80.3283C166.968 79.8747 166.945 79.3917 166.723 78.8705ZM172.367 69.6501C172.332 69.8325 172.309 69.9735 172.283 70.1111C172.583 70.1321 172.757 70.3662 172.999 70.4686C173.115 70.895 172.339 70.8049 172.532 71.2677C172.706 71.3763 172.851 71.0681 173.028 71.2474C173.291 71.5291 173.191 71.8992 173.271 72.219C173.149 72.3572 172.91 72.3545 172.877 72.5839C173.15 72.6753 173.407 72.7923 173.402 73.1385C173.389 73.824 173.709 74.5083 173.453 75.199C173.36 75.4482 173.619 75.6795 173.47 75.9227C173.882 76.276 173.756 76.7693 173.78 77.2085C173.865 78.6464 173.972 80.0799 173.972 81.5205C173.976 83.4283 173.977 85.3417 173.804 87.2394C173.683 88.5471 173.687 89.8836 173.346 91.1664C173.29 91.3676 173.361 91.5048 173.539 91.5182C174.985 86.4214 174.859 81.263 174.219 76.0743C174.414 76.1204 174.594 76.1955 174.728 75.9868C174.673 75.5877 174.57 75.1815 174.577 74.7805C174.589 74.2843 174.391 73.9839 173.956 73.8971C173.91 73.4241 173.87 73.025 173.835 72.6562C173.975 72.5451 174.186 72.4456 174.182 72.366C174.141 71.7832 174.288 71.1456 173.698 70.7206C174.128 70.4769 173.816 70.1209 173.922 69.8483C173.565 69.6376 173.997 69.059 173.438 68.8941C173.036 68.7761 172.994 68.4263 173.253 68.0774C173.326 68.0924 173.399 68.1074 173.5 68.1282C173.287 67.8714 173.626 67.4894 173.296 67.2901C173.039 67.2313 173.257 67.6785 172.913 67.5173C172.798 66.9161 172.603 66.2897 172.58 65.6521C172.562 65.2286 172.38 65.0336 172.078 64.7438C172.109 65.2548 172.322 65.6807 172.008 66.0708C172.221 66.1147 172.437 66.1184 172.399 66.4576C172.364 66.7654 172.155 66.8738 171.956 67.0283C171.886 67.0839 171.922 67.167 171.995 67.182C172.127 67.1481 172.256 67.1165 172.453 67.0696C172.54 67.9652 172.755 68.8202 172.688 69.7104C172.574 69.6929 172.505 69.6756 172.367 69.6501ZM18.6626 33.4878C18.4033 33.4839 18.2509 33.6129 18.1297 33.8037C17.6241 34.6092 17.01 35.3458 16.4441 36.1039C15.4199 37.4674 14.5008 38.8876 13.6007 40.3291C12.0669 42.7861 10.6393 45.3087 9.36951 47.9163C8.82952 49.0298 8.30184 50.1545 7.82903 51.2963C7.32205 52.5186 6.9091 53.7808 6.40658 55.0098C5.92345 56.1875 5.61628 57.4189 5.19144 58.6114C4.83511 59.614 4.70399 60.6864 4.25128 61.6604C4.16142 61.8547 4.15104 62.0887 4.1127 62.3025C4.07436 62.5162 3.98207 62.7363 4.02017 62.9337C4.30769 62.9143 4.34222 62.7756 4.36446 62.6256C4.47182 61.9508 4.71828 61.2959 4.95886 60.6836C5.54146 59.2086 5.94252 57.6786 6.48365 56.1922C6.77023 55.3997 6.98525 54.5576 7.33555 53.8104C8.12485 52.1272 8.79321 50.3929 9.58812 48.7109C10.6605 46.4504 11.8973 44.285 13.0323 42.0608C13.2993 41.5326 13.7406 41.1367 13.9986 40.6241C14.5678 39.4963 15.1975 38.4014 15.967 37.4082C16.5497 36.6535 16.9669 35.7947 17.6056 35.0662C17.9968 34.6161 18.412 34.0922 18.6626 33.4878ZM26.1435 61.4425C26.0276 62.031 25.6555 62.4879 25.3774 62.9992C25.0481 63.602 24.8197 64.2548 24.5061 64.8667C24.388 65.0989 24.688 65.4291 24.3132 65.5734C24.4059 66.7794 23.985 67.8678 23.5573 68.9753C23.3968 68.9742 23.2632 68.97 23.1409 68.9681C23.1086 69.1102 23.0729 69.2545 23.0417 69.3909C23.1471 69.4185 23.2469 69.4449 23.3444 69.4679C23.3651 69.7638 22.8817 69.6845 22.9515 70.0255C23.092 69.9962 23.2235 69.9679 23.3562 69.934C23.6951 70.5143 23.6973 70.5176 23.2568 70.9663C23.1687 71.0531 23.1345 71.1335 23.2079 71.2449C23.2844 71.4123 23.4541 71.3686 23.5818 71.4153C23.6184 71.6912 23.2492 72.035 23.6499 72.2313C24.1137 71.6563 24.1067 70.9549 24.3215 70.3256C24.5684 69.5979 24.8702 68.8874 25.069 68.1381C25.2653 67.4145 25.4684 66.6866 25.6939 65.9778C25.9502 65.1762 26.3164 64.4089 26.4797 63.5765C26.5365 63.2879 26.5172 62.9427 26.6779 62.7308C26.8907 62.451 26.9217 62.1454 26.9965 61.8401C27.076 61.5123 27.1352 61.1834 27.1966 60.8723C26.6234 60.7891 26.7482 61.6984 26.1435 61.4425ZM108.916 104.762C108.57 105.082 108.915 105.392 108.817 105.722C108.717 106.048 108.696 106.405 108.686 106.765C108.649 108.134 108.492 109.498 108.371 110.864C108.284 111.849 108.163 112.842 108.134 113.819C108.104 114.796 107.939 115.765 107.96 116.737C107.983 117.661 107.617 118.582 107.937 119.509C108.575 119.53 108.909 119.316 108.979 118.665C109.079 117.729 109.111 116.785 109.148 115.842C109.175 115.186 109.12 114.521 109.196 113.872C109.338 112.589 109.276 111.305 109.257 110.026C109.232 108.481 109.206 106.936 109.201 105.393C109.2 105.098 109.126 104.919 108.916 104.762ZM125.888 19.8732C126.144 20.0194 126.368 20.2203 126.617 20.2599C126.753 20.2821 126.876 20.1675 127.059 20.3278C127.802 20.9767 128.549 21.6323 129.356 22.1954C129.77 22.4848 130.106 22.8925 130.635 23.0337C132.054 23.4081 133.46 23.8204 134.871 24.2193C135.003 24.2582 135.16 24.2178 135.26 24.3697C135.401 24.5823 135.655 24.5268 135.856 24.5684C136.036 24.6054 136.227 24.7411 136.517 24.5704C135.112 23.645 133.681 22.9357 132.244 22.2487C130.88 21.5969 129.503 20.963 128.113 20.3614C127.483 20.0885 126.89 19.7475 126.287 19.4277C126.21 19.3858 126.099 19.4007 126.045 19.3926C125.987 19.5613 125.944 19.7011 125.888 19.8732ZM59.8007 48.8632C60.203 49.5323 60.0971 50.327 60.3511 51.0355C60.6624 51.9046 60.8962 52.7956 61.1884 53.6724C61.4376 54.4178 61.6463 55.1753 61.9574 55.9044C62.2728 56.6547 62.4228 57.4701 62.701 58.2449C62.9881 59.0477 63.3111 59.8463 63.5171 60.6732C63.6344 61.1378 63.7259 61.5999 63.9051 62.0481C64.1075 62.5535 64.3154 63.0746 64.3952 63.6072C64.4762 64.1488 65.0091 64.5824 64.7426 65.2069C64.6766 65.3566 64.8664 65.527 65.0038 65.6399C65.0742 65.6953 65.2469 65.7367 65.24 65.7557C65.0914 66.3754 65.5894 66.8222 65.6665 67.4388C65.8201 67.2897 65.9438 67.2569 65.8724 66.9943C65.5407 65.7856 65.2843 64.5517 64.9402 63.3463C64.8204 62.9221 64.8087 62.4415 64.4718 62.092C64.4297 61.0802 63.9535 60.1742 63.6065 59.2657C63.2495 58.3347 62.9578 57.3705 62.6423 56.4364C61.9476 54.3685 61.1471 52.3312 60.603 50.2127C60.2023 49.8326 60.4344 49.1339 59.8007 48.8632ZM50.2907 21.7177C50.0407 21.4854 49.8967 21.3477 49.7493 21.2124C50.224 20.867 49.5115 20.4401 49.8947 20.0001C50.3751 19.6413 51.0281 19.3385 51.4517 18.7318C51.6476 18.4486 51.5639 18.373 51.3208 18.2762C50.8845 18.577 50.3691 18.7798 50.1999 19.2873C49.9312 19.3427 49.9175 19.0133 49.687 19.0824C49.1155 19.4573 48.3953 19.7317 47.9869 20.2511C47.5355 20.8229 46.9299 21.0946 46.3942 21.4944C45.8348 21.9098 45.2355 22.2644 44.6505 22.6482C44.4983 22.7481 44.3383 22.8434 44.1928 22.9534C44.1443 22.9901 44.1225 23.0672 44.0896 23.1275C44.1819 23.2748 44.2257 23.4588 44.4116 23.5351C44.818 22.9686 44.8167 23.0033 45.4011 23.0889C45.7107 23.1323 45.5745 23.3813 45.6851 23.4682C46.0068 23.7358 46.2709 23.3207 46.5591 23.3685C46.8016 23.369 46.6665 23.8106 47.0287 23.6987C46.9658 23.3241 46.4442 23.0619 46.7905 22.6026C47.4321 22.5104 47.4321 22.5104 47.4252 21.7945C47.2908 21.5539 47.0658 22.0062 46.889 21.7306C47.1356 21.6123 47.2591 21.2266 47.6104 21.6199C47.7174 21.7382 48.1259 21.5862 48.2787 21.5681C48.5029 21.4452 48.3572 21.2169 48.5626 21.2126C48.9028 21.2069 49.0989 21.4603 49.3474 21.5728C49.3472 21.8002 49.2035 21.9863 49.2799 22.1683C49.7032 22.1565 49.5073 21.6903 49.8197 21.6352C49.9128 21.6515 50.0171 21.67 50.2907 21.7177ZM154.726 89.4403C154.833 88.9201 154.969 88.4493 155.019 87.9668C155.07 87.4933 155.28 87.0701 155.353 86.5922C155.446 85.9554 155.393 85.3086 155.541 84.68C155.837 83.4317 155.914 82.1528 156.032 80.8765C156.214 78.8758 156.054 76.8829 155.971 74.8917C155.953 74.43 155.86 73.9735 155.802 73.5183C155.275 78.7667 155.342 84.0413 154.508 89.2496C154.507 89.2843 154.608 89.3342 154.726 89.4403ZM55.8653 85.5128C55.7009 87.6368 55.8433 89.7192 56.0451 91.7963C56.2882 94.296 56.6055 96.7906 56.8699 99.286C56.8997 99.5663 56.9952 99.726 57.2786 99.8398C57.0724 95.1401 56.5256 90.5044 56.0855 85.8614C56.0784 85.7404 55.941 85.6275 55.8653 85.5128ZM14.5861 74.1705C15.2573 73.2708 15.2292 72.1627 15.6661 71.2088C16.1133 70.2191 16.4372 69.1894 16.7589 68.1564C17.0898 67.0931 17.3658 66.0128 17.6653 64.946C17.4709 64.9671 17.2537 65.0564 17.2074 65.2802C17.0497 66.1138 16.1786 66.6515 16.2483 67.5728C15.7388 67.9168 15.7914 68.4963 15.6245 68.9927C15.5056 69.3414 15.287 69.6637 15.0392 69.8022C15.0641 70.3177 14.9979 70.6802 14.753 71.073C14.5512 71.3988 14.6293 71.8698 14.3254 72.1804C14.8914 72.5246 14.8853 72.5962 14.2794 73.2791C14.3753 73.3805 14.5702 73.2865 14.6696 73.5549C14.6496 73.7083 14.619 73.9411 14.5861 74.1705ZM24.719 72.7289C25.6741 71.1207 27.1659 66.6896 26.7509 65.1488C26.5291 65.628 26.1409 65.9504 26.335 66.5241C26.4056 66.734 26.2063 67.0195 26.2104 67.2682C26.215 67.6279 25.756 67.5857 25.727 67.9384C25.6956 68.3023 25.4205 68.6713 25.4713 69.0055C25.5438 69.4608 25.1651 69.6947 25.1291 70.081C25.0977 70.4449 25.0862 70.8682 24.8903 71.137C24.6583 71.4536 24.9093 71.9078 24.5522 72.1083C24.1725 72.3187 24.6232 72.7966 24.2247 72.971C24.1506 73.5419 23.7503 74.0076 23.7198 74.5933C23.7085 74.8038 23.7267 74.9417 23.9756 74.996C24.3447 74.6667 24.4218 74.1665 24.587 73.7777C24.8234 73.6661 25.0881 73.8985 25.21 73.5913C25.2124 73.5655 25.2363 73.5209 25.2207 73.4972C25.0617 73.2486 24.9015 73.0056 24.719 72.7289ZM97.5913 137.529C97.3444 137.705 97.0918 137.513 96.861 137.81C96.6302 138.106 96.5833 138.432 96.4288 138.727C96.2141 139.143 96.2992 139.566 96.5104 139.916C96.6904 140.218 96.3813 140.271 96.3475 140.492C96.7132 141.098 97.133 141.668 98.0957 141.747C97.8753 140.326 98.2654 138.933 97.5913 137.529ZM28.7602 135.756C29.1495 136.361 29.503 136.757 29.8979 137.166C30.545 137.838 31.2826 138.399 31.9456 139.037C32.9602 140.01 34.1594 140.727 35.2816 141.548C35.6471 141.816 36.0336 142.123 36.4748 142.322C36.9025 142.515 37.3311 142.732 37.7111 143.029C37.7513 143.06 37.8966 143.163 37.9844 142.936C37.8348 142.798 37.7381 142.629 37.4875 142.484C36.5512 141.938 35.7213 141.23 34.836 140.607C33.8869 139.939 32.9988 139.202 32.1356 138.444C31.6755 138.04 31.1884 137.639 30.7282 137.249C30.1552 136.769 29.6538 136.141 28.7602 135.756Z" fill="#FFDC79"/>
</svg>
