<svg width="109" height="128" viewBox="0 0 109 128" fill="none" xmlns="http://www.w3.org/2000/svg">
<path d="M33.4419 2.82511C33.5651 2.80299 33.8804 2.7462 34.2752 2.67625C34.2652 2.5463 34.2523 2.4018 34.2403 2.20251C34.4852 1.95835 34.5328 1.34493 35.08 1.38797C35.5698 1.42601 35.5736 0.577294 36.1355 0.899472C36.8228 0.395129 37.6524 0.606546 38.3621 0.648277C39.0063 0.689716 39.6322 0.426937 40.307 0.662344C40.8935 0.86725 41.5844 0.773273 42.2303 0.808292C42.3981 1.06985 42.554 1.31107 42.7665 1.64995C42.9311 1.47377 43.0497 1.3403 43.2439 1.13076C43.4042 1.16327 43.6627 1.21517 43.947 1.27394C44.2023 0.991271 44.4395 0.724421 44.7227 0.414811C44.9982 0.467797 45.2697 0.523165 45.5709 0.583031C45.5398 0.416461 45.5116 0.264414 45.4619 0C45.7852 0.144871 46.0481 0.27022 46.328 0.396631C46.3534 0.327737 46.3932 0.217977 46.4527 0.0480903C47.1524 0.627295 46.8684 1.65911 47.6595 2.28337C48.3124 2.57483 49.2653 2.51988 49.9698 3.10722C50.2431 3.33509 50.6257 2.78376 50.8496 3.31146C50.9305 3.49821 51.4182 3.0437 51.546 3.51819C52.1455 3.37913 52.6151 3.71103 53.1471 3.88762C53.5843 4.03199 54.093 4.10259 54.5788 4.14298C54.984 4.17557 55.3903 4.22912 55.7944 4.27862C56.158 4.32422 56.5243 4.41179 56.8895 4.41308C57.1998 4.41345 57.5927 4.17096 57.8048 4.29301C58.0889 4.45495 58.3364 4.53491 58.6976 4.39749C58.6937 4.71985 58.6888 4.918 58.6879 5.11386C59.1785 5.44452 59.661 5.77988 59.3617 6.55996C59.0108 6.76204 58.6151 6.98995 58.1948 7.23197C58.2099 8.39537 58.3034 9.56251 57.4233 10.6174C57.0332 10.7986 56.6145 11.2785 55.9771 11.1735C55.244 12.2848 54.1117 12.34 52.9633 12.3393C51.5806 12.3378 50.247 12.064 48.8986 11.6141C48.3999 12.623 47.9661 13.6217 47.4227 14.5532C47.0474 15.1926 46.6338 15.8974 46.0027 16.2825C45.347 16.6818 44.7759 17.2929 43.8741 17.2859C43.4709 17.2847 43.1309 17.703 42.618 17.738C42.3089 17.7586 42.0013 17.838 41.6668 17.7864C41.4879 17.7593 41.2821 17.8832 40.9086 17.9898C40.6312 17.9053 40.1365 17.577 39.7518 17.6737C39.1862 17.815 39.0158 17.0883 38.4534 17.423C38.4839 17.1938 38.4945 17.09 38.5125 16.9331C38.2866 16.7213 38.0337 16.4817 37.7736 16.2299C37.9181 16.0002 38.0394 15.8056 38.1879 15.5735C38.715 15.563 39.2971 15.5534 39.9591 15.5412C39.5881 15.0223 39.2981 14.6249 39.0518 14.2838C39.1138 14.0527 39.1483 13.9243 39.1846 13.7895C39.5591 13.7692 39.9441 13.7482 40.4471 13.7244C40.2813 13.3533 40.1543 13.0682 39.9938 12.7157C40.4326 12.5715 40.8755 12.425 41.3103 12.2832C41.5192 12.3528 41.7451 12.4235 41.9757 12.5023C42.0188 12.3418 42.0483 12.2706 42.0354 12.2671C41.869 12.1676 41.7033 12.0785 41.4959 11.9646C41.6179 11.8184 41.6946 11.7254 41.7888 11.6061C42.1293 11.8278 42.4546 12.042 42.8256 12.2787C42.7868 12.0895 42.7545 11.9399 42.6978 11.6632C43.1161 11.7751 43.4894 11.8748 43.9721 12.0038C44.0561 11.4345 44.1292 10.9312 44.2086 10.3917C43.999 9.78521 43.512 9.47956 42.891 9.26198C41.4553 8.76473 40.0732 8.1064 38.6445 7.62136C37.1796 7.13007 35.6974 6.56191 34.0977 6.53345C33.7237 6.52637 33.3542 6.34846 32.9552 6.24181C32.7526 5.89181 32.5429 5.5296 32.2791 5.07378C32.323 4.96167 32.3981 4.77194 32.4749 4.57574C32.9152 4.49043 33.3683 4.40853 33.9569 4.2975C33.654 3.99982 33.4092 3.7555 33.0888 3.44624C33.1572 3.32003 33.2604 3.14126 33.4419 2.82511Z" fill="#F6D06D"/>
<path d="M97.6496 59.7644C97.9671 60.0591 98.2328 60.3021 98.5726 60.6166C98.3185 60.6381 98.1526 60.6522 97.9365 60.6736C97.7013 61.1508 97.5194 61.6355 97.9032 62.1199C97.7717 62.2499 97.6838 62.333 97.5663 62.4495C97.7454 62.7589 97.9315 63.0804 98.0964 63.3653C98.0584 63.5065 98.0607 63.6137 98.0072 63.6717C97.6653 64.0585 97.1758 64.3783 96.9914 64.821C96.7538 65.3974 96.2369 65.4725 95.8342 65.7261C95.5026 65.9334 95.0821 65.9964 94.694 66.106C93.3142 66.5044 91.9039 66.7089 90.4711 66.7525C89.5906 66.7821 88.7045 66.7551 87.8275 66.6687C86.9699 66.5874 86.1269 66.3999 85.2485 66.2546C85.2406 66.4383 85.2251 66.6371 85.2225 66.8394C85.2009 68.7945 84.8529 70.6934 84.3324 72.5668C84.0879 73.451 83.3273 73.8944 82.7156 74.4637C82.4718 74.6909 82.131 74.8166 81.8332 74.9882C81.09 75.02 80.6924 74.4459 80.1229 73.9978C80.3567 73.6028 80.5939 73.1948 80.8659 72.7343C80.8138 72.7101 80.7207 72.6714 80.5602 72.601C80.593 72.4791 80.5887 72.3025 80.6736 72.2047C81.2003 71.5921 81.228 70.8599 81.1815 70.1215C81.0912 68.6216 80.9735 67.1211 80.8559 65.5175C80.3762 65.4031 79.7292 65.385 79.2475 65.098C78.801 64.8342 78.1609 65.1757 77.8687 64.53C77.8121 64.6765 77.7699 64.7822 77.7116 64.9352C77.4727 64.8232 77.2273 64.7094 76.8906 64.5506C76.6575 64.5709 76.3029 64.6069 75.9547 64.6445C75.8341 64.4644 75.7223 64.29 75.56 64.0471C75.4825 64.2328 75.442 64.3321 75.3837 64.4851C75.041 64.0529 74.5349 64.3064 74.1018 64.1597C73.643 64.0061 73.1322 64.0072 72.5808 63.9286C72.5921 63.8353 72.601 63.7379 72.6235 63.5513C72.4559 63.5718 72.2947 63.5941 72.0955 63.6166C72.1137 63.4976 72.1325 63.3891 72.1609 63.1937C71.2967 63.4959 70.4139 63.4183 69.5776 63.2704C68.7178 63.1198 67.7967 63.0696 66.952 62.5033C66.9771 62.3586 67.0095 62.1609 67.0447 61.9398C67.83 61.9055 68.6001 61.8636 69.2865 62.3257C69.5884 62.1518 69.8658 61.992 70.1759 61.8134C70.052 61.684 69.9707 61.5246 69.8906 61.5273C69.5745 61.5357 69.2616 61.5966 69.1109 61.6182C68.368 61.3406 67.7657 61.1177 67.0012 60.8308C67.3986 60.5586 67.6584 60.3872 67.9078 60.2165C68.0737 60.3434 68.1958 60.4413 68.3283 60.5387C68.3584 60.4779 68.4222 60.3815 68.4064 60.3635C68.1938 60.1278 67.9689 59.8991 67.6988 59.6205C67.8079 59.4329 67.9418 59.2038 68.0758 58.9747C68.1805 58.9958 68.3004 59.0245 68.4349 59.0501C68.7314 58.8197 68.7932 58.2686 69.3324 58.3542C69.3043 58.4843 69.2757 58.6039 69.2534 58.7253C69.344 58.722 69.4575 58.7488 69.4953 58.7108C69.6023 58.5949 69.6759 58.4494 69.7978 58.2653C70.3962 58.0021 71.0372 58.2353 71.6569 58.4319C72.2445 58.6199 72.8148 58.8721 73.5173 59.1459C73.5195 58.8678 73.5155 58.6259 73.5161 58.3543C73.8339 58.3394 74.0296 58.3298 74.2318 58.3219C74.2566 58.2426 74.2941 58.1287 74.3529 57.9484C74.5327 58.165 74.6831 58.3497 74.8976 58.6168C75.0545 58.418 75.1881 58.2542 75.341 58.0576C75.487 58.31 75.6307 58.5582 75.7697 58.7984C76.1313 58.7746 76.4445 58.7516 76.7471 58.7293C76.8001 58.5577 76.8393 58.4375 76.8923 58.2659C77.065 58.4703 77.2236 58.6502 77.4463 58.9127C77.5916 58.7314 77.7253 58.5676 77.8845 58.3728C78.0238 58.5476 78.1701 58.7346 78.3641 58.9757C78.5315 58.7762 78.6651 58.6123 78.8854 58.3444C78.9384 58.6991 78.9793 58.9578 79.0274 59.2665C79.3242 59.253 79.6275 59.2411 79.9267 59.2316C79.9847 59.1439 80.0651 59.076 80.0589 59.009C80.0561 58.8912 79.9796 58.7779 79.9767 58.6602C79.973 58.212 80.3665 57.8768 80.361 57.435C80.3554 56.9553 80.6168 56.5985 80.7949 56.192C80.9563 55.8223 81.1058 55.5355 81.4726 55.3514C81.5997 55.2891 81.6626 55.1063 81.78 54.9519C81.9109 54.9525 82.1032 54.9557 82.365 54.9569C82.5719 55.2393 83.1007 55.2224 83.2066 55.894C83.3889 57.0642 83.6291 58.2499 84.1074 59.3582C84.1322 59.4199 84.0707 59.5204 84.027 59.6704C84.5464 59.7783 85.0634 59.8821 85.711 60.0138C85.7541 59.9944 85.9414 59.9137 86.1432 59.83C86.2983 60.0229 86.4487 60.2076 86.6815 60.4968C86.8551 60.1201 86.9836 59.8345 87.1757 59.4145C87.2513 59.7237 87.3037 59.9269 87.3656 60.1842C87.4445 60.1985 87.6089 60.2287 87.7902 60.2599C88.0698 59.9252 88.3514 59.9042 88.8283 60.183C89.3501 60.0507 89.851 59.9197 90.2689 59.8146C90.4467 59.9619 90.5487 60.0442 90.6754 60.1503C90.722 59.977 90.7427 59.9 90.7789 59.7652C91.2227 59.9491 91.6522 60.2118 92.1107 60.2897C92.5225 60.3619 92.9707 60.234 93.4701 60.1851C93.4893 60.1524 93.553 60.0181 93.6601 59.799C94.0544 59.8975 94.4423 59.9943 94.8132 60.09C94.8756 59.9346 94.9196 59.8225 94.9941 59.6223C95.276 59.677 95.5538 59.7341 95.8591 59.7916C96.055 59.6788 96.2753 59.5519 96.5079 59.418C96.9194 59.5554 97.3319 59.676 97.6496 59.7644Z" fill="#F6D06D"/>
<path d="M86.2851 29.9142C86.6085 29.0443 86.6125 29.0419 85.9053 28.619C86.0958 28.4876 86.2695 28.3929 86.4092 28.2582C86.5069 28.164 86.5442 28.0122 86.6068 27.8948C86.7291 27.9275 86.8128 27.9498 86.9222 27.9791C86.9061 27.7821 86.8907 27.5957 86.8636 27.2857C87.3687 27.3313 87.8481 27.3699 88.3257 27.415C88.6999 26.7926 89.1724 27.3833 89.5244 27.3054C90.0638 27.1846 90.4822 27.6817 90.9812 27.416C91.5642 27.1074 91.9704 27.6495 92.447 27.7115C92.8639 27.7644 93.2778 28.047 93.6732 27.8844C93.7747 27.712 93.853 27.5747 93.9829 27.3479C94.3614 27.5695 94.6895 27.7604 95.0136 27.9536L95.7404 28.4575C96.1118 28.5258 96.4809 28.5901 96.9739 28.6806C96.9821 28.6759 97.129 28.5913 97.1902 28.556C98.1224 28.9634 98.996 29.3448 100.004 29.7897C99.9913 29.5042 99.9789 29.3323 99.9659 29.0467C100.571 29.1052 101.183 29.1655 101.839 29.2273C101.636 28.2098 101.447 27.2442 101.25 26.2559C101.461 26.2433 101.643 26.2303 101.885 26.2158C101.801 25.7703 101.726 25.3579 101.64 24.8809C101.791 24.794 101.967 24.6929 102.126 24.6013C102.211 24.2214 102.286 23.8906 102.364 23.5469C102.618 23.3844 102.858 23.2247 103.091 23.0739C103.152 22.8492 103.207 22.6438 103.262 22.4383L104.706 22.9688C105.115 23.0538 105.212 23.3344 105.188 23.7064C105.182 23.8183 105.215 23.951 105.278 24.0504C105.967 25.184 106.129 26.4692 106.348 27.7319C106.512 28.6633 106.581 29.6107 106.696 30.6081C107.037 30.6993 107.403 30.9448 107.877 30.7311C108.254 31.1276 108.637 31.5362 109 31.9187C108.899 32.2806 108.822 32.5695 108.744 32.8583C108.627 32.8338 108.507 32.8052 108.327 32.7675C108.162 33.009 107.982 33.2703 107.875 33.4241C108.126 33.7354 108.351 34.0125 108.568 34.2837C108.336 34.6345 108.129 34.9543 107.919 35.2764C108.035 35.3073 108.118 35.3297 108.15 35.3383C108.043 35.7258 107.934 36.1198 107.785 36.6613C106.952 36.9996 106.352 38.002 105.315 38.4198C105.099 38.5065 104.899 38.828 104.838 39.08C104.601 40.0901 103.728 40.6308 103.146 41.3731C102.924 41.658 102.63 41.9956 102.284 42.2058C101.738 42.5416 101.205 42.9357 100.612 43.1522C99.6722 43.4928 98.6704 43.858 97.761 43.0577C97.4624 42.7955 97.2405 42.4404 96.9174 42.0513C97.5049 41.7129 98.0068 41.4239 98.6515 41.0526C98.194 40.8168 97.8847 40.6585 97.4232 40.4251C97.5476 40.2829 97.6918 40.1185 97.8401 39.9517C97.7663 39.9182 97.6908 39.8911 97.617 39.8576C97.9393 39.672 98.2617 39.4864 98.6411 39.2678C98.4325 39.1329 98.283 39.0346 98.1424 38.9419C98.2812 38.2325 98.8187 37.9392 99.3991 37.6918C99.3643 37.5002 99.3362 37.3482 99.2895 37.0983C99.578 37.0516 99.8641 37.0008 100.215 36.9398C100.118 36.8277 100.088 36.7579 100.038 36.7377C99.9194 36.6922 99.7616 36.7016 99.6707 36.6292C98.7628 35.8877 97.4753 35.9942 96.5731 35.244C95.7728 35.4498 95.2066 34.81 94.4941 34.6505C93.7541 34.4906 93.0772 34.0448 92.367 33.7483C91.6761 33.457 90.852 33.5464 90.2552 32.9947C89.1905 33.0163 88.2109 32.7339 87.301 32.2051C86.7707 32.5485 86.2721 31.8372 85.7021 32.1872C85.516 31.8657 85.3299 31.5441 85.1226 31.186C85.1536 31.0704 85.1967 30.91 85.2415 30.7431C85.7602 31.0847 86.3226 30.9942 86.9889 31.0174C86.7437 30.2742 85.7144 30.3568 85.7252 29.5203C85.9041 29.6507 86.0582 29.7572 86.2851 29.9142Z" fill="#F6D06D"/>
<path d="M76.0129 39.2647C75.5212 39.6184 75.0442 38.9163 74.7589 39.5419C74.8882 39.5868 75.0024 39.6241 75.1206 39.6592C75.1102 39.6977 75.114 39.7606 75.0878 39.7812C74.5881 40.1774 74.0552 40.4409 73.3867 40.3104C72.652 40.1691 71.9174 40.0278 71.18 39.9098C70.9454 39.8713 70.7007 39.9091 70.4074 39.9098C69.9964 40.4123 69.614 41.0016 69.2103 41.5542C68.7793 42.1443 68.1445 42.5044 67.7294 43.1124C67.5082 43.4352 66.7499 43.3564 66.4287 43.6661C66.0673 44.0099 65.856 44.4626 65.2547 44.3259C64.1483 44.9522 63.0253 44.6005 61.8853 44.3887C61.5273 43.7701 61.1692 43.1515 60.8158 42.541C60.8542 42.3724 60.895 42.2078 60.961 41.9365C61.4826 42.0105 62.0042 42.0846 62.5855 42.1677C62.6377 42.0887 62.7701 41.904 62.9431 41.6578C62.8819 41.552 62.8277 41.3173 62.7142 41.2904C62.2291 41.1574 62.1483 40.7264 61.9232 40.4219C62.116 40.1535 62.2733 39.9273 62.4545 39.6764C62.7592 39.7234 63.0744 39.7698 63.5516 39.8423C63.3721 39.4193 63.2556 39.1336 63.0979 38.7578C63.4203 38.5722 63.7671 38.3724 64.1629 38.1445C63.7539 37.3816 62.7969 37.8242 62.4358 37.191C61.8343 37.1575 61.2857 36.9146 60.7198 36.7358C60.0638 36.5329 59.4015 36.3663 58.7351 36.202C58.1202 36.0514 57.5071 35.8944 56.8872 35.8009C56.244 35.7047 55.5946 35.6825 55.1871 35.6459C54.7577 35.28 54.5155 35.0776 54.2151 34.8219C54.3048 34.6291 54.3569 34.3713 54.5146 34.2208C54.6345 34.1083 54.8857 34.1101 55.0856 34.0982C55.3064 34.085 55.5339 34.1113 55.8358 33.9374C55.5086 33.6918 55.1878 33.4478 54.8296 33.1765C55.0901 32.7714 55.3681 32.34 55.793 31.683C55.7807 31.69 56.0105 31.5794 56.2109 31.4369C56.3664 31.3202 56.4855 31.1594 56.6664 30.9738C56.7698 30.9739 56.9598 30.973 57.1328 30.9711C57.1892 30.7867 57.2243 30.6688 57.2601 30.5614C58.6646 30.6099 60.0681 30.5722 61.4777 30.7047C62.6598 30.8108 62.6698 30.6965 63.1585 30.9957C63.196 30.8819 63.2335 30.768 63.2617 30.6758C64.758 30.9863 66.2414 31.2933 67.7441 31.6054C67.8542 31.542 68.0011 31.4574 68.1113 31.3939C68.1532 30.4419 68.1929 29.5237 68.2366 28.5652C68.4954 28.5518 68.6532 28.5424 68.9015 28.5296C68.9769 28.1335 69.3138 27.7006 68.8514 27.2777C69.0099 27.0345 69.1417 26.8393 69.2694 26.6464C69.3968 26.6598 69.5582 26.6754 69.7728 26.6983C69.89 26.2618 69.997 25.8638 70.1108 25.4401C70.4349 25.3891 70.7152 25.3471 71.0206 25.3014C71.103 25.1617 71.2004 24.9917 71.288 24.8328C71.3972 24.8241 71.49 24.787 71.5509 24.817C71.6879 24.8846 71.7921 25.0363 71.9289 25.066C72.7432 25.232 72.8253 25.2986 72.9658 26.0208C73.1505 26.9509 73.4743 27.8769 73.4989 28.8123C73.5279 30.0654 73.3249 31.3218 73.2112 32.6951C73.7552 32.9299 74.444 33.1518 75.1805 33.3246C75.8913 33.4905 76.5883 33.8488 77.282 34.502C76.9734 34.4953 76.8425 34.4946 76.5655 34.486C76.9467 34.9284 77.2645 35.2989 77.5823 35.6694C77.5475 35.722 77.5168 35.7723 77.4796 35.8208C77.14 35.6853 76.7981 35.5458 76.4585 35.4103C76.3844 35.6864 76.3413 35.8469 76.2947 36.0202C76.4196 36.2359 76.5492 36.4597 76.7329 36.7772C76.5388 37.0246 76.3168 37.299 76.06 37.6259C76.2178 37.8986 76.4039 38.2201 76.5924 38.5457C76.3407 38.8534 76.1169 39.1343 76.0129 39.2647Z" fill="#F6D06D"/>
<path d="M51.3924 47.0231C51.7036 47.354 51.9784 47.6408 52.3682 48.0511C52.2919 48.7463 52.1775 49.5827 52.1018 50.4294C52.0146 51.4347 51.7344 52.4263 51.8505 53.4446C51.8773 53.6789 51.9315 53.9135 51.9908 54.2321C51.6972 54.8244 50.8289 55.3733 51.4687 56.253C51.326 56.8995 50.6834 57.3401 50.9738 57.9922C50.7448 58.3954 50.422 58.7495 50.3303 59.155C49.9062 61.0163 49.0563 62.6779 47.86 64.3707C47.3918 64.7272 46.7185 65.1149 46.1089 65.6125C45.1469 66.3943 43.9056 66.3549 42.7839 65.7799C42.4746 65.6216 42.0442 65.6958 41.8359 65.2514C41.6908 64.9443 41.3568 64.7242 41.0368 64.3876C41.0728 64.2149 41.1179 63.9827 41.1827 63.6903C41.8904 63.7006 42.5666 64.0981 43.2984 63.7363C43.1281 62.9065 42.1714 63.0395 41.6765 62.3912C41.7046 62.2611 41.7521 62.033 41.7961 61.8177C42.3152 61.8498 42.6606 61.8733 43.3048 61.9148C42.8759 61.5215 42.6763 61.186 42.436 61.1562C41.832 61.0807 41.3678 60.6643 40.7243 60.6334C40.1275 60.608 39.5413 60.3378 38.9644 60.046C38.1543 59.6335 37.2296 59.4551 36.3737 59.1232C35.114 58.6385 33.8219 58.2485 32.6233 57.5876C32.1517 57.3274 31.5594 57.2723 31.0194 57.1383C30.5269 57.0204 30.1101 56.6201 29.5826 56.799C29.2788 56.274 29.0079 55.806 28.7181 55.3054C28.9915 55.148 29.2404 55.0046 29.6852 54.7485C29.7495 54.7657 29.9747 54.8259 30.2515 54.8999C30.0993 54.7216 29.9577 54.5427 29.8039 54.3708C29.6459 54.2013 29.4716 54.0412 29.218 53.7911C29.9621 53.4224 30.5798 53.0232 30.7434 52.2344C30.9539 52.2597 31.0749 52.2714 31.3152 52.3013C31.309 52.0932 31.305 51.8513 31.2948 51.4014C31.5953 51.695 31.6986 51.7983 31.8378 51.9352C31.9452 51.7919 32.0264 51.6313 32.1568 51.5182C32.2831 51.4075 32.4458 51.3409 32.5927 51.2563C33.3978 51.3407 34.2029 51.4252 35.0845 51.5197C35.1398 51.5964 35.2615 51.7597 35.4409 52.0037C35.5022 51.8653 35.5432 51.7765 35.5936 51.6661C35.7904 51.6396 36.0083 51.6118 36.2577 51.5822C36.7741 52.5871 37.7907 52.0125 38.531 52.3893C38.6253 52.1668 38.6733 52.0523 38.6936 52.0027C39.3307 52.173 39.9679 52.3433 40.6179 52.517C40.6276 52.468 40.6134 52.5467 40.6197 52.5106C40.9093 52.588 41.2053 52.6671 41.5014 52.7462C41.4878 52.8355 41.4782 52.9224 41.4646 53.0116C41.64 52.9106 41.8114 52.8119 42.0521 52.6733C42.0214 52.8646 42.0026 52.9731 41.9605 53.2198C42.1882 53.0399 42.3413 52.9191 42.5527 52.7486C43.0719 52.8185 43.6977 52.9032 44.3765 52.9952C44.3525 53.2261 44.3344 53.383 44.3175 53.523C45.0176 53.6516 45.737 53.7854 46.4564 53.9192C46.4421 53.7158 46.4307 53.527 46.4119 53.2502C46.7804 53.3039 47.0956 53.3503 47.3979 53.3933C47.4735 53.3172 47.5592 53.2679 47.5781 53.1972C47.946 52.0846 48.1633 50.8905 48.7058 49.8726C49.3278 48.7385 49.8865 47.4291 51.3924 47.0231Z" fill="#F6D06D"/>
<path d="M26.3903 40.8878C26.2809 40.8586 26.1972 40.8363 26.1135 40.8139C26.0841 40.8851 26.0458 40.9506 26.0291 41.0252C25.9312 41.4669 25.9165 41.9584 25.7937 42.3384C25.6726 42.712 25.6293 43.0788 25.535 43.4424C25.4081 43.9279 25.1653 44.5236 24.7789 44.7678C24.0896 45.2027 23.4055 45.6564 22.5639 45.9131C21.1155 46.3619 19.7621 46.2514 18.3631 45.874C16.5909 45.3969 14.8169 44.9262 12.9505 44.4274C12.822 45.0983 12.1098 45.541 12.3769 46.3314C11.9695 46.9621 11.558 47.5952 11.1506 48.2259C10.7762 48.8105 10.1662 49.0913 9.595 49.4202C9.18462 49.6511 8.77895 49.8902 8.37092 50.1251C7.6768 50.0256 6.97861 49.9285 6.29736 49.8324C5.94165 49.2179 5.61183 48.6481 5.22785 47.9847C5.90577 47.9904 6.48842 47.9914 7.05647 47.9953C7.1585 47.0249 5.93525 47.3929 5.91538 46.6066C6.21276 45.9361 6.8563 46.4934 7.48774 46.4283C7.13838 46.0597 6.93349 45.8467 6.68572 45.5878C7.1125 45.1032 7.6254 44.9273 8.28809 44.9255C8.25805 44.742 8.23868 44.5958 8.20203 44.3727C8.26773 44.1667 8.44128 44.4195 8.67121 44.3468C8.84093 44.0103 9.05065 43.6019 9.3032 43.0983C6.31724 42.3759 3.67159 40.7847 0.64547 40.6227C0.428742 40.2483 0.240285 39.9227 0 39.5076C0.416694 39.3816 0.781418 39.2692 1.27925 39.1236C0.990052 38.8777 0.771833 38.6887 0.462691 38.4272C0.797272 38.2345 1.07473 38.0747 1.3277 37.9291C1.26893 37.7241 1.24094 37.61 1.20653 37.4942C1.25124 37.4304 1.28658 37.3504 1.34715 37.3047C1.45025 37.229 1.58096 37.1917 1.67291 37.1062C2.69806 36.2174 3.94829 36.2625 5.1596 36.3627C6.47498 36.4734 7.77408 36.7346 9.1799 36.9452C9.52115 36.0215 9.33524 34.9673 9.50204 33.8457C9.59698 33.7747 9.75425 33.6516 9.93361 33.5104C10.0688 33.1612 10.1269 32.6882 10.391 32.4113C10.9668 31.8084 11.3234 30.9301 12.4149 30.7574C12.5011 30.8217 12.701 30.9508 12.8909 31.091C13.0809 31.2312 13.2634 31.3866 13.4675 31.5513C13.3392 32.0158 13.8171 32.6252 13.1817 32.8717C13.3793 33.6641 13.5478 34.3593 13.715 35.0335C13.5619 35.2954 13.4204 35.5397 13.2615 35.8103C13.4994 36.2213 13.7279 36.616 13.9705 37.0352C13.8588 37.143 13.771 37.2262 13.661 37.3275C13.5716 37.9813 14.2051 38.1266 14.4316 38.3488C15.0616 38.469 15.5441 38.5601 16.0758 38.6609C16.0623 38.7881 16.0452 38.8901 16.0262 39.0639C16.2851 39.0884 16.5675 39.1157 16.9113 39.1457C16.8969 39.1865 16.9333 39.0896 16.9963 38.9448C17.4261 39.3865 17.9678 39.1287 18.5241 39.1123C18.5176 39.3548 18.51 39.5111 18.5035 39.7536C18.7142 39.6757 18.9184 39.5961 19.1599 39.5058C19.2251 39.5714 19.3102 39.6526 19.4628 39.8035C19.944 39.5915 20.526 39.3377 20.7614 40.0921C21.1807 40.1491 21.6708 40.3661 21.8811 40.2124C22.5136 39.745 23.1634 40.1252 23.7834 39.9743C24.4949 39.6623 24.4879 39.6501 24.8125 39.1864C25.4804 39.4475 26.0531 39.8448 26.5791 40.3775C26.5371 40.5211 26.4706 40.6788 26.3903 40.8878Z" fill="#F6D06D"/>
<path d="M51.39 113.037C51.5828 113.295 51.6998 113.45 51.8485 113.641C51.9183 113.433 51.9575 113.312 52.0157 113.121C52.69 113.102 53.2975 113.447 53.9554 113.54C53.9778 113.457 54.0003 113.373 54.0296 113.264C54.4125 113.418 54.8017 113.574 55.1284 113.706C55.5571 113.638 55.7879 113.125 56.2751 113.469C56.3123 112.894 56.3421 112.372 56.3848 111.853C56.5189 110.224 56.4894 108.575 57.0187 106.99C57.325 106.081 57.6233 105.215 58.5122 104.692C58.6631 104.605 58.7205 104.366 58.8702 104.117C59.2755 104.328 59.6568 104.527 60.1342 104.778C60.1142 107.741 60.2816 110.7 59.7957 113.78C59.9686 113.881 60.2328 114.169 60.4355 114.133C61.2436 113.988 61.9902 114.188 62.7455 114.393C62.8357 114.417 62.9626 114.317 63.0781 114.272C63.2227 114.465 63.338 114.627 63.522 114.879C63.6669 114.725 63.7943 114.597 64.0106 114.37C64.6171 114.59 65.3353 114.6 66.0953 114.39C66.5354 114.267 67.0656 114.45 67.7175 114.514C68.4112 114.115 69.2517 113.631 70.1371 113.121C70.2719 113.325 70.3854 113.493 70.5107 113.682C70.6567 113.652 70.8114 113.628 70.9971 113.591C71.1361 113.832 71.2774 114.076 71.44 114.357C71.1615 114.674 70.8754 115.007 70.5475 115.381C70.7639 115.538 70.9802 115.696 71.2388 115.889C71.1062 116.036 71.0032 116.149 70.9003 116.263C70.9135 116.342 70.89 116.442 70.9352 116.492C71.2959 116.909 71.0822 117.46 70.8645 117.667C69.9689 118.498 69.3327 119.748 67.8571 119.746C66.7525 120.366 65.5226 120.168 64.3464 120.335C63.9633 120.388 63.7031 119.816 63.2493 120.273C63.0643 120.461 62.4801 120.26 62.0774 120.231C61.7126 120.203 61.3467 120.191 60.9858 120.122C60.5694 120.041 60.1631 119.885 59.7426 119.807C59.3945 119.741 59.0317 119.744 58.6289 119.716C58.3927 121.648 57.4264 123.306 56.6306 125.023C55.5033 126.074 54.5423 127.327 52.9026 128C52.3622 127.893 51.6702 127.76 50.9291 127.617C50.7514 127.085 50.1491 126.721 50.3907 126.001C50.9392 126.065 51.4853 126.125 52.0337 126.189C52.0706 126.064 52.1097 125.944 52.1408 125.829C51.9186 125.153 50.9101 125.441 50.749 124.693C50.8784 124.494 51.0037 124.297 51.139 124.088C51.3744 124.213 51.6445 124.351 51.9297 124.496C51.9901 124.271 52.0349 124.104 52.078 123.944C51.5702 123.818 51.3895 123.516 51.6198 122.889C51.8876 122.778 52.1359 122.38 52.64 122.584C52.6239 122.387 52.6102 122.194 52.5873 121.919C52.9276 121.962 53.2293 121.995 53.5398 122.033C53.5057 121.852 53.4776 121.7 53.4177 121.371C53.6267 121.581 53.7276 121.681 53.9025 121.851C54.0703 121.728 54.3427 121.625 54.4225 121.443C54.7488 120.691 55.0182 119.906 55.3405 119.053C54.9314 118.92 54.6253 118.814 54.3134 118.717C52.4771 118.157 50.5253 117.925 48.8499 116.882C48.4343 117.132 48.2149 116.678 47.8798 116.616C47.5043 116.55 47.1351 116.448 46.8823 116.387C46.7198 116.106 46.6209 115.935 46.4512 115.642C47.1446 115.693 47.7606 116.109 48.3745 115.506C47.8068 115.193 47.252 114.883 46.5771 114.506C46.9382 114.369 47.2124 114.26 47.528 114.138C47.5146 113.879 47.4912 113.491 47.4683 113.076C47.6868 113.058 47.8697 113.045 48.0841 113.03C48.0426 112.902 48.0041 112.789 47.9633 112.671C48.0011 112.633 48.051 112.55 48.0872 112.557C48.6099 112.614 49.1419 112.79 49.6472 112.733C50.3014 112.66 50.8055 113.004 51.39 113.037Z" fill="#F6D06D"/>
<path d="M51.0225 86.236C49.4219 85.9802 48.0867 85.7507 46.747 85.5508C45.4774 85.3595 44.195 85.3057 42.9252 85.3207C42.8795 85.4392 42.8356 85.5513 42.7588 85.7475C42.4382 85.6825 42.1177 85.6174 41.7761 85.5537C41.6324 85.3054 41.4887 85.0572 41.3521 84.8211C41.4676 84.391 41.7321 83.9457 41.6528 83.5736C41.5537 83.1205 41.8291 82.8914 41.9681 82.6051C42.4511 81.6161 43.0422 80.7765 44.3124 80.5931C45.095 80.4788 45.8759 80.371 46.6614 80.2714C46.898 80.2383 47.1333 80.1842 47.4795 80.115C47.6854 80.17 48.0137 80.2578 48.3677 80.3524C48.6492 80.1902 48.943 80.0211 49.0695 79.9482C50.1195 79.9296 50.9942 79.9088 51.9538 79.8934C52.0088 79.1238 52.0774 78.4059 52.1122 77.6859C52.1807 76.2628 52.52 74.9223 53.3657 73.7516C53.5469 73.5007 53.7937 73.2881 54.1113 72.9532C54.2206 72.9446 54.491 72.9137 54.7913 72.8873C55.0293 73.0541 55.2872 73.2365 55.4877 73.3761C55.6097 74.0004 55.7436 74.542 55.8144 75.0872C55.8852 75.6325 55.8977 76.1897 55.9352 76.7433C55.3329 77.1878 56.0181 77.77 55.7517 78.3249C55.5364 78.7799 55.7034 79.4163 55.7022 80.0628C58.0196 80.6546 60.3728 80.998 62.7527 81.1902C62.9351 81.2046 63.1308 81.0539 63.3203 80.9773C64.0065 81.2604 64.2415 81.798 64.1746 82.5094C64.0318 82.5917 63.8849 82.6762 63.8196 82.7138C63.8031 83.597 63.7939 84.4271 63.7786 85.3312C63.5853 85.8713 62.8954 86.0515 62.5609 86.5263C62.1811 87.0544 61.5743 87.1433 61.2466 87.4514C59.1823 87.6634 57.2419 87.6196 55.2807 87.0885C55.0685 87.2107 54.8196 87.354 54.5217 87.5256C54.4368 88.5349 53.9102 89.4297 53.407 90.3272C53.2371 90.6258 52.9166 90.8429 52.6507 91.0884C52.117 91.5856 51.6438 92.1403 50.9792 92.4959C49.7053 93.1806 48.4019 92.9871 47.2628 92.0531C46.5454 91.4623 46.2666 90.6516 45.7162 89.8887C46.87 89.8049 47.3955 90.8914 48.5078 91.0648C47.8551 90.0406 46.4897 89.975 46.0595 88.7901C46.3361 88.6852 46.6126 88.5802 46.9037 88.4722C46.86 88.2369 46.7948 87.8892 46.7325 87.5561C47.263 87.2506 47.7036 86.9969 48.1443 86.7431C48.807 86.7413 49.4902 86.7657 50.165 86.7189C50.3852 86.6952 50.59 86.4851 51.0225 86.236Z" fill="#F6D06D"/>
<path d="M26.3125 75.4551C27.075 75.5695 27.7715 75.6731 28.5405 75.7891C28.9608 75.5471 29.43 75.2769 29.9686 74.9667C30.3539 75.2658 30.7239 75.5573 31.145 75.8901C30.9458 76.6831 30.4066 77.2649 29.8848 77.7825C30.0912 77.9512 30.2737 78.1066 30.5447 78.3304C30.3519 78.7398 30.2241 79.177 29.9702 79.5186C29.2087 80.5432 28.1021 81.1316 27.052 81.6766C26.5258 81.7355 26.0538 81.7848 25.4668 81.8515C25.5986 82.1826 25.7972 82.4317 25.749 82.6115C25.4373 83.746 25.1086 84.8795 24.7069 85.9899C24.4916 86.586 24.2309 87.2354 23.7968 87.6698C23.1662 88.3097 22.3607 88.779 21.5808 89.3584C20.9079 89.2955 20.1951 89.3424 19.5578 89.1342C18.9743 88.9439 18.486 88.4762 17.8249 88.0484C17.8975 87.8166 17.9643 87.5937 18.0351 87.3684C18.1598 87.4051 19.835 87.8838 19.835 87.8838C19.8678 87.7619 19.9023 87.6335 19.9506 87.4537C19.3001 87.1663 18.5417 86.9465 18.383 85.958C18.7718 86 19.0799 86.0342 19.6131 86.0907C19.256 85.8026 19.0542 85.642 18.7751 85.4229C18.9014 85.1711 19.0369 84.8977 19.2008 84.57C19.6835 84.699 20.0632 84.8005 20.5266 84.9243C20.455 84.7159 20.4206 84.6001 20.3566 84.4145C20.927 84.4224 21.4321 83.9416 22.027 84.4618C22.4505 83.3606 22.4724 82.3929 22.5322 81.3871C19.0804 80.1137 15.7081 78.8649 12.2844 77.6024C12.1148 77.3094 11.9145 76.9635 11.6648 76.5321C12.1486 76.5031 12.5377 76.4798 12.9309 76.4542C12.9896 75.9917 12.5678 75.8927 12.2764 75.6806C12.5717 74.4144 13.4175 73.6669 14.5896 73.2199C15.2281 73.308 15.8836 73.3972 16.5479 73.4921C16.5541 73.456 16.5725 73.3749 16.6264 73.1485C16.7663 73.3338 16.8992 73.5069 17.0344 73.6841C17.0736 73.5638 17.1063 73.4419 17.1455 73.3216C17.2303 73.4681 17.3151 73.6146 17.3835 73.7327C19.2602 73.6666 20.9798 74.3911 22.8297 74.5793C22.8051 72.8733 22.5033 71.1207 22.5302 69.2874C22.7107 69.1292 22.919 68.9441 23.1618 68.7337C22.8857 68.6703 22.6821 68.6193 22.4809 68.5724C22.2363 67.9807 22.8758 67.6287 22.8398 67.0308C22.8106 66.5104 23.2126 65.9642 23.4269 65.4229C23.8635 65.1715 24.3042 64.9177 24.7489 64.6616C24.9163 64.7063 25.0836 64.751 25.3153 64.813C25.8549 66.0271 25.7486 67.3472 25.8253 68.6922C25.8575 68.7008 25.9716 68.7381 26.0214 68.7583C26.2635 69.5902 25.7322 70.4768 26.3317 71.2494C26.0519 71.9315 26.3874 72.5957 26.3816 73.2719C26.3841 73.9433 26.3427 74.6238 26.3125 75.4551Z" fill="#F6D06D"/>
<path d="M25.3813 32.8952C25.3799 32.5921 25.3759 32.3502 25.3697 32.0011C25.7681 31.853 26.1666 31.7049 26.6619 31.5174C26.8759 31.1445 27.2801 30.7056 27.1526 30.0247C26.6516 29.9768 26.1581 30.0548 25.6796 29.6792C25.343 29.4173 24.7379 29.4998 24.2566 29.4296C23.7221 29.3521 23.2424 29.0966 22.6616 29.1272C22.1755 29.1521 21.6829 28.8931 21.1812 28.8347C20.6626 28.7753 20.1392 28.8108 19.6173 28.802C19.3652 28.3666 19.1367 27.9718 18.894 27.5526C19.2073 27.2854 19.4905 26.9758 20.0939 27.1818C19.9029 26.8143 19.7573 26.5345 19.6235 26.2752C20.0757 25.8628 20.4861 25.4908 20.8906 25.1276C21.0636 25.2668 21.1856 25.3647 21.334 25.4801C21.4265 25.4051 21.535 25.348 21.6035 25.2597C22.1916 24.5087 22.4811 24.4071 23.419 24.6647C23.8075 24.772 24.2499 24.6528 24.4341 24.4165C24.7176 24.0416 24.8504 24.6 25.0677 24.1765C25.0108 24.5294 24.9879 24.6402 24.9572 24.8316C25.1939 24.6953 25.3693 24.5942 25.5774 24.4744C25.7589 24.6846 25.9152 24.8605 26.1014 25.0789C26.3422 24.9402 26.5911 24.7969 26.7094 24.7288C27.1721 24.8421 27.4956 24.9217 27.7677 24.9875C27.9233 24.3824 28.0669 23.8221 28.1846 23.3582C28.5437 23.1514 28.76 23.0269 29.0211 22.8765C29.1229 22.4978 29.2281 22.1062 29.3408 21.6994C29.5307 21.6986 29.6488 21.6957 29.8557 21.696C30.024 21.4417 30.2312 21.1324 30.5006 20.733C31.0743 20.6903 31.7046 20.642 32.3034 20.5957C32.5366 20.9986 32.7039 21.2875 32.8382 21.5195C32.8422 22.9552 32.8455 24.3424 32.8529 25.7274C33.2445 25.746 33.5601 25.765 33.8226 25.7767C33.8395 26.022 33.8532 26.2149 33.8768 26.5377C34.2604 26.3168 34.5378 26.1571 34.9132 25.9409C34.9822 26.3515 35.0332 26.6369 35.1227 27.1768C35.2656 26.8504 35.3067 26.7616 35.3807 26.5888C35.6903 26.6818 36.0191 26.78 36.5353 26.9386C36.1591 27.2475 35.9256 27.4362 35.6683 27.6495C35.5257 27.5254 35.4078 27.425 35.2565 27.2952C35.1654 27.3259 35.0516 27.3643 34.9134 27.4168C34.9469 27.5874 34.975 27.7394 35.0055 27.8955C34.7814 27.9595 34.5532 28.0257 34.1715 28.137C34.4793 28.2365 34.5975 28.2716 34.6707 28.2945C34.8542 28.8183 35.0317 29.313 35.2152 29.8368C35.1189 29.9899 34.9895 30.1893 34.8409 30.4213C34.465 30.5239 34.0436 30.6417 33.6076 30.7625C33.5195 30.5257 33.4041 30.2231 33.2888 29.9205C33.2409 29.9318 33.1931 29.9431 33.1476 29.9585C33.1721 30.3296 33.1901 30.6991 33.212 31.0284C32.8188 31.054 32.4239 31.0861 32.0161 31.1147C31.1933 32.5599 30.484 34.0319 29.3926 35.2574C28.6178 36.0617 27.5159 36.2729 26.5201 36.6673C25.7448 36.9727 24.9038 36.6757 24.1725 36.2394C24.0676 36.1804 23.9587 36.1238 23.7841 36.0289C23.5933 35.6993 23.3648 35.3045 23.1457 34.926C23.2198 34.65 23.2853 34.406 23.3319 34.2327C23.673 34.3239 24.027 34.4185 24.233 34.4735C24.5635 34.2832 24.7104 34.1986 24.9185 34.0788C24.7118 33.8722 24.5181 33.669 24.2892 33.4427C24.3373 33.2251 24.3866 33.0285 24.4503 32.7531C24.797 32.7976 25.0766 32.8482 25.3813 32.8952Z" fill="#F6D06D"/>
<path d="M75.4465 93.0624C75.4999 92.8634 75.5448 92.6965 75.6068 92.4654C76.5837 92.8091 77.5542 93.151 78.5246 93.4929C78.556 93.4532 78.5833 93.4157 78.6171 93.38C78.4938 93.2611 78.3884 93.0885 78.2374 93.0343C77.9611 92.933 77.6594 92.9005 77.4509 92.6624C76.9083 92.3454 76.3634 92.0243 75.8361 91.7148C75.9293 91.1239 76.3559 91.2689 76.853 91.216C76.5979 91.0102 76.4378 90.8745 76.2583 90.7337C76.2928 90.6053 76.3359 90.4448 76.3807 90.2779C76.8255 90.0218 77.2702 89.7656 77.7191 89.5072C77.9209 89.5646 78.1269 89.6196 78.3416 89.6805C78.3829 89.6296 78.4499 89.5856 78.4549 89.5284C78.4965 89.168 78.5464 88.8028 78.5605 88.442C78.5752 88.0537 78.395 87.6203 78.8554 87.3443C78.9085 87.3137 78.9178 87.1889 78.9233 87.1044C78.9505 86.7848 78.9174 86.4457 79.0113 86.1475C79.1029 85.8451 79.3174 85.5859 79.529 85.209C79.7167 85.1009 80.0146 84.9294 80.3084 84.7602C80.598 84.8376 80.8876 84.9151 81.1322 84.9804C81.4407 86.6694 81.7479 88.3375 82.0511 90.0079C82.3933 90.2232 82.7636 90.4495 83.1299 90.6781C83.1125 90.7044 83.1015 90.7324 83.0841 90.7587C83.5411 90.8808 83.9916 91.0013 84.5773 91.1578C84.6653 91.1125 84.8478 91.0237 85.0712 90.9114C85.9711 91.1691 86.912 91.4412 87.6704 91.6611C88.5812 91.4676 89.2997 90.8856 90.0501 91.8155C89.8339 92.2221 90.2191 93.0097 89.3286 93.2946C89.3899 93.5414 89.4648 93.8401 89.5458 94.1679C89.6243 94.2096 89.7677 94.2789 89.8808 94.3332C89.7437 94.792 89.6222 95.1929 89.4466 95.7824C88.8001 96.2633 87.9695 96.8773 87.0987 97.5252C85.5643 97.1771 84.0556 96.8357 82.4551 96.4768C82.4376 96.9916 82.4614 97.4934 82.3893 97.9798C82.3121 98.4855 82.1367 98.9719 82.0004 99.479C81.6589 99.5563 81.3133 99.6359 80.9385 99.7215C80.981 99.9359 81.0115 100.092 81.0486 100.288C80.8119 100.424 80.563 100.567 80.2978 100.72C80.2013 100.694 80.0725 100.66 79.9309 100.622C79.6819 100.342 79.4234 100.046 79.1039 99.6819C79.0863 98.2323 79.0646 96.644 79.0455 95.0977C77.9281 94.1729 76.4617 94.008 75.4465 93.0624Z" fill="#F6D06D"/>
</svg>
