<svg width="73" height="71" viewBox="0 0 73 71" fill="none" xmlns="http://www.w3.org/2000/svg">
<path d="M65.4043 48.2725C64.8824 48.2484 64.6376 48.232 64.3003 48.2177C64.26 48.1735 64.139 48.0408 64.0349 47.9267C63.3374 47.8583 62.6642 47.8017 61.9954 47.7278C61.4294 47.6628 60.8661 47.5489 60.3019 47.5156C59.6739 47.4789 59.0497 47.3723 58.4093 47.3665C57.8294 47.3604 57.2086 47.5169 56.6614 47.3022C56.0201 47.0509 55.3948 47.358 54.7575 47.2297C54.1729 47.1146 53.5612 47.1033 52.9698 47.0476C52.969 47.0615 52.964 47.1524 52.9583 47.2573C51.1573 47.3199 49.3482 47.3365 47.5175 47.9445C47.4723 47.9246 47.3236 47.8431 47.1399 47.7528C47.1189 47.8779 47.0986 47.989 47.0779 48.1071C46.0677 48.3553 45.057 48.677 44.045 48.8935C42.7987 49.1642 41.6294 49.7195 40.3257 49.8014C39.6717 49.8475 38.9922 50.1025 38.4124 50.4225C38.0565 50.6176 37.945 50.3768 37.6989 50.3217C37.6554 50.4667 37.6118 50.6116 37.5549 50.8084C36.7539 51.0045 35.931 51.2135 35.0796 51.4209C35.0806 51.2071 35.0841 51.0776 35.0843 50.8778C34.6835 50.7865 34.3282 50.382 33.6092 50.8384C33.8222 50.457 33.9525 50.222 34.1142 49.9325C33.5806 49.9253 33.3673 49.921 33.1076 49.9178C33.0555 50.0904 33.0079 50.2457 32.9554 50.4252C32.7177 50.4758 32.4438 50.5384 32.1773 50.5944C32.1184 50.5002 32.0131 50.407 32.03 50.3588C32.163 50.0082 32.324 49.6661 32.4741 49.3269C32.1306 48.7723 31.696 49.2367 31.3055 49.2161C31.3105 49.1252 31.3154 49.0343 31.3223 48.9085C31.155 48.8435 30.9772 48.7745 30.7852 48.7048C30.8775 48.317 30.9649 47.9535 31.0858 47.434C31.8739 46.6237 32.8571 45.7605 33.6349 44.7463C34.0371 44.2241 34.6428 43.8214 34.8791 43.2729C35.169 42.5905 35.8825 42.3653 36.1659 41.8017C36.4774 41.1801 37.104 40.8521 37.4214 40.3184C37.7702 39.7303 38.3695 39.3798 38.6906 38.8429C39.4508 37.5648 40.65 36.5903 41.2172 35.1969C41.7805 34.9181 41.8807 34.124 42.5784 33.9926C42.7843 33.2847 43.2519 32.738 43.6855 32.1613C44.2958 31.3486 44.6274 30.3565 45.4098 29.651C45.6308 29.4488 45.6936 29.0805 45.9186 28.6086C44.7127 29.1829 43.6788 29.6718 42.4141 30.2781C42.2942 30.2577 41.8918 30.1944 41.4932 30.1277C41.275 30.4738 41.1194 30.718 40.9521 30.9792C39.713 31.4431 38.5754 32.3962 37.0824 32.3594C37.1146 33.0097 36.4076 33.1162 36.1725 33.5104C34.5871 33.928 33.3703 34.898 31.8537 35.6874C31.8253 35.6859 31.6022 35.6635 31.3863 35.6416C30.7938 35.8662 30.535 36.5012 29.831 36.6183C29.3208 36.7035 28.7869 37.096 28.42 37.4939C27.9771 37.9788 27.3808 38.2733 26.8576 38.4035C26.2043 38.5688 25.9377 39.0841 25.3777 39.3666C25.2219 39.3513 24.9952 39.3324 24.6836 39.3019C23.7578 40.2872 22.5551 40.9985 21.4262 41.8575C21.2077 41.8179 20.9929 41.7749 20.7146 41.7217C20.3892 42.0095 20.0676 42.294 19.6675 42.648C19.6607 42.3812 19.66 42.262 19.6524 42.0091C19.1725 42.5202 18.6248 42.5123 17.9987 42.3741C17.9671 42.2356 17.9299 42.0689 17.8983 41.9305C16.9123 41.8643 15.8979 41.7968 14.9721 41.7373C14.8088 41.4026 14.6802 41.1504 14.5202 40.8194C14.5614 40.7164 14.6427 40.5314 14.7206 40.3427C14.6534 40.269 14.5929 40.2027 14.5056 40.1069C14.3673 40.1627 14.2141 40.2317 13.9808 40.3316C13.3951 39.7783 13.391 39.0698 13.4694 38.3482C13.8705 37.847 13.8705 37.8471 13.6648 36.9842C13.555 37.301 13.513 37.4179 13.4493 37.6074C13.3429 37.5351 13.2189 37.4585 13.0539 37.3516C13.2518 37.1167 13.4119 36.9218 13.6173 36.6802C13.448 36.6502 13.3314 36.6335 13.2504 36.6187C13.1608 35.7796 13.0676 34.9437 12.9691 34.0059C13.0514 33.9331 13.2122 33.7909 13.4216 33.6056C13.2132 33.5771 13.0895 33.56 12.927 33.5374C13.0097 33.391 13.0883 33.2549 13.1943 33.0747C13.0599 32.9274 12.9188 32.7727 12.808 32.6511C12.8213 32.4064 12.8312 32.2246 12.8411 32.0428C13.2263 32.0281 13.6227 31.744 14.0076 32.0624C13.9265 31.3288 13.3296 31.5041 12.7685 31.4149C12.9537 31.2178 13.1007 31.0678 13.2518 30.9075C13.1299 30.27 13.1406 29.6149 12.642 29.0311C12.2237 28.5427 12.487 27.8905 12.7911 27.2755C12.6185 27.2419 12.5165 27.2189 12.3051 27.1797C12.4581 26.9844 12.5886 26.809 12.7574 26.5865C12.7062 26.5453 12.6349 26.4819 12.4135 26.2984C12.3624 25.8645 12.4079 25.2253 12.1992 24.6778C11.9 23.8977 12.3649 23.1404 12.0414 22.3485C11.7589 21.6534 11.6984 20.8684 11.7025 20.0728C11.7081 18.9897 11.454 17.9034 11.3002 16.7418C11.0907 16.9271 10.9299 17.0694 10.7429 17.2348C10.7854 17.3702 10.8424 17.5661 10.9239 17.8334C10.6866 17.8769 10.4785 17.908 10.2341 17.9512C10.1104 18.3268 9.93963 18.7175 9.86747 19.1273C9.80622 19.4677 9.45651 19.8103 9.79576 20.1824C9.31988 20.4237 9.36569 20.8889 9.34285 21.3084C9.21507 21.3017 9.12281 21.2968 9.05182 21.293C8.94339 22.8264 8.40766 24.2321 7.75948 25.6107C7.74329 26.1042 7.72708 26.5978 7.71462 27.0879C7.56129 27.2236 7.43039 27.3394 7.37803 27.3857C7.21813 28.0995 7.07739 28.7231 6.91787 29.4299C6.61345 29.3332 6.39681 29.2587 6.1204 29.1704C5.97986 29.5942 5.84459 29.9868 5.72129 30.3554C6.02335 30.5607 6.28431 30.7357 6.54531 30.9108C6.30223 31.8446 6.07719 32.7092 5.79323 33.8056C5.52693 33.3358 5.63856 33.0506 5.6228 32.7518C4.99721 32.866 5.29707 33.3727 5.18727 33.6894C5.02248 33.7088 4.8581 33.7211 4.50722 33.7587C4.62991 33.9896 4.74251 34.2094 4.8555 34.4222C4.75948 34.4206 4.66007 34.4154 4.56405 34.4138C4.75641 34.4766 4.95254 34.536 5.16619 34.5999C5.01785 34.9707 4.89425 35.2797 4.77102 35.5817C4.59653 35.583 4.46462 35.5866 4.31852 35.5894C4.30495 35.7079 4.29434 35.837 4.27474 36.0007C4.57566 36.227 4.89713 36.4684 5.1876 36.6906C4.8019 37.8903 4.43344 39.0348 4.06498 40.1793C4.01529 40.1767 3.95848 40.1737 3.90879 40.1711C3.89434 40.0441 3.87994 39.9172 3.84739 39.5999C3.41527 40.1485 3.06322 40.5997 2.65019 41.1248C2.18156 40.8406 1.75437 40.5796 1.12368 40.1992C1.09865 40.2014 0.830758 40.2188 0.484375 40.2391C0.911173 38.6769 0.969865 37.1409 1.13356 35.6385C1.36062 33.5609 1.97768 31.5775 2.33809 29.5351C2.71016 27.409 3.36804 25.3297 3.89889 23.2296C4.19902 22.0323 4.46403 20.8263 4.78882 19.6339C5.24636 17.9646 5.67627 16.2799 6.25259 14.652C6.50515 13.9361 6.47943 13.167 6.88443 12.4626C7.23067 11.8568 7.26246 11.0767 7.42198 10.3699C7.83707 8.56518 8.30443 6.7808 8.51183 4.93357C8.64495 3.73104 8.941 2.5441 9.20059 1.17645C9.48481 0.925005 9.91863 0.541227 10.4198 0.0979004C10.6963 0.378968 11.094 0.592829 11.0609 1.20112C11.357 0.992383 11.6311 0.796488 11.8902 0.613842C13.1254 1.00516 14.0209 1.81679 14.8305 2.96395C14.7938 3.11628 14.7273 3.42127 14.6008 3.97905C14.5686 4.04747 14.3976 4.37854 14.2014 4.77838C14.6028 4.98891 14.9071 5.15224 15.191 5.30046C15.2509 5.89965 15.3501 6.49739 15.3532 7.09357C15.3575 7.60217 15.8562 8.11936 15.1529 8.61511C15.4368 8.63011 15.5291 8.63503 15.6994 8.64403C15.3928 9.24138 16.1772 9.87181 15.537 10.4515C15.6757 10.6482 15.8014 10.8231 15.947 11.0271C15.8777 11.1216 15.8081 11.2232 15.7236 11.3379C16.3519 12.9383 16.3405 14.6521 16.4526 16.383C16.5198 16.4567 16.6681 16.5451 16.6904 16.6585C16.7792 17.119 17.023 17.6753 16.8474 18.0236C16.5673 18.5908 17.1809 19.2193 16.5572 19.6912C16.7639 19.9475 16.9576 20.1821 17.1643 20.4385C17.0891 20.5782 17.0097 20.7283 16.9146 20.9056C17.0147 21.0301 17.1248 21.1656 17.2987 21.3712C17.2605 21.8109 17.2218 22.3242 17.1711 22.9281C16.8578 22.7993 16.6733 22.723 16.4194 22.6149C16.4791 23.0212 16.5307 23.3816 16.5856 23.7456C16.7399 23.7888 16.8941 23.832 17.1395 23.9011C17.0661 24.1391 16.9474 24.3572 16.9427 24.5743C16.9395 24.7635 17.0749 24.9565 17.1431 25.1424C17.2802 25.1742 17.4453 25.2145 17.73 25.2821C17.6524 25.5304 17.5804 25.7405 17.4683 26.0992C17.388 26.137 17.1319 26.2637 16.8321 26.4091C16.9362 26.5233 17.0773 26.678 17.2049 26.818C17.0251 27.3099 16.8962 27.6502 17.1987 28.1745C17.7231 29.0682 17.8423 30.1473 18.1114 31.1537C18.1527 31.3102 17.9814 31.515 17.911 31.6971C18.0522 31.7186 18.1759 31.7356 18.1617 31.7349C18.1764 32.3142 18.2677 32.8589 18.1794 33.3696C18.094 33.891 17.8287 34.3854 17.5949 35.0181C17.7067 35.3186 17.9702 35.1852 18.4229 34.5851C18.3262 35.183 18.2905 35.381 18.2488 35.6242C18.0645 35.674 17.8695 35.7269 17.5118 35.8237C17.8722 36.004 18.1183 36.1256 18.392 36.2628C18.4039 36.3721 18.4146 36.5024 18.4319 36.7067C18.6098 36.709 18.9074 36.7984 18.9909 36.7047C19.4042 36.2392 19.954 36.1455 20.4589 36.0249C21.0322 35.1717 22.0561 34.9979 22.8185 34.4632C23.6587 33.873 24.5399 33.313 25.4774 32.8963C26.3749 32.4949 27.3034 32.1127 28.0673 31.5501C28.8795 30.9514 29.8128 30.6115 30.6496 30.0842C31.5046 29.5474 32.4463 29.1204 33.389 28.7389C34.2954 28.3696 35.0848 27.7978 36.0084 27.4399C36.9466 27.0757 37.886 26.624 38.747 26.1085C39.6009 25.5927 40.5465 25.3552 41.4149 24.8997C42.2758 24.4508 43.1599 24.0347 44.053 23.6507C44.9789 23.2508 45.9372 22.9088 46.8761 22.5307C47.7789 22.1647 48.6719 21.7806 49.6445 21.3727C49.9853 21.3907 50.4396 21.4147 50.8797 21.438C50.8807 21.5502 50.8806 21.6834 50.8812 21.8026C51.2443 22.2601 51.6149 21.9256 51.9176 21.8574C52.3929 22.2156 52.8372 22.5546 53.3158 22.9165C53.3157 22.9831 53.3156 23.1163 53.3125 23.2388C54.2678 23.3454 54.3115 24.112 54.3717 24.7708C54.4278 25.44 54.3161 26.1177 54.2769 26.8379C53.4176 27.8443 53.2804 29.3832 51.8901 30.074C51.9946 30.2478 52.0599 30.3565 52.1673 30.541C51.6525 31.1694 51.1071 31.8383 50.4928 32.5947C50.5055 32.6234 50.5759 32.7674 50.627 32.8752C50.2034 33.5295 49.8048 34.1816 49.3688 34.8001C49.199 35.0436 48.9681 35.361 48.7125 35.4141C48.0682 35.5448 47.7167 35.8558 47.5158 36.4728C47.4221 36.7553 47.0975 36.9626 47.0097 37.3331C47.2603 37.1114 47.5146 36.8864 47.81 36.6251C47.861 36.7996 47.9154 36.9111 47.8971 36.9207C47.3187 37.3459 47.0102 37.9782 46.6722 38.5634C46.3893 39.0533 46.0005 39.5236 45.5573 39.6229C44.9844 39.7504 44.8035 40.1966 44.1474 40.4775C44.4851 40.5514 44.5837 40.5706 44.6857 40.5936C44.4292 41.5126 44.2761 41.8411 43.5895 42.0292C43.0401 42.1825 42.857 42.6041 42.5789 43.0031C42.8751 42.7943 43.1749 42.5823 43.6891 42.2273C43.1552 42.9458 42.7821 43.4555 42.2519 44.1708C44.5154 43.4595 46.637 43.3928 48.7214 43.0927C50.8451 42.7912 51.9694 42.8015 53.7222 43.101C54.0431 43.1565 54.3892 43.01 54.715 43.0412C55.2814 43.0992 55.8383 43.2653 56.4062 43.2953C56.9278 43.3264 57.4638 43.1584 57.9767 43.2171C59.3351 43.373 60.6637 43.7482 62.0413 43.814C62.1761 43.8211 62.303 44.0416 62.4452 44.1754C62.6717 44.1347 62.9348 44.0084 63.156 44.0657C64.2422 44.3159 65.3439 44.5459 66.3916 44.9168C67.2226 45.2132 68.0784 45.4477 68.8985 45.8136C69.7115 46.1791 70.3136 46.7578 71.0298 47.2024C71.7665 47.662 72.2028 48.4739 72.4844 49.3828C71.2088 49.4066 71.2335 50.7822 70.471 51.3836C70.8348 51.1083 71.2024 50.8297 71.5663 50.5544C71.6129 50.613 71.6562 50.6678 71.7028 50.7264C71.4785 50.9249 71.254 51.1234 71.0259 51.3252C70.8202 51.5072 70.6149 51.6822 70.4126 51.8678C70.1878 52.0733 69.8731 52.232 69.9553 52.6185C69.5594 52.4363 69.632 52.9976 69.3802 52.9808C68.9371 52.9469 69.2822 53.5401 68.8577 53.5562C68.626 53.5615 68.3751 53.7235 68.1717 53.8635C67.9201 54.0396 67.7013 54.2664 67.4919 54.4517C67.2809 54.3388 67.1322 54.2574 66.897 54.1328C66.9946 54.3658 67.058 54.5094 67.1464 54.7174C67.048 54.8244 66.9275 54.9443 66.7349 55.148C66.3658 55.1285 65.9219 55.1085 65.5282 55.0842C65.3587 55.254 65.2345 55.3772 65.1182 55.4867C65.1968 55.6767 65.2561 55.8306 65.3444 56.0386C65.1076 55.942 64.9265 55.8693 64.742 55.7929C64.6672 55.8591 64.5999 55.9186 64.5176 55.9914C64.5716 56.1766 64.6323 56.3691 64.6986 56.59C63.9401 56.9216 63.149 57.1357 62.5229 57.7162C62.2379 57.9816 61.751 58.033 61.3185 58.196C61.3189 58.189 61.3076 58.2655 61.2832 58.3869C60.6466 58.7039 59.9842 59.0371 59.1718 59.4429C59.2312 59.0709 59.2733 58.8207 59.3072 58.5911C58.9415 58.8347 58.7481 59.0524 58.5295 59.4721C58.4865 59.4768 58.4399 59.4849 58.3973 59.4826C58.3083 59.4814 58.2127 59.4729 58.1062 59.4672C58.105 59.5548 58.1071 59.6461 58.1059 59.7337C58.1036 59.7756 58.0942 59.8172 58.0845 59.8657C57.738 60.0192 57.3881 60.169 56.9287 60.3691C56.7003 60.1187 56.4114 59.8019 56.1225 59.4851C56.0575 59.5027 55.9887 59.5236 55.9237 59.5412C55.9556 59.7392 55.9872 59.9443 56.0321 60.2306C56.1404 60.2679 56.3257 60.3303 56.6854 60.458C56.11 60.7606 55.6375 61.0056 55.1829 61.2481C55.0458 61.1497 54.9394 61.0775 54.8334 60.9982C54.6334 61.794 54.0001 61.8552 53.3499 61.898C53.1425 61.9151 52.9258 61.9738 52.7396 62.0586C52.3127 62.2499 51.8985 62.4699 51.3972 62.7204C51.3834 62.7127 51.2765 62.6475 51.0525 62.5129C50.8718 62.6927 50.6643 62.9096 50.3217 63.2526C50.4214 63.2509 50.2914 63.2194 50.1894 63.2631C49.37 63.602 48.5921 64.0307 47.7373 64.3011C47.6577 64.325 47.603 64.4132 47.5226 64.451C47.0172 64.7118 46.3603 64.3546 45.9111 64.8252C45.5184 65.2392 44.9506 65.1426 44.4837 65.3493C43.9839 65.5718 43.4617 65.7476 42.9463 65.9307C42.79 65.9891 42.6014 65.9896 42.4582 66.0697C42.3005 66.156 42.1822 66.3005 41.984 66.4759C41.7763 66.4333 41.5085 66.3842 41.3112 66.3457C41.0307 66.5938 40.8288 66.7725 40.6194 66.9577C39.8255 66.8948 39.0248 66.8244 38.3916 67.4711C38.3351 67.5277 38.239 67.5927 38.168 67.589C36.9972 67.4535 36.0772 68.2674 34.9621 68.4153C33.8863 68.5618 32.8661 69.0584 31.7957 69.2998C30.3797 69.6142 28.9402 69.8362 27.5101 70.0832C27.377 70.1077 27.2242 70.1031 27.102 70.0581C25.9461 69.6499 24.7942 69.2314 23.7469 68.8535C23.394 68.2739 23.1031 67.7993 22.7308 67.1836C22.8047 66.9386 22.9261 66.5383 23.0435 66.1483C23.7776 65.8716 24.4774 65.572 25.2013 65.3508C25.9324 65.13 26.6761 64.9379 27.4295 64.8304C29.0797 64.5951 30.6321 64.0004 32.2424 63.6473C33.2006 63.4384 34.0923 62.9491 35.1063 63.0237C36.5922 62.2748 38.2182 61.9611 39.7869 61.4584C40.4642 61.2453 41.1862 61.1256 41.834 60.7988C42.4344 60.4939 43.0829 60.2862 43.7052 60.0351C45.6632 59.248 47.6207 58.4679 49.5689 57.6628C50.5849 57.2432 51.5912 56.8055 52.5848 56.3391C53.5855 55.8731 54.5568 55.2934 55.5582 54.88C57.3135 54.1523 58.7902 52.9857 60.5023 52.2032C61.4039 51.7915 62.1699 51.0607 62.9589 50.4292C63.7375 49.7937 64.4544 49.1128 65.4043 48.2725Z" fill="#185951"/>
</svg>
