<svg width="136" height="157" viewBox="0 0 136 157" fill="none" xmlns="http://www.w3.org/2000/svg">
<path d="M18.02 103.943C18.8317 103.942 19.3639 103.292 19.9874 103.754C20.6347 104.235 21.2138 104.755 21.4672 105.61C22.257 108.3 23.0713 110.982 23.9401 113.638C24.1475 114.255 24.0546 114.796 23.9687 115.388C23.7445 116.983 23.4615 118.561 22.8298 120.05C22.534 120.743 22.1371 121.369 21.5277 121.854C21.2038 122.107 20.7454 121.747 20.4005 122.339C20.1258 122.81 19.3653 121.96 18.7995 122.181C18.1776 121.405 18.7769 120.77 19.0809 120.074C18.3925 119.983 17.7645 120.205 17.0886 120.038C16.4316 119.874 15.8987 119.707 15.8228 118.995C15.7317 118.116 14.96 118.015 14.4318 117.632C14.5268 117.36 14.8644 117.093 14.6391 116.795C12.7739 114.323 12.9236 112.194 13.1098 109.632C13.1605 108.925 13.2958 108.058 13.1599 107.499C12.8395 106.135 13.447 104.888 13.2846 103.574C13.1659 102.605 13.587 101.855 14.6555 101.586C14.8535 101.534 14.8863 101.03 15.4379 100.966C15.6323 101.077 16.1608 101.2 16.2306 101.456C16.4521 102.294 16.754 102.9 17.7138 103.033C17.8379 103.03 17.9018 103.558 18.02 103.943Z" fill="#185951"/>
<path d="M41.6546 23.294C40.6718 23.3479 39.7508 24.3878 38.6775 23.5364C38.7984 22.8257 38.9136 22.1258 39.0227 21.4637C38.5085 21.1836 38.3219 21.4479 37.9981 21.701C36.7955 22.6668 36.4225 22.5852 35.5219 21.366C35.3882 21.1922 35.3358 20.8763 35.0952 20.9062C33.4436 21.078 33.3192 19.3935 32.3908 18.6945C32.8149 17.6922 31.455 17.2439 31.6254 16.4909C31.8195 15.6408 31.3772 14.6653 32.0786 13.9269C32.2884 13.7092 32.08 13.4957 32.0472 13.2725C31.7846 11.3705 32.121 9.70441 33.7897 8.51305C34.009 8.35521 33.9999 7.91824 34.569 7.91202C34.9536 8.32212 35.433 8.83736 35.9099 9.34446C36.4195 9.34775 37.1196 8.66365 37.3419 9.8242C38.1566 9.57122 38.955 9.32327 39.8837 9.03487C40.4213 10.2052 40.6369 11.5474 41.8855 12.1559C41.9815 12.2069 42.0626 12.442 42.0382 12.5662C41.7793 13.7865 42.5419 14.9048 42.4189 16.0739C42.3599 16.6666 42.3207 17.0917 42.7787 17.479C43.8909 18.3991 43.3993 19.5301 43.0587 20.5424C42.7411 21.4847 42.1558 22.3395 41.6546 23.294Z" fill="#185951"/>
<path d="M37.3902 87.3995C37.4866 86.5798 38.2123 86.5609 38.8625 86.1794C38.4292 85.2908 38.5842 84.1388 37.5687 83.4758C38.2618 83.2337 38.2618 83.2336 38.7139 83.3984C39.1203 82.9491 39.1279 82.3634 39.331 81.7169C39.7149 83.3748 40.7345 84.3416 42.1221 84.7633C42.6761 84.708 42.6342 84.2812 42.8565 84.1044C44.2262 85.4562 44.4971 86.2516 45.1099 90.7194C45.428 93.0349 44.8542 95.2056 43.8102 97.5313C43.3623 97.7871 42.1421 96.6313 41.8189 98.1946C40.7228 97.1528 41.8123 96.0516 41.5109 94.8079C40.9002 95.3475 40.2966 95.8222 39.5017 95.7908C39.0264 95.5794 39.3516 94.8951 38.828 94.6718C38.0053 94.3169 37.2515 93.8958 37.8829 92.7842C36.7028 92.3699 37.7066 91.367 37.3386 90.6915C36.9863 90.038 36.8608 89.2513 36.632 88.5056C37.3753 88.4274 37.7598 89.2144 38.469 88.8505C38.8673 87.7934 37.6841 88.0083 37.3902 87.3995Z" fill="#185951"/>
<path d="M104.63 15.5842C105.071 16.0308 105.7 15.4943 106.228 15.555C106.353 15.9647 106.446 16.2678 106.534 16.5546C106.609 16.5943 106.709 16.6888 106.731 16.673C107.828 15.8839 108.866 16.9705 109.973 16.7702C111.04 16.5825 111.863 17.1706 112.375 18.1424C112.583 18.5268 112.496 18.8856 112.19 19.1961C114.394 20.1271 113.747 21.9436 113.646 23.6177C113.512 25.7685 112.081 26.4553 110.358 26.8913C109.722 26.0389 109.674 25.1833 110.134 24.3853C108.529 23.9234 108.54 25.3559 107.765 25.8566C107.328 25.4182 106.937 25.0188 106.589 24.6692C106.446 24.175 107.11 23.7803 106.597 23.3294C105.781 22.793 105.927 24.0223 105.25 24.0261C104.177 23.5246 103.92 22.3388 103.622 21.2824C103.253 21.2985 103.034 21.3127 102.699 21.3269C102.642 20.7343 103.366 20.3299 103.158 19.7393C102.959 19.092 102.426 19.7963 102.082 19.3735C102.866 18.1786 103.178 16.6367 104.63 15.5842Z" fill="#185951"/>
<path d="M62.5929 62.7625C61.9331 62.9674 61.3466 63.1495 60.7682 63.3291C60.2777 63.0686 60.066 62.0304 60.2491 60.8247C58.9342 60.2907 58.9117 61.6709 58.4138 62.1128C57.7477 62.3555 57.5259 61.7782 57.2018 61.798C56.8076 61.2114 57.547 60.8292 57.0883 60.2357C56.5384 60.1013 55.6169 60.6747 55.1667 59.9349C54.844 59.4068 54.4767 58.7042 55.0377 57.9735C54.7117 57.9581 54.4315 57.9464 54.1432 57.9372C54.0065 57.2885 54.7079 56.5502 53.9488 55.8794C54.5095 54.3051 55.9696 53.2772 56.9042 51.8741C57.0744 51.6148 57.3508 50.8289 58.1089 51.0602C58.467 51.3259 57.8804 51.5081 58.0305 51.7936C58.7785 51.9921 59.4066 51.2765 60.1909 51.4189C60.5561 51.8529 60.4539 52.6835 61.3372 52.7412C62.1357 51.9996 63.031 51.5151 64.2562 52.5707C63.3915 53.62 62.0089 54.3187 62.265 56.0252C63.1767 55.769 63.4841 54.794 64.3099 54.4029C64.5394 54.5112 64.8091 54.6338 65.1747 54.8075C65.2525 54.8282 65.1561 54.9209 65.1249 55.1101C64.9141 56.2257 63.3096 56.5804 63.6081 57.9596C62.7349 58.6616 63.1586 59.7507 63.1906 60.4947C63.2416 61.3584 62.9563 61.9406 62.5929 62.7625Z" fill="#185951"/>
<path d="M84.5413 0.0489044C84.4699 0.717308 83.9995 1.01605 84.6262 1.57534C84.9937 1.78432 85.5051 1.09591 86.1815 1.23587C86.2619 1.38144 86.3657 1.57362 86.5057 1.82632C86.6035 1.9126 86.7488 1.92137 86.787 1.78388C86.9207 1.34745 87.2736 1.24678 87.6509 1.1386C88.7419 0.826718 89.0737 1.06475 89.5053 2.15133C89.697 2.63033 89.3657 2.97549 89.4708 3.4634C89.845 3.37414 90.1947 3.29256 90.6853 3.17608C91.5437 4.72252 91.0275 6.47136 91.1964 8.09727C91.278 8.91558 90.2043 9.6619 89.2486 9.94969C88.8506 9.90278 88.8591 9.52316 88.77 9.40723C88.5115 9.14645 88.4721 9.2215 88.3519 9.41139C87.9939 9.98928 87.4319 10.2805 86.8516 9.81452C86.2607 9.34284 85.7101 9.61257 85.1423 9.6812C84.7346 9.45776 84.8418 8.99362 84.6629 8.67224C84.2784 8.37879 83.9416 8.73471 83.4966 8.73829C82.484 8.43346 82.5114 7.06964 81.5864 6.58504C82.7744 2.14137 83.1353 1.31126 84.5413 0.0489044Z" fill="#185951"/>
<path d="M88.341 103.744C88.9256 104.864 89.839 105.02 90.9328 104.339C92.6237 106.04 92.8897 108.273 93.2847 110.403C93.3692 110.852 93.2801 111.464 93.4968 111.908C93.9226 112.772 93.5948 113.681 93.7104 114.552C93.795 115.235 92.8685 115.675 92.3688 116.198C91.341 115.728 91.341 115.728 90.8041 114.763C90.5384 114.828 90.2481 114.9 90.4543 114.845C89.3094 115.156 89.5481 114.247 89.002 114.183C88.6873 114.146 88.1782 113.999 88.1508 113.532C88.1112 112.764 86.912 112.606 87.1739 111.861C87.4358 111.115 86.9589 110.492 87.0611 109.894C87.3217 108.36 87.0909 106.852 87.0487 105.348C87.0058 104.365 87.3922 103.967 88.341 103.744Z" fill="#185951"/>
<path d="M21.5027 53.3094C21.9141 53.4868 22.2347 53.7463 22.7793 53.631C24.1561 53.3201 24.1736 53.3776 24.9597 54.7759C26.046 54.7976 26.8767 54.1895 27.5787 53.5407C28.1331 53.8352 27.9605 54.3197 28.2447 54.6353C27.9679 54.838 27.7431 55.0065 27.4581 55.2117C27.6945 55.9819 27.9385 56.7768 28.2453 57.7764C28.6425 57.5005 29.0177 57.2403 29.574 56.8432C29.8052 56.7535 30.0261 57.2414 30.401 57.2417C30.3014 58.6907 29.5189 59.8042 28.902 60.992C27.7375 61.0934 26.9229 62.6836 25.5504 61.7007C25.5685 61.6143 25.1785 60.1109 24.9984 59.8438C25.2026 59.7534 25.4044 59.6549 25.603 59.5753C25.7446 59.5133 25.8831 59.4703 26.0272 59.4166C26.2826 58.9693 25.8245 58.4654 26.2183 57.9751C25.223 58.715 24.3995 59.4913 23.9354 60.5958C23.5127 60.3232 23.1208 60.1218 22.5958 60.4464C23.3212 59.3505 21.711 58.7555 22.6439 57.667C21.7622 57.9049 21.8486 58.5064 21.5335 58.7299C21.2428 58.9458 20.8844 59.0571 20.5711 59.1992C19.9179 58.4956 19.1534 57.9522 19.2582 56.7529C19.6694 56.0867 21.0461 55.7758 20.836 54.3063C19.8944 54.8141 19.4025 55.5952 19.059 56.2493C18.3965 56.3294 18.3581 56.0003 18.2863 55.7084C19.4357 55.4413 18.8971 54.0647 19.7565 53.4927C20.4462 53.0361 20.8778 52.1751 21.6348 51.24C21.8281 52.1313 21.6532 52.7242 21.5027 53.3094Z" fill="#185951"/>
<path d="M62.4641 113.97C62.6443 113.627 62.8245 113.284 63.0047 112.941C62.0749 112.673 63.3622 111.286 62.1241 111.177C63.203 108.616 63.2123 108.559 62.653 106.417C63.2803 106.222 63.932 106.02 64.7222 105.775C64.9184 105.803 64.8687 106.223 65.102 106.402C67.2466 106.005 67.8432 106.349 68.5497 108.418C68.737 108.971 68.7489 109.649 69.4612 109.876C69.2156 110.617 69.6964 111.311 69.4464 112.125C68.9752 113.671 68.2031 115.051 67.4949 116.465C67.1285 116.812 66.6971 116.802 66.3261 116.873C65.8766 116.106 66.8424 115.24 65.7862 114.59C65.6469 115.037 65.5187 115.463 65.3793 115.91C64.303 115.194 62.8923 115.336 62.4641 113.97Z" fill="#185951"/>
<path d="M38.6023 155.163C38.7509 154.542 39.6483 154.937 39.7768 154.25C39.0489 154.117 38.4539 154.563 37.6987 154.689C37.1432 153.839 36.3438 153.154 35.6861 152.29C34.3028 150.458 34.2434 148.519 34.4301 146.424C34.5052 145.593 34.8652 145.167 35.7865 145.087C36.1392 145.48 36.5601 145.951 37.0471 146.491C37.5912 146.519 38.3047 146.082 38.9618 146.857C39.3681 148.355 39.8111 150.03 41.3165 151.098C41.1717 151.789 41.05 152.41 40.914 153.072C41.186 153.086 41.4744 153.095 41.9026 153.124C41.9121 153.91 41.8707 154.677 41.4164 155.465C40.838 155.644 40.1944 155.844 39.5346 156.049C39.1839 155.808 38.6624 155.736 38.6023 155.163Z" fill="#185951"/>
<path d="M86.0828 80.338C86.2415 79.7502 86.7667 79.7755 87.142 79.632C88.4953 80.2619 88.2844 81.9878 89.394 82.7831C88.8691 85.7823 88.8692 85.7822 86.9427 87.5293C86.4513 87.5562 86.095 87.3258 85.8038 86.9585C85.5225 86.5073 86.3453 86.1352 85.8866 85.6584C85.3121 85.2983 85.0924 85.7165 84.886 86.1486C83.4511 86.0377 83.2582 84.2757 81.9334 83.9421C81.7739 82.9864 81.2026 82.1137 81.2173 81.086L82.3598 78.2092C82.6481 78.1017 82.9307 78.0049 83.2108 77.9C83.6098 78.2697 84.5821 79.5474 84.5565 79.7259C85.035 79.9184 85.5241 80.1166 86.0828 80.338Z" fill="#185951"/>
<path d="M110.128 71.9911C110.51 71.666 109.904 71.1724 110.236 71.0333C110.836 70.6942 111.187 70.9624 111.454 71.1936C112.01 71.6672 111.784 72.6169 112.249 73.0288C112.836 73.5465 113.119 73.9163 112.851 74.7267C112.631 75.4054 113.074 76.0936 112.964 76.8994C112.7 78.8303 112.784 78.9569 110.954 79.5072C110.89 79.4732 110.775 79.4462 110.76 79.3971C110.653 79.1071 110.57 78.8096 110.46 78.449C109.759 78.2896 108.936 78.8326 108.287 77.9121C107.806 77.2177 106.842 76.9248 106.712 75.8612C106.614 75.048 106.193 74.3441 106.722 73.4527C106.986 73.0029 107.156 72.2499 106.902 71.5389C106.717 71.0221 107.059 70.5659 107.633 70.3157C108.167 70.0781 108.569 70.3123 108.889 70.5989C109.368 70.9975 109.726 71.5236 110.128 71.9911Z" fill="#185951"/>
<path d="M91.1958 60.746C90.5685 60.9408 89.9738 61.1254 89.3873 61.3076C88.8218 61.1511 89.0655 60.4921 88.7105 60.2074C88.3104 60.0086 87.9897 60.3594 87.6118 60.378C86.7791 59.4967 85.8207 58.6994 85.1497 57.7052C84.4266 56.6283 84.602 55.2814 84.6485 54.0374C85.4396 53.3878 86.0663 53.9471 86.7248 54.2901C87.3113 54.108 87.8978 53.9258 88.5006 53.7386C89.0636 54.4972 89.706 55.0786 90.719 54.5127C91.4077 54.954 91.0045 56.1113 91.96 56.3172C91.7318 56.9983 91.5199 57.6745 91.6435 58.4259C91.7564 59.1717 91.5817 59.8812 91.1958 60.746Z" fill="#185951"/>
<path d="M135.415 39.4568C134.943 40.797 133.87 41.5162 132.618 42.0307C131.428 41.2336 132.839 40.5708 132.742 39.8471C131.512 39.2417 131.196 41.0005 130.123 40.7052C129.443 40.378 130.099 39.9587 130.105 39.571C129.657 39.2435 129.255 39.853 128.854 39.6813C128.204 38.8692 128.498 37.6469 127.46 36.9998C127.984 36.1191 127.456 34.892 128.337 34.0438C129.36 33.9148 130.17 34.4619 131.069 34.8022C131.857 35.1047 132.862 34.6851 133.771 35.758C133.774 36.9597 135.365 37.8389 135.415 39.4568Z" fill="#185951"/>
<path d="M2.73175 84.6907C3.61702 84.9004 4.38787 84.7958 5.1357 85.488C4.88399 85.7726 4.5855 86.1076 4.29497 86.4402C5.39253 86.4404 5.91526 85.2369 7.01195 85.6412C6.7954 86.6509 5.74206 86.969 5.26641 87.745C5.35154 88.284 5.66113 88.1879 6.09239 88.1975C6.79883 88.2025 6.6091 87.1485 7.33637 87.3086C7.64052 87.4564 7.86531 87.7816 7.64427 88.0207C6.46454 89.2936 5.65427 90.8108 4.72166 92.2492C4.17149 93.1022 3.97727 93.342 2.86396 93.9301C2.81273 93.4434 3.20228 93.1428 3.34667 92.7121C2.56145 92.2469 2.23306 92.9502 1.77397 93.3441C1.41082 92.4516 0.443917 91.9172 0.415039 90.544C1.44278 88.9504 1.56586 86.6773 2.73175 84.6907Z" fill="#185951"/>
</svg>
